<?xml version="1.0" encoding="utf-8" standalone="no"?>
<!DOCTYPE svg PUBLIC "-//W3C//DTD SVG 1.1//EN"
  "http://www.w3.org/Graphics/SVG/1.1/DTD/svg11.dtd">
<svg xmlns:xlink="http://www.w3.org/1999/xlink" width="1071.146406pt" height="509.014265pt" viewBox="0 0 1071.146406 509.014265" xmlns="http://www.w3.org/2000/svg" version="1.1">
 <metadata>
  <rdf:RDF xmlns:dc="http://purl.org/dc/elements/1.1/" xmlns:cc="http://creativecommons.org/ns#" xmlns:rdf="http://www.w3.org/1999/02/22-rdf-syntax-ns#">
   <cc:Work>
    <dc:type rdf:resource="http://purl.org/dc/dcmitype/StillImage"/>
    <dc:date>2025-05-30T22:59:43.445298</dc:date>
    <dc:format>image/svg+xml</dc:format>
    <dc:creator>
     <cc:Agent>
      <dc:title>Matplotlib v3.10.3, https://matplotlib.org/</dc:title>
     </cc:Agent>
    </dc:creator>
   </cc:Work>
  </rdf:RDF>
 </metadata>
 <defs>
  <style type="text/css">*{stroke-linejoin: round; stroke-linecap: butt}</style>
 </defs>
 <g id="figure_1">
  <g id="patch_1">
   <path d="M 0 509.014265 
L 1071.146406 509.014265 
L 1071.146406 0 
L 0 0 
z
" style="fill: #ffffff"/>
  </g>
  <g id="axes_1">
   <g id="patch_2">
    <path d="M 65.056406 420.314211 
L 1063.946406 420.314211 
L 1063.946406 43.5015 
L 65.056406 43.5015 
z
" style="fill: #ffffff"/>
   </g>
   <g id="patch_3">
    <path d="M 120.550295 -2259.703893 
L 120.550295 -2259.703893 
L 120.550295 -2259.703893 
L 120.550295 -2259.703893 
z
" clip-path="url(#p92d3575a2e)" style="fill: #6a80d1; stroke: #545454; stroke-linejoin: miter"/>
   </g>
   <g id="patch_4">
    <path d="M 120.550295 -2259.703893 
L 120.550295 -2259.703893 
L 120.550295 -2259.703893 
L 120.550295 -2259.703893 
z
" clip-path="url(#p92d3575a2e)" style="fill: #c46156; stroke: #545454; stroke-linejoin: miter"/>
   </g>
   <g id="matplotlib.axis_1">
    <g id="xtick_1">
     <g id="line2d_1">
      <defs>
       <path id="ma3309ff0f4" d="M 0 0 
L 0 3.5 
" style="stroke: #333333; stroke-width: 0.8"/>
      </defs>
      <g>
       <use xlink:href="#ma3309ff0f4" x="120.550295" y="420.314211" style="fill: #333333; stroke: #333333; stroke-width: 0.8"/>
      </g>
     </g>
     <g id="text_1">
      <!-- prefrontal -->
      <g style="fill: #333333" transform="translate(86.629388 464.747229) rotate(-45) scale(0.09 -0.09)">
       <defs>
        <path id="DejaVuSerif-70" d="M 1313 1825 
L 1313 1497 
Q 1313 897 1542 583 
Q 1772 269 2209 269 
Q 2650 269 2876 622 
Q 3103 975 3103 1663 
Q 3103 2353 2876 2703 
Q 2650 3053 2209 3053 
Q 1772 3053 1542 2737 
Q 1313 2422 1313 1825 
z
M 738 2988 
L 184 2988 
L 184 3322 
L 1313 3322 
L 1313 2803 
Q 1481 3116 1742 3264 
Q 2003 3413 2388 3413 
Q 3000 3413 3387 2928 
Q 3775 2444 3775 1663 
Q 3775 881 3387 395 
Q 3000 -91 2388 -91 
Q 2003 -91 1742 57 
Q 1481 206 1313 519 
L 1313 -997 
L 1856 -997 
L 1856 -1331 
L 184 -1331 
L 184 -997 
L 738 -997 
L 738 2988 
z
" transform="scale(0.015625)"/>
        <path id="DejaVuSerif-72" d="M 3059 3328 
L 3059 2497 
L 2728 2497 
Q 2713 2744 2591 2866 
Q 2469 2988 2234 2988 
Q 1809 2988 1582 2694 
Q 1356 2400 1356 1850 
L 1356 331 
L 2022 331 
L 2022 0 
L 263 0 
L 263 331 
L 781 331 
L 781 2994 
L 231 2994 
L 231 3322 
L 1356 3322 
L 1356 2731 
Q 1525 3078 1790 3245 
Q 2056 3413 2438 3413 
Q 2578 3413 2733 3391 
Q 2888 3369 3059 3328 
z
" transform="scale(0.015625)"/>
        <path id="DejaVuSerif-65" d="M 3469 1600 
L 991 1600 
L 991 1575 
Q 991 903 1244 561 
Q 1497 219 1991 219 
Q 2369 219 2611 417 
Q 2853 616 2950 1006 
L 3413 1006 
Q 3275 459 2904 184 
Q 2534 -91 1931 -91 
Q 1203 -91 761 389 
Q 319 869 319 1663 
Q 319 2450 753 2931 
Q 1188 3413 1894 3413 
Q 2647 3413 3050 2948 
Q 3453 2484 3469 1600 
z
M 2791 1931 
Q 2772 2513 2545 2808 
Q 2319 3103 1894 3103 
Q 1497 3103 1269 2806 
Q 1041 2509 991 1931 
L 2791 1931 
z
" transform="scale(0.015625)"/>
        <path id="DejaVuSerif-66" d="M 2753 4078 
L 2450 4078 
Q 2447 4313 2317 4434 
Q 2188 4556 1941 4556 
Q 1619 4556 1487 4379 
Q 1356 4203 1356 3750 
L 1356 3322 
L 2284 3322 
L 2284 2988 
L 1356 2988 
L 1356 331 
L 2094 331 
L 2094 0 
L 231 0 
L 231 331 
L 781 331 
L 781 2988 
L 231 2988 
L 231 3322 
L 781 3322 
L 781 3738 
Q 781 4294 1070 4578 
Q 1359 4863 1919 4863 
Q 2128 4863 2337 4825 
Q 2547 4788 2753 4709 
L 2753 4078 
z
" transform="scale(0.015625)"/>
        <path id="DejaVuSerif-6f" d="M 1925 219 
Q 2388 219 2623 584 
Q 2859 950 2859 1663 
Q 2859 2375 2623 2739 
Q 2388 3103 1925 3103 
Q 1463 3103 1227 2739 
Q 991 2375 991 1663 
Q 991 950 1228 584 
Q 1466 219 1925 219 
z
M 1925 -91 
Q 1200 -91 759 389 
Q 319 869 319 1663 
Q 319 2456 758 2934 
Q 1197 3413 1925 3413 
Q 2653 3413 3092 2934 
Q 3531 2456 3531 1663 
Q 3531 869 3092 389 
Q 2653 -91 1925 -91 
z
" transform="scale(0.015625)"/>
        <path id="DejaVuSerif-6e" d="M 263 0 
L 263 331 
L 781 331 
L 781 2988 
L 231 2988 
L 231 3322 
L 1356 3322 
L 1356 2731 
Q 1516 3069 1770 3241 
Q 2025 3413 2363 3413 
Q 2913 3413 3172 3097 
Q 3431 2781 3431 2113 
L 3431 331 
L 3944 331 
L 3944 0 
L 2356 0 
L 2356 331 
L 2853 331 
L 2853 1931 
Q 2853 2541 2703 2767 
Q 2553 2994 2175 2994 
Q 1775 2994 1565 2701 
Q 1356 2409 1356 1850 
L 1356 331 
L 1856 331 
L 1856 0 
L 263 0 
z
" transform="scale(0.015625)"/>
        <path id="DejaVuSerif-74" d="M 691 2988 
L 184 2988 
L 184 3322 
L 691 3322 
L 691 4353 
L 1269 4353 
L 1269 3322 
L 2350 3322 
L 2350 2988 
L 1269 2988 
L 1269 878 
Q 1269 456 1350 337 
Q 1431 219 1650 219 
Q 1875 219 1978 351 
Q 2081 484 2088 781 
L 2522 781 
Q 2497 328 2275 118 
Q 2053 -91 1600 -91 
Q 1103 -91 897 129 
Q 691 350 691 878 
L 691 2988 
z
" transform="scale(0.015625)"/>
        <path id="DejaVuSerif-61" d="M 2547 1044 
L 2547 1747 
L 1806 1747 
Q 1378 1747 1168 1562 
Q 959 1378 959 997 
Q 959 650 1171 447 
Q 1384 244 1747 244 
Q 2106 244 2326 466 
Q 2547 688 2547 1044 
z
M 3122 2075 
L 3122 331 
L 3634 331 
L 3634 0 
L 2547 0 
L 2547 359 
Q 2356 128 2106 18 
Q 1856 -91 1522 -91 
Q 969 -91 644 203 
Q 319 497 319 997 
Q 319 1513 691 1797 
Q 1063 2081 1741 2081 
L 2547 2081 
L 2547 2309 
Q 2547 2688 2317 2895 
Q 2088 3103 1672 3103 
Q 1328 3103 1125 2947 
Q 922 2791 872 2484 
L 575 2484 
L 575 3156 
Q 875 3284 1158 3348 
Q 1441 3413 1709 3413 
Q 2400 3413 2761 3070 
Q 3122 2728 3122 2075 
z
" transform="scale(0.015625)"/>
        <path id="DejaVuSerif-6c" d="M 1313 331 
L 1856 331 
L 1856 0 
L 184 0 
L 184 331 
L 738 331 
L 738 4531 
L 184 4531 
L 184 4863 
L 1313 4863 
L 1313 331 
z
" transform="scale(0.015625)"/>
       </defs>
       <use xlink:href="#DejaVuSerif-70"/>
       <use xlink:href="#DejaVuSerif-72" transform="translate(64.013672 0)"/>
       <use xlink:href="#DejaVuSerif-65" transform="translate(111.816406 0)"/>
       <use xlink:href="#DejaVuSerif-66" transform="translate(170.996094 0)"/>
       <use xlink:href="#DejaVuSerif-72" transform="translate(208.007812 0)"/>
       <use xlink:href="#DejaVuSerif-6f" transform="translate(255.810547 0)"/>
       <use xlink:href="#DejaVuSerif-6e" transform="translate(316.015625 0)"/>
       <use xlink:href="#DejaVuSerif-74" transform="translate(380.419922 0)"/>
       <use xlink:href="#DejaVuSerif-61" transform="translate(420.605469 0)"/>
       <use xlink:href="#DejaVuSerif-6c" transform="translate(480.224609 0)"/>
      </g>
     </g>
    </g>
    <g id="xtick_2">
     <g id="line2d_2">
      <g>
       <use xlink:href="#ma3309ff0f4" x="231.538073" y="420.314211" style="fill: #333333; stroke: #333333; stroke-width: 0.8"/>
      </g>
     </g>
     <g id="text_2">
      <!-- frontal -->
      <g style="fill: #333333" transform="translate(208.49954 453.864855) rotate(-45) scale(0.09 -0.09)">
       <use xlink:href="#DejaVuSerif-66"/>
       <use xlink:href="#DejaVuSerif-72" transform="translate(37.011719 0)"/>
       <use xlink:href="#DejaVuSerif-6f" transform="translate(84.814453 0)"/>
       <use xlink:href="#DejaVuSerif-6e" transform="translate(145.019531 0)"/>
       <use xlink:href="#DejaVuSerif-74" transform="translate(209.423828 0)"/>
       <use xlink:href="#DejaVuSerif-61" transform="translate(249.609375 0)"/>
       <use xlink:href="#DejaVuSerif-6c" transform="translate(309.228516 0)"/>
      </g>
     </g>
    </g>
    <g id="xtick_3">
     <g id="line2d_3">
      <g>
       <use xlink:href="#ma3309ff0f4" x="342.525851" y="420.314211" style="fill: #333333; stroke: #333333; stroke-width: 0.8"/>
      </g>
     </g>
     <g id="text_3">
      <!-- frontocentral -->
      <g style="fill: #333333" transform="translate(298.627446 474.724726) rotate(-45) scale(0.09 -0.09)">
       <defs>
        <path id="DejaVuSerif-63" d="M 3291 997 
Q 3169 466 2822 187 
Q 2475 -91 1925 -91 
Q 1200 -91 759 389 
Q 319 869 319 1663 
Q 319 2459 759 2936 
Q 1200 3413 1925 3413 
Q 2241 3413 2553 3339 
Q 2866 3266 3181 3116 
L 3181 2266 
L 2847 2266 
Q 2781 2703 2561 2903 
Q 2341 3103 1931 3103 
Q 1466 3103 1228 2742 
Q 991 2381 991 1663 
Q 991 944 1227 581 
Q 1463 219 1931 219 
Q 2303 219 2525 412 
Q 2747 606 2828 997 
L 3291 997 
z
" transform="scale(0.015625)"/>
       </defs>
       <use xlink:href="#DejaVuSerif-66"/>
       <use xlink:href="#DejaVuSerif-72" transform="translate(37.011719 0)"/>
       <use xlink:href="#DejaVuSerif-6f" transform="translate(84.814453 0)"/>
       <use xlink:href="#DejaVuSerif-6e" transform="translate(145.019531 0)"/>
       <use xlink:href="#DejaVuSerif-74" transform="translate(209.423828 0)"/>
       <use xlink:href="#DejaVuSerif-6f" transform="translate(249.609375 0)"/>
       <use xlink:href="#DejaVuSerif-63" transform="translate(309.814453 0)"/>
       <use xlink:href="#DejaVuSerif-65" transform="translate(365.820312 0)"/>
       <use xlink:href="#DejaVuSerif-6e" transform="translate(425 0)"/>
       <use xlink:href="#DejaVuSerif-74" transform="translate(489.404297 0)"/>
       <use xlink:href="#DejaVuSerif-72" transform="translate(529.589844 0)"/>
       <use xlink:href="#DejaVuSerif-61" transform="translate(577.392578 0)"/>
       <use xlink:href="#DejaVuSerif-6c" transform="translate(637.011719 0)"/>
      </g>
     </g>
    </g>
    <g id="xtick_4">
     <g id="line2d_4">
      <g>
       <use xlink:href="#ma3309ff0f4" x="453.513628" y="420.314211" style="fill: #333333; stroke: #333333; stroke-width: 0.8"/>
      </g>
     </g>
     <g id="text_4">
      <!-- central -->
      <g style="fill: #333333" transform="translate(429.331571 455.00838) rotate(-45) scale(0.09 -0.09)">
       <use xlink:href="#DejaVuSerif-63"/>
       <use xlink:href="#DejaVuSerif-65" transform="translate(56.005859 0)"/>
       <use xlink:href="#DejaVuSerif-6e" transform="translate(115.185547 0)"/>
       <use xlink:href="#DejaVuSerif-74" transform="translate(179.589844 0)"/>
       <use xlink:href="#DejaVuSerif-72" transform="translate(219.775391 0)"/>
       <use xlink:href="#DejaVuSerif-61" transform="translate(267.578125 0)"/>
       <use xlink:href="#DejaVuSerif-6c" transform="translate(327.197266 0)"/>
      </g>
     </g>
    </g>
    <g id="xtick_5">
     <g id="line2d_5">
      <g>
       <use xlink:href="#ma3309ff0f4" x="564.501406" y="420.314211" style="fill: #333333; stroke: #333333; stroke-width: 0.8"/>
      </g>
     </g>
     <g id="text_5">
      <!-- centroparietal -->
      <g style="fill: #333333" transform="translate(517.21817 478.109558) rotate(-45) scale(0.09 -0.09)">
       <defs>
        <path id="DejaVuSerif-69" d="M 622 4353 
Q 622 4497 726 4603 
Q 831 4709 978 4709 
Q 1122 4709 1226 4603 
Q 1331 4497 1331 4353 
Q 1331 4206 1228 4103 
Q 1125 4000 978 4000 
Q 831 4000 726 4103 
Q 622 4206 622 4353 
z
M 1356 331 
L 1900 331 
L 1900 0 
L 231 0 
L 231 331 
L 781 331 
L 781 2988 
L 231 2988 
L 231 3322 
L 1356 3322 
L 1356 331 
z
" transform="scale(0.015625)"/>
       </defs>
       <use xlink:href="#DejaVuSerif-63"/>
       <use xlink:href="#DejaVuSerif-65" transform="translate(56.005859 0)"/>
       <use xlink:href="#DejaVuSerif-6e" transform="translate(115.185547 0)"/>
       <use xlink:href="#DejaVuSerif-74" transform="translate(179.589844 0)"/>
       <use xlink:href="#DejaVuSerif-72" transform="translate(219.775391 0)"/>
       <use xlink:href="#DejaVuSerif-6f" transform="translate(267.578125 0)"/>
       <use xlink:href="#DejaVuSerif-70" transform="translate(327.783203 0)"/>
       <use xlink:href="#DejaVuSerif-61" transform="translate(391.796875 0)"/>
       <use xlink:href="#DejaVuSerif-72" transform="translate(451.416016 0)"/>
       <use xlink:href="#DejaVuSerif-69" transform="translate(499.21875 0)"/>
       <use xlink:href="#DejaVuSerif-65" transform="translate(531.201172 0)"/>
       <use xlink:href="#DejaVuSerif-74" transform="translate(590.380859 0)"/>
       <use xlink:href="#DejaVuSerif-61" transform="translate(630.566406 0)"/>
       <use xlink:href="#DejaVuSerif-6c" transform="translate(690.185547 0)"/>
      </g>
     </g>
    </g>
    <g id="xtick_6">
     <g id="line2d_6">
      <g>
       <use xlink:href="#ma3309ff0f4" x="675.489184" y="420.314211" style="fill: #333333; stroke: #333333; stroke-width: 0.8"/>
      </g>
     </g>
     <g id="text_6">
      <!-- temporal -->
      <g style="fill: #333333" transform="translate(645.029676 461.285831) rotate(-45) scale(0.09 -0.09)">
       <defs>
        <path id="DejaVuSerif-6d" d="M 3316 2675 
Q 3481 3041 3739 3227 
Q 3997 3413 4341 3413 
Q 4863 3413 5119 3089 
Q 5375 2766 5375 2113 
L 5375 331 
L 5894 331 
L 5894 0 
L 4300 0 
L 4300 331 
L 4800 331 
L 4800 2047 
Q 4800 2556 4650 2772 
Q 4500 2988 4153 2988 
Q 3769 2988 3567 2697 
Q 3366 2406 3366 1850 
L 3366 331 
L 3866 331 
L 3866 0 
L 2291 0 
L 2291 331 
L 2791 331 
L 2791 2069 
Q 2791 2566 2641 2777 
Q 2491 2988 2144 2988 
Q 1759 2988 1557 2697 
Q 1356 2406 1356 1850 
L 1356 331 
L 1856 331 
L 1856 0 
L 263 0 
L 263 331 
L 781 331 
L 781 2994 
L 231 2994 
L 231 3322 
L 1356 3322 
L 1356 2731 
Q 1516 3063 1762 3238 
Q 2009 3413 2322 3413 
Q 2709 3413 2968 3220 
Q 3228 3028 3316 2675 
z
" transform="scale(0.015625)"/>
       </defs>
       <use xlink:href="#DejaVuSerif-74"/>
       <use xlink:href="#DejaVuSerif-65" transform="translate(40.185547 0)"/>
       <use xlink:href="#DejaVuSerif-6d" transform="translate(99.365234 0)"/>
       <use xlink:href="#DejaVuSerif-70" transform="translate(194.189453 0)"/>
       <use xlink:href="#DejaVuSerif-6f" transform="translate(258.203125 0)"/>
       <use xlink:href="#DejaVuSerif-72" transform="translate(318.408203 0)"/>
       <use xlink:href="#DejaVuSerif-61" transform="translate(366.210938 0)"/>
       <use xlink:href="#DejaVuSerif-6c" transform="translate(425.830078 0)"/>
      </g>
     </g>
    </g>
    <g id="xtick_7">
     <g id="line2d_7">
      <g>
       <use xlink:href="#ma3309ff0f4" x="786.476962" y="420.314211" style="fill: #333333; stroke: #333333; stroke-width: 0.8"/>
      </g>
     </g>
     <g id="text_7">
      <!-- parietal -->
      <g style="fill: #333333" transform="translate(760.053597 457.249687) rotate(-45) scale(0.09 -0.09)">
       <use xlink:href="#DejaVuSerif-70"/>
       <use xlink:href="#DejaVuSerif-61" transform="translate(64.013672 0)"/>
       <use xlink:href="#DejaVuSerif-72" transform="translate(123.632812 0)"/>
       <use xlink:href="#DejaVuSerif-69" transform="translate(171.435547 0)"/>
       <use xlink:href="#DejaVuSerif-65" transform="translate(203.417969 0)"/>
       <use xlink:href="#DejaVuSerif-74" transform="translate(262.597656 0)"/>
       <use xlink:href="#DejaVuSerif-61" transform="translate(302.783203 0)"/>
       <use xlink:href="#DejaVuSerif-6c" transform="translate(362.402344 0)"/>
      </g>
     </g>
    </g>
    <g id="xtick_8">
     <g id="line2d_8">
      <g>
       <use xlink:href="#ma3309ff0f4" x="897.46474" y="420.314211" style="fill: #333333; stroke: #333333; stroke-width: 0.8"/>
      </g>
     </g>
     <g id="text_8">
      <!-- parietooccipital -->
      <g style="fill: #333333" transform="translate(845.548739 482.742323) rotate(-45) scale(0.09 -0.09)">
       <use xlink:href="#DejaVuSerif-70"/>
       <use xlink:href="#DejaVuSerif-61" transform="translate(64.013672 0)"/>
       <use xlink:href="#DejaVuSerif-72" transform="translate(123.632812 0)"/>
       <use xlink:href="#DejaVuSerif-69" transform="translate(171.435547 0)"/>
       <use xlink:href="#DejaVuSerif-65" transform="translate(203.417969 0)"/>
       <use xlink:href="#DejaVuSerif-74" transform="translate(262.597656 0)"/>
       <use xlink:href="#DejaVuSerif-6f" transform="translate(302.783203 0)"/>
       <use xlink:href="#DejaVuSerif-6f" transform="translate(362.988281 0)"/>
       <use xlink:href="#DejaVuSerif-63" transform="translate(423.193359 0)"/>
       <use xlink:href="#DejaVuSerif-63" transform="translate(479.199219 0)"/>
       <use xlink:href="#DejaVuSerif-69" transform="translate(535.205078 0)"/>
       <use xlink:href="#DejaVuSerif-70" transform="translate(567.1875 0)"/>
       <use xlink:href="#DejaVuSerif-69" transform="translate(631.201172 0)"/>
       <use xlink:href="#DejaVuSerif-74" transform="translate(663.183594 0)"/>
       <use xlink:href="#DejaVuSerif-61" transform="translate(703.369141 0)"/>
       <use xlink:href="#DejaVuSerif-6c" transform="translate(762.988281 0)"/>
      </g>
     </g>
    </g>
    <g id="xtick_9">
     <g id="line2d_9">
      <g>
       <use xlink:href="#ma3309ff0f4" x="1008.452517" y="420.314211" style="fill: #333333; stroke: #333333; stroke-width: 0.8"/>
      </g>
     </g>
     <g id="text_9">
      <!-- occipital -->
      <g style="fill: #333333" transform="translate(979.637695 459.641144) rotate(-45) scale(0.09 -0.09)">
       <use xlink:href="#DejaVuSerif-6f"/>
       <use xlink:href="#DejaVuSerif-63" transform="translate(60.205078 0)"/>
       <use xlink:href="#DejaVuSerif-63" transform="translate(116.210938 0)"/>
       <use xlink:href="#DejaVuSerif-69" transform="translate(172.216797 0)"/>
       <use xlink:href="#DejaVuSerif-70" transform="translate(204.199219 0)"/>
       <use xlink:href="#DejaVuSerif-69" transform="translate(268.212891 0)"/>
       <use xlink:href="#DejaVuSerif-74" transform="translate(300.195312 0)"/>
       <use xlink:href="#DejaVuSerif-61" transform="translate(340.380859 0)"/>
       <use xlink:href="#DejaVuSerif-6c" transform="translate(400 0)"/>
      </g>
     </g>
    </g>
    <g id="text_10">
     <!-- Cortical Region -->
     <g transform="translate(509.119375 498.70364) scale(0.14 -0.14)">
      <defs>
       <path id="DejaVuSerif-43" d="M 4513 1234 
Q 4306 581 3820 245 
Q 3334 -91 2591 -91 
Q 2134 -91 1743 65 
Q 1353 222 1050 525 
Q 700 875 529 1320 
Q 359 1766 359 2328 
Q 359 3416 987 4083 
Q 1616 4750 2644 4750 
Q 3025 4750 3456 4650 
Q 3888 4550 4384 4347 
L 4384 3272 
L 4031 3272 
Q 3916 3859 3567 4137 
Q 3219 4416 2591 4416 
Q 1844 4416 1459 3886 
Q 1075 3356 1075 2328 
Q 1075 1303 1459 773 
Q 1844 244 2591 244 
Q 3113 244 3450 492 
Q 3788 741 3938 1234 
L 4513 1234 
z
" transform="scale(0.015625)"/>
       <path id="DejaVuSerif-20" transform="scale(0.015625)"/>
       <path id="DejaVuSerif-52" d="M 3066 2316 
Q 3284 2256 3442 2114 
Q 3600 1972 3725 1716 
L 4403 331 
L 4972 331 
L 4972 0 
L 3872 0 
L 3144 1484 
Q 2934 1916 2759 2042 
Q 2584 2169 2278 2169 
L 1581 2169 
L 1581 331 
L 2241 331 
L 2241 0 
L 353 0 
L 353 331 
L 947 331 
L 947 4331 
L 353 4331 
L 353 4666 
L 2719 4666 
Q 3400 4666 3770 4341 
Q 4141 4016 4141 3419 
Q 4141 2938 3870 2661 
Q 3600 2384 3066 2316 
z
M 1581 2503 
L 2503 2503 
Q 2975 2503 3200 2726 
Q 3425 2950 3425 3419 
Q 3425 3888 3200 4109 
Q 2975 4331 2503 4331 
L 1581 4331 
L 1581 2503 
z
" transform="scale(0.015625)"/>
       <path id="DejaVuSerif-67" d="M 3359 2988 
L 3359 72 
Q 3359 -644 2965 -1033 
Q 2572 -1422 1844 -1422 
Q 1516 -1422 1216 -1362 
Q 916 -1303 641 -1184 
L 641 -488 
L 941 -488 
Q 997 -813 1206 -963 
Q 1416 -1113 1806 -1113 
Q 2313 -1113 2548 -827 
Q 2784 -541 2784 72 
L 2784 519 
Q 2616 206 2355 57 
Q 2094 -91 1709 -91 
Q 1097 -91 708 395 
Q 319 881 319 1663 
Q 319 2444 706 2928 
Q 1094 3413 1709 3413 
Q 2094 3413 2355 3264 
Q 2616 3116 2784 2803 
L 2784 3322 
L 3909 3322 
L 3909 2988 
L 3359 2988 
z
M 2784 1825 
Q 2784 2422 2554 2737 
Q 2325 3053 1888 3053 
Q 1444 3053 1217 2703 
Q 991 2353 991 1663 
Q 991 975 1217 622 
Q 1444 269 1888 269 
Q 2325 269 2554 583 
Q 2784 897 2784 1497 
L 2784 1825 
z
" transform="scale(0.015625)"/>
      </defs>
      <use xlink:href="#DejaVuSerif-43"/>
      <use xlink:href="#DejaVuSerif-6f" transform="translate(76.513672 0)"/>
      <use xlink:href="#DejaVuSerif-72" transform="translate(136.71875 0)"/>
      <use xlink:href="#DejaVuSerif-74" transform="translate(184.521484 0)"/>
      <use xlink:href="#DejaVuSerif-69" transform="translate(224.707031 0)"/>
      <use xlink:href="#DejaVuSerif-63" transform="translate(256.689453 0)"/>
      <use xlink:href="#DejaVuSerif-61" transform="translate(312.695312 0)"/>
      <use xlink:href="#DejaVuSerif-6c" transform="translate(372.314453 0)"/>
      <use xlink:href="#DejaVuSerif-20" transform="translate(404.296875 0)"/>
      <use xlink:href="#DejaVuSerif-52" transform="translate(436.083984 0)"/>
      <use xlink:href="#DejaVuSerif-65" transform="translate(511.376953 0)"/>
      <use xlink:href="#DejaVuSerif-67" transform="translate(570.556641 0)"/>
      <use xlink:href="#DejaVuSerif-69" transform="translate(634.570312 0)"/>
      <use xlink:href="#DejaVuSerif-6f" transform="translate(666.552734 0)"/>
      <use xlink:href="#DejaVuSerif-6e" transform="translate(726.757812 0)"/>
     </g>
    </g>
   </g>
   <g id="matplotlib.axis_2">
    <g id="ytick_1">
     <g id="line2d_10">
      <defs>
       <path id="m25f5fab250" d="M 0 0 
L -3.5 0 
" style="stroke: #333333; stroke-width: 0.8"/>
      </defs>
      <g>
       <use xlink:href="#m25f5fab250" x="65.056406" y="384.144025" style="fill: #333333; stroke: #333333; stroke-width: 0.8"/>
      </g>
     </g>
     <g id="text_11">
      <!-- −127.5 -->
      <g style="fill: #333333" transform="translate(24.749375 387.563322) scale(0.09 -0.09)">
       <defs>
        <path id="DejaVuSerif-2212" d="M 678 2259 
L 4684 2259 
L 4684 1753 
L 678 1753 
L 678 2259 
z
" transform="scale(0.015625)"/>
        <path id="DejaVuSerif-31" d="M 909 0 
L 909 331 
L 1722 331 
L 1722 4213 
L 781 3603 
L 781 4013 
L 1919 4750 
L 2350 4750 
L 2350 331 
L 3163 331 
L 3163 0 
L 909 0 
z
" transform="scale(0.015625)"/>
        <path id="DejaVuSerif-32" d="M 819 3553 
L 469 3553 
L 469 4384 
Q 803 4563 1142 4656 
Q 1481 4750 1806 4750 
Q 2534 4750 2956 4397 
Q 3378 4044 3378 3438 
Q 3378 2753 2422 1800 
Q 2347 1728 2309 1691 
L 1131 513 
L 3078 513 
L 3078 1088 
L 3444 1088 
L 3444 0 
L 434 0 
L 434 341 
L 1850 1753 
Q 2319 2222 2519 2614 
Q 2719 3006 2719 3438 
Q 2719 3909 2473 4175 
Q 2228 4441 1797 4441 
Q 1350 4441 1106 4219 
Q 863 3997 819 3553 
z
" transform="scale(0.015625)"/>
        <path id="DejaVuSerif-37" d="M 3609 4347 
L 1784 0 
L 1319 0 
L 3059 4153 
L 903 4153 
L 903 3578 
L 538 3578 
L 538 4666 
L 3609 4666 
L 3609 4347 
z
" transform="scale(0.015625)"/>
        <path id="DejaVuSerif-2e" d="M 603 325 
Q 603 500 722 622 
Q 841 744 1019 744 
Q 1191 744 1312 622 
Q 1434 500 1434 325 
Q 1434 153 1312 31 
Q 1191 -91 1019 -91 
Q 841 -91 722 29 
Q 603 150 603 325 
z
" transform="scale(0.015625)"/>
        <path id="DejaVuSerif-35" d="M 3219 4666 
L 3219 4153 
L 1081 4153 
L 1081 2816 
Q 1244 2928 1461 2984 
Q 1678 3041 1947 3041 
Q 2703 3041 3140 2622 
Q 3578 2203 3578 1478 
Q 3578 738 3136 323 
Q 2694 -91 1894 -91 
Q 1572 -91 1234 -12 
Q 897 66 544 225 
L 544 1131 
L 897 1131 
Q 925 688 1179 453 
Q 1434 219 1894 219 
Q 2388 219 2653 544 
Q 2919 869 2919 1478 
Q 2919 2084 2655 2407 
Q 2391 2731 1894 2731 
Q 1613 2731 1398 2631 
Q 1184 2531 1019 2322 
L 750 2322 
L 750 4666 
L 3219 4666 
z
" transform="scale(0.015625)"/>
       </defs>
       <use xlink:href="#DejaVuSerif-2212"/>
       <use xlink:href="#DejaVuSerif-31" transform="translate(83.789062 0)"/>
       <use xlink:href="#DejaVuSerif-32" transform="translate(147.412109 0)"/>
       <use xlink:href="#DejaVuSerif-37" transform="translate(211.035156 0)"/>
       <use xlink:href="#DejaVuSerif-2e" transform="translate(274.658203 0)"/>
       <use xlink:href="#DejaVuSerif-35" transform="translate(306.445312 0)"/>
      </g>
     </g>
    </g>
    <g id="ytick_2">
     <g id="line2d_11">
      <g>
       <use xlink:href="#m25f5fab250" x="65.056406" y="332.303869" style="fill: #333333; stroke: #333333; stroke-width: 0.8"/>
      </g>
     </g>
     <g id="text_12">
      <!-- −125.0 -->
      <g style="fill: #333333" transform="translate(24.749375 335.723166) scale(0.09 -0.09)">
       <defs>
        <path id="DejaVuSerif-30" d="M 2034 219 
Q 2513 219 2750 744 
Q 2988 1269 2988 2328 
Q 2988 3391 2750 3916 
Q 2513 4441 2034 4441 
Q 1556 4441 1318 3916 
Q 1081 3391 1081 2328 
Q 1081 1269 1318 744 
Q 1556 219 2034 219 
z
M 2034 -91 
Q 1275 -91 848 546 
Q 422 1184 422 2328 
Q 422 3475 848 4112 
Q 1275 4750 2034 4750 
Q 2797 4750 3222 4112 
Q 3647 3475 3647 2328 
Q 3647 1184 3222 546 
Q 2797 -91 2034 -91 
z
" transform="scale(0.015625)"/>
       </defs>
       <use xlink:href="#DejaVuSerif-2212"/>
       <use xlink:href="#DejaVuSerif-31" transform="translate(83.789062 0)"/>
       <use xlink:href="#DejaVuSerif-32" transform="translate(147.412109 0)"/>
       <use xlink:href="#DejaVuSerif-35" transform="translate(211.035156 0)"/>
       <use xlink:href="#DejaVuSerif-2e" transform="translate(274.658203 0)"/>
       <use xlink:href="#DejaVuSerif-30" transform="translate(306.445312 0)"/>
      </g>
     </g>
    </g>
    <g id="ytick_3">
     <g id="line2d_12">
      <g>
       <use xlink:href="#m25f5fab250" x="65.056406" y="280.463714" style="fill: #333333; stroke: #333333; stroke-width: 0.8"/>
      </g>
     </g>
     <g id="text_13">
      <!-- −122.5 -->
      <g style="fill: #333333" transform="translate(24.749375 283.883011) scale(0.09 -0.09)">
       <use xlink:href="#DejaVuSerif-2212"/>
       <use xlink:href="#DejaVuSerif-31" transform="translate(83.789062 0)"/>
       <use xlink:href="#DejaVuSerif-32" transform="translate(147.412109 0)"/>
       <use xlink:href="#DejaVuSerif-32" transform="translate(211.035156 0)"/>
       <use xlink:href="#DejaVuSerif-2e" transform="translate(274.658203 0)"/>
       <use xlink:href="#DejaVuSerif-35" transform="translate(306.445312 0)"/>
      </g>
     </g>
    </g>
    <g id="ytick_4">
     <g id="line2d_13">
      <g>
       <use xlink:href="#m25f5fab250" x="65.056406" y="228.623559" style="fill: #333333; stroke: #333333; stroke-width: 0.8"/>
      </g>
     </g>
     <g id="text_14">
      <!-- −120.0 -->
      <g style="fill: #333333" transform="translate(24.749375 232.042856) scale(0.09 -0.09)">
       <use xlink:href="#DejaVuSerif-2212"/>
       <use xlink:href="#DejaVuSerif-31" transform="translate(83.789062 0)"/>
       <use xlink:href="#DejaVuSerif-32" transform="translate(147.412109 0)"/>
       <use xlink:href="#DejaVuSerif-30" transform="translate(211.035156 0)"/>
       <use xlink:href="#DejaVuSerif-2e" transform="translate(274.658203 0)"/>
       <use xlink:href="#DejaVuSerif-30" transform="translate(306.445312 0)"/>
      </g>
     </g>
    </g>
    <g id="ytick_5">
     <g id="line2d_14">
      <g>
       <use xlink:href="#m25f5fab250" x="65.056406" y="176.783404" style="fill: #333333; stroke: #333333; stroke-width: 0.8"/>
      </g>
     </g>
     <g id="text_15">
      <!-- −117.5 -->
      <g style="fill: #333333" transform="translate(24.749375 180.202701) scale(0.09 -0.09)">
       <use xlink:href="#DejaVuSerif-2212"/>
       <use xlink:href="#DejaVuSerif-31" transform="translate(83.789062 0)"/>
       <use xlink:href="#DejaVuSerif-31" transform="translate(147.412109 0)"/>
       <use xlink:href="#DejaVuSerif-37" transform="translate(211.035156 0)"/>
       <use xlink:href="#DejaVuSerif-2e" transform="translate(274.658203 0)"/>
       <use xlink:href="#DejaVuSerif-35" transform="translate(306.445312 0)"/>
      </g>
     </g>
    </g>
    <g id="ytick_6">
     <g id="line2d_15">
      <g>
       <use xlink:href="#m25f5fab250" x="65.056406" y="124.943248" style="fill: #333333; stroke: #333333; stroke-width: 0.8"/>
      </g>
     </g>
     <g id="text_16">
      <!-- −115.0 -->
      <g style="fill: #333333" transform="translate(24.749375 128.362545) scale(0.09 -0.09)">
       <use xlink:href="#DejaVuSerif-2212"/>
       <use xlink:href="#DejaVuSerif-31" transform="translate(83.789062 0)"/>
       <use xlink:href="#DejaVuSerif-31" transform="translate(147.412109 0)"/>
       <use xlink:href="#DejaVuSerif-35" transform="translate(211.035156 0)"/>
       <use xlink:href="#DejaVuSerif-2e" transform="translate(274.658203 0)"/>
       <use xlink:href="#DejaVuSerif-30" transform="translate(306.445312 0)"/>
      </g>
     </g>
    </g>
    <g id="ytick_7">
     <g id="line2d_16">
      <g>
       <use xlink:href="#m25f5fab250" x="65.056406" y="73.103093" style="fill: #333333; stroke: #333333; stroke-width: 0.8"/>
      </g>
     </g>
     <g id="text_17">
      <!-- −112.5 -->
      <g style="fill: #333333" transform="translate(24.749375 76.52239) scale(0.09 -0.09)">
       <use xlink:href="#DejaVuSerif-2212"/>
       <use xlink:href="#DejaVuSerif-31" transform="translate(83.789062 0)"/>
       <use xlink:href="#DejaVuSerif-31" transform="translate(147.412109 0)"/>
       <use xlink:href="#DejaVuSerif-32" transform="translate(211.035156 0)"/>
       <use xlink:href="#DejaVuSerif-2e" transform="translate(274.658203 0)"/>
       <use xlink:href="#DejaVuSerif-35" transform="translate(306.445312 0)"/>
      </g>
     </g>
    </g>
    <g id="text_18">
     <!-- Band Db -->
     <g transform="translate(17.837813 262.532856) rotate(-90) scale(0.14 -0.14)">
      <defs>
       <path id="DejaVuSerif-42" d="M 1581 331 
L 2516 331 
Q 3078 331 3337 575 
Q 3597 819 3597 1350 
Q 3597 1878 3339 2120 
Q 3081 2363 2516 2363 
L 1581 2363 
L 1581 331 
z
M 1581 2694 
L 2375 2694 
Q 2888 2694 3123 2891 
Q 3359 3088 3359 3513 
Q 3359 3941 3123 4136 
Q 2888 4331 2375 4331 
L 1581 4331 
L 1581 2694 
z
M 353 0 
L 353 331 
L 947 331 
L 947 4331 
L 353 4331 
L 353 4666 
L 2656 4666 
Q 3363 4666 3720 4377 
Q 4078 4088 4078 3513 
Q 4078 3097 3829 2850 
Q 3581 2603 3103 2547 
Q 3697 2472 4005 2167 
Q 4313 1863 4313 1350 
Q 4313 656 3875 328 
Q 3438 0 2509 0 
L 353 0 
z
" transform="scale(0.015625)"/>
       <path id="DejaVuSerif-64" d="M 3359 331 
L 3909 331 
L 3909 0 
L 2784 0 
L 2784 519 
Q 2616 206 2355 57 
Q 2094 -91 1709 -91 
Q 1097 -91 708 395 
Q 319 881 319 1663 
Q 319 2444 706 2928 
Q 1094 3413 1709 3413 
Q 2094 3413 2355 3264 
Q 2616 3116 2784 2803 
L 2784 4531 
L 2241 4531 
L 2241 4863 
L 3359 4863 
L 3359 331 
z
M 2784 1497 
L 2784 1825 
Q 2784 2422 2554 2737 
Q 2325 3053 1888 3053 
Q 1444 3053 1217 2703 
Q 991 2353 991 1663 
Q 991 975 1217 622 
Q 1444 269 1888 269 
Q 2325 269 2554 583 
Q 2784 897 2784 1497 
z
" transform="scale(0.015625)"/>
       <path id="DejaVuSerif-44" d="M 1581 331 
L 2163 331 
Q 3072 331 3558 850 
Q 4044 1369 4044 2338 
Q 4044 3306 3559 3818 
Q 3075 4331 2163 4331 
L 1581 4331 
L 1581 331 
z
M 353 0 
L 353 331 
L 947 331 
L 947 4331 
L 353 4331 
L 353 4666 
L 2209 4666 
Q 3416 4666 4089 4050 
Q 4763 3434 4763 2338 
Q 4763 1238 4088 619 
Q 3413 0 2209 0 
L 353 0 
z
" transform="scale(0.015625)"/>
       <path id="DejaVuSerif-62" d="M 738 331 
L 738 4531 
L 184 4531 
L 184 4863 
L 1313 4863 
L 1313 2803 
Q 1481 3116 1742 3264 
Q 2003 3413 2388 3413 
Q 3000 3413 3387 2928 
Q 3775 2444 3775 1663 
Q 3775 881 3387 395 
Q 3000 -91 2388 -91 
Q 2003 -91 1742 57 
Q 1481 206 1313 519 
L 1313 0 
L 184 0 
L 184 331 
L 738 331 
z
M 1313 1497 
Q 1313 897 1542 583 
Q 1772 269 2209 269 
Q 2650 269 2876 622 
Q 3103 975 3103 1663 
Q 3103 2353 2876 2703 
Q 2650 3053 2209 3053 
Q 1772 3053 1542 2737 
Q 1313 2422 1313 1825 
L 1313 1497 
z
" transform="scale(0.015625)"/>
      </defs>
      <use xlink:href="#DejaVuSerif-42"/>
      <use xlink:href="#DejaVuSerif-61" transform="translate(73.486328 0)"/>
      <use xlink:href="#DejaVuSerif-6e" transform="translate(133.105469 0)"/>
      <use xlink:href="#DejaVuSerif-64" transform="translate(197.509766 0)"/>
      <use xlink:href="#DejaVuSerif-20" transform="translate(261.523438 0)"/>
      <use xlink:href="#DejaVuSerif-44" transform="translate(293.310547 0)"/>
      <use xlink:href="#DejaVuSerif-62" transform="translate(373.486328 0)"/>
     </g>
    </g>
   </g>
   <g id="patch_5">
    <path d="M 76.155184 325.477176 
L 120.550295 325.477176 
L 120.550295 268.993012 
L 76.155184 268.993012 
L 76.155184 325.477176 
z
" clip-path="url(#p92d3575a2e)" style="fill: #6a80d1; stroke: #545454; stroke-linejoin: miter"/>
   </g>
   <g id="line2d_17">
    <path d="M 98.35274 325.477176 
L 98.35274 385.595313 
" clip-path="url(#p92d3575a2e)" style="fill: none; stroke: #545454"/>
   </g>
   <g id="line2d_18">
    <path d="M 98.35274 268.993012 
L 98.35274 186.562343 
" clip-path="url(#p92d3575a2e)" style="fill: none; stroke: #545454"/>
   </g>
   <g id="line2d_19">
    <path d="M 87.253962 385.595313 
L 109.451517 385.595313 
" clip-path="url(#p92d3575a2e)" style="fill: none; stroke: #545454; stroke-linecap: square"/>
   </g>
   <g id="line2d_20">
    <path d="M 87.253962 186.562343 
L 109.451517 186.562343 
" clip-path="url(#p92d3575a2e)" style="fill: none; stroke: #545454; stroke-linecap: square"/>
   </g>
   <g id="line2d_21"/>
   <g id="patch_6">
    <path d="M 187.142962 307.731966 
L 231.538073 307.731966 
L 231.538073 255.984225 
L 187.142962 255.984225 
L 187.142962 307.731966 
z
" clip-path="url(#p92d3575a2e)" style="fill: #6a80d1; stroke: #545454; stroke-linejoin: miter"/>
   </g>
   <g id="line2d_22">
    <path d="M 209.340517 307.731966 
L 209.340517 375.144778 
" clip-path="url(#p92d3575a2e)" style="fill: none; stroke: #545454"/>
   </g>
   <g id="line2d_23">
    <path d="M 209.340517 255.984225 
L 209.340517 187.42476 
" clip-path="url(#p92d3575a2e)" style="fill: none; stroke: #545454"/>
   </g>
   <g id="line2d_24">
    <path d="M 198.24174 375.144778 
L 220.439295 375.144778 
" clip-path="url(#p92d3575a2e)" style="fill: none; stroke: #545454; stroke-linecap: square"/>
   </g>
   <g id="line2d_25">
    <path d="M 198.24174 187.42476 
L 220.439295 187.42476 
" clip-path="url(#p92d3575a2e)" style="fill: none; stroke: #545454; stroke-linecap: square"/>
   </g>
   <g id="line2d_26">
    <defs>
     <path id="m3692656cd0" d="M 0 3 
C 0.795609 3 1.55874 2.683901 2.12132 2.12132 
C 2.683901 1.55874 3 0.795609 3 0 
C 3 -0.795609 2.683901 -1.55874 2.12132 -2.12132 
C 1.55874 -2.683901 0.795609 -3 0 -3 
C -0.795609 -3 -1.55874 -2.683901 -2.12132 -2.12132 
C -2.683901 -1.55874 -3 -0.795609 -3 0 
C -3 0.795609 -2.683901 1.55874 -2.12132 2.12132 
C -1.55874 2.683901 -0.795609 3 0 3 
z
" style="stroke: #545454"/>
    </defs>
    <g clip-path="url(#p92d3575a2e)">
     <use xlink:href="#m3692656cd0" x="209.340517" y="387.741967" style="fill-opacity: 0; stroke: #545454"/>
     <use xlink:href="#m3692656cd0" x="209.340517" y="161.26515" style="fill-opacity: 0; stroke: #545454"/>
     <use xlink:href="#m3692656cd0" x="209.340517" y="165.540389" style="fill-opacity: 0; stroke: #545454"/>
     <use xlink:href="#m3692656cd0" x="209.340517" y="166.606403" style="fill-opacity: 0; stroke: #545454"/>
    </g>
   </g>
   <g id="patch_7">
    <path d="M 298.13074 292.820536 
L 342.525851 292.820536 
L 342.525851 230.966674 
L 298.13074 230.966674 
L 298.13074 292.820536 
z
" clip-path="url(#p92d3575a2e)" style="fill: #6a80d1; stroke: #545454; stroke-linejoin: miter"/>
   </g>
   <g id="line2d_27">
    <path d="M 320.328295 292.820536 
L 320.328295 351.563873 
" clip-path="url(#p92d3575a2e)" style="fill: none; stroke: #545454"/>
   </g>
   <g id="line2d_28">
    <path d="M 320.328295 230.966674 
L 320.328295 150.121636 
" clip-path="url(#p92d3575a2e)" style="fill: none; stroke: #545454"/>
   </g>
   <g id="line2d_29">
    <path d="M 309.229517 351.563873 
L 331.427073 351.563873 
" clip-path="url(#p92d3575a2e)" style="fill: none; stroke: #545454; stroke-linecap: square"/>
   </g>
   <g id="line2d_30">
    <path d="M 309.229517 150.121636 
L 331.427073 150.121636 
" clip-path="url(#p92d3575a2e)" style="fill: none; stroke: #545454; stroke-linecap: square"/>
   </g>
   <g id="line2d_31">
    <g clip-path="url(#p92d3575a2e)">
     <use xlink:href="#m3692656cd0" x="320.328295" y="128.535518" style="fill-opacity: 0; stroke: #545454"/>
    </g>
   </g>
   <g id="patch_8">
    <path d="M 409.118517 317.969885 
L 453.513628 317.969885 
L 453.513628 245.254641 
L 409.118517 245.254641 
L 409.118517 317.969885 
z
" clip-path="url(#p92d3575a2e)" style="fill: #6a80d1; stroke: #545454; stroke-linejoin: miter"/>
   </g>
   <g id="line2d_32">
    <path d="M 431.316073 317.969885 
L 431.316073 403.186361 
" clip-path="url(#p92d3575a2e)" style="fill: none; stroke: #545454"/>
   </g>
   <g id="line2d_33">
    <path d="M 431.316073 245.254641 
L 431.316073 175.317728 
" clip-path="url(#p92d3575a2e)" style="fill: none; stroke: #545454"/>
   </g>
   <g id="line2d_34">
    <path d="M 420.217295 403.186361 
L 442.414851 403.186361 
" clip-path="url(#p92d3575a2e)" style="fill: none; stroke: #545454; stroke-linecap: square"/>
   </g>
   <g id="line2d_35">
    <path d="M 420.217295 175.317728 
L 442.414851 175.317728 
" clip-path="url(#p92d3575a2e)" style="fill: none; stroke: #545454; stroke-linecap: square"/>
   </g>
   <g id="line2d_36">
    <g clip-path="url(#p92d3575a2e)">
     <use xlink:href="#m3692656cd0" x="431.316073" y="85.851342" style="fill-opacity: 0; stroke: #545454"/>
     <use xlink:href="#m3692656cd0" x="431.316073" y="83.072747" style="fill-opacity: 0; stroke: #545454"/>
     <use xlink:href="#m3692656cd0" x="431.316073" y="69.960484" style="fill-opacity: 0; stroke: #545454"/>
     <use xlink:href="#m3692656cd0" x="431.316073" y="119.113466" style="fill-opacity: 0; stroke: #545454"/>
     <use xlink:href="#m3692656cd0" x="431.316073" y="78.532209" style="fill-opacity: 0; stroke: #545454"/>
     <use xlink:href="#m3692656cd0" x="431.316073" y="84.612536" style="fill-opacity: 0; stroke: #545454"/>
     <use xlink:href="#m3692656cd0" x="431.316073" y="81.979617" style="fill-opacity: 0; stroke: #545454"/>
     <use xlink:href="#m3692656cd0" x="431.316073" y="60.629351" style="fill-opacity: 0; stroke: #545454"/>
     <use xlink:href="#m3692656cd0" x="431.316073" y="108.891915" style="fill-opacity: 0; stroke: #545454"/>
     <use xlink:href="#m3692656cd0" x="431.316073" y="118.175356" style="fill-opacity: 0; stroke: #545454"/>
     <use xlink:href="#m3692656cd0" x="431.316073" y="127.206582" style="fill-opacity: 0; stroke: #545454"/>
     <use xlink:href="#m3692656cd0" x="431.316073" y="107.395603" style="fill-opacity: 0; stroke: #545454"/>
     <use xlink:href="#m3692656cd0" x="431.316073" y="121.313763" style="fill-opacity: 0; stroke: #545454"/>
     <use xlink:href="#m3692656cd0" x="431.316073" y="131.037205" style="fill-opacity: 0; stroke: #545454"/>
     <use xlink:href="#m3692656cd0" x="431.316073" y="100.613023" style="fill-opacity: 0; stroke: #545454"/>
     <use xlink:href="#m3692656cd0" x="431.316073" y="92.463043" style="fill-opacity: 0; stroke: #545454"/>
     <use xlink:href="#m3692656cd0" x="431.316073" y="99.837112" style="fill-opacity: 0; stroke: #545454"/>
     <use xlink:href="#m3692656cd0" x="431.316073" y="131.355838" style="fill-opacity: 0; stroke: #545454"/>
     <use xlink:href="#m3692656cd0" x="431.316073" y="124.947928" style="fill-opacity: 0; stroke: #545454"/>
     <use xlink:href="#m3692656cd0" x="431.316073" y="114.756041" style="fill-opacity: 0; stroke: #545454"/>
     <use xlink:href="#m3692656cd0" x="431.316073" y="79.432772" style="fill-opacity: 0; stroke: #545454"/>
    </g>
   </g>
   <g id="patch_9">
    <path d="M 520.106295 313.587994 
L 564.501406 313.587994 
L 564.501406 256.324121 
L 520.106295 256.324121 
L 520.106295 313.587994 
z
" clip-path="url(#p92d3575a2e)" style="fill: #6a80d1; stroke: #545454; stroke-linejoin: miter"/>
   </g>
   <g id="line2d_37">
    <path d="M 542.303851 313.587994 
L 542.303851 368.207295 
" clip-path="url(#p92d3575a2e)" style="fill: none; stroke: #545454"/>
   </g>
   <g id="line2d_38">
    <path d="M 542.303851 256.324121 
L 542.303851 185.8709 
" clip-path="url(#p92d3575a2e)" style="fill: none; stroke: #545454"/>
   </g>
   <g id="line2d_39">
    <path d="M 531.205073 368.207295 
L 553.402628 368.207295 
" clip-path="url(#p92d3575a2e)" style="fill: none; stroke: #545454; stroke-linecap: square"/>
   </g>
   <g id="line2d_40">
    <path d="M 531.205073 185.8709 
L 553.402628 185.8709 
" clip-path="url(#p92d3575a2e)" style="fill: none; stroke: #545454; stroke-linecap: square"/>
   </g>
   <g id="line2d_41">
    <g clip-path="url(#p92d3575a2e)">
     <use xlink:href="#m3692656cd0" x="542.303851" y="162.718253" style="fill-opacity: 0; stroke: #545454"/>
    </g>
   </g>
   <g id="patch_10">
    <path d="M 631.094073 259.929854 
L 675.489184 259.929854 
L 675.489184 192.123577 
L 631.094073 192.123577 
L 631.094073 259.929854 
z
" clip-path="url(#p92d3575a2e)" style="fill: #6a80d1; stroke: #545454; stroke-linejoin: miter"/>
   </g>
   <g id="line2d_42">
    <path d="M 653.291628 259.929854 
L 653.291628 309.68149 
" clip-path="url(#p92d3575a2e)" style="fill: none; stroke: #545454"/>
   </g>
   <g id="line2d_43">
    <path d="M 653.291628 192.123577 
L 653.291628 111.665171 
" clip-path="url(#p92d3575a2e)" style="fill: none; stroke: #545454"/>
   </g>
   <g id="line2d_44">
    <path d="M 642.192851 309.68149 
L 664.390406 309.68149 
" clip-path="url(#p92d3575a2e)" style="fill: none; stroke: #545454; stroke-linecap: square"/>
   </g>
   <g id="line2d_45">
    <path d="M 642.192851 111.665171 
L 664.390406 111.665171 
" clip-path="url(#p92d3575a2e)" style="fill: none; stroke: #545454; stroke-linecap: square"/>
   </g>
   <g id="line2d_46">
    <g clip-path="url(#p92d3575a2e)">
     <use xlink:href="#m3692656cd0" x="653.291628" y="83.516125" style="fill-opacity: 0; stroke: #545454"/>
    </g>
   </g>
   <g id="patch_11">
    <path d="M 742.081851 275.561154 
L 786.476962 275.561154 
L 786.476962 200.740073 
L 742.081851 200.740073 
L 742.081851 275.561154 
z
" clip-path="url(#p92d3575a2e)" style="fill: #6a80d1; stroke: #545454; stroke-linejoin: miter"/>
   </g>
   <g id="line2d_47">
    <path d="M 764.279406 275.561154 
L 764.279406 343.692111 
" clip-path="url(#p92d3575a2e)" style="fill: none; stroke: #545454"/>
   </g>
   <g id="line2d_48">
    <path d="M 764.279406 200.740073 
L 764.279406 123.224548 
" clip-path="url(#p92d3575a2e)" style="fill: none; stroke: #545454"/>
   </g>
   <g id="line2d_49">
    <path d="M 753.180628 343.692111 
L 775.378184 343.692111 
" clip-path="url(#p92d3575a2e)" style="fill: none; stroke: #545454; stroke-linecap: square"/>
   </g>
   <g id="line2d_50">
    <path d="M 753.180628 123.224548 
L 775.378184 123.224548 
" clip-path="url(#p92d3575a2e)" style="fill: none; stroke: #545454; stroke-linecap: square"/>
   </g>
   <g id="line2d_51"/>
   <g id="patch_12">
    <path d="M 853.069628 250.934752 
L 897.46474 250.934752 
L 897.46474 198.839615 
L 853.069628 198.839615 
L 853.069628 250.934752 
z
" clip-path="url(#p92d3575a2e)" style="fill: #6a80d1; stroke: #545454; stroke-linejoin: miter"/>
   </g>
   <g id="line2d_52">
    <path d="M 875.267184 250.934752 
L 875.267184 292.270338 
" clip-path="url(#p92d3575a2e)" style="fill: none; stroke: #545454"/>
   </g>
   <g id="line2d_53">
    <path d="M 875.267184 198.839615 
L 875.267184 131.74648 
" clip-path="url(#p92d3575a2e)" style="fill: none; stroke: #545454"/>
   </g>
   <g id="line2d_54">
    <path d="M 864.168406 292.270338 
L 886.365962 292.270338 
" clip-path="url(#p92d3575a2e)" style="fill: none; stroke: #545454; stroke-linecap: square"/>
   </g>
   <g id="line2d_55">
    <path d="M 864.168406 131.74648 
L 886.365962 131.74648 
" clip-path="url(#p92d3575a2e)" style="fill: none; stroke: #545454; stroke-linecap: square"/>
   </g>
   <g id="line2d_56">
    <g clip-path="url(#p92d3575a2e)">
     <use xlink:href="#m3692656cd0" x="875.267184" y="116.931814" style="fill-opacity: 0; stroke: #545454"/>
    </g>
   </g>
   <g id="patch_13">
    <path d="M 964.057406 262.306815 
L 1008.452517 262.306815 
L 1008.452517 209.019789 
L 964.057406 209.019789 
L 964.057406 262.306815 
z
" clip-path="url(#p92d3575a2e)" style="fill: #6a80d1; stroke: #545454; stroke-linejoin: miter"/>
   </g>
   <g id="line2d_57">
    <path d="M 986.254962 262.306815 
L 986.254962 300.49689 
" clip-path="url(#p92d3575a2e)" style="fill: none; stroke: #545454"/>
   </g>
   <g id="line2d_58">
    <path d="M 986.254962 209.019789 
L 986.254962 144.734187 
" clip-path="url(#p92d3575a2e)" style="fill: none; stroke: #545454"/>
   </g>
   <g id="line2d_59">
    <path d="M 975.156184 300.49689 
L 997.35374 300.49689 
" clip-path="url(#p92d3575a2e)" style="fill: none; stroke: #545454; stroke-linecap: square"/>
   </g>
   <g id="line2d_60">
    <path d="M 975.156184 144.734187 
L 997.35374 144.734187 
" clip-path="url(#p92d3575a2e)" style="fill: none; stroke: #545454; stroke-linecap: square"/>
   </g>
   <g id="line2d_61">
    <g clip-path="url(#p92d3575a2e)">
     <use xlink:href="#m3692656cd0" x="986.254962" y="98.630264" style="fill-opacity: 0; stroke: #545454"/>
    </g>
   </g>
   <g id="patch_14">
    <path d="M 120.550295 296.868819 
L 164.945406 296.868819 
L 164.945406 229.848893 
L 120.550295 229.848893 
L 120.550295 296.868819 
z
" clip-path="url(#p92d3575a2e)" style="fill: #c46156; stroke: #545454; stroke-linejoin: miter"/>
   </g>
   <g id="line2d_62">
    <path d="M 142.747851 296.868819 
L 142.747851 318.170775 
" clip-path="url(#p92d3575a2e)" style="fill: none; stroke: #545454"/>
   </g>
   <g id="line2d_63">
    <path d="M 142.747851 229.848893 
L 142.747851 210.566537 
" clip-path="url(#p92d3575a2e)" style="fill: none; stroke: #545454"/>
   </g>
   <g id="line2d_64">
    <path d="M 131.649073 318.170775 
L 153.846628 318.170775 
" clip-path="url(#p92d3575a2e)" style="fill: none; stroke: #545454; stroke-linecap: square"/>
   </g>
   <g id="line2d_65">
    <path d="M 131.649073 210.566537 
L 153.846628 210.566537 
" clip-path="url(#p92d3575a2e)" style="fill: none; stroke: #545454; stroke-linecap: square"/>
   </g>
   <g id="line2d_66"/>
   <g id="patch_15">
    <path d="M 231.538073 234.801798 
L 275.933184 234.801798 
L 275.933184 197.806691 
L 231.538073 197.806691 
L 231.538073 234.801798 
z
" clip-path="url(#p92d3575a2e)" style="fill: #c46156; stroke: #545454; stroke-linejoin: miter"/>
   </g>
   <g id="line2d_67">
    <path d="M 253.735628 234.801798 
L 253.735628 277.162825 
" clip-path="url(#p92d3575a2e)" style="fill: none; stroke: #545454"/>
   </g>
   <g id="line2d_68">
    <path d="M 253.735628 197.806691 
L 253.735628 173.692766 
" clip-path="url(#p92d3575a2e)" style="fill: none; stroke: #545454"/>
   </g>
   <g id="line2d_69">
    <path d="M 242.636851 277.162825 
L 264.834406 277.162825 
" clip-path="url(#p92d3575a2e)" style="fill: none; stroke: #545454; stroke-linecap: square"/>
   </g>
   <g id="line2d_70">
    <path d="M 242.636851 173.692766 
L 264.834406 173.692766 
" clip-path="url(#p92d3575a2e)" style="fill: none; stroke: #545454; stroke-linecap: square"/>
   </g>
   <g id="line2d_71"/>
   <g id="patch_16">
    <path d="M 342.525851 221.076007 
L 386.920962 221.076007 
L 386.920962 183.671228 
L 342.525851 183.671228 
L 342.525851 221.076007 
z
" clip-path="url(#p92d3575a2e)" style="fill: #c46156; stroke: #545454; stroke-linejoin: miter"/>
   </g>
   <g id="line2d_72">
    <path d="M 364.723406 221.076007 
L 364.723406 258.561653 
" clip-path="url(#p92d3575a2e)" style="fill: none; stroke: #545454"/>
   </g>
   <g id="line2d_73">
    <path d="M 364.723406 183.671228 
L 364.723406 169.664825 
" clip-path="url(#p92d3575a2e)" style="fill: none; stroke: #545454"/>
   </g>
   <g id="line2d_74">
    <path d="M 353.624628 258.561653 
L 375.822184 258.561653 
" clip-path="url(#p92d3575a2e)" style="fill: none; stroke: #545454; stroke-linecap: square"/>
   </g>
   <g id="line2d_75">
    <path d="M 353.624628 169.664825 
L 375.822184 169.664825 
" clip-path="url(#p92d3575a2e)" style="fill: none; stroke: #545454; stroke-linecap: square"/>
   </g>
   <g id="line2d_76">
    <g clip-path="url(#p92d3575a2e)">
     <use xlink:href="#m3692656cd0" x="364.723406" y="278.550143" style="fill-opacity: 0; stroke: #545454"/>
    </g>
   </g>
   <g id="patch_17">
    <path d="M 453.513628 280.097773 
L 497.90874 280.097773 
L 497.90874 247.464586 
L 453.513628 247.464586 
L 453.513628 280.097773 
z
" clip-path="url(#p92d3575a2e)" style="fill: #c46156; stroke: #545454; stroke-linejoin: miter"/>
   </g>
   <g id="line2d_77">
    <path d="M 475.711184 280.097773 
L 475.711184 287.89852 
" clip-path="url(#p92d3575a2e)" style="fill: none; stroke: #545454"/>
   </g>
   <g id="line2d_78">
    <path d="M 475.711184 247.464586 
L 475.711184 238.768572 
" clip-path="url(#p92d3575a2e)" style="fill: none; stroke: #545454"/>
   </g>
   <g id="line2d_79">
    <path d="M 464.612406 287.89852 
L 486.809962 287.89852 
" clip-path="url(#p92d3575a2e)" style="fill: none; stroke: #545454; stroke-linecap: square"/>
   </g>
   <g id="line2d_80">
    <path d="M 464.612406 238.768572 
L 486.809962 238.768572 
" clip-path="url(#p92d3575a2e)" style="fill: none; stroke: #545454; stroke-linecap: square"/>
   </g>
   <g id="line2d_81">
    <g clip-path="url(#p92d3575a2e)">
     <use xlink:href="#m3692656cd0" x="475.711184" y="355.361939" style="fill-opacity: 0; stroke: #545454"/>
     <use xlink:href="#m3692656cd0" x="475.711184" y="87.724749" style="fill-opacity: 0; stroke: #545454"/>
    </g>
   </g>
   <g id="patch_18">
    <path d="M 564.501406 290.295278 
L 608.896517 290.295278 
L 608.896517 249.905056 
L 564.501406 249.905056 
L 564.501406 290.295278 
z
" clip-path="url(#p92d3575a2e)" style="fill: #c46156; stroke: #545454; stroke-linejoin: miter"/>
   </g>
   <g id="line2d_82">
    <path d="M 586.698962 290.295278 
L 586.698962 298.030258 
" clip-path="url(#p92d3575a2e)" style="fill: none; stroke: #545454"/>
   </g>
   <g id="line2d_83">
    <path d="M 586.698962 249.905056 
L 586.698962 236.047377 
" clip-path="url(#p92d3575a2e)" style="fill: none; stroke: #545454"/>
   </g>
   <g id="line2d_84">
    <path d="M 575.600184 298.030258 
L 597.79774 298.030258 
" clip-path="url(#p92d3575a2e)" style="fill: none; stroke: #545454; stroke-linecap: square"/>
   </g>
   <g id="line2d_85">
    <path d="M 575.600184 236.047377 
L 597.79774 236.047377 
" clip-path="url(#p92d3575a2e)" style="fill: none; stroke: #545454; stroke-linecap: square"/>
   </g>
   <g id="line2d_86"/>
   <g id="patch_19">
    <path d="M 675.489184 199.848075 
L 719.884295 199.848075 
L 719.884295 192.517782 
L 675.489184 192.517782 
L 675.489184 199.848075 
z
" clip-path="url(#p92d3575a2e)" style="fill: #c46156; stroke: #545454; stroke-linejoin: miter"/>
   </g>
   <g id="line2d_87">
    <path d="M 697.68674 199.848075 
L 697.68674 201.980189 
" clip-path="url(#p92d3575a2e)" style="fill: none; stroke: #545454"/>
   </g>
   <g id="line2d_88">
    <path d="M 697.68674 192.517782 
L 697.68674 192.296688 
" clip-path="url(#p92d3575a2e)" style="fill: none; stroke: #545454"/>
   </g>
   <g id="line2d_89">
    <path d="M 686.587962 201.980189 
L 708.785517 201.980189 
" clip-path="url(#p92d3575a2e)" style="fill: none; stroke: #545454; stroke-linecap: square"/>
   </g>
   <g id="line2d_90">
    <path d="M 686.587962 192.296688 
L 708.785517 192.296688 
" clip-path="url(#p92d3575a2e)" style="fill: none; stroke: #545454; stroke-linecap: square"/>
   </g>
   <g id="line2d_91">
    <g clip-path="url(#p92d3575a2e)">
     <use xlink:href="#m3692656cd0" x="697.68674" y="214.951728" style="fill-opacity: 0; stroke: #545454"/>
     <use xlink:href="#m3692656cd0" x="697.68674" y="136.321818" style="fill-opacity: 0; stroke: #545454"/>
    </g>
   </g>
   <g id="patch_20">
    <path d="M 786.476962 257.240693 
L 830.872073 257.240693 
L 830.872073 190.560414 
L 786.476962 190.560414 
L 786.476962 257.240693 
z
" clip-path="url(#p92d3575a2e)" style="fill: #c46156; stroke: #545454; stroke-linejoin: miter"/>
   </g>
   <g id="line2d_92">
    <path d="M 808.674517 257.240693 
L 808.674517 266.470184 
" clip-path="url(#p92d3575a2e)" style="fill: none; stroke: #545454"/>
   </g>
   <g id="line2d_93">
    <path d="M 808.674517 190.560414 
L 808.674517 179.957573 
" clip-path="url(#p92d3575a2e)" style="fill: none; stroke: #545454"/>
   </g>
   <g id="line2d_94">
    <path d="M 797.57574 266.470184 
L 819.773295 266.470184 
" clip-path="url(#p92d3575a2e)" style="fill: none; stroke: #545454; stroke-linecap: square"/>
   </g>
   <g id="line2d_95">
    <path d="M 797.57574 179.957573 
L 819.773295 179.957573 
" clip-path="url(#p92d3575a2e)" style="fill: none; stroke: #545454; stroke-linecap: square"/>
   </g>
   <g id="line2d_96"/>
   <g id="patch_21">
    <path d="M 897.46474 225.164466 
L 941.859851 225.164466 
L 941.859851 202.755435 
L 897.46474 202.755435 
L 897.46474 225.164466 
z
" clip-path="url(#p92d3575a2e)" style="fill: #c46156; stroke: #545454; stroke-linejoin: miter"/>
   </g>
   <g id="line2d_97">
    <path d="M 919.662295 225.164466 
L 919.662295 231.505505 
" clip-path="url(#p92d3575a2e)" style="fill: none; stroke: #545454"/>
   </g>
   <g id="line2d_98">
    <path d="M 919.662295 202.755435 
L 919.662295 177.904666 
" clip-path="url(#p92d3575a2e)" style="fill: none; stroke: #545454"/>
   </g>
   <g id="line2d_99">
    <path d="M 908.563517 231.505505 
L 930.761073 231.505505 
" clip-path="url(#p92d3575a2e)" style="fill: none; stroke: #545454; stroke-linecap: square"/>
   </g>
   <g id="line2d_100">
    <path d="M 908.563517 177.904666 
L 930.761073 177.904666 
" clip-path="url(#p92d3575a2e)" style="fill: none; stroke: #545454; stroke-linecap: square"/>
   </g>
   <g id="line2d_101"/>
   <g id="patch_22">
    <path d="M 1008.452517 197.32197 
L 1052.847628 197.32197 
L 1052.847628 178.793878 
L 1008.452517 178.793878 
L 1008.452517 197.32197 
z
" clip-path="url(#p92d3575a2e)" style="fill: #c46156; stroke: #545454; stroke-linejoin: miter"/>
   </g>
   <g id="line2d_102">
    <path d="M 1030.650073 197.32197 
L 1030.650073 206.883684 
" clip-path="url(#p92d3575a2e)" style="fill: none; stroke: #545454"/>
   </g>
   <g id="line2d_103">
    <path d="M 1030.650073 178.793878 
L 1030.650073 173.21098 
" clip-path="url(#p92d3575a2e)" style="fill: none; stroke: #545454"/>
   </g>
   <g id="line2d_104">
    <path d="M 1019.551295 206.883684 
L 1041.748851 206.883684 
" clip-path="url(#p92d3575a2e)" style="fill: none; stroke: #545454; stroke-linecap: square"/>
   </g>
   <g id="line2d_105">
    <path d="M 1019.551295 173.21098 
L 1041.748851 173.21098 
" clip-path="url(#p92d3575a2e)" style="fill: none; stroke: #545454; stroke-linecap: square"/>
   </g>
   <g id="line2d_106"/>
   <g id="line2d_107">
    <path d="M 76.155184 303.638453 
L 120.550295 303.638453 
" clip-path="url(#p92d3575a2e)" style="fill: none; stroke: #545454"/>
   </g>
   <g id="line2d_108">
    <path d="M 187.142962 283.517403 
L 231.538073 283.517403 
" clip-path="url(#p92d3575a2e)" style="fill: none; stroke: #545454"/>
   </g>
   <g id="line2d_109">
    <path d="M 298.13074 263.865703 
L 342.525851 263.865703 
" clip-path="url(#p92d3575a2e)" style="fill: none; stroke: #545454"/>
   </g>
   <g id="line2d_110">
    <path d="M 409.118517 293.776315 
L 453.513628 293.776315 
" clip-path="url(#p92d3575a2e)" style="fill: none; stroke: #545454"/>
   </g>
   <g id="line2d_111">
    <path d="M 520.106295 285.5893 
L 564.501406 285.5893 
" clip-path="url(#p92d3575a2e)" style="fill: none; stroke: #545454"/>
   </g>
   <g id="line2d_112">
    <path d="M 631.094073 231.46592 
L 675.489184 231.46592 
" clip-path="url(#p92d3575a2e)" style="fill: none; stroke: #545454"/>
   </g>
   <g id="line2d_113">
    <path d="M 742.081851 245.909693 
L 786.476962 245.909693 
" clip-path="url(#p92d3575a2e)" style="fill: none; stroke: #545454"/>
   </g>
   <g id="line2d_114">
    <path d="M 853.069628 228.636346 
L 897.46474 228.636346 
" clip-path="url(#p92d3575a2e)" style="fill: none; stroke: #545454"/>
   </g>
   <g id="line2d_115">
    <path d="M 964.057406 230.266138 
L 1008.452517 230.266138 
" clip-path="url(#p92d3575a2e)" style="fill: none; stroke: #545454"/>
   </g>
   <g id="line2d_116">
    <path d="M 120.550295 263.977466 
L 164.945406 263.977466 
" clip-path="url(#p92d3575a2e)" style="fill: none; stroke: #545454"/>
   </g>
   <g id="line2d_117">
    <path d="M 231.538073 227.001123 
L 275.933184 227.001123 
" clip-path="url(#p92d3575a2e)" style="fill: none; stroke: #545454"/>
   </g>
   <g id="line2d_118">
    <path d="M 342.525851 214.525014 
L 386.920962 214.525014 
" clip-path="url(#p92d3575a2e)" style="fill: none; stroke: #545454"/>
   </g>
   <g id="line2d_119">
    <path d="M 453.513628 269.325409 
L 497.90874 269.325409 
" clip-path="url(#p92d3575a2e)" style="fill: none; stroke: #545454"/>
   </g>
   <g id="line2d_120">
    <path d="M 564.501406 266.58915 
L 608.896517 266.58915 
" clip-path="url(#p92d3575a2e)" style="fill: none; stroke: #545454"/>
   </g>
   <g id="line2d_121">
    <path d="M 675.489184 193.316398 
L 719.884295 193.316398 
" clip-path="url(#p92d3575a2e)" style="fill: none; stroke: #545454"/>
   </g>
   <g id="line2d_122">
    <path d="M 786.476962 245.629511 
L 830.872073 245.629511 
" clip-path="url(#p92d3575a2e)" style="fill: none; stroke: #545454"/>
   </g>
   <g id="line2d_123">
    <path d="M 897.46474 219.482294 
L 941.859851 219.482294 
" clip-path="url(#p92d3575a2e)" style="fill: none; stroke: #545454"/>
   </g>
   <g id="line2d_124">
    <path d="M 1008.452517 187.394788 
L 1052.847628 187.394788 
" clip-path="url(#p92d3575a2e)" style="fill: none; stroke: #545454"/>
   </g>
   <g id="patch_23">
    <path d="M 65.056406 420.314211 
L 65.056406 43.5015 
" style="fill: none; stroke: #333333; stroke-linejoin: miter; stroke-linecap: square"/>
   </g>
   <g id="patch_24">
    <path d="M 65.056406 420.314211 
L 1063.946406 420.314211 
" style="fill: none; stroke: #333333; stroke-linejoin: miter; stroke-linecap: square"/>
   </g>
   <g id="text_19">
    <!-- Band Db by Cortical Region and State -->
    <g transform="translate(409.937656 19.3575) scale(0.16 -0.16)">
     <defs>
      <path id="DejaVuSerif-79" d="M 1381 -609 
L 1600 -56 
L 359 2988 
L -19 2988 
L -19 3322 
L 1509 3322 
L 1509 2988 
L 978 2988 
L 1913 703 
L 2847 2988 
L 2350 2988 
L 2350 3322 
L 3597 3322 
L 3597 2988 
L 3225 2988 
L 1703 -750 
Q 1547 -1138 1356 -1280 
Q 1166 -1422 819 -1422 
Q 672 -1422 517 -1397 
Q 363 -1372 206 -1325 
L 206 -691 
L 500 -691 
Q 519 -903 608 -995 
Q 697 -1088 884 -1088 
Q 1056 -1088 1161 -992 
Q 1266 -897 1381 -609 
z
" transform="scale(0.015625)"/>
      <path id="DejaVuSerif-53" d="M 594 225 
L 594 1288 
L 953 1284 
Q 969 753 1261 498 
Q 1553 244 2150 244 
Q 2706 244 2998 464 
Q 3291 684 3291 1106 
Q 3291 1444 3114 1625 
Q 2938 1806 2369 1978 
L 1753 2163 
Q 1084 2366 811 2669 
Q 538 2972 538 3500 
Q 538 4094 959 4422 
Q 1381 4750 2144 4750 
Q 2469 4750 2856 4679 
Q 3244 4609 3681 4475 
L 3681 3481 
L 3328 3481 
Q 3275 3975 2998 4195 
Q 2722 4416 2156 4416 
Q 1663 4416 1405 4214 
Q 1147 4013 1147 3628 
Q 1147 3294 1340 3103 
Q 1534 2913 2163 2725 
L 2741 2553 
Q 3375 2363 3645 2067 
Q 3916 1772 3916 1275 
Q 3916 597 3481 253 
Q 3047 -91 2188 -91 
Q 1803 -91 1404 -12 
Q 1006 66 594 225 
z
" transform="scale(0.015625)"/>
     </defs>
     <use xlink:href="#DejaVuSerif-42"/>
     <use xlink:href="#DejaVuSerif-61" transform="translate(73.486328 0)"/>
     <use xlink:href="#DejaVuSerif-6e" transform="translate(133.105469 0)"/>
     <use xlink:href="#DejaVuSerif-64" transform="translate(197.509766 0)"/>
     <use xlink:href="#DejaVuSerif-20" transform="translate(261.523438 0)"/>
     <use xlink:href="#DejaVuSerif-44" transform="translate(293.310547 0)"/>
     <use xlink:href="#DejaVuSerif-62" transform="translate(373.486328 0)"/>
     <use xlink:href="#DejaVuSerif-20" transform="translate(437.5 0)"/>
     <use xlink:href="#DejaVuSerif-62" transform="translate(469.287109 0)"/>
     <use xlink:href="#DejaVuSerif-79" transform="translate(533.300781 0)"/>
     <use xlink:href="#DejaVuSerif-20" transform="translate(589.794922 0)"/>
     <use xlink:href="#DejaVuSerif-43" transform="translate(621.582031 0)"/>
     <use xlink:href="#DejaVuSerif-6f" transform="translate(698.095703 0)"/>
     <use xlink:href="#DejaVuSerif-72" transform="translate(758.300781 0)"/>
     <use xlink:href="#DejaVuSerif-74" transform="translate(806.103516 0)"/>
     <use xlink:href="#DejaVuSerif-69" transform="translate(846.289062 0)"/>
     <use xlink:href="#DejaVuSerif-63" transform="translate(878.271484 0)"/>
     <use xlink:href="#DejaVuSerif-61" transform="translate(934.277344 0)"/>
     <use xlink:href="#DejaVuSerif-6c" transform="translate(993.896484 0)"/>
     <use xlink:href="#DejaVuSerif-20" transform="translate(1025.878906 0)"/>
     <use xlink:href="#DejaVuSerif-52" transform="translate(1057.666016 0)"/>
     <use xlink:href="#DejaVuSerif-65" transform="translate(1132.958984 0)"/>
     <use xlink:href="#DejaVuSerif-67" transform="translate(1192.138672 0)"/>
     <use xlink:href="#DejaVuSerif-69" transform="translate(1256.152344 0)"/>
     <use xlink:href="#DejaVuSerif-6f" transform="translate(1288.134766 0)"/>
     <use xlink:href="#DejaVuSerif-6e" transform="translate(1348.339844 0)"/>
     <use xlink:href="#DejaVuSerif-20" transform="translate(1412.744141 0)"/>
     <use xlink:href="#DejaVuSerif-61" transform="translate(1444.53125 0)"/>
     <use xlink:href="#DejaVuSerif-6e" transform="translate(1504.150391 0)"/>
     <use xlink:href="#DejaVuSerif-64" transform="translate(1568.554688 0)"/>
     <use xlink:href="#DejaVuSerif-20" transform="translate(1632.568359 0)"/>
     <use xlink:href="#DejaVuSerif-53" transform="translate(1664.355469 0)"/>
     <use xlink:href="#DejaVuSerif-74" transform="translate(1732.861328 0)"/>
     <use xlink:href="#DejaVuSerif-61" transform="translate(1773.046875 0)"/>
     <use xlink:href="#DejaVuSerif-74" transform="translate(1832.666016 0)"/>
     <use xlink:href="#DejaVuSerif-65" transform="translate(1872.851562 0)"/>
    </g>
    <!-- Dataset: touryan2022 - Subject Session: 16_2 -->
    <g transform="translate(379.775156 37.5015) scale(0.16 -0.16)">
     <defs>
      <path id="DejaVuSerif-73" d="M 359 184 
L 359 959 
L 691 959 
Q 703 588 923 403 
Q 1144 219 1575 219 
Q 1963 219 2166 364 
Q 2369 509 2369 788 
Q 2369 1006 2220 1140 
Q 2072 1275 1594 1428 
L 1178 1569 
Q 750 1706 558 1912 
Q 366 2119 366 2438 
Q 366 2894 700 3153 
Q 1034 3413 1625 3413 
Q 1888 3413 2178 3344 
Q 2469 3275 2778 3144 
L 2778 2419 
L 2447 2419 
Q 2434 2741 2221 2922 
Q 2009 3103 1644 3103 
Q 1281 3103 1095 2975 
Q 909 2847 909 2591 
Q 909 2381 1050 2254 
Q 1191 2128 1613 1997 
L 2069 1856 
Q 2541 1709 2748 1489 
Q 2956 1269 2956 922 
Q 2956 450 2595 179 
Q 2234 -91 1600 -91 
Q 1278 -91 972 -22 
Q 666 47 359 184 
z
" transform="scale(0.015625)"/>
      <path id="DejaVuSerif-3a" d="M 666 325 
Q 666 500 786 622 
Q 906 744 1081 744 
Q 1256 744 1376 622 
Q 1497 500 1497 325 
Q 1497 150 1378 29 
Q 1259 -91 1081 -91 
Q 903 -91 784 29 
Q 666 150 666 325 
z
M 666 2363 
Q 666 2538 786 2658 
Q 906 2778 1081 2778 
Q 1259 2778 1378 2659 
Q 1497 2541 1497 2363 
Q 1497 2184 1378 2065 
Q 1259 1947 1081 1947 
Q 906 1947 786 2067 
Q 666 2188 666 2363 
z
" transform="scale(0.015625)"/>
      <path id="DejaVuSerif-75" d="M 2266 3322 
L 3341 3322 
L 3341 331 
L 3884 331 
L 3884 0 
L 2766 0 
L 2766 588 
Q 2606 256 2353 82 
Q 2100 -91 1766 -91 
Q 1213 -91 952 223 
Q 691 538 691 1209 
L 691 2988 
L 172 2988 
L 172 3322 
L 1269 3322 
L 1269 1388 
Q 1269 781 1417 556 
Q 1566 331 1947 331 
Q 2347 331 2556 625 
Q 2766 919 2766 1478 
L 2766 2988 
L 2266 2988 
L 2266 3322 
z
" transform="scale(0.015625)"/>
      <path id="DejaVuSerif-2d" d="M 281 1959 
L 1881 1959 
L 1881 1472 
L 281 1472 
L 281 1959 
z
" transform="scale(0.015625)"/>
      <path id="DejaVuSerif-6a" d="M 641 4353 
Q 641 4497 745 4603 
Q 850 4709 997 4709 
Q 1141 4709 1245 4603 
Q 1350 4497 1350 4353 
Q 1350 4206 1248 4103 
Q 1147 4000 997 4000 
Q 850 4000 745 4103 
Q 641 4206 641 4353 
z
M 781 2988 
L 238 2988 
L 238 3322 
L 1356 3322 
L 1356 -325 
Q 1356 -838 1051 -1130 
Q 747 -1422 213 -1422 
Q -13 -1422 -217 -1370 
Q -422 -1319 -616 -1216 
L -616 -531 
L -319 -531 
Q -297 -831 -164 -972 
Q -31 -1113 225 -1113 
Q 509 -1113 645 -920 
Q 781 -728 781 -325 
L 781 2988 
z
" transform="scale(0.015625)"/>
      <path id="DejaVuSerif-36" d="M 2094 219 
Q 2534 219 2771 542 
Q 3009 866 3009 1472 
Q 3009 2078 2771 2401 
Q 2534 2725 2094 2725 
Q 1647 2725 1412 2412 
Q 1178 2100 1178 1509 
Q 1178 888 1415 553 
Q 1653 219 2094 219 
z
M 1075 2569 
Q 1288 2803 1556 2918 
Q 1825 3034 2163 3034 
Q 2859 3034 3264 2615 
Q 3669 2197 3669 1472 
Q 3669 763 3233 336 
Q 2797 -91 2069 -91 
Q 1278 -91 853 498 
Q 428 1088 428 2181 
Q 428 3406 931 4078 
Q 1434 4750 2350 4750 
Q 2597 4750 2869 4703 
Q 3141 4656 3425 4563 
L 3425 3794 
L 3072 3794 
Q 3034 4109 2831 4275 
Q 2628 4441 2284 4441 
Q 1678 4441 1381 3981 
Q 1084 3522 1075 2569 
z
" transform="scale(0.015625)"/>
      <path id="DejaVuSerif-5f" d="M 3200 -1259 
L 3200 -1509 
L 0 -1509 
L 0 -1259 
L 3200 -1259 
z
" transform="scale(0.015625)"/>
     </defs>
     <use xlink:href="#DejaVuSerif-44"/>
     <use xlink:href="#DejaVuSerif-61" transform="translate(80.175781 0)"/>
     <use xlink:href="#DejaVuSerif-74" transform="translate(139.794922 0)"/>
     <use xlink:href="#DejaVuSerif-61" transform="translate(179.980469 0)"/>
     <use xlink:href="#DejaVuSerif-73" transform="translate(239.599609 0)"/>
     <use xlink:href="#DejaVuSerif-65" transform="translate(290.917969 0)"/>
     <use xlink:href="#DejaVuSerif-74" transform="translate(350.097656 0)"/>
     <use xlink:href="#DejaVuSerif-3a" transform="translate(390.283203 0)"/>
     <use xlink:href="#DejaVuSerif-20" transform="translate(423.974609 0)"/>
     <use xlink:href="#DejaVuSerif-74" transform="translate(455.761719 0)"/>
     <use xlink:href="#DejaVuSerif-6f" transform="translate(495.947266 0)"/>
     <use xlink:href="#DejaVuSerif-75" transform="translate(556.152344 0)"/>
     <use xlink:href="#DejaVuSerif-72" transform="translate(620.556641 0)"/>
     <use xlink:href="#DejaVuSerif-79" transform="translate(668.359375 0)"/>
     <use xlink:href="#DejaVuSerif-61" transform="translate(724.853516 0)"/>
     <use xlink:href="#DejaVuSerif-6e" transform="translate(784.472656 0)"/>
     <use xlink:href="#DejaVuSerif-32" transform="translate(848.876953 0)"/>
     <use xlink:href="#DejaVuSerif-30" transform="translate(912.5 0)"/>
     <use xlink:href="#DejaVuSerif-32" transform="translate(976.123047 0)"/>
     <use xlink:href="#DejaVuSerif-32" transform="translate(1039.746094 0)"/>
     <use xlink:href="#DejaVuSerif-20" transform="translate(1103.369141 0)"/>
     <use xlink:href="#DejaVuSerif-2d" transform="translate(1135.15625 0)"/>
     <use xlink:href="#DejaVuSerif-20" transform="translate(1168.945312 0)"/>
     <use xlink:href="#DejaVuSerif-53" transform="translate(1200.732422 0)"/>
     <use xlink:href="#DejaVuSerif-75" transform="translate(1269.238281 0)"/>
     <use xlink:href="#DejaVuSerif-62" transform="translate(1333.642578 0)"/>
     <use xlink:href="#DejaVuSerif-6a" transform="translate(1397.65625 0)"/>
     <use xlink:href="#DejaVuSerif-65" transform="translate(1428.662109 0)"/>
     <use xlink:href="#DejaVuSerif-63" transform="translate(1487.841797 0)"/>
     <use xlink:href="#DejaVuSerif-74" transform="translate(1543.847656 0)"/>
     <use xlink:href="#DejaVuSerif-20" transform="translate(1584.033203 0)"/>
     <use xlink:href="#DejaVuSerif-53" transform="translate(1615.820312 0)"/>
     <use xlink:href="#DejaVuSerif-65" transform="translate(1684.326172 0)"/>
     <use xlink:href="#DejaVuSerif-73" transform="translate(1743.505859 0)"/>
     <use xlink:href="#DejaVuSerif-73" transform="translate(1794.824219 0)"/>
     <use xlink:href="#DejaVuSerif-69" transform="translate(1846.142578 0)"/>
     <use xlink:href="#DejaVuSerif-6f" transform="translate(1878.125 0)"/>
     <use xlink:href="#DejaVuSerif-6e" transform="translate(1938.330078 0)"/>
     <use xlink:href="#DejaVuSerif-3a" transform="translate(2002.734375 0)"/>
     <use xlink:href="#DejaVuSerif-20" transform="translate(2036.425781 0)"/>
     <use xlink:href="#DejaVuSerif-31" transform="translate(2068.212891 0)"/>
     <use xlink:href="#DejaVuSerif-36" transform="translate(2131.835938 0)"/>
     <use xlink:href="#DejaVuSerif-5f" transform="translate(2195.458984 0)"/>
     <use xlink:href="#DejaVuSerif-32" transform="translate(2245.458984 0)"/>
    </g>
   </g>
   <g id="legend_1">
    <g id="text_20">
     <!-- State -->
     <g transform="translate(125.514219 64.179469) scale(0.13 -0.13)">
      <use xlink:href="#DejaVuSerif-53"/>
      <use xlink:href="#DejaVuSerif-74" transform="translate(68.505859 0)"/>
      <use xlink:href="#DejaVuSerif-61" transform="translate(108.691406 0)"/>
      <use xlink:href="#DejaVuSerif-74" transform="translate(168.310547 0)"/>
      <use xlink:href="#DejaVuSerif-65" transform="translate(208.496094 0)"/>
     </g>
    </g>
    <g id="patch_25">
     <path d="M 75.856406 82.001187 
L 99.856406 82.001187 
L 99.856406 73.601187 
L 75.856406 73.601187 
z
" style="fill: #6a80d1; stroke: #545454; stroke-linejoin: miter"/>
    </g>
    <g id="text_21">
     <!-- On-target -->
     <g transform="translate(109.456406 82.001187) scale(0.12 -0.12)">
      <defs>
       <path id="DejaVuSerif-4f" d="M 2625 244 
Q 3391 244 3781 770 
Q 4172 1297 4172 2328 
Q 4172 3363 3781 3889 
Q 3391 4416 2625 4416 
Q 1856 4416 1465 3889 
Q 1075 3363 1075 2328 
Q 1075 1297 1465 770 
Q 1856 244 2625 244 
z
M 2625 -91 
Q 2150 -91 1751 65 
Q 1353 222 1050 525 
Q 700 875 529 1319 
Q 359 1763 359 2328 
Q 359 2894 529 3339 
Q 700 3784 1050 4134 
Q 1356 4441 1750 4595 
Q 2144 4750 2625 4750 
Q 3641 4750 4266 4084 
Q 4891 3419 4891 2328 
Q 4891 1769 4719 1320 
Q 4547 872 4197 525 
Q 3891 219 3497 64 
Q 3103 -91 2625 -91 
z
" transform="scale(0.015625)"/>
      </defs>
      <use xlink:href="#DejaVuSerif-4f"/>
      <use xlink:href="#DejaVuSerif-6e" transform="translate(81.982422 0)"/>
      <use xlink:href="#DejaVuSerif-2d" transform="translate(146.386719 0)"/>
      <use xlink:href="#DejaVuSerif-74" transform="translate(180.175781 0)"/>
      <use xlink:href="#DejaVuSerif-61" transform="translate(220.361328 0)"/>
      <use xlink:href="#DejaVuSerif-72" transform="translate(279.980469 0)"/>
      <use xlink:href="#DejaVuSerif-67" transform="translate(327.783203 0)"/>
      <use xlink:href="#DejaVuSerif-65" transform="translate(391.796875 0)"/>
      <use xlink:href="#DejaVuSerif-74" transform="translate(450.976562 0)"/>
     </g>
    </g>
    <g id="patch_26">
     <path d="M 75.856406 99.785562 
L 99.856406 99.785562 
L 99.856406 91.385562 
L 75.856406 91.385562 
z
" style="fill: #c46156; stroke: #545454; stroke-linejoin: miter"/>
    </g>
    <g id="text_22">
     <!-- Mind-wandering -->
     <g transform="translate(109.456406 99.785562) scale(0.12 -0.12)">
      <defs>
       <path id="DejaVuSerif-4d" d="M 353 0 
L 353 331 
L 947 331 
L 947 4331 
L 319 4331 
L 319 4666 
L 1678 4666 
L 3316 1344 
L 4953 4666 
L 6228 4666 
L 6228 4331 
L 5606 4331 
L 5606 331 
L 6203 331 
L 6203 0 
L 4378 0 
L 4378 331 
L 4972 331 
L 4972 3938 
L 3372 684 
L 2931 684 
L 1331 3938 
L 1331 331 
L 1925 331 
L 1925 0 
L 353 0 
z
" transform="scale(0.015625)"/>
       <path id="DejaVuSerif-77" d="M 3072 3322 
L 3922 728 
L 4672 2988 
L 4191 2988 
L 4191 3322 
L 5394 3322 
L 5394 2988 
L 5025 2988 
L 4038 0 
L 3559 0 
L 2741 2484 
L 1919 0 
L 1459 0 
L 475 2988 
L 103 2988 
L 103 3322 
L 1606 3322 
L 1606 2988 
L 1069 2988 
L 1813 728 
L 2669 3322 
L 3072 3322 
z
" transform="scale(0.015625)"/>
      </defs>
      <use xlink:href="#DejaVuSerif-4d"/>
      <use xlink:href="#DejaVuSerif-69" transform="translate(102.392578 0)"/>
      <use xlink:href="#DejaVuSerif-6e" transform="translate(134.375 0)"/>
      <use xlink:href="#DejaVuSerif-64" transform="translate(198.779297 0)"/>
      <use xlink:href="#DejaVuSerif-2d" transform="translate(262.792969 0)"/>
      <use xlink:href="#DejaVuSerif-77" transform="translate(296.582031 0)"/>
      <use xlink:href="#DejaVuSerif-61" transform="translate(382.177734 0)"/>
      <use xlink:href="#DejaVuSerif-6e" transform="translate(441.796875 0)"/>
      <use xlink:href="#DejaVuSerif-64" transform="translate(506.201172 0)"/>
      <use xlink:href="#DejaVuSerif-65" transform="translate(570.214844 0)"/>
      <use xlink:href="#DejaVuSerif-72" transform="translate(629.394531 0)"/>
      <use xlink:href="#DejaVuSerif-69" transform="translate(677.197266 0)"/>
      <use xlink:href="#DejaVuSerif-6e" transform="translate(709.179688 0)"/>
      <use xlink:href="#DejaVuSerif-67" transform="translate(773.583984 0)"/>
     </g>
    </g>
   </g>
  </g>
 </g>
 <defs>
  <clipPath id="p92d3575a2e">
   <rect x="65.056406" y="43.5015" width="998.89" height="376.812711"/>
  </clipPath>
 </defs>
</svg>
