<?xml version="1.0" encoding="utf-8" standalone="no"?>
<!DOCTYPE svg PUBLIC "-//W3C//DTD SVG 1.1//EN"
  "http://www.w3.org/Graphics/SVG/1.1/DTD/svg11.dtd">
<svg xmlns:xlink="http://www.w3.org/1999/xlink" width="1071.109844pt" height="509.014265pt" viewBox="0 0 1071.109844 509.014265" xmlns="http://www.w3.org/2000/svg" version="1.1">
 <metadata>
  <rdf:RDF xmlns:dc="http://purl.org/dc/elements/1.1/" xmlns:cc="http://creativecommons.org/ns#" xmlns:rdf="http://www.w3.org/1999/02/22-rdf-syntax-ns#">
   <cc:Work>
    <dc:type rdf:resource="http://purl.org/dc/dcmitype/StillImage"/>
    <dc:date>2025-05-30T22:59:13.129855</dc:date>
    <dc:format>image/svg+xml</dc:format>
    <dc:creator>
     <cc:Agent>
      <dc:title>Matplotlib v3.10.3, https://matplotlib.org/</dc:title>
     </cc:Agent>
    </dc:creator>
   </cc:Work>
  </rdf:RDF>
 </metadata>
 <defs>
  <style type="text/css">*{stroke-linejoin: round; stroke-linecap: butt}</style>
 </defs>
 <g id="figure_1">
  <g id="patch_1">
   <path d="M 0 509.014265 
L 1071.109844 509.014265 
L 1071.109844 0 
L 0 0 
z
" style="fill: #ffffff"/>
  </g>
  <g id="axes_1">
   <g id="patch_2">
    <path d="M 56.469844 420.314211 
L 1063.909844 420.314211 
L 1063.909844 43.5015 
L 56.469844 43.5015 
z
" style="fill: #ffffff"/>
   </g>
   <g id="patch_3">
    <path d="M 112.438733 -1699.162272 
L 112.438733 -1699.162272 
L 112.438733 -1699.162272 
L 112.438733 -1699.162272 
z
" clip-path="url(#p207189194c)" style="fill: #6a80d1; stroke: #545454; stroke-linejoin: miter"/>
   </g>
   <g id="patch_4">
    <path d="M 112.438733 -1699.162272 
L 112.438733 -1699.162272 
L 112.438733 -1699.162272 
L 112.438733 -1699.162272 
z
" clip-path="url(#p207189194c)" style="fill: #c46156; stroke: #545454; stroke-linejoin: miter"/>
   </g>
   <g id="matplotlib.axis_1">
    <g id="xtick_1">
     <g id="line2d_1">
      <defs>
       <path id="me9c835668f" d="M 0 0 
L 0 3.5 
" style="stroke: #333333; stroke-width: 0.8"/>
      </defs>
      <g>
       <use xlink:href="#me9c835668f" x="112.438733" y="420.314211" style="fill: #333333; stroke: #333333; stroke-width: 0.8"/>
      </g>
     </g>
     <g id="text_1">
      <!-- prefrontal -->
      <g style="fill: #333333" transform="translate(78.517826 464.747229) rotate(-45) scale(0.09 -0.09)">
       <defs>
        <path id="DejaVuSerif-70" d="M 1313 1825 
L 1313 1497 
Q 1313 897 1542 583 
Q 1772 269 2209 269 
Q 2650 269 2876 622 
Q 3103 975 3103 1663 
Q 3103 2353 2876 2703 
Q 2650 3053 2209 3053 
Q 1772 3053 1542 2737 
Q 1313 2422 1313 1825 
z
M 738 2988 
L 184 2988 
L 184 3322 
L 1313 3322 
L 1313 2803 
Q 1481 3116 1742 3264 
Q 2003 3413 2388 3413 
Q 3000 3413 3387 2928 
Q 3775 2444 3775 1663 
Q 3775 881 3387 395 
Q 3000 -91 2388 -91 
Q 2003 -91 1742 57 
Q 1481 206 1313 519 
L 1313 -997 
L 1856 -997 
L 1856 -1331 
L 184 -1331 
L 184 -997 
L 738 -997 
L 738 2988 
z
" transform="scale(0.015625)"/>
        <path id="DejaVuSerif-72" d="M 3059 3328 
L 3059 2497 
L 2728 2497 
Q 2713 2744 2591 2866 
Q 2469 2988 2234 2988 
Q 1809 2988 1582 2694 
Q 1356 2400 1356 1850 
L 1356 331 
L 2022 331 
L 2022 0 
L 263 0 
L 263 331 
L 781 331 
L 781 2994 
L 231 2994 
L 231 3322 
L 1356 3322 
L 1356 2731 
Q 1525 3078 1790 3245 
Q 2056 3413 2438 3413 
Q 2578 3413 2733 3391 
Q 2888 3369 3059 3328 
z
" transform="scale(0.015625)"/>
        <path id="DejaVuSerif-65" d="M 3469 1600 
L 991 1600 
L 991 1575 
Q 991 903 1244 561 
Q 1497 219 1991 219 
Q 2369 219 2611 417 
Q 2853 616 2950 1006 
L 3413 1006 
Q 3275 459 2904 184 
Q 2534 -91 1931 -91 
Q 1203 -91 761 389 
Q 319 869 319 1663 
Q 319 2450 753 2931 
Q 1188 3413 1894 3413 
Q 2647 3413 3050 2948 
Q 3453 2484 3469 1600 
z
M 2791 1931 
Q 2772 2513 2545 2808 
Q 2319 3103 1894 3103 
Q 1497 3103 1269 2806 
Q 1041 2509 991 1931 
L 2791 1931 
z
" transform="scale(0.015625)"/>
        <path id="DejaVuSerif-66" d="M 2753 4078 
L 2450 4078 
Q 2447 4313 2317 4434 
Q 2188 4556 1941 4556 
Q 1619 4556 1487 4379 
Q 1356 4203 1356 3750 
L 1356 3322 
L 2284 3322 
L 2284 2988 
L 1356 2988 
L 1356 331 
L 2094 331 
L 2094 0 
L 231 0 
L 231 331 
L 781 331 
L 781 2988 
L 231 2988 
L 231 3322 
L 781 3322 
L 781 3738 
Q 781 4294 1070 4578 
Q 1359 4863 1919 4863 
Q 2128 4863 2337 4825 
Q 2547 4788 2753 4709 
L 2753 4078 
z
" transform="scale(0.015625)"/>
        <path id="DejaVuSerif-6f" d="M 1925 219 
Q 2388 219 2623 584 
Q 2859 950 2859 1663 
Q 2859 2375 2623 2739 
Q 2388 3103 1925 3103 
Q 1463 3103 1227 2739 
Q 991 2375 991 1663 
Q 991 950 1228 584 
Q 1466 219 1925 219 
z
M 1925 -91 
Q 1200 -91 759 389 
Q 319 869 319 1663 
Q 319 2456 758 2934 
Q 1197 3413 1925 3413 
Q 2653 3413 3092 2934 
Q 3531 2456 3531 1663 
Q 3531 869 3092 389 
Q 2653 -91 1925 -91 
z
" transform="scale(0.015625)"/>
        <path id="DejaVuSerif-6e" d="M 263 0 
L 263 331 
L 781 331 
L 781 2988 
L 231 2988 
L 231 3322 
L 1356 3322 
L 1356 2731 
Q 1516 3069 1770 3241 
Q 2025 3413 2363 3413 
Q 2913 3413 3172 3097 
Q 3431 2781 3431 2113 
L 3431 331 
L 3944 331 
L 3944 0 
L 2356 0 
L 2356 331 
L 2853 331 
L 2853 1931 
Q 2853 2541 2703 2767 
Q 2553 2994 2175 2994 
Q 1775 2994 1565 2701 
Q 1356 2409 1356 1850 
L 1356 331 
L 1856 331 
L 1856 0 
L 263 0 
z
" transform="scale(0.015625)"/>
        <path id="DejaVuSerif-74" d="M 691 2988 
L 184 2988 
L 184 3322 
L 691 3322 
L 691 4353 
L 1269 4353 
L 1269 3322 
L 2350 3322 
L 2350 2988 
L 1269 2988 
L 1269 878 
Q 1269 456 1350 337 
Q 1431 219 1650 219 
Q 1875 219 1978 351 
Q 2081 484 2088 781 
L 2522 781 
Q 2497 328 2275 118 
Q 2053 -91 1600 -91 
Q 1103 -91 897 129 
Q 691 350 691 878 
L 691 2988 
z
" transform="scale(0.015625)"/>
        <path id="DejaVuSerif-61" d="M 2547 1044 
L 2547 1747 
L 1806 1747 
Q 1378 1747 1168 1562 
Q 959 1378 959 997 
Q 959 650 1171 447 
Q 1384 244 1747 244 
Q 2106 244 2326 466 
Q 2547 688 2547 1044 
z
M 3122 2075 
L 3122 331 
L 3634 331 
L 3634 0 
L 2547 0 
L 2547 359 
Q 2356 128 2106 18 
Q 1856 -91 1522 -91 
Q 969 -91 644 203 
Q 319 497 319 997 
Q 319 1513 691 1797 
Q 1063 2081 1741 2081 
L 2547 2081 
L 2547 2309 
Q 2547 2688 2317 2895 
Q 2088 3103 1672 3103 
Q 1328 3103 1125 2947 
Q 922 2791 872 2484 
L 575 2484 
L 575 3156 
Q 875 3284 1158 3348 
Q 1441 3413 1709 3413 
Q 2400 3413 2761 3070 
Q 3122 2728 3122 2075 
z
" transform="scale(0.015625)"/>
        <path id="DejaVuSerif-6c" d="M 1313 331 
L 1856 331 
L 1856 0 
L 184 0 
L 184 331 
L 738 331 
L 738 4531 
L 184 4531 
L 184 4863 
L 1313 4863 
L 1313 331 
z
" transform="scale(0.015625)"/>
       </defs>
       <use xlink:href="#DejaVuSerif-70"/>
       <use xlink:href="#DejaVuSerif-72" transform="translate(64.013672 0)"/>
       <use xlink:href="#DejaVuSerif-65" transform="translate(111.816406 0)"/>
       <use xlink:href="#DejaVuSerif-66" transform="translate(170.996094 0)"/>
       <use xlink:href="#DejaVuSerif-72" transform="translate(208.007812 0)"/>
       <use xlink:href="#DejaVuSerif-6f" transform="translate(255.810547 0)"/>
       <use xlink:href="#DejaVuSerif-6e" transform="translate(316.015625 0)"/>
       <use xlink:href="#DejaVuSerif-74" transform="translate(380.419922 0)"/>
       <use xlink:href="#DejaVuSerif-61" transform="translate(420.605469 0)"/>
       <use xlink:href="#DejaVuSerif-6c" transform="translate(480.224609 0)"/>
      </g>
     </g>
    </g>
    <g id="xtick_2">
     <g id="line2d_2">
      <g>
       <use xlink:href="#me9c835668f" x="224.37651" y="420.314211" style="fill: #333333; stroke: #333333; stroke-width: 0.8"/>
      </g>
     </g>
     <g id="text_2">
      <!-- frontal -->
      <g style="fill: #333333" transform="translate(201.337977 453.864855) rotate(-45) scale(0.09 -0.09)">
       <use xlink:href="#DejaVuSerif-66"/>
       <use xlink:href="#DejaVuSerif-72" transform="translate(37.011719 0)"/>
       <use xlink:href="#DejaVuSerif-6f" transform="translate(84.814453 0)"/>
       <use xlink:href="#DejaVuSerif-6e" transform="translate(145.019531 0)"/>
       <use xlink:href="#DejaVuSerif-74" transform="translate(209.423828 0)"/>
       <use xlink:href="#DejaVuSerif-61" transform="translate(249.609375 0)"/>
       <use xlink:href="#DejaVuSerif-6c" transform="translate(309.228516 0)"/>
      </g>
     </g>
    </g>
    <g id="xtick_3">
     <g id="line2d_3">
      <g>
       <use xlink:href="#me9c835668f" x="336.314288" y="420.314211" style="fill: #333333; stroke: #333333; stroke-width: 0.8"/>
      </g>
     </g>
     <g id="text_3">
      <!-- frontocentral -->
      <g style="fill: #333333" transform="translate(292.415884 474.724726) rotate(-45) scale(0.09 -0.09)">
       <defs>
        <path id="DejaVuSerif-63" d="M 3291 997 
Q 3169 466 2822 187 
Q 2475 -91 1925 -91 
Q 1200 -91 759 389 
Q 319 869 319 1663 
Q 319 2459 759 2936 
Q 1200 3413 1925 3413 
Q 2241 3413 2553 3339 
Q 2866 3266 3181 3116 
L 3181 2266 
L 2847 2266 
Q 2781 2703 2561 2903 
Q 2341 3103 1931 3103 
Q 1466 3103 1228 2742 
Q 991 2381 991 1663 
Q 991 944 1227 581 
Q 1463 219 1931 219 
Q 2303 219 2525 412 
Q 2747 606 2828 997 
L 3291 997 
z
" transform="scale(0.015625)"/>
       </defs>
       <use xlink:href="#DejaVuSerif-66"/>
       <use xlink:href="#DejaVuSerif-72" transform="translate(37.011719 0)"/>
       <use xlink:href="#DejaVuSerif-6f" transform="translate(84.814453 0)"/>
       <use xlink:href="#DejaVuSerif-6e" transform="translate(145.019531 0)"/>
       <use xlink:href="#DejaVuSerif-74" transform="translate(209.423828 0)"/>
       <use xlink:href="#DejaVuSerif-6f" transform="translate(249.609375 0)"/>
       <use xlink:href="#DejaVuSerif-63" transform="translate(309.814453 0)"/>
       <use xlink:href="#DejaVuSerif-65" transform="translate(365.820312 0)"/>
       <use xlink:href="#DejaVuSerif-6e" transform="translate(425 0)"/>
       <use xlink:href="#DejaVuSerif-74" transform="translate(489.404297 0)"/>
       <use xlink:href="#DejaVuSerif-72" transform="translate(529.589844 0)"/>
       <use xlink:href="#DejaVuSerif-61" transform="translate(577.392578 0)"/>
       <use xlink:href="#DejaVuSerif-6c" transform="translate(637.011719 0)"/>
      </g>
     </g>
    </g>
    <g id="xtick_4">
     <g id="line2d_4">
      <g>
       <use xlink:href="#me9c835668f" x="448.252066" y="420.314211" style="fill: #333333; stroke: #333333; stroke-width: 0.8"/>
      </g>
     </g>
     <g id="text_4">
      <!-- central -->
      <g style="fill: #333333" transform="translate(424.070008 455.00838) rotate(-45) scale(0.09 -0.09)">
       <use xlink:href="#DejaVuSerif-63"/>
       <use xlink:href="#DejaVuSerif-65" transform="translate(56.005859 0)"/>
       <use xlink:href="#DejaVuSerif-6e" transform="translate(115.185547 0)"/>
       <use xlink:href="#DejaVuSerif-74" transform="translate(179.589844 0)"/>
       <use xlink:href="#DejaVuSerif-72" transform="translate(219.775391 0)"/>
       <use xlink:href="#DejaVuSerif-61" transform="translate(267.578125 0)"/>
       <use xlink:href="#DejaVuSerif-6c" transform="translate(327.197266 0)"/>
      </g>
     </g>
    </g>
    <g id="xtick_5">
     <g id="line2d_5">
      <g>
       <use xlink:href="#me9c835668f" x="560.189844" y="420.314211" style="fill: #333333; stroke: #333333; stroke-width: 0.8"/>
      </g>
     </g>
     <g id="text_5">
      <!-- centroparietal -->
      <g style="fill: #333333" transform="translate(512.906608 478.109558) rotate(-45) scale(0.09 -0.09)">
       <defs>
        <path id="DejaVuSerif-69" d="M 622 4353 
Q 622 4497 726 4603 
Q 831 4709 978 4709 
Q 1122 4709 1226 4603 
Q 1331 4497 1331 4353 
Q 1331 4206 1228 4103 
Q 1125 4000 978 4000 
Q 831 4000 726 4103 
Q 622 4206 622 4353 
z
M 1356 331 
L 1900 331 
L 1900 0 
L 231 0 
L 231 331 
L 781 331 
L 781 2988 
L 231 2988 
L 231 3322 
L 1356 3322 
L 1356 331 
z
" transform="scale(0.015625)"/>
       </defs>
       <use xlink:href="#DejaVuSerif-63"/>
       <use xlink:href="#DejaVuSerif-65" transform="translate(56.005859 0)"/>
       <use xlink:href="#DejaVuSerif-6e" transform="translate(115.185547 0)"/>
       <use xlink:href="#DejaVuSerif-74" transform="translate(179.589844 0)"/>
       <use xlink:href="#DejaVuSerif-72" transform="translate(219.775391 0)"/>
       <use xlink:href="#DejaVuSerif-6f" transform="translate(267.578125 0)"/>
       <use xlink:href="#DejaVuSerif-70" transform="translate(327.783203 0)"/>
       <use xlink:href="#DejaVuSerif-61" transform="translate(391.796875 0)"/>
       <use xlink:href="#DejaVuSerif-72" transform="translate(451.416016 0)"/>
       <use xlink:href="#DejaVuSerif-69" transform="translate(499.21875 0)"/>
       <use xlink:href="#DejaVuSerif-65" transform="translate(531.201172 0)"/>
       <use xlink:href="#DejaVuSerif-74" transform="translate(590.380859 0)"/>
       <use xlink:href="#DejaVuSerif-61" transform="translate(630.566406 0)"/>
       <use xlink:href="#DejaVuSerif-6c" transform="translate(690.185547 0)"/>
      </g>
     </g>
    </g>
    <g id="xtick_6">
     <g id="line2d_6">
      <g>
       <use xlink:href="#me9c835668f" x="672.127622" y="420.314211" style="fill: #333333; stroke: #333333; stroke-width: 0.8"/>
      </g>
     </g>
     <g id="text_6">
      <!-- temporal -->
      <g style="fill: #333333" transform="translate(641.668113 461.285831) rotate(-45) scale(0.09 -0.09)">
       <defs>
        <path id="DejaVuSerif-6d" d="M 3316 2675 
Q 3481 3041 3739 3227 
Q 3997 3413 4341 3413 
Q 4863 3413 5119 3089 
Q 5375 2766 5375 2113 
L 5375 331 
L 5894 331 
L 5894 0 
L 4300 0 
L 4300 331 
L 4800 331 
L 4800 2047 
Q 4800 2556 4650 2772 
Q 4500 2988 4153 2988 
Q 3769 2988 3567 2697 
Q 3366 2406 3366 1850 
L 3366 331 
L 3866 331 
L 3866 0 
L 2291 0 
L 2291 331 
L 2791 331 
L 2791 2069 
Q 2791 2566 2641 2777 
Q 2491 2988 2144 2988 
Q 1759 2988 1557 2697 
Q 1356 2406 1356 1850 
L 1356 331 
L 1856 331 
L 1856 0 
L 263 0 
L 263 331 
L 781 331 
L 781 2994 
L 231 2994 
L 231 3322 
L 1356 3322 
L 1356 2731 
Q 1516 3063 1762 3238 
Q 2009 3413 2322 3413 
Q 2709 3413 2968 3220 
Q 3228 3028 3316 2675 
z
" transform="scale(0.015625)"/>
       </defs>
       <use xlink:href="#DejaVuSerif-74"/>
       <use xlink:href="#DejaVuSerif-65" transform="translate(40.185547 0)"/>
       <use xlink:href="#DejaVuSerif-6d" transform="translate(99.365234 0)"/>
       <use xlink:href="#DejaVuSerif-70" transform="translate(194.189453 0)"/>
       <use xlink:href="#DejaVuSerif-6f" transform="translate(258.203125 0)"/>
       <use xlink:href="#DejaVuSerif-72" transform="translate(318.408203 0)"/>
       <use xlink:href="#DejaVuSerif-61" transform="translate(366.210938 0)"/>
       <use xlink:href="#DejaVuSerif-6c" transform="translate(425.830078 0)"/>
      </g>
     </g>
    </g>
    <g id="xtick_7">
     <g id="line2d_7">
      <g>
       <use xlink:href="#me9c835668f" x="784.065399" y="420.314211" style="fill: #333333; stroke: #333333; stroke-width: 0.8"/>
      </g>
     </g>
     <g id="text_7">
      <!-- parietal -->
      <g style="fill: #333333" transform="translate(757.642034 457.249687) rotate(-45) scale(0.09 -0.09)">
       <use xlink:href="#DejaVuSerif-70"/>
       <use xlink:href="#DejaVuSerif-61" transform="translate(64.013672 0)"/>
       <use xlink:href="#DejaVuSerif-72" transform="translate(123.632812 0)"/>
       <use xlink:href="#DejaVuSerif-69" transform="translate(171.435547 0)"/>
       <use xlink:href="#DejaVuSerif-65" transform="translate(203.417969 0)"/>
       <use xlink:href="#DejaVuSerif-74" transform="translate(262.597656 0)"/>
       <use xlink:href="#DejaVuSerif-61" transform="translate(302.783203 0)"/>
       <use xlink:href="#DejaVuSerif-6c" transform="translate(362.402344 0)"/>
      </g>
     </g>
    </g>
    <g id="xtick_8">
     <g id="line2d_8">
      <g>
       <use xlink:href="#me9c835668f" x="896.003177" y="420.314211" style="fill: #333333; stroke: #333333; stroke-width: 0.8"/>
      </g>
     </g>
     <g id="text_8">
      <!-- parietooccipital -->
      <g style="fill: #333333" transform="translate(844.087176 482.742323) rotate(-45) scale(0.09 -0.09)">
       <use xlink:href="#DejaVuSerif-70"/>
       <use xlink:href="#DejaVuSerif-61" transform="translate(64.013672 0)"/>
       <use xlink:href="#DejaVuSerif-72" transform="translate(123.632812 0)"/>
       <use xlink:href="#DejaVuSerif-69" transform="translate(171.435547 0)"/>
       <use xlink:href="#DejaVuSerif-65" transform="translate(203.417969 0)"/>
       <use xlink:href="#DejaVuSerif-74" transform="translate(262.597656 0)"/>
       <use xlink:href="#DejaVuSerif-6f" transform="translate(302.783203 0)"/>
       <use xlink:href="#DejaVuSerif-6f" transform="translate(362.988281 0)"/>
       <use xlink:href="#DejaVuSerif-63" transform="translate(423.193359 0)"/>
       <use xlink:href="#DejaVuSerif-63" transform="translate(479.199219 0)"/>
       <use xlink:href="#DejaVuSerif-69" transform="translate(535.205078 0)"/>
       <use xlink:href="#DejaVuSerif-70" transform="translate(567.1875 0)"/>
       <use xlink:href="#DejaVuSerif-69" transform="translate(631.201172 0)"/>
       <use xlink:href="#DejaVuSerif-74" transform="translate(663.183594 0)"/>
       <use xlink:href="#DejaVuSerif-61" transform="translate(703.369141 0)"/>
       <use xlink:href="#DejaVuSerif-6c" transform="translate(762.988281 0)"/>
      </g>
     </g>
    </g>
    <g id="xtick_9">
     <g id="line2d_9">
      <g>
       <use xlink:href="#me9c835668f" x="1007.940955" y="420.314211" style="fill: #333333; stroke: #333333; stroke-width: 0.8"/>
      </g>
     </g>
     <g id="text_9">
      <!-- occipital -->
      <g style="fill: #333333" transform="translate(979.126133 459.641144) rotate(-45) scale(0.09 -0.09)">
       <use xlink:href="#DejaVuSerif-6f"/>
       <use xlink:href="#DejaVuSerif-63" transform="translate(60.205078 0)"/>
       <use xlink:href="#DejaVuSerif-63" transform="translate(116.210938 0)"/>
       <use xlink:href="#DejaVuSerif-69" transform="translate(172.216797 0)"/>
       <use xlink:href="#DejaVuSerif-70" transform="translate(204.199219 0)"/>
       <use xlink:href="#DejaVuSerif-69" transform="translate(268.212891 0)"/>
       <use xlink:href="#DejaVuSerif-74" transform="translate(300.195312 0)"/>
       <use xlink:href="#DejaVuSerif-61" transform="translate(340.380859 0)"/>
       <use xlink:href="#DejaVuSerif-6c" transform="translate(400 0)"/>
      </g>
     </g>
    </g>
    <g id="text_10">
     <!-- Cortical Region -->
     <g transform="translate(504.807813 498.70364) scale(0.14 -0.14)">
      <defs>
       <path id="DejaVuSerif-43" d="M 4513 1234 
Q 4306 581 3820 245 
Q 3334 -91 2591 -91 
Q 2134 -91 1743 65 
Q 1353 222 1050 525 
Q 700 875 529 1320 
Q 359 1766 359 2328 
Q 359 3416 987 4083 
Q 1616 4750 2644 4750 
Q 3025 4750 3456 4650 
Q 3888 4550 4384 4347 
L 4384 3272 
L 4031 3272 
Q 3916 3859 3567 4137 
Q 3219 4416 2591 4416 
Q 1844 4416 1459 3886 
Q 1075 3356 1075 2328 
Q 1075 1303 1459 773 
Q 1844 244 2591 244 
Q 3113 244 3450 492 
Q 3788 741 3938 1234 
L 4513 1234 
z
" transform="scale(0.015625)"/>
       <path id="DejaVuSerif-20" transform="scale(0.015625)"/>
       <path id="DejaVuSerif-52" d="M 3066 2316 
Q 3284 2256 3442 2114 
Q 3600 1972 3725 1716 
L 4403 331 
L 4972 331 
L 4972 0 
L 3872 0 
L 3144 1484 
Q 2934 1916 2759 2042 
Q 2584 2169 2278 2169 
L 1581 2169 
L 1581 331 
L 2241 331 
L 2241 0 
L 353 0 
L 353 331 
L 947 331 
L 947 4331 
L 353 4331 
L 353 4666 
L 2719 4666 
Q 3400 4666 3770 4341 
Q 4141 4016 4141 3419 
Q 4141 2938 3870 2661 
Q 3600 2384 3066 2316 
z
M 1581 2503 
L 2503 2503 
Q 2975 2503 3200 2726 
Q 3425 2950 3425 3419 
Q 3425 3888 3200 4109 
Q 2975 4331 2503 4331 
L 1581 4331 
L 1581 2503 
z
" transform="scale(0.015625)"/>
       <path id="DejaVuSerif-67" d="M 3359 2988 
L 3359 72 
Q 3359 -644 2965 -1033 
Q 2572 -1422 1844 -1422 
Q 1516 -1422 1216 -1362 
Q 916 -1303 641 -1184 
L 641 -488 
L 941 -488 
Q 997 -813 1206 -963 
Q 1416 -1113 1806 -1113 
Q 2313 -1113 2548 -827 
Q 2784 -541 2784 72 
L 2784 519 
Q 2616 206 2355 57 
Q 2094 -91 1709 -91 
Q 1097 -91 708 395 
Q 319 881 319 1663 
Q 319 2444 706 2928 
Q 1094 3413 1709 3413 
Q 2094 3413 2355 3264 
Q 2616 3116 2784 2803 
L 2784 3322 
L 3909 3322 
L 3909 2988 
L 3359 2988 
z
M 2784 1825 
Q 2784 2422 2554 2737 
Q 2325 3053 1888 3053 
Q 1444 3053 1217 2703 
Q 991 2353 991 1663 
Q 991 975 1217 622 
Q 1444 269 1888 269 
Q 2325 269 2554 583 
Q 2784 897 2784 1497 
L 2784 1825 
z
" transform="scale(0.015625)"/>
      </defs>
      <use xlink:href="#DejaVuSerif-43"/>
      <use xlink:href="#DejaVuSerif-6f" transform="translate(76.513672 0)"/>
      <use xlink:href="#DejaVuSerif-72" transform="translate(136.71875 0)"/>
      <use xlink:href="#DejaVuSerif-74" transform="translate(184.521484 0)"/>
      <use xlink:href="#DejaVuSerif-69" transform="translate(224.707031 0)"/>
      <use xlink:href="#DejaVuSerif-63" transform="translate(256.689453 0)"/>
      <use xlink:href="#DejaVuSerif-61" transform="translate(312.695312 0)"/>
      <use xlink:href="#DejaVuSerif-6c" transform="translate(372.314453 0)"/>
      <use xlink:href="#DejaVuSerif-20" transform="translate(404.296875 0)"/>
      <use xlink:href="#DejaVuSerif-52" transform="translate(436.083984 0)"/>
      <use xlink:href="#DejaVuSerif-65" transform="translate(511.376953 0)"/>
      <use xlink:href="#DejaVuSerif-67" transform="translate(570.556641 0)"/>
      <use xlink:href="#DejaVuSerif-69" transform="translate(634.570312 0)"/>
      <use xlink:href="#DejaVuSerif-6f" transform="translate(666.552734 0)"/>
      <use xlink:href="#DejaVuSerif-6e" transform="translate(726.757812 0)"/>
     </g>
    </g>
   </g>
   <g id="matplotlib.axis_2">
    <g id="ytick_1">
     <g id="line2d_10">
      <defs>
       <path id="m53ea7b48c3" d="M 0 0 
L -3.5 0 
" style="stroke: #333333; stroke-width: 0.8"/>
      </defs>
      <g>
       <use xlink:href="#m53ea7b48c3" x="56.469844" y="399.236968" style="fill: #333333; stroke: #333333; stroke-width: 0.8"/>
      </g>
     </g>
     <g id="text_11">
      <!-- −130 -->
      <g style="fill: #333333" transform="translate(24.749375 402.656265) scale(0.09 -0.09)">
       <defs>
        <path id="DejaVuSerif-2212" d="M 678 2259 
L 4684 2259 
L 4684 1753 
L 678 1753 
L 678 2259 
z
" transform="scale(0.015625)"/>
        <path id="DejaVuSerif-31" d="M 909 0 
L 909 331 
L 1722 331 
L 1722 4213 
L 781 3603 
L 781 4013 
L 1919 4750 
L 2350 4750 
L 2350 331 
L 3163 331 
L 3163 0 
L 909 0 
z
" transform="scale(0.015625)"/>
        <path id="DejaVuSerif-33" d="M 622 4469 
Q 988 4606 1323 4678 
Q 1659 4750 1953 4750 
Q 2638 4750 3022 4454 
Q 3406 4159 3406 3634 
Q 3406 3213 3140 2930 
Q 2875 2647 2388 2547 
Q 2963 2466 3280 2130 
Q 3597 1794 3597 1259 
Q 3597 606 3158 257 
Q 2719 -91 1894 -91 
Q 1528 -91 1179 -12 
Q 831 66 488 225 
L 488 1131 
L 838 1131 
Q 869 681 1141 450 
Q 1413 219 1906 219 
Q 2384 219 2661 495 
Q 2938 772 2938 1253 
Q 2938 1803 2653 2086 
Q 2369 2369 1819 2369 
L 1522 2369 
L 1522 2688 
L 1678 2688 
Q 2225 2688 2498 2914 
Q 2772 3141 2772 3597 
Q 2772 4006 2547 4223 
Q 2322 4441 1900 4441 
Q 1478 4441 1245 4241 
Q 1013 4041 972 3647 
L 622 3647 
L 622 4469 
z
" transform="scale(0.015625)"/>
        <path id="DejaVuSerif-30" d="M 2034 219 
Q 2513 219 2750 744 
Q 2988 1269 2988 2328 
Q 2988 3391 2750 3916 
Q 2513 4441 2034 4441 
Q 1556 4441 1318 3916 
Q 1081 3391 1081 2328 
Q 1081 1269 1318 744 
Q 1556 219 2034 219 
z
M 2034 -91 
Q 1275 -91 848 546 
Q 422 1184 422 2328 
Q 422 3475 848 4112 
Q 1275 4750 2034 4750 
Q 2797 4750 3222 4112 
Q 3647 3475 3647 2328 
Q 3647 1184 3222 546 
Q 2797 -91 2034 -91 
z
" transform="scale(0.015625)"/>
       </defs>
       <use xlink:href="#DejaVuSerif-2212"/>
       <use xlink:href="#DejaVuSerif-31" transform="translate(83.789062 0)"/>
       <use xlink:href="#DejaVuSerif-33" transform="translate(147.412109 0)"/>
       <use xlink:href="#DejaVuSerif-30" transform="translate(211.035156 0)"/>
      </g>
     </g>
    </g>
    <g id="ytick_2">
     <g id="line2d_11">
      <g>
       <use xlink:href="#m53ea7b48c3" x="56.469844" y="318.529305" style="fill: #333333; stroke: #333333; stroke-width: 0.8"/>
      </g>
     </g>
     <g id="text_12">
      <!-- −125 -->
      <g style="fill: #333333" transform="translate(24.749375 321.948602) scale(0.09 -0.09)">
       <defs>
        <path id="DejaVuSerif-32" d="M 819 3553 
L 469 3553 
L 469 4384 
Q 803 4563 1142 4656 
Q 1481 4750 1806 4750 
Q 2534 4750 2956 4397 
Q 3378 4044 3378 3438 
Q 3378 2753 2422 1800 
Q 2347 1728 2309 1691 
L 1131 513 
L 3078 513 
L 3078 1088 
L 3444 1088 
L 3444 0 
L 434 0 
L 434 341 
L 1850 1753 
Q 2319 2222 2519 2614 
Q 2719 3006 2719 3438 
Q 2719 3909 2473 4175 
Q 2228 4441 1797 4441 
Q 1350 4441 1106 4219 
Q 863 3997 819 3553 
z
" transform="scale(0.015625)"/>
        <path id="DejaVuSerif-35" d="M 3219 4666 
L 3219 4153 
L 1081 4153 
L 1081 2816 
Q 1244 2928 1461 2984 
Q 1678 3041 1947 3041 
Q 2703 3041 3140 2622 
Q 3578 2203 3578 1478 
Q 3578 738 3136 323 
Q 2694 -91 1894 -91 
Q 1572 -91 1234 -12 
Q 897 66 544 225 
L 544 1131 
L 897 1131 
Q 925 688 1179 453 
Q 1434 219 1894 219 
Q 2388 219 2653 544 
Q 2919 869 2919 1478 
Q 2919 2084 2655 2407 
Q 2391 2731 1894 2731 
Q 1613 2731 1398 2631 
Q 1184 2531 1019 2322 
L 750 2322 
L 750 4666 
L 3219 4666 
z
" transform="scale(0.015625)"/>
       </defs>
       <use xlink:href="#DejaVuSerif-2212"/>
       <use xlink:href="#DejaVuSerif-31" transform="translate(83.789062 0)"/>
       <use xlink:href="#DejaVuSerif-32" transform="translate(147.412109 0)"/>
       <use xlink:href="#DejaVuSerif-35" transform="translate(211.035156 0)"/>
      </g>
     </g>
    </g>
    <g id="ytick_3">
     <g id="line2d_12">
      <g>
       <use xlink:href="#m53ea7b48c3" x="56.469844" y="237.821642" style="fill: #333333; stroke: #333333; stroke-width: 0.8"/>
      </g>
     </g>
     <g id="text_13">
      <!-- −120 -->
      <g style="fill: #333333" transform="translate(24.749375 241.240939) scale(0.09 -0.09)">
       <use xlink:href="#DejaVuSerif-2212"/>
       <use xlink:href="#DejaVuSerif-31" transform="translate(83.789062 0)"/>
       <use xlink:href="#DejaVuSerif-32" transform="translate(147.412109 0)"/>
       <use xlink:href="#DejaVuSerif-30" transform="translate(211.035156 0)"/>
      </g>
     </g>
    </g>
    <g id="ytick_4">
     <g id="line2d_13">
      <g>
       <use xlink:href="#m53ea7b48c3" x="56.469844" y="157.113979" style="fill: #333333; stroke: #333333; stroke-width: 0.8"/>
      </g>
     </g>
     <g id="text_14">
      <!-- −115 -->
      <g style="fill: #333333" transform="translate(24.749375 160.533276) scale(0.09 -0.09)">
       <use xlink:href="#DejaVuSerif-2212"/>
       <use xlink:href="#DejaVuSerif-31" transform="translate(83.789062 0)"/>
       <use xlink:href="#DejaVuSerif-31" transform="translate(147.412109 0)"/>
       <use xlink:href="#DejaVuSerif-35" transform="translate(211.035156 0)"/>
      </g>
     </g>
    </g>
    <g id="ytick_5">
     <g id="line2d_14">
      <g>
       <use xlink:href="#m53ea7b48c3" x="56.469844" y="76.406316" style="fill: #333333; stroke: #333333; stroke-width: 0.8"/>
      </g>
     </g>
     <g id="text_15">
      <!-- −110 -->
      <g style="fill: #333333" transform="translate(24.749375 79.825612) scale(0.09 -0.09)">
       <use xlink:href="#DejaVuSerif-2212"/>
       <use xlink:href="#DejaVuSerif-31" transform="translate(83.789062 0)"/>
       <use xlink:href="#DejaVuSerif-31" transform="translate(147.412109 0)"/>
       <use xlink:href="#DejaVuSerif-30" transform="translate(211.035156 0)"/>
      </g>
     </g>
    </g>
    <g id="text_16">
     <!-- Band Db -->
     <g transform="translate(17.837813 262.532856) rotate(-90) scale(0.14 -0.14)">
      <defs>
       <path id="DejaVuSerif-42" d="M 1581 331 
L 2516 331 
Q 3078 331 3337 575 
Q 3597 819 3597 1350 
Q 3597 1878 3339 2120 
Q 3081 2363 2516 2363 
L 1581 2363 
L 1581 331 
z
M 1581 2694 
L 2375 2694 
Q 2888 2694 3123 2891 
Q 3359 3088 3359 3513 
Q 3359 3941 3123 4136 
Q 2888 4331 2375 4331 
L 1581 4331 
L 1581 2694 
z
M 353 0 
L 353 331 
L 947 331 
L 947 4331 
L 353 4331 
L 353 4666 
L 2656 4666 
Q 3363 4666 3720 4377 
Q 4078 4088 4078 3513 
Q 4078 3097 3829 2850 
Q 3581 2603 3103 2547 
Q 3697 2472 4005 2167 
Q 4313 1863 4313 1350 
Q 4313 656 3875 328 
Q 3438 0 2509 0 
L 353 0 
z
" transform="scale(0.015625)"/>
       <path id="DejaVuSerif-64" d="M 3359 331 
L 3909 331 
L 3909 0 
L 2784 0 
L 2784 519 
Q 2616 206 2355 57 
Q 2094 -91 1709 -91 
Q 1097 -91 708 395 
Q 319 881 319 1663 
Q 319 2444 706 2928 
Q 1094 3413 1709 3413 
Q 2094 3413 2355 3264 
Q 2616 3116 2784 2803 
L 2784 4531 
L 2241 4531 
L 2241 4863 
L 3359 4863 
L 3359 331 
z
M 2784 1497 
L 2784 1825 
Q 2784 2422 2554 2737 
Q 2325 3053 1888 3053 
Q 1444 3053 1217 2703 
Q 991 2353 991 1663 
Q 991 975 1217 622 
Q 1444 269 1888 269 
Q 2325 269 2554 583 
Q 2784 897 2784 1497 
z
" transform="scale(0.015625)"/>
       <path id="DejaVuSerif-44" d="M 1581 331 
L 2163 331 
Q 3072 331 3558 850 
Q 4044 1369 4044 2338 
Q 4044 3306 3559 3818 
Q 3075 4331 2163 4331 
L 1581 4331 
L 1581 331 
z
M 353 0 
L 353 331 
L 947 331 
L 947 4331 
L 353 4331 
L 353 4666 
L 2209 4666 
Q 3416 4666 4089 4050 
Q 4763 3434 4763 2338 
Q 4763 1238 4088 619 
Q 3413 0 2209 0 
L 353 0 
z
" transform="scale(0.015625)"/>
       <path id="DejaVuSerif-62" d="M 738 331 
L 738 4531 
L 184 4531 
L 184 4863 
L 1313 4863 
L 1313 2803 
Q 1481 3116 1742 3264 
Q 2003 3413 2388 3413 
Q 3000 3413 3387 2928 
Q 3775 2444 3775 1663 
Q 3775 881 3387 395 
Q 3000 -91 2388 -91 
Q 2003 -91 1742 57 
Q 1481 206 1313 519 
L 1313 0 
L 184 0 
L 184 331 
L 738 331 
z
M 1313 1497 
Q 1313 897 1542 583 
Q 1772 269 2209 269 
Q 2650 269 2876 622 
Q 3103 975 3103 1663 
Q 3103 2353 2876 2703 
Q 2650 3053 2209 3053 
Q 1772 3053 1542 2737 
Q 1313 2422 1313 1825 
L 1313 1497 
z
" transform="scale(0.015625)"/>
      </defs>
      <use xlink:href="#DejaVuSerif-42"/>
      <use xlink:href="#DejaVuSerif-61" transform="translate(73.486328 0)"/>
      <use xlink:href="#DejaVuSerif-6e" transform="translate(133.105469 0)"/>
      <use xlink:href="#DejaVuSerif-64" transform="translate(197.509766 0)"/>
      <use xlink:href="#DejaVuSerif-20" transform="translate(261.523438 0)"/>
      <use xlink:href="#DejaVuSerif-44" transform="translate(293.310547 0)"/>
      <use xlink:href="#DejaVuSerif-62" transform="translate(373.486328 0)"/>
     </g>
    </g>
   </g>
   <g id="patch_5">
    <path d="M 67.663622 298.30219 
L 112.438733 298.30219 
L 112.438733 248.761091 
L 67.663622 248.761091 
L 67.663622 298.30219 
z
" clip-path="url(#p207189194c)" style="fill: #6a80d1; stroke: #545454; stroke-linejoin: miter"/>
   </g>
   <g id="line2d_15">
    <path d="M 90.051177 298.30219 
L 90.051177 369.369458 
" clip-path="url(#p207189194c)" style="fill: none; stroke: #545454"/>
   </g>
   <g id="line2d_16">
    <path d="M 90.051177 248.761091 
L 90.051177 177.627524 
" clip-path="url(#p207189194c)" style="fill: none; stroke: #545454"/>
   </g>
   <g id="line2d_17">
    <path d="M 78.857399 369.369458 
L 101.244955 369.369458 
" clip-path="url(#p207189194c)" style="fill: none; stroke: #545454; stroke-linecap: square"/>
   </g>
   <g id="line2d_18">
    <path d="M 78.857399 177.627524 
L 101.244955 177.627524 
" clip-path="url(#p207189194c)" style="fill: none; stroke: #545454; stroke-linecap: square"/>
   </g>
   <g id="line2d_19">
    <defs>
     <path id="mfd96a7c4b6" d="M 0 3 
C 0.795609 3 1.55874 2.683901 2.12132 2.12132 
C 2.683901 1.55874 3 0.795609 3 0 
C 3 -0.795609 2.683901 -1.55874 2.12132 -2.12132 
C 1.55874 -2.683901 0.795609 -3 0 -3 
C -0.795609 -3 -1.55874 -2.683901 -2.12132 -2.12132 
C -2.683901 -1.55874 -3 -0.795609 -3 0 
C -3 0.795609 -2.683901 1.55874 -2.12132 2.12132 
C -1.55874 2.683901 -0.795609 3 0 3 
z
" style="stroke: #545454"/>
    </defs>
    <g clip-path="url(#p207189194c)">
     <use xlink:href="#mfd96a7c4b6" x="90.051177" y="376.383358" style="fill-opacity: 0; stroke: #545454"/>
     <use xlink:href="#mfd96a7c4b6" x="90.051177" y="165.120726" style="fill-opacity: 0; stroke: #545454"/>
     <use xlink:href="#mfd96a7c4b6" x="90.051177" y="166.232305" style="fill-opacity: 0; stroke: #545454"/>
    </g>
   </g>
   <g id="patch_6">
    <path d="M 179.601399 291.920369 
L 224.37651 291.920369 
L 224.37651 233.448444 
L 179.601399 233.448444 
L 179.601399 291.920369 
z
" clip-path="url(#p207189194c)" style="fill: #6a80d1; stroke: #545454; stroke-linejoin: miter"/>
   </g>
   <g id="line2d_20">
    <path d="M 201.988955 291.920369 
L 201.988955 371.100409 
" clip-path="url(#p207189194c)" style="fill: none; stroke: #545454"/>
   </g>
   <g id="line2d_21">
    <path d="M 201.988955 233.448444 
L 201.988955 147.268722 
" clip-path="url(#p207189194c)" style="fill: none; stroke: #545454"/>
   </g>
   <g id="line2d_22">
    <path d="M 190.795177 371.100409 
L 213.182733 371.100409 
" clip-path="url(#p207189194c)" style="fill: none; stroke: #545454; stroke-linecap: square"/>
   </g>
   <g id="line2d_23">
    <path d="M 190.795177 147.268722 
L 213.182733 147.268722 
" clip-path="url(#p207189194c)" style="fill: none; stroke: #545454; stroke-linecap: square"/>
   </g>
   <g id="line2d_24">
    <g clip-path="url(#p207189194c)">
     <use xlink:href="#mfd96a7c4b6" x="201.988955" y="134.146914" style="fill-opacity: 0; stroke: #545454"/>
     <use xlink:href="#mfd96a7c4b6" x="201.988955" y="144.573012" style="fill-opacity: 0; stroke: #545454"/>
     <use xlink:href="#mfd96a7c4b6" x="201.988955" y="141.241415" style="fill-opacity: 0; stroke: #545454"/>
     <use xlink:href="#mfd96a7c4b6" x="201.988955" y="131.950035" style="fill-opacity: 0; stroke: #545454"/>
    </g>
   </g>
   <g id="patch_7">
    <path d="M 291.539177 290.907576 
L 336.314288 290.907576 
L 336.314288 226.503948 
L 291.539177 226.503948 
L 291.539177 290.907576 
z
" clip-path="url(#p207189194c)" style="fill: #6a80d1; stroke: #545454; stroke-linejoin: miter"/>
   </g>
   <g id="line2d_25">
    <path d="M 313.926733 290.907576 
L 313.926733 383.67185 
" clip-path="url(#p207189194c)" style="fill: none; stroke: #545454"/>
   </g>
   <g id="line2d_26">
    <path d="M 313.926733 226.503948 
L 313.926733 133.539065 
" clip-path="url(#p207189194c)" style="fill: none; stroke: #545454"/>
   </g>
   <g id="line2d_27">
    <path d="M 302.732955 383.67185 
L 325.12051 383.67185 
" clip-path="url(#p207189194c)" style="fill: none; stroke: #545454; stroke-linecap: square"/>
   </g>
   <g id="line2d_28">
    <path d="M 302.732955 133.539065 
L 325.12051 133.539065 
" clip-path="url(#p207189194c)" style="fill: none; stroke: #545454; stroke-linecap: square"/>
   </g>
   <g id="line2d_29">
    <g clip-path="url(#p207189194c)">
     <use xlink:href="#mfd96a7c4b6" x="313.926733" y="125.751733" style="fill-opacity: 0; stroke: #545454"/>
     <use xlink:href="#mfd96a7c4b6" x="313.926733" y="129.273117" style="fill-opacity: 0; stroke: #545454"/>
     <use xlink:href="#mfd96a7c4b6" x="313.926733" y="124.89152" style="fill-opacity: 0; stroke: #545454"/>
     <use xlink:href="#mfd96a7c4b6" x="313.926733" y="109.830875" style="fill-opacity: 0; stroke: #545454"/>
    </g>
   </g>
   <g id="patch_8">
    <path d="M 403.476955 304.064531 
L 448.252066 304.064531 
L 448.252066 248.196888 
L 403.476955 248.196888 
L 403.476955 304.064531 
z
" clip-path="url(#p207189194c)" style="fill: #6a80d1; stroke: #545454; stroke-linejoin: miter"/>
   </g>
   <g id="line2d_30">
    <path d="M 425.86451 304.064531 
L 425.86451 385.354376 
" clip-path="url(#p207189194c)" style="fill: none; stroke: #545454"/>
   </g>
   <g id="line2d_31">
    <path d="M 425.86451 248.196888 
L 425.86451 167.011679 
" clip-path="url(#p207189194c)" style="fill: none; stroke: #545454"/>
   </g>
   <g id="line2d_32">
    <path d="M 414.670733 385.354376 
L 437.058288 385.354376 
" clip-path="url(#p207189194c)" style="fill: none; stroke: #545454; stroke-linecap: square"/>
   </g>
   <g id="line2d_33">
    <path d="M 414.670733 167.011679 
L 437.058288 167.011679 
" clip-path="url(#p207189194c)" style="fill: none; stroke: #545454; stroke-linecap: square"/>
   </g>
   <g id="line2d_34">
    <g clip-path="url(#p207189194c)">
     <use xlink:href="#mfd96a7c4b6" x="425.86451" y="396.902332" style="fill-opacity: 0; stroke: #545454"/>
     <use xlink:href="#mfd96a7c4b6" x="425.86451" y="160.566417" style="fill-opacity: 0; stroke: #545454"/>
    </g>
   </g>
   <g id="patch_9">
    <path d="M 515.414733 307.999608 
L 560.189844 307.999608 
L 560.189844 256.094186 
L 515.414733 256.094186 
L 515.414733 307.999608 
z
" clip-path="url(#p207189194c)" style="fill: #6a80d1; stroke: #545454; stroke-linejoin: miter"/>
   </g>
   <g id="line2d_35">
    <path d="M 537.802288 307.999608 
L 537.802288 380.953868 
" clip-path="url(#p207189194c)" style="fill: none; stroke: #545454"/>
   </g>
   <g id="line2d_36">
    <path d="M 537.802288 256.094186 
L 537.802288 178.767569 
" clip-path="url(#p207189194c)" style="fill: none; stroke: #545454"/>
   </g>
   <g id="line2d_37">
    <path d="M 526.60851 380.953868 
L 548.996066 380.953868 
" clip-path="url(#p207189194c)" style="fill: none; stroke: #545454; stroke-linecap: square"/>
   </g>
   <g id="line2d_38">
    <path d="M 526.60851 178.767569 
L 548.996066 178.767569 
" clip-path="url(#p207189194c)" style="fill: none; stroke: #545454; stroke-linecap: square"/>
   </g>
   <g id="line2d_39">
    <g clip-path="url(#p207189194c)">
     <use xlink:href="#mfd96a7c4b6" x="537.802288" y="393.385378" style="fill-opacity: 0; stroke: #545454"/>
     <use xlink:href="#mfd96a7c4b6" x="537.802288" y="403.186361" style="fill-opacity: 0; stroke: #545454"/>
     <use xlink:href="#mfd96a7c4b6" x="537.802288" y="148.54881" style="fill-opacity: 0; stroke: #545454"/>
     <use xlink:href="#mfd96a7c4b6" x="537.802288" y="172.730279" style="fill-opacity: 0; stroke: #545454"/>
     <use xlink:href="#mfd96a7c4b6" x="537.802288" y="175.49423" style="fill-opacity: 0; stroke: #545454"/>
    </g>
   </g>
   <g id="patch_10">
    <path d="M 627.35251 268.359674 
L 672.127622 268.359674 
L 672.127622 207.593479 
L 627.35251 207.593479 
L 627.35251 268.359674 
z
" clip-path="url(#p207189194c)" style="fill: #6a80d1; stroke: #545454; stroke-linejoin: miter"/>
   </g>
   <g id="line2d_40">
    <path d="M 649.740066 268.359674 
L 649.740066 344.43238 
" clip-path="url(#p207189194c)" style="fill: none; stroke: #545454"/>
   </g>
   <g id="line2d_41">
    <path d="M 649.740066 207.593479 
L 649.740066 130.535525 
" clip-path="url(#p207189194c)" style="fill: none; stroke: #545454"/>
   </g>
   <g id="line2d_42">
    <path d="M 638.546288 344.43238 
L 660.933844 344.43238 
" clip-path="url(#p207189194c)" style="fill: none; stroke: #545454; stroke-linecap: square"/>
   </g>
   <g id="line2d_43">
    <path d="M 638.546288 130.535525 
L 660.933844 130.535525 
" clip-path="url(#p207189194c)" style="fill: none; stroke: #545454; stroke-linecap: square"/>
   </g>
   <g id="line2d_44">
    <g clip-path="url(#p207189194c)">
     <use xlink:href="#mfd96a7c4b6" x="649.740066" y="109.217758" style="fill-opacity: 0; stroke: #545454"/>
     <use xlink:href="#mfd96a7c4b6" x="649.740066" y="96.399808" style="fill-opacity: 0; stroke: #545454"/>
    </g>
   </g>
   <g id="patch_11">
    <path d="M 739.290288 292.794069 
L 784.065399 292.794069 
L 784.065399 236.312515 
L 739.290288 236.312515 
L 739.290288 292.794069 
z
" clip-path="url(#p207189194c)" style="fill: #6a80d1; stroke: #545454; stroke-linejoin: miter"/>
   </g>
   <g id="line2d_45">
    <path d="M 761.677844 292.794069 
L 761.677844 369.200501 
" clip-path="url(#p207189194c)" style="fill: none; stroke: #545454"/>
   </g>
   <g id="line2d_46">
    <path d="M 761.677844 236.312515 
L 761.677844 151.662822 
" clip-path="url(#p207189194c)" style="fill: none; stroke: #545454"/>
   </g>
   <g id="line2d_47">
    <path d="M 750.484066 369.200501 
L 772.871622 369.200501 
" clip-path="url(#p207189194c)" style="fill: none; stroke: #545454; stroke-linecap: square"/>
   </g>
   <g id="line2d_48">
    <path d="M 750.484066 151.662822 
L 772.871622 151.662822 
" clip-path="url(#p207189194c)" style="fill: none; stroke: #545454; stroke-linecap: square"/>
   </g>
   <g id="line2d_49">
    <g clip-path="url(#p207189194c)">
     <use xlink:href="#mfd96a7c4b6" x="761.677844" y="384.520365" style="fill-opacity: 0; stroke: #545454"/>
     <use xlink:href="#mfd96a7c4b6" x="761.677844" y="127.779192" style="fill-opacity: 0; stroke: #545454"/>
     <use xlink:href="#mfd96a7c4b6" x="761.677844" y="93.18111" style="fill-opacity: 0; stroke: #545454"/>
     <use xlink:href="#mfd96a7c4b6" x="761.677844" y="132.247045" style="fill-opacity: 0; stroke: #545454"/>
     <use xlink:href="#mfd96a7c4b6" x="761.677844" y="120.171173" style="fill-opacity: 0; stroke: #545454"/>
     <use xlink:href="#mfd96a7c4b6" x="761.677844" y="133.344882" style="fill-opacity: 0; stroke: #545454"/>
     <use xlink:href="#mfd96a7c4b6" x="761.677844" y="113.964148" style="fill-opacity: 0; stroke: #545454"/>
     <use xlink:href="#mfd96a7c4b6" x="761.677844" y="92.472503" style="fill-opacity: 0; stroke: #545454"/>
     <use xlink:href="#mfd96a7c4b6" x="761.677844" y="136.391062" style="fill-opacity: 0; stroke: #545454"/>
     <use xlink:href="#mfd96a7c4b6" x="761.677844" y="119.990973" style="fill-opacity: 0; stroke: #545454"/>
     <use xlink:href="#mfd96a7c4b6" x="761.677844" y="144.067428" style="fill-opacity: 0; stroke: #545454"/>
     <use xlink:href="#mfd96a7c4b6" x="761.677844" y="137.760354" style="fill-opacity: 0; stroke: #545454"/>
     <use xlink:href="#mfd96a7c4b6" x="761.677844" y="150.117077" style="fill-opacity: 0; stroke: #545454"/>
     <use xlink:href="#mfd96a7c4b6" x="761.677844" y="97.108199" style="fill-opacity: 0; stroke: #545454"/>
     <use xlink:href="#mfd96a7c4b6" x="761.677844" y="73.599846" style="fill-opacity: 0; stroke: #545454"/>
     <use xlink:href="#mfd96a7c4b6" x="761.677844" y="101.438922" style="fill-opacity: 0; stroke: #545454"/>
     <use xlink:href="#mfd96a7c4b6" x="761.677844" y="70.875331" style="fill-opacity: 0; stroke: #545454"/>
     <use xlink:href="#mfd96a7c4b6" x="761.677844" y="143.030225" style="fill-opacity: 0; stroke: #545454"/>
     <use xlink:href="#mfd96a7c4b6" x="761.677844" y="139.948587" style="fill-opacity: 0; stroke: #545454"/>
     <use xlink:href="#mfd96a7c4b6" x="761.677844" y="101.568941" style="fill-opacity: 0; stroke: #545454"/>
     <use xlink:href="#mfd96a7c4b6" x="761.677844" y="131.376756" style="fill-opacity: 0; stroke: #545454"/>
     <use xlink:href="#mfd96a7c4b6" x="761.677844" y="126.84134" style="fill-opacity: 0; stroke: #545454"/>
     <use xlink:href="#mfd96a7c4b6" x="761.677844" y="98.47979" style="fill-opacity: 0; stroke: #545454"/>
     <use xlink:href="#mfd96a7c4b6" x="761.677844" y="125.915119" style="fill-opacity: 0; stroke: #545454"/>
     <use xlink:href="#mfd96a7c4b6" x="761.677844" y="124.054896" style="fill-opacity: 0; stroke: #545454"/>
     <use xlink:href="#mfd96a7c4b6" x="761.677844" y="135.044013" style="fill-opacity: 0; stroke: #545454"/>
     <use xlink:href="#mfd96a7c4b6" x="761.677844" y="120.409188" style="fill-opacity: 0; stroke: #545454"/>
     <use xlink:href="#mfd96a7c4b6" x="761.677844" y="145.130072" style="fill-opacity: 0; stroke: #545454"/>
     <use xlink:href="#mfd96a7c4b6" x="761.677844" y="122.090684" style="fill-opacity: 0; stroke: #545454"/>
     <use xlink:href="#mfd96a7c4b6" x="761.677844" y="136.468293" style="fill-opacity: 0; stroke: #545454"/>
     <use xlink:href="#mfd96a7c4b6" x="761.677844" y="137.134599" style="fill-opacity: 0; stroke: #545454"/>
    </g>
   </g>
   <g id="patch_12">
    <path d="M 851.228066 277.484109 
L 896.003177 277.484109 
L 896.003177 226.246904 
L 851.228066 226.246904 
L 851.228066 277.484109 
z
" clip-path="url(#p207189194c)" style="fill: #6a80d1; stroke: #545454; stroke-linejoin: miter"/>
   </g>
   <g id="line2d_50">
    <path d="M 873.615622 277.484109 
L 873.615622 341.941807 
" clip-path="url(#p207189194c)" style="fill: none; stroke: #545454"/>
   </g>
   <g id="line2d_51">
    <path d="M 873.615622 226.246904 
L 873.615622 149.460811 
" clip-path="url(#p207189194c)" style="fill: none; stroke: #545454"/>
   </g>
   <g id="line2d_52">
    <path d="M 862.421844 341.941807 
L 884.809399 341.941807 
" clip-path="url(#p207189194c)" style="fill: none; stroke: #545454; stroke-linecap: square"/>
   </g>
   <g id="line2d_53">
    <path d="M 862.421844 149.460811 
L 884.809399 149.460811 
" clip-path="url(#p207189194c)" style="fill: none; stroke: #545454; stroke-linecap: square"/>
   </g>
   <g id="line2d_54">
    <g clip-path="url(#p207189194c)">
     <use xlink:href="#mfd96a7c4b6" x="873.615622" y="354.478092" style="fill-opacity: 0; stroke: #545454"/>
     <use xlink:href="#mfd96a7c4b6" x="873.615622" y="373.262396" style="fill-opacity: 0; stroke: #545454"/>
     <use xlink:href="#mfd96a7c4b6" x="873.615622" y="95.298651" style="fill-opacity: 0; stroke: #545454"/>
     <use xlink:href="#mfd96a7c4b6" x="873.615622" y="107.003674" style="fill-opacity: 0; stroke: #545454"/>
     <use xlink:href="#mfd96a7c4b6" x="873.615622" y="124.88546" style="fill-opacity: 0; stroke: #545454"/>
     <use xlink:href="#mfd96a7c4b6" x="873.615622" y="90.6451" style="fill-opacity: 0; stroke: #545454"/>
     <use xlink:href="#mfd96a7c4b6" x="873.615622" y="146.180043" style="fill-opacity: 0; stroke: #545454"/>
     <use xlink:href="#mfd96a7c4b6" x="873.615622" y="104.959488" style="fill-opacity: 0; stroke: #545454"/>
     <use xlink:href="#mfd96a7c4b6" x="873.615622" y="128.713477" style="fill-opacity: 0; stroke: #545454"/>
     <use xlink:href="#mfd96a7c4b6" x="873.615622" y="133.663479" style="fill-opacity: 0; stroke: #545454"/>
     <use xlink:href="#mfd96a7c4b6" x="873.615622" y="80.050779" style="fill-opacity: 0; stroke: #545454"/>
     <use xlink:href="#mfd96a7c4b6" x="873.615622" y="133.93934" style="fill-opacity: 0; stroke: #545454"/>
     <use xlink:href="#mfd96a7c4b6" x="873.615622" y="67.531273" style="fill-opacity: 0; stroke: #545454"/>
     <use xlink:href="#mfd96a7c4b6" x="873.615622" y="132.268759" style="fill-opacity: 0; stroke: #545454"/>
     <use xlink:href="#mfd96a7c4b6" x="873.615622" y="111.278768" style="fill-opacity: 0; stroke: #545454"/>
     <use xlink:href="#mfd96a7c4b6" x="873.615622" y="144.557781" style="fill-opacity: 0; stroke: #545454"/>
     <use xlink:href="#mfd96a7c4b6" x="873.615622" y="101.596667" style="fill-opacity: 0; stroke: #545454"/>
     <use xlink:href="#mfd96a7c4b6" x="873.615622" y="135.232004" style="fill-opacity: 0; stroke: #545454"/>
     <use xlink:href="#mfd96a7c4b6" x="873.615622" y="132.077242" style="fill-opacity: 0; stroke: #545454"/>
     <use xlink:href="#mfd96a7c4b6" x="873.615622" y="116.271748" style="fill-opacity: 0; stroke: #545454"/>
     <use xlink:href="#mfd96a7c4b6" x="873.615622" y="129.254787" style="fill-opacity: 0; stroke: #545454"/>
     <use xlink:href="#mfd96a7c4b6" x="873.615622" y="141.647973" style="fill-opacity: 0; stroke: #545454"/>
     <use xlink:href="#mfd96a7c4b6" x="873.615622" y="145.798892" style="fill-opacity: 0; stroke: #545454"/>
    </g>
   </g>
   <g id="patch_13">
    <path d="M 963.165844 290.637884 
L 1007.940955 290.637884 
L 1007.940955 244.84315 
L 963.165844 244.84315 
L 963.165844 290.637884 
z
" clip-path="url(#p207189194c)" style="fill: #6a80d1; stroke: #545454; stroke-linejoin: miter"/>
   </g>
   <g id="line2d_55">
    <path d="M 985.553399 290.637884 
L 985.553399 353.637452 
" clip-path="url(#p207189194c)" style="fill: none; stroke: #545454"/>
   </g>
   <g id="line2d_56">
    <path d="M 985.553399 244.84315 
L 985.553399 176.749992 
" clip-path="url(#p207189194c)" style="fill: none; stroke: #545454"/>
   </g>
   <g id="line2d_57">
    <path d="M 974.359622 353.637452 
L 996.747177 353.637452 
" clip-path="url(#p207189194c)" style="fill: none; stroke: #545454; stroke-linecap: square"/>
   </g>
   <g id="line2d_58">
    <path d="M 974.359622 176.749992 
L 996.747177 176.749992 
" clip-path="url(#p207189194c)" style="fill: none; stroke: #545454; stroke-linecap: square"/>
   </g>
   <g id="line2d_59">
    <g clip-path="url(#p207189194c)">
     <use xlink:href="#mfd96a7c4b6" x="985.553399" y="168.289464" style="fill-opacity: 0; stroke: #545454"/>
     <use xlink:href="#mfd96a7c4b6" x="985.553399" y="170.088383" style="fill-opacity: 0; stroke: #545454"/>
     <use xlink:href="#mfd96a7c4b6" x="985.553399" y="159.487196" style="fill-opacity: 0; stroke: #545454"/>
     <use xlink:href="#mfd96a7c4b6" x="985.553399" y="168.102874" style="fill-opacity: 0; stroke: #545454"/>
     <use xlink:href="#mfd96a7c4b6" x="985.553399" y="174.775429" style="fill-opacity: 0; stroke: #545454"/>
     <use xlink:href="#mfd96a7c4b6" x="985.553399" y="153.546957" style="fill-opacity: 0; stroke: #545454"/>
     <use xlink:href="#mfd96a7c4b6" x="985.553399" y="175.649302" style="fill-opacity: 0; stroke: #545454"/>
    </g>
   </g>
   <g id="patch_14">
    <path d="M 112.438733 274.230366 
L 157.213844 274.230366 
L 157.213844 218.788984 
L 112.438733 218.788984 
L 112.438733 274.230366 
z
" clip-path="url(#p207189194c)" style="fill: #c46156; stroke: #545454; stroke-linejoin: miter"/>
   </g>
   <g id="line2d_60">
    <path d="M 134.826288 274.230366 
L 134.826288 338.971903 
" clip-path="url(#p207189194c)" style="fill: none; stroke: #545454"/>
   </g>
   <g id="line2d_61">
    <path d="M 134.826288 218.788984 
L 134.826288 137.710645 
" clip-path="url(#p207189194c)" style="fill: none; stroke: #545454"/>
   </g>
   <g id="line2d_62">
    <path d="M 123.63251 338.971903 
L 146.020066 338.971903 
" clip-path="url(#p207189194c)" style="fill: none; stroke: #545454; stroke-linecap: square"/>
   </g>
   <g id="line2d_63">
    <path d="M 123.63251 137.710645 
L 146.020066 137.710645 
" clip-path="url(#p207189194c)" style="fill: none; stroke: #545454; stroke-linecap: square"/>
   </g>
   <g id="line2d_64">
    <g clip-path="url(#p207189194c)">
     <use xlink:href="#mfd96a7c4b6" x="134.826288" y="114.889316" style="fill-opacity: 0; stroke: #545454"/>
     <use xlink:href="#mfd96a7c4b6" x="134.826288" y="101.501678" style="fill-opacity: 0; stroke: #545454"/>
     <use xlink:href="#mfd96a7c4b6" x="134.826288" y="122.905095" style="fill-opacity: 0; stroke: #545454"/>
     <use xlink:href="#mfd96a7c4b6" x="134.826288" y="119.089389" style="fill-opacity: 0; stroke: #545454"/>
     <use xlink:href="#mfd96a7c4b6" x="134.826288" y="132.154785" style="fill-opacity: 0; stroke: #545454"/>
     <use xlink:href="#mfd96a7c4b6" x="134.826288" y="131.682661" style="fill-opacity: 0; stroke: #545454"/>
     <use xlink:href="#mfd96a7c4b6" x="134.826288" y="126.620099" style="fill-opacity: 0; stroke: #545454"/>
     <use xlink:href="#mfd96a7c4b6" x="134.826288" y="113.532881" style="fill-opacity: 0; stroke: #545454"/>
     <use xlink:href="#mfd96a7c4b6" x="134.826288" y="103.829554" style="fill-opacity: 0; stroke: #545454"/>
     <use xlink:href="#mfd96a7c4b6" x="134.826288" y="133.990476" style="fill-opacity: 0; stroke: #545454"/>
     <use xlink:href="#mfd96a7c4b6" x="134.826288" y="128.680451" style="fill-opacity: 0; stroke: #545454"/>
     <use xlink:href="#mfd96a7c4b6" x="134.826288" y="103.128129" style="fill-opacity: 0; stroke: #545454"/>
     <use xlink:href="#mfd96a7c4b6" x="134.826288" y="126.8976" style="fill-opacity: 0; stroke: #545454"/>
     <use xlink:href="#mfd96a7c4b6" x="134.826288" y="116.524297" style="fill-opacity: 0; stroke: #545454"/>
     <use xlink:href="#mfd96a7c4b6" x="134.826288" y="128.97882" style="fill-opacity: 0; stroke: #545454"/>
    </g>
   </g>
   <g id="patch_15">
    <path d="M 224.37651 269.72087 
L 269.151622 269.72087 
L 269.151622 207.889893 
L 224.37651 207.889893 
L 224.37651 269.72087 
z
" clip-path="url(#p207189194c)" style="fill: #c46156; stroke: #545454; stroke-linejoin: miter"/>
   </g>
   <g id="line2d_65">
    <path d="M 246.764066 269.72087 
L 246.764066 350.915552 
" clip-path="url(#p207189194c)" style="fill: none; stroke: #545454"/>
   </g>
   <g id="line2d_66">
    <path d="M 246.764066 207.889893 
L 246.764066 120.761707 
" clip-path="url(#p207189194c)" style="fill: none; stroke: #545454"/>
   </g>
   <g id="line2d_67">
    <path d="M 235.570288 350.915552 
L 257.957844 350.915552 
" clip-path="url(#p207189194c)" style="fill: none; stroke: #545454; stroke-linecap: square"/>
   </g>
   <g id="line2d_68">
    <path d="M 235.570288 120.761707 
L 257.957844 120.761707 
" clip-path="url(#p207189194c)" style="fill: none; stroke: #545454; stroke-linecap: square"/>
   </g>
   <g id="line2d_69">
    <g clip-path="url(#p207189194c)">
     <use xlink:href="#mfd96a7c4b6" x="246.764066" y="112.453515" style="fill-opacity: 0; stroke: #545454"/>
     <use xlink:href="#mfd96a7c4b6" x="246.764066" y="105.096315" style="fill-opacity: 0; stroke: #545454"/>
     <use xlink:href="#mfd96a7c4b6" x="246.764066" y="84.375494" style="fill-opacity: 0; stroke: #545454"/>
     <use xlink:href="#mfd96a7c4b6" x="246.764066" y="114.30851" style="fill-opacity: 0; stroke: #545454"/>
     <use xlink:href="#mfd96a7c4b6" x="246.764066" y="95.338147" style="fill-opacity: 0; stroke: #545454"/>
     <use xlink:href="#mfd96a7c4b6" x="246.764066" y="95.605848" style="fill-opacity: 0; stroke: #545454"/>
     <use xlink:href="#mfd96a7c4b6" x="246.764066" y="108.853913" style="fill-opacity: 0; stroke: #545454"/>
     <use xlink:href="#mfd96a7c4b6" x="246.764066" y="95.052125" style="fill-opacity: 0; stroke: #545454"/>
     <use xlink:href="#mfd96a7c4b6" x="246.764066" y="110.792577" style="fill-opacity: 0; stroke: #545454"/>
     <use xlink:href="#mfd96a7c4b6" x="246.764066" y="96.095022" style="fill-opacity: 0; stroke: #545454"/>
     <use xlink:href="#mfd96a7c4b6" x="246.764066" y="76.043184" style="fill-opacity: 0; stroke: #545454"/>
     <use xlink:href="#mfd96a7c4b6" x="246.764066" y="110.003235" style="fill-opacity: 0; stroke: #545454"/>
    </g>
   </g>
   <g id="patch_16">
    <path d="M 336.314288 271.063536 
L 381.089399 271.063536 
L 381.089399 197.24783 
L 336.314288 197.24783 
L 336.314288 271.063536 
z
" clip-path="url(#p207189194c)" style="fill: #c46156; stroke: #545454; stroke-linejoin: miter"/>
   </g>
   <g id="line2d_70">
    <path d="M 358.701844 271.063536 
L 358.701844 372.663198 
" clip-path="url(#p207189194c)" style="fill: none; stroke: #545454"/>
   </g>
   <g id="line2d_71">
    <path d="M 358.701844 197.24783 
L 358.701844 95.924007 
" clip-path="url(#p207189194c)" style="fill: none; stroke: #545454"/>
   </g>
   <g id="line2d_72">
    <path d="M 347.508066 372.663198 
L 369.895622 372.663198 
" clip-path="url(#p207189194c)" style="fill: none; stroke: #545454; stroke-linecap: square"/>
   </g>
   <g id="line2d_73">
    <path d="M 347.508066 95.924007 
L 369.895622 95.924007 
" clip-path="url(#p207189194c)" style="fill: none; stroke: #545454; stroke-linecap: square"/>
   </g>
   <g id="line2d_74">
    <g clip-path="url(#p207189194c)">
     <use xlink:href="#mfd96a7c4b6" x="358.701844" y="77.162043" style="fill-opacity: 0; stroke: #545454"/>
     <use xlink:href="#mfd96a7c4b6" x="358.701844" y="75.150938" style="fill-opacity: 0; stroke: #545454"/>
     <use xlink:href="#mfd96a7c4b6" x="358.701844" y="70.071516" style="fill-opacity: 0; stroke: #545454"/>
    </g>
   </g>
   <g id="patch_17">
    <path d="M 448.252066 279.497105 
L 493.027177 279.497105 
L 493.027177 206.659687 
L 448.252066 206.659687 
L 448.252066 279.497105 
z
" clip-path="url(#p207189194c)" style="fill: #c46156; stroke: #545454; stroke-linejoin: miter"/>
   </g>
   <g id="line2d_75">
    <path d="M 470.639622 279.497105 
L 470.639622 375.950712 
" clip-path="url(#p207189194c)" style="fill: none; stroke: #545454"/>
   </g>
   <g id="line2d_76">
    <path d="M 470.639622 206.659687 
L 470.639622 102.934882 
" clip-path="url(#p207189194c)" style="fill: none; stroke: #545454"/>
   </g>
   <g id="line2d_77">
    <path d="M 459.445844 375.950712 
L 481.833399 375.950712 
" clip-path="url(#p207189194c)" style="fill: none; stroke: #545454; stroke-linecap: square"/>
   </g>
   <g id="line2d_78">
    <path d="M 459.445844 102.934882 
L 481.833399 102.934882 
" clip-path="url(#p207189194c)" style="fill: none; stroke: #545454; stroke-linecap: square"/>
   </g>
   <g id="line2d_79">
    <g clip-path="url(#p207189194c)">
     <use xlink:href="#mfd96a7c4b6" x="470.639622" y="93.64283" style="fill-opacity: 0; stroke: #545454"/>
    </g>
   </g>
   <g id="patch_18">
    <path d="M 560.189844 281.383798 
L 604.964955 281.383798 
L 604.964955 215.534497 
L 560.189844 215.534497 
L 560.189844 281.383798 
z
" clip-path="url(#p207189194c)" style="fill: #c46156; stroke: #545454; stroke-linejoin: miter"/>
   </g>
   <g id="line2d_80">
    <path d="M 582.577399 281.383798 
L 582.577399 355.754665 
" clip-path="url(#p207189194c)" style="fill: none; stroke: #545454"/>
   </g>
   <g id="line2d_81">
    <path d="M 582.577399 215.534497 
L 582.577399 118.803498 
" clip-path="url(#p207189194c)" style="fill: none; stroke: #545454"/>
   </g>
   <g id="line2d_82">
    <path d="M 571.383622 355.754665 
L 593.771177 355.754665 
" clip-path="url(#p207189194c)" style="fill: none; stroke: #545454; stroke-linecap: square"/>
   </g>
   <g id="line2d_83">
    <path d="M 571.383622 118.803498 
L 593.771177 118.803498 
" clip-path="url(#p207189194c)" style="fill: none; stroke: #545454; stroke-linecap: square"/>
   </g>
   <g id="line2d_84">
    <g clip-path="url(#p207189194c)">
     <use xlink:href="#mfd96a7c4b6" x="582.577399" y="114.020759" style="fill-opacity: 0; stroke: #545454"/>
     <use xlink:href="#mfd96a7c4b6" x="582.577399" y="116.661236" style="fill-opacity: 0; stroke: #545454"/>
     <use xlink:href="#mfd96a7c4b6" x="582.577399" y="84.415533" style="fill-opacity: 0; stroke: #545454"/>
     <use xlink:href="#mfd96a7c4b6" x="582.577399" y="112.673741" style="fill-opacity: 0; stroke: #545454"/>
    </g>
   </g>
   <g id="patch_19">
    <path d="M 672.127622 245.837028 
L 716.902733 245.837028 
L 716.902733 179.990793 
L 672.127622 179.990793 
L 672.127622 245.837028 
z
" clip-path="url(#p207189194c)" style="fill: #c46156; stroke: #545454; stroke-linejoin: miter"/>
   </g>
   <g id="line2d_85">
    <path d="M 694.515177 245.837028 
L 694.515177 338.596793 
" clip-path="url(#p207189194c)" style="fill: none; stroke: #545454"/>
   </g>
   <g id="line2d_86">
    <path d="M 694.515177 179.990793 
L 694.515177 85.225122 
" clip-path="url(#p207189194c)" style="fill: none; stroke: #545454"/>
   </g>
   <g id="line2d_87">
    <path d="M 683.321399 338.596793 
L 705.708955 338.596793 
" clip-path="url(#p207189194c)" style="fill: none; stroke: #545454; stroke-linecap: square"/>
   </g>
   <g id="line2d_88">
    <path d="M 683.321399 85.225122 
L 705.708955 85.225122 
" clip-path="url(#p207189194c)" style="fill: none; stroke: #545454; stroke-linecap: square"/>
   </g>
   <g id="line2d_89">
    <g clip-path="url(#p207189194c)">
     <use xlink:href="#mfd96a7c4b6" x="694.515177" y="65.610174" style="fill-opacity: 0; stroke: #545454"/>
     <use xlink:href="#mfd96a7c4b6" x="694.515177" y="60.629351" style="fill-opacity: 0; stroke: #545454"/>
    </g>
   </g>
   <g id="patch_20">
    <path d="M 784.065399 266.787849 
L 828.84051 266.787849 
L 828.84051 203.397083 
L 784.065399 203.397083 
L 784.065399 266.787849 
z
" clip-path="url(#p207189194c)" style="fill: #c46156; stroke: #545454; stroke-linejoin: miter"/>
   </g>
   <g id="line2d_90">
    <path d="M 806.452955 266.787849 
L 806.452955 360.867555 
" clip-path="url(#p207189194c)" style="fill: none; stroke: #545454"/>
   </g>
   <g id="line2d_91">
    <path d="M 806.452955 203.397083 
L 806.452955 108.758562 
" clip-path="url(#p207189194c)" style="fill: none; stroke: #545454"/>
   </g>
   <g id="line2d_92">
    <path d="M 795.259177 360.867555 
L 817.646733 360.867555 
" clip-path="url(#p207189194c)" style="fill: none; stroke: #545454; stroke-linecap: square"/>
   </g>
   <g id="line2d_93">
    <path d="M 795.259177 108.758562 
L 817.646733 108.758562 
" clip-path="url(#p207189194c)" style="fill: none; stroke: #545454; stroke-linecap: square"/>
   </g>
   <g id="line2d_94">
    <g clip-path="url(#p207189194c)">
     <use xlink:href="#mfd96a7c4b6" x="806.452955" y="107.208233" style="fill-opacity: 0; stroke: #545454"/>
     <use xlink:href="#mfd96a7c4b6" x="806.452955" y="93.300473" style="fill-opacity: 0; stroke: #545454"/>
     <use xlink:href="#mfd96a7c4b6" x="806.452955" y="85.682497" style="fill-opacity: 0; stroke: #545454"/>
     <use xlink:href="#mfd96a7c4b6" x="806.452955" y="71.721187" style="fill-opacity: 0; stroke: #545454"/>
     <use xlink:href="#mfd96a7c4b6" x="806.452955" y="86.527428" style="fill-opacity: 0; stroke: #545454"/>
     <use xlink:href="#mfd96a7c4b6" x="806.452955" y="100.758641" style="fill-opacity: 0; stroke: #545454"/>
     <use xlink:href="#mfd96a7c4b6" x="806.452955" y="86.752775" style="fill-opacity: 0; stroke: #545454"/>
    </g>
   </g>
   <g id="patch_21">
    <path d="M 896.003177 246.333215 
L 940.778288 246.333215 
L 940.778288 194.907054 
L 896.003177 194.907054 
L 896.003177 246.333215 
z
" clip-path="url(#p207189194c)" style="fill: #c46156; stroke: #545454; stroke-linejoin: miter"/>
   </g>
   <g id="line2d_95">
    <path d="M 918.390733 246.333215 
L 918.390733 315.683702 
" clip-path="url(#p207189194c)" style="fill: none; stroke: #545454"/>
   </g>
   <g id="line2d_96">
    <path d="M 918.390733 194.907054 
L 918.390733 120.417313 
" clip-path="url(#p207189194c)" style="fill: none; stroke: #545454"/>
   </g>
   <g id="line2d_97">
    <path d="M 907.196955 315.683702 
L 929.58451 315.683702 
" clip-path="url(#p207189194c)" style="fill: none; stroke: #545454; stroke-linecap: square"/>
   </g>
   <g id="line2d_98">
    <path d="M 907.196955 120.417313 
L 929.58451 120.417313 
" clip-path="url(#p207189194c)" style="fill: none; stroke: #545454; stroke-linecap: square"/>
   </g>
   <g id="line2d_99">
    <g clip-path="url(#p207189194c)">
     <use xlink:href="#mfd96a7c4b6" x="918.390733" y="79.157514" style="fill-opacity: 0; stroke: #545454"/>
     <use xlink:href="#mfd96a7c4b6" x="918.390733" y="78.055153" style="fill-opacity: 0; stroke: #545454"/>
     <use xlink:href="#mfd96a7c4b6" x="918.390733" y="106.37334" style="fill-opacity: 0; stroke: #545454"/>
     <use xlink:href="#mfd96a7c4b6" x="918.390733" y="99.122319" style="fill-opacity: 0; stroke: #545454"/>
     <use xlink:href="#mfd96a7c4b6" x="918.390733" y="97.839009" style="fill-opacity: 0; stroke: #545454"/>
     <use xlink:href="#mfd96a7c4b6" x="918.390733" y="72.312398" style="fill-opacity: 0; stroke: #545454"/>
     <use xlink:href="#mfd96a7c4b6" x="918.390733" y="108.832456" style="fill-opacity: 0; stroke: #545454"/>
     <use xlink:href="#mfd96a7c4b6" x="918.390733" y="86.62418" style="fill-opacity: 0; stroke: #545454"/>
     <use xlink:href="#mfd96a7c4b6" x="918.390733" y="117.717376" style="fill-opacity: 0; stroke: #545454"/>
     <use xlink:href="#mfd96a7c4b6" x="918.390733" y="104.15957" style="fill-opacity: 0; stroke: #545454"/>
     <use xlink:href="#mfd96a7c4b6" x="918.390733" y="113.310873" style="fill-opacity: 0; stroke: #545454"/>
     <use xlink:href="#mfd96a7c4b6" x="918.390733" y="105.681836" style="fill-opacity: 0; stroke: #545454"/>
     <use xlink:href="#mfd96a7c4b6" x="918.390733" y="112.877939" style="fill-opacity: 0; stroke: #545454"/>
     <use xlink:href="#mfd96a7c4b6" x="918.390733" y="81.537981" style="fill-opacity: 0; stroke: #545454"/>
    </g>
   </g>
   <g id="patch_22">
    <path d="M 1007.940955 264.705069 
L 1052.716066 264.705069 
L 1052.716066 219.276417 
L 1007.940955 219.276417 
L 1007.940955 264.705069 
z
" clip-path="url(#p207189194c)" style="fill: #c46156; stroke: #545454; stroke-linejoin: miter"/>
   </g>
   <g id="line2d_100">
    <path d="M 1030.32851 264.705069 
L 1030.32851 316.844094 
" clip-path="url(#p207189194c)" style="fill: none; stroke: #545454"/>
   </g>
   <g id="line2d_101">
    <path d="M 1030.32851 219.276417 
L 1030.32851 154.478537 
" clip-path="url(#p207189194c)" style="fill: none; stroke: #545454"/>
   </g>
   <g id="line2d_102">
    <path d="M 1019.134733 316.844094 
L 1041.522288 316.844094 
" clip-path="url(#p207189194c)" style="fill: none; stroke: #545454; stroke-linecap: square"/>
   </g>
   <g id="line2d_103">
    <path d="M 1019.134733 154.478537 
L 1041.522288 154.478537 
" clip-path="url(#p207189194c)" style="fill: none; stroke: #545454; stroke-linecap: square"/>
   </g>
   <g id="line2d_104">
    <g clip-path="url(#p207189194c)">
     <use xlink:href="#mfd96a7c4b6" x="1030.32851" y="99.386876" style="fill-opacity: 0; stroke: #545454"/>
     <use xlink:href="#mfd96a7c4b6" x="1030.32851" y="131.344967" style="fill-opacity: 0; stroke: #545454"/>
     <use xlink:href="#mfd96a7c4b6" x="1030.32851" y="121.666322" style="fill-opacity: 0; stroke: #545454"/>
     <use xlink:href="#mfd96a7c4b6" x="1030.32851" y="134.249139" style="fill-opacity: 0; stroke: #545454"/>
     <use xlink:href="#mfd96a7c4b6" x="1030.32851" y="124.884386" style="fill-opacity: 0; stroke: #545454"/>
     <use xlink:href="#mfd96a7c4b6" x="1030.32851" y="138.123146" style="fill-opacity: 0; stroke: #545454"/>
    </g>
   </g>
   <g id="line2d_105">
    <path d="M 67.663622 273.867817 
L 112.438733 273.867817 
" clip-path="url(#p207189194c)" style="fill: none; stroke: #545454"/>
   </g>
   <g id="line2d_106">
    <path d="M 179.601399 263.030259 
L 224.37651 263.030259 
" clip-path="url(#p207189194c)" style="fill: none; stroke: #545454"/>
   </g>
   <g id="line2d_107">
    <path d="M 291.539177 261.777755 
L 336.314288 261.777755 
" clip-path="url(#p207189194c)" style="fill: none; stroke: #545454"/>
   </g>
   <g id="line2d_108">
    <path d="M 403.476955 275.79521 
L 448.252066 275.79521 
" clip-path="url(#p207189194c)" style="fill: none; stroke: #545454"/>
   </g>
   <g id="line2d_109">
    <path d="M 515.414733 281.461893 
L 560.189844 281.461893 
" clip-path="url(#p207189194c)" style="fill: none; stroke: #545454"/>
   </g>
   <g id="line2d_110">
    <path d="M 627.35251 238.641537 
L 672.127622 238.641537 
" clip-path="url(#p207189194c)" style="fill: none; stroke: #545454"/>
   </g>
   <g id="line2d_111">
    <path d="M 739.290288 265.52986 
L 784.065399 265.52986 
" clip-path="url(#p207189194c)" style="fill: none; stroke: #545454"/>
   </g>
   <g id="line2d_112">
    <path d="M 851.228066 252.840578 
L 896.003177 252.840578 
" clip-path="url(#p207189194c)" style="fill: none; stroke: #545454"/>
   </g>
   <g id="line2d_113">
    <path d="M 963.165844 267.384728 
L 1007.940955 267.384728 
" clip-path="url(#p207189194c)" style="fill: none; stroke: #545454"/>
   </g>
   <g id="line2d_114">
    <path d="M 112.438733 250.326545 
L 157.213844 250.326545 
" clip-path="url(#p207189194c)" style="fill: none; stroke: #545454"/>
   </g>
   <g id="line2d_115">
    <path d="M 224.37651 239.813937 
L 269.151622 239.813937 
" clip-path="url(#p207189194c)" style="fill: none; stroke: #545454"/>
   </g>
   <g id="line2d_116">
    <path d="M 336.314288 233.567829 
L 381.089399 233.567829 
" clip-path="url(#p207189194c)" style="fill: none; stroke: #545454"/>
   </g>
   <g id="line2d_117">
    <path d="M 448.252066 247.846347 
L 493.027177 247.846347 
" clip-path="url(#p207189194c)" style="fill: none; stroke: #545454"/>
   </g>
   <g id="line2d_118">
    <path d="M 560.189844 252.748571 
L 604.964955 252.748571 
" clip-path="url(#p207189194c)" style="fill: none; stroke: #545454"/>
   </g>
   <g id="line2d_119">
    <path d="M 672.127622 215.324467 
L 716.902733 215.324467 
" clip-path="url(#p207189194c)" style="fill: none; stroke: #545454"/>
   </g>
   <g id="line2d_120">
    <path d="M 784.065399 234.825829 
L 828.84051 234.825829 
" clip-path="url(#p207189194c)" style="fill: none; stroke: #545454"/>
   </g>
   <g id="line2d_121">
    <path d="M 896.003177 223.088534 
L 940.778288 223.088534 
" clip-path="url(#p207189194c)" style="fill: none; stroke: #545454"/>
   </g>
   <g id="line2d_122">
    <path d="M 1007.940955 242.552837 
L 1052.716066 242.552837 
" clip-path="url(#p207189194c)" style="fill: none; stroke: #545454"/>
   </g>
   <g id="patch_23">
    <path d="M 56.469844 420.314211 
L 56.469844 43.5015 
" style="fill: none; stroke: #333333; stroke-linejoin: miter; stroke-linecap: square"/>
   </g>
   <g id="patch_24">
    <path d="M 56.469844 420.314211 
L 1063.909844 420.314211 
" style="fill: none; stroke: #333333; stroke-linejoin: miter; stroke-linecap: square"/>
   </g>
   <g id="text_17">
    <!-- Band Db by Cortical Region and State -->
    <g transform="translate(405.626094 19.3575) scale(0.16 -0.16)">
     <defs>
      <path id="DejaVuSerif-79" d="M 1381 -609 
L 1600 -56 
L 359 2988 
L -19 2988 
L -19 3322 
L 1509 3322 
L 1509 2988 
L 978 2988 
L 1913 703 
L 2847 2988 
L 2350 2988 
L 2350 3322 
L 3597 3322 
L 3597 2988 
L 3225 2988 
L 1703 -750 
Q 1547 -1138 1356 -1280 
Q 1166 -1422 819 -1422 
Q 672 -1422 517 -1397 
Q 363 -1372 206 -1325 
L 206 -691 
L 500 -691 
Q 519 -903 608 -995 
Q 697 -1088 884 -1088 
Q 1056 -1088 1161 -992 
Q 1266 -897 1381 -609 
z
" transform="scale(0.015625)"/>
      <path id="DejaVuSerif-53" d="M 594 225 
L 594 1288 
L 953 1284 
Q 969 753 1261 498 
Q 1553 244 2150 244 
Q 2706 244 2998 464 
Q 3291 684 3291 1106 
Q 3291 1444 3114 1625 
Q 2938 1806 2369 1978 
L 1753 2163 
Q 1084 2366 811 2669 
Q 538 2972 538 3500 
Q 538 4094 959 4422 
Q 1381 4750 2144 4750 
Q 2469 4750 2856 4679 
Q 3244 4609 3681 4475 
L 3681 3481 
L 3328 3481 
Q 3275 3975 2998 4195 
Q 2722 4416 2156 4416 
Q 1663 4416 1405 4214 
Q 1147 4013 1147 3628 
Q 1147 3294 1340 3103 
Q 1534 2913 2163 2725 
L 2741 2553 
Q 3375 2363 3645 2067 
Q 3916 1772 3916 1275 
Q 3916 597 3481 253 
Q 3047 -91 2188 -91 
Q 1803 -91 1404 -12 
Q 1006 66 594 225 
z
" transform="scale(0.015625)"/>
     </defs>
     <use xlink:href="#DejaVuSerif-42"/>
     <use xlink:href="#DejaVuSerif-61" transform="translate(73.486328 0)"/>
     <use xlink:href="#DejaVuSerif-6e" transform="translate(133.105469 0)"/>
     <use xlink:href="#DejaVuSerif-64" transform="translate(197.509766 0)"/>
     <use xlink:href="#DejaVuSerif-20" transform="translate(261.523438 0)"/>
     <use xlink:href="#DejaVuSerif-44" transform="translate(293.310547 0)"/>
     <use xlink:href="#DejaVuSerif-62" transform="translate(373.486328 0)"/>
     <use xlink:href="#DejaVuSerif-20" transform="translate(437.5 0)"/>
     <use xlink:href="#DejaVuSerif-62" transform="translate(469.287109 0)"/>
     <use xlink:href="#DejaVuSerif-79" transform="translate(533.300781 0)"/>
     <use xlink:href="#DejaVuSerif-20" transform="translate(589.794922 0)"/>
     <use xlink:href="#DejaVuSerif-43" transform="translate(621.582031 0)"/>
     <use xlink:href="#DejaVuSerif-6f" transform="translate(698.095703 0)"/>
     <use xlink:href="#DejaVuSerif-72" transform="translate(758.300781 0)"/>
     <use xlink:href="#DejaVuSerif-74" transform="translate(806.103516 0)"/>
     <use xlink:href="#DejaVuSerif-69" transform="translate(846.289062 0)"/>
     <use xlink:href="#DejaVuSerif-63" transform="translate(878.271484 0)"/>
     <use xlink:href="#DejaVuSerif-61" transform="translate(934.277344 0)"/>
     <use xlink:href="#DejaVuSerif-6c" transform="translate(993.896484 0)"/>
     <use xlink:href="#DejaVuSerif-20" transform="translate(1025.878906 0)"/>
     <use xlink:href="#DejaVuSerif-52" transform="translate(1057.666016 0)"/>
     <use xlink:href="#DejaVuSerif-65" transform="translate(1132.958984 0)"/>
     <use xlink:href="#DejaVuSerif-67" transform="translate(1192.138672 0)"/>
     <use xlink:href="#DejaVuSerif-69" transform="translate(1256.152344 0)"/>
     <use xlink:href="#DejaVuSerif-6f" transform="translate(1288.134766 0)"/>
     <use xlink:href="#DejaVuSerif-6e" transform="translate(1348.339844 0)"/>
     <use xlink:href="#DejaVuSerif-20" transform="translate(1412.744141 0)"/>
     <use xlink:href="#DejaVuSerif-61" transform="translate(1444.53125 0)"/>
     <use xlink:href="#DejaVuSerif-6e" transform="translate(1504.150391 0)"/>
     <use xlink:href="#DejaVuSerif-64" transform="translate(1568.554688 0)"/>
     <use xlink:href="#DejaVuSerif-20" transform="translate(1632.568359 0)"/>
     <use xlink:href="#DejaVuSerif-53" transform="translate(1664.355469 0)"/>
     <use xlink:href="#DejaVuSerif-74" transform="translate(1732.861328 0)"/>
     <use xlink:href="#DejaVuSerif-61" transform="translate(1773.046875 0)"/>
     <use xlink:href="#DejaVuSerif-74" transform="translate(1832.666016 0)"/>
     <use xlink:href="#DejaVuSerif-65" transform="translate(1872.851562 0)"/>
    </g>
    <!-- Dataset: braboszcz2017 - Subject Session: 043_1 -->
    <g transform="translate(361.156094 37.5015) scale(0.16 -0.16)">
     <defs>
      <path id="DejaVuSerif-73" d="M 359 184 
L 359 959 
L 691 959 
Q 703 588 923 403 
Q 1144 219 1575 219 
Q 1963 219 2166 364 
Q 2369 509 2369 788 
Q 2369 1006 2220 1140 
Q 2072 1275 1594 1428 
L 1178 1569 
Q 750 1706 558 1912 
Q 366 2119 366 2438 
Q 366 2894 700 3153 
Q 1034 3413 1625 3413 
Q 1888 3413 2178 3344 
Q 2469 3275 2778 3144 
L 2778 2419 
L 2447 2419 
Q 2434 2741 2221 2922 
Q 2009 3103 1644 3103 
Q 1281 3103 1095 2975 
Q 909 2847 909 2591 
Q 909 2381 1050 2254 
Q 1191 2128 1613 1997 
L 2069 1856 
Q 2541 1709 2748 1489 
Q 2956 1269 2956 922 
Q 2956 450 2595 179 
Q 2234 -91 1600 -91 
Q 1278 -91 972 -22 
Q 666 47 359 184 
z
" transform="scale(0.015625)"/>
      <path id="DejaVuSerif-3a" d="M 666 325 
Q 666 500 786 622 
Q 906 744 1081 744 
Q 1256 744 1376 622 
Q 1497 500 1497 325 
Q 1497 150 1378 29 
Q 1259 -91 1081 -91 
Q 903 -91 784 29 
Q 666 150 666 325 
z
M 666 2363 
Q 666 2538 786 2658 
Q 906 2778 1081 2778 
Q 1259 2778 1378 2659 
Q 1497 2541 1497 2363 
Q 1497 2184 1378 2065 
Q 1259 1947 1081 1947 
Q 906 1947 786 2067 
Q 666 2188 666 2363 
z
" transform="scale(0.015625)"/>
      <path id="DejaVuSerif-7a" d="M 256 0 
L 256 269 
L 2338 2988 
L 691 2988 
L 691 2413 
L 359 2413 
L 359 3322 
L 3078 3322 
L 3078 3053 
L 997 331 
L 2803 331 
L 2803 934 
L 3138 934 
L 3138 0 
L 256 0 
z
" transform="scale(0.015625)"/>
      <path id="DejaVuSerif-37" d="M 3609 4347 
L 1784 0 
L 1319 0 
L 3059 4153 
L 903 4153 
L 903 3578 
L 538 3578 
L 538 4666 
L 3609 4666 
L 3609 4347 
z
" transform="scale(0.015625)"/>
      <path id="DejaVuSerif-2d" d="M 281 1959 
L 1881 1959 
L 1881 1472 
L 281 1472 
L 281 1959 
z
" transform="scale(0.015625)"/>
      <path id="DejaVuSerif-75" d="M 2266 3322 
L 3341 3322 
L 3341 331 
L 3884 331 
L 3884 0 
L 2766 0 
L 2766 588 
Q 2606 256 2353 82 
Q 2100 -91 1766 -91 
Q 1213 -91 952 223 
Q 691 538 691 1209 
L 691 2988 
L 172 2988 
L 172 3322 
L 1269 3322 
L 1269 1388 
Q 1269 781 1417 556 
Q 1566 331 1947 331 
Q 2347 331 2556 625 
Q 2766 919 2766 1478 
L 2766 2988 
L 2266 2988 
L 2266 3322 
z
" transform="scale(0.015625)"/>
      <path id="DejaVuSerif-6a" d="M 641 4353 
Q 641 4497 745 4603 
Q 850 4709 997 4709 
Q 1141 4709 1245 4603 
Q 1350 4497 1350 4353 
Q 1350 4206 1248 4103 
Q 1147 4000 997 4000 
Q 850 4000 745 4103 
Q 641 4206 641 4353 
z
M 781 2988 
L 238 2988 
L 238 3322 
L 1356 3322 
L 1356 -325 
Q 1356 -838 1051 -1130 
Q 747 -1422 213 -1422 
Q -13 -1422 -217 -1370 
Q -422 -1319 -616 -1216 
L -616 -531 
L -319 -531 
Q -297 -831 -164 -972 
Q -31 -1113 225 -1113 
Q 509 -1113 645 -920 
Q 781 -728 781 -325 
L 781 2988 
z
" transform="scale(0.015625)"/>
      <path id="DejaVuSerif-34" d="M 2234 1581 
L 2234 4063 
L 641 1581 
L 2234 1581 
z
M 3609 0 
L 1484 0 
L 1484 331 
L 2234 331 
L 2234 1247 
L 197 1247 
L 197 1588 
L 2241 4750 
L 2859 4750 
L 2859 1581 
L 3750 1581 
L 3750 1247 
L 2859 1247 
L 2859 331 
L 3609 331 
L 3609 0 
z
" transform="scale(0.015625)"/>
      <path id="DejaVuSerif-5f" d="M 3200 -1259 
L 3200 -1509 
L 0 -1509 
L 0 -1259 
L 3200 -1259 
z
" transform="scale(0.015625)"/>
     </defs>
     <use xlink:href="#DejaVuSerif-44"/>
     <use xlink:href="#DejaVuSerif-61" transform="translate(80.175781 0)"/>
     <use xlink:href="#DejaVuSerif-74" transform="translate(139.794922 0)"/>
     <use xlink:href="#DejaVuSerif-61" transform="translate(179.980469 0)"/>
     <use xlink:href="#DejaVuSerif-73" transform="translate(239.599609 0)"/>
     <use xlink:href="#DejaVuSerif-65" transform="translate(290.917969 0)"/>
     <use xlink:href="#DejaVuSerif-74" transform="translate(350.097656 0)"/>
     <use xlink:href="#DejaVuSerif-3a" transform="translate(390.283203 0)"/>
     <use xlink:href="#DejaVuSerif-20" transform="translate(423.974609 0)"/>
     <use xlink:href="#DejaVuSerif-62" transform="translate(455.761719 0)"/>
     <use xlink:href="#DejaVuSerif-72" transform="translate(519.775391 0)"/>
     <use xlink:href="#DejaVuSerif-61" transform="translate(567.578125 0)"/>
     <use xlink:href="#DejaVuSerif-62" transform="translate(627.197266 0)"/>
     <use xlink:href="#DejaVuSerif-6f" transform="translate(691.210938 0)"/>
     <use xlink:href="#DejaVuSerif-73" transform="translate(751.416016 0)"/>
     <use xlink:href="#DejaVuSerif-7a" transform="translate(802.734375 0)"/>
     <use xlink:href="#DejaVuSerif-63" transform="translate(855.419922 0)"/>
     <use xlink:href="#DejaVuSerif-7a" transform="translate(911.425781 0)"/>
     <use xlink:href="#DejaVuSerif-32" transform="translate(964.111328 0)"/>
     <use xlink:href="#DejaVuSerif-30" transform="translate(1027.734375 0)"/>
     <use xlink:href="#DejaVuSerif-31" transform="translate(1091.357422 0)"/>
     <use xlink:href="#DejaVuSerif-37" transform="translate(1154.980469 0)"/>
     <use xlink:href="#DejaVuSerif-20" transform="translate(1218.603516 0)"/>
     <use xlink:href="#DejaVuSerif-2d" transform="translate(1250.390625 0)"/>
     <use xlink:href="#DejaVuSerif-20" transform="translate(1284.179688 0)"/>
     <use xlink:href="#DejaVuSerif-53" transform="translate(1315.966797 0)"/>
     <use xlink:href="#DejaVuSerif-75" transform="translate(1384.472656 0)"/>
     <use xlink:href="#DejaVuSerif-62" transform="translate(1448.876953 0)"/>
     <use xlink:href="#DejaVuSerif-6a" transform="translate(1512.890625 0)"/>
     <use xlink:href="#DejaVuSerif-65" transform="translate(1543.896484 0)"/>
     <use xlink:href="#DejaVuSerif-63" transform="translate(1603.076172 0)"/>
     <use xlink:href="#DejaVuSerif-74" transform="translate(1659.082031 0)"/>
     <use xlink:href="#DejaVuSerif-20" transform="translate(1699.267578 0)"/>
     <use xlink:href="#DejaVuSerif-53" transform="translate(1731.054688 0)"/>
     <use xlink:href="#DejaVuSerif-65" transform="translate(1799.560547 0)"/>
     <use xlink:href="#DejaVuSerif-73" transform="translate(1858.740234 0)"/>
     <use xlink:href="#DejaVuSerif-73" transform="translate(1910.058594 0)"/>
     <use xlink:href="#DejaVuSerif-69" transform="translate(1961.376953 0)"/>
     <use xlink:href="#DejaVuSerif-6f" transform="translate(1993.359375 0)"/>
     <use xlink:href="#DejaVuSerif-6e" transform="translate(2053.564453 0)"/>
     <use xlink:href="#DejaVuSerif-3a" transform="translate(2117.96875 0)"/>
     <use xlink:href="#DejaVuSerif-20" transform="translate(2151.660156 0)"/>
     <use xlink:href="#DejaVuSerif-30" transform="translate(2183.447266 0)"/>
     <use xlink:href="#DejaVuSerif-34" transform="translate(2247.070312 0)"/>
     <use xlink:href="#DejaVuSerif-33" transform="translate(2310.693359 0)"/>
     <use xlink:href="#DejaVuSerif-5f" transform="translate(2374.316406 0)"/>
     <use xlink:href="#DejaVuSerif-31" transform="translate(2424.316406 0)"/>
    </g>
   </g>
   <g id="legend_1">
    <g id="text_18">
     <!-- State -->
     <g transform="translate(968.652656 371.241867) scale(0.13 -0.13)">
      <use xlink:href="#DejaVuSerif-53"/>
      <use xlink:href="#DejaVuSerif-74" transform="translate(68.505859 0)"/>
      <use xlink:href="#DejaVuSerif-61" transform="translate(108.691406 0)"/>
      <use xlink:href="#DejaVuSerif-74" transform="translate(168.310547 0)"/>
      <use xlink:href="#DejaVuSerif-65" transform="translate(208.496094 0)"/>
     </g>
    </g>
    <g id="patch_25">
     <path d="M 918.994844 389.063586 
L 942.994844 389.063586 
L 942.994844 380.663586 
L 918.994844 380.663586 
z
" style="fill: #6a80d1; stroke: #545454; stroke-linejoin: miter"/>
    </g>
    <g id="text_19">
     <!-- On-target -->
     <g transform="translate(952.594844 389.063586) scale(0.12 -0.12)">
      <defs>
       <path id="DejaVuSerif-4f" d="M 2625 244 
Q 3391 244 3781 770 
Q 4172 1297 4172 2328 
Q 4172 3363 3781 3889 
Q 3391 4416 2625 4416 
Q 1856 4416 1465 3889 
Q 1075 3363 1075 2328 
Q 1075 1297 1465 770 
Q 1856 244 2625 244 
z
M 2625 -91 
Q 2150 -91 1751 65 
Q 1353 222 1050 525 
Q 700 875 529 1319 
Q 359 1763 359 2328 
Q 359 2894 529 3339 
Q 700 3784 1050 4134 
Q 1356 4441 1750 4595 
Q 2144 4750 2625 4750 
Q 3641 4750 4266 4084 
Q 4891 3419 4891 2328 
Q 4891 1769 4719 1320 
Q 4547 872 4197 525 
Q 3891 219 3497 64 
Q 3103 -91 2625 -91 
z
" transform="scale(0.015625)"/>
      </defs>
      <use xlink:href="#DejaVuSerif-4f"/>
      <use xlink:href="#DejaVuSerif-6e" transform="translate(81.982422 0)"/>
      <use xlink:href="#DejaVuSerif-2d" transform="translate(146.386719 0)"/>
      <use xlink:href="#DejaVuSerif-74" transform="translate(180.175781 0)"/>
      <use xlink:href="#DejaVuSerif-61" transform="translate(220.361328 0)"/>
      <use xlink:href="#DejaVuSerif-72" transform="translate(279.980469 0)"/>
      <use xlink:href="#DejaVuSerif-67" transform="translate(327.783203 0)"/>
      <use xlink:href="#DejaVuSerif-65" transform="translate(391.796875 0)"/>
      <use xlink:href="#DejaVuSerif-74" transform="translate(450.976562 0)"/>
     </g>
    </g>
    <g id="patch_26">
     <path d="M 918.994844 406.847961 
L 942.994844 406.847961 
L 942.994844 398.447961 
L 918.994844 398.447961 
z
" style="fill: #c46156; stroke: #545454; stroke-linejoin: miter"/>
    </g>
    <g id="text_20">
     <!-- Mind-wandering -->
     <g transform="translate(952.594844 406.847961) scale(0.12 -0.12)">
      <defs>
       <path id="DejaVuSerif-4d" d="M 353 0 
L 353 331 
L 947 331 
L 947 4331 
L 319 4331 
L 319 4666 
L 1678 4666 
L 3316 1344 
L 4953 4666 
L 6228 4666 
L 6228 4331 
L 5606 4331 
L 5606 331 
L 6203 331 
L 6203 0 
L 4378 0 
L 4378 331 
L 4972 331 
L 4972 3938 
L 3372 684 
L 2931 684 
L 1331 3938 
L 1331 331 
L 1925 331 
L 1925 0 
L 353 0 
z
" transform="scale(0.015625)"/>
       <path id="DejaVuSerif-77" d="M 3072 3322 
L 3922 728 
L 4672 2988 
L 4191 2988 
L 4191 3322 
L 5394 3322 
L 5394 2988 
L 5025 2988 
L 4038 0 
L 3559 0 
L 2741 2484 
L 1919 0 
L 1459 0 
L 475 2988 
L 103 2988 
L 103 3322 
L 1606 3322 
L 1606 2988 
L 1069 2988 
L 1813 728 
L 2669 3322 
L 3072 3322 
z
" transform="scale(0.015625)"/>
      </defs>
      <use xlink:href="#DejaVuSerif-4d"/>
      <use xlink:href="#DejaVuSerif-69" transform="translate(102.392578 0)"/>
      <use xlink:href="#DejaVuSerif-6e" transform="translate(134.375 0)"/>
      <use xlink:href="#DejaVuSerif-64" transform="translate(198.779297 0)"/>
      <use xlink:href="#DejaVuSerif-2d" transform="translate(262.792969 0)"/>
      <use xlink:href="#DejaVuSerif-77" transform="translate(296.582031 0)"/>
      <use xlink:href="#DejaVuSerif-61" transform="translate(382.177734 0)"/>
      <use xlink:href="#DejaVuSerif-6e" transform="translate(441.796875 0)"/>
      <use xlink:href="#DejaVuSerif-64" transform="translate(506.201172 0)"/>
      <use xlink:href="#DejaVuSerif-65" transform="translate(570.214844 0)"/>
      <use xlink:href="#DejaVuSerif-72" transform="translate(629.394531 0)"/>
      <use xlink:href="#DejaVuSerif-69" transform="translate(677.197266 0)"/>
      <use xlink:href="#DejaVuSerif-6e" transform="translate(709.179688 0)"/>
      <use xlink:href="#DejaVuSerif-67" transform="translate(773.583984 0)"/>
     </g>
    </g>
   </g>
  </g>
 </g>
 <defs>
  <clipPath id="p207189194c">
   <rect x="56.469844" y="43.5015" width="1007.44" height="376.812711"/>
  </clipPath>
 </defs>
</svg>
