<?xml version="1.0" encoding="utf-8" standalone="no"?>
<!DOCTYPE svg PUBLIC "-//W3C//DTD SVG 1.1//EN"
  "http://www.w3.org/Graphics/SVG/1.1/DTD/svg11.dtd">
<svg xmlns:xlink="http://www.w3.org/1999/xlink" width="1071.146406pt" height="509.014265pt" viewBox="0 0 1071.146406 509.014265" xmlns="http://www.w3.org/2000/svg" version="1.1">
 <metadata>
  <rdf:RDF xmlns:dc="http://purl.org/dc/elements/1.1/" xmlns:cc="http://creativecommons.org/ns#" xmlns:rdf="http://www.w3.org/1999/02/22-rdf-syntax-ns#">
   <cc:Work>
    <dc:type rdf:resource="http://purl.org/dc/dcmitype/StillImage"/>
    <dc:date>2025-05-30T22:59:17.044824</dc:date>
    <dc:format>image/svg+xml</dc:format>
    <dc:creator>
     <cc:Agent>
      <dc:title>Matplotlib v3.10.3, https://matplotlib.org/</dc:title>
     </cc:Agent>
    </dc:creator>
   </cc:Work>
  </rdf:RDF>
 </metadata>
 <defs>
  <style type="text/css">*{stroke-linejoin: round; stroke-linecap: butt}</style>
 </defs>
 <g id="figure_1">
  <g id="patch_1">
   <path d="M 0 509.014265 
L 1071.146406 509.014265 
L 1071.146406 0 
L 0 0 
z
" style="fill: #ffffff"/>
  </g>
  <g id="axes_1">
   <g id="patch_2">
    <path d="M 65.056406 420.314211 
L 1063.946406 420.314211 
L 1063.946406 43.5015 
L 65.056406 43.5015 
z
" style="fill: #ffffff"/>
   </g>
   <g id="patch_3">
    <path d="M 120.550295 -1665.279008 
L 120.550295 -1665.279008 
L 120.550295 -1665.279008 
L 120.550295 -1665.279008 
z
" clip-path="url(#p52362dbbac)" style="fill: #6a80d1; stroke: #545454; stroke-linejoin: miter"/>
   </g>
   <g id="patch_4">
    <path d="M 120.550295 -1665.279008 
L 120.550295 -1665.279008 
L 120.550295 -1665.279008 
L 120.550295 -1665.279008 
z
" clip-path="url(#p52362dbbac)" style="fill: #c46156; stroke: #545454; stroke-linejoin: miter"/>
   </g>
   <g id="matplotlib.axis_1">
    <g id="xtick_1">
     <g id="line2d_1">
      <defs>
       <path id="ma9c2402315" d="M 0 0 
L 0 3.5 
" style="stroke: #333333; stroke-width: 0.8"/>
      </defs>
      <g>
       <use xlink:href="#ma9c2402315" x="120.550295" y="420.314211" style="fill: #333333; stroke: #333333; stroke-width: 0.8"/>
      </g>
     </g>
     <g id="text_1">
      <!-- prefrontal -->
      <g style="fill: #333333" transform="translate(86.629388 464.747229) rotate(-45) scale(0.09 -0.09)">
       <defs>
        <path id="DejaVuSerif-70" d="M 1313 1825 
L 1313 1497 
Q 1313 897 1542 583 
Q 1772 269 2209 269 
Q 2650 269 2876 622 
Q 3103 975 3103 1663 
Q 3103 2353 2876 2703 
Q 2650 3053 2209 3053 
Q 1772 3053 1542 2737 
Q 1313 2422 1313 1825 
z
M 738 2988 
L 184 2988 
L 184 3322 
L 1313 3322 
L 1313 2803 
Q 1481 3116 1742 3264 
Q 2003 3413 2388 3413 
Q 3000 3413 3387 2928 
Q 3775 2444 3775 1663 
Q 3775 881 3387 395 
Q 3000 -91 2388 -91 
Q 2003 -91 1742 57 
Q 1481 206 1313 519 
L 1313 -997 
L 1856 -997 
L 1856 -1331 
L 184 -1331 
L 184 -997 
L 738 -997 
L 738 2988 
z
" transform="scale(0.015625)"/>
        <path id="DejaVuSerif-72" d="M 3059 3328 
L 3059 2497 
L 2728 2497 
Q 2713 2744 2591 2866 
Q 2469 2988 2234 2988 
Q 1809 2988 1582 2694 
Q 1356 2400 1356 1850 
L 1356 331 
L 2022 331 
L 2022 0 
L 263 0 
L 263 331 
L 781 331 
L 781 2994 
L 231 2994 
L 231 3322 
L 1356 3322 
L 1356 2731 
Q 1525 3078 1790 3245 
Q 2056 3413 2438 3413 
Q 2578 3413 2733 3391 
Q 2888 3369 3059 3328 
z
" transform="scale(0.015625)"/>
        <path id="DejaVuSerif-65" d="M 3469 1600 
L 991 1600 
L 991 1575 
Q 991 903 1244 561 
Q 1497 219 1991 219 
Q 2369 219 2611 417 
Q 2853 616 2950 1006 
L 3413 1006 
Q 3275 459 2904 184 
Q 2534 -91 1931 -91 
Q 1203 -91 761 389 
Q 319 869 319 1663 
Q 319 2450 753 2931 
Q 1188 3413 1894 3413 
Q 2647 3413 3050 2948 
Q 3453 2484 3469 1600 
z
M 2791 1931 
Q 2772 2513 2545 2808 
Q 2319 3103 1894 3103 
Q 1497 3103 1269 2806 
Q 1041 2509 991 1931 
L 2791 1931 
z
" transform="scale(0.015625)"/>
        <path id="DejaVuSerif-66" d="M 2753 4078 
L 2450 4078 
Q 2447 4313 2317 4434 
Q 2188 4556 1941 4556 
Q 1619 4556 1487 4379 
Q 1356 4203 1356 3750 
L 1356 3322 
L 2284 3322 
L 2284 2988 
L 1356 2988 
L 1356 331 
L 2094 331 
L 2094 0 
L 231 0 
L 231 331 
L 781 331 
L 781 2988 
L 231 2988 
L 231 3322 
L 781 3322 
L 781 3738 
Q 781 4294 1070 4578 
Q 1359 4863 1919 4863 
Q 2128 4863 2337 4825 
Q 2547 4788 2753 4709 
L 2753 4078 
z
" transform="scale(0.015625)"/>
        <path id="DejaVuSerif-6f" d="M 1925 219 
Q 2388 219 2623 584 
Q 2859 950 2859 1663 
Q 2859 2375 2623 2739 
Q 2388 3103 1925 3103 
Q 1463 3103 1227 2739 
Q 991 2375 991 1663 
Q 991 950 1228 584 
Q 1466 219 1925 219 
z
M 1925 -91 
Q 1200 -91 759 389 
Q 319 869 319 1663 
Q 319 2456 758 2934 
Q 1197 3413 1925 3413 
Q 2653 3413 3092 2934 
Q 3531 2456 3531 1663 
Q 3531 869 3092 389 
Q 2653 -91 1925 -91 
z
" transform="scale(0.015625)"/>
        <path id="DejaVuSerif-6e" d="M 263 0 
L 263 331 
L 781 331 
L 781 2988 
L 231 2988 
L 231 3322 
L 1356 3322 
L 1356 2731 
Q 1516 3069 1770 3241 
Q 2025 3413 2363 3413 
Q 2913 3413 3172 3097 
Q 3431 2781 3431 2113 
L 3431 331 
L 3944 331 
L 3944 0 
L 2356 0 
L 2356 331 
L 2853 331 
L 2853 1931 
Q 2853 2541 2703 2767 
Q 2553 2994 2175 2994 
Q 1775 2994 1565 2701 
Q 1356 2409 1356 1850 
L 1356 331 
L 1856 331 
L 1856 0 
L 263 0 
z
" transform="scale(0.015625)"/>
        <path id="DejaVuSerif-74" d="M 691 2988 
L 184 2988 
L 184 3322 
L 691 3322 
L 691 4353 
L 1269 4353 
L 1269 3322 
L 2350 3322 
L 2350 2988 
L 1269 2988 
L 1269 878 
Q 1269 456 1350 337 
Q 1431 219 1650 219 
Q 1875 219 1978 351 
Q 2081 484 2088 781 
L 2522 781 
Q 2497 328 2275 118 
Q 2053 -91 1600 -91 
Q 1103 -91 897 129 
Q 691 350 691 878 
L 691 2988 
z
" transform="scale(0.015625)"/>
        <path id="DejaVuSerif-61" d="M 2547 1044 
L 2547 1747 
L 1806 1747 
Q 1378 1747 1168 1562 
Q 959 1378 959 997 
Q 959 650 1171 447 
Q 1384 244 1747 244 
Q 2106 244 2326 466 
Q 2547 688 2547 1044 
z
M 3122 2075 
L 3122 331 
L 3634 331 
L 3634 0 
L 2547 0 
L 2547 359 
Q 2356 128 2106 18 
Q 1856 -91 1522 -91 
Q 969 -91 644 203 
Q 319 497 319 997 
Q 319 1513 691 1797 
Q 1063 2081 1741 2081 
L 2547 2081 
L 2547 2309 
Q 2547 2688 2317 2895 
Q 2088 3103 1672 3103 
Q 1328 3103 1125 2947 
Q 922 2791 872 2484 
L 575 2484 
L 575 3156 
Q 875 3284 1158 3348 
Q 1441 3413 1709 3413 
Q 2400 3413 2761 3070 
Q 3122 2728 3122 2075 
z
" transform="scale(0.015625)"/>
        <path id="DejaVuSerif-6c" d="M 1313 331 
L 1856 331 
L 1856 0 
L 184 0 
L 184 331 
L 738 331 
L 738 4531 
L 184 4531 
L 184 4863 
L 1313 4863 
L 1313 331 
z
" transform="scale(0.015625)"/>
       </defs>
       <use xlink:href="#DejaVuSerif-70"/>
       <use xlink:href="#DejaVuSerif-72" transform="translate(64.013672 0)"/>
       <use xlink:href="#DejaVuSerif-65" transform="translate(111.816406 0)"/>
       <use xlink:href="#DejaVuSerif-66" transform="translate(170.996094 0)"/>
       <use xlink:href="#DejaVuSerif-72" transform="translate(208.007812 0)"/>
       <use xlink:href="#DejaVuSerif-6f" transform="translate(255.810547 0)"/>
       <use xlink:href="#DejaVuSerif-6e" transform="translate(316.015625 0)"/>
       <use xlink:href="#DejaVuSerif-74" transform="translate(380.419922 0)"/>
       <use xlink:href="#DejaVuSerif-61" transform="translate(420.605469 0)"/>
       <use xlink:href="#DejaVuSerif-6c" transform="translate(480.224609 0)"/>
      </g>
     </g>
    </g>
    <g id="xtick_2">
     <g id="line2d_2">
      <g>
       <use xlink:href="#ma9c2402315" x="231.538073" y="420.314211" style="fill: #333333; stroke: #333333; stroke-width: 0.8"/>
      </g>
     </g>
     <g id="text_2">
      <!-- frontal -->
      <g style="fill: #333333" transform="translate(208.49954 453.864855) rotate(-45) scale(0.09 -0.09)">
       <use xlink:href="#DejaVuSerif-66"/>
       <use xlink:href="#DejaVuSerif-72" transform="translate(37.011719 0)"/>
       <use xlink:href="#DejaVuSerif-6f" transform="translate(84.814453 0)"/>
       <use xlink:href="#DejaVuSerif-6e" transform="translate(145.019531 0)"/>
       <use xlink:href="#DejaVuSerif-74" transform="translate(209.423828 0)"/>
       <use xlink:href="#DejaVuSerif-61" transform="translate(249.609375 0)"/>
       <use xlink:href="#DejaVuSerif-6c" transform="translate(309.228516 0)"/>
      </g>
     </g>
    </g>
    <g id="xtick_3">
     <g id="line2d_3">
      <g>
       <use xlink:href="#ma9c2402315" x="342.525851" y="420.314211" style="fill: #333333; stroke: #333333; stroke-width: 0.8"/>
      </g>
     </g>
     <g id="text_3">
      <!-- frontocentral -->
      <g style="fill: #333333" transform="translate(298.627446 474.724726) rotate(-45) scale(0.09 -0.09)">
       <defs>
        <path id="DejaVuSerif-63" d="M 3291 997 
Q 3169 466 2822 187 
Q 2475 -91 1925 -91 
Q 1200 -91 759 389 
Q 319 869 319 1663 
Q 319 2459 759 2936 
Q 1200 3413 1925 3413 
Q 2241 3413 2553 3339 
Q 2866 3266 3181 3116 
L 3181 2266 
L 2847 2266 
Q 2781 2703 2561 2903 
Q 2341 3103 1931 3103 
Q 1466 3103 1228 2742 
Q 991 2381 991 1663 
Q 991 944 1227 581 
Q 1463 219 1931 219 
Q 2303 219 2525 412 
Q 2747 606 2828 997 
L 3291 997 
z
" transform="scale(0.015625)"/>
       </defs>
       <use xlink:href="#DejaVuSerif-66"/>
       <use xlink:href="#DejaVuSerif-72" transform="translate(37.011719 0)"/>
       <use xlink:href="#DejaVuSerif-6f" transform="translate(84.814453 0)"/>
       <use xlink:href="#DejaVuSerif-6e" transform="translate(145.019531 0)"/>
       <use xlink:href="#DejaVuSerif-74" transform="translate(209.423828 0)"/>
       <use xlink:href="#DejaVuSerif-6f" transform="translate(249.609375 0)"/>
       <use xlink:href="#DejaVuSerif-63" transform="translate(309.814453 0)"/>
       <use xlink:href="#DejaVuSerif-65" transform="translate(365.820312 0)"/>
       <use xlink:href="#DejaVuSerif-6e" transform="translate(425 0)"/>
       <use xlink:href="#DejaVuSerif-74" transform="translate(489.404297 0)"/>
       <use xlink:href="#DejaVuSerif-72" transform="translate(529.589844 0)"/>
       <use xlink:href="#DejaVuSerif-61" transform="translate(577.392578 0)"/>
       <use xlink:href="#DejaVuSerif-6c" transform="translate(637.011719 0)"/>
      </g>
     </g>
    </g>
    <g id="xtick_4">
     <g id="line2d_4">
      <g>
       <use xlink:href="#ma9c2402315" x="453.513628" y="420.314211" style="fill: #333333; stroke: #333333; stroke-width: 0.8"/>
      </g>
     </g>
     <g id="text_4">
      <!-- central -->
      <g style="fill: #333333" transform="translate(429.331571 455.00838) rotate(-45) scale(0.09 -0.09)">
       <use xlink:href="#DejaVuSerif-63"/>
       <use xlink:href="#DejaVuSerif-65" transform="translate(56.005859 0)"/>
       <use xlink:href="#DejaVuSerif-6e" transform="translate(115.185547 0)"/>
       <use xlink:href="#DejaVuSerif-74" transform="translate(179.589844 0)"/>
       <use xlink:href="#DejaVuSerif-72" transform="translate(219.775391 0)"/>
       <use xlink:href="#DejaVuSerif-61" transform="translate(267.578125 0)"/>
       <use xlink:href="#DejaVuSerif-6c" transform="translate(327.197266 0)"/>
      </g>
     </g>
    </g>
    <g id="xtick_5">
     <g id="line2d_5">
      <g>
       <use xlink:href="#ma9c2402315" x="564.501406" y="420.314211" style="fill: #333333; stroke: #333333; stroke-width: 0.8"/>
      </g>
     </g>
     <g id="text_5">
      <!-- centroparietal -->
      <g style="fill: #333333" transform="translate(517.21817 478.109558) rotate(-45) scale(0.09 -0.09)">
       <defs>
        <path id="DejaVuSerif-69" d="M 622 4353 
Q 622 4497 726 4603 
Q 831 4709 978 4709 
Q 1122 4709 1226 4603 
Q 1331 4497 1331 4353 
Q 1331 4206 1228 4103 
Q 1125 4000 978 4000 
Q 831 4000 726 4103 
Q 622 4206 622 4353 
z
M 1356 331 
L 1900 331 
L 1900 0 
L 231 0 
L 231 331 
L 781 331 
L 781 2988 
L 231 2988 
L 231 3322 
L 1356 3322 
L 1356 331 
z
" transform="scale(0.015625)"/>
       </defs>
       <use xlink:href="#DejaVuSerif-63"/>
       <use xlink:href="#DejaVuSerif-65" transform="translate(56.005859 0)"/>
       <use xlink:href="#DejaVuSerif-6e" transform="translate(115.185547 0)"/>
       <use xlink:href="#DejaVuSerif-74" transform="translate(179.589844 0)"/>
       <use xlink:href="#DejaVuSerif-72" transform="translate(219.775391 0)"/>
       <use xlink:href="#DejaVuSerif-6f" transform="translate(267.578125 0)"/>
       <use xlink:href="#DejaVuSerif-70" transform="translate(327.783203 0)"/>
       <use xlink:href="#DejaVuSerif-61" transform="translate(391.796875 0)"/>
       <use xlink:href="#DejaVuSerif-72" transform="translate(451.416016 0)"/>
       <use xlink:href="#DejaVuSerif-69" transform="translate(499.21875 0)"/>
       <use xlink:href="#DejaVuSerif-65" transform="translate(531.201172 0)"/>
       <use xlink:href="#DejaVuSerif-74" transform="translate(590.380859 0)"/>
       <use xlink:href="#DejaVuSerif-61" transform="translate(630.566406 0)"/>
       <use xlink:href="#DejaVuSerif-6c" transform="translate(690.185547 0)"/>
      </g>
     </g>
    </g>
    <g id="xtick_6">
     <g id="line2d_6">
      <g>
       <use xlink:href="#ma9c2402315" x="675.489184" y="420.314211" style="fill: #333333; stroke: #333333; stroke-width: 0.8"/>
      </g>
     </g>
     <g id="text_6">
      <!-- temporal -->
      <g style="fill: #333333" transform="translate(645.029676 461.285831) rotate(-45) scale(0.09 -0.09)">
       <defs>
        <path id="DejaVuSerif-6d" d="M 3316 2675 
Q 3481 3041 3739 3227 
Q 3997 3413 4341 3413 
Q 4863 3413 5119 3089 
Q 5375 2766 5375 2113 
L 5375 331 
L 5894 331 
L 5894 0 
L 4300 0 
L 4300 331 
L 4800 331 
L 4800 2047 
Q 4800 2556 4650 2772 
Q 4500 2988 4153 2988 
Q 3769 2988 3567 2697 
Q 3366 2406 3366 1850 
L 3366 331 
L 3866 331 
L 3866 0 
L 2291 0 
L 2291 331 
L 2791 331 
L 2791 2069 
Q 2791 2566 2641 2777 
Q 2491 2988 2144 2988 
Q 1759 2988 1557 2697 
Q 1356 2406 1356 1850 
L 1356 331 
L 1856 331 
L 1856 0 
L 263 0 
L 263 331 
L 781 331 
L 781 2994 
L 231 2994 
L 231 3322 
L 1356 3322 
L 1356 2731 
Q 1516 3063 1762 3238 
Q 2009 3413 2322 3413 
Q 2709 3413 2968 3220 
Q 3228 3028 3316 2675 
z
" transform="scale(0.015625)"/>
       </defs>
       <use xlink:href="#DejaVuSerif-74"/>
       <use xlink:href="#DejaVuSerif-65" transform="translate(40.185547 0)"/>
       <use xlink:href="#DejaVuSerif-6d" transform="translate(99.365234 0)"/>
       <use xlink:href="#DejaVuSerif-70" transform="translate(194.189453 0)"/>
       <use xlink:href="#DejaVuSerif-6f" transform="translate(258.203125 0)"/>
       <use xlink:href="#DejaVuSerif-72" transform="translate(318.408203 0)"/>
       <use xlink:href="#DejaVuSerif-61" transform="translate(366.210938 0)"/>
       <use xlink:href="#DejaVuSerif-6c" transform="translate(425.830078 0)"/>
      </g>
     </g>
    </g>
    <g id="xtick_7">
     <g id="line2d_7">
      <g>
       <use xlink:href="#ma9c2402315" x="786.476962" y="420.314211" style="fill: #333333; stroke: #333333; stroke-width: 0.8"/>
      </g>
     </g>
     <g id="text_7">
      <!-- parietal -->
      <g style="fill: #333333" transform="translate(760.053597 457.249687) rotate(-45) scale(0.09 -0.09)">
       <use xlink:href="#DejaVuSerif-70"/>
       <use xlink:href="#DejaVuSerif-61" transform="translate(64.013672 0)"/>
       <use xlink:href="#DejaVuSerif-72" transform="translate(123.632812 0)"/>
       <use xlink:href="#DejaVuSerif-69" transform="translate(171.435547 0)"/>
       <use xlink:href="#DejaVuSerif-65" transform="translate(203.417969 0)"/>
       <use xlink:href="#DejaVuSerif-74" transform="translate(262.597656 0)"/>
       <use xlink:href="#DejaVuSerif-61" transform="translate(302.783203 0)"/>
       <use xlink:href="#DejaVuSerif-6c" transform="translate(362.402344 0)"/>
      </g>
     </g>
    </g>
    <g id="xtick_8">
     <g id="line2d_8">
      <g>
       <use xlink:href="#ma9c2402315" x="897.46474" y="420.314211" style="fill: #333333; stroke: #333333; stroke-width: 0.8"/>
      </g>
     </g>
     <g id="text_8">
      <!-- parietooccipital -->
      <g style="fill: #333333" transform="translate(845.548739 482.742323) rotate(-45) scale(0.09 -0.09)">
       <use xlink:href="#DejaVuSerif-70"/>
       <use xlink:href="#DejaVuSerif-61" transform="translate(64.013672 0)"/>
       <use xlink:href="#DejaVuSerif-72" transform="translate(123.632812 0)"/>
       <use xlink:href="#DejaVuSerif-69" transform="translate(171.435547 0)"/>
       <use xlink:href="#DejaVuSerif-65" transform="translate(203.417969 0)"/>
       <use xlink:href="#DejaVuSerif-74" transform="translate(262.597656 0)"/>
       <use xlink:href="#DejaVuSerif-6f" transform="translate(302.783203 0)"/>
       <use xlink:href="#DejaVuSerif-6f" transform="translate(362.988281 0)"/>
       <use xlink:href="#DejaVuSerif-63" transform="translate(423.193359 0)"/>
       <use xlink:href="#DejaVuSerif-63" transform="translate(479.199219 0)"/>
       <use xlink:href="#DejaVuSerif-69" transform="translate(535.205078 0)"/>
       <use xlink:href="#DejaVuSerif-70" transform="translate(567.1875 0)"/>
       <use xlink:href="#DejaVuSerif-69" transform="translate(631.201172 0)"/>
       <use xlink:href="#DejaVuSerif-74" transform="translate(663.183594 0)"/>
       <use xlink:href="#DejaVuSerif-61" transform="translate(703.369141 0)"/>
       <use xlink:href="#DejaVuSerif-6c" transform="translate(762.988281 0)"/>
      </g>
     </g>
    </g>
    <g id="xtick_9">
     <g id="line2d_9">
      <g>
       <use xlink:href="#ma9c2402315" x="1008.452517" y="420.314211" style="fill: #333333; stroke: #333333; stroke-width: 0.8"/>
      </g>
     </g>
     <g id="text_9">
      <!-- occipital -->
      <g style="fill: #333333" transform="translate(979.637695 459.641144) rotate(-45) scale(0.09 -0.09)">
       <use xlink:href="#DejaVuSerif-6f"/>
       <use xlink:href="#DejaVuSerif-63" transform="translate(60.205078 0)"/>
       <use xlink:href="#DejaVuSerif-63" transform="translate(116.210938 0)"/>
       <use xlink:href="#DejaVuSerif-69" transform="translate(172.216797 0)"/>
       <use xlink:href="#DejaVuSerif-70" transform="translate(204.199219 0)"/>
       <use xlink:href="#DejaVuSerif-69" transform="translate(268.212891 0)"/>
       <use xlink:href="#DejaVuSerif-74" transform="translate(300.195312 0)"/>
       <use xlink:href="#DejaVuSerif-61" transform="translate(340.380859 0)"/>
       <use xlink:href="#DejaVuSerif-6c" transform="translate(400 0)"/>
      </g>
     </g>
    </g>
    <g id="text_10">
     <!-- Cortical Region -->
     <g transform="translate(509.119375 498.70364) scale(0.14 -0.14)">
      <defs>
       <path id="DejaVuSerif-43" d="M 4513 1234 
Q 4306 581 3820 245 
Q 3334 -91 2591 -91 
Q 2134 -91 1743 65 
Q 1353 222 1050 525 
Q 700 875 529 1320 
Q 359 1766 359 2328 
Q 359 3416 987 4083 
Q 1616 4750 2644 4750 
Q 3025 4750 3456 4650 
Q 3888 4550 4384 4347 
L 4384 3272 
L 4031 3272 
Q 3916 3859 3567 4137 
Q 3219 4416 2591 4416 
Q 1844 4416 1459 3886 
Q 1075 3356 1075 2328 
Q 1075 1303 1459 773 
Q 1844 244 2591 244 
Q 3113 244 3450 492 
Q 3788 741 3938 1234 
L 4513 1234 
z
" transform="scale(0.015625)"/>
       <path id="DejaVuSerif-20" transform="scale(0.015625)"/>
       <path id="DejaVuSerif-52" d="M 3066 2316 
Q 3284 2256 3442 2114 
Q 3600 1972 3725 1716 
L 4403 331 
L 4972 331 
L 4972 0 
L 3872 0 
L 3144 1484 
Q 2934 1916 2759 2042 
Q 2584 2169 2278 2169 
L 1581 2169 
L 1581 331 
L 2241 331 
L 2241 0 
L 353 0 
L 353 331 
L 947 331 
L 947 4331 
L 353 4331 
L 353 4666 
L 2719 4666 
Q 3400 4666 3770 4341 
Q 4141 4016 4141 3419 
Q 4141 2938 3870 2661 
Q 3600 2384 3066 2316 
z
M 1581 2503 
L 2503 2503 
Q 2975 2503 3200 2726 
Q 3425 2950 3425 3419 
Q 3425 3888 3200 4109 
Q 2975 4331 2503 4331 
L 1581 4331 
L 1581 2503 
z
" transform="scale(0.015625)"/>
       <path id="DejaVuSerif-67" d="M 3359 2988 
L 3359 72 
Q 3359 -644 2965 -1033 
Q 2572 -1422 1844 -1422 
Q 1516 -1422 1216 -1362 
Q 916 -1303 641 -1184 
L 641 -488 
L 941 -488 
Q 997 -813 1206 -963 
Q 1416 -1113 1806 -1113 
Q 2313 -1113 2548 -827 
Q 2784 -541 2784 72 
L 2784 519 
Q 2616 206 2355 57 
Q 2094 -91 1709 -91 
Q 1097 -91 708 395 
Q 319 881 319 1663 
Q 319 2444 706 2928 
Q 1094 3413 1709 3413 
Q 2094 3413 2355 3264 
Q 2616 3116 2784 2803 
L 2784 3322 
L 3909 3322 
L 3909 2988 
L 3359 2988 
z
M 2784 1825 
Q 2784 2422 2554 2737 
Q 2325 3053 1888 3053 
Q 1444 3053 1217 2703 
Q 991 2353 991 1663 
Q 991 975 1217 622 
Q 1444 269 1888 269 
Q 2325 269 2554 583 
Q 2784 897 2784 1497 
L 2784 1825 
z
" transform="scale(0.015625)"/>
      </defs>
      <use xlink:href="#DejaVuSerif-43"/>
      <use xlink:href="#DejaVuSerif-6f" transform="translate(76.513672 0)"/>
      <use xlink:href="#DejaVuSerif-72" transform="translate(136.71875 0)"/>
      <use xlink:href="#DejaVuSerif-74" transform="translate(184.521484 0)"/>
      <use xlink:href="#DejaVuSerif-69" transform="translate(224.707031 0)"/>
      <use xlink:href="#DejaVuSerif-63" transform="translate(256.689453 0)"/>
      <use xlink:href="#DejaVuSerif-61" transform="translate(312.695312 0)"/>
      <use xlink:href="#DejaVuSerif-6c" transform="translate(372.314453 0)"/>
      <use xlink:href="#DejaVuSerif-20" transform="translate(404.296875 0)"/>
      <use xlink:href="#DejaVuSerif-52" transform="translate(436.083984 0)"/>
      <use xlink:href="#DejaVuSerif-65" transform="translate(511.376953 0)"/>
      <use xlink:href="#DejaVuSerif-67" transform="translate(570.556641 0)"/>
      <use xlink:href="#DejaVuSerif-69" transform="translate(634.570312 0)"/>
      <use xlink:href="#DejaVuSerif-6f" transform="translate(666.552734 0)"/>
      <use xlink:href="#DejaVuSerif-6e" transform="translate(726.757812 0)"/>
     </g>
    </g>
   </g>
   <g id="matplotlib.axis_2">
    <g id="ytick_1">
     <g id="line2d_10">
      <defs>
       <path id="md99bb4b1ff" d="M 0 0 
L -3.5 0 
" style="stroke: #333333; stroke-width: 0.8"/>
      </defs>
      <g>
       <use xlink:href="#md99bb4b1ff" x="65.056406" y="379.84499" style="fill: #333333; stroke: #333333; stroke-width: 0.8"/>
      </g>
     </g>
     <g id="text_11">
      <!-- −115.0 -->
      <g style="fill: #333333" transform="translate(24.749375 383.264287) scale(0.09 -0.09)">
       <defs>
        <path id="DejaVuSerif-2212" d="M 678 2259 
L 4684 2259 
L 4684 1753 
L 678 1753 
L 678 2259 
z
" transform="scale(0.015625)"/>
        <path id="DejaVuSerif-31" d="M 909 0 
L 909 331 
L 1722 331 
L 1722 4213 
L 781 3603 
L 781 4013 
L 1919 4750 
L 2350 4750 
L 2350 331 
L 3163 331 
L 3163 0 
L 909 0 
z
" transform="scale(0.015625)"/>
        <path id="DejaVuSerif-35" d="M 3219 4666 
L 3219 4153 
L 1081 4153 
L 1081 2816 
Q 1244 2928 1461 2984 
Q 1678 3041 1947 3041 
Q 2703 3041 3140 2622 
Q 3578 2203 3578 1478 
Q 3578 738 3136 323 
Q 2694 -91 1894 -91 
Q 1572 -91 1234 -12 
Q 897 66 544 225 
L 544 1131 
L 897 1131 
Q 925 688 1179 453 
Q 1434 219 1894 219 
Q 2388 219 2653 544 
Q 2919 869 2919 1478 
Q 2919 2084 2655 2407 
Q 2391 2731 1894 2731 
Q 1613 2731 1398 2631 
Q 1184 2531 1019 2322 
L 750 2322 
L 750 4666 
L 3219 4666 
z
" transform="scale(0.015625)"/>
        <path id="DejaVuSerif-2e" d="M 603 325 
Q 603 500 722 622 
Q 841 744 1019 744 
Q 1191 744 1312 622 
Q 1434 500 1434 325 
Q 1434 153 1312 31 
Q 1191 -91 1019 -91 
Q 841 -91 722 29 
Q 603 150 603 325 
z
" transform="scale(0.015625)"/>
        <path id="DejaVuSerif-30" d="M 2034 219 
Q 2513 219 2750 744 
Q 2988 1269 2988 2328 
Q 2988 3391 2750 3916 
Q 2513 4441 2034 4441 
Q 1556 4441 1318 3916 
Q 1081 3391 1081 2328 
Q 1081 1269 1318 744 
Q 1556 219 2034 219 
z
M 2034 -91 
Q 1275 -91 848 546 
Q 422 1184 422 2328 
Q 422 3475 848 4112 
Q 1275 4750 2034 4750 
Q 2797 4750 3222 4112 
Q 3647 3475 3647 2328 
Q 3647 1184 3222 546 
Q 2797 -91 2034 -91 
z
" transform="scale(0.015625)"/>
       </defs>
       <use xlink:href="#DejaVuSerif-2212"/>
       <use xlink:href="#DejaVuSerif-31" transform="translate(83.789062 0)"/>
       <use xlink:href="#DejaVuSerif-31" transform="translate(147.412109 0)"/>
       <use xlink:href="#DejaVuSerif-35" transform="translate(211.035156 0)"/>
       <use xlink:href="#DejaVuSerif-2e" transform="translate(274.658203 0)"/>
       <use xlink:href="#DejaVuSerif-30" transform="translate(306.445312 0)"/>
      </g>
     </g>
    </g>
    <g id="ytick_2">
     <g id="line2d_11">
      <g>
       <use xlink:href="#md99bb4b1ff" x="65.056406" y="335.385773" style="fill: #333333; stroke: #333333; stroke-width: 0.8"/>
      </g>
     </g>
     <g id="text_12">
      <!-- −112.5 -->
      <g style="fill: #333333" transform="translate(24.749375 338.80507) scale(0.09 -0.09)">
       <defs>
        <path id="DejaVuSerif-32" d="M 819 3553 
L 469 3553 
L 469 4384 
Q 803 4563 1142 4656 
Q 1481 4750 1806 4750 
Q 2534 4750 2956 4397 
Q 3378 4044 3378 3438 
Q 3378 2753 2422 1800 
Q 2347 1728 2309 1691 
L 1131 513 
L 3078 513 
L 3078 1088 
L 3444 1088 
L 3444 0 
L 434 0 
L 434 341 
L 1850 1753 
Q 2319 2222 2519 2614 
Q 2719 3006 2719 3438 
Q 2719 3909 2473 4175 
Q 2228 4441 1797 4441 
Q 1350 4441 1106 4219 
Q 863 3997 819 3553 
z
" transform="scale(0.015625)"/>
       </defs>
       <use xlink:href="#DejaVuSerif-2212"/>
       <use xlink:href="#DejaVuSerif-31" transform="translate(83.789062 0)"/>
       <use xlink:href="#DejaVuSerif-31" transform="translate(147.412109 0)"/>
       <use xlink:href="#DejaVuSerif-32" transform="translate(211.035156 0)"/>
       <use xlink:href="#DejaVuSerif-2e" transform="translate(274.658203 0)"/>
       <use xlink:href="#DejaVuSerif-35" transform="translate(306.445312 0)"/>
      </g>
     </g>
    </g>
    <g id="ytick_3">
     <g id="line2d_12">
      <g>
       <use xlink:href="#md99bb4b1ff" x="65.056406" y="290.926555" style="fill: #333333; stroke: #333333; stroke-width: 0.8"/>
      </g>
     </g>
     <g id="text_13">
      <!-- −110.0 -->
      <g style="fill: #333333" transform="translate(24.749375 294.345852) scale(0.09 -0.09)">
       <use xlink:href="#DejaVuSerif-2212"/>
       <use xlink:href="#DejaVuSerif-31" transform="translate(83.789062 0)"/>
       <use xlink:href="#DejaVuSerif-31" transform="translate(147.412109 0)"/>
       <use xlink:href="#DejaVuSerif-30" transform="translate(211.035156 0)"/>
       <use xlink:href="#DejaVuSerif-2e" transform="translate(274.658203 0)"/>
       <use xlink:href="#DejaVuSerif-30" transform="translate(306.445312 0)"/>
      </g>
     </g>
    </g>
    <g id="ytick_4">
     <g id="line2d_13">
      <g>
       <use xlink:href="#md99bb4b1ff" x="65.056406" y="246.467338" style="fill: #333333; stroke: #333333; stroke-width: 0.8"/>
      </g>
     </g>
     <g id="text_14">
      <!-- −107.5 -->
      <g style="fill: #333333" transform="translate(24.749375 249.886635) scale(0.09 -0.09)">
       <defs>
        <path id="DejaVuSerif-37" d="M 3609 4347 
L 1784 0 
L 1319 0 
L 3059 4153 
L 903 4153 
L 903 3578 
L 538 3578 
L 538 4666 
L 3609 4666 
L 3609 4347 
z
" transform="scale(0.015625)"/>
       </defs>
       <use xlink:href="#DejaVuSerif-2212"/>
       <use xlink:href="#DejaVuSerif-31" transform="translate(83.789062 0)"/>
       <use xlink:href="#DejaVuSerif-30" transform="translate(147.412109 0)"/>
       <use xlink:href="#DejaVuSerif-37" transform="translate(211.035156 0)"/>
       <use xlink:href="#DejaVuSerif-2e" transform="translate(274.658203 0)"/>
       <use xlink:href="#DejaVuSerif-35" transform="translate(306.445312 0)"/>
      </g>
     </g>
    </g>
    <g id="ytick_5">
     <g id="line2d_14">
      <g>
       <use xlink:href="#md99bb4b1ff" x="65.056406" y="202.008121" style="fill: #333333; stroke: #333333; stroke-width: 0.8"/>
      </g>
     </g>
     <g id="text_15">
      <!-- −105.0 -->
      <g style="fill: #333333" transform="translate(24.749375 205.427418) scale(0.09 -0.09)">
       <use xlink:href="#DejaVuSerif-2212"/>
       <use xlink:href="#DejaVuSerif-31" transform="translate(83.789062 0)"/>
       <use xlink:href="#DejaVuSerif-30" transform="translate(147.412109 0)"/>
       <use xlink:href="#DejaVuSerif-35" transform="translate(211.035156 0)"/>
       <use xlink:href="#DejaVuSerif-2e" transform="translate(274.658203 0)"/>
       <use xlink:href="#DejaVuSerif-30" transform="translate(306.445312 0)"/>
      </g>
     </g>
    </g>
    <g id="ytick_6">
     <g id="line2d_15">
      <g>
       <use xlink:href="#md99bb4b1ff" x="65.056406" y="157.548903" style="fill: #333333; stroke: #333333; stroke-width: 0.8"/>
      </g>
     </g>
     <g id="text_16">
      <!-- −102.5 -->
      <g style="fill: #333333" transform="translate(24.749375 160.9682) scale(0.09 -0.09)">
       <use xlink:href="#DejaVuSerif-2212"/>
       <use xlink:href="#DejaVuSerif-31" transform="translate(83.789062 0)"/>
       <use xlink:href="#DejaVuSerif-30" transform="translate(147.412109 0)"/>
       <use xlink:href="#DejaVuSerif-32" transform="translate(211.035156 0)"/>
       <use xlink:href="#DejaVuSerif-2e" transform="translate(274.658203 0)"/>
       <use xlink:href="#DejaVuSerif-35" transform="translate(306.445312 0)"/>
      </g>
     </g>
    </g>
    <g id="ytick_7">
     <g id="line2d_16">
      <g>
       <use xlink:href="#md99bb4b1ff" x="65.056406" y="113.089686" style="fill: #333333; stroke: #333333; stroke-width: 0.8"/>
      </g>
     </g>
     <g id="text_17">
      <!-- −100.0 -->
      <g style="fill: #333333" transform="translate(24.749375 116.508983) scale(0.09 -0.09)">
       <use xlink:href="#DejaVuSerif-2212"/>
       <use xlink:href="#DejaVuSerif-31" transform="translate(83.789062 0)"/>
       <use xlink:href="#DejaVuSerif-30" transform="translate(147.412109 0)"/>
       <use xlink:href="#DejaVuSerif-30" transform="translate(211.035156 0)"/>
       <use xlink:href="#DejaVuSerif-2e" transform="translate(274.658203 0)"/>
       <use xlink:href="#DejaVuSerif-30" transform="translate(306.445312 0)"/>
      </g>
     </g>
    </g>
    <g id="ytick_8">
     <g id="line2d_17">
      <g>
       <use xlink:href="#md99bb4b1ff" x="65.056406" y="68.630469" style="fill: #333333; stroke: #333333; stroke-width: 0.8"/>
      </g>
     </g>
     <g id="text_18">
      <!-- −97.5 -->
      <g style="fill: #333333" transform="translate(30.475625 72.049765) scale(0.09 -0.09)">
       <defs>
        <path id="DejaVuSerif-39" d="M 2994 2091 
Q 2784 1856 2512 1740 
Q 2241 1625 1900 1625 
Q 1206 1625 804 2044 
Q 403 2463 403 3188 
Q 403 3897 839 4323 
Q 1275 4750 2003 4750 
Q 2794 4750 3217 4161 
Q 3641 3572 3641 2478 
Q 3641 1253 3137 581 
Q 2634 -91 1722 -91 
Q 1475 -91 1203 -44 
Q 931 3 647 97 
L 647 872 
L 997 872 
Q 1038 556 1241 387 
Q 1444 219 1784 219 
Q 2391 219 2687 676 
Q 2984 1134 2994 2091 
z
M 1978 4441 
Q 1534 4441 1298 4117 
Q 1063 3794 1063 3188 
Q 1063 2581 1298 2256 
Q 1534 1931 1978 1931 
Q 2422 1931 2658 2245 
Q 2894 2559 2894 3150 
Q 2894 3772 2656 4106 
Q 2419 4441 1978 4441 
z
" transform="scale(0.015625)"/>
       </defs>
       <use xlink:href="#DejaVuSerif-2212"/>
       <use xlink:href="#DejaVuSerif-39" transform="translate(83.789062 0)"/>
       <use xlink:href="#DejaVuSerif-37" transform="translate(147.412109 0)"/>
       <use xlink:href="#DejaVuSerif-2e" transform="translate(211.035156 0)"/>
       <use xlink:href="#DejaVuSerif-35" transform="translate(242.822266 0)"/>
      </g>
     </g>
    </g>
    <g id="text_19">
     <!-- Band Db -->
     <g transform="translate(17.837813 262.532856) rotate(-90) scale(0.14 -0.14)">
      <defs>
       <path id="DejaVuSerif-42" d="M 1581 331 
L 2516 331 
Q 3078 331 3337 575 
Q 3597 819 3597 1350 
Q 3597 1878 3339 2120 
Q 3081 2363 2516 2363 
L 1581 2363 
L 1581 331 
z
M 1581 2694 
L 2375 2694 
Q 2888 2694 3123 2891 
Q 3359 3088 3359 3513 
Q 3359 3941 3123 4136 
Q 2888 4331 2375 4331 
L 1581 4331 
L 1581 2694 
z
M 353 0 
L 353 331 
L 947 331 
L 947 4331 
L 353 4331 
L 353 4666 
L 2656 4666 
Q 3363 4666 3720 4377 
Q 4078 4088 4078 3513 
Q 4078 3097 3829 2850 
Q 3581 2603 3103 2547 
Q 3697 2472 4005 2167 
Q 4313 1863 4313 1350 
Q 4313 656 3875 328 
Q 3438 0 2509 0 
L 353 0 
z
" transform="scale(0.015625)"/>
       <path id="DejaVuSerif-64" d="M 3359 331 
L 3909 331 
L 3909 0 
L 2784 0 
L 2784 519 
Q 2616 206 2355 57 
Q 2094 -91 1709 -91 
Q 1097 -91 708 395 
Q 319 881 319 1663 
Q 319 2444 706 2928 
Q 1094 3413 1709 3413 
Q 2094 3413 2355 3264 
Q 2616 3116 2784 2803 
L 2784 4531 
L 2241 4531 
L 2241 4863 
L 3359 4863 
L 3359 331 
z
M 2784 1497 
L 2784 1825 
Q 2784 2422 2554 2737 
Q 2325 3053 1888 3053 
Q 1444 3053 1217 2703 
Q 991 2353 991 1663 
Q 991 975 1217 622 
Q 1444 269 1888 269 
Q 2325 269 2554 583 
Q 2784 897 2784 1497 
z
" transform="scale(0.015625)"/>
       <path id="DejaVuSerif-44" d="M 1581 331 
L 2163 331 
Q 3072 331 3558 850 
Q 4044 1369 4044 2338 
Q 4044 3306 3559 3818 
Q 3075 4331 2163 4331 
L 1581 4331 
L 1581 331 
z
M 353 0 
L 353 331 
L 947 331 
L 947 4331 
L 353 4331 
L 353 4666 
L 2209 4666 
Q 3416 4666 4089 4050 
Q 4763 3434 4763 2338 
Q 4763 1238 4088 619 
Q 3413 0 2209 0 
L 353 0 
z
" transform="scale(0.015625)"/>
       <path id="DejaVuSerif-62" d="M 738 331 
L 738 4531 
L 184 4531 
L 184 4863 
L 1313 4863 
L 1313 2803 
Q 1481 3116 1742 3264 
Q 2003 3413 2388 3413 
Q 3000 3413 3387 2928 
Q 3775 2444 3775 1663 
Q 3775 881 3387 395 
Q 3000 -91 2388 -91 
Q 2003 -91 1742 57 
Q 1481 206 1313 519 
L 1313 0 
L 184 0 
L 184 331 
L 738 331 
z
M 1313 1497 
Q 1313 897 1542 583 
Q 1772 269 2209 269 
Q 2650 269 2876 622 
Q 3103 975 3103 1663 
Q 3103 2353 2876 2703 
Q 2650 3053 2209 3053 
Q 1772 3053 1542 2737 
Q 1313 2422 1313 1825 
L 1313 1497 
z
" transform="scale(0.015625)"/>
      </defs>
      <use xlink:href="#DejaVuSerif-42"/>
      <use xlink:href="#DejaVuSerif-61" transform="translate(73.486328 0)"/>
      <use xlink:href="#DejaVuSerif-6e" transform="translate(133.105469 0)"/>
      <use xlink:href="#DejaVuSerif-64" transform="translate(197.509766 0)"/>
      <use xlink:href="#DejaVuSerif-20" transform="translate(261.523438 0)"/>
      <use xlink:href="#DejaVuSerif-44" transform="translate(293.310547 0)"/>
      <use xlink:href="#DejaVuSerif-62" transform="translate(373.486328 0)"/>
     </g>
    </g>
   </g>
   <g id="patch_5">
    <path d="M 76.155184 263.142238 
L 120.550295 263.142238 
L 120.550295 235.767974 
L 76.155184 235.767974 
L 76.155184 263.142238 
z
" clip-path="url(#p52362dbbac)" style="fill: #6a80d1; stroke: #545454; stroke-linejoin: miter"/>
   </g>
   <g id="line2d_18">
    <path d="M 98.35274 263.142238 
L 98.35274 303.637568 
" clip-path="url(#p52362dbbac)" style="fill: none; stroke: #545454"/>
   </g>
   <g id="line2d_19">
    <path d="M 98.35274 235.767974 
L 98.35274 196.164221 
" clip-path="url(#p52362dbbac)" style="fill: none; stroke: #545454"/>
   </g>
   <g id="line2d_20">
    <path d="M 87.253962 303.637568 
L 109.451517 303.637568 
" clip-path="url(#p52362dbbac)" style="fill: none; stroke: #545454; stroke-linecap: square"/>
   </g>
   <g id="line2d_21">
    <path d="M 87.253962 196.164221 
L 109.451517 196.164221 
" clip-path="url(#p52362dbbac)" style="fill: none; stroke: #545454; stroke-linecap: square"/>
   </g>
   <g id="line2d_22">
    <defs>
     <path id="ma73ac77e66" d="M 0 3 
C 0.795609 3 1.55874 2.683901 2.12132 2.12132 
C 2.683901 1.55874 3 0.795609 3 0 
C 3 -0.795609 2.683901 -1.55874 2.12132 -2.12132 
C 1.55874 -2.683901 0.795609 -3 0 -3 
C -0.795609 -3 -1.55874 -2.683901 -2.12132 -2.12132 
C -2.683901 -1.55874 -3 -0.795609 -3 0 
C -3 0.795609 -2.683901 1.55874 -2.12132 2.12132 
C -1.55874 2.683901 -0.795609 3 0 3 
z
" style="stroke: #545454"/>
    </defs>
    <g clip-path="url(#p52362dbbac)">
     <use xlink:href="#ma73ac77e66" x="98.35274" y="304.689227" style="fill-opacity: 0; stroke: #545454"/>
     <use xlink:href="#ma73ac77e66" x="98.35274" y="305.024871" style="fill-opacity: 0; stroke: #545454"/>
    </g>
   </g>
   <g id="patch_6">
    <path d="M 187.142962 267.947157 
L 231.538073 267.947157 
L 231.538073 236.629567 
L 187.142962 236.629567 
L 187.142962 267.947157 
z
" clip-path="url(#p52362dbbac)" style="fill: #6a80d1; stroke: #545454; stroke-linejoin: miter"/>
   </g>
   <g id="line2d_23">
    <path d="M 209.340517 267.947157 
L 209.340517 313.882333 
" clip-path="url(#p52362dbbac)" style="fill: none; stroke: #545454"/>
   </g>
   <g id="line2d_24">
    <path d="M 209.340517 236.629567 
L 209.340517 190.136659 
" clip-path="url(#p52362dbbac)" style="fill: none; stroke: #545454"/>
   </g>
   <g id="line2d_25">
    <path d="M 198.24174 313.882333 
L 220.439295 313.882333 
" clip-path="url(#p52362dbbac)" style="fill: none; stroke: #545454; stroke-linecap: square"/>
   </g>
   <g id="line2d_26">
    <path d="M 198.24174 190.136659 
L 220.439295 190.136659 
" clip-path="url(#p52362dbbac)" style="fill: none; stroke: #545454; stroke-linecap: square"/>
   </g>
   <g id="line2d_27">
    <g clip-path="url(#p52362dbbac)">
     <use xlink:href="#ma73ac77e66" x="209.340517" y="323.370957" style="fill-opacity: 0; stroke: #545454"/>
    </g>
   </g>
   <g id="patch_7">
    <path d="M 298.13074 285.942543 
L 342.525851 285.942543 
L 342.525851 249.554251 
L 298.13074 249.554251 
L 298.13074 285.942543 
z
" clip-path="url(#p52362dbbac)" style="fill: #6a80d1; stroke: #545454; stroke-linejoin: miter"/>
   </g>
   <g id="line2d_28">
    <path d="M 320.328295 285.942543 
L 320.328295 337.986085 
" clip-path="url(#p52362dbbac)" style="fill: none; stroke: #545454"/>
   </g>
   <g id="line2d_29">
    <path d="M 320.328295 249.554251 
L 320.328295 199.159935 
" clip-path="url(#p52362dbbac)" style="fill: none; stroke: #545454"/>
   </g>
   <g id="line2d_30">
    <path d="M 309.229517 337.986085 
L 331.427073 337.986085 
" clip-path="url(#p52362dbbac)" style="fill: none; stroke: #545454; stroke-linecap: square"/>
   </g>
   <g id="line2d_31">
    <path d="M 309.229517 199.159935 
L 331.427073 199.159935 
" clip-path="url(#p52362dbbac)" style="fill: none; stroke: #545454; stroke-linecap: square"/>
   </g>
   <g id="line2d_32">
    <g clip-path="url(#p52362dbbac)">
     <use xlink:href="#ma73ac77e66" x="320.328295" y="344.521035" style="fill-opacity: 0; stroke: #545454"/>
     <use xlink:href="#ma73ac77e66" x="320.328295" y="344.989529" style="fill-opacity: 0; stroke: #545454"/>
     <use xlink:href="#ma73ac77e66" x="320.328295" y="191.936087" style="fill-opacity: 0; stroke: #545454"/>
     <use xlink:href="#ma73ac77e66" x="320.328295" y="194.452041" style="fill-opacity: 0; stroke: #545454"/>
     <use xlink:href="#ma73ac77e66" x="320.328295" y="187.61579" style="fill-opacity: 0; stroke: #545454"/>
    </g>
   </g>
   <g id="patch_8">
    <path d="M 409.118517 326.349872 
L 453.513628 326.349872 
L 453.513628 277.046281 
L 409.118517 277.046281 
L 409.118517 326.349872 
z
" clip-path="url(#p52362dbbac)" style="fill: #6a80d1; stroke: #545454; stroke-linejoin: miter"/>
   </g>
   <g id="line2d_33">
    <path d="M 431.316073 326.349872 
L 431.316073 388.514126 
" clip-path="url(#p52362dbbac)" style="fill: none; stroke: #545454"/>
   </g>
   <g id="line2d_34">
    <path d="M 431.316073 277.046281 
L 431.316073 204.109778 
" clip-path="url(#p52362dbbac)" style="fill: none; stroke: #545454"/>
   </g>
   <g id="line2d_35">
    <path d="M 420.217295 388.514126 
L 442.414851 388.514126 
" clip-path="url(#p52362dbbac)" style="fill: none; stroke: #545454; stroke-linecap: square"/>
   </g>
   <g id="line2d_36">
    <path d="M 420.217295 204.109778 
L 442.414851 204.109778 
" clip-path="url(#p52362dbbac)" style="fill: none; stroke: #545454; stroke-linecap: square"/>
   </g>
   <g id="line2d_37">
    <g clip-path="url(#p52362dbbac)">
     <use xlink:href="#ma73ac77e66" x="431.316073" y="190.071189" style="fill-opacity: 0; stroke: #545454"/>
     <use xlink:href="#ma73ac77e66" x="431.316073" y="199.510358" style="fill-opacity: 0; stroke: #545454"/>
     <use xlink:href="#ma73ac77e66" x="431.316073" y="201.910948" style="fill-opacity: 0; stroke: #545454"/>
     <use xlink:href="#ma73ac77e66" x="431.316073" y="199.137918" style="fill-opacity: 0; stroke: #545454"/>
     <use xlink:href="#ma73ac77e66" x="431.316073" y="202.110044" style="fill-opacity: 0; stroke: #545454"/>
    </g>
   </g>
   <g id="patch_9">
    <path d="M 520.106295 318.251166 
L 564.501406 318.251166 
L 564.501406 267.407022 
L 520.106295 267.407022 
L 520.106295 318.251166 
z
" clip-path="url(#p52362dbbac)" style="fill: #6a80d1; stroke: #545454; stroke-linejoin: miter"/>
   </g>
   <g id="line2d_38">
    <path d="M 542.303851 318.251166 
L 542.303851 376.886173 
" clip-path="url(#p52362dbbac)" style="fill: none; stroke: #545454"/>
   </g>
   <g id="line2d_39">
    <path d="M 542.303851 267.407022 
L 542.303851 198.201713 
" clip-path="url(#p52362dbbac)" style="fill: none; stroke: #545454"/>
   </g>
   <g id="line2d_40">
    <path d="M 531.205073 376.886173 
L 553.402628 376.886173 
" clip-path="url(#p52362dbbac)" style="fill: none; stroke: #545454; stroke-linecap: square"/>
   </g>
   <g id="line2d_41">
    <path d="M 531.205073 198.201713 
L 553.402628 198.201713 
" clip-path="url(#p52362dbbac)" style="fill: none; stroke: #545454; stroke-linecap: square"/>
   </g>
   <g id="line2d_42"/>
   <g id="patch_10">
    <path d="M 631.094073 274.515605 
L 675.489184 274.515605 
L 675.489184 203.779098 
L 631.094073 203.779098 
L 631.094073 274.515605 
z
" clip-path="url(#p52362dbbac)" style="fill: #6a80d1; stroke: #545454; stroke-linejoin: miter"/>
   </g>
   <g id="line2d_43">
    <path d="M 653.291628 274.515605 
L 653.291628 336.634919 
" clip-path="url(#p52362dbbac)" style="fill: none; stroke: #545454"/>
   </g>
   <g id="line2d_44">
    <path d="M 653.291628 203.779098 
L 653.291628 131.165874 
" clip-path="url(#p52362dbbac)" style="fill: none; stroke: #545454"/>
   </g>
   <g id="line2d_45">
    <path d="M 642.192851 336.634919 
L 664.390406 336.634919 
" clip-path="url(#p52362dbbac)" style="fill: none; stroke: #545454; stroke-linecap: square"/>
   </g>
   <g id="line2d_46">
    <path d="M 642.192851 131.165874 
L 664.390406 131.165874 
" clip-path="url(#p52362dbbac)" style="fill: none; stroke: #545454; stroke-linecap: square"/>
   </g>
   <g id="line2d_47"/>
   <g id="patch_11">
    <path d="M 742.081851 252.394793 
L 786.476962 252.394793 
L 786.476962 180.28146 
L 742.081851 180.28146 
L 742.081851 252.394793 
z
" clip-path="url(#p52362dbbac)" style="fill: #6a80d1; stroke: #545454; stroke-linejoin: miter"/>
   </g>
   <g id="line2d_48">
    <path d="M 764.279406 252.394793 
L 764.279406 314.002626 
" clip-path="url(#p52362dbbac)" style="fill: none; stroke: #545454"/>
   </g>
   <g id="line2d_49">
    <path d="M 764.279406 180.28146 
L 764.279406 125.586252 
" clip-path="url(#p52362dbbac)" style="fill: none; stroke: #545454"/>
   </g>
   <g id="line2d_50">
    <path d="M 753.180628 314.002626 
L 775.378184 314.002626 
" clip-path="url(#p52362dbbac)" style="fill: none; stroke: #545454; stroke-linecap: square"/>
   </g>
   <g id="line2d_51">
    <path d="M 753.180628 125.586252 
L 775.378184 125.586252 
" clip-path="url(#p52362dbbac)" style="fill: none; stroke: #545454; stroke-linecap: square"/>
   </g>
   <g id="line2d_52"/>
   <g id="patch_12">
    <path d="M 853.069628 171.964315 
L 897.46474 171.964315 
L 897.46474 104.63078 
L 853.069628 104.63078 
L 853.069628 171.964315 
z
" clip-path="url(#p52362dbbac)" style="fill: #6a80d1; stroke: #545454; stroke-linejoin: miter"/>
   </g>
   <g id="line2d_53">
    <path d="M 875.267184 171.964315 
L 875.267184 245.779493 
" clip-path="url(#p52362dbbac)" style="fill: none; stroke: #545454"/>
   </g>
   <g id="line2d_54">
    <path d="M 875.267184 104.63078 
L 875.267184 60.629351 
" clip-path="url(#p52362dbbac)" style="fill: none; stroke: #545454"/>
   </g>
   <g id="line2d_55">
    <path d="M 864.168406 245.779493 
L 886.365962 245.779493 
" clip-path="url(#p52362dbbac)" style="fill: none; stroke: #545454; stroke-linecap: square"/>
   </g>
   <g id="line2d_56">
    <path d="M 864.168406 60.629351 
L 886.365962 60.629351 
" clip-path="url(#p52362dbbac)" style="fill: none; stroke: #545454; stroke-linecap: square"/>
   </g>
   <g id="line2d_57"/>
   <g id="patch_13">
    <path d="M 964.057406 211.230699 
L 1008.452517 211.230699 
L 1008.452517 138.925179 
L 964.057406 138.925179 
L 964.057406 211.230699 
z
" clip-path="url(#p52362dbbac)" style="fill: #6a80d1; stroke: #545454; stroke-linejoin: miter"/>
   </g>
   <g id="line2d_58">
    <path d="M 986.254962 211.230699 
L 986.254962 281.487913 
" clip-path="url(#p52362dbbac)" style="fill: none; stroke: #545454"/>
   </g>
   <g id="line2d_59">
    <path d="M 986.254962 138.925179 
L 986.254962 91.242331 
" clip-path="url(#p52362dbbac)" style="fill: none; stroke: #545454"/>
   </g>
   <g id="line2d_60">
    <path d="M 975.156184 281.487913 
L 997.35374 281.487913 
" clip-path="url(#p52362dbbac)" style="fill: none; stroke: #545454; stroke-linecap: square"/>
   </g>
   <g id="line2d_61">
    <path d="M 975.156184 91.242331 
L 997.35374 91.242331 
" clip-path="url(#p52362dbbac)" style="fill: none; stroke: #545454; stroke-linecap: square"/>
   </g>
   <g id="line2d_62"/>
   <g id="patch_14">
    <path d="M 120.550295 263.829132 
L 164.945406 263.829132 
L 164.945406 236.826399 
L 120.550295 236.826399 
L 120.550295 263.829132 
z
" clip-path="url(#p52362dbbac)" style="fill: #c46156; stroke: #545454; stroke-linejoin: miter"/>
   </g>
   <g id="line2d_63">
    <path d="M 142.747851 263.829132 
L 142.747851 302.99978 
" clip-path="url(#p52362dbbac)" style="fill: none; stroke: #545454"/>
   </g>
   <g id="line2d_64">
    <path d="M 142.747851 236.826399 
L 142.747851 205.305832 
" clip-path="url(#p52362dbbac)" style="fill: none; stroke: #545454"/>
   </g>
   <g id="line2d_65">
    <path d="M 131.649073 302.99978 
L 153.846628 302.99978 
" clip-path="url(#p52362dbbac)" style="fill: none; stroke: #545454; stroke-linecap: square"/>
   </g>
   <g id="line2d_66">
    <path d="M 131.649073 205.305832 
L 153.846628 205.305832 
" clip-path="url(#p52362dbbac)" style="fill: none; stroke: #545454; stroke-linecap: square"/>
   </g>
   <g id="line2d_67">
    <g clip-path="url(#p52362dbbac)">
     <use xlink:href="#ma73ac77e66" x="142.747851" y="326.031399" style="fill-opacity: 0; stroke: #545454"/>
     <use xlink:href="#ma73ac77e66" x="142.747851" y="340.767685" style="fill-opacity: 0; stroke: #545454"/>
     <use xlink:href="#ma73ac77e66" x="142.747851" y="325.695493" style="fill-opacity: 0; stroke: #545454"/>
     <use xlink:href="#ma73ac77e66" x="142.747851" y="313.51145" style="fill-opacity: 0; stroke: #545454"/>
     <use xlink:href="#ma73ac77e66" x="142.747851" y="305.783902" style="fill-opacity: 0; stroke: #545454"/>
     <use xlink:href="#ma73ac77e66" x="142.747851" y="308.914339" style="fill-opacity: 0; stroke: #545454"/>
     <use xlink:href="#ma73ac77e66" x="142.747851" y="306.119939" style="fill-opacity: 0; stroke: #545454"/>
     <use xlink:href="#ma73ac77e66" x="142.747851" y="306.499416" style="fill-opacity: 0; stroke: #545454"/>
     <use xlink:href="#ma73ac77e66" x="142.747851" y="307.673455" style="fill-opacity: 0; stroke: #545454"/>
     <use xlink:href="#ma73ac77e66" x="142.747851" y="312.758773" style="fill-opacity: 0; stroke: #545454"/>
     <use xlink:href="#ma73ac77e66" x="142.747851" y="321.752722" style="fill-opacity: 0; stroke: #545454"/>
     <use xlink:href="#ma73ac77e66" x="142.747851" y="310.067497" style="fill-opacity: 0; stroke: #545454"/>
     <use xlink:href="#ma73ac77e66" x="142.747851" y="304.632311" style="fill-opacity: 0; stroke: #545454"/>
     <use xlink:href="#ma73ac77e66" x="142.747851" y="335.587853" style="fill-opacity: 0; stroke: #545454"/>
     <use xlink:href="#ma73ac77e66" x="142.747851" y="335.718268" style="fill-opacity: 0; stroke: #545454"/>
     <use xlink:href="#ma73ac77e66" x="142.747851" y="322.173586" style="fill-opacity: 0; stroke: #545454"/>
     <use xlink:href="#ma73ac77e66" x="142.747851" y="324.41883" style="fill-opacity: 0; stroke: #545454"/>
     <use xlink:href="#ma73ac77e66" x="142.747851" y="319.810857" style="fill-opacity: 0; stroke: #545454"/>
     <use xlink:href="#ma73ac77e66" x="142.747851" y="319.413617" style="fill-opacity: 0; stroke: #545454"/>
     <use xlink:href="#ma73ac77e66" x="142.747851" y="312.8581" style="fill-opacity: 0; stroke: #545454"/>
     <use xlink:href="#ma73ac77e66" x="142.747851" y="311.36377" style="fill-opacity: 0; stroke: #545454"/>
     <use xlink:href="#ma73ac77e66" x="142.747851" y="307.034328" style="fill-opacity: 0; stroke: #545454"/>
    </g>
   </g>
   <g id="patch_15">
    <path d="M 231.538073 271.168657 
L 275.933184 271.168657 
L 275.933184 237.419987 
L 231.538073 237.419987 
L 231.538073 271.168657 
z
" clip-path="url(#p52362dbbac)" style="fill: #c46156; stroke: #545454; stroke-linejoin: miter"/>
   </g>
   <g id="line2d_68">
    <path d="M 253.735628 271.168657 
L 253.735628 320.912776 
" clip-path="url(#p52362dbbac)" style="fill: none; stroke: #545454"/>
   </g>
   <g id="line2d_69">
    <path d="M 253.735628 237.419987 
L 253.735628 197.487726 
" clip-path="url(#p52362dbbac)" style="fill: none; stroke: #545454"/>
   </g>
   <g id="line2d_70">
    <path d="M 242.636851 320.912776 
L 264.834406 320.912776 
" clip-path="url(#p52362dbbac)" style="fill: none; stroke: #545454; stroke-linecap: square"/>
   </g>
   <g id="line2d_71">
    <path d="M 242.636851 197.487726 
L 264.834406 197.487726 
" clip-path="url(#p52362dbbac)" style="fill: none; stroke: #545454; stroke-linecap: square"/>
   </g>
   <g id="line2d_72">
    <g clip-path="url(#p52362dbbac)">
     <use xlink:href="#ma73ac77e66" x="253.735628" y="328.30014" style="fill-opacity: 0; stroke: #545454"/>
     <use xlink:href="#ma73ac77e66" x="253.735628" y="323.621648" style="fill-opacity: 0; stroke: #545454"/>
     <use xlink:href="#ma73ac77e66" x="253.735628" y="340.358541" style="fill-opacity: 0; stroke: #545454"/>
     <use xlink:href="#ma73ac77e66" x="253.735628" y="328.876305" style="fill-opacity: 0; stroke: #545454"/>
     <use xlink:href="#ma73ac77e66" x="253.735628" y="327.984224" style="fill-opacity: 0; stroke: #545454"/>
     <use xlink:href="#ma73ac77e66" x="253.735628" y="321.910833" style="fill-opacity: 0; stroke: #545454"/>
    </g>
   </g>
   <g id="patch_16">
    <path d="M 342.525851 288.180421 
L 386.920962 288.180421 
L 386.920962 246.491605 
L 342.525851 246.491605 
L 342.525851 288.180421 
z
" clip-path="url(#p52362dbbac)" style="fill: #c46156; stroke: #545454; stroke-linejoin: miter"/>
   </g>
   <g id="line2d_73">
    <path d="M 364.723406 288.180421 
L 364.723406 348.980947 
" clip-path="url(#p52362dbbac)" style="fill: none; stroke: #545454"/>
   </g>
   <g id="line2d_74">
    <path d="M 364.723406 246.491605 
L 364.723406 189.18999 
" clip-path="url(#p52362dbbac)" style="fill: none; stroke: #545454"/>
   </g>
   <g id="line2d_75">
    <path d="M 353.624628 348.980947 
L 375.822184 348.980947 
" clip-path="url(#p52362dbbac)" style="fill: none; stroke: #545454; stroke-linecap: square"/>
   </g>
   <g id="line2d_76">
    <path d="M 353.624628 189.18999 
L 375.822184 189.18999 
" clip-path="url(#p52362dbbac)" style="fill: none; stroke: #545454; stroke-linecap: square"/>
   </g>
   <g id="line2d_77">
    <g clip-path="url(#p52362dbbac)">
     <use xlink:href="#ma73ac77e66" x="364.723406" y="353.841244" style="fill-opacity: 0; stroke: #545454"/>
     <use xlink:href="#ma73ac77e66" x="364.723406" y="352.420115" style="fill-opacity: 0; stroke: #545454"/>
     <use xlink:href="#ma73ac77e66" x="364.723406" y="365.399283" style="fill-opacity: 0; stroke: #545454"/>
    </g>
   </g>
   <g id="patch_17">
    <path d="M 453.513628 312.378403 
L 497.90874 312.378403 
L 497.90874 267.473072 
L 453.513628 267.473072 
L 453.513628 312.378403 
z
" clip-path="url(#p52362dbbac)" style="fill: #c46156; stroke: #545454; stroke-linejoin: miter"/>
   </g>
   <g id="line2d_78">
    <path d="M 475.711184 312.378403 
L 475.711184 379.159099 
" clip-path="url(#p52362dbbac)" style="fill: none; stroke: #545454"/>
   </g>
   <g id="line2d_79">
    <path d="M 475.711184 267.473072 
L 475.711184 200.956378 
" clip-path="url(#p52362dbbac)" style="fill: none; stroke: #545454"/>
   </g>
   <g id="line2d_80">
    <path d="M 464.612406 379.159099 
L 486.809962 379.159099 
" clip-path="url(#p52362dbbac)" style="fill: none; stroke: #545454; stroke-linecap: square"/>
   </g>
   <g id="line2d_81">
    <path d="M 464.612406 200.956378 
L 486.809962 200.956378 
" clip-path="url(#p52362dbbac)" style="fill: none; stroke: #545454; stroke-linecap: square"/>
   </g>
   <g id="line2d_82">
    <g clip-path="url(#p52362dbbac)">
     <use xlink:href="#ma73ac77e66" x="475.711184" y="385.762585" style="fill-opacity: 0; stroke: #545454"/>
     <use xlink:href="#ma73ac77e66" x="475.711184" y="382.31355" style="fill-opacity: 0; stroke: #545454"/>
     <use xlink:href="#ma73ac77e66" x="475.711184" y="199.916181" style="fill-opacity: 0; stroke: #545454"/>
     <use xlink:href="#ma73ac77e66" x="475.711184" y="186.035261" style="fill-opacity: 0; stroke: #545454"/>
     <use xlink:href="#ma73ac77e66" x="475.711184" y="190.254133" style="fill-opacity: 0; stroke: #545454"/>
     <use xlink:href="#ma73ac77e66" x="475.711184" y="199.649787" style="fill-opacity: 0; stroke: #545454"/>
     <use xlink:href="#ma73ac77e66" x="475.711184" y="198.518996" style="fill-opacity: 0; stroke: #545454"/>
     <use xlink:href="#ma73ac77e66" x="475.711184" y="193.906831" style="fill-opacity: 0; stroke: #545454"/>
     <use xlink:href="#ma73ac77e66" x="475.711184" y="198.986442" style="fill-opacity: 0; stroke: #545454"/>
     <use xlink:href="#ma73ac77e66" x="475.711184" y="195.987591" style="fill-opacity: 0; stroke: #545454"/>
     <use xlink:href="#ma73ac77e66" x="475.711184" y="198.208975" style="fill-opacity: 0; stroke: #545454"/>
     <use xlink:href="#ma73ac77e66" x="475.711184" y="196.50646" style="fill-opacity: 0; stroke: #545454"/>
     <use xlink:href="#ma73ac77e66" x="475.711184" y="196.819631" style="fill-opacity: 0; stroke: #545454"/>
     <use xlink:href="#ma73ac77e66" x="475.711184" y="197.797319" style="fill-opacity: 0; stroke: #545454"/>
    </g>
   </g>
   <g id="patch_18">
    <path d="M 564.501406 296.659644 
L 608.896517 296.659644 
L 608.896517 257.342679 
L 564.501406 257.342679 
L 564.501406 296.659644 
z
" clip-path="url(#p52362dbbac)" style="fill: #c46156; stroke: #545454; stroke-linejoin: miter"/>
   </g>
   <g id="line2d_83">
    <path d="M 586.698962 296.659644 
L 586.698962 354.987309 
" clip-path="url(#p52362dbbac)" style="fill: none; stroke: #545454"/>
   </g>
   <g id="line2d_84">
    <path d="M 586.698962 257.342679 
L 586.698962 198.854136 
" clip-path="url(#p52362dbbac)" style="fill: none; stroke: #545454"/>
   </g>
   <g id="line2d_85">
    <path d="M 575.600184 354.987309 
L 597.79774 354.987309 
" clip-path="url(#p52362dbbac)" style="fill: none; stroke: #545454; stroke-linecap: square"/>
   </g>
   <g id="line2d_86">
    <path d="M 575.600184 198.854136 
L 597.79774 198.854136 
" clip-path="url(#p52362dbbac)" style="fill: none; stroke: #545454; stroke-linecap: square"/>
   </g>
   <g id="line2d_87">
    <g clip-path="url(#p52362dbbac)">
     <use xlink:href="#ma73ac77e66" x="586.698962" y="368.934374" style="fill-opacity: 0; stroke: #545454"/>
     <use xlink:href="#ma73ac77e66" x="586.698962" y="365.813087" style="fill-opacity: 0; stroke: #545454"/>
     <use xlink:href="#ma73ac77e66" x="586.698962" y="375.976243" style="fill-opacity: 0; stroke: #545454"/>
     <use xlink:href="#ma73ac77e66" x="586.698962" y="369.006362" style="fill-opacity: 0; stroke: #545454"/>
     <use xlink:href="#ma73ac77e66" x="586.698962" y="358.459419" style="fill-opacity: 0; stroke: #545454"/>
     <use xlink:href="#ma73ac77e66" x="586.698962" y="357.342913" style="fill-opacity: 0; stroke: #545454"/>
     <use xlink:href="#ma73ac77e66" x="586.698962" y="368.42774" style="fill-opacity: 0; stroke: #545454"/>
     <use xlink:href="#ma73ac77e66" x="586.698962" y="403.186361" style="fill-opacity: 0; stroke: #545454"/>
     <use xlink:href="#ma73ac77e66" x="586.698962" y="375.699433" style="fill-opacity: 0; stroke: #545454"/>
     <use xlink:href="#ma73ac77e66" x="586.698962" y="372.639117" style="fill-opacity: 0; stroke: #545454"/>
     <use xlink:href="#ma73ac77e66" x="586.698962" y="359.22727" style="fill-opacity: 0; stroke: #545454"/>
     <use xlink:href="#ma73ac77e66" x="586.698962" y="196.181036" style="fill-opacity: 0; stroke: #545454"/>
     <use xlink:href="#ma73ac77e66" x="586.698962" y="195.922555" style="fill-opacity: 0; stroke: #545454"/>
     <use xlink:href="#ma73ac77e66" x="586.698962" y="198.259169" style="fill-opacity: 0; stroke: #545454"/>
    </g>
   </g>
   <g id="patch_19">
    <path d="M 675.489184 277.998172 
L 719.884295 277.998172 
L 719.884295 222.001527 
L 675.489184 222.001527 
L 675.489184 277.998172 
z
" clip-path="url(#p52362dbbac)" style="fill: #c46156; stroke: #545454; stroke-linejoin: miter"/>
   </g>
   <g id="line2d_88">
    <path d="M 697.68674 277.998172 
L 697.68674 351.290248 
" clip-path="url(#p52362dbbac)" style="fill: none; stroke: #545454"/>
   </g>
   <g id="line2d_89">
    <path d="M 697.68674 222.001527 
L 697.68674 168.194001 
" clip-path="url(#p52362dbbac)" style="fill: none; stroke: #545454"/>
   </g>
   <g id="line2d_90">
    <path d="M 686.587962 351.290248 
L 708.785517 351.290248 
" clip-path="url(#p52362dbbac)" style="fill: none; stroke: #545454; stroke-linecap: square"/>
   </g>
   <g id="line2d_91">
    <path d="M 686.587962 168.194001 
L 708.785517 168.194001 
" clip-path="url(#p52362dbbac)" style="fill: none; stroke: #545454; stroke-linecap: square"/>
   </g>
   <g id="line2d_92"/>
   <g id="patch_20">
    <path d="M 786.476962 248.16441 
L 830.872073 248.16441 
L 830.872073 180.845574 
L 786.476962 180.845574 
L 786.476962 248.16441 
z
" clip-path="url(#p52362dbbac)" style="fill: #c46156; stroke: #545454; stroke-linejoin: miter"/>
   </g>
   <g id="line2d_93">
    <path d="M 808.674517 248.16441 
L 808.674517 348.995909 
" clip-path="url(#p52362dbbac)" style="fill: none; stroke: #545454"/>
   </g>
   <g id="line2d_94">
    <path d="M 808.674517 180.845574 
L 808.674517 138.611427 
" clip-path="url(#p52362dbbac)" style="fill: none; stroke: #545454"/>
   </g>
   <g id="line2d_95">
    <path d="M 797.57574 348.995909 
L 819.773295 348.995909 
" clip-path="url(#p52362dbbac)" style="fill: none; stroke: #545454; stroke-linecap: square"/>
   </g>
   <g id="line2d_96">
    <path d="M 797.57574 138.611427 
L 819.773295 138.611427 
" clip-path="url(#p52362dbbac)" style="fill: none; stroke: #545454; stroke-linecap: square"/>
   </g>
   <g id="line2d_97">
    <g clip-path="url(#p52362dbbac)">
     <use xlink:href="#ma73ac77e66" x="808.674517" y="355.912282" style="fill-opacity: 0; stroke: #545454"/>
     <use xlink:href="#ma73ac77e66" x="808.674517" y="349.54312" style="fill-opacity: 0; stroke: #545454"/>
     <use xlink:href="#ma73ac77e66" x="808.674517" y="350.694547" style="fill-opacity: 0; stroke: #545454"/>
    </g>
   </g>
   <g id="patch_21">
    <path d="M 897.46474 173.16583 
L 941.859851 173.16583 
L 941.859851 109.95573 
L 897.46474 109.95573 
L 897.46474 173.16583 
z
" clip-path="url(#p52362dbbac)" style="fill: #c46156; stroke: #545454; stroke-linejoin: miter"/>
   </g>
   <g id="line2d_98">
    <path d="M 919.662295 173.16583 
L 919.662295 261.861575 
" clip-path="url(#p52362dbbac)" style="fill: none; stroke: #545454"/>
   </g>
   <g id="line2d_99">
    <path d="M 919.662295 109.95573 
L 919.662295 64.054874 
" clip-path="url(#p52362dbbac)" style="fill: none; stroke: #545454"/>
   </g>
   <g id="line2d_100">
    <path d="M 908.563517 261.861575 
L 930.761073 261.861575 
" clip-path="url(#p52362dbbac)" style="fill: none; stroke: #545454; stroke-linecap: square"/>
   </g>
   <g id="line2d_101">
    <path d="M 908.563517 64.054874 
L 930.761073 64.054874 
" clip-path="url(#p52362dbbac)" style="fill: none; stroke: #545454; stroke-linecap: square"/>
   </g>
   <g id="line2d_102">
    <g clip-path="url(#p52362dbbac)">
     <use xlink:href="#ma73ac77e66" x="919.662295" y="275.160753" style="fill-opacity: 0; stroke: #545454"/>
    </g>
   </g>
   <g id="patch_22">
    <path d="M 1008.452517 212.435241 
L 1052.847628 212.435241 
L 1052.847628 144.836722 
L 1008.452517 144.836722 
L 1008.452517 212.435241 
z
" clip-path="url(#p52362dbbac)" style="fill: #c46156; stroke: #545454; stroke-linejoin: miter"/>
   </g>
   <g id="line2d_103">
    <path d="M 1030.650073 212.435241 
L 1030.650073 286.488388 
" clip-path="url(#p52362dbbac)" style="fill: none; stroke: #545454"/>
   </g>
   <g id="line2d_104">
    <path d="M 1030.650073 144.836722 
L 1030.650073 95.954236 
" clip-path="url(#p52362dbbac)" style="fill: none; stroke: #545454"/>
   </g>
   <g id="line2d_105">
    <path d="M 1019.551295 286.488388 
L 1041.748851 286.488388 
" clip-path="url(#p52362dbbac)" style="fill: none; stroke: #545454; stroke-linecap: square"/>
   </g>
   <g id="line2d_106">
    <path d="M 1019.551295 95.954236 
L 1041.748851 95.954236 
" clip-path="url(#p52362dbbac)" style="fill: none; stroke: #545454; stroke-linecap: square"/>
   </g>
   <g id="line2d_107"/>
   <g id="line2d_108">
    <path d="M 76.155184 247.928008 
L 120.550295 247.928008 
" clip-path="url(#p52362dbbac)" style="fill: none; stroke: #545454"/>
   </g>
   <g id="line2d_109">
    <path d="M 187.142962 250.805201 
L 231.538073 250.805201 
" clip-path="url(#p52362dbbac)" style="fill: none; stroke: #545454"/>
   </g>
   <g id="line2d_110">
    <path d="M 298.13074 267.925801 
L 342.525851 267.925801 
" clip-path="url(#p52362dbbac)" style="fill: none; stroke: #545454"/>
   </g>
   <g id="line2d_111">
    <path d="M 409.118517 303.583857 
L 453.513628 303.583857 
" clip-path="url(#p52362dbbac)" style="fill: none; stroke: #545454"/>
   </g>
   <g id="line2d_112">
    <path d="M 520.106295 292.458148 
L 564.501406 292.458148 
" clip-path="url(#p52362dbbac)" style="fill: none; stroke: #545454"/>
   </g>
   <g id="line2d_113">
    <path d="M 631.094073 249.388401 
L 675.489184 249.388401 
" clip-path="url(#p52362dbbac)" style="fill: none; stroke: #545454"/>
   </g>
   <g id="line2d_114">
    <path d="M 742.081851 213.914058 
L 786.476962 213.914058 
" clip-path="url(#p52362dbbac)" style="fill: none; stroke: #545454"/>
   </g>
   <g id="line2d_115">
    <path d="M 853.069628 131.827184 
L 897.46474 131.827184 
" clip-path="url(#p52362dbbac)" style="fill: none; stroke: #545454"/>
   </g>
   <g id="line2d_116">
    <path d="M 964.057406 168.787126 
L 1008.452517 168.787126 
" clip-path="url(#p52362dbbac)" style="fill: none; stroke: #545454"/>
   </g>
   <g id="line2d_117">
    <path d="M 120.550295 249.718722 
L 164.945406 249.718722 
" clip-path="url(#p52362dbbac)" style="fill: none; stroke: #545454"/>
   </g>
   <g id="line2d_118">
    <path d="M 231.538073 254.099812 
L 275.933184 254.099812 
" clip-path="url(#p52362dbbac)" style="fill: none; stroke: #545454"/>
   </g>
   <g id="line2d_119">
    <path d="M 342.525851 266.585127 
L 386.920962 266.585127 
" clip-path="url(#p52362dbbac)" style="fill: none; stroke: #545454"/>
   </g>
   <g id="line2d_120">
    <path d="M 453.513628 290.918692 
L 497.90874 290.918692 
" clip-path="url(#p52362dbbac)" style="fill: none; stroke: #545454"/>
   </g>
   <g id="line2d_121">
    <path d="M 564.501406 274.765939 
L 608.896517 274.765939 
" clip-path="url(#p52362dbbac)" style="fill: none; stroke: #545454"/>
   </g>
   <g id="line2d_122">
    <path d="M 675.489184 249.689994 
L 719.884295 249.689994 
" clip-path="url(#p52362dbbac)" style="fill: none; stroke: #545454"/>
   </g>
   <g id="line2d_123">
    <path d="M 786.476962 211.075534 
L 830.872073 211.075534 
" clip-path="url(#p52362dbbac)" style="fill: none; stroke: #545454"/>
   </g>
   <g id="line2d_124">
    <path d="M 897.46474 140.529033 
L 941.859851 140.529033 
" clip-path="url(#p52362dbbac)" style="fill: none; stroke: #545454"/>
   </g>
   <g id="line2d_125">
    <path d="M 1008.452517 175.45081 
L 1052.847628 175.45081 
" clip-path="url(#p52362dbbac)" style="fill: none; stroke: #545454"/>
   </g>
   <g id="patch_23">
    <path d="M 65.056406 420.314211 
L 65.056406 43.5015 
" style="fill: none; stroke: #333333; stroke-linejoin: miter; stroke-linecap: square"/>
   </g>
   <g id="patch_24">
    <path d="M 65.056406 420.314211 
L 1063.946406 420.314211 
" style="fill: none; stroke: #333333; stroke-linejoin: miter; stroke-linecap: square"/>
   </g>
   <g id="text_20">
    <!-- Band Db by Cortical Region and State -->
    <g transform="translate(409.937656 19.3575) scale(0.16 -0.16)">
     <defs>
      <path id="DejaVuSerif-79" d="M 1381 -609 
L 1600 -56 
L 359 2988 
L -19 2988 
L -19 3322 
L 1509 3322 
L 1509 2988 
L 978 2988 
L 1913 703 
L 2847 2988 
L 2350 2988 
L 2350 3322 
L 3597 3322 
L 3597 2988 
L 3225 2988 
L 1703 -750 
Q 1547 -1138 1356 -1280 
Q 1166 -1422 819 -1422 
Q 672 -1422 517 -1397 
Q 363 -1372 206 -1325 
L 206 -691 
L 500 -691 
Q 519 -903 608 -995 
Q 697 -1088 884 -1088 
Q 1056 -1088 1161 -992 
Q 1266 -897 1381 -609 
z
" transform="scale(0.015625)"/>
      <path id="DejaVuSerif-53" d="M 594 225 
L 594 1288 
L 953 1284 
Q 969 753 1261 498 
Q 1553 244 2150 244 
Q 2706 244 2998 464 
Q 3291 684 3291 1106 
Q 3291 1444 3114 1625 
Q 2938 1806 2369 1978 
L 1753 2163 
Q 1084 2366 811 2669 
Q 538 2972 538 3500 
Q 538 4094 959 4422 
Q 1381 4750 2144 4750 
Q 2469 4750 2856 4679 
Q 3244 4609 3681 4475 
L 3681 3481 
L 3328 3481 
Q 3275 3975 2998 4195 
Q 2722 4416 2156 4416 
Q 1663 4416 1405 4214 
Q 1147 4013 1147 3628 
Q 1147 3294 1340 3103 
Q 1534 2913 2163 2725 
L 2741 2553 
Q 3375 2363 3645 2067 
Q 3916 1772 3916 1275 
Q 3916 597 3481 253 
Q 3047 -91 2188 -91 
Q 1803 -91 1404 -12 
Q 1006 66 594 225 
z
" transform="scale(0.015625)"/>
     </defs>
     <use xlink:href="#DejaVuSerif-42"/>
     <use xlink:href="#DejaVuSerif-61" transform="translate(73.486328 0)"/>
     <use xlink:href="#DejaVuSerif-6e" transform="translate(133.105469 0)"/>
     <use xlink:href="#DejaVuSerif-64" transform="translate(197.509766 0)"/>
     <use xlink:href="#DejaVuSerif-20" transform="translate(261.523438 0)"/>
     <use xlink:href="#DejaVuSerif-44" transform="translate(293.310547 0)"/>
     <use xlink:href="#DejaVuSerif-62" transform="translate(373.486328 0)"/>
     <use xlink:href="#DejaVuSerif-20" transform="translate(437.5 0)"/>
     <use xlink:href="#DejaVuSerif-62" transform="translate(469.287109 0)"/>
     <use xlink:href="#DejaVuSerif-79" transform="translate(533.300781 0)"/>
     <use xlink:href="#DejaVuSerif-20" transform="translate(589.794922 0)"/>
     <use xlink:href="#DejaVuSerif-43" transform="translate(621.582031 0)"/>
     <use xlink:href="#DejaVuSerif-6f" transform="translate(698.095703 0)"/>
     <use xlink:href="#DejaVuSerif-72" transform="translate(758.300781 0)"/>
     <use xlink:href="#DejaVuSerif-74" transform="translate(806.103516 0)"/>
     <use xlink:href="#DejaVuSerif-69" transform="translate(846.289062 0)"/>
     <use xlink:href="#DejaVuSerif-63" transform="translate(878.271484 0)"/>
     <use xlink:href="#DejaVuSerif-61" transform="translate(934.277344 0)"/>
     <use xlink:href="#DejaVuSerif-6c" transform="translate(993.896484 0)"/>
     <use xlink:href="#DejaVuSerif-20" transform="translate(1025.878906 0)"/>
     <use xlink:href="#DejaVuSerif-52" transform="translate(1057.666016 0)"/>
     <use xlink:href="#DejaVuSerif-65" transform="translate(1132.958984 0)"/>
     <use xlink:href="#DejaVuSerif-67" transform="translate(1192.138672 0)"/>
     <use xlink:href="#DejaVuSerif-69" transform="translate(1256.152344 0)"/>
     <use xlink:href="#DejaVuSerif-6f" transform="translate(1288.134766 0)"/>
     <use xlink:href="#DejaVuSerif-6e" transform="translate(1348.339844 0)"/>
     <use xlink:href="#DejaVuSerif-20" transform="translate(1412.744141 0)"/>
     <use xlink:href="#DejaVuSerif-61" transform="translate(1444.53125 0)"/>
     <use xlink:href="#DejaVuSerif-6e" transform="translate(1504.150391 0)"/>
     <use xlink:href="#DejaVuSerif-64" transform="translate(1568.554688 0)"/>
     <use xlink:href="#DejaVuSerif-20" transform="translate(1632.568359 0)"/>
     <use xlink:href="#DejaVuSerif-53" transform="translate(1664.355469 0)"/>
     <use xlink:href="#DejaVuSerif-74" transform="translate(1732.861328 0)"/>
     <use xlink:href="#DejaVuSerif-61" transform="translate(1773.046875 0)"/>
     <use xlink:href="#DejaVuSerif-74" transform="translate(1832.666016 0)"/>
     <use xlink:href="#DejaVuSerif-65" transform="translate(1872.851562 0)"/>
    </g>
    <!-- Dataset: braboszcz2017 - Subject Session: 061_1 -->
    <g transform="translate(365.467656 37.5015) scale(0.16 -0.16)">
     <defs>
      <path id="DejaVuSerif-73" d="M 359 184 
L 359 959 
L 691 959 
Q 703 588 923 403 
Q 1144 219 1575 219 
Q 1963 219 2166 364 
Q 2369 509 2369 788 
Q 2369 1006 2220 1140 
Q 2072 1275 1594 1428 
L 1178 1569 
Q 750 1706 558 1912 
Q 366 2119 366 2438 
Q 366 2894 700 3153 
Q 1034 3413 1625 3413 
Q 1888 3413 2178 3344 
Q 2469 3275 2778 3144 
L 2778 2419 
L 2447 2419 
Q 2434 2741 2221 2922 
Q 2009 3103 1644 3103 
Q 1281 3103 1095 2975 
Q 909 2847 909 2591 
Q 909 2381 1050 2254 
Q 1191 2128 1613 1997 
L 2069 1856 
Q 2541 1709 2748 1489 
Q 2956 1269 2956 922 
Q 2956 450 2595 179 
Q 2234 -91 1600 -91 
Q 1278 -91 972 -22 
Q 666 47 359 184 
z
" transform="scale(0.015625)"/>
      <path id="DejaVuSerif-3a" d="M 666 325 
Q 666 500 786 622 
Q 906 744 1081 744 
Q 1256 744 1376 622 
Q 1497 500 1497 325 
Q 1497 150 1378 29 
Q 1259 -91 1081 -91 
Q 903 -91 784 29 
Q 666 150 666 325 
z
M 666 2363 
Q 666 2538 786 2658 
Q 906 2778 1081 2778 
Q 1259 2778 1378 2659 
Q 1497 2541 1497 2363 
Q 1497 2184 1378 2065 
Q 1259 1947 1081 1947 
Q 906 1947 786 2067 
Q 666 2188 666 2363 
z
" transform="scale(0.015625)"/>
      <path id="DejaVuSerif-7a" d="M 256 0 
L 256 269 
L 2338 2988 
L 691 2988 
L 691 2413 
L 359 2413 
L 359 3322 
L 3078 3322 
L 3078 3053 
L 997 331 
L 2803 331 
L 2803 934 
L 3138 934 
L 3138 0 
L 256 0 
z
" transform="scale(0.015625)"/>
      <path id="DejaVuSerif-2d" d="M 281 1959 
L 1881 1959 
L 1881 1472 
L 281 1472 
L 281 1959 
z
" transform="scale(0.015625)"/>
      <path id="DejaVuSerif-75" d="M 2266 3322 
L 3341 3322 
L 3341 331 
L 3884 331 
L 3884 0 
L 2766 0 
L 2766 588 
Q 2606 256 2353 82 
Q 2100 -91 1766 -91 
Q 1213 -91 952 223 
Q 691 538 691 1209 
L 691 2988 
L 172 2988 
L 172 3322 
L 1269 3322 
L 1269 1388 
Q 1269 781 1417 556 
Q 1566 331 1947 331 
Q 2347 331 2556 625 
Q 2766 919 2766 1478 
L 2766 2988 
L 2266 2988 
L 2266 3322 
z
" transform="scale(0.015625)"/>
      <path id="DejaVuSerif-6a" d="M 641 4353 
Q 641 4497 745 4603 
Q 850 4709 997 4709 
Q 1141 4709 1245 4603 
Q 1350 4497 1350 4353 
Q 1350 4206 1248 4103 
Q 1147 4000 997 4000 
Q 850 4000 745 4103 
Q 641 4206 641 4353 
z
M 781 2988 
L 238 2988 
L 238 3322 
L 1356 3322 
L 1356 -325 
Q 1356 -838 1051 -1130 
Q 747 -1422 213 -1422 
Q -13 -1422 -217 -1370 
Q -422 -1319 -616 -1216 
L -616 -531 
L -319 -531 
Q -297 -831 -164 -972 
Q -31 -1113 225 -1113 
Q 509 -1113 645 -920 
Q 781 -728 781 -325 
L 781 2988 
z
" transform="scale(0.015625)"/>
      <path id="DejaVuSerif-36" d="M 2094 219 
Q 2534 219 2771 542 
Q 3009 866 3009 1472 
Q 3009 2078 2771 2401 
Q 2534 2725 2094 2725 
Q 1647 2725 1412 2412 
Q 1178 2100 1178 1509 
Q 1178 888 1415 553 
Q 1653 219 2094 219 
z
M 1075 2569 
Q 1288 2803 1556 2918 
Q 1825 3034 2163 3034 
Q 2859 3034 3264 2615 
Q 3669 2197 3669 1472 
Q 3669 763 3233 336 
Q 2797 -91 2069 -91 
Q 1278 -91 853 498 
Q 428 1088 428 2181 
Q 428 3406 931 4078 
Q 1434 4750 2350 4750 
Q 2597 4750 2869 4703 
Q 3141 4656 3425 4563 
L 3425 3794 
L 3072 3794 
Q 3034 4109 2831 4275 
Q 2628 4441 2284 4441 
Q 1678 4441 1381 3981 
Q 1084 3522 1075 2569 
z
" transform="scale(0.015625)"/>
      <path id="DejaVuSerif-5f" d="M 3200 -1259 
L 3200 -1509 
L 0 -1509 
L 0 -1259 
L 3200 -1259 
z
" transform="scale(0.015625)"/>
     </defs>
     <use xlink:href="#DejaVuSerif-44"/>
     <use xlink:href="#DejaVuSerif-61" transform="translate(80.175781 0)"/>
     <use xlink:href="#DejaVuSerif-74" transform="translate(139.794922 0)"/>
     <use xlink:href="#DejaVuSerif-61" transform="translate(179.980469 0)"/>
     <use xlink:href="#DejaVuSerif-73" transform="translate(239.599609 0)"/>
     <use xlink:href="#DejaVuSerif-65" transform="translate(290.917969 0)"/>
     <use xlink:href="#DejaVuSerif-74" transform="translate(350.097656 0)"/>
     <use xlink:href="#DejaVuSerif-3a" transform="translate(390.283203 0)"/>
     <use xlink:href="#DejaVuSerif-20" transform="translate(423.974609 0)"/>
     <use xlink:href="#DejaVuSerif-62" transform="translate(455.761719 0)"/>
     <use xlink:href="#DejaVuSerif-72" transform="translate(519.775391 0)"/>
     <use xlink:href="#DejaVuSerif-61" transform="translate(567.578125 0)"/>
     <use xlink:href="#DejaVuSerif-62" transform="translate(627.197266 0)"/>
     <use xlink:href="#DejaVuSerif-6f" transform="translate(691.210938 0)"/>
     <use xlink:href="#DejaVuSerif-73" transform="translate(751.416016 0)"/>
     <use xlink:href="#DejaVuSerif-7a" transform="translate(802.734375 0)"/>
     <use xlink:href="#DejaVuSerif-63" transform="translate(855.419922 0)"/>
     <use xlink:href="#DejaVuSerif-7a" transform="translate(911.425781 0)"/>
     <use xlink:href="#DejaVuSerif-32" transform="translate(964.111328 0)"/>
     <use xlink:href="#DejaVuSerif-30" transform="translate(1027.734375 0)"/>
     <use xlink:href="#DejaVuSerif-31" transform="translate(1091.357422 0)"/>
     <use xlink:href="#DejaVuSerif-37" transform="translate(1154.980469 0)"/>
     <use xlink:href="#DejaVuSerif-20" transform="translate(1218.603516 0)"/>
     <use xlink:href="#DejaVuSerif-2d" transform="translate(1250.390625 0)"/>
     <use xlink:href="#DejaVuSerif-20" transform="translate(1284.179688 0)"/>
     <use xlink:href="#DejaVuSerif-53" transform="translate(1315.966797 0)"/>
     <use xlink:href="#DejaVuSerif-75" transform="translate(1384.472656 0)"/>
     <use xlink:href="#DejaVuSerif-62" transform="translate(1448.876953 0)"/>
     <use xlink:href="#DejaVuSerif-6a" transform="translate(1512.890625 0)"/>
     <use xlink:href="#DejaVuSerif-65" transform="translate(1543.896484 0)"/>
     <use xlink:href="#DejaVuSerif-63" transform="translate(1603.076172 0)"/>
     <use xlink:href="#DejaVuSerif-74" transform="translate(1659.082031 0)"/>
     <use xlink:href="#DejaVuSerif-20" transform="translate(1699.267578 0)"/>
     <use xlink:href="#DejaVuSerif-53" transform="translate(1731.054688 0)"/>
     <use xlink:href="#DejaVuSerif-65" transform="translate(1799.560547 0)"/>
     <use xlink:href="#DejaVuSerif-73" transform="translate(1858.740234 0)"/>
     <use xlink:href="#DejaVuSerif-73" transform="translate(1910.058594 0)"/>
     <use xlink:href="#DejaVuSerif-69" transform="translate(1961.376953 0)"/>
     <use xlink:href="#DejaVuSerif-6f" transform="translate(1993.359375 0)"/>
     <use xlink:href="#DejaVuSerif-6e" transform="translate(2053.564453 0)"/>
     <use xlink:href="#DejaVuSerif-3a" transform="translate(2117.96875 0)"/>
     <use xlink:href="#DejaVuSerif-20" transform="translate(2151.660156 0)"/>
     <use xlink:href="#DejaVuSerif-30" transform="translate(2183.447266 0)"/>
     <use xlink:href="#DejaVuSerif-36" transform="translate(2247.070312 0)"/>
     <use xlink:href="#DejaVuSerif-31" transform="translate(2310.693359 0)"/>
     <use xlink:href="#DejaVuSerif-5f" transform="translate(2374.316406 0)"/>
     <use xlink:href="#DejaVuSerif-31" transform="translate(2424.316406 0)"/>
    </g>
   </g>
   <g id="legend_1">
    <g id="text_21">
     <!-- State -->
     <g transform="translate(125.514219 64.179469) scale(0.13 -0.13)">
      <use xlink:href="#DejaVuSerif-53"/>
      <use xlink:href="#DejaVuSerif-74" transform="translate(68.505859 0)"/>
      <use xlink:href="#DejaVuSerif-61" transform="translate(108.691406 0)"/>
      <use xlink:href="#DejaVuSerif-74" transform="translate(168.310547 0)"/>
      <use xlink:href="#DejaVuSerif-65" transform="translate(208.496094 0)"/>
     </g>
    </g>
    <g id="patch_25">
     <path d="M 75.856406 82.001187 
L 99.856406 82.001187 
L 99.856406 73.601187 
L 75.856406 73.601187 
z
" style="fill: #6a80d1; stroke: #545454; stroke-linejoin: miter"/>
    </g>
    <g id="text_22">
     <!-- On-target -->
     <g transform="translate(109.456406 82.001187) scale(0.12 -0.12)">
      <defs>
       <path id="DejaVuSerif-4f" d="M 2625 244 
Q 3391 244 3781 770 
Q 4172 1297 4172 2328 
Q 4172 3363 3781 3889 
Q 3391 4416 2625 4416 
Q 1856 4416 1465 3889 
Q 1075 3363 1075 2328 
Q 1075 1297 1465 770 
Q 1856 244 2625 244 
z
M 2625 -91 
Q 2150 -91 1751 65 
Q 1353 222 1050 525 
Q 700 875 529 1319 
Q 359 1763 359 2328 
Q 359 2894 529 3339 
Q 700 3784 1050 4134 
Q 1356 4441 1750 4595 
Q 2144 4750 2625 4750 
Q 3641 4750 4266 4084 
Q 4891 3419 4891 2328 
Q 4891 1769 4719 1320 
Q 4547 872 4197 525 
Q 3891 219 3497 64 
Q 3103 -91 2625 -91 
z
" transform="scale(0.015625)"/>
      </defs>
      <use xlink:href="#DejaVuSerif-4f"/>
      <use xlink:href="#DejaVuSerif-6e" transform="translate(81.982422 0)"/>
      <use xlink:href="#DejaVuSerif-2d" transform="translate(146.386719 0)"/>
      <use xlink:href="#DejaVuSerif-74" transform="translate(180.175781 0)"/>
      <use xlink:href="#DejaVuSerif-61" transform="translate(220.361328 0)"/>
      <use xlink:href="#DejaVuSerif-72" transform="translate(279.980469 0)"/>
      <use xlink:href="#DejaVuSerif-67" transform="translate(327.783203 0)"/>
      <use xlink:href="#DejaVuSerif-65" transform="translate(391.796875 0)"/>
      <use xlink:href="#DejaVuSerif-74" transform="translate(450.976562 0)"/>
     </g>
    </g>
    <g id="patch_26">
     <path d="M 75.856406 99.785562 
L 99.856406 99.785562 
L 99.856406 91.385562 
L 75.856406 91.385562 
z
" style="fill: #c46156; stroke: #545454; stroke-linejoin: miter"/>
    </g>
    <g id="text_23">
     <!-- Mind-wandering -->
     <g transform="translate(109.456406 99.785562) scale(0.12 -0.12)">
      <defs>
       <path id="DejaVuSerif-4d" d="M 353 0 
L 353 331 
L 947 331 
L 947 4331 
L 319 4331 
L 319 4666 
L 1678 4666 
L 3316 1344 
L 4953 4666 
L 6228 4666 
L 6228 4331 
L 5606 4331 
L 5606 331 
L 6203 331 
L 6203 0 
L 4378 0 
L 4378 331 
L 4972 331 
L 4972 3938 
L 3372 684 
L 2931 684 
L 1331 3938 
L 1331 331 
L 1925 331 
L 1925 0 
L 353 0 
z
" transform="scale(0.015625)"/>
       <path id="DejaVuSerif-77" d="M 3072 3322 
L 3922 728 
L 4672 2988 
L 4191 2988 
L 4191 3322 
L 5394 3322 
L 5394 2988 
L 5025 2988 
L 4038 0 
L 3559 0 
L 2741 2484 
L 1919 0 
L 1459 0 
L 475 2988 
L 103 2988 
L 103 3322 
L 1606 3322 
L 1606 2988 
L 1069 2988 
L 1813 728 
L 2669 3322 
L 3072 3322 
z
" transform="scale(0.015625)"/>
      </defs>
      <use xlink:href="#DejaVuSerif-4d"/>
      <use xlink:href="#DejaVuSerif-69" transform="translate(102.392578 0)"/>
      <use xlink:href="#DejaVuSerif-6e" transform="translate(134.375 0)"/>
      <use xlink:href="#DejaVuSerif-64" transform="translate(198.779297 0)"/>
      <use xlink:href="#DejaVuSerif-2d" transform="translate(262.792969 0)"/>
      <use xlink:href="#DejaVuSerif-77" transform="translate(296.582031 0)"/>
      <use xlink:href="#DejaVuSerif-61" transform="translate(382.177734 0)"/>
      <use xlink:href="#DejaVuSerif-6e" transform="translate(441.796875 0)"/>
      <use xlink:href="#DejaVuSerif-64" transform="translate(506.201172 0)"/>
      <use xlink:href="#DejaVuSerif-65" transform="translate(570.214844 0)"/>
      <use xlink:href="#DejaVuSerif-72" transform="translate(629.394531 0)"/>
      <use xlink:href="#DejaVuSerif-69" transform="translate(677.197266 0)"/>
      <use xlink:href="#DejaVuSerif-6e" transform="translate(709.179688 0)"/>
      <use xlink:href="#DejaVuSerif-67" transform="translate(773.583984 0)"/>
     </g>
    </g>
   </g>
  </g>
 </g>
 <defs>
  <clipPath id="p52362dbbac">
   <rect x="65.056406" y="43.5015" width="998.89" height="376.812711"/>
  </clipPath>
 </defs>
</svg>
