<svg xmlns="http://www.w3.org/2000/svg" xmlns:xlink="http://www.w3.org/1999/xlink" contentStyleType="text/css" data-diagram-type="JSON" height="750px" preserveAspectRatio="none" style="width:1737px;height:750px;background:#FFFFFF;" version="1.1" viewBox="0 0 1737 750" width="1737px" zoomAndPan="magnify"><defs/><g><rect fill="#F1F1F1" height="20.2969" rx="5" ry="5" style="stroke:#F1F1F1;stroke-width:1.5;" width="210.0049" x="10" y="498.375"/><rect fill="#269056" height="20.2969" rx="2" ry="2" style="stroke:#269056;stroke-width:1;" width="208.0049" x="11.5" y="498.375"/><text fill="#FFFFFF" font-family="sans-serif" font-size="14" font-weight="bold" lengthAdjust="spacing" textLength="175.3828" x="15" y="513.3701">BandPowerStats.stats</text><text fill="#FFFFFF" font-family="sans-serif" font-size="14" font-weight="bold" lengthAdjust="spacing" textLength="14.6221" x="200.3828" y="513.3701">&#160;&#160;&#160;</text><line style="stroke:#000000;stroke-width:1;" x1="195.3828" x2="195.3828" y1="498.375" y2="518.6719"/><rect fill="none" height="20.2969" rx="5" ry="5" style="stroke:#000000;stroke-width:1.5;" width="210.0049" x="10" y="498.375"/><rect fill="#F1F1F1" height="60.8906" rx="5" ry="5" style="stroke:#F1F1F1;stroke-width:1.5;" width="253.0098" x="257" y="478.0234"/><rect fill="#269C6D" height="20.2969" rx="2" ry="2" style="stroke:#269C6D;stroke-width:1;" width="251.0098" x="258.5" y="478.0234"/><text fill="#000000" font-family="sans-serif" font-size="14" font-weight="bold" lengthAdjust="spacing" textLength="77.9434" x="262" y="493.0186">data_type</text><text fill="#000000" font-family="sans-serif" font-size="14" font-weight="bold" lengthAdjust="spacing" textLength="106.1416" x="398.8682" y="493.0186">Dict[str, dict]</text><line style="stroke:#000000;stroke-width:1;" x1="393.8682" x2="393.8682" y1="478.0234" y2="498.3203"/><line style="stroke:#000000;stroke-width:1;" x1="257" x2="510.0098" y1="498.3203" y2="498.3203"/><text fill="#000000" font-family="sans-serif" font-size="14" font-weight="bold" lengthAdjust="spacing" textLength="95.4297" x="262" y="513.3154">band_power</text><text fill="#000000" font-family="sans-serif" font-size="14" lengthAdjust="spacing" textLength="13.3506" x="398.8682" y="513.3154">&#160;&#160;&#160;</text><line style="stroke:#000000;stroke-width:1;" x1="393.8682" x2="393.8682" y1="498.3203" y2="518.6172"/><line style="stroke:#000000;stroke-width:1;" x1="257" x2="510.0098" y1="518.6172" y2="518.6172"/><text fill="#000000" font-family="sans-serif" font-size="14" font-weight="bold" lengthAdjust="spacing" textLength="126.8682" x="262" y="533.6123">log_band_power</text><text fill="#000000" font-family="sans-serif" font-size="14" lengthAdjust="spacing" textLength="13.3506" x="398.8682" y="533.6123">&#160;&#160;&#160;</text><line style="stroke:#000000;stroke-width:1;" x1="393.8682" x2="393.8682" y1="518.6172" y2="538.9141"/><rect fill="none" height="60.8906" rx="5" ry="5" style="stroke:#000000;stroke-width:1.5;" width="253.0098" x="257" y="478.0234"/><rect fill="#F1F1F1" height="81.1875" rx="5" ry="5" style="stroke:#F1F1F1;stroke-width:1.5;" width="240.7119" x="547" y="443.9297"/><rect fill="#44C0A5" height="20.2969" rx="2" ry="2" style="stroke:#44C0A5;stroke-width:1;" width="238.7119" x="548.5" y="443.9297"/><text fill="#000000" font-family="sans-serif" font-size="14" font-weight="bold" lengthAdjust="spacing" textLength="96.4346" x="552" y="458.9248">aggregation</text><text fill="#000000" font-family="sans-serif" font-size="14" font-weight="bold" lengthAdjust="spacing" textLength="106.1416" x="676.5703" y="458.9248">Dict[str, dict]</text><line style="stroke:#000000;stroke-width:1;" x1="671.5703" x2="671.5703" y1="443.9297" y2="464.2266"/><line style="stroke:#000000;stroke-width:1;" x1="547" x2="787.7119" y1="464.2266" y2="464.2266"/><text fill="#000000" font-family="sans-serif" font-size="14" font-weight="bold" lengthAdjust="spacing" textLength="61.6533" x="552" y="479.2217">all_data</text><text fill="#000000" font-family="sans-serif" font-size="14" lengthAdjust="spacing" textLength="13.3506" x="676.5703" y="479.2217">&#160;&#160;&#160;</text><line style="stroke:#000000;stroke-width:1;" x1="671.5703" x2="671.5703" y1="464.2266" y2="484.5234"/><line style="stroke:#000000;stroke-width:1;" x1="547" x2="787.7119" y1="484.5234" y2="484.5234"/><text fill="#000000" font-family="sans-serif" font-size="14" font-weight="bold" lengthAdjust="spacing" textLength="74.1289" x="552" y="499.5186">by_state*</text><text fill="#000000" font-family="sans-serif" font-size="14" lengthAdjust="spacing" textLength="13.3506" x="676.5703" y="499.5186">&#160;&#160;&#160;</text><line style="stroke:#000000;stroke-width:1;" x1="671.5703" x2="671.5703" y1="484.5234" y2="504.8203"/><line style="stroke:#000000;stroke-width:1;" x1="547" x2="787.7119" y1="504.8203" y2="504.8203"/><text fill="#000000" font-family="sans-serif" font-size="14" font-weight="bold" lengthAdjust="spacing" textLength="114.5703" x="552" y="519.8154">by_condition**</text><text fill="#000000" font-family="sans-serif" font-size="14" lengthAdjust="spacing" textLength="13.3506" x="676.5703" y="519.8154">&#160;&#160;&#160;</text><line style="stroke:#000000;stroke-width:1;" x1="671.5703" x2="671.5703" y1="504.8203" y2="525.1172"/><rect fill="none" height="81.1875" rx="5" ry="5" style="stroke:#000000;stroke-width:1.5;" width="240.7119" x="547" y="443.9297"/><rect fill="#F1F1F1" height="60.8906" rx="5" ry="5" style="stroke:#F1F1F1;stroke-width:1.5;" width="204.3721" x="870" y="356.0234"/><rect fill="#4EC1C1" height="20.2969" rx="2" ry="2" style="stroke:#4EC1C1;stroke-width:1;" width="202.3721" x="871.5" y="356.0234"/><text fill="#000000" font-family="sans-serif" font-size="14" font-weight="bold" lengthAdjust="spacing" textLength="73.7119" x="875" y="371.0186">filter_key</text><text fill="#000000" font-family="sans-serif" font-size="14" font-weight="bold" lengthAdjust="spacing" textLength="106.1416" x="963.2305" y="371.0186">Dict[str, dict]</text><line style="stroke:#000000;stroke-width:1;" x1="958.2305" x2="958.2305" y1="356.0234" y2="376.3203"/><line style="stroke:#000000;stroke-width:1;" x1="870" x2="1074.3721" y1="376.3203" y2="376.3203"/><text fill="#000000" font-family="sans-serif" font-size="14" font-weight="bold" lengthAdjust="spacing" textLength="58.2969" x="875" y="391.3154">filtered</text><text fill="#000000" font-family="sans-serif" font-size="14" lengthAdjust="spacing" textLength="13.3506" x="963.2305" y="391.3154">&#160;&#160;&#160;</text><line style="stroke:#000000;stroke-width:1;" x1="958.2305" x2="958.2305" y1="376.3203" y2="396.6172"/><line style="stroke:#000000;stroke-width:1;" x1="870" x2="1074.3721" y1="396.6172" y2="396.6172"/><text fill="#000000" font-family="sans-serif" font-size="14" font-weight="bold" lengthAdjust="spacing" textLength="78.2305" x="875" y="411.6123">unfiltered</text><text fill="#000000" font-family="sans-serif" font-size="14" lengthAdjust="spacing" textLength="13.3506" x="963.2305" y="411.6123">&#160;&#160;&#160;</text><line style="stroke:#000000;stroke-width:1;" x1="958.2305" x2="958.2305" y1="396.6172" y2="416.9141"/><rect fill="none" height="60.8906" rx="5" ry="5" style="stroke:#000000;stroke-width:1.5;" width="204.3721" x="870" y="356.0234"/><rect fill="#F1F1F1" height="60.8906" rx="5" ry="5" style="stroke:#F1F1F1;stroke-width:1.5;" width="188.082" x="1164" y="307.0234"/><rect fill="#349BA9" height="20.2969" rx="2" ry="2" style="stroke:#349BA9;stroke-width:1;" width="186.082" x="1165.5" y="307.0234"/><text fill="#000000" font-family="sans-serif" font-size="14" font-weight="bold" lengthAdjust="spacing" textLength="61.9404" x="1169" y="322.0186">channel</text><text fill="#000000" font-family="sans-serif" font-size="14" font-weight="bold" lengthAdjust="spacing" textLength="106.1416" x="1240.9404" y="322.0186">Dict[str, dict]</text><line style="stroke:#000000;stroke-width:1;" x1="1235.9404" x2="1235.9404" y1="307.0234" y2="327.3203"/><line style="stroke:#000000;stroke-width:1;" x1="1164" x2="1352.082" y1="327.3203" y2="327.3203"/><text fill="#000000" font-family="sans-serif" font-size="14" font-weight="bold" lengthAdjust="spacing" textLength="29.3262" x="1169" y="342.3154">Fp1</text><text fill="#000000" font-family="sans-serif" font-size="14" lengthAdjust="spacing" textLength="13.3506" x="1240.9404" y="342.3154">&#160;&#160;&#160;</text><line style="stroke:#000000;stroke-width:1;" x1="1235.9404" x2="1235.9404" y1="327.3203" y2="347.6172"/><line style="stroke:#000000;stroke-width:1;" x1="1164" x2="1352.082" y1="347.6172" y2="347.6172"/><text fill="#000000" font-family="sans-serif" font-size="14" font-weight="bold" lengthAdjust="spacing" textLength="20.0498" x="1169" y="362.6123">Oz</text><text fill="#000000" font-family="sans-serif" font-size="14" lengthAdjust="spacing" textLength="13.3506" x="1240.9404" y="362.6123">&#160;&#160;&#160;</text><line style="stroke:#000000;stroke-width:1;" x1="1235.9404" x2="1235.9404" y1="347.6172" y2="367.9141"/><rect fill="none" height="60.8906" rx="5" ry="5" style="stroke:#000000;stroke-width:1.5;" width="188.082" x="1164" y="307.0234"/><rect fill="#F1F1F1" height="345.0469" rx="5" ry="5" style="stroke:#F1F1F1;stroke-width:1.5;" width="241.792" x="1397" y="10"/><rect fill="#22A5B9" height="20.2969" rx="2" ry="2" style="stroke:#22A5B9;stroke-width:1;" width="239.792" x="1398.5" y="10"/><text fill="#000000" font-family="sans-serif" font-size="14" font-weight="bold" lengthAdjust="spacing" textLength="81.6621" x="1402" y="24.9951">stat_name</text><text fill="#000000" font-family="sans-serif" font-size="14" font-weight="bold" lengthAdjust="spacing" textLength="106.2578" x="1527.5342" y="24.9951">Dict[str, Any]</text><line style="stroke:#000000;stroke-width:1;" x1="1522.5342" x2="1522.5342" y1="10" y2="30.2969"/><line style="stroke:#000000;stroke-width:1;" x1="1397" x2="1638.792" y1="30.2969" y2="30.2969"/><text fill="#000000" font-family="sans-serif" font-size="14" font-weight="bold" lengthAdjust="spacing" textLength="43.4971" x="1402" y="45.292">mean</text><text fill="#000000" font-family="sans-serif" font-size="14" lengthAdjust="spacing" textLength="31.4521" x="1527.5342" y="45.292">float</text><line style="stroke:#000000;stroke-width:1;" x1="1522.5342" x2="1522.5342" y1="30.2969" y2="50.5938"/><line style="stroke:#000000;stroke-width:1;" x1="1397" x2="1638.792" y1="50.5938" y2="50.5938"/><text fill="#000000" font-family="sans-serif" font-size="14" font-weight="bold" lengthAdjust="spacing" textLength="67.4844" x="1402" y="65.5889">variance</text><text fill="#000000" font-family="sans-serif" font-size="14" lengthAdjust="spacing" textLength="31.4521" x="1527.5342" y="65.5889">float</text><line style="stroke:#000000;stroke-width:1;" x1="1522.5342" x2="1522.5342" y1="50.5938" y2="70.8906"/><line style="stroke:#000000;stroke-width:1;" x1="1397" x2="1638.792" y1="70.8906" y2="70.8906"/><text fill="#000000" font-family="sans-serif" font-size="14" font-weight="bold" lengthAdjust="spacing" textLength="71.873" x="1402" y="85.8857">std_error</text><text fill="#000000" font-family="sans-serif" font-size="14" lengthAdjust="spacing" textLength="31.4521" x="1527.5342" y="85.8857">float</text><line style="stroke:#000000;stroke-width:1;" x1="1522.5342" x2="1522.5342" y1="70.8906" y2="91.1875"/><line style="stroke:#000000;stroke-width:1;" x1="1397" x2="1638.792" y1="91.1875" y2="91.1875"/><text fill="#000000" font-family="sans-serif" font-size="14" font-weight="bold" lengthAdjust="spacing" textLength="79.1875" x="1402" y="106.1826">min_value</text><text fill="#000000" font-family="sans-serif" font-size="14" lengthAdjust="spacing" textLength="31.4521" x="1527.5342" y="106.1826">float</text><line style="stroke:#000000;stroke-width:1;" x1="1522.5342" x2="1522.5342" y1="91.1875" y2="111.4844"/><line style="stroke:#000000;stroke-width:1;" x1="1397" x2="1638.792" y1="111.4844" y2="111.4844"/><text fill="#000000" font-family="sans-serif" font-size="14" font-weight="bold" lengthAdjust="spacing" textLength="112.875" x="1402" y="126.4795">lower_quartile</text><text fill="#000000" font-family="sans-serif" font-size="14" lengthAdjust="spacing" textLength="31.4521" x="1527.5342" y="126.4795">float</text><line style="stroke:#000000;stroke-width:1;" x1="1522.5342" x2="1522.5342" y1="111.4844" y2="131.7813"/><line style="stroke:#000000;stroke-width:1;" x1="1397" x2="1638.792" y1="131.7813" y2="131.7813"/><text fill="#000000" font-family="sans-serif" font-size="14" font-weight="bold" lengthAdjust="spacing" textLength="58.3174" x="1402" y="146.7764">median</text><text fill="#000000" font-family="sans-serif" font-size="14" lengthAdjust="spacing" textLength="31.4521" x="1527.5342" y="146.7764">float</text><line style="stroke:#000000;stroke-width:1;" x1="1522.5342" x2="1522.5342" y1="131.7813" y2="152.0781"/><line style="stroke:#000000;stroke-width:1;" x1="1397" x2="1638.792" y1="152.0781" y2="152.0781"/><text fill="#000000" font-family="sans-serif" font-size="14" font-weight="bold" lengthAdjust="spacing" textLength="115.5342" x="1402" y="167.0732">upper_quartile</text><text fill="#000000" font-family="sans-serif" font-size="14" lengthAdjust="spacing" textLength="31.4521" x="1527.5342" y="167.0732">float</text><line style="stroke:#000000;stroke-width:1;" x1="1522.5342" x2="1522.5342" y1="152.0781" y2="172.375"/><line style="stroke:#000000;stroke-width:1;" x1="1397" x2="1638.792" y1="172.375" y2="172.375"/><text fill="#000000" font-family="sans-serif" font-size="14" font-weight="bold" lengthAdjust="spacing" textLength="82.8994" x="1402" y="187.3701">max_value</text><text fill="#000000" font-family="sans-serif" font-size="14" lengthAdjust="spacing" textLength="31.4521" x="1527.5342" y="187.3701">float</text><line style="stroke:#000000;stroke-width:1;" x1="1522.5342" x2="1522.5342" y1="172.375" y2="192.6719"/><line style="stroke:#000000;stroke-width:1;" x1="1397" x2="1638.792" y1="192.6719" y2="192.6719"/><text fill="#000000" font-family="sans-serif" font-size="14" font-weight="bold" lengthAdjust="spacing" textLength="21.7246" x="1402" y="207.667">iqr</text><text fill="#000000" font-family="sans-serif" font-size="14" lengthAdjust="spacing" textLength="31.4521" x="1527.5342" y="207.667">float</text><line style="stroke:#000000;stroke-width:1;" x1="1522.5342" x2="1522.5342" y1="192.6719" y2="212.9688"/><line style="stroke:#000000;stroke-width:1;" x1="1397" x2="1638.792" y1="212.9688" y2="212.9688"/><text fill="#000000" font-family="sans-serif" font-size="14" font-weight="bold" lengthAdjust="spacing" textLength="76.2002" x="1402" y="227.9639">skewness</text><text fill="#000000" font-family="sans-serif" font-size="14" lengthAdjust="spacing" textLength="31.4521" x="1527.5342" y="227.9639">float</text><line style="stroke:#000000;stroke-width:1;" x1="1522.5342" x2="1522.5342" y1="212.9688" y2="233.2656"/><line style="stroke:#000000;stroke-width:1;" x1="1397" x2="1638.792" y1="233.2656" y2="233.2656"/><text fill="#000000" font-family="sans-serif" font-size="14" font-weight="bold" lengthAdjust="spacing" textLength="63.957" x="1402" y="248.2607">kurtosis</text><text fill="#000000" font-family="sans-serif" font-size="14" lengthAdjust="spacing" textLength="31.4521" x="1527.5342" y="248.2607">float</text><line style="stroke:#000000;stroke-width:1;" x1="1522.5342" x2="1522.5342" y1="233.2656" y2="253.5625"/><line style="stroke:#000000;stroke-width:1;" x1="1397" x2="1638.792" y1="253.5625" y2="253.5625"/><text fill="#000000" font-family="sans-serif" font-size="14" font-weight="bold" lengthAdjust="spacing" textLength="98.9434" x="1402" y="268.5576">epoch_count</text><text fill="#000000" font-family="sans-serif" font-size="14" lengthAdjust="spacing" textLength="18.252" x="1527.5342" y="268.5576">int</text><line style="stroke:#000000;stroke-width:1;" x1="1522.5342" x2="1522.5342" y1="253.5625" y2="273.8594"/><line style="stroke:#000000;stroke-width:1;" x1="1397" x2="1638.792" y1="273.8594" y2="273.8594"/><text fill="#000000" font-family="sans-serif" font-size="14" font-weight="bold" lengthAdjust="spacing" textLength="52.0557" x="1402" y="288.8545">modes</text><text fill="#000000" font-family="sans-serif" font-size="14" lengthAdjust="spacing" textLength="50.0254" x="1527.5342" y="288.8545">list[str]</text><line style="stroke:#000000;stroke-width:1;" x1="1522.5342" x2="1522.5342" y1="273.8594" y2="294.1563"/><line style="stroke:#000000;stroke-width:1;" x1="1397" x2="1638.792" y1="294.1563" y2="294.1563"/><text fill="#000000" font-family="sans-serif" font-size="14" font-weight="bold" lengthAdjust="spacing" textLength="103.5986" x="1402" y="309.1514">modes_count</text><text fill="#000000" font-family="sans-serif" font-size="14" lengthAdjust="spacing" textLength="18.252" x="1527.5342" y="309.1514">int</text><line style="stroke:#000000;stroke-width:1;" x1="1522.5342" x2="1522.5342" y1="294.1563" y2="314.4531"/><line style="stroke:#000000;stroke-width:1;" x1="1397" x2="1638.792" y1="314.4531" y2="314.4531"/><text fill="#000000" font-family="sans-serif" font-size="14" font-weight="bold" lengthAdjust="spacing" textLength="91.5674" x="1402" y="329.4482">modes_freq</text><text fill="#000000" font-family="sans-serif" font-size="14" lengthAdjust="spacing" textLength="49.7383" x="1527.5342" y="329.4482">list[int]</text><line style="stroke:#000000;stroke-width:1;" x1="1522.5342" x2="1522.5342" y1="314.4531" y2="334.75"/><line style="stroke:#000000;stroke-width:1;" x1="1397" x2="1638.792" y1="334.75" y2="334.75"/><text fill="#000000" font-family="sans-serif" font-size="14" font-weight="bold" lengthAdjust="spacing" textLength="75.4551" x="1402" y="349.7451">is_normal</text><text fill="#000000" font-family="sans-serif" font-size="14" lengthAdjust="spacing" textLength="29.9072" x="1527.5342" y="349.7451">bool</text><line style="stroke:#000000;stroke-width:1;" x1="1522.5342" x2="1522.5342" y1="334.75" y2="355.0469"/><rect fill="none" height="345.0469" rx="5" ry="5" style="stroke:#000000;stroke-width:1.5;" width="241.792" x="1397" y="10"/><rect fill="#F1F1F1" height="20.2969" rx="5" ry="5" style="stroke:#F1F1F1;stroke-width:1.5;" width="49.3057" x="1493.5" y="373.375"/><text fill="#000000" font-family="sans-serif" font-size="14" font-weight="bold" lengthAdjust="spacing" textLength="15.9551" x="1498.5" y="388.3701">...</text><text fill="#000000" font-family="sans-serif" font-size="14" lengthAdjust="spacing" textLength="13.3506" x="1524.4551" y="388.3701">...</text><line style="stroke:#000000;stroke-width:1;" x1="1519.4551" x2="1519.4551" y1="373.375" y2="393.6719"/><rect fill="none" height="20.2969" rx="5" ry="5" style="stroke:#000000;stroke-width:1.5;" width="49.3057" x="1493.5" y="373.375"/><rect fill="#F1F1F1" height="40.5938" rx="5" ry="5" style="stroke:#F1F1F1;stroke-width:1.5;" width="188.082" x="1164" y="386.0234"/><rect fill="#349BA9" height="20.2969" rx="2" ry="2" style="stroke:#349BA9;stroke-width:1;" width="186.082" x="1165.5" y="386.0234"/><text fill="#000000" font-family="sans-serif" font-size="14" font-weight="bold" lengthAdjust="spacing" textLength="61.9404" x="1169" y="401.0186">channel</text><text fill="#000000" font-family="sans-serif" font-size="14" font-weight="bold" lengthAdjust="spacing" textLength="106.1416" x="1240.9404" y="401.0186">Dict[str, dict]</text><line style="stroke:#000000;stroke-width:1;" x1="1235.9404" x2="1235.9404" y1="386.0234" y2="406.3203"/><line style="stroke:#000000;stroke-width:1;" x1="1164" x2="1352.082" y1="406.3203" y2="406.3203"/><text fill="#000000" font-family="sans-serif" font-size="14" font-weight="bold" lengthAdjust="spacing" textLength="15.9551" x="1169" y="421.3154">...</text><text fill="#000000" font-family="sans-serif" font-size="14" lengthAdjust="spacing" textLength="13.3506" x="1240.9404" y="421.3154">...</text><line style="stroke:#000000;stroke-width:1;" x1="1235.9404" x2="1235.9404" y1="406.3203" y2="426.6172"/><rect fill="none" height="40.5938" rx="5" ry="5" style="stroke:#000000;stroke-width:1.5;" width="188.082" x="1164" y="386.0234"/><rect fill="#F1F1F1" height="60.8906" rx="5" ry="5" style="stroke:#F1F1F1;stroke-width:1.5;" width="166.8018" x="888.5" y="464.0234"/><rect fill="#79CDCA" height="20.2969" rx="2" ry="2" style="stroke:#79CDCA;stroke-width:1;" width="164.8018" x="890" y="464.0234"/><text fill="#000000" font-family="sans-serif" font-size="14" font-weight="bold" lengthAdjust="spacing" textLength="40.6602" x="893.5" y="479.0186">state</text><text fill="#000000" font-family="sans-serif" font-size="14" font-weight="bold" lengthAdjust="spacing" textLength="106.1416" x="944.1602" y="479.0186">Dict[str, dict]</text><line style="stroke:#000000;stroke-width:1;" x1="939.1602" x2="939.1602" y1="464.0234" y2="484.3203"/><line style="stroke:#000000;stroke-width:1;" x1="888.5" x2="1055.3018" y1="484.3203" y2="484.3203"/><text fill="#000000" font-family="sans-serif" font-size="14" font-weight="bold" lengthAdjust="spacing" textLength="21.4512" x="893.5" y="499.3154">OT</text><text fill="#000000" font-family="sans-serif" font-size="14" lengthAdjust="spacing" textLength="13.3506" x="944.1602" y="499.3154">&#160;&#160;&#160;</text><line style="stroke:#000000;stroke-width:1;" x1="939.1602" x2="939.1602" y1="484.3203" y2="504.6172"/><line style="stroke:#000000;stroke-width:1;" x1="888.5" x2="1055.3018" y1="504.6172" y2="504.6172"/><text fill="#000000" font-family="sans-serif" font-size="14" font-weight="bold" lengthAdjust="spacing" textLength="29.374" x="893.5" y="519.6123">MW</text><text fill="#000000" font-family="sans-serif" font-size="14" lengthAdjust="spacing" textLength="13.3506" x="944.1602" y="519.6123">&#160;&#160;&#160;</text><line style="stroke:#000000;stroke-width:1;" x1="939.1602" x2="939.1602" y1="504.6172" y2="524.9141"/><rect fill="none" height="60.8906" rx="5" ry="5" style="stroke:#000000;stroke-width:1.5;" width="166.8018" x="888.5" y="464.0234"/><rect fill="#F1F1F1" height="60.8906" rx="5" ry="5" style="stroke:#F1F1F1;stroke-width:1.5;" width="204.3721" x="1156" y="445.0234"/><rect fill="#4EC1C1" height="20.2969" rx="2" ry="2" style="stroke:#4EC1C1;stroke-width:1;" width="202.3721" x="1157.5" y="445.0234"/><text fill="#000000" font-family="sans-serif" font-size="14" font-weight="bold" lengthAdjust="spacing" textLength="73.7119" x="1161" y="460.0186">filter_key</text><text fill="#000000" font-family="sans-serif" font-size="14" font-weight="bold" lengthAdjust="spacing" textLength="106.1416" x="1249.2305" y="460.0186">Dict[str, dict]</text><line style="stroke:#000000;stroke-width:1;" x1="1244.2305" x2="1244.2305" y1="445.0234" y2="465.3203"/><line style="stroke:#000000;stroke-width:1;" x1="1156" x2="1360.3721" y1="465.3203" y2="465.3203"/><text fill="#000000" font-family="sans-serif" font-size="14" font-weight="bold" lengthAdjust="spacing" textLength="58.2969" x="1161" y="480.3154">filtered</text><text fill="#000000" font-family="sans-serif" font-size="14" lengthAdjust="spacing" textLength="13.3506" x="1249.2305" y="480.3154">&#160;&#160;&#160;</text><line style="stroke:#000000;stroke-width:1;" x1="1244.2305" x2="1244.2305" y1="465.3203" y2="485.6172"/><line style="stroke:#000000;stroke-width:1;" x1="1156" x2="1360.3721" y1="485.6172" y2="485.6172"/><text fill="#000000" font-family="sans-serif" font-size="14" font-weight="bold" lengthAdjust="spacing" textLength="78.2305" x="1161" y="500.6123">unfiltered</text><text fill="#000000" font-family="sans-serif" font-size="14" lengthAdjust="spacing" textLength="13.3506" x="1249.2305" y="500.6123">&#160;&#160;&#160;</text><line style="stroke:#000000;stroke-width:1;" x1="1244.2305" x2="1244.2305" y1="485.6172" y2="505.9141"/><rect fill="none" height="60.8906" rx="5" ry="5" style="stroke:#000000;stroke-width:1.5;" width="204.3721" x="1156" y="445.0234"/><rect fill="#F1F1F1" height="40.5938" rx="5" ry="5" style="stroke:#F1F1F1;stroke-width:1.5;" width="188.082" x="1424" y="446.0234"/><rect fill="#349BA9" height="20.2969" rx="2" ry="2" style="stroke:#349BA9;stroke-width:1;" width="186.082" x="1425.5" y="446.0234"/><text fill="#000000" font-family="sans-serif" font-size="14" font-weight="bold" lengthAdjust="spacing" textLength="61.9404" x="1429" y="461.0186">channel</text><text fill="#000000" font-family="sans-serif" font-size="14" font-weight="bold" lengthAdjust="spacing" textLength="106.1416" x="1500.9404" y="461.0186">Dict[str, dict]</text><line style="stroke:#000000;stroke-width:1;" x1="1495.9404" x2="1495.9404" y1="446.0234" y2="466.3203"/><line style="stroke:#000000;stroke-width:1;" x1="1424" x2="1612.082" y1="466.3203" y2="466.3203"/><text fill="#000000" font-family="sans-serif" font-size="14" font-weight="bold" lengthAdjust="spacing" textLength="29.3262" x="1429" y="481.3154">Fp1</text><text fill="#000000" font-family="sans-serif" font-size="14" lengthAdjust="spacing" textLength="13.3506" x="1500.9404" y="481.3154">&#160;&#160;&#160;</text><line style="stroke:#000000;stroke-width:1;" x1="1495.9404" x2="1495.9404" y1="466.3203" y2="486.6172"/><rect fill="none" height="40.5938" rx="5" ry="5" style="stroke:#000000;stroke-width:1.5;" width="188.082" x="1424" y="446.0234"/><rect fill="#F1F1F1" height="20.2969" rx="5" ry="5" style="stroke:#F1F1F1;stroke-width:1.5;" width="49.3057" x="1676" y="466.375"/><text fill="#000000" font-family="sans-serif" font-size="14" font-weight="bold" lengthAdjust="spacing" textLength="15.9551" x="1681" y="481.3701">...</text><text fill="#000000" font-family="sans-serif" font-size="14" lengthAdjust="spacing" textLength="13.3506" x="1706.9551" y="481.3701">...</text><line style="stroke:#000000;stroke-width:1;" x1="1701.9551" x2="1701.9551" y1="466.375" y2="486.6719"/><rect fill="none" height="20.2969" rx="5" ry="5" style="stroke:#000000;stroke-width:1.5;" width="49.3057" x="1676" y="466.375"/><rect fill="#F1F1F1" height="20.2969" rx="5" ry="5" style="stroke:#F1F1F1;stroke-width:1.5;" width="49.3057" x="1493.5" y="505.375"/><text fill="#000000" font-family="sans-serif" font-size="14" font-weight="bold" lengthAdjust="spacing" textLength="15.9551" x="1498.5" y="520.3701">...</text><text fill="#000000" font-family="sans-serif" font-size="14" lengthAdjust="spacing" textLength="13.3506" x="1524.4551" y="520.3701">...</text><line style="stroke:#000000;stroke-width:1;" x1="1519.4551" x2="1519.4551" y1="505.375" y2="525.6719"/><rect fill="none" height="20.2969" rx="5" ry="5" style="stroke:#000000;stroke-width:1.5;" width="49.3057" x="1493.5" y="505.375"/><rect fill="#F1F1F1" height="20.2969" rx="5" ry="5" style="stroke:#F1F1F1;stroke-width:1.5;" width="49.3057" x="1233.5" y="524.375"/><text fill="#000000" font-family="sans-serif" font-size="14" font-weight="bold" lengthAdjust="spacing" textLength="15.9551" x="1238.5" y="539.3701">...</text><text fill="#000000" font-family="sans-serif" font-size="14" lengthAdjust="spacing" textLength="13.3506" x="1264.4551" y="539.3701">...</text><line style="stroke:#000000;stroke-width:1;" x1="1259.4551" x2="1259.4551" y1="524.375" y2="544.6719"/><rect fill="none" height="20.2969" rx="5" ry="5" style="stroke:#000000;stroke-width:1.5;" width="49.3057" x="1233.5" y="524.375"/><rect fill="#F1F1F1" height="101.4844" rx="5" ry="5" style="stroke:#F1F1F1;stroke-width:1.5;" width="293.7588" x="825" y="601.7813"/><rect fill="#A8D9CB" height="20.2969" rx="2" ry="2" style="stroke:#A8D9CB;stroke-width:1;" width="291.7588" x="826.5" y="601.7813"/><text fill="#000000" font-family="sans-serif" font-size="14" font-weight="bold" lengthAdjust="spacing" textLength="73.7803" x="830" y="616.7764">condition</text><text fill="#000000" font-family="sans-serif" font-size="14" font-weight="bold" lengthAdjust="spacing" textLength="190.0186" x="923.7402" y="616.7764">Dict[Tuple[str, str],dict]</text><line style="stroke:#000000;stroke-width:1;" x1="918.7402" x2="918.7402" y1="601.7813" y2="622.0781"/><line style="stroke:#000000;stroke-width:1;" x1="825" x2="1118.7588" y1="622.0781" y2="622.0781"/><text fill="#000000" font-family="sans-serif" font-size="14" font-weight="bold" lengthAdjust="spacing" textLength="75.8174" x="830" y="637.0732">(sart, OT)</text><text fill="#000000" font-family="sans-serif" font-size="14" lengthAdjust="spacing" textLength="13.3506" x="923.7402" y="637.0732">&#160;&#160;&#160;</text><line style="stroke:#000000;stroke-width:1;" x1="918.7402" x2="918.7402" y1="622.0781" y2="642.375"/><line style="stroke:#000000;stroke-width:1;" x1="825" x2="1118.7588" y1="642.375" y2="642.375"/><text fill="#000000" font-family="sans-serif" font-size="14" font-weight="bold" lengthAdjust="spacing" textLength="83.7402" x="830" y="657.3701">(sart, MW)</text><text fill="#000000" font-family="sans-serif" font-size="14" lengthAdjust="spacing" textLength="13.3506" x="923.7402" y="657.3701">&#160;&#160;&#160;</text><line style="stroke:#000000;stroke-width:1;" x1="918.7402" x2="918.7402" y1="642.375" y2="662.6719"/><line style="stroke:#000000;stroke-width:1;" x1="825" x2="1118.7588" y1="662.6719" y2="662.6719"/><text fill="#000000" font-family="sans-serif" font-size="14" font-weight="bold" lengthAdjust="spacing" textLength="61.8994" x="830" y="677.667">(vs, OT)</text><text fill="#000000" font-family="sans-serif" font-size="14" lengthAdjust="spacing" textLength="13.3506" x="923.7402" y="677.667">&#160;&#160;&#160;</text><line style="stroke:#000000;stroke-width:1;" x1="918.7402" x2="918.7402" y1="662.6719" y2="682.9688"/><line style="stroke:#000000;stroke-width:1;" x1="825" x2="1118.7588" y1="682.9688" y2="682.9688"/><text fill="#000000" font-family="sans-serif" font-size="14" font-weight="bold" lengthAdjust="spacing" textLength="54.8994" x="830" y="697.9639">(..., ...)</text><text fill="#000000" font-family="sans-serif" font-size="14" lengthAdjust="spacing" textLength="13.3506" x="923.7402" y="697.9639">&#160;&#160;&#160;</text><line style="stroke:#000000;stroke-width:1;" x1="918.7402" x2="918.7402" y1="682.9688" y2="703.2656"/><rect fill="none" height="101.4844" rx="5" ry="5" style="stroke:#000000;stroke-width:1.5;" width="293.7588" x="825" y="601.7813"/><rect fill="#F1F1F1" height="60.8906" rx="5" ry="5" style="stroke:#F1F1F1;stroke-width:1.5;" width="204.3721" x="1156" y="563.0234"/><rect fill="#4EC1C1" height="20.2969" rx="2" ry="2" style="stroke:#4EC1C1;stroke-width:1;" width="202.3721" x="1157.5" y="563.0234"/><text fill="#000000" font-family="sans-serif" font-size="14" font-weight="bold" lengthAdjust="spacing" textLength="73.7119" x="1161" y="578.0186">filter_key</text><text fill="#000000" font-family="sans-serif" font-size="14" font-weight="bold" lengthAdjust="spacing" textLength="106.1416" x="1249.2305" y="578.0186">Dict[str, dict]</text><line style="stroke:#000000;stroke-width:1;" x1="1244.2305" x2="1244.2305" y1="563.0234" y2="583.3203"/><line style="stroke:#000000;stroke-width:1;" x1="1156" x2="1360.3721" y1="583.3203" y2="583.3203"/><text fill="#000000" font-family="sans-serif" font-size="14" font-weight="bold" lengthAdjust="spacing" textLength="58.2969" x="1161" y="598.3154">filtered</text><text fill="#000000" font-family="sans-serif" font-size="14" lengthAdjust="spacing" textLength="13.3506" x="1249.2305" y="598.3154">&#160;&#160;&#160;</text><line style="stroke:#000000;stroke-width:1;" x1="1244.2305" x2="1244.2305" y1="583.3203" y2="603.6172"/><line style="stroke:#000000;stroke-width:1;" x1="1156" x2="1360.3721" y1="603.6172" y2="603.6172"/><text fill="#000000" font-family="sans-serif" font-size="14" font-weight="bold" lengthAdjust="spacing" textLength="78.2305" x="1161" y="618.6123">unfiltered</text><text fill="#000000" font-family="sans-serif" font-size="14" lengthAdjust="spacing" textLength="13.3506" x="1249.2305" y="618.6123">&#160;&#160;&#160;</text><line style="stroke:#000000;stroke-width:1;" x1="1244.2305" x2="1244.2305" y1="603.6172" y2="623.9141"/><rect fill="none" height="60.8906" rx="5" ry="5" style="stroke:#000000;stroke-width:1.5;" width="204.3721" x="1156" y="563.0234"/><rect fill="#F1F1F1" height="40.5938" rx="5" ry="5" style="stroke:#F1F1F1;stroke-width:1.5;" width="188.082" x="1424" y="554.0234"/><rect fill="#349BA9" height="20.2969" rx="2" ry="2" style="stroke:#349BA9;stroke-width:1;" width="186.082" x="1425.5" y="554.0234"/><text fill="#000000" font-family="sans-serif" font-size="14" font-weight="bold" lengthAdjust="spacing" textLength="61.9404" x="1429" y="569.0186">channel</text><text fill="#000000" font-family="sans-serif" font-size="14" font-weight="bold" lengthAdjust="spacing" textLength="106.1416" x="1500.9404" y="569.0186">Dict[str, dict]</text><line style="stroke:#000000;stroke-width:1;" x1="1495.9404" x2="1495.9404" y1="554.0234" y2="574.3203"/><line style="stroke:#000000;stroke-width:1;" x1="1424" x2="1612.082" y1="574.3203" y2="574.3203"/><text fill="#000000" font-family="sans-serif" font-size="14" font-weight="bold" lengthAdjust="spacing" textLength="29.3262" x="1429" y="589.3154">Fp1</text><text fill="#000000" font-family="sans-serif" font-size="14" lengthAdjust="spacing" textLength="13.3506" x="1500.9404" y="589.3154">&#160;&#160;&#160;</text><line style="stroke:#000000;stroke-width:1;" x1="1495.9404" x2="1495.9404" y1="574.3203" y2="594.6172"/><rect fill="none" height="40.5938" rx="5" ry="5" style="stroke:#000000;stroke-width:1.5;" width="188.082" x="1424" y="554.0234"/><rect fill="#F1F1F1" height="20.2969" rx="5" ry="5" style="stroke:#F1F1F1;stroke-width:1.5;" width="49.3057" x="1676" y="574.375"/><text fill="#000000" font-family="sans-serif" font-size="14" font-weight="bold" lengthAdjust="spacing" textLength="15.9551" x="1681" y="589.3701">...</text><text fill="#000000" font-family="sans-serif" font-size="14" lengthAdjust="spacing" textLength="13.3506" x="1706.9551" y="589.3701">...</text><line style="stroke:#000000;stroke-width:1;" x1="1701.9551" x2="1701.9551" y1="574.375" y2="594.6719"/><rect fill="none" height="20.2969" rx="5" ry="5" style="stroke:#000000;stroke-width:1.5;" width="49.3057" x="1676" y="574.375"/><rect fill="#F1F1F1" height="20.2969" rx="5" ry="5" style="stroke:#F1F1F1;stroke-width:1.5;" width="49.3057" x="1493.5" y="613.375"/><text fill="#000000" font-family="sans-serif" font-size="14" font-weight="bold" lengthAdjust="spacing" textLength="15.9551" x="1498.5" y="628.3701">...</text><text fill="#000000" font-family="sans-serif" font-size="14" lengthAdjust="spacing" textLength="13.3506" x="1524.4551" y="628.3701">...</text><line style="stroke:#000000;stroke-width:1;" x1="1519.4551" x2="1519.4551" y1="613.375" y2="633.6719"/><rect fill="none" height="20.2969" rx="5" ry="5" style="stroke:#000000;stroke-width:1.5;" width="49.3057" x="1493.5" y="613.375"/><rect fill="#F1F1F1" height="20.2969" rx="5" ry="5" style="stroke:#F1F1F1;stroke-width:1.5;" width="49.3057" x="1233.5" y="642.375"/><text fill="#000000" font-family="sans-serif" font-size="14" font-weight="bold" lengthAdjust="spacing" textLength="15.9551" x="1238.5" y="657.3701">...</text><text fill="#000000" font-family="sans-serif" font-size="14" lengthAdjust="spacing" textLength="13.3506" x="1264.4551" y="657.3701">...</text><line style="stroke:#000000;stroke-width:1;" x1="1259.4551" x2="1259.4551" y1="642.375" y2="662.6719"/><rect fill="none" height="20.2969" rx="5" ry="5" style="stroke:#000000;stroke-width:1.5;" width="49.3057" x="1233.5" y="642.375"/><rect fill="#F1F1F1" height="20.2969" rx="5" ry="5" style="stroke:#F1F1F1;stroke-width:1.5;" width="49.3057" x="1233.5" y="680.375"/><text fill="#000000" font-family="sans-serif" font-size="14" font-weight="bold" lengthAdjust="spacing" textLength="15.9551" x="1238.5" y="695.3701">...</text><text fill="#000000" font-family="sans-serif" font-size="14" lengthAdjust="spacing" textLength="13.3506" x="1264.4551" y="695.3701">...</text><line style="stroke:#000000;stroke-width:1;" x1="1259.4551" x2="1259.4551" y1="680.375" y2="700.6719"/><rect fill="none" height="20.2969" rx="5" ry="5" style="stroke:#000000;stroke-width:1.5;" width="49.3057" x="1233.5" y="680.375"/><rect fill="#F1F1F1" height="20.2969" rx="5" ry="5" style="stroke:#F1F1F1;stroke-width:1.5;" width="49.3057" x="1233.5" y="718.375"/><text fill="#000000" font-family="sans-serif" font-size="14" font-weight="bold" lengthAdjust="spacing" textLength="15.9551" x="1238.5" y="733.3701">...</text><text fill="#000000" font-family="sans-serif" font-size="14" lengthAdjust="spacing" textLength="13.3506" x="1264.4551" y="733.3701">...</text><line style="stroke:#000000;stroke-width:1;" x1="1259.4551" x2="1259.4551" y1="718.375" y2="738.6719"/><rect fill="none" height="20.2969" rx="5" ry="5" style="stroke:#000000;stroke-width:1.5;" width="49.3057" x="1233.5" y="718.375"/><rect fill="#F1F1F1" height="20.2969" rx="5" ry="5" style="stroke:#F1F1F1;stroke-width:1.5;" width="195" x="570" y="543.375"/><text fill="#000000" font-family="sans-serif" font-size="14" font-weight="bold" lengthAdjust="spacing" textLength="89.5029" x="575" y="558.3701">identical to</text><text fill="#000000" font-family="sans-serif" font-size="14" lengthAdjust="spacing" textLength="85.4971" x="674.5029" y="558.3701">band_power</text><line style="stroke:#000000;stroke-width:1;" x1="669.5029" x2="669.5029" y1="543.375" y2="563.6719"/><rect fill="none" height="20.2969" rx="5" ry="5" style="stroke:#000000;stroke-width:1.5;" width="195" x="570" y="543.375"/><path d="M1339.5,337.5234 L1352.5,337.5234 C1365.8062,337.5234 1378.4787,334.8126 1390.4524,330.1078" fill="none" style="stroke:#000000;stroke-width:1;stroke-dasharray:3.0,3.0;"/><path d="M1391.6505,332.8953 L1392.5431,329.2093 L1389.2544,327.3203 L1397.4212,327.1128 L1391.6505,332.8953" fill="#000000"/><ellipse cx="1339.5" cy="337.5234" fill="#000000" rx="3" ry="3" style="stroke:#000000;stroke-width:1;"/><path d="M1339.5,357.5234 L1352.5,357.5234 C1352.6046,357.5234 1438.4629,371.0599 1486.2693,378.5984" fill="none" style="stroke:#000000;stroke-width:1;stroke-dasharray:3.0,3.0;"/><path d="M1485.7894,381.642 L1488.552,378.9584 L1486.7493,375.5548 L1493.8783,379.7983 L1485.7894,381.642" fill="#000000"/><ellipse cx="1339.5" cy="357.5234" fill="#000000" rx="3" ry="3" style="stroke:#000000;stroke-width:1;"/><path d="M1061.5,386.5234 L1074.5,386.5234 C1106.9282,386.5234 1141.5224,379.2551 1171.8041,370.3172" fill="none" style="stroke:#000000;stroke-width:1;stroke-dasharray:3.0,3.0;"/><path d="M1172.6757,373.1958 L1173.9631,369.6635 L1170.9326,367.4386 L1179.0006,368.1382 L1172.6757,373.1958" fill="#000000"/><ellipse cx="1061.5" cy="386.5234" fill="#000000" rx="3" ry="3" style="stroke:#000000;stroke-width:1;"/><path d="M1061.5,406.5234 L1074.5,406.5234 C1101.1031,406.5234 1129.8816,406.5234 1156.5662,406.5234" fill="none" style="stroke:#000000;stroke-width:1;stroke-dasharray:3.0,3.0;"/><path d="M1156.5662,409.6582 L1158.9173,406.5234 L1156.5662,403.3886 L1164.4032,406.5234 L1156.5662,409.6582" fill="#000000"/><ellipse cx="1061.5" cy="406.5234" fill="#000000" rx="3" ry="3" style="stroke:#000000;stroke-width:1;"/><path d="M776,474.5234 L789,474.5234 C807.3033,474.5234 808.6882,462.8264 825,454.5234 C847.7598,442.9384 872.8681,430.9895 895.7731,420.4021" fill="none" style="stroke:#000000;stroke-width:1;stroke-dasharray:3.0,3.0;"/><path d="M897.0692,423.2152 L897.8829,419.4301 L894.4771,417.589 L902.8058,417.162 L897.0692,423.2152" fill="#000000"/><ellipse cx="776" cy="474.5234" fill="#000000" rx="3" ry="3" style="stroke:#000000;stroke-width:1;"/><path d="M1599.5,476.5234 L1612.5,476.5234 C1631.0377,476.5234 1651.7846,476.5234 1668.4222,476.5234" fill="none" style="stroke:#000000;stroke-width:1;stroke-dasharray:3.0,3.0;"/><path d="M1668.4222,479.6473 L1670.7652,476.5234 L1668.4222,473.3995 L1676.232,476.5234 L1668.4222,479.6473" fill="#000000"/><ellipse cx="1599.5" cy="476.5234" fill="#000000" rx="3" ry="3" style="stroke:#000000;stroke-width:1;"/><path d="M1347.5,475.5234 L1360.5,475.5234 C1378.5362,475.5234 1397.7188,474.9241 1416.255,474.0347" fill="none" style="stroke:#000000;stroke-width:1;stroke-dasharray:3.0,3.0;"/><path d="M1416.4142,477.1945 L1418.6248,473.9153 L1416.0958,470.875 L1424.1544,473.6367 L1416.4142,477.1945" fill="#000000"/><ellipse cx="1347.5" cy="475.5234" fill="#000000" rx="3" ry="3" style="stroke:#000000;stroke-width:1;"/><path d="M1347.5,495.5234 L1360.5,495.5234 C1404.4485,495.5234 1454.7664,503.3306 1486.339,509.1893" fill="none" style="stroke:#000000;stroke-width:1;stroke-dasharray:3.0,3.0;"/><path d="M1485.7623,512.2324 L1488.6213,509.6218 L1486.9156,506.1462 L1493.9467,510.6309 L1485.7623,512.2324" fill="#000000"/><ellipse cx="1347.5" cy="495.5234" fill="#000000" rx="3" ry="3" style="stroke:#000000;stroke-width:1;"/><path d="M1043.5,494.5234 L1056.5,494.5234 C1086.5511,494.5234 1119.0177,492.3924 1148.9115,489.5578" fill="none" style="stroke:#000000;stroke-width:1;stroke-dasharray:3.0,3.0;"/><path d="M1149.2055,492.5744 L1151.174,489.3373 L1148.6175,486.5411 L1156.4531,488.8228 L1149.2055,492.5744" fill="#000000"/><ellipse cx="1043.5" cy="494.5234" fill="#000000" rx="3" ry="3" style="stroke:#000000;stroke-width:1;"/><path d="M1043.5,514.5234 L1056.5,514.5234 C1116.8282,514.5234 1186.8432,523.555 1226.2831,529.4798" fill="none" style="stroke:#000000;stroke-width:1;stroke-dasharray:3.0,3.0;"/><path d="M1225.8271,532.4672 L1228.5236,529.8218 L1226.739,526.4925 L1233.7514,530.6198 L1225.8271,532.4672" fill="#000000"/><ellipse cx="1043.5" cy="514.5234" fill="#000000" rx="3" ry="3" style="stroke:#000000;stroke-width:1;"/><path d="M776,494.5234 L789,494.5234 C818.9575,494.5234 851.6811,494.5234 881.041,494.5234" fill="none" style="stroke:#000000;stroke-width:1;stroke-dasharray:3.0,3.0;"/><path d="M881.041,497.6378 L883.3768,494.5234 L881.041,491.409 L888.827,494.5234 L881.041,497.6378" fill="#000000"/><ellipse cx="776" cy="494.5234" fill="#000000" rx="3" ry="3" style="stroke:#000000;stroke-width:1;"/><path d="M1599.5,584.5234 L1612.5,584.5234 C1631.0377,584.5234 1651.7846,584.5234 1668.4222,584.5234" fill="none" style="stroke:#000000;stroke-width:1;stroke-dasharray:3.0,3.0;"/><path d="M1668.4222,587.6473 L1670.7652,584.5234 L1668.4222,581.3995 L1676.232,584.5234 L1668.4222,587.6473" fill="#000000"/><ellipse cx="1599.5" cy="584.5234" fill="#000000" rx="3" ry="3" style="stroke:#000000;stroke-width:1;"/><path d="M1347.5,593.5234 L1360.5,593.5234 C1378.638,593.5234 1397.8699,592.2582 1416.4232,590.3806" fill="none" style="stroke:#000000;stroke-width:1;stroke-dasharray:3.0,3.0;"/><path d="M1416.7593,593.5425 L1418.7946,590.1286 L1416.0871,587.2188 L1424.3279,589.5404 L1416.7593,593.5425" fill="#000000"/><ellipse cx="1347.5" cy="593.5234" fill="#000000" rx="3" ry="3" style="stroke:#000000;stroke-width:1;"/><path d="M1347.5,613.5234 L1360.5,613.5234 C1404.1845,613.5234 1454.5683,617.427 1486.2275,620.3564" fill="none" style="stroke:#000000;stroke-width:1;stroke-dasharray:3.0,3.0;"/><path d="M1485.9392,623.4084 L1488.5165,620.5726 L1486.5158,617.3044 L1493.8575,621.0772 L1485.9392,623.4084" fill="#000000"/><ellipse cx="1347.5" cy="613.5234" fill="#000000" rx="3" ry="3" style="stroke:#000000;stroke-width:1;"/><path d="M1107,632.5234 L1120,632.5234 C1136.5686,632.5234 1153.8486,629.8701 1170.3417,625.9476" fill="none" style="stroke:#000000;stroke-width:1;stroke-dasharray:3.0,3.0;"/><path d="M1171.0963,628.9544 L1172.5968,625.3816 L1169.5871,622.9407 L1177.8588,624.061 L1171.0963,628.9544" fill="#000000"/><ellipse cx="1107" cy="632.5234" fill="#000000" rx="3" ry="3" style="stroke:#000000;stroke-width:1;"/><path d="M1107,652.5234 L1120,652.5234 C1156.2838,652.5234 1197.9533,652.5234 1225.8224,652.5234" fill="none" style="stroke:#000000;stroke-width:1;stroke-dasharray:3.0,3.0;"/><path d="M1225.8224,655.6559 L1228.1717,652.5234 L1225.8224,649.391 L1233.6536,652.5234 L1225.8224,655.6559" fill="#000000"/><ellipse cx="1107" cy="652.5234" fill="#000000" rx="3" ry="3" style="stroke:#000000;stroke-width:1;"/><path d="M1107,672.5234 L1120,672.5234 C1156.7504,672.5234 1198.5621,678.9234 1226.3325,684.0909" fill="none" style="stroke:#000000;stroke-width:1;stroke-dasharray:3.0,3.0;"/><path d="M1225.7651,687.0687 L1228.5658,684.5165 L1226.8999,681.1132 L1233.7769,685.5094 L1225.7651,687.0687" fill="#000000"/><ellipse cx="1107" cy="672.5234" fill="#000000" rx="3" ry="3" style="stroke:#000000;stroke-width:1;"/><path d="M1107,693.5234 L1120,693.5234 C1137.5091,693.5234 1139.2814,704.3218 1156,709.5234 C1179.0721,716.7019 1205.9847,721.5882 1226.2984,724.6062" fill="none" style="stroke:#000000;stroke-width:1;stroke-dasharray:3.0,3.0;"/><path d="M1225.872,727.5824 L1228.5306,724.926 L1226.7248,721.6299 L1233.739,725.6722 L1225.872,727.5824" fill="#000000"/><ellipse cx="1107" cy="693.5234" fill="#000000" rx="3" ry="3" style="stroke:#000000;stroke-width:1;"/><path d="M776,514.5234 L789,514.5234 C803.3326,514.5234 859.5112,558.3861 905.7966,596.6539" fill="none" style="stroke:#000000;stroke-width:1;stroke-dasharray:3.0,3.0;"/><path d="M903.8463,599.0061 L907.5607,598.1165 L907.7468,594.3017 L911.6771,601.5294 L903.8463,599.0061" fill="#000000"/><ellipse cx="776" cy="514.5234" fill="#000000" rx="3" ry="3" style="stroke:#000000;stroke-width:1;"/><path d="M498,508.5234 L511,508.5234 C520.2974,508.5234 529.8706,508.1018 539.4832,507.3704" fill="none" style="stroke:#000000;stroke-width:1;stroke-dasharray:3.0,3.0;"/><path d="M539.7436,510.4556 L541.7972,507.1752 L539.2229,504.2852 L547.1963,506.7195 L539.7436,510.4556" fill="#000000"/><ellipse cx="498" cy="508.5234" fill="#000000" rx="3" ry="3" style="stroke:#000000;stroke-width:1;"/><path d="M498,528.5234 L511,528.5234 C527.2207,528.5234 530.9893,531.9217 547,534.5234 C562.3871,537.0238 578.8913,539.664 594.5851,542.155" fill="none" style="stroke:#000000;stroke-width:1;stroke-dasharray:3.0,3.0;"/><path d="M594.1013,545.2073 L596.8743,542.5179 L595.0689,539.1027 L602.2158,543.3646 L594.1013,545.2073" fill="#000000"/><ellipse cx="498" cy="528.5234" fill="#000000" rx="3" ry="3" style="stroke:#000000;stroke-width:1;"/><path d="M207.5,508.5234 L220.5,508.5234 C230.0545,508.5234 239.9251,508.5234 249.8608,508.5234" fill="none" style="stroke:#000000;stroke-width:1;stroke-dasharray:3.0,3.0;"/><path d="M249.8608,511.566 L252.1427,508.5234 L249.8608,505.4809 L257.4673,508.5234 L249.8608,511.566" fill="#000000"/><ellipse cx="207.5" cy="508.5234" fill="#000000" rx="3" ry="3" style="stroke:#000000;stroke-width:1;"/><!--SRC=[nLTTRnev57tthxWYBw6YD659jaHHrARPH4g34ZL9yx2gHfwP6t0nziJsaB8h_dlj8J0pm0n3bcsH-F3uddElp_sm-A0DLUQxbe8SQpFcU480cY4B3FnhVm6Sqc1meMGima-IImKxhSFEti5XidSkXPa-VUWpW_Ddjuu8VCb3-sZY28sCF8uZv2MimM585cXFkRKheQMzdi8UDKoA8k9sEzYZ1nloMb4C5Z7-sGd2W6x864WHif8uOOU-3pk1lo7j8-C6LU7PCTWFzZUDj4-5A4xK7-sEJpklqBCmyorwu6z4UFpkfLB9Jf_r-jo-3THEgGXlv3EgM-jC9ovr3OwFNIsVd5GmVGUra1hgcN643ZYlsQfetsvuaTj9bfdYT7IPvMi9EVTSXCbYcdblW6D7FbrjZnV3PF5I2yx3oyzjk8Z5Bt2ISt4UxIVV3ke9EapownQlzEIFlMH4l9cppXbnAvJNTzjESWd_jlDWNSt7tPkfl_awOPyjjiU_g-qjre3hk_h_e5ibP_z5H69VRZgk3khePN9cfjCHrCxiMFjR6zK0D-2-rHhJkpCR_Wm8-LbK38PC3wLWoEbPXeQC65ayfBgKms7QgdaiPFisX_yenWjmQpj4cfpnaKjgx6vkSqGLeoB0GWDjGW-LaghGOiY4Dw8yBkRWJdtlARPLmdYnsH13LX9g74MLMEYFDU6mf-B3w04-2zIwq60GAoCrApR0I0PzsoAnCCw6YUK8POW9dZET9ExRIelr7DwZmgSvaRLQ8cBQ4r8DQL9dlfIybjcVP8rhr_yibrcpsNH0zvN5aHKCsKjiar9VustcQv9sP3guSoqvlNJMTACTyml1LUxaubwkViIqdNEdpIYwa9KoNKjpj92bL87kmw82rMNFplsSzkbjDXFWBeuuJcLm1TvOJaNcqjWm9Ryr8sNvgD8lIm9q7-gLCfA3ZlHAvTO3xLO3x4TzeoeWMI8xpdlUwbkLXIWC2oW78vE9argH6T64JCW7567o5vlSS2hCVVSAHgYq-pUutspjjGwQRHyDRUtUYu6Gpm82EOpiq0V3XbWdknStLw1bh0AqARMPPNxiggzEBkc8mXSxDgtT4Ln7A2xFFiyUm5zYn9GKGniakVpQJGqEsszFcO5RL3OC-DebP_X8Osui8f0X4xqZkByxV_kUN57HYsdFSgCWdznyLcExT_iJ]--></g></svg>