<?xml version="1.0" encoding="utf-8" standalone="no"?>
<!DOCTYPE svg PUBLIC "-//W3C//DTD SVG 1.1//EN"
  "http://www.w3.org/Graphics/SVG/1.1/DTD/svg11.dtd">
<svg xmlns:xlink="http://www.w3.org/1999/xlink" width="730.522812pt" height="448.9275pt" viewBox="0 0 730.522812 448.9275" xmlns="http://www.w3.org/2000/svg" version="1.1">
 <metadata>
  <rdf:RDF xmlns:dc="http://purl.org/dc/elements/1.1/" xmlns:cc="http://creativecommons.org/ns#" xmlns:rdf="http://www.w3.org/1999/02/22-rdf-syntax-ns#">
   <cc:Work>
    <dc:type rdf:resource="http://purl.org/dc/dcmitype/StillImage"/>
    <dc:date>2025-05-30T20:16:02.895523</dc:date>
    <dc:format>image/svg+xml</dc:format>
    <dc:creator>
     <cc:Agent>
      <dc:title>Matplotlib v3.10.3, https://matplotlib.org/</dc:title>
     </cc:Agent>
    </dc:creator>
   </cc:Work>
  </rdf:RDF>
 </metadata>
 <defs>
  <style type="text/css">*{stroke-linejoin: round; stroke-linecap: butt}</style>
 </defs>
 <g id="figure_1">
  <g id="patch_1">
   <path d="M 0 448.9275 
L 730.522812 448.9275 
L 730.522812 0 
L 0 0 
z
" style="fill: #ffffff"/>
  </g>
  <g id="axes_1">
   <g id="patch_2">
    <path d="M 53.722813 411.214844 
L 723.322813 411.214844 
L 723.322813 23.134844 
L 53.722813 23.134844 
z
" style="fill: #ffffff"/>
   </g>
   <g id="FillBetweenPolyCollection_1">
    <defs>
     <path id="mf44cb701da" d="M 84.159176 -327.835931 
L 84.159176 -327.835931 
L 92.613722 -323.25572 
L 101.068267 -322.663385 
L 109.522812 -326.284771 
L 117.977358 -333.692772 
L 126.431903 -343.2091 
L 134.886449 -350.778299 
L 143.340994 -353.73233 
L 151.79554 -353.916267 
L 160.250085 -356.938342 
L 168.704631 -366.544066 
L 177.159176 -377.172746 
L 185.613722 -382.189659 
L 194.068267 -376.450759 
L 202.522812 -356.708761 
L 210.977358 -323.654162 
L 219.431903 -285.008351 
L 227.886449 -255.076454 
L 236.340994 -238.562496 
L 244.79554 -230.467869 
L 253.250085 -227.033938 
L 261.704631 -226.055983 
L 270.159176 -225.573609 
L 278.613722 -223.817333 
L 287.068267 -221.532426 
L 295.522812 -219.983075 
L 303.977358 -218.526738 
L 312.431903 -215.818133 
L 320.886449 -212.510906 
L 329.340994 -210.457525 
L 337.79554 -210.264166 
L 346.250085 -210.887563 
L 354.704631 -211.107802 
L 363.159176 -210.398444 
L 371.613722 -208.073355 
L 380.068267 -203.279972 
L 388.522812 -196.260901 
L 396.977358 -189.119208 
L 405.431903 -183.173706 
L 413.886449 -177.854908 
L 422.340994 -173.01969 
L 430.79554 -168.73118 
L 439.250085 -163.972492 
L 447.704631 -158.521138 
L 456.159176 -153.765929 
L 464.613722 -150.400366 
L 473.068267 -147.828213 
L 481.522812 -145.286953 
L 489.977358 -142.407483 
L 498.431903 -139.840165 
L 506.886449 -137.950481 
L 515.340994 -136.186097 
L 523.79554 -134.222199 
L 532.250085 -132.177006 
L 540.704631 -130.218095 
L 549.159176 -128.246847 
L 557.613722 -126.159004 
L 566.068267 -123.663637 
L 574.522812 -120.598698 
L 582.977358 -117.775905 
L 591.431903 -115.793814 
L 599.886449 -114.207316 
L 608.340994 -112.431507 
L 616.79554 -110.38819 
L 625.250085 -108.515251 
L 633.704631 -106.776609 
L 642.159176 -105.239189 
L 650.613722 -104.312778 
L 659.068267 -103.619305 
L 667.522812 -102.810777 
L 675.977358 -101.596527 
L 684.431903 -99.967366 
L 692.886449 -98.394406 
L 692.886449 -98.394406 
L 692.886449 -55.352656 
L 684.431903 -55.352656 
L 675.977358 -55.352656 
L 667.522812 -55.352656 
L 659.068267 -55.352656 
L 650.613722 -55.352656 
L 642.159176 -55.352656 
L 633.704631 -55.352656 
L 625.250085 -55.352656 
L 616.79554 -55.352656 
L 608.340994 -55.352656 
L 599.886449 -55.352656 
L 591.431903 -55.352656 
L 582.977358 -55.352656 
L 574.522812 -55.352656 
L 566.068267 -55.352656 
L 557.613722 -55.352656 
L 549.159176 -55.352656 
L 540.704631 -55.352656 
L 532.250085 -55.352656 
L 523.79554 -55.352656 
L 515.340994 -55.352656 
L 506.886449 -55.352656 
L 498.431903 -55.352656 
L 489.977358 -55.352656 
L 481.522812 -55.352656 
L 473.068267 -55.352656 
L 464.613722 -55.352656 
L 456.159176 -55.352656 
L 447.704631 -55.352656 
L 439.250085 -55.352656 
L 430.79554 -55.352656 
L 422.340994 -55.352656 
L 413.886449 -55.352656 
L 405.431903 -55.352656 
L 396.977358 -55.352656 
L 388.522812 -55.352656 
L 380.068267 -55.352656 
L 371.613722 -55.352656 
L 363.159176 -55.352656 
L 354.704631 -55.352656 
L 346.250085 -55.352656 
L 337.79554 -55.352656 
L 329.340994 -55.352656 
L 320.886449 -55.352656 
L 312.431903 -55.352656 
L 303.977358 -55.352656 
L 295.522812 -55.352656 
L 287.068267 -55.352656 
L 278.613722 -55.352656 
L 270.159176 -55.352656 
L 261.704631 -55.352656 
L 253.250085 -55.352656 
L 244.79554 -55.352656 
L 236.340994 -55.352656 
L 227.886449 -55.352656 
L 219.431903 -55.352656 
L 210.977358 -55.352656 
L 202.522812 -55.352656 
L 194.068267 -55.352656 
L 185.613722 -55.352656 
L 177.159176 -55.352656 
L 168.704631 -55.352656 
L 160.250085 -55.352656 
L 151.79554 -55.352656 
L 143.340994 -55.352656 
L 134.886449 -55.352656 
L 126.431903 -55.352656 
L 117.977358 -55.352656 
L 109.522812 -55.352656 
L 101.068267 -55.352656 
L 92.613722 -55.352656 
L 84.159176 -55.352656 
z
" style="stroke: #1f77b4; stroke-opacity: 0.3"/>
    </defs>
    <g clip-path="url(#p8a4b89ccc3)">
     <use xlink:href="#mf44cb701da" x="0" y="448.9275" style="fill: #1f77b4; fill-opacity: 0.3; stroke: #1f77b4; stroke-opacity: 0.3"/>
    </g>
   </g>
   <g id="FillBetweenPolyCollection_2">
    <defs>
     <path id="m7e958acbe6" d="M 84.159176 -327.441612 
L 84.159176 -327.441612 
L 92.613722 -322.542308 
L 101.068267 -321.643244 
L 109.522812 -326.263447 
L 117.977358 -335.661835 
L 126.431903 -347.280378 
L 134.886449 -357.378258 
L 143.340994 -363.664465 
L 151.79554 -367.263243 
L 160.250085 -372.680846 
L 168.704631 -383.240554 
L 177.159176 -393.258986 
L 185.613722 -395.416325 
L 194.068267 -385.730159 
L 202.522812 -363.238133 
L 210.977358 -330.551859 
L 219.431903 -293.610002 
L 227.886449 -260.781625 
L 236.340994 -239.569168 
L 244.79554 -229.483694 
L 253.250085 -226.028954 
L 261.704631 -225.830053 
L 270.159176 -225.497598 
L 278.613722 -223.609676 
L 287.068267 -220.864282 
L 295.522812 -217.299537 
L 303.977358 -213.719108 
L 312.431903 -211.095169 
L 320.886449 -209.996371 
L 329.340994 -210.309508 
L 337.79554 -211.01774 
L 346.250085 -211.427609 
L 354.704631 -210.961857 
L 363.159176 -209.374621 
L 371.613722 -206.620414 
L 380.068267 -202.611491 
L 388.522812 -197.721816 
L 396.977358 -192.246317 
L 405.431903 -185.828999 
L 413.886449 -178.844862 
L 422.340994 -172.30468 
L 430.79554 -166.701459 
L 439.250085 -161.419196 
L 447.704631 -156.337221 
L 456.159176 -151.657135 
L 464.613722 -147.681237 
L 473.068267 -143.875055 
L 481.522812 -140.087617 
L 489.977358 -137.125806 
L 498.431903 -134.609514 
L 506.886449 -131.444302 
L 515.340994 -128.215651 
L 523.79554 -125.991789 
L 532.250085 -124.507724 
L 540.704631 -122.61032 
L 549.159176 -119.56799 
L 557.613722 -116.064848 
L 566.068267 -113.218056 
L 574.522812 -110.90424 
L 582.977358 -108.569861 
L 591.431903 -106.68668 
L 599.886449 -105.541085 
L 608.340994 -103.951107 
L 616.79554 -101.325015 
L 625.250085 -99.008024 
L 633.704631 -97.25446 
L 642.159176 -95.113328 
L 650.613722 -92.851301 
L 659.068267 -91.294269 
L 667.522812 -90.4897 
L 675.977358 -90.500261 
L 684.431903 -90.818318 
L 692.886449 -90.085554 
L 692.886449 -90.085554 
L 692.886449 -55.352656 
L 684.431903 -55.352656 
L 675.977358 -55.352656 
L 667.522812 -55.352656 
L 659.068267 -55.352656 
L 650.613722 -55.352656 
L 642.159176 -55.352656 
L 633.704631 -55.352656 
L 625.250085 -55.352656 
L 616.79554 -55.352656 
L 608.340994 -55.352656 
L 599.886449 -55.352656 
L 591.431903 -55.352656 
L 582.977358 -55.352656 
L 574.522812 -55.352656 
L 566.068267 -55.352656 
L 557.613722 -55.352656 
L 549.159176 -55.352656 
L 540.704631 -55.352656 
L 532.250085 -55.352656 
L 523.79554 -55.352656 
L 515.340994 -55.352656 
L 506.886449 -55.352656 
L 498.431903 -55.352656 
L 489.977358 -55.352656 
L 481.522812 -55.352656 
L 473.068267 -55.352656 
L 464.613722 -55.352656 
L 456.159176 -55.352656 
L 447.704631 -55.352656 
L 439.250085 -55.352656 
L 430.79554 -55.352656 
L 422.340994 -55.352656 
L 413.886449 -55.352656 
L 405.431903 -55.352656 
L 396.977358 -55.352656 
L 388.522812 -55.352656 
L 380.068267 -55.352656 
L 371.613722 -55.352656 
L 363.159176 -55.352656 
L 354.704631 -55.352656 
L 346.250085 -55.352656 
L 337.79554 -55.352656 
L 329.340994 -55.352656 
L 320.886449 -55.352656 
L 312.431903 -55.352656 
L 303.977358 -55.352656 
L 295.522812 -55.352656 
L 287.068267 -55.352656 
L 278.613722 -55.352656 
L 270.159176 -55.352656 
L 261.704631 -55.352656 
L 253.250085 -55.352656 
L 244.79554 -55.352656 
L 236.340994 -55.352656 
L 227.886449 -55.352656 
L 219.431903 -55.352656 
L 210.977358 -55.352656 
L 202.522812 -55.352656 
L 194.068267 -55.352656 
L 185.613722 -55.352656 
L 177.159176 -55.352656 
L 168.704631 -55.352656 
L 160.250085 -55.352656 
L 151.79554 -55.352656 
L 143.340994 -55.352656 
L 134.886449 -55.352656 
L 126.431903 -55.352656 
L 117.977358 -55.352656 
L 109.522812 -55.352656 
L 101.068267 -55.352656 
L 92.613722 -55.352656 
L 84.159176 -55.352656 
z
" style="stroke: #d62728; stroke-opacity: 0.3"/>
    </defs>
    <g clip-path="url(#p8a4b89ccc3)">
     <use xlink:href="#m7e958acbe6" x="0" y="448.9275" style="fill: #d62728; fill-opacity: 0.3; stroke: #d62728; stroke-opacity: 0.3"/>
    </g>
   </g>
   <g id="FillBetweenPolyCollection_3">
    <defs>
     <path id="md7a683cf37" d="M 84.159176 -331.801234 
L 84.159176 -331.801234 
L 92.613722 -325.986884 
L 101.068267 -322.235952 
L 109.522812 -324.669782 
L 117.977358 -334.450953 
L 126.431903 -343.35874 
L 134.886449 -347.564209 
L 143.340994 -349.546971 
L 151.79554 -352.021911 
L 160.250085 -360.450561 
L 168.704631 -375.730911 
L 177.159176 -389.674445 
L 185.613722 -394.358705 
L 194.068267 -384.328396 
L 202.522812 -359.10954 
L 210.977358 -322.744407 
L 219.431903 -284.199462 
L 227.886449 -254.401748 
L 236.340994 -236.270218 
L 244.79554 -227.737056 
L 253.250085 -224.144351 
L 261.704631 -221.677295 
L 270.159176 -218.855066 
L 278.613722 -216.529061 
L 287.068267 -215.282191 
L 295.522812 -214.2919 
L 303.977358 -213.281957 
L 312.431903 -211.771841 
L 320.886449 -210.402515 
L 329.340994 -210.015217 
L 337.79554 -211.355366 
L 346.250085 -212.70655 
L 354.704631 -211.143622 
L 363.159176 -207.272779 
L 371.613722 -202.63842 
L 380.068267 -197.539858 
L 388.522812 -191.465754 
L 396.977358 -184.460646 
L 405.431903 -176.905464 
L 413.886449 -170.273475 
L 422.340994 -165.887936 
L 430.79554 -162.500617 
L 439.250085 -157.966587 
L 447.704631 -152.071442 
L 456.159176 -146.566986 
L 464.613722 -143.35684 
L 473.068267 -141.036295 
L 481.522812 -137.243515 
L 489.977358 -132.942551 
L 498.431903 -130.238598 
L 506.886449 -129.441781 
L 515.340994 -128.894441 
L 523.79554 -126.624467 
L 532.250085 -122.31984 
L 540.704631 -117.278073 
L 549.159176 -112.304286 
L 557.613722 -108.298794 
L 566.068267 -105.898175 
L 574.522812 -103.716103 
L 582.977358 -101.28685 
L 591.431903 -99.480016 
L 599.886449 -97.822289 
L 608.340994 -94.954455 
L 616.79554 -90.977202 
L 625.250085 -87.484148 
L 633.704631 -85.596636 
L 642.159176 -85.125315 
L 650.613722 -83.962339 
L 659.068267 -82.066616 
L 667.522812 -80.464415 
L 675.977358 -78.989628 
L 684.431903 -77.367742 
L 692.886449 -76.259916 
L 692.886449 -76.259916 
L 692.886449 -55.352656 
L 684.431903 -55.352656 
L 675.977358 -55.352656 
L 667.522812 -55.352656 
L 659.068267 -55.352656 
L 650.613722 -55.352656 
L 642.159176 -55.352656 
L 633.704631 -55.352656 
L 625.250085 -55.352656 
L 616.79554 -55.352656 
L 608.340994 -55.352656 
L 599.886449 -55.352656 
L 591.431903 -55.352656 
L 582.977358 -55.352656 
L 574.522812 -55.352656 
L 566.068267 -55.352656 
L 557.613722 -55.352656 
L 549.159176 -55.352656 
L 540.704631 -55.352656 
L 532.250085 -55.352656 
L 523.79554 -55.352656 
L 515.340994 -55.352656 
L 506.886449 -55.352656 
L 498.431903 -55.352656 
L 489.977358 -55.352656 
L 481.522812 -55.352656 
L 473.068267 -55.352656 
L 464.613722 -55.352656 
L 456.159176 -55.352656 
L 447.704631 -55.352656 
L 439.250085 -55.352656 
L 430.79554 -55.352656 
L 422.340994 -55.352656 
L 413.886449 -55.352656 
L 405.431903 -55.352656 
L 396.977358 -55.352656 
L 388.522812 -55.352656 
L 380.068267 -55.352656 
L 371.613722 -55.352656 
L 363.159176 -55.352656 
L 354.704631 -55.352656 
L 346.250085 -55.352656 
L 337.79554 -55.352656 
L 329.340994 -55.352656 
L 320.886449 -55.352656 
L 312.431903 -55.352656 
L 303.977358 -55.352656 
L 295.522812 -55.352656 
L 287.068267 -55.352656 
L 278.613722 -55.352656 
L 270.159176 -55.352656 
L 261.704631 -55.352656 
L 253.250085 -55.352656 
L 244.79554 -55.352656 
L 236.340994 -55.352656 
L 227.886449 -55.352656 
L 219.431903 -55.352656 
L 210.977358 -55.352656 
L 202.522812 -55.352656 
L 194.068267 -55.352656 
L 185.613722 -55.352656 
L 177.159176 -55.352656 
L 168.704631 -55.352656 
L 160.250085 -55.352656 
L 151.79554 -55.352656 
L 143.340994 -55.352656 
L 134.886449 -55.352656 
L 126.431903 -55.352656 
L 117.977358 -55.352656 
L 109.522812 -55.352656 
L 101.068267 -55.352656 
L 92.613722 -55.352656 
L 84.159176 -55.352656 
z
" style="stroke: #e377c2; stroke-opacity: 0.3"/>
    </defs>
    <g clip-path="url(#p8a4b89ccc3)">
     <use xlink:href="#md7a683cf37" x="0" y="448.9275" style="fill: #e377c2; fill-opacity: 0.3; stroke: #e377c2; stroke-opacity: 0.3"/>
    </g>
   </g>
   <g id="FillBetweenPolyCollection_4">
    <defs>
     <path id="ma80ac9eb86" d="M 84.159176 -327.270571 
L 84.159176 -327.270571 
L 92.613722 -323.78264 
L 101.068267 -324.903437 
L 109.522812 -330.705338 
L 117.977358 -341.341307 
L 126.431903 -354.999379 
L 134.886449 -366.006955 
L 143.340994 -371.06215 
L 151.79554 -371.737901 
L 160.250085 -375.911714 
L 168.704631 -389.827256 
L 177.159176 -404.40118 
L 185.613722 -408.152656 
L 194.068267 -396.166047 
L 202.522812 -368.352571 
L 210.977358 -328.356642 
L 219.431903 -286.059176 
L 227.886449 -254.819206 
L 236.340994 -238.140967 
L 244.79554 -230.742216 
L 253.250085 -227.952785 
L 261.704631 -226.496831 
L 270.159176 -225.818286 
L 278.613722 -225.392418 
L 287.068267 -224.565949 
L 295.522812 -223.592081 
L 303.977358 -223.290597 
L 312.431903 -223.307608 
L 320.886449 -222.667319 
L 329.340994 -221.196331 
L 337.79554 -220.066018 
L 346.250085 -219.693165 
L 354.704631 -218.62013 
L 363.159176 -215.805182 
L 371.613722 -211.168027 
L 380.068267 -205.258425 
L 388.522812 -198.523354 
L 396.977358 -191.622131 
L 405.431903 -185.328073 
L 413.886449 -180.780847 
L 422.340994 -177.068032 
L 430.79554 -172.614334 
L 439.250085 -167.636516 
L 447.704631 -162.788841 
L 456.159176 -158.673207 
L 464.613722 -155.940223 
L 473.068267 -154.587041 
L 481.522812 -153.352379 
L 489.977358 -151.312247 
L 498.431903 -149.126887 
L 506.886449 -146.772132 
L 515.340994 -144.359551 
L 523.79554 -142.18156 
L 532.250085 -140.408954 
L 540.704631 -138.638406 
L 549.159176 -136.132827 
L 557.613722 -133.359758 
L 566.068267 -131.347363 
L 574.522812 -130.009957 
L 582.977358 -128.497286 
L 591.431903 -125.847233 
L 599.886449 -122.638798 
L 608.340994 -121.186911 
L 616.79554 -121.812131 
L 625.250085 -121.821748 
L 633.704631 -119.726417 
L 642.159176 -116.950699 
L 650.613722 -115.272689 
L 659.068267 -114.773505 
L 667.522812 -114.360505 
L 675.977358 -113.104156 
L 684.431903 -111.370385 
L 692.886449 -110.329258 
L 692.886449 -110.329258 
L 692.886449 -55.352656 
L 684.431903 -55.352656 
L 675.977358 -55.352656 
L 667.522812 -55.352656 
L 659.068267 -55.352656 
L 650.613722 -55.352656 
L 642.159176 -55.352656 
L 633.704631 -55.352656 
L 625.250085 -55.352656 
L 616.79554 -55.352656 
L 608.340994 -55.352656 
L 599.886449 -55.352656 
L 591.431903 -55.352656 
L 582.977358 -55.352656 
L 574.522812 -55.352656 
L 566.068267 -55.352656 
L 557.613722 -55.352656 
L 549.159176 -55.352656 
L 540.704631 -55.352656 
L 532.250085 -55.352656 
L 523.79554 -55.352656 
L 515.340994 -55.352656 
L 506.886449 -55.352656 
L 498.431903 -55.352656 
L 489.977358 -55.352656 
L 481.522812 -55.352656 
L 473.068267 -55.352656 
L 464.613722 -55.352656 
L 456.159176 -55.352656 
L 447.704631 -55.352656 
L 439.250085 -55.352656 
L 430.79554 -55.352656 
L 422.340994 -55.352656 
L 413.886449 -55.352656 
L 405.431903 -55.352656 
L 396.977358 -55.352656 
L 388.522812 -55.352656 
L 380.068267 -55.352656 
L 371.613722 -55.352656 
L 363.159176 -55.352656 
L 354.704631 -55.352656 
L 346.250085 -55.352656 
L 337.79554 -55.352656 
L 329.340994 -55.352656 
L 320.886449 -55.352656 
L 312.431903 -55.352656 
L 303.977358 -55.352656 
L 295.522812 -55.352656 
L 287.068267 -55.352656 
L 278.613722 -55.352656 
L 270.159176 -55.352656 
L 261.704631 -55.352656 
L 253.250085 -55.352656 
L 244.79554 -55.352656 
L 236.340994 -55.352656 
L 227.886449 -55.352656 
L 219.431903 -55.352656 
L 210.977358 -55.352656 
L 202.522812 -55.352656 
L 194.068267 -55.352656 
L 185.613722 -55.352656 
L 177.159176 -55.352656 
L 168.704631 -55.352656 
L 160.250085 -55.352656 
L 151.79554 -55.352656 
L 143.340994 -55.352656 
L 134.886449 -55.352656 
L 126.431903 -55.352656 
L 117.977358 -55.352656 
L 109.522812 -55.352656 
L 101.068267 -55.352656 
L 92.613722 -55.352656 
L 84.159176 -55.352656 
z
" style="stroke: #17becf; stroke-opacity: 0.3"/>
    </defs>
    <g clip-path="url(#p8a4b89ccc3)">
     <use xlink:href="#ma80ac9eb86" x="0" y="448.9275" style="fill: #17becf; fill-opacity: 0.3; stroke: #17becf; stroke-opacity: 0.3"/>
    </g>
   </g>
   <g id="matplotlib.axis_1">
    <g id="xtick_1">
     <g id="line2d_1">
      <path d="M 101.068267 411.214844 
L 101.068267 23.134844 
" clip-path="url(#p8a4b89ccc3)" style="fill: none; stroke-dasharray: 2.96,1.28; stroke-dashoffset: 0; stroke: #dddddd; stroke-width: 0.8"/>
     </g>
     <g id="line2d_2">
      <defs>
       <path id="mbe47d18848" d="M 0 0 
L 0 3.5 
" style="stroke: #333333; stroke-width: 0.8"/>
      </defs>
      <g>
       <use xlink:href="#mbe47d18848" x="101.068267" y="411.214844" style="fill: #333333; stroke: #333333; stroke-width: 0.8"/>
      </g>
     </g>
     <g id="text_1">
      <!-- 5 -->
      <g style="fill: #333333" transform="translate(98.205142 425.053437) scale(0.09 -0.09)">
       <defs>
        <path id="DejaVuSerif-35" d="M 3219 4666 
L 3219 4153 
L 1081 4153 
L 1081 2816 
Q 1244 2928 1461 2984 
Q 1678 3041 1947 3041 
Q 2703 3041 3140 2622 
Q 3578 2203 3578 1478 
Q 3578 738 3136 323 
Q 2694 -91 1894 -91 
Q 1572 -91 1234 -12 
Q 897 66 544 225 
L 544 1131 
L 897 1131 
Q 925 688 1179 453 
Q 1434 219 1894 219 
Q 2388 219 2653 544 
Q 2919 869 2919 1478 
Q 2919 2084 2655 2407 
Q 2391 2731 1894 2731 
Q 1613 2731 1398 2631 
Q 1184 2531 1019 2322 
L 750 2322 
L 750 4666 
L 3219 4666 
z
" transform="scale(0.015625)"/>
       </defs>
       <use xlink:href="#DejaVuSerif-35"/>
      </g>
     </g>
    </g>
    <g id="xtick_2">
     <g id="line2d_3">
      <path d="M 185.613722 411.214844 
L 185.613722 23.134844 
" clip-path="url(#p8a4b89ccc3)" style="fill: none; stroke-dasharray: 2.96,1.28; stroke-dashoffset: 0; stroke: #dddddd; stroke-width: 0.8"/>
     </g>
     <g id="line2d_4">
      <g>
       <use xlink:href="#mbe47d18848" x="185.613722" y="411.214844" style="fill: #333333; stroke: #333333; stroke-width: 0.8"/>
      </g>
     </g>
     <g id="text_2">
      <!-- 10 -->
      <g style="fill: #333333" transform="translate(179.887472 425.053437) scale(0.09 -0.09)">
       <defs>
        <path id="DejaVuSerif-31" d="M 909 0 
L 909 331 
L 1722 331 
L 1722 4213 
L 781 3603 
L 781 4013 
L 1919 4750 
L 2350 4750 
L 2350 331 
L 3163 331 
L 3163 0 
L 909 0 
z
" transform="scale(0.015625)"/>
        <path id="DejaVuSerif-30" d="M 2034 219 
Q 2513 219 2750 744 
Q 2988 1269 2988 2328 
Q 2988 3391 2750 3916 
Q 2513 4441 2034 4441 
Q 1556 4441 1318 3916 
Q 1081 3391 1081 2328 
Q 1081 1269 1318 744 
Q 1556 219 2034 219 
z
M 2034 -91 
Q 1275 -91 848 546 
Q 422 1184 422 2328 
Q 422 3475 848 4112 
Q 1275 4750 2034 4750 
Q 2797 4750 3222 4112 
Q 3647 3475 3647 2328 
Q 3647 1184 3222 546 
Q 2797 -91 2034 -91 
z
" transform="scale(0.015625)"/>
       </defs>
       <use xlink:href="#DejaVuSerif-31"/>
       <use xlink:href="#DejaVuSerif-30" transform="translate(63.623047 0)"/>
      </g>
     </g>
    </g>
    <g id="xtick_3">
     <g id="line2d_5">
      <path d="M 270.159176 411.214844 
L 270.159176 23.134844 
" clip-path="url(#p8a4b89ccc3)" style="fill: none; stroke-dasharray: 2.96,1.28; stroke-dashoffset: 0; stroke: #dddddd; stroke-width: 0.8"/>
     </g>
     <g id="line2d_6">
      <g>
       <use xlink:href="#mbe47d18848" x="270.159176" y="411.214844" style="fill: #333333; stroke: #333333; stroke-width: 0.8"/>
      </g>
     </g>
     <g id="text_3">
      <!-- 15 -->
      <g style="fill: #333333" transform="translate(264.432926 425.053437) scale(0.09 -0.09)">
       <use xlink:href="#DejaVuSerif-31"/>
       <use xlink:href="#DejaVuSerif-35" transform="translate(63.623047 0)"/>
      </g>
     </g>
    </g>
    <g id="xtick_4">
     <g id="line2d_7">
      <path d="M 354.704631 411.214844 
L 354.704631 23.134844 
" clip-path="url(#p8a4b89ccc3)" style="fill: none; stroke-dasharray: 2.96,1.28; stroke-dashoffset: 0; stroke: #dddddd; stroke-width: 0.8"/>
     </g>
     <g id="line2d_8">
      <g>
       <use xlink:href="#mbe47d18848" x="354.704631" y="411.214844" style="fill: #333333; stroke: #333333; stroke-width: 0.8"/>
      </g>
     </g>
     <g id="text_4">
      <!-- 20 -->
      <g style="fill: #333333" transform="translate(348.978381 425.053437) scale(0.09 -0.09)">
       <defs>
        <path id="DejaVuSerif-32" d="M 819 3553 
L 469 3553 
L 469 4384 
Q 803 4563 1142 4656 
Q 1481 4750 1806 4750 
Q 2534 4750 2956 4397 
Q 3378 4044 3378 3438 
Q 3378 2753 2422 1800 
Q 2347 1728 2309 1691 
L 1131 513 
L 3078 513 
L 3078 1088 
L 3444 1088 
L 3444 0 
L 434 0 
L 434 341 
L 1850 1753 
Q 2319 2222 2519 2614 
Q 2719 3006 2719 3438 
Q 2719 3909 2473 4175 
Q 2228 4441 1797 4441 
Q 1350 4441 1106 4219 
Q 863 3997 819 3553 
z
" transform="scale(0.015625)"/>
       </defs>
       <use xlink:href="#DejaVuSerif-32"/>
       <use xlink:href="#DejaVuSerif-30" transform="translate(63.623047 0)"/>
      </g>
     </g>
    </g>
    <g id="xtick_5">
     <g id="line2d_9">
      <path d="M 439.250085 411.214844 
L 439.250085 23.134844 
" clip-path="url(#p8a4b89ccc3)" style="fill: none; stroke-dasharray: 2.96,1.28; stroke-dashoffset: 0; stroke: #dddddd; stroke-width: 0.8"/>
     </g>
     <g id="line2d_10">
      <g>
       <use xlink:href="#mbe47d18848" x="439.250085" y="411.214844" style="fill: #333333; stroke: #333333; stroke-width: 0.8"/>
      </g>
     </g>
     <g id="text_5">
      <!-- 25 -->
      <g style="fill: #333333" transform="translate(433.523835 425.053437) scale(0.09 -0.09)">
       <use xlink:href="#DejaVuSerif-32"/>
       <use xlink:href="#DejaVuSerif-35" transform="translate(63.623047 0)"/>
      </g>
     </g>
    </g>
    <g id="xtick_6">
     <g id="line2d_11">
      <path d="M 523.79554 411.214844 
L 523.79554 23.134844 
" clip-path="url(#p8a4b89ccc3)" style="fill: none; stroke-dasharray: 2.96,1.28; stroke-dashoffset: 0; stroke: #dddddd; stroke-width: 0.8"/>
     </g>
     <g id="line2d_12">
      <g>
       <use xlink:href="#mbe47d18848" x="523.79554" y="411.214844" style="fill: #333333; stroke: #333333; stroke-width: 0.8"/>
      </g>
     </g>
     <g id="text_6">
      <!-- 30 -->
      <g style="fill: #333333" transform="translate(518.06929 425.053437) scale(0.09 -0.09)">
       <defs>
        <path id="DejaVuSerif-33" d="M 622 4469 
Q 988 4606 1323 4678 
Q 1659 4750 1953 4750 
Q 2638 4750 3022 4454 
Q 3406 4159 3406 3634 
Q 3406 3213 3140 2930 
Q 2875 2647 2388 2547 
Q 2963 2466 3280 2130 
Q 3597 1794 3597 1259 
Q 3597 606 3158 257 
Q 2719 -91 1894 -91 
Q 1528 -91 1179 -12 
Q 831 66 488 225 
L 488 1131 
L 838 1131 
Q 869 681 1141 450 
Q 1413 219 1906 219 
Q 2384 219 2661 495 
Q 2938 772 2938 1253 
Q 2938 1803 2653 2086 
Q 2369 2369 1819 2369 
L 1522 2369 
L 1522 2688 
L 1678 2688 
Q 2225 2688 2498 2914 
Q 2772 3141 2772 3597 
Q 2772 4006 2547 4223 
Q 2322 4441 1900 4441 
Q 1478 4441 1245 4241 
Q 1013 4041 972 3647 
L 622 3647 
L 622 4469 
z
" transform="scale(0.015625)"/>
       </defs>
       <use xlink:href="#DejaVuSerif-33"/>
       <use xlink:href="#DejaVuSerif-30" transform="translate(63.623047 0)"/>
      </g>
     </g>
    </g>
    <g id="xtick_7">
     <g id="line2d_13">
      <path d="M 608.340994 411.214844 
L 608.340994 23.134844 
" clip-path="url(#p8a4b89ccc3)" style="fill: none; stroke-dasharray: 2.96,1.28; stroke-dashoffset: 0; stroke: #dddddd; stroke-width: 0.8"/>
     </g>
     <g id="line2d_14">
      <g>
       <use xlink:href="#mbe47d18848" x="608.340994" y="411.214844" style="fill: #333333; stroke: #333333; stroke-width: 0.8"/>
      </g>
     </g>
     <g id="text_7">
      <!-- 35 -->
      <g style="fill: #333333" transform="translate(602.614744 425.053437) scale(0.09 -0.09)">
       <use xlink:href="#DejaVuSerif-33"/>
       <use xlink:href="#DejaVuSerif-35" transform="translate(63.623047 0)"/>
      </g>
     </g>
    </g>
    <g id="xtick_8">
     <g id="line2d_15">
      <path d="M 692.886449 411.214844 
L 692.886449 23.134844 
" clip-path="url(#p8a4b89ccc3)" style="fill: none; stroke-dasharray: 2.96,1.28; stroke-dashoffset: 0; stroke: #dddddd; stroke-width: 0.8"/>
     </g>
     <g id="line2d_16">
      <g>
       <use xlink:href="#mbe47d18848" x="692.886449" y="411.214844" style="fill: #333333; stroke: #333333; stroke-width: 0.8"/>
      </g>
     </g>
     <g id="text_8">
      <!-- 40 -->
      <g style="fill: #333333" transform="translate(687.160199 425.053437) scale(0.09 -0.09)">
       <defs>
        <path id="DejaVuSerif-34" d="M 2234 1581 
L 2234 4063 
L 641 1581 
L 2234 1581 
z
M 3609 0 
L 1484 0 
L 1484 331 
L 2234 331 
L 2234 1247 
L 197 1247 
L 197 1588 
L 2241 4750 
L 2859 4750 
L 2859 1581 
L 3750 1581 
L 3750 1247 
L 2859 1247 
L 2859 331 
L 3609 331 
L 3609 0 
z
" transform="scale(0.015625)"/>
       </defs>
       <use xlink:href="#DejaVuSerif-34"/>
       <use xlink:href="#DejaVuSerif-30" transform="translate(63.623047 0)"/>
      </g>
     </g>
    </g>
    <g id="text_9">
     <!-- Frequency (Hz) -->
     <g transform="translate(345.040156 439.283437) scale(0.11 -0.11)">
      <defs>
       <path id="DejaVuSerif-46" d="M 353 0 
L 353 331 
L 947 331 
L 947 4331 
L 353 4331 
L 353 4666 
L 4172 4666 
L 4172 3628 
L 3788 3628 
L 3788 4281 
L 1581 4281 
L 1581 2719 
L 3175 2719 
L 3175 3303 
L 3559 3303 
L 3559 1753 
L 3175 1753 
L 3175 2338 
L 1581 2338 
L 1581 331 
L 2328 331 
L 2328 0 
L 353 0 
z
" transform="scale(0.015625)"/>
       <path id="DejaVuSerif-72" d="M 3059 3328 
L 3059 2497 
L 2728 2497 
Q 2713 2744 2591 2866 
Q 2469 2988 2234 2988 
Q 1809 2988 1582 2694 
Q 1356 2400 1356 1850 
L 1356 331 
L 2022 331 
L 2022 0 
L 263 0 
L 263 331 
L 781 331 
L 781 2994 
L 231 2994 
L 231 3322 
L 1356 3322 
L 1356 2731 
Q 1525 3078 1790 3245 
Q 2056 3413 2438 3413 
Q 2578 3413 2733 3391 
Q 2888 3369 3059 3328 
z
" transform="scale(0.015625)"/>
       <path id="DejaVuSerif-65" d="M 3469 1600 
L 991 1600 
L 991 1575 
Q 991 903 1244 561 
Q 1497 219 1991 219 
Q 2369 219 2611 417 
Q 2853 616 2950 1006 
L 3413 1006 
Q 3275 459 2904 184 
Q 2534 -91 1931 -91 
Q 1203 -91 761 389 
Q 319 869 319 1663 
Q 319 2450 753 2931 
Q 1188 3413 1894 3413 
Q 2647 3413 3050 2948 
Q 3453 2484 3469 1600 
z
M 2791 1931 
Q 2772 2513 2545 2808 
Q 2319 3103 1894 3103 
Q 1497 3103 1269 2806 
Q 1041 2509 991 1931 
L 2791 1931 
z
" transform="scale(0.015625)"/>
       <path id="DejaVuSerif-71" d="M 3359 2988 
L 3359 -997 
L 3909 -997 
L 3909 -1331 
L 2241 -1331 
L 2241 -997 
L 2784 -997 
L 2784 519 
Q 2616 206 2355 57 
Q 2094 -91 1709 -91 
Q 1097 -91 708 395 
Q 319 881 319 1663 
Q 319 2444 706 2928 
Q 1094 3413 1709 3413 
Q 2094 3413 2355 3264 
Q 2616 3116 2784 2803 
L 2784 3322 
L 3909 3322 
L 3909 2988 
L 3359 2988 
z
M 2784 1825 
Q 2784 2422 2554 2737 
Q 2325 3053 1888 3053 
Q 1444 3053 1217 2703 
Q 991 2353 991 1663 
Q 991 975 1217 622 
Q 1444 269 1888 269 
Q 2325 269 2554 583 
Q 2784 897 2784 1497 
L 2784 1825 
z
" transform="scale(0.015625)"/>
       <path id="DejaVuSerif-75" d="M 2266 3322 
L 3341 3322 
L 3341 331 
L 3884 331 
L 3884 0 
L 2766 0 
L 2766 588 
Q 2606 256 2353 82 
Q 2100 -91 1766 -91 
Q 1213 -91 952 223 
Q 691 538 691 1209 
L 691 2988 
L 172 2988 
L 172 3322 
L 1269 3322 
L 1269 1388 
Q 1269 781 1417 556 
Q 1566 331 1947 331 
Q 2347 331 2556 625 
Q 2766 919 2766 1478 
L 2766 2988 
L 2266 2988 
L 2266 3322 
z
" transform="scale(0.015625)"/>
       <path id="DejaVuSerif-6e" d="M 263 0 
L 263 331 
L 781 331 
L 781 2988 
L 231 2988 
L 231 3322 
L 1356 3322 
L 1356 2731 
Q 1516 3069 1770 3241 
Q 2025 3413 2363 3413 
Q 2913 3413 3172 3097 
Q 3431 2781 3431 2113 
L 3431 331 
L 3944 331 
L 3944 0 
L 2356 0 
L 2356 331 
L 2853 331 
L 2853 1931 
Q 2853 2541 2703 2767 
Q 2553 2994 2175 2994 
Q 1775 2994 1565 2701 
Q 1356 2409 1356 1850 
L 1356 331 
L 1856 331 
L 1856 0 
L 263 0 
z
" transform="scale(0.015625)"/>
       <path id="DejaVuSerif-63" d="M 3291 997 
Q 3169 466 2822 187 
Q 2475 -91 1925 -91 
Q 1200 -91 759 389 
Q 319 869 319 1663 
Q 319 2459 759 2936 
Q 1200 3413 1925 3413 
Q 2241 3413 2553 3339 
Q 2866 3266 3181 3116 
L 3181 2266 
L 2847 2266 
Q 2781 2703 2561 2903 
Q 2341 3103 1931 3103 
Q 1466 3103 1228 2742 
Q 991 2381 991 1663 
Q 991 944 1227 581 
Q 1463 219 1931 219 
Q 2303 219 2525 412 
Q 2747 606 2828 997 
L 3291 997 
z
" transform="scale(0.015625)"/>
       <path id="DejaVuSerif-79" d="M 1381 -609 
L 1600 -56 
L 359 2988 
L -19 2988 
L -19 3322 
L 1509 3322 
L 1509 2988 
L 978 2988 
L 1913 703 
L 2847 2988 
L 2350 2988 
L 2350 3322 
L 3597 3322 
L 3597 2988 
L 3225 2988 
L 1703 -750 
Q 1547 -1138 1356 -1280 
Q 1166 -1422 819 -1422 
Q 672 -1422 517 -1397 
Q 363 -1372 206 -1325 
L 206 -691 
L 500 -691 
Q 519 -903 608 -995 
Q 697 -1088 884 -1088 
Q 1056 -1088 1161 -992 
Q 1266 -897 1381 -609 
z
" transform="scale(0.015625)"/>
       <path id="DejaVuSerif-20" transform="scale(0.015625)"/>
       <path id="DejaVuSerif-28" d="M 2041 -997 
Q 1281 -656 893 83 
Q 506 822 506 1931 
Q 506 3044 893 3783 
Q 1281 4522 2041 4863 
L 2041 4556 
Q 1559 4225 1350 3623 
Q 1141 3022 1141 1931 
Q 1141 844 1350 242 
Q 1559 -359 2041 -691 
L 2041 -997 
z
" transform="scale(0.015625)"/>
       <path id="DejaVuSerif-48" d="M 353 0 
L 353 331 
L 947 331 
L 947 4331 
L 353 4331 
L 353 4666 
L 2175 4666 
L 2175 4331 
L 1581 4331 
L 1581 2719 
L 4000 2719 
L 4000 4331 
L 3406 4331 
L 3406 4666 
L 5228 4666 
L 5228 4331 
L 4634 4331 
L 4634 331 
L 5228 331 
L 5228 0 
L 3406 0 
L 3406 331 
L 4000 331 
L 4000 2338 
L 1581 2338 
L 1581 331 
L 2175 331 
L 2175 0 
L 353 0 
z
" transform="scale(0.015625)"/>
       <path id="DejaVuSerif-7a" d="M 256 0 
L 256 269 
L 2338 2988 
L 691 2988 
L 691 2413 
L 359 2413 
L 359 3322 
L 3078 3322 
L 3078 3053 
L 997 331 
L 2803 331 
L 2803 934 
L 3138 934 
L 3138 0 
L 256 0 
z
" transform="scale(0.015625)"/>
       <path id="DejaVuSerif-29" d="M 453 -997 
L 453 -691 
Q 934 -359 1145 242 
Q 1356 844 1356 1931 
Q 1356 3022 1145 3623 
Q 934 4225 453 4556 
L 453 4863 
Q 1216 4522 1603 3783 
Q 1991 3044 1991 1931 
Q 1991 822 1603 83 
Q 1216 -656 453 -997 
z
" transform="scale(0.015625)"/>
      </defs>
      <use xlink:href="#DejaVuSerif-46"/>
      <use xlink:href="#DejaVuSerif-72" transform="translate(69.384766 0)"/>
      <use xlink:href="#DejaVuSerif-65" transform="translate(117.1875 0)"/>
      <use xlink:href="#DejaVuSerif-71" transform="translate(176.367188 0)"/>
      <use xlink:href="#DejaVuSerif-75" transform="translate(240.380859 0)"/>
      <use xlink:href="#DejaVuSerif-65" transform="translate(304.785156 0)"/>
      <use xlink:href="#DejaVuSerif-6e" transform="translate(363.964844 0)"/>
      <use xlink:href="#DejaVuSerif-63" transform="translate(428.369141 0)"/>
      <use xlink:href="#DejaVuSerif-79" transform="translate(484.375 0)"/>
      <use xlink:href="#DejaVuSerif-20" transform="translate(540.869141 0)"/>
      <use xlink:href="#DejaVuSerif-28" transform="translate(572.65625 0)"/>
      <use xlink:href="#DejaVuSerif-48" transform="translate(611.669922 0)"/>
      <use xlink:href="#DejaVuSerif-7a" transform="translate(698.876953 0)"/>
      <use xlink:href="#DejaVuSerif-29" transform="translate(751.5625 0)"/>
     </g>
    </g>
   </g>
   <g id="matplotlib.axis_2">
    <g id="ytick_1">
     <g id="line2d_17">
      <path d="M 53.722813 401.185878 
L 723.322813 401.185878 
" clip-path="url(#p8a4b89ccc3)" style="fill: none; stroke-dasharray: 2.96,1.28; stroke-dashoffset: 0; stroke: #dddddd; stroke-width: 0.8"/>
     </g>
     <g id="line2d_18">
      <defs>
       <path id="md24bde8ae6" d="M 0 0 
L -3.5 0 
" style="stroke: #333333; stroke-width: 0.8"/>
      </defs>
      <g>
       <use xlink:href="#md24bde8ae6" x="53.722813" y="401.185878" style="fill: #333333; stroke: #333333; stroke-width: 0.8"/>
      </g>
     </g>
     <g id="text_10">
      <!-- −135 -->
      <g style="fill: #333333" transform="translate(22.002344 404.605175) scale(0.09 -0.09)">
       <defs>
        <path id="DejaVuSerif-2212" d="M 678 2259 
L 4684 2259 
L 4684 1753 
L 678 1753 
L 678 2259 
z
" transform="scale(0.015625)"/>
       </defs>
       <use xlink:href="#DejaVuSerif-2212"/>
       <use xlink:href="#DejaVuSerif-31" transform="translate(83.789062 0)"/>
       <use xlink:href="#DejaVuSerif-33" transform="translate(147.412109 0)"/>
       <use xlink:href="#DejaVuSerif-35" transform="translate(211.035156 0)"/>
      </g>
     </g>
    </g>
    <g id="ytick_2">
     <g id="line2d_19">
      <path d="M 53.722813 322.695351 
L 723.322813 322.695351 
" clip-path="url(#p8a4b89ccc3)" style="fill: none; stroke-dasharray: 2.96,1.28; stroke-dashoffset: 0; stroke: #dddddd; stroke-width: 0.8"/>
     </g>
     <g id="line2d_20">
      <g>
       <use xlink:href="#md24bde8ae6" x="53.722813" y="322.695351" style="fill: #333333; stroke: #333333; stroke-width: 0.8"/>
      </g>
     </g>
     <g id="text_11">
      <!-- −130 -->
      <g style="fill: #333333" transform="translate(22.002344 326.114648) scale(0.09 -0.09)">
       <use xlink:href="#DejaVuSerif-2212"/>
       <use xlink:href="#DejaVuSerif-31" transform="translate(83.789062 0)"/>
       <use xlink:href="#DejaVuSerif-33" transform="translate(147.412109 0)"/>
       <use xlink:href="#DejaVuSerif-30" transform="translate(211.035156 0)"/>
      </g>
     </g>
    </g>
    <g id="ytick_3">
     <g id="line2d_21">
      <path d="M 53.722813 244.204824 
L 723.322813 244.204824 
" clip-path="url(#p8a4b89ccc3)" style="fill: none; stroke-dasharray: 2.96,1.28; stroke-dashoffset: 0; stroke: #dddddd; stroke-width: 0.8"/>
     </g>
     <g id="line2d_22">
      <g>
       <use xlink:href="#md24bde8ae6" x="53.722813" y="244.204824" style="fill: #333333; stroke: #333333; stroke-width: 0.8"/>
      </g>
     </g>
     <g id="text_12">
      <!-- −125 -->
      <g style="fill: #333333" transform="translate(22.002344 247.624121) scale(0.09 -0.09)">
       <use xlink:href="#DejaVuSerif-2212"/>
       <use xlink:href="#DejaVuSerif-31" transform="translate(83.789062 0)"/>
       <use xlink:href="#DejaVuSerif-32" transform="translate(147.412109 0)"/>
       <use xlink:href="#DejaVuSerif-35" transform="translate(211.035156 0)"/>
      </g>
     </g>
    </g>
    <g id="ytick_4">
     <g id="line2d_23">
      <path d="M 53.722813 165.714297 
L 723.322813 165.714297 
" clip-path="url(#p8a4b89ccc3)" style="fill: none; stroke-dasharray: 2.96,1.28; stroke-dashoffset: 0; stroke: #dddddd; stroke-width: 0.8"/>
     </g>
     <g id="line2d_24">
      <g>
       <use xlink:href="#md24bde8ae6" x="53.722813" y="165.714297" style="fill: #333333; stroke: #333333; stroke-width: 0.8"/>
      </g>
     </g>
     <g id="text_13">
      <!-- −120 -->
      <g style="fill: #333333" transform="translate(22.002344 169.133594) scale(0.09 -0.09)">
       <use xlink:href="#DejaVuSerif-2212"/>
       <use xlink:href="#DejaVuSerif-31" transform="translate(83.789062 0)"/>
       <use xlink:href="#DejaVuSerif-32" transform="translate(147.412109 0)"/>
       <use xlink:href="#DejaVuSerif-30" transform="translate(211.035156 0)"/>
      </g>
     </g>
    </g>
    <g id="ytick_5">
     <g id="line2d_25">
      <path d="M 53.722813 87.22377 
L 723.322813 87.22377 
" clip-path="url(#p8a4b89ccc3)" style="fill: none; stroke-dasharray: 2.96,1.28; stroke-dashoffset: 0; stroke: #dddddd; stroke-width: 0.8"/>
     </g>
     <g id="line2d_26">
      <g>
       <use xlink:href="#md24bde8ae6" x="53.722813" y="87.22377" style="fill: #333333; stroke: #333333; stroke-width: 0.8"/>
      </g>
     </g>
     <g id="text_14">
      <!-- −115 -->
      <g style="fill: #333333" transform="translate(22.002344 90.643067) scale(0.09 -0.09)">
       <use xlink:href="#DejaVuSerif-2212"/>
       <use xlink:href="#DejaVuSerif-31" transform="translate(83.789062 0)"/>
       <use xlink:href="#DejaVuSerif-31" transform="translate(147.412109 0)"/>
       <use xlink:href="#DejaVuSerif-35" transform="translate(211.035156 0)"/>
      </g>
     </g>
    </g>
    <g id="text_15">
     <!-- Power Spectral Density (dB) -->
     <g transform="translate(15.558281 296.263984) rotate(-90) scale(0.11 -0.11)">
      <defs>
       <path id="DejaVuSerif-50" d="M 1581 2375 
L 2406 2375 
Q 2872 2375 3115 2626 
Q 3359 2878 3359 3353 
Q 3359 3831 3115 4081 
Q 2872 4331 2406 4331 
L 1581 4331 
L 1581 2375 
z
M 353 0 
L 353 331 
L 947 331 
L 947 4331 
L 353 4331 
L 353 4666 
L 2559 4666 
Q 3259 4666 3668 4311 
Q 4078 3956 4078 3353 
Q 4078 2753 3668 2397 
Q 3259 2041 2559 2041 
L 1581 2041 
L 1581 331 
L 2303 331 
L 2303 0 
L 353 0 
z
" transform="scale(0.015625)"/>
       <path id="DejaVuSerif-6f" d="M 1925 219 
Q 2388 219 2623 584 
Q 2859 950 2859 1663 
Q 2859 2375 2623 2739 
Q 2388 3103 1925 3103 
Q 1463 3103 1227 2739 
Q 991 2375 991 1663 
Q 991 950 1228 584 
Q 1466 219 1925 219 
z
M 1925 -91 
Q 1200 -91 759 389 
Q 319 869 319 1663 
Q 319 2456 758 2934 
Q 1197 3413 1925 3413 
Q 2653 3413 3092 2934 
Q 3531 2456 3531 1663 
Q 3531 869 3092 389 
Q 2653 -91 1925 -91 
z
" transform="scale(0.015625)"/>
       <path id="DejaVuSerif-77" d="M 3072 3322 
L 3922 728 
L 4672 2988 
L 4191 2988 
L 4191 3322 
L 5394 3322 
L 5394 2988 
L 5025 2988 
L 4038 0 
L 3559 0 
L 2741 2484 
L 1919 0 
L 1459 0 
L 475 2988 
L 103 2988 
L 103 3322 
L 1606 3322 
L 1606 2988 
L 1069 2988 
L 1813 728 
L 2669 3322 
L 3072 3322 
z
" transform="scale(0.015625)"/>
       <path id="DejaVuSerif-53" d="M 594 225 
L 594 1288 
L 953 1284 
Q 969 753 1261 498 
Q 1553 244 2150 244 
Q 2706 244 2998 464 
Q 3291 684 3291 1106 
Q 3291 1444 3114 1625 
Q 2938 1806 2369 1978 
L 1753 2163 
Q 1084 2366 811 2669 
Q 538 2972 538 3500 
Q 538 4094 959 4422 
Q 1381 4750 2144 4750 
Q 2469 4750 2856 4679 
Q 3244 4609 3681 4475 
L 3681 3481 
L 3328 3481 
Q 3275 3975 2998 4195 
Q 2722 4416 2156 4416 
Q 1663 4416 1405 4214 
Q 1147 4013 1147 3628 
Q 1147 3294 1340 3103 
Q 1534 2913 2163 2725 
L 2741 2553 
Q 3375 2363 3645 2067 
Q 3916 1772 3916 1275 
Q 3916 597 3481 253 
Q 3047 -91 2188 -91 
Q 1803 -91 1404 -12 
Q 1006 66 594 225 
z
" transform="scale(0.015625)"/>
       <path id="DejaVuSerif-70" d="M 1313 1825 
L 1313 1497 
Q 1313 897 1542 583 
Q 1772 269 2209 269 
Q 2650 269 2876 622 
Q 3103 975 3103 1663 
Q 3103 2353 2876 2703 
Q 2650 3053 2209 3053 
Q 1772 3053 1542 2737 
Q 1313 2422 1313 1825 
z
M 738 2988 
L 184 2988 
L 184 3322 
L 1313 3322 
L 1313 2803 
Q 1481 3116 1742 3264 
Q 2003 3413 2388 3413 
Q 3000 3413 3387 2928 
Q 3775 2444 3775 1663 
Q 3775 881 3387 395 
Q 3000 -91 2388 -91 
Q 2003 -91 1742 57 
Q 1481 206 1313 519 
L 1313 -997 
L 1856 -997 
L 1856 -1331 
L 184 -1331 
L 184 -997 
L 738 -997 
L 738 2988 
z
" transform="scale(0.015625)"/>
       <path id="DejaVuSerif-74" d="M 691 2988 
L 184 2988 
L 184 3322 
L 691 3322 
L 691 4353 
L 1269 4353 
L 1269 3322 
L 2350 3322 
L 2350 2988 
L 1269 2988 
L 1269 878 
Q 1269 456 1350 337 
Q 1431 219 1650 219 
Q 1875 219 1978 351 
Q 2081 484 2088 781 
L 2522 781 
Q 2497 328 2275 118 
Q 2053 -91 1600 -91 
Q 1103 -91 897 129 
Q 691 350 691 878 
L 691 2988 
z
" transform="scale(0.015625)"/>
       <path id="DejaVuSerif-61" d="M 2547 1044 
L 2547 1747 
L 1806 1747 
Q 1378 1747 1168 1562 
Q 959 1378 959 997 
Q 959 650 1171 447 
Q 1384 244 1747 244 
Q 2106 244 2326 466 
Q 2547 688 2547 1044 
z
M 3122 2075 
L 3122 331 
L 3634 331 
L 3634 0 
L 2547 0 
L 2547 359 
Q 2356 128 2106 18 
Q 1856 -91 1522 -91 
Q 969 -91 644 203 
Q 319 497 319 997 
Q 319 1513 691 1797 
Q 1063 2081 1741 2081 
L 2547 2081 
L 2547 2309 
Q 2547 2688 2317 2895 
Q 2088 3103 1672 3103 
Q 1328 3103 1125 2947 
Q 922 2791 872 2484 
L 575 2484 
L 575 3156 
Q 875 3284 1158 3348 
Q 1441 3413 1709 3413 
Q 2400 3413 2761 3070 
Q 3122 2728 3122 2075 
z
" transform="scale(0.015625)"/>
       <path id="DejaVuSerif-6c" d="M 1313 331 
L 1856 331 
L 1856 0 
L 184 0 
L 184 331 
L 738 331 
L 738 4531 
L 184 4531 
L 184 4863 
L 1313 4863 
L 1313 331 
z
" transform="scale(0.015625)"/>
       <path id="DejaVuSerif-44" d="M 1581 331 
L 2163 331 
Q 3072 331 3558 850 
Q 4044 1369 4044 2338 
Q 4044 3306 3559 3818 
Q 3075 4331 2163 4331 
L 1581 4331 
L 1581 331 
z
M 353 0 
L 353 331 
L 947 331 
L 947 4331 
L 353 4331 
L 353 4666 
L 2209 4666 
Q 3416 4666 4089 4050 
Q 4763 3434 4763 2338 
Q 4763 1238 4088 619 
Q 3413 0 2209 0 
L 353 0 
z
" transform="scale(0.015625)"/>
       <path id="DejaVuSerif-73" d="M 359 184 
L 359 959 
L 691 959 
Q 703 588 923 403 
Q 1144 219 1575 219 
Q 1963 219 2166 364 
Q 2369 509 2369 788 
Q 2369 1006 2220 1140 
Q 2072 1275 1594 1428 
L 1178 1569 
Q 750 1706 558 1912 
Q 366 2119 366 2438 
Q 366 2894 700 3153 
Q 1034 3413 1625 3413 
Q 1888 3413 2178 3344 
Q 2469 3275 2778 3144 
L 2778 2419 
L 2447 2419 
Q 2434 2741 2221 2922 
Q 2009 3103 1644 3103 
Q 1281 3103 1095 2975 
Q 909 2847 909 2591 
Q 909 2381 1050 2254 
Q 1191 2128 1613 1997 
L 2069 1856 
Q 2541 1709 2748 1489 
Q 2956 1269 2956 922 
Q 2956 450 2595 179 
Q 2234 -91 1600 -91 
Q 1278 -91 972 -22 
Q 666 47 359 184 
z
" transform="scale(0.015625)"/>
       <path id="DejaVuSerif-69" d="M 622 4353 
Q 622 4497 726 4603 
Q 831 4709 978 4709 
Q 1122 4709 1226 4603 
Q 1331 4497 1331 4353 
Q 1331 4206 1228 4103 
Q 1125 4000 978 4000 
Q 831 4000 726 4103 
Q 622 4206 622 4353 
z
M 1356 331 
L 1900 331 
L 1900 0 
L 231 0 
L 231 331 
L 781 331 
L 781 2988 
L 231 2988 
L 231 3322 
L 1356 3322 
L 1356 331 
z
" transform="scale(0.015625)"/>
       <path id="DejaVuSerif-64" d="M 3359 331 
L 3909 331 
L 3909 0 
L 2784 0 
L 2784 519 
Q 2616 206 2355 57 
Q 2094 -91 1709 -91 
Q 1097 -91 708 395 
Q 319 881 319 1663 
Q 319 2444 706 2928 
Q 1094 3413 1709 3413 
Q 2094 3413 2355 3264 
Q 2616 3116 2784 2803 
L 2784 4531 
L 2241 4531 
L 2241 4863 
L 3359 4863 
L 3359 331 
z
M 2784 1497 
L 2784 1825 
Q 2784 2422 2554 2737 
Q 2325 3053 1888 3053 
Q 1444 3053 1217 2703 
Q 991 2353 991 1663 
Q 991 975 1217 622 
Q 1444 269 1888 269 
Q 2325 269 2554 583 
Q 2784 897 2784 1497 
z
" transform="scale(0.015625)"/>
       <path id="DejaVuSerif-42" d="M 1581 331 
L 2516 331 
Q 3078 331 3337 575 
Q 3597 819 3597 1350 
Q 3597 1878 3339 2120 
Q 3081 2363 2516 2363 
L 1581 2363 
L 1581 331 
z
M 1581 2694 
L 2375 2694 
Q 2888 2694 3123 2891 
Q 3359 3088 3359 3513 
Q 3359 3941 3123 4136 
Q 2888 4331 2375 4331 
L 1581 4331 
L 1581 2694 
z
M 353 0 
L 353 331 
L 947 331 
L 947 4331 
L 353 4331 
L 353 4666 
L 2656 4666 
Q 3363 4666 3720 4377 
Q 4078 4088 4078 3513 
Q 4078 3097 3829 2850 
Q 3581 2603 3103 2547 
Q 3697 2472 4005 2167 
Q 4313 1863 4313 1350 
Q 4313 656 3875 328 
Q 3438 0 2509 0 
L 353 0 
z
" transform="scale(0.015625)"/>
      </defs>
      <use xlink:href="#DejaVuSerif-50"/>
      <use xlink:href="#DejaVuSerif-6f" transform="translate(63.285156 0)"/>
      <use xlink:href="#DejaVuSerif-77" transform="translate(123.490234 0)"/>
      <use xlink:href="#DejaVuSerif-65" transform="translate(209.085938 0)"/>
      <use xlink:href="#DejaVuSerif-72" transform="translate(268.265625 0)"/>
      <use xlink:href="#DejaVuSerif-20" transform="translate(316.068359 0)"/>
      <use xlink:href="#DejaVuSerif-53" transform="translate(347.855469 0)"/>
      <use xlink:href="#DejaVuSerif-70" transform="translate(416.361328 0)"/>
      <use xlink:href="#DejaVuSerif-65" transform="translate(480.375 0)"/>
      <use xlink:href="#DejaVuSerif-63" transform="translate(539.554688 0)"/>
      <use xlink:href="#DejaVuSerif-74" transform="translate(595.560547 0)"/>
      <use xlink:href="#DejaVuSerif-72" transform="translate(635.746094 0)"/>
      <use xlink:href="#DejaVuSerif-61" transform="translate(683.548828 0)"/>
      <use xlink:href="#DejaVuSerif-6c" transform="translate(743.167969 0)"/>
      <use xlink:href="#DejaVuSerif-20" transform="translate(775.150391 0)"/>
      <use xlink:href="#DejaVuSerif-44" transform="translate(806.9375 0)"/>
      <use xlink:href="#DejaVuSerif-65" transform="translate(887.113281 0)"/>
      <use xlink:href="#DejaVuSerif-6e" transform="translate(946.292969 0)"/>
      <use xlink:href="#DejaVuSerif-73" transform="translate(1010.697266 0)"/>
      <use xlink:href="#DejaVuSerif-69" transform="translate(1062.015625 0)"/>
      <use xlink:href="#DejaVuSerif-74" transform="translate(1093.998047 0)"/>
      <use xlink:href="#DejaVuSerif-79" transform="translate(1134.183594 0)"/>
      <use xlink:href="#DejaVuSerif-20" transform="translate(1190.677734 0)"/>
      <use xlink:href="#DejaVuSerif-28" transform="translate(1222.464844 0)"/>
      <use xlink:href="#DejaVuSerif-64" transform="translate(1261.478516 0)"/>
      <use xlink:href="#DejaVuSerif-42" transform="translate(1325.492188 0)"/>
      <use xlink:href="#DejaVuSerif-29" transform="translate(1398.978516 0)"/>
     </g>
    </g>
   </g>
   <g id="line2d_27">
    <path d="M 84.159176 121.091569 
L 92.613722 125.67178 
L 101.068267 126.264115 
L 109.522812 122.642729 
L 117.977358 115.234728 
L 126.431903 105.7184 
L 134.886449 98.149201 
L 143.340994 95.19517 
L 151.79554 95.011233 
L 160.250085 91.989158 
L 168.704631 82.383434 
L 177.159176 71.754754 
L 185.613722 66.737841 
L 194.068267 72.476741 
L 202.522812 92.218739 
L 210.977358 125.273338 
L 219.431903 163.919149 
L 227.886449 193.851046 
L 236.340994 210.365004 
L 244.79554 218.459631 
L 253.250085 221.893562 
L 261.704631 222.871517 
L 270.159176 223.353891 
L 278.613722 225.110167 
L 287.068267 227.395074 
L 295.522812 228.944425 
L 303.977358 230.400762 
L 312.431903 233.109367 
L 320.886449 236.416594 
L 329.340994 238.469975 
L 337.79554 238.663334 
L 346.250085 238.039937 
L 354.704631 237.819698 
L 363.159176 238.529056 
L 371.613722 240.854145 
L 380.068267 245.647528 
L 388.522812 252.666599 
L 396.977358 259.808292 
L 405.431903 265.753794 
L 413.886449 271.072592 
L 422.340994 275.90781 
L 430.79554 280.19632 
L 439.250085 284.955008 
L 447.704631 290.406362 
L 456.159176 295.161571 
L 464.613722 298.527134 
L 473.068267 301.099287 
L 481.522812 303.640547 
L 489.977358 306.520017 
L 498.431903 309.087335 
L 506.886449 310.977019 
L 515.340994 312.741403 
L 523.79554 314.705301 
L 532.250085 316.750494 
L 540.704631 318.709405 
L 549.159176 320.680653 
L 557.613722 322.768496 
L 566.068267 325.263863 
L 574.522812 328.328802 
L 582.977358 331.151595 
L 591.431903 333.133686 
L 599.886449 334.720184 
L 608.340994 336.495993 
L 616.79554 338.53931 
L 625.250085 340.412249 
L 633.704631 342.150891 
L 642.159176 343.688311 
L 650.613722 344.614722 
L 659.068267 345.308195 
L 667.522812 346.116723 
L 675.977358 347.330973 
L 684.431903 348.960134 
L 692.886449 350.533094 
" clip-path="url(#p8a4b89ccc3)" style="fill: none; stroke: #1f77b4; stroke-width: 1.5; stroke-linecap: square"/>
   </g>
   <g id="line2d_28">
    <path d="M 84.159176 121.485888 
L 92.613722 126.385192 
L 101.068267 127.284256 
L 109.522812 122.664053 
L 117.977358 113.265665 
L 126.431903 101.647122 
L 134.886449 91.549242 
L 143.340994 85.263035 
L 151.79554 81.664257 
L 160.250085 76.246654 
L 168.704631 65.686946 
L 177.159176 55.668514 
L 185.613722 53.511175 
L 194.068267 63.197341 
L 202.522812 85.689367 
L 210.977358 118.375641 
L 219.431903 155.317498 
L 227.886449 188.145875 
L 236.340994 209.358332 
L 244.79554 219.443806 
L 253.250085 222.898546 
L 261.704631 223.097447 
L 270.159176 223.429902 
L 278.613722 225.317824 
L 287.068267 228.063218 
L 295.522812 231.627963 
L 303.977358 235.208392 
L 312.431903 237.832331 
L 320.886449 238.931129 
L 329.340994 238.617992 
L 337.79554 237.90976 
L 346.250085 237.499891 
L 354.704631 237.965643 
L 363.159176 239.552879 
L 371.613722 242.307086 
L 380.068267 246.316009 
L 388.522812 251.205684 
L 396.977358 256.681183 
L 405.431903 263.098501 
L 413.886449 270.082638 
L 422.340994 276.62282 
L 430.79554 282.226041 
L 439.250085 287.508304 
L 447.704631 292.590279 
L 456.159176 297.270365 
L 464.613722 301.246263 
L 473.068267 305.052445 
L 481.522812 308.839883 
L 489.977358 311.801694 
L 498.431903 314.317986 
L 506.886449 317.483198 
L 515.340994 320.711849 
L 523.79554 322.935711 
L 532.250085 324.419776 
L 540.704631 326.31718 
L 549.159176 329.35951 
L 557.613722 332.862652 
L 566.068267 335.709444 
L 574.522812 338.02326 
L 582.977358 340.357639 
L 591.431903 342.24082 
L 599.886449 343.386415 
L 608.340994 344.976393 
L 616.79554 347.602485 
L 625.250085 349.919476 
L 633.704631 351.67304 
L 642.159176 353.814172 
L 650.613722 356.076199 
L 659.068267 357.633231 
L 667.522812 358.4378 
L 675.977358 358.427239 
L 684.431903 358.109182 
L 692.886449 358.841946 
" clip-path="url(#p8a4b89ccc3)" style="fill: none; stroke: #d62728; stroke-width: 1.5; stroke-linecap: square"/>
   </g>
   <g id="line2d_29">
    <path d="M 84.159176 117.126266 
L 92.613722 122.940616 
L 101.068267 126.691548 
L 109.522812 124.257718 
L 117.977358 114.476547 
L 126.431903 105.56876 
L 134.886449 101.363291 
L 143.340994 99.380529 
L 151.79554 96.905589 
L 160.250085 88.476939 
L 168.704631 73.196589 
L 177.159176 59.253055 
L 185.613722 54.568795 
L 194.068267 64.599104 
L 202.522812 89.81796 
L 210.977358 126.183093 
L 219.431903 164.728038 
L 227.886449 194.525752 
L 236.340994 212.657282 
L 244.79554 221.190444 
L 253.250085 224.783149 
L 261.704631 227.250205 
L 270.159176 230.072434 
L 278.613722 232.398439 
L 287.068267 233.645309 
L 295.522812 234.6356 
L 303.977358 235.645543 
L 312.431903 237.155659 
L 320.886449 238.524985 
L 329.340994 238.912283 
L 337.79554 237.572134 
L 346.250085 236.22095 
L 354.704631 237.783878 
L 363.159176 241.654721 
L 371.613722 246.28908 
L 380.068267 251.387642 
L 388.522812 257.461746 
L 396.977358 264.466854 
L 405.431903 272.022036 
L 413.886449 278.654025 
L 422.340994 283.039564 
L 430.79554 286.426883 
L 439.250085 290.960913 
L 447.704631 296.856058 
L 456.159176 302.360514 
L 464.613722 305.57066 
L 473.068267 307.891205 
L 481.522812 311.683985 
L 489.977358 315.984949 
L 498.431903 318.688902 
L 506.886449 319.485719 
L 515.340994 320.033059 
L 523.79554 322.303033 
L 532.250085 326.60766 
L 540.704631 331.649427 
L 549.159176 336.623214 
L 557.613722 340.628706 
L 566.068267 343.029325 
L 574.522812 345.211397 
L 582.977358 347.64065 
L 591.431903 349.447484 
L 599.886449 351.105211 
L 608.340994 353.973045 
L 616.79554 357.950298 
L 625.250085 361.443352 
L 633.704631 363.330864 
L 642.159176 363.802185 
L 650.613722 364.965161 
L 659.068267 366.860884 
L 667.522812 368.463085 
L 675.977358 369.937872 
L 684.431903 371.559758 
L 692.886449 372.667584 
" clip-path="url(#p8a4b89ccc3)" style="fill: none; stroke: #e377c2; stroke-width: 1.5; stroke-linecap: square"/>
   </g>
   <g id="line2d_30">
    <path d="M 84.159176 121.656929 
L 92.613722 125.14486 
L 101.068267 124.024063 
L 109.522812 118.222162 
L 117.977358 107.586193 
L 126.431903 93.928121 
L 134.886449 82.920545 
L 143.340994 77.86535 
L 151.79554 77.189599 
L 160.250085 73.015786 
L 168.704631 59.100244 
L 177.159176 44.52632 
L 185.613722 40.774844 
L 194.068267 52.761453 
L 202.522812 80.574929 
L 210.977358 120.570858 
L 219.431903 162.868324 
L 227.886449 194.108294 
L 236.340994 210.786533 
L 244.79554 218.185284 
L 253.250085 220.974715 
L 261.704631 222.430669 
L 270.159176 223.109214 
L 278.613722 223.535082 
L 287.068267 224.361551 
L 295.522812 225.335419 
L 303.977358 225.636903 
L 312.431903 225.619892 
L 320.886449 226.260181 
L 329.340994 227.731169 
L 337.79554 228.861482 
L 346.250085 229.234335 
L 354.704631 230.30737 
L 363.159176 233.122318 
L 371.613722 237.759473 
L 380.068267 243.669075 
L 388.522812 250.404146 
L 396.977358 257.305369 
L 405.431903 263.599427 
L 413.886449 268.146653 
L 422.340994 271.859468 
L 430.79554 276.313166 
L 439.250085 281.290984 
L 447.704631 286.138659 
L 456.159176 290.254293 
L 464.613722 292.987277 
L 473.068267 294.340459 
L 481.522812 295.575121 
L 489.977358 297.615253 
L 498.431903 299.800613 
L 506.886449 302.155368 
L 515.340994 304.567949 
L 523.79554 306.74594 
L 532.250085 308.518546 
L 540.704631 310.289094 
L 549.159176 312.794673 
L 557.613722 315.567742 
L 566.068267 317.580137 
L 574.522812 318.917543 
L 582.977358 320.430214 
L 591.431903 323.080267 
L 599.886449 326.288702 
L 608.340994 327.740589 
L 616.79554 327.115369 
L 625.250085 327.105752 
L 633.704631 329.201083 
L 642.159176 331.976801 
L 650.613722 333.654811 
L 659.068267 334.153995 
L 667.522812 334.566995 
L 675.977358 335.823344 
L 684.431903 337.557115 
L 692.886449 338.598242 
" clip-path="url(#p8a4b89ccc3)" style="fill: none; stroke: #17becf; stroke-width: 1.5; stroke-linecap: square"/>
   </g>
   <g id="patch_3">
    <path d="M 53.722813 411.214844 
L 53.722813 23.134844 
" style="fill: none; stroke: #333333; stroke-linejoin: miter; stroke-linecap: square"/>
   </g>
   <g id="patch_4">
    <path d="M 53.722812 411.214844 
L 723.322812 411.214844 
" style="fill: none; stroke: #333333; stroke-linejoin: miter; stroke-linecap: square"/>
   </g>
   <g id="text_16">
    <!-- Dataset: Jin et al. (2019) | Subject: 27 | Session: 1 | All Task-State PSDs -->
    <g transform="translate(152.969922 17.134844) scale(0.13 -0.13)">
     <defs>
      <path id="DejaVuSerif-3a" d="M 666 325 
Q 666 500 786 622 
Q 906 744 1081 744 
Q 1256 744 1376 622 
Q 1497 500 1497 325 
Q 1497 150 1378 29 
Q 1259 -91 1081 -91 
Q 903 -91 784 29 
Q 666 150 666 325 
z
M 666 2363 
Q 666 2538 786 2658 
Q 906 2778 1081 2778 
Q 1259 2778 1378 2659 
Q 1497 2541 1497 2363 
Q 1497 2184 1378 2065 
Q 1259 1947 1081 1947 
Q 906 1947 786 2067 
Q 666 2188 666 2363 
z
" transform="scale(0.015625)"/>
      <path id="DejaVuSerif-4a" d="M -538 -1119 
L -538 -384 
L -181 -384 
Q -172 -694 -34 -845 
Q 103 -997 378 -997 
Q 750 -997 897 -762 
Q 1044 -528 1044 153 
L 1044 4331 
L 319 4331 
L 319 4666 
L 2272 4666 
L 2272 4331 
L 1678 4331 
L 1678 128 
Q 1678 -644 1368 -987 
Q 1059 -1331 372 -1331 
Q 150 -1331 -79 -1278 
Q -309 -1225 -538 -1119 
z
" transform="scale(0.015625)"/>
      <path id="DejaVuSerif-2e" d="M 603 325 
Q 603 500 722 622 
Q 841 744 1019 744 
Q 1191 744 1312 622 
Q 1434 500 1434 325 
Q 1434 153 1312 31 
Q 1191 -91 1019 -91 
Q 841 -91 722 29 
Q 603 150 603 325 
z
" transform="scale(0.015625)"/>
      <path id="DejaVuSerif-39" d="M 2994 2091 
Q 2784 1856 2512 1740 
Q 2241 1625 1900 1625 
Q 1206 1625 804 2044 
Q 403 2463 403 3188 
Q 403 3897 839 4323 
Q 1275 4750 2003 4750 
Q 2794 4750 3217 4161 
Q 3641 3572 3641 2478 
Q 3641 1253 3137 581 
Q 2634 -91 1722 -91 
Q 1475 -91 1203 -44 
Q 931 3 647 97 
L 647 872 
L 997 872 
Q 1038 556 1241 387 
Q 1444 219 1784 219 
Q 2391 219 2687 676 
Q 2984 1134 2994 2091 
z
M 1978 4441 
Q 1534 4441 1298 4117 
Q 1063 3794 1063 3188 
Q 1063 2581 1298 2256 
Q 1534 1931 1978 1931 
Q 2422 1931 2658 2245 
Q 2894 2559 2894 3150 
Q 2894 3772 2656 4106 
Q 2419 4441 1978 4441 
z
" transform="scale(0.015625)"/>
      <path id="DejaVuSerif-7c" d="M 1331 4891 
L 1331 -1509 
L 825 -1509 
L 825 4891 
L 1331 4891 
z
" transform="scale(0.015625)"/>
      <path id="DejaVuSerif-62" d="M 738 331 
L 738 4531 
L 184 4531 
L 184 4863 
L 1313 4863 
L 1313 2803 
Q 1481 3116 1742 3264 
Q 2003 3413 2388 3413 
Q 3000 3413 3387 2928 
Q 3775 2444 3775 1663 
Q 3775 881 3387 395 
Q 3000 -91 2388 -91 
Q 2003 -91 1742 57 
Q 1481 206 1313 519 
L 1313 0 
L 184 0 
L 184 331 
L 738 331 
z
M 1313 1497 
Q 1313 897 1542 583 
Q 1772 269 2209 269 
Q 2650 269 2876 622 
Q 3103 975 3103 1663 
Q 3103 2353 2876 2703 
Q 2650 3053 2209 3053 
Q 1772 3053 1542 2737 
Q 1313 2422 1313 1825 
L 1313 1497 
z
" transform="scale(0.015625)"/>
      <path id="DejaVuSerif-6a" d="M 641 4353 
Q 641 4497 745 4603 
Q 850 4709 997 4709 
Q 1141 4709 1245 4603 
Q 1350 4497 1350 4353 
Q 1350 4206 1248 4103 
Q 1147 4000 997 4000 
Q 850 4000 745 4103 
Q 641 4206 641 4353 
z
M 781 2988 
L 238 2988 
L 238 3322 
L 1356 3322 
L 1356 -325 
Q 1356 -838 1051 -1130 
Q 747 -1422 213 -1422 
Q -13 -1422 -217 -1370 
Q -422 -1319 -616 -1216 
L -616 -531 
L -319 -531 
Q -297 -831 -164 -972 
Q -31 -1113 225 -1113 
Q 509 -1113 645 -920 
Q 781 -728 781 -325 
L 781 2988 
z
" transform="scale(0.015625)"/>
      <path id="DejaVuSerif-37" d="M 3609 4347 
L 1784 0 
L 1319 0 
L 3059 4153 
L 903 4153 
L 903 3578 
L 538 3578 
L 538 4666 
L 3609 4666 
L 3609 4347 
z
" transform="scale(0.015625)"/>
      <path id="DejaVuSerif-41" d="M 1281 1691 
L 2994 1691 
L 2138 3909 
L 1281 1691 
z
M -38 0 
L -38 331 
L 372 331 
L 2034 4666 
L 2559 4666 
L 4225 331 
L 4684 331 
L 4684 0 
L 2988 0 
L 2988 331 
L 3506 331 
L 3116 1356 
L 1153 1356 
L 763 331 
L 1275 331 
L 1275 0 
L -38 0 
z
" transform="scale(0.015625)"/>
      <path id="DejaVuSerif-54" d="M 1222 0 
L 1222 331 
L 1819 331 
L 1819 4294 
L 447 4294 
L 447 3566 
L 63 3566 
L 63 4666 
L 4206 4666 
L 4206 3566 
L 3822 3566 
L 3822 4294 
L 2450 4294 
L 2450 331 
L 3047 331 
L 3047 0 
L 1222 0 
z
" transform="scale(0.015625)"/>
      <path id="DejaVuSerif-6b" d="M 1831 0 
L 219 0 
L 219 331 
L 738 331 
L 738 4531 
L 184 4531 
L 184 4863 
L 1313 4863 
L 1313 1697 
L 2713 2988 
L 2234 2988 
L 2234 3322 
L 3738 3322 
L 3738 2988 
L 3169 2988 
L 2181 2075 
L 3444 331 
L 3922 331 
L 3922 0 
L 2284 0 
L 2284 331 
L 2759 331 
L 1766 1697 
L 1313 1275 
L 1313 331 
L 1831 331 
L 1831 0 
z
" transform="scale(0.015625)"/>
      <path id="DejaVuSerif-2d" d="M 281 1959 
L 1881 1959 
L 1881 1472 
L 281 1472 
L 281 1959 
z
" transform="scale(0.015625)"/>
     </defs>
     <use xlink:href="#DejaVuSerif-44"/>
     <use xlink:href="#DejaVuSerif-61" transform="translate(80.175781 0)"/>
     <use xlink:href="#DejaVuSerif-74" transform="translate(139.794922 0)"/>
     <use xlink:href="#DejaVuSerif-61" transform="translate(179.980469 0)"/>
     <use xlink:href="#DejaVuSerif-73" transform="translate(239.599609 0)"/>
     <use xlink:href="#DejaVuSerif-65" transform="translate(290.917969 0)"/>
     <use xlink:href="#DejaVuSerif-74" transform="translate(350.097656 0)"/>
     <use xlink:href="#DejaVuSerif-3a" transform="translate(390.283203 0)"/>
     <use xlink:href="#DejaVuSerif-20" transform="translate(423.974609 0)"/>
     <use xlink:href="#DejaVuSerif-4a" transform="translate(455.761719 0)"/>
     <use xlink:href="#DejaVuSerif-69" transform="translate(495.849609 0)"/>
     <use xlink:href="#DejaVuSerif-6e" transform="translate(527.832031 0)"/>
     <use xlink:href="#DejaVuSerif-20" transform="translate(592.236328 0)"/>
     <use xlink:href="#DejaVuSerif-65" transform="translate(624.023438 0)"/>
     <use xlink:href="#DejaVuSerif-74" transform="translate(683.203125 0)"/>
     <use xlink:href="#DejaVuSerif-20" transform="translate(723.388672 0)"/>
     <use xlink:href="#DejaVuSerif-61" transform="translate(755.175781 0)"/>
     <use xlink:href="#DejaVuSerif-6c" transform="translate(814.794922 0)"/>
     <use xlink:href="#DejaVuSerif-2e" transform="translate(846.777344 0)"/>
     <use xlink:href="#DejaVuSerif-20" transform="translate(878.564453 0)"/>
     <use xlink:href="#DejaVuSerif-28" transform="translate(910.351562 0)"/>
     <use xlink:href="#DejaVuSerif-32" transform="translate(949.365234 0)"/>
     <use xlink:href="#DejaVuSerif-30" transform="translate(1012.988281 0)"/>
     <use xlink:href="#DejaVuSerif-31" transform="translate(1076.611328 0)"/>
     <use xlink:href="#DejaVuSerif-39" transform="translate(1140.234375 0)"/>
     <use xlink:href="#DejaVuSerif-29" transform="translate(1203.857422 0)"/>
     <use xlink:href="#DejaVuSerif-20" transform="translate(1242.871094 0)"/>
     <use xlink:href="#DejaVuSerif-7c" transform="translate(1274.658203 0)"/>
     <use xlink:href="#DejaVuSerif-20" transform="translate(1308.349609 0)"/>
     <use xlink:href="#DejaVuSerif-53" transform="translate(1340.136719 0)"/>
     <use xlink:href="#DejaVuSerif-75" transform="translate(1408.642578 0)"/>
     <use xlink:href="#DejaVuSerif-62" transform="translate(1473.046875 0)"/>
     <use xlink:href="#DejaVuSerif-6a" transform="translate(1537.060547 0)"/>
     <use xlink:href="#DejaVuSerif-65" transform="translate(1568.066406 0)"/>
     <use xlink:href="#DejaVuSerif-63" transform="translate(1627.246094 0)"/>
     <use xlink:href="#DejaVuSerif-74" transform="translate(1683.251953 0)"/>
     <use xlink:href="#DejaVuSerif-3a" transform="translate(1723.4375 0)"/>
     <use xlink:href="#DejaVuSerif-20" transform="translate(1757.128906 0)"/>
     <use xlink:href="#DejaVuSerif-32" transform="translate(1788.916016 0)"/>
     <use xlink:href="#DejaVuSerif-37" transform="translate(1852.539062 0)"/>
     <use xlink:href="#DejaVuSerif-20" transform="translate(1916.162109 0)"/>
     <use xlink:href="#DejaVuSerif-7c" transform="translate(1947.949219 0)"/>
     <use xlink:href="#DejaVuSerif-20" transform="translate(1981.640625 0)"/>
     <use xlink:href="#DejaVuSerif-53" transform="translate(2013.427734 0)"/>
     <use xlink:href="#DejaVuSerif-65" transform="translate(2081.933594 0)"/>
     <use xlink:href="#DejaVuSerif-73" transform="translate(2141.113281 0)"/>
     <use xlink:href="#DejaVuSerif-73" transform="translate(2192.431641 0)"/>
     <use xlink:href="#DejaVuSerif-69" transform="translate(2243.75 0)"/>
     <use xlink:href="#DejaVuSerif-6f" transform="translate(2275.732422 0)"/>
     <use xlink:href="#DejaVuSerif-6e" transform="translate(2335.9375 0)"/>
     <use xlink:href="#DejaVuSerif-3a" transform="translate(2400.341797 0)"/>
     <use xlink:href="#DejaVuSerif-20" transform="translate(2434.033203 0)"/>
     <use xlink:href="#DejaVuSerif-31" transform="translate(2465.820312 0)"/>
     <use xlink:href="#DejaVuSerif-20" transform="translate(2529.443359 0)"/>
     <use xlink:href="#DejaVuSerif-7c" transform="translate(2561.230469 0)"/>
     <use xlink:href="#DejaVuSerif-20" transform="translate(2594.921875 0)"/>
     <use xlink:href="#DejaVuSerif-41" transform="translate(2626.708984 0)"/>
     <use xlink:href="#DejaVuSerif-6c" transform="translate(2698.925781 0)"/>
     <use xlink:href="#DejaVuSerif-6c" transform="translate(2730.908203 0)"/>
     <use xlink:href="#DejaVuSerif-20" transform="translate(2762.890625 0)"/>
     <use xlink:href="#DejaVuSerif-54" transform="translate(2794.677734 0)"/>
     <use xlink:href="#DejaVuSerif-61" transform="translate(2853.626953 0)"/>
     <use xlink:href="#DejaVuSerif-73" transform="translate(2913.246094 0)"/>
     <use xlink:href="#DejaVuSerif-6b" transform="translate(2964.564453 0)"/>
     <use xlink:href="#DejaVuSerif-2d" transform="translate(3023.410156 0)"/>
     <use xlink:href="#DejaVuSerif-53" transform="translate(3057.199219 0)"/>
     <use xlink:href="#DejaVuSerif-74" transform="translate(3125.705078 0)"/>
     <use xlink:href="#DejaVuSerif-61" transform="translate(3165.890625 0)"/>
     <use xlink:href="#DejaVuSerif-74" transform="translate(3225.509766 0)"/>
     <use xlink:href="#DejaVuSerif-65" transform="translate(3265.695312 0)"/>
     <use xlink:href="#DejaVuSerif-20" transform="translate(3324.875 0)"/>
     <use xlink:href="#DejaVuSerif-50" transform="translate(3356.662109 0)"/>
     <use xlink:href="#DejaVuSerif-53" transform="translate(3423.947266 0)"/>
     <use xlink:href="#DejaVuSerif-44" transform="translate(3492.453125 0)"/>
     <use xlink:href="#DejaVuSerif-73" transform="translate(3572.628906 0)"/>
    </g>
   </g>
   <g id="legend_1">
    <g id="line2d_31">
     <path d="M 636.1775 36.233281 
L 646.1775 36.233281 
L 656.1775 36.233281 
" style="fill: none; stroke: #1f77b4; stroke-width: 1.5; stroke-linecap: square"/>
    </g>
    <g id="text_17">
     <!-- vs - MW -->
     <g transform="translate(664.1775 39.733281) scale(0.1 -0.1)">
      <defs>
       <path id="DejaVuSerif-76" d="M 1581 0 
L 359 2988 
L -19 2988 
L -19 3322 
L 1509 3322 
L 1509 2988 
L 978 2988 
L 1913 703 
L 2847 2988 
L 2350 2988 
L 2350 3322 
L 3597 3322 
L 3597 2988 
L 3225 2988 
L 2003 0 
L 1581 0 
z
" transform="scale(0.015625)"/>
       <path id="DejaVuSerif-4d" d="M 353 0 
L 353 331 
L 947 331 
L 947 4331 
L 319 4331 
L 319 4666 
L 1678 4666 
L 3316 1344 
L 4953 4666 
L 6228 4666 
L 6228 4331 
L 5606 4331 
L 5606 331 
L 6203 331 
L 6203 0 
L 4378 0 
L 4378 331 
L 4972 331 
L 4972 3938 
L 3372 684 
L 2931 684 
L 1331 3938 
L 1331 331 
L 1925 331 
L 1925 0 
L 353 0 
z
" transform="scale(0.015625)"/>
       <path id="DejaVuSerif-57" d="M 4878 0 
L 4366 0 
L 3297 3794 
L 2228 0 
L 1716 0 
L 494 4331 
L 31 4331 
L 31 4666 
L 1734 4666 
L 1734 4331 
L 1153 4331 
L 2125 884 
L 3188 4666 
L 3694 4666 
L 4775 844 
L 5753 4331 
L 5216 4331 
L 5216 4666 
L 6559 4666 
L 6559 4331 
L 6100 4331 
L 4878 0 
z
" transform="scale(0.015625)"/>
      </defs>
      <use xlink:href="#DejaVuSerif-76"/>
      <use xlink:href="#DejaVuSerif-73" transform="translate(56.494141 0)"/>
      <use xlink:href="#DejaVuSerif-20" transform="translate(107.8125 0)"/>
      <use xlink:href="#DejaVuSerif-2d" transform="translate(139.599609 0)"/>
      <use xlink:href="#DejaVuSerif-20" transform="translate(173.388672 0)"/>
      <use xlink:href="#DejaVuSerif-4d" transform="translate(205.175781 0)"/>
      <use xlink:href="#DejaVuSerif-57" transform="translate(307.568359 0)"/>
     </g>
    </g>
    <g id="line2d_32">
     <path d="M 636.1775 50.911406 
L 646.1775 50.911406 
L 656.1775 50.911406 
" style="fill: none; stroke: #d62728; stroke-width: 1.5; stroke-linecap: square"/>
    </g>
    <g id="text_18">
     <!-- vs - OT -->
     <g transform="translate(664.1775 54.411406) scale(0.1 -0.1)">
      <defs>
       <path id="DejaVuSerif-4f" d="M 2625 244 
Q 3391 244 3781 770 
Q 4172 1297 4172 2328 
Q 4172 3363 3781 3889 
Q 3391 4416 2625 4416 
Q 1856 4416 1465 3889 
Q 1075 3363 1075 2328 
Q 1075 1297 1465 770 
Q 1856 244 2625 244 
z
M 2625 -91 
Q 2150 -91 1751 65 
Q 1353 222 1050 525 
Q 700 875 529 1319 
Q 359 1763 359 2328 
Q 359 2894 529 3339 
Q 700 3784 1050 4134 
Q 1356 4441 1750 4595 
Q 2144 4750 2625 4750 
Q 3641 4750 4266 4084 
Q 4891 3419 4891 2328 
Q 4891 1769 4719 1320 
Q 4547 872 4197 525 
Q 3891 219 3497 64 
Q 3103 -91 2625 -91 
z
" transform="scale(0.015625)"/>
      </defs>
      <use xlink:href="#DejaVuSerif-76"/>
      <use xlink:href="#DejaVuSerif-73" transform="translate(56.494141 0)"/>
      <use xlink:href="#DejaVuSerif-20" transform="translate(107.8125 0)"/>
      <use xlink:href="#DejaVuSerif-2d" transform="translate(139.599609 0)"/>
      <use xlink:href="#DejaVuSerif-20" transform="translate(173.388672 0)"/>
      <use xlink:href="#DejaVuSerif-4f" transform="translate(205.175781 0)"/>
      <use xlink:href="#DejaVuSerif-54" transform="translate(287.158203 0)"/>
     </g>
    </g>
    <g id="line2d_33">
     <path d="M 636.1775 65.589531 
L 646.1775 65.589531 
L 656.1775 65.589531 
" style="fill: none; stroke: #e377c2; stroke-width: 1.5; stroke-linecap: square"/>
    </g>
    <g id="text_19">
     <!-- sart - MW -->
     <g transform="translate(664.1775 69.089531) scale(0.1 -0.1)">
      <use xlink:href="#DejaVuSerif-73"/>
      <use xlink:href="#DejaVuSerif-61" transform="translate(51.318359 0)"/>
      <use xlink:href="#DejaVuSerif-72" transform="translate(110.9375 0)"/>
      <use xlink:href="#DejaVuSerif-74" transform="translate(158.740234 0)"/>
      <use xlink:href="#DejaVuSerif-20" transform="translate(198.925781 0)"/>
      <use xlink:href="#DejaVuSerif-2d" transform="translate(230.712891 0)"/>
      <use xlink:href="#DejaVuSerif-20" transform="translate(264.501953 0)"/>
      <use xlink:href="#DejaVuSerif-4d" transform="translate(296.289062 0)"/>
      <use xlink:href="#DejaVuSerif-57" transform="translate(398.681641 0)"/>
     </g>
    </g>
    <g id="line2d_34">
     <path d="M 636.1775 80.267656 
L 646.1775 80.267656 
L 656.1775 80.267656 
" style="fill: none; stroke: #17becf; stroke-width: 1.5; stroke-linecap: square"/>
    </g>
    <g id="text_20">
     <!-- sart - OT -->
     <g transform="translate(664.1775 83.767656) scale(0.1 -0.1)">
      <use xlink:href="#DejaVuSerif-73"/>
      <use xlink:href="#DejaVuSerif-61" transform="translate(51.318359 0)"/>
      <use xlink:href="#DejaVuSerif-72" transform="translate(110.9375 0)"/>
      <use xlink:href="#DejaVuSerif-74" transform="translate(158.740234 0)"/>
      <use xlink:href="#DejaVuSerif-20" transform="translate(198.925781 0)"/>
      <use xlink:href="#DejaVuSerif-2d" transform="translate(230.712891 0)"/>
      <use xlink:href="#DejaVuSerif-20" transform="translate(264.501953 0)"/>
      <use xlink:href="#DejaVuSerif-4f" transform="translate(296.289062 0)"/>
      <use xlink:href="#DejaVuSerif-54" transform="translate(378.271484 0)"/>
     </g>
    </g>
   </g>
  </g>
 </g>
 <defs>
  <clipPath id="p8a4b89ccc3">
   <rect x="53.722813" y="23.134844" width="669.6" height="388.08"/>
  </clipPath>
 </defs>
</svg>
