<?xml version="1.0" encoding="utf-8" standalone="no"?>
<!DOCTYPE svg PUBLIC "-//W3C//DTD SVG 1.1//EN"
  "http://www.w3.org/Graphics/SVG/1.1/DTD/svg11.dtd">
<svg xmlns:xlink="http://www.w3.org/1999/xlink" width="739.109375pt" height="448.9275pt" viewBox="0 0 739.109375 448.9275" xmlns="http://www.w3.org/2000/svg" version="1.1">
 <metadata>
  <rdf:RDF xmlns:dc="http://purl.org/dc/elements/1.1/" xmlns:cc="http://creativecommons.org/ns#" xmlns:rdf="http://www.w3.org/1999/02/22-rdf-syntax-ns#">
   <cc:Work>
    <dc:type rdf:resource="http://purl.org/dc/dcmitype/StillImage"/>
    <dc:date>2025-05-30T20:16:00.380141</dc:date>
    <dc:format>image/svg+xml</dc:format>
    <dc:creator>
     <cc:Agent>
      <dc:title>Matplotlib v3.10.3, https://matplotlib.org/</dc:title>
     </cc:Agent>
    </dc:creator>
   </cc:Work>
  </rdf:RDF>
 </metadata>
 <defs>
  <style type="text/css">*{stroke-linejoin: round; stroke-linecap: butt}</style>
 </defs>
 <g id="figure_1">
  <g id="patch_1">
   <path d="M 0 448.9275 
L 739.109375 448.9275 
L 739.109375 0 
L 0 0 
z
" style="fill: #ffffff"/>
  </g>
  <g id="axes_1">
   <g id="patch_2">
    <path d="M 62.309375 411.214844 
L 731.909375 411.214844 
L 731.909375 23.134844 
L 62.309375 23.134844 
z
" style="fill: #ffffff"/>
   </g>
   <g id="FillBetweenPolyCollection_1">
    <defs>
     <path id="m9a3ca0b657" d="M 92.745739 -408.152656 
L 92.745739 -408.152656 
L 101.200284 -387.624119 
L 109.65483 -370.394451 
L 118.109375 -356.63266 
L 126.56392 -346.742128 
L 135.018466 -339.413739 
L 143.473011 -330.85091 
L 151.927557 -319.08358 
L 160.382102 -306.008651 
L 168.836648 -294.386588 
L 177.291193 -285.659786 
L 185.745739 -279.829965 
L 194.200284 -275.401199 
L 202.65483 -270.534136 
L 211.109375 -264.780132 
L 219.56392 -259.134537 
L 228.018466 -253.515914 
L 236.473011 -247.060423 
L 244.927557 -240.10271 
L 253.382102 -233.525823 
L 261.836648 -228.849035 
L 270.291193 -226.385908 
L 278.745739 -225.148851 
L 287.200284 -223.282449 
L 295.65483 -220.121354 
L 304.109375 -216.790835 
L 312.56392 -213.866543 
L 321.018466 -211.65866 
L 329.473011 -209.661168 
L 337.927557 -207.989604 
L 346.382102 -206.653642 
L 354.836648 -205.296662 
L 363.291193 -203.789808 
L 371.745739 -201.957955 
L 380.200284 -200.206691 
L 388.65483 -199.223771 
L 397.109375 -198.704516 
L 405.56392 -197.99226 
L 414.018466 -196.598889 
L 422.473011 -194.78481 
L 430.927557 -193.129063 
L 439.382102 -191.718322 
L 447.836648 -190.602799 
L 456.291193 -188.908983 
L 464.745739 -186.825513 
L 473.200284 -184.700014 
L 481.65483 -181.980796 
L 490.109375 -178.702463 
L 498.56392 -175.510279 
L 507.018466 -172.485948 
L 515.473011 -168.761961 
L 523.927557 -163.730008 
L 532.382102 -158.381866 
L 540.836648 -153.248501 
L 549.291193 -148.509887 
L 557.745739 -144.144657 
L 566.200284 -139.73592 
L 574.65483 -135.955873 
L 583.109375 -132.308743 
L 591.56392 -128.158895 
L 600.018466 -124.279752 
L 608.473011 -121.061325 
L 616.927557 -118.140378 
L 625.382102 -115.412953 
L 633.836648 -112.787497 
L 642.291193 -109.99154 
L 650.745739 -107.01517 
L 659.200284 -104.328132 
L 667.65483 -102.088951 
L 676.109375 -99.985887 
L 684.56392 -97.344393 
L 693.018466 -94.84954 
L 701.473011 -92.988251 
L 701.473011 -92.988251 
L 701.473011 -55.352656 
L 693.018466 -55.352656 
L 684.56392 -55.352656 
L 676.109375 -55.352656 
L 667.65483 -55.352656 
L 659.200284 -55.352656 
L 650.745739 -55.352656 
L 642.291193 -55.352656 
L 633.836648 -55.352656 
L 625.382102 -55.352656 
L 616.927557 -55.352656 
L 608.473011 -55.352656 
L 600.018466 -55.352656 
L 591.56392 -55.352656 
L 583.109375 -55.352656 
L 574.65483 -55.352656 
L 566.200284 -55.352656 
L 557.745739 -55.352656 
L 549.291193 -55.352656 
L 540.836648 -55.352656 
L 532.382102 -55.352656 
L 523.927557 -55.352656 
L 515.473011 -55.352656 
L 507.018466 -55.352656 
L 498.56392 -55.352656 
L 490.109375 -55.352656 
L 481.65483 -55.352656 
L 473.200284 -55.352656 
L 464.745739 -55.352656 
L 456.291193 -55.352656 
L 447.836648 -55.352656 
L 439.382102 -55.352656 
L 430.927557 -55.352656 
L 422.473011 -55.352656 
L 414.018466 -55.352656 
L 405.56392 -55.352656 
L 397.109375 -55.352656 
L 388.65483 -55.352656 
L 380.200284 -55.352656 
L 371.745739 -55.352656 
L 363.291193 -55.352656 
L 354.836648 -55.352656 
L 346.382102 -55.352656 
L 337.927557 -55.352656 
L 329.473011 -55.352656 
L 321.018466 -55.352656 
L 312.56392 -55.352656 
L 304.109375 -55.352656 
L 295.65483 -55.352656 
L 287.200284 -55.352656 
L 278.745739 -55.352656 
L 270.291193 -55.352656 
L 261.836648 -55.352656 
L 253.382102 -55.352656 
L 244.927557 -55.352656 
L 236.473011 -55.352656 
L 228.018466 -55.352656 
L 219.56392 -55.352656 
L 211.109375 -55.352656 
L 202.65483 -55.352656 
L 194.200284 -55.352656 
L 185.745739 -55.352656 
L 177.291193 -55.352656 
L 168.836648 -55.352656 
L 160.382102 -55.352656 
L 151.927557 -55.352656 
L 143.473011 -55.352656 
L 135.018466 -55.352656 
L 126.56392 -55.352656 
L 118.109375 -55.352656 
L 109.65483 -55.352656 
L 101.200284 -55.352656 
L 92.745739 -55.352656 
z
" style="stroke: #1f77b4; stroke-opacity: 0.3"/>
    </defs>
    <g clip-path="url(#p5ec18b1597)">
     <use xlink:href="#m9a3ca0b657" x="0" y="448.9275" style="fill: #1f77b4; fill-opacity: 0.3; stroke: #1f77b4; stroke-opacity: 0.3"/>
    </g>
   </g>
   <g id="FillBetweenPolyCollection_2">
    <defs>
     <path id="m1ec95af75d" d="M 92.745739 -400.373922 
L 92.745739 -400.373922 
L 101.200284 -382.050183 
L 109.65483 -361.4416 
L 118.109375 -343.947761 
L 126.56392 -334.265046 
L 135.018466 -327.343049 
L 143.473011 -316.190987 
L 151.927557 -301.605631 
L 160.382102 -288.745573 
L 168.836648 -278.93563 
L 177.291193 -271.495527 
L 185.745739 -267.403689 
L 194.200284 -265.583571 
L 202.65483 -263.087787 
L 211.109375 -259.042054 
L 219.56392 -253.389395 
L 228.018466 -246.251174 
L 236.473011 -238.640269 
L 244.927557 -232.736258 
L 253.382102 -228.392019 
L 261.836648 -223.97725 
L 270.291193 -220.397646 
L 278.745739 -217.407169 
L 287.200284 -213.621358 
L 295.65483 -209.215515 
L 304.109375 -204.954418 
L 312.56392 -202.063578 
L 321.018466 -199.294316 
L 329.473011 -195.924468 
L 337.927557 -193.483495 
L 346.382102 -192.832215 
L 354.836648 -193.413639 
L 363.291193 -192.91186 
L 371.745739 -192.331518 
L 380.200284 -192.605371 
L 388.65483 -191.591762 
L 397.109375 -188.191035 
L 405.56392 -183.989261 
L 414.018466 -180.746669 
L 422.473011 -179.153731 
L 430.927557 -178.508953 
L 439.382102 -177.479299 
L 447.836648 -177.903851 
L 456.291193 -180.181193 
L 464.745739 -181.74134 
L 473.200284 -182.673555 
L 481.65483 -181.308544 
L 490.109375 -175.132496 
L 498.56392 -166.444198 
L 507.018466 -161.259337 
L 515.473011 -159.773695 
L 523.927557 -158.625258 
L 532.382102 -157.069251 
L 540.836648 -153.278437 
L 549.291193 -146.322352 
L 557.745739 -139.693009 
L 566.200284 -135.823159 
L 574.65483 -131.529487 
L 583.109375 -125.02541 
L 591.56392 -119.646297 
L 600.018466 -116.349499 
L 608.473011 -112.838361 
L 616.927557 -108.984318 
L 625.382102 -104.208602 
L 633.836648 -99.282097 
L 642.291193 -97.068321 
L 650.745739 -96.252704 
L 659.200284 -95.457682 
L 667.65483 -93.008516 
L 676.109375 -89.023877 
L 684.56392 -84.999125 
L 693.018466 -83.515661 
L 701.473011 -84.194666 
L 701.473011 -84.194666 
L 701.473011 -55.352656 
L 693.018466 -55.352656 
L 684.56392 -55.352656 
L 676.109375 -55.352656 
L 667.65483 -55.352656 
L 659.200284 -55.352656 
L 650.745739 -55.352656 
L 642.291193 -55.352656 
L 633.836648 -55.352656 
L 625.382102 -55.352656 
L 616.927557 -55.352656 
L 608.473011 -55.352656 
L 600.018466 -55.352656 
L 591.56392 -55.352656 
L 583.109375 -55.352656 
L 574.65483 -55.352656 
L 566.200284 -55.352656 
L 557.745739 -55.352656 
L 549.291193 -55.352656 
L 540.836648 -55.352656 
L 532.382102 -55.352656 
L 523.927557 -55.352656 
L 515.473011 -55.352656 
L 507.018466 -55.352656 
L 498.56392 -55.352656 
L 490.109375 -55.352656 
L 481.65483 -55.352656 
L 473.200284 -55.352656 
L 464.745739 -55.352656 
L 456.291193 -55.352656 
L 447.836648 -55.352656 
L 439.382102 -55.352656 
L 430.927557 -55.352656 
L 422.473011 -55.352656 
L 414.018466 -55.352656 
L 405.56392 -55.352656 
L 397.109375 -55.352656 
L 388.65483 -55.352656 
L 380.200284 -55.352656 
L 371.745739 -55.352656 
L 363.291193 -55.352656 
L 354.836648 -55.352656 
L 346.382102 -55.352656 
L 337.927557 -55.352656 
L 329.473011 -55.352656 
L 321.018466 -55.352656 
L 312.56392 -55.352656 
L 304.109375 -55.352656 
L 295.65483 -55.352656 
L 287.200284 -55.352656 
L 278.745739 -55.352656 
L 270.291193 -55.352656 
L 261.836648 -55.352656 
L 253.382102 -55.352656 
L 244.927557 -55.352656 
L 236.473011 -55.352656 
L 228.018466 -55.352656 
L 219.56392 -55.352656 
L 211.109375 -55.352656 
L 202.65483 -55.352656 
L 194.200284 -55.352656 
L 185.745739 -55.352656 
L 177.291193 -55.352656 
L 168.836648 -55.352656 
L 160.382102 -55.352656 
L 151.927557 -55.352656 
L 143.473011 -55.352656 
L 135.018466 -55.352656 
L 126.56392 -55.352656 
L 118.109375 -55.352656 
L 109.65483 -55.352656 
L 101.200284 -55.352656 
L 92.745739 -55.352656 
z
" style="stroke: #d62728; stroke-opacity: 0.3"/>
    </defs>
    <g clip-path="url(#p5ec18b1597)">
     <use xlink:href="#m1ec95af75d" x="0" y="448.9275" style="fill: #d62728; fill-opacity: 0.3; stroke: #d62728; stroke-opacity: 0.3"/>
    </g>
   </g>
   <g id="FillBetweenPolyCollection_3">
    <defs>
     <path id="m0dbfa2779c" d="M 92.745739 -404.429214 
L 92.745739 -404.429214 
L 101.200284 -387.506503 
L 109.65483 -369.425986 
L 118.109375 -353.481656 
L 126.56392 -342.629849 
L 135.018466 -334.049507 
L 143.473011 -325.919627 
L 151.927557 -318.685195 
L 160.382102 -310.659094 
L 168.836648 -300.80555 
L 177.291193 -290.604991 
L 185.745739 -281.491655 
L 194.200284 -272.914123 
L 202.65483 -265.796711 
L 211.109375 -261.179372 
L 219.56392 -257.734931 
L 228.018466 -253.921182 
L 236.473011 -251.189955 
L 244.927557 -248.089933 
L 253.382102 -241.224329 
L 261.836648 -232.429169 
L 270.291193 -226.074148 
L 278.745739 -224.266421 
L 287.200284 -223.26594 
L 295.65483 -219.331119 
L 304.109375 -213.672572 
L 312.56392 -212.238064 
L 321.018466 -214.530517 
L 329.473011 -214.884415 
L 337.927557 -211.780033 
L 346.382102 -207.626481 
L 354.836648 -206.421336 
L 363.291193 -207.102739 
L 371.745739 -206.82879 
L 380.200284 -205.533782 
L 388.65483 -204.997994 
L 397.109375 -204.115284 
L 405.56392 -200.239083 
L 414.018466 -195.356306 
L 422.473011 -194.123056 
L 430.927557 -195.731085 
L 439.382102 -196.548066 
L 447.836648 -196.269217 
L 456.291193 -195.846827 
L 464.745739 -194.874546 
L 473.200284 -191.44284 
L 481.65483 -185.627167 
L 490.109375 -180.728772 
L 498.56392 -177.565532 
L 507.018466 -175.491379 
L 515.473011 -173.497202 
L 523.927557 -169.46455 
L 532.382102 -163.055567 
L 540.836648 -156.406169 
L 549.291193 -151.423978 
L 557.745739 -146.749271 
L 566.200284 -140.989291 
L 574.65483 -135.311136 
L 583.109375 -130.461661 
L 591.56392 -126.990762 
L 600.018466 -123.920665 
L 608.473011 -120.503876 
L 616.927557 -116.677032 
L 625.382102 -112.95565 
L 633.836648 -109.190276 
L 642.291193 -106.446028 
L 650.745739 -104.968464 
L 659.200284 -104.632822 
L 667.65483 -103.094262 
L 676.109375 -98.28472 
L 684.56392 -93.034793 
L 693.018466 -90.84197 
L 701.473011 -89.901468 
L 701.473011 -89.901468 
L 701.473011 -55.352656 
L 693.018466 -55.352656 
L 684.56392 -55.352656 
L 676.109375 -55.352656 
L 667.65483 -55.352656 
L 659.200284 -55.352656 
L 650.745739 -55.352656 
L 642.291193 -55.352656 
L 633.836648 -55.352656 
L 625.382102 -55.352656 
L 616.927557 -55.352656 
L 608.473011 -55.352656 
L 600.018466 -55.352656 
L 591.56392 -55.352656 
L 583.109375 -55.352656 
L 574.65483 -55.352656 
L 566.200284 -55.352656 
L 557.745739 -55.352656 
L 549.291193 -55.352656 
L 540.836648 -55.352656 
L 532.382102 -55.352656 
L 523.927557 -55.352656 
L 515.473011 -55.352656 
L 507.018466 -55.352656 
L 498.56392 -55.352656 
L 490.109375 -55.352656 
L 481.65483 -55.352656 
L 473.200284 -55.352656 
L 464.745739 -55.352656 
L 456.291193 -55.352656 
L 447.836648 -55.352656 
L 439.382102 -55.352656 
L 430.927557 -55.352656 
L 422.473011 -55.352656 
L 414.018466 -55.352656 
L 405.56392 -55.352656 
L 397.109375 -55.352656 
L 388.65483 -55.352656 
L 380.200284 -55.352656 
L 371.745739 -55.352656 
L 363.291193 -55.352656 
L 354.836648 -55.352656 
L 346.382102 -55.352656 
L 337.927557 -55.352656 
L 329.473011 -55.352656 
L 321.018466 -55.352656 
L 312.56392 -55.352656 
L 304.109375 -55.352656 
L 295.65483 -55.352656 
L 287.200284 -55.352656 
L 278.745739 -55.352656 
L 270.291193 -55.352656 
L 261.836648 -55.352656 
L 253.382102 -55.352656 
L 244.927557 -55.352656 
L 236.473011 -55.352656 
L 228.018466 -55.352656 
L 219.56392 -55.352656 
L 211.109375 -55.352656 
L 202.65483 -55.352656 
L 194.200284 -55.352656 
L 185.745739 -55.352656 
L 177.291193 -55.352656 
L 168.836648 -55.352656 
L 160.382102 -55.352656 
L 151.927557 -55.352656 
L 143.473011 -55.352656 
L 135.018466 -55.352656 
L 126.56392 -55.352656 
L 118.109375 -55.352656 
L 109.65483 -55.352656 
L 101.200284 -55.352656 
L 92.745739 -55.352656 
z
" style="stroke: #e377c2; stroke-opacity: 0.3"/>
    </defs>
    <g clip-path="url(#p5ec18b1597)">
     <use xlink:href="#m0dbfa2779c" x="0" y="448.9275" style="fill: #e377c2; fill-opacity: 0.3; stroke: #e377c2; stroke-opacity: 0.3"/>
    </g>
   </g>
   <g id="FillBetweenPolyCollection_4">
    <defs>
     <path id="mafbf25339a" d="M 92.745739 -395.889625 
L 92.745739 -395.889625 
L 101.200284 -375.052308 
L 109.65483 -357.056621 
L 118.109375 -345.128365 
L 126.56392 -337.487921 
L 135.018466 -329.97009 
L 143.473011 -322.10906 
L 151.927557 -313.022602 
L 160.382102 -302.154873 
L 168.836648 -291.849158 
L 177.291193 -283.443491 
L 185.745739 -276.069286 
L 194.200284 -270.566701 
L 202.65483 -267.375695 
L 211.109375 -264.042468 
L 219.56392 -258.850106 
L 228.018466 -253.091549 
L 236.473011 -247.776826 
L 244.927557 -243.296386 
L 253.382102 -239.612045 
L 261.836648 -236.133158 
L 270.291193 -232.176886 
L 278.745739 -228.561712 
L 287.200284 -226.121913 
L 295.65483 -223.945109 
L 304.109375 -221.947427 
L 312.56392 -221.284178 
L 321.018466 -221.494424 
L 329.473011 -221.109306 
L 337.927557 -219.449975 
L 346.382102 -218.403556 
L 354.836648 -218.68688 
L 363.291193 -218.888871 
L 371.745739 -218.061089 
L 380.200284 -216.924359 
L 388.65483 -216.170041 
L 397.109375 -214.964911 
L 405.56392 -213.556581 
L 414.018466 -212.903507 
L 422.473011 -213.161053 
L 430.927557 -213.887362 
L 439.382102 -215.105453 
L 447.836648 -215.911175 
L 456.291193 -216.072255 
L 464.745739 -215.014843 
L 473.200284 -213.055432 
L 481.65483 -210.684027 
L 490.109375 -208.293108 
L 498.56392 -205.640126 
L 507.018466 -202.536149 
L 515.473011 -200.305369 
L 523.927557 -198.697823 
L 532.382102 -195.811417 
L 540.836648 -190.282138 
L 549.291193 -184.321288 
L 557.745739 -179.163058 
L 566.200284 -174.76577 
L 574.65483 -172.606417 
L 583.109375 -170.901002 
L 591.56392 -167.807827 
L 600.018466 -164.103984 
L 608.473011 -161.507546 
L 616.927557 -159.381471 
L 625.382102 -156.348654 
L 633.836648 -153.653073 
L 642.291193 -152.044223 
L 650.745739 -150.357298 
L 659.200284 -148.419718 
L 667.65483 -146.794489 
L 676.109375 -145.043832 
L 684.56392 -143.107953 
L 693.018466 -141.581624 
L 701.473011 -140.824022 
L 701.473011 -140.824022 
L 701.473011 -55.352656 
L 693.018466 -55.352656 
L 684.56392 -55.352656 
L 676.109375 -55.352656 
L 667.65483 -55.352656 
L 659.200284 -55.352656 
L 650.745739 -55.352656 
L 642.291193 -55.352656 
L 633.836648 -55.352656 
L 625.382102 -55.352656 
L 616.927557 -55.352656 
L 608.473011 -55.352656 
L 600.018466 -55.352656 
L 591.56392 -55.352656 
L 583.109375 -55.352656 
L 574.65483 -55.352656 
L 566.200284 -55.352656 
L 557.745739 -55.352656 
L 549.291193 -55.352656 
L 540.836648 -55.352656 
L 532.382102 -55.352656 
L 523.927557 -55.352656 
L 515.473011 -55.352656 
L 507.018466 -55.352656 
L 498.56392 -55.352656 
L 490.109375 -55.352656 
L 481.65483 -55.352656 
L 473.200284 -55.352656 
L 464.745739 -55.352656 
L 456.291193 -55.352656 
L 447.836648 -55.352656 
L 439.382102 -55.352656 
L 430.927557 -55.352656 
L 422.473011 -55.352656 
L 414.018466 -55.352656 
L 405.56392 -55.352656 
L 397.109375 -55.352656 
L 388.65483 -55.352656 
L 380.200284 -55.352656 
L 371.745739 -55.352656 
L 363.291193 -55.352656 
L 354.836648 -55.352656 
L 346.382102 -55.352656 
L 337.927557 -55.352656 
L 329.473011 -55.352656 
L 321.018466 -55.352656 
L 312.56392 -55.352656 
L 304.109375 -55.352656 
L 295.65483 -55.352656 
L 287.200284 -55.352656 
L 278.745739 -55.352656 
L 270.291193 -55.352656 
L 261.836648 -55.352656 
L 253.382102 -55.352656 
L 244.927557 -55.352656 
L 236.473011 -55.352656 
L 228.018466 -55.352656 
L 219.56392 -55.352656 
L 211.109375 -55.352656 
L 202.65483 -55.352656 
L 194.200284 -55.352656 
L 185.745739 -55.352656 
L 177.291193 -55.352656 
L 168.836648 -55.352656 
L 160.382102 -55.352656 
L 151.927557 -55.352656 
L 143.473011 -55.352656 
L 135.018466 -55.352656 
L 126.56392 -55.352656 
L 118.109375 -55.352656 
L 109.65483 -55.352656 
L 101.200284 -55.352656 
L 92.745739 -55.352656 
z
" style="stroke: #17becf; stroke-opacity: 0.3"/>
    </defs>
    <g clip-path="url(#p5ec18b1597)">
     <use xlink:href="#mafbf25339a" x="0" y="448.9275" style="fill: #17becf; fill-opacity: 0.3; stroke: #17becf; stroke-opacity: 0.3"/>
    </g>
   </g>
   <g id="matplotlib.axis_1">
    <g id="xtick_1">
     <g id="line2d_1">
      <path d="M 109.65483 411.214844 
L 109.65483 23.134844 
" clip-path="url(#p5ec18b1597)" style="fill: none; stroke-dasharray: 2.96,1.28; stroke-dashoffset: 0; stroke: #dddddd; stroke-width: 0.8"/>
     </g>
     <g id="line2d_2">
      <defs>
       <path id="m50fb5879da" d="M 0 0 
L 0 3.5 
" style="stroke: #333333; stroke-width: 0.8"/>
      </defs>
      <g>
       <use xlink:href="#m50fb5879da" x="109.65483" y="411.214844" style="fill: #333333; stroke: #333333; stroke-width: 0.8"/>
      </g>
     </g>
     <g id="text_1">
      <!-- 5 -->
      <g style="fill: #333333" transform="translate(106.791705 425.053437) scale(0.09 -0.09)">
       <defs>
        <path id="DejaVuSerif-35" d="M 3219 4666 
L 3219 4153 
L 1081 4153 
L 1081 2816 
Q 1244 2928 1461 2984 
Q 1678 3041 1947 3041 
Q 2703 3041 3140 2622 
Q 3578 2203 3578 1478 
Q 3578 738 3136 323 
Q 2694 -91 1894 -91 
Q 1572 -91 1234 -12 
Q 897 66 544 225 
L 544 1131 
L 897 1131 
Q 925 688 1179 453 
Q 1434 219 1894 219 
Q 2388 219 2653 544 
Q 2919 869 2919 1478 
Q 2919 2084 2655 2407 
Q 2391 2731 1894 2731 
Q 1613 2731 1398 2631 
Q 1184 2531 1019 2322 
L 750 2322 
L 750 4666 
L 3219 4666 
z
" transform="scale(0.015625)"/>
       </defs>
       <use xlink:href="#DejaVuSerif-35"/>
      </g>
     </g>
    </g>
    <g id="xtick_2">
     <g id="line2d_3">
      <path d="M 194.200284 411.214844 
L 194.200284 23.134844 
" clip-path="url(#p5ec18b1597)" style="fill: none; stroke-dasharray: 2.96,1.28; stroke-dashoffset: 0; stroke: #dddddd; stroke-width: 0.8"/>
     </g>
     <g id="line2d_4">
      <g>
       <use xlink:href="#m50fb5879da" x="194.200284" y="411.214844" style="fill: #333333; stroke: #333333; stroke-width: 0.8"/>
      </g>
     </g>
     <g id="text_2">
      <!-- 10 -->
      <g style="fill: #333333" transform="translate(188.474034 425.053437) scale(0.09 -0.09)">
       <defs>
        <path id="DejaVuSerif-31" d="M 909 0 
L 909 331 
L 1722 331 
L 1722 4213 
L 781 3603 
L 781 4013 
L 1919 4750 
L 2350 4750 
L 2350 331 
L 3163 331 
L 3163 0 
L 909 0 
z
" transform="scale(0.015625)"/>
        <path id="DejaVuSerif-30" d="M 2034 219 
Q 2513 219 2750 744 
Q 2988 1269 2988 2328 
Q 2988 3391 2750 3916 
Q 2513 4441 2034 4441 
Q 1556 4441 1318 3916 
Q 1081 3391 1081 2328 
Q 1081 1269 1318 744 
Q 1556 219 2034 219 
z
M 2034 -91 
Q 1275 -91 848 546 
Q 422 1184 422 2328 
Q 422 3475 848 4112 
Q 1275 4750 2034 4750 
Q 2797 4750 3222 4112 
Q 3647 3475 3647 2328 
Q 3647 1184 3222 546 
Q 2797 -91 2034 -91 
z
" transform="scale(0.015625)"/>
       </defs>
       <use xlink:href="#DejaVuSerif-31"/>
       <use xlink:href="#DejaVuSerif-30" transform="translate(63.623047 0)"/>
      </g>
     </g>
    </g>
    <g id="xtick_3">
     <g id="line2d_5">
      <path d="M 278.745739 411.214844 
L 278.745739 23.134844 
" clip-path="url(#p5ec18b1597)" style="fill: none; stroke-dasharray: 2.96,1.28; stroke-dashoffset: 0; stroke: #dddddd; stroke-width: 0.8"/>
     </g>
     <g id="line2d_6">
      <g>
       <use xlink:href="#m50fb5879da" x="278.745739" y="411.214844" style="fill: #333333; stroke: #333333; stroke-width: 0.8"/>
      </g>
     </g>
     <g id="text_3">
      <!-- 15 -->
      <g style="fill: #333333" transform="translate(273.019489 425.053437) scale(0.09 -0.09)">
       <use xlink:href="#DejaVuSerif-31"/>
       <use xlink:href="#DejaVuSerif-35" transform="translate(63.623047 0)"/>
      </g>
     </g>
    </g>
    <g id="xtick_4">
     <g id="line2d_7">
      <path d="M 363.291193 411.214844 
L 363.291193 23.134844 
" clip-path="url(#p5ec18b1597)" style="fill: none; stroke-dasharray: 2.96,1.28; stroke-dashoffset: 0; stroke: #dddddd; stroke-width: 0.8"/>
     </g>
     <g id="line2d_8">
      <g>
       <use xlink:href="#m50fb5879da" x="363.291193" y="411.214844" style="fill: #333333; stroke: #333333; stroke-width: 0.8"/>
      </g>
     </g>
     <g id="text_4">
      <!-- 20 -->
      <g style="fill: #333333" transform="translate(357.564943 425.053437) scale(0.09 -0.09)">
       <defs>
        <path id="DejaVuSerif-32" d="M 819 3553 
L 469 3553 
L 469 4384 
Q 803 4563 1142 4656 
Q 1481 4750 1806 4750 
Q 2534 4750 2956 4397 
Q 3378 4044 3378 3438 
Q 3378 2753 2422 1800 
Q 2347 1728 2309 1691 
L 1131 513 
L 3078 513 
L 3078 1088 
L 3444 1088 
L 3444 0 
L 434 0 
L 434 341 
L 1850 1753 
Q 2319 2222 2519 2614 
Q 2719 3006 2719 3438 
Q 2719 3909 2473 4175 
Q 2228 4441 1797 4441 
Q 1350 4441 1106 4219 
Q 863 3997 819 3553 
z
" transform="scale(0.015625)"/>
       </defs>
       <use xlink:href="#DejaVuSerif-32"/>
       <use xlink:href="#DejaVuSerif-30" transform="translate(63.623047 0)"/>
      </g>
     </g>
    </g>
    <g id="xtick_5">
     <g id="line2d_9">
      <path d="M 447.836648 411.214844 
L 447.836648 23.134844 
" clip-path="url(#p5ec18b1597)" style="fill: none; stroke-dasharray: 2.96,1.28; stroke-dashoffset: 0; stroke: #dddddd; stroke-width: 0.8"/>
     </g>
     <g id="line2d_10">
      <g>
       <use xlink:href="#m50fb5879da" x="447.836648" y="411.214844" style="fill: #333333; stroke: #333333; stroke-width: 0.8"/>
      </g>
     </g>
     <g id="text_5">
      <!-- 25 -->
      <g style="fill: #333333" transform="translate(442.110398 425.053437) scale(0.09 -0.09)">
       <use xlink:href="#DejaVuSerif-32"/>
       <use xlink:href="#DejaVuSerif-35" transform="translate(63.623047 0)"/>
      </g>
     </g>
    </g>
    <g id="xtick_6">
     <g id="line2d_11">
      <path d="M 532.382102 411.214844 
L 532.382102 23.134844 
" clip-path="url(#p5ec18b1597)" style="fill: none; stroke-dasharray: 2.96,1.28; stroke-dashoffset: 0; stroke: #dddddd; stroke-width: 0.8"/>
     </g>
     <g id="line2d_12">
      <g>
       <use xlink:href="#m50fb5879da" x="532.382102" y="411.214844" style="fill: #333333; stroke: #333333; stroke-width: 0.8"/>
      </g>
     </g>
     <g id="text_6">
      <!-- 30 -->
      <g style="fill: #333333" transform="translate(526.655852 425.053437) scale(0.09 -0.09)">
       <defs>
        <path id="DejaVuSerif-33" d="M 622 4469 
Q 988 4606 1323 4678 
Q 1659 4750 1953 4750 
Q 2638 4750 3022 4454 
Q 3406 4159 3406 3634 
Q 3406 3213 3140 2930 
Q 2875 2647 2388 2547 
Q 2963 2466 3280 2130 
Q 3597 1794 3597 1259 
Q 3597 606 3158 257 
Q 2719 -91 1894 -91 
Q 1528 -91 1179 -12 
Q 831 66 488 225 
L 488 1131 
L 838 1131 
Q 869 681 1141 450 
Q 1413 219 1906 219 
Q 2384 219 2661 495 
Q 2938 772 2938 1253 
Q 2938 1803 2653 2086 
Q 2369 2369 1819 2369 
L 1522 2369 
L 1522 2688 
L 1678 2688 
Q 2225 2688 2498 2914 
Q 2772 3141 2772 3597 
Q 2772 4006 2547 4223 
Q 2322 4441 1900 4441 
Q 1478 4441 1245 4241 
Q 1013 4041 972 3647 
L 622 3647 
L 622 4469 
z
" transform="scale(0.015625)"/>
       </defs>
       <use xlink:href="#DejaVuSerif-33"/>
       <use xlink:href="#DejaVuSerif-30" transform="translate(63.623047 0)"/>
      </g>
     </g>
    </g>
    <g id="xtick_7">
     <g id="line2d_13">
      <path d="M 616.927557 411.214844 
L 616.927557 23.134844 
" clip-path="url(#p5ec18b1597)" style="fill: none; stroke-dasharray: 2.96,1.28; stroke-dashoffset: 0; stroke: #dddddd; stroke-width: 0.8"/>
     </g>
     <g id="line2d_14">
      <g>
       <use xlink:href="#m50fb5879da" x="616.927557" y="411.214844" style="fill: #333333; stroke: #333333; stroke-width: 0.8"/>
      </g>
     </g>
     <g id="text_7">
      <!-- 35 -->
      <g style="fill: #333333" transform="translate(611.201307 425.053437) scale(0.09 -0.09)">
       <use xlink:href="#DejaVuSerif-33"/>
       <use xlink:href="#DejaVuSerif-35" transform="translate(63.623047 0)"/>
      </g>
     </g>
    </g>
    <g id="xtick_8">
     <g id="line2d_15">
      <path d="M 701.473011 411.214844 
L 701.473011 23.134844 
" clip-path="url(#p5ec18b1597)" style="fill: none; stroke-dasharray: 2.96,1.28; stroke-dashoffset: 0; stroke: #dddddd; stroke-width: 0.8"/>
     </g>
     <g id="line2d_16">
      <g>
       <use xlink:href="#m50fb5879da" x="701.473011" y="411.214844" style="fill: #333333; stroke: #333333; stroke-width: 0.8"/>
      </g>
     </g>
     <g id="text_8">
      <!-- 40 -->
      <g style="fill: #333333" transform="translate(695.746761 425.053437) scale(0.09 -0.09)">
       <defs>
        <path id="DejaVuSerif-34" d="M 2234 1581 
L 2234 4063 
L 641 1581 
L 2234 1581 
z
M 3609 0 
L 1484 0 
L 1484 331 
L 2234 331 
L 2234 1247 
L 197 1247 
L 197 1588 
L 2241 4750 
L 2859 4750 
L 2859 1581 
L 3750 1581 
L 3750 1247 
L 2859 1247 
L 2859 331 
L 3609 331 
L 3609 0 
z
" transform="scale(0.015625)"/>
       </defs>
       <use xlink:href="#DejaVuSerif-34"/>
       <use xlink:href="#DejaVuSerif-30" transform="translate(63.623047 0)"/>
      </g>
     </g>
    </g>
    <g id="text_9">
     <!-- Frequency (Hz) -->
     <g transform="translate(353.626719 439.283437) scale(0.11 -0.11)">
      <defs>
       <path id="DejaVuSerif-46" d="M 353 0 
L 353 331 
L 947 331 
L 947 4331 
L 353 4331 
L 353 4666 
L 4172 4666 
L 4172 3628 
L 3788 3628 
L 3788 4281 
L 1581 4281 
L 1581 2719 
L 3175 2719 
L 3175 3303 
L 3559 3303 
L 3559 1753 
L 3175 1753 
L 3175 2338 
L 1581 2338 
L 1581 331 
L 2328 331 
L 2328 0 
L 353 0 
z
" transform="scale(0.015625)"/>
       <path id="DejaVuSerif-72" d="M 3059 3328 
L 3059 2497 
L 2728 2497 
Q 2713 2744 2591 2866 
Q 2469 2988 2234 2988 
Q 1809 2988 1582 2694 
Q 1356 2400 1356 1850 
L 1356 331 
L 2022 331 
L 2022 0 
L 263 0 
L 263 331 
L 781 331 
L 781 2994 
L 231 2994 
L 231 3322 
L 1356 3322 
L 1356 2731 
Q 1525 3078 1790 3245 
Q 2056 3413 2438 3413 
Q 2578 3413 2733 3391 
Q 2888 3369 3059 3328 
z
" transform="scale(0.015625)"/>
       <path id="DejaVuSerif-65" d="M 3469 1600 
L 991 1600 
L 991 1575 
Q 991 903 1244 561 
Q 1497 219 1991 219 
Q 2369 219 2611 417 
Q 2853 616 2950 1006 
L 3413 1006 
Q 3275 459 2904 184 
Q 2534 -91 1931 -91 
Q 1203 -91 761 389 
Q 319 869 319 1663 
Q 319 2450 753 2931 
Q 1188 3413 1894 3413 
Q 2647 3413 3050 2948 
Q 3453 2484 3469 1600 
z
M 2791 1931 
Q 2772 2513 2545 2808 
Q 2319 3103 1894 3103 
Q 1497 3103 1269 2806 
Q 1041 2509 991 1931 
L 2791 1931 
z
" transform="scale(0.015625)"/>
       <path id="DejaVuSerif-71" d="M 3359 2988 
L 3359 -997 
L 3909 -997 
L 3909 -1331 
L 2241 -1331 
L 2241 -997 
L 2784 -997 
L 2784 519 
Q 2616 206 2355 57 
Q 2094 -91 1709 -91 
Q 1097 -91 708 395 
Q 319 881 319 1663 
Q 319 2444 706 2928 
Q 1094 3413 1709 3413 
Q 2094 3413 2355 3264 
Q 2616 3116 2784 2803 
L 2784 3322 
L 3909 3322 
L 3909 2988 
L 3359 2988 
z
M 2784 1825 
Q 2784 2422 2554 2737 
Q 2325 3053 1888 3053 
Q 1444 3053 1217 2703 
Q 991 2353 991 1663 
Q 991 975 1217 622 
Q 1444 269 1888 269 
Q 2325 269 2554 583 
Q 2784 897 2784 1497 
L 2784 1825 
z
" transform="scale(0.015625)"/>
       <path id="DejaVuSerif-75" d="M 2266 3322 
L 3341 3322 
L 3341 331 
L 3884 331 
L 3884 0 
L 2766 0 
L 2766 588 
Q 2606 256 2353 82 
Q 2100 -91 1766 -91 
Q 1213 -91 952 223 
Q 691 538 691 1209 
L 691 2988 
L 172 2988 
L 172 3322 
L 1269 3322 
L 1269 1388 
Q 1269 781 1417 556 
Q 1566 331 1947 331 
Q 2347 331 2556 625 
Q 2766 919 2766 1478 
L 2766 2988 
L 2266 2988 
L 2266 3322 
z
" transform="scale(0.015625)"/>
       <path id="DejaVuSerif-6e" d="M 263 0 
L 263 331 
L 781 331 
L 781 2988 
L 231 2988 
L 231 3322 
L 1356 3322 
L 1356 2731 
Q 1516 3069 1770 3241 
Q 2025 3413 2363 3413 
Q 2913 3413 3172 3097 
Q 3431 2781 3431 2113 
L 3431 331 
L 3944 331 
L 3944 0 
L 2356 0 
L 2356 331 
L 2853 331 
L 2853 1931 
Q 2853 2541 2703 2767 
Q 2553 2994 2175 2994 
Q 1775 2994 1565 2701 
Q 1356 2409 1356 1850 
L 1356 331 
L 1856 331 
L 1856 0 
L 263 0 
z
" transform="scale(0.015625)"/>
       <path id="DejaVuSerif-63" d="M 3291 997 
Q 3169 466 2822 187 
Q 2475 -91 1925 -91 
Q 1200 -91 759 389 
Q 319 869 319 1663 
Q 319 2459 759 2936 
Q 1200 3413 1925 3413 
Q 2241 3413 2553 3339 
Q 2866 3266 3181 3116 
L 3181 2266 
L 2847 2266 
Q 2781 2703 2561 2903 
Q 2341 3103 1931 3103 
Q 1466 3103 1228 2742 
Q 991 2381 991 1663 
Q 991 944 1227 581 
Q 1463 219 1931 219 
Q 2303 219 2525 412 
Q 2747 606 2828 997 
L 3291 997 
z
" transform="scale(0.015625)"/>
       <path id="DejaVuSerif-79" d="M 1381 -609 
L 1600 -56 
L 359 2988 
L -19 2988 
L -19 3322 
L 1509 3322 
L 1509 2988 
L 978 2988 
L 1913 703 
L 2847 2988 
L 2350 2988 
L 2350 3322 
L 3597 3322 
L 3597 2988 
L 3225 2988 
L 1703 -750 
Q 1547 -1138 1356 -1280 
Q 1166 -1422 819 -1422 
Q 672 -1422 517 -1397 
Q 363 -1372 206 -1325 
L 206 -691 
L 500 -691 
Q 519 -903 608 -995 
Q 697 -1088 884 -1088 
Q 1056 -1088 1161 -992 
Q 1266 -897 1381 -609 
z
" transform="scale(0.015625)"/>
       <path id="DejaVuSerif-20" transform="scale(0.015625)"/>
       <path id="DejaVuSerif-28" d="M 2041 -997 
Q 1281 -656 893 83 
Q 506 822 506 1931 
Q 506 3044 893 3783 
Q 1281 4522 2041 4863 
L 2041 4556 
Q 1559 4225 1350 3623 
Q 1141 3022 1141 1931 
Q 1141 844 1350 242 
Q 1559 -359 2041 -691 
L 2041 -997 
z
" transform="scale(0.015625)"/>
       <path id="DejaVuSerif-48" d="M 353 0 
L 353 331 
L 947 331 
L 947 4331 
L 353 4331 
L 353 4666 
L 2175 4666 
L 2175 4331 
L 1581 4331 
L 1581 2719 
L 4000 2719 
L 4000 4331 
L 3406 4331 
L 3406 4666 
L 5228 4666 
L 5228 4331 
L 4634 4331 
L 4634 331 
L 5228 331 
L 5228 0 
L 3406 0 
L 3406 331 
L 4000 331 
L 4000 2338 
L 1581 2338 
L 1581 331 
L 2175 331 
L 2175 0 
L 353 0 
z
" transform="scale(0.015625)"/>
       <path id="DejaVuSerif-7a" d="M 256 0 
L 256 269 
L 2338 2988 
L 691 2988 
L 691 2413 
L 359 2413 
L 359 3322 
L 3078 3322 
L 3078 3053 
L 997 331 
L 2803 331 
L 2803 934 
L 3138 934 
L 3138 0 
L 256 0 
z
" transform="scale(0.015625)"/>
       <path id="DejaVuSerif-29" d="M 453 -997 
L 453 -691 
Q 934 -359 1145 242 
Q 1356 844 1356 1931 
Q 1356 3022 1145 3623 
Q 934 4225 453 4556 
L 453 4863 
Q 1216 4522 1603 3783 
Q 1991 3044 1991 1931 
Q 1991 822 1603 83 
Q 1216 -656 453 -997 
z
" transform="scale(0.015625)"/>
      </defs>
      <use xlink:href="#DejaVuSerif-46"/>
      <use xlink:href="#DejaVuSerif-72" transform="translate(69.384766 0)"/>
      <use xlink:href="#DejaVuSerif-65" transform="translate(117.1875 0)"/>
      <use xlink:href="#DejaVuSerif-71" transform="translate(176.367188 0)"/>
      <use xlink:href="#DejaVuSerif-75" transform="translate(240.380859 0)"/>
      <use xlink:href="#DejaVuSerif-65" transform="translate(304.785156 0)"/>
      <use xlink:href="#DejaVuSerif-6e" transform="translate(363.964844 0)"/>
      <use xlink:href="#DejaVuSerif-63" transform="translate(428.369141 0)"/>
      <use xlink:href="#DejaVuSerif-79" transform="translate(484.375 0)"/>
      <use xlink:href="#DejaVuSerif-20" transform="translate(540.869141 0)"/>
      <use xlink:href="#DejaVuSerif-28" transform="translate(572.65625 0)"/>
      <use xlink:href="#DejaVuSerif-48" transform="translate(611.669922 0)"/>
      <use xlink:href="#DejaVuSerif-7a" transform="translate(698.876953 0)"/>
      <use xlink:href="#DejaVuSerif-29" transform="translate(751.5625 0)"/>
     </g>
    </g>
   </g>
   <g id="matplotlib.axis_2">
    <g id="ytick_1">
     <g id="line2d_17">
      <path d="M 62.309375 375.631288 
L 731.909375 375.631288 
" clip-path="url(#p5ec18b1597)" style="fill: none; stroke-dasharray: 2.96,1.28; stroke-dashoffset: 0; stroke: #dddddd; stroke-width: 0.8"/>
     </g>
     <g id="line2d_18">
      <defs>
       <path id="ma9823f1a59" d="M 0 0 
L -3.5 0 
" style="stroke: #333333; stroke-width: 0.8"/>
      </defs>
      <g>
       <use xlink:href="#ma9823f1a59" x="62.309375" y="375.631288" style="fill: #333333; stroke: #333333; stroke-width: 0.8"/>
      </g>
     </g>
     <g id="text_10">
      <!-- −135.0 -->
      <g style="fill: #333333" transform="translate(22.002344 379.050585) scale(0.09 -0.09)">
       <defs>
        <path id="DejaVuSerif-2212" d="M 678 2259 
L 4684 2259 
L 4684 1753 
L 678 1753 
L 678 2259 
z
" transform="scale(0.015625)"/>
        <path id="DejaVuSerif-2e" d="M 603 325 
Q 603 500 722 622 
Q 841 744 1019 744 
Q 1191 744 1312 622 
Q 1434 500 1434 325 
Q 1434 153 1312 31 
Q 1191 -91 1019 -91 
Q 841 -91 722 29 
Q 603 150 603 325 
z
" transform="scale(0.015625)"/>
       </defs>
       <use xlink:href="#DejaVuSerif-2212"/>
       <use xlink:href="#DejaVuSerif-31" transform="translate(83.789062 0)"/>
       <use xlink:href="#DejaVuSerif-33" transform="translate(147.412109 0)"/>
       <use xlink:href="#DejaVuSerif-35" transform="translate(211.035156 0)"/>
       <use xlink:href="#DejaVuSerif-2e" transform="translate(274.658203 0)"/>
       <use xlink:href="#DejaVuSerif-30" transform="translate(306.445312 0)"/>
      </g>
     </g>
    </g>
    <g id="ytick_2">
     <g id="line2d_19">
      <path d="M 62.309375 323.288327 
L 731.909375 323.288327 
" clip-path="url(#p5ec18b1597)" style="fill: none; stroke-dasharray: 2.96,1.28; stroke-dashoffset: 0; stroke: #dddddd; stroke-width: 0.8"/>
     </g>
     <g id="line2d_20">
      <g>
       <use xlink:href="#ma9823f1a59" x="62.309375" y="323.288327" style="fill: #333333; stroke: #333333; stroke-width: 0.8"/>
      </g>
     </g>
     <g id="text_11">
      <!-- −132.5 -->
      <g style="fill: #333333" transform="translate(22.002344 326.707624) scale(0.09 -0.09)">
       <use xlink:href="#DejaVuSerif-2212"/>
       <use xlink:href="#DejaVuSerif-31" transform="translate(83.789062 0)"/>
       <use xlink:href="#DejaVuSerif-33" transform="translate(147.412109 0)"/>
       <use xlink:href="#DejaVuSerif-32" transform="translate(211.035156 0)"/>
       <use xlink:href="#DejaVuSerif-2e" transform="translate(274.658203 0)"/>
       <use xlink:href="#DejaVuSerif-35" transform="translate(306.445312 0)"/>
      </g>
     </g>
    </g>
    <g id="ytick_3">
     <g id="line2d_21">
      <path d="M 62.309375 270.945366 
L 731.909375 270.945366 
" clip-path="url(#p5ec18b1597)" style="fill: none; stroke-dasharray: 2.96,1.28; stroke-dashoffset: 0; stroke: #dddddd; stroke-width: 0.8"/>
     </g>
     <g id="line2d_22">
      <g>
       <use xlink:href="#ma9823f1a59" x="62.309375" y="270.945366" style="fill: #333333; stroke: #333333; stroke-width: 0.8"/>
      </g>
     </g>
     <g id="text_12">
      <!-- −130.0 -->
      <g style="fill: #333333" transform="translate(22.002344 274.364663) scale(0.09 -0.09)">
       <use xlink:href="#DejaVuSerif-2212"/>
       <use xlink:href="#DejaVuSerif-31" transform="translate(83.789062 0)"/>
       <use xlink:href="#DejaVuSerif-33" transform="translate(147.412109 0)"/>
       <use xlink:href="#DejaVuSerif-30" transform="translate(211.035156 0)"/>
       <use xlink:href="#DejaVuSerif-2e" transform="translate(274.658203 0)"/>
       <use xlink:href="#DejaVuSerif-30" transform="translate(306.445312 0)"/>
      </g>
     </g>
    </g>
    <g id="ytick_4">
     <g id="line2d_23">
      <path d="M 62.309375 218.602406 
L 731.909375 218.602406 
" clip-path="url(#p5ec18b1597)" style="fill: none; stroke-dasharray: 2.96,1.28; stroke-dashoffset: 0; stroke: #dddddd; stroke-width: 0.8"/>
     </g>
     <g id="line2d_24">
      <g>
       <use xlink:href="#ma9823f1a59" x="62.309375" y="218.602406" style="fill: #333333; stroke: #333333; stroke-width: 0.8"/>
      </g>
     </g>
     <g id="text_13">
      <!-- −127.5 -->
      <g style="fill: #333333" transform="translate(22.002344 222.021702) scale(0.09 -0.09)">
       <defs>
        <path id="DejaVuSerif-37" d="M 3609 4347 
L 1784 0 
L 1319 0 
L 3059 4153 
L 903 4153 
L 903 3578 
L 538 3578 
L 538 4666 
L 3609 4666 
L 3609 4347 
z
" transform="scale(0.015625)"/>
       </defs>
       <use xlink:href="#DejaVuSerif-2212"/>
       <use xlink:href="#DejaVuSerif-31" transform="translate(83.789062 0)"/>
       <use xlink:href="#DejaVuSerif-32" transform="translate(147.412109 0)"/>
       <use xlink:href="#DejaVuSerif-37" transform="translate(211.035156 0)"/>
       <use xlink:href="#DejaVuSerif-2e" transform="translate(274.658203 0)"/>
       <use xlink:href="#DejaVuSerif-35" transform="translate(306.445312 0)"/>
      </g>
     </g>
    </g>
    <g id="ytick_5">
     <g id="line2d_25">
      <path d="M 62.309375 166.259445 
L 731.909375 166.259445 
" clip-path="url(#p5ec18b1597)" style="fill: none; stroke-dasharray: 2.96,1.28; stroke-dashoffset: 0; stroke: #dddddd; stroke-width: 0.8"/>
     </g>
     <g id="line2d_26">
      <g>
       <use xlink:href="#ma9823f1a59" x="62.309375" y="166.259445" style="fill: #333333; stroke: #333333; stroke-width: 0.8"/>
      </g>
     </g>
     <g id="text_14">
      <!-- −125.0 -->
      <g style="fill: #333333" transform="translate(22.002344 169.678741) scale(0.09 -0.09)">
       <use xlink:href="#DejaVuSerif-2212"/>
       <use xlink:href="#DejaVuSerif-31" transform="translate(83.789062 0)"/>
       <use xlink:href="#DejaVuSerif-32" transform="translate(147.412109 0)"/>
       <use xlink:href="#DejaVuSerif-35" transform="translate(211.035156 0)"/>
       <use xlink:href="#DejaVuSerif-2e" transform="translate(274.658203 0)"/>
       <use xlink:href="#DejaVuSerif-30" transform="translate(306.445312 0)"/>
      </g>
     </g>
    </g>
    <g id="ytick_6">
     <g id="line2d_27">
      <path d="M 62.309375 113.916484 
L 731.909375 113.916484 
" clip-path="url(#p5ec18b1597)" style="fill: none; stroke-dasharray: 2.96,1.28; stroke-dashoffset: 0; stroke: #dddddd; stroke-width: 0.8"/>
     </g>
     <g id="line2d_28">
      <g>
       <use xlink:href="#ma9823f1a59" x="62.309375" y="113.916484" style="fill: #333333; stroke: #333333; stroke-width: 0.8"/>
      </g>
     </g>
     <g id="text_15">
      <!-- −122.5 -->
      <g style="fill: #333333" transform="translate(22.002344 117.33578) scale(0.09 -0.09)">
       <use xlink:href="#DejaVuSerif-2212"/>
       <use xlink:href="#DejaVuSerif-31" transform="translate(83.789062 0)"/>
       <use xlink:href="#DejaVuSerif-32" transform="translate(147.412109 0)"/>
       <use xlink:href="#DejaVuSerif-32" transform="translate(211.035156 0)"/>
       <use xlink:href="#DejaVuSerif-2e" transform="translate(274.658203 0)"/>
       <use xlink:href="#DejaVuSerif-35" transform="translate(306.445312 0)"/>
      </g>
     </g>
    </g>
    <g id="ytick_7">
     <g id="line2d_29">
      <path d="M 62.309375 61.573523 
L 731.909375 61.573523 
" clip-path="url(#p5ec18b1597)" style="fill: none; stroke-dasharray: 2.96,1.28; stroke-dashoffset: 0; stroke: #dddddd; stroke-width: 0.8"/>
     </g>
     <g id="line2d_30">
      <g>
       <use xlink:href="#ma9823f1a59" x="62.309375" y="61.573523" style="fill: #333333; stroke: #333333; stroke-width: 0.8"/>
      </g>
     </g>
     <g id="text_16">
      <!-- −120.0 -->
      <g style="fill: #333333" transform="translate(22.002344 64.992819) scale(0.09 -0.09)">
       <use xlink:href="#DejaVuSerif-2212"/>
       <use xlink:href="#DejaVuSerif-31" transform="translate(83.789062 0)"/>
       <use xlink:href="#DejaVuSerif-32" transform="translate(147.412109 0)"/>
       <use xlink:href="#DejaVuSerif-30" transform="translate(211.035156 0)"/>
       <use xlink:href="#DejaVuSerif-2e" transform="translate(274.658203 0)"/>
       <use xlink:href="#DejaVuSerif-30" transform="translate(306.445312 0)"/>
      </g>
     </g>
    </g>
    <g id="text_17">
     <!-- Power Spectral Density (dB) -->
     <g transform="translate(15.558281 296.263984) rotate(-90) scale(0.11 -0.11)">
      <defs>
       <path id="DejaVuSerif-50" d="M 1581 2375 
L 2406 2375 
Q 2872 2375 3115 2626 
Q 3359 2878 3359 3353 
Q 3359 3831 3115 4081 
Q 2872 4331 2406 4331 
L 1581 4331 
L 1581 2375 
z
M 353 0 
L 353 331 
L 947 331 
L 947 4331 
L 353 4331 
L 353 4666 
L 2559 4666 
Q 3259 4666 3668 4311 
Q 4078 3956 4078 3353 
Q 4078 2753 3668 2397 
Q 3259 2041 2559 2041 
L 1581 2041 
L 1581 331 
L 2303 331 
L 2303 0 
L 353 0 
z
" transform="scale(0.015625)"/>
       <path id="DejaVuSerif-6f" d="M 1925 219 
Q 2388 219 2623 584 
Q 2859 950 2859 1663 
Q 2859 2375 2623 2739 
Q 2388 3103 1925 3103 
Q 1463 3103 1227 2739 
Q 991 2375 991 1663 
Q 991 950 1228 584 
Q 1466 219 1925 219 
z
M 1925 -91 
Q 1200 -91 759 389 
Q 319 869 319 1663 
Q 319 2456 758 2934 
Q 1197 3413 1925 3413 
Q 2653 3413 3092 2934 
Q 3531 2456 3531 1663 
Q 3531 869 3092 389 
Q 2653 -91 1925 -91 
z
" transform="scale(0.015625)"/>
       <path id="DejaVuSerif-77" d="M 3072 3322 
L 3922 728 
L 4672 2988 
L 4191 2988 
L 4191 3322 
L 5394 3322 
L 5394 2988 
L 5025 2988 
L 4038 0 
L 3559 0 
L 2741 2484 
L 1919 0 
L 1459 0 
L 475 2988 
L 103 2988 
L 103 3322 
L 1606 3322 
L 1606 2988 
L 1069 2988 
L 1813 728 
L 2669 3322 
L 3072 3322 
z
" transform="scale(0.015625)"/>
       <path id="DejaVuSerif-53" d="M 594 225 
L 594 1288 
L 953 1284 
Q 969 753 1261 498 
Q 1553 244 2150 244 
Q 2706 244 2998 464 
Q 3291 684 3291 1106 
Q 3291 1444 3114 1625 
Q 2938 1806 2369 1978 
L 1753 2163 
Q 1084 2366 811 2669 
Q 538 2972 538 3500 
Q 538 4094 959 4422 
Q 1381 4750 2144 4750 
Q 2469 4750 2856 4679 
Q 3244 4609 3681 4475 
L 3681 3481 
L 3328 3481 
Q 3275 3975 2998 4195 
Q 2722 4416 2156 4416 
Q 1663 4416 1405 4214 
Q 1147 4013 1147 3628 
Q 1147 3294 1340 3103 
Q 1534 2913 2163 2725 
L 2741 2553 
Q 3375 2363 3645 2067 
Q 3916 1772 3916 1275 
Q 3916 597 3481 253 
Q 3047 -91 2188 -91 
Q 1803 -91 1404 -12 
Q 1006 66 594 225 
z
" transform="scale(0.015625)"/>
       <path id="DejaVuSerif-70" d="M 1313 1825 
L 1313 1497 
Q 1313 897 1542 583 
Q 1772 269 2209 269 
Q 2650 269 2876 622 
Q 3103 975 3103 1663 
Q 3103 2353 2876 2703 
Q 2650 3053 2209 3053 
Q 1772 3053 1542 2737 
Q 1313 2422 1313 1825 
z
M 738 2988 
L 184 2988 
L 184 3322 
L 1313 3322 
L 1313 2803 
Q 1481 3116 1742 3264 
Q 2003 3413 2388 3413 
Q 3000 3413 3387 2928 
Q 3775 2444 3775 1663 
Q 3775 881 3387 395 
Q 3000 -91 2388 -91 
Q 2003 -91 1742 57 
Q 1481 206 1313 519 
L 1313 -997 
L 1856 -997 
L 1856 -1331 
L 184 -1331 
L 184 -997 
L 738 -997 
L 738 2988 
z
" transform="scale(0.015625)"/>
       <path id="DejaVuSerif-74" d="M 691 2988 
L 184 2988 
L 184 3322 
L 691 3322 
L 691 4353 
L 1269 4353 
L 1269 3322 
L 2350 3322 
L 2350 2988 
L 1269 2988 
L 1269 878 
Q 1269 456 1350 337 
Q 1431 219 1650 219 
Q 1875 219 1978 351 
Q 2081 484 2088 781 
L 2522 781 
Q 2497 328 2275 118 
Q 2053 -91 1600 -91 
Q 1103 -91 897 129 
Q 691 350 691 878 
L 691 2988 
z
" transform="scale(0.015625)"/>
       <path id="DejaVuSerif-61" d="M 2547 1044 
L 2547 1747 
L 1806 1747 
Q 1378 1747 1168 1562 
Q 959 1378 959 997 
Q 959 650 1171 447 
Q 1384 244 1747 244 
Q 2106 244 2326 466 
Q 2547 688 2547 1044 
z
M 3122 2075 
L 3122 331 
L 3634 331 
L 3634 0 
L 2547 0 
L 2547 359 
Q 2356 128 2106 18 
Q 1856 -91 1522 -91 
Q 969 -91 644 203 
Q 319 497 319 997 
Q 319 1513 691 1797 
Q 1063 2081 1741 2081 
L 2547 2081 
L 2547 2309 
Q 2547 2688 2317 2895 
Q 2088 3103 1672 3103 
Q 1328 3103 1125 2947 
Q 922 2791 872 2484 
L 575 2484 
L 575 3156 
Q 875 3284 1158 3348 
Q 1441 3413 1709 3413 
Q 2400 3413 2761 3070 
Q 3122 2728 3122 2075 
z
" transform="scale(0.015625)"/>
       <path id="DejaVuSerif-6c" d="M 1313 331 
L 1856 331 
L 1856 0 
L 184 0 
L 184 331 
L 738 331 
L 738 4531 
L 184 4531 
L 184 4863 
L 1313 4863 
L 1313 331 
z
" transform="scale(0.015625)"/>
       <path id="DejaVuSerif-44" d="M 1581 331 
L 2163 331 
Q 3072 331 3558 850 
Q 4044 1369 4044 2338 
Q 4044 3306 3559 3818 
Q 3075 4331 2163 4331 
L 1581 4331 
L 1581 331 
z
M 353 0 
L 353 331 
L 947 331 
L 947 4331 
L 353 4331 
L 353 4666 
L 2209 4666 
Q 3416 4666 4089 4050 
Q 4763 3434 4763 2338 
Q 4763 1238 4088 619 
Q 3413 0 2209 0 
L 353 0 
z
" transform="scale(0.015625)"/>
       <path id="DejaVuSerif-73" d="M 359 184 
L 359 959 
L 691 959 
Q 703 588 923 403 
Q 1144 219 1575 219 
Q 1963 219 2166 364 
Q 2369 509 2369 788 
Q 2369 1006 2220 1140 
Q 2072 1275 1594 1428 
L 1178 1569 
Q 750 1706 558 1912 
Q 366 2119 366 2438 
Q 366 2894 700 3153 
Q 1034 3413 1625 3413 
Q 1888 3413 2178 3344 
Q 2469 3275 2778 3144 
L 2778 2419 
L 2447 2419 
Q 2434 2741 2221 2922 
Q 2009 3103 1644 3103 
Q 1281 3103 1095 2975 
Q 909 2847 909 2591 
Q 909 2381 1050 2254 
Q 1191 2128 1613 1997 
L 2069 1856 
Q 2541 1709 2748 1489 
Q 2956 1269 2956 922 
Q 2956 450 2595 179 
Q 2234 -91 1600 -91 
Q 1278 -91 972 -22 
Q 666 47 359 184 
z
" transform="scale(0.015625)"/>
       <path id="DejaVuSerif-69" d="M 622 4353 
Q 622 4497 726 4603 
Q 831 4709 978 4709 
Q 1122 4709 1226 4603 
Q 1331 4497 1331 4353 
Q 1331 4206 1228 4103 
Q 1125 4000 978 4000 
Q 831 4000 726 4103 
Q 622 4206 622 4353 
z
M 1356 331 
L 1900 331 
L 1900 0 
L 231 0 
L 231 331 
L 781 331 
L 781 2988 
L 231 2988 
L 231 3322 
L 1356 3322 
L 1356 331 
z
" transform="scale(0.015625)"/>
       <path id="DejaVuSerif-64" d="M 3359 331 
L 3909 331 
L 3909 0 
L 2784 0 
L 2784 519 
Q 2616 206 2355 57 
Q 2094 -91 1709 -91 
Q 1097 -91 708 395 
Q 319 881 319 1663 
Q 319 2444 706 2928 
Q 1094 3413 1709 3413 
Q 2094 3413 2355 3264 
Q 2616 3116 2784 2803 
L 2784 4531 
L 2241 4531 
L 2241 4863 
L 3359 4863 
L 3359 331 
z
M 2784 1497 
L 2784 1825 
Q 2784 2422 2554 2737 
Q 2325 3053 1888 3053 
Q 1444 3053 1217 2703 
Q 991 2353 991 1663 
Q 991 975 1217 622 
Q 1444 269 1888 269 
Q 2325 269 2554 583 
Q 2784 897 2784 1497 
z
" transform="scale(0.015625)"/>
       <path id="DejaVuSerif-42" d="M 1581 331 
L 2516 331 
Q 3078 331 3337 575 
Q 3597 819 3597 1350 
Q 3597 1878 3339 2120 
Q 3081 2363 2516 2363 
L 1581 2363 
L 1581 331 
z
M 1581 2694 
L 2375 2694 
Q 2888 2694 3123 2891 
Q 3359 3088 3359 3513 
Q 3359 3941 3123 4136 
Q 2888 4331 2375 4331 
L 1581 4331 
L 1581 2694 
z
M 353 0 
L 353 331 
L 947 331 
L 947 4331 
L 353 4331 
L 353 4666 
L 2656 4666 
Q 3363 4666 3720 4377 
Q 4078 4088 4078 3513 
Q 4078 3097 3829 2850 
Q 3581 2603 3103 2547 
Q 3697 2472 4005 2167 
Q 4313 1863 4313 1350 
Q 4313 656 3875 328 
Q 3438 0 2509 0 
L 353 0 
z
" transform="scale(0.015625)"/>
      </defs>
      <use xlink:href="#DejaVuSerif-50"/>
      <use xlink:href="#DejaVuSerif-6f" transform="translate(63.285156 0)"/>
      <use xlink:href="#DejaVuSerif-77" transform="translate(123.490234 0)"/>
      <use xlink:href="#DejaVuSerif-65" transform="translate(209.085938 0)"/>
      <use xlink:href="#DejaVuSerif-72" transform="translate(268.265625 0)"/>
      <use xlink:href="#DejaVuSerif-20" transform="translate(316.068359 0)"/>
      <use xlink:href="#DejaVuSerif-53" transform="translate(347.855469 0)"/>
      <use xlink:href="#DejaVuSerif-70" transform="translate(416.361328 0)"/>
      <use xlink:href="#DejaVuSerif-65" transform="translate(480.375 0)"/>
      <use xlink:href="#DejaVuSerif-63" transform="translate(539.554688 0)"/>
      <use xlink:href="#DejaVuSerif-74" transform="translate(595.560547 0)"/>
      <use xlink:href="#DejaVuSerif-72" transform="translate(635.746094 0)"/>
      <use xlink:href="#DejaVuSerif-61" transform="translate(683.548828 0)"/>
      <use xlink:href="#DejaVuSerif-6c" transform="translate(743.167969 0)"/>
      <use xlink:href="#DejaVuSerif-20" transform="translate(775.150391 0)"/>
      <use xlink:href="#DejaVuSerif-44" transform="translate(806.9375 0)"/>
      <use xlink:href="#DejaVuSerif-65" transform="translate(887.113281 0)"/>
      <use xlink:href="#DejaVuSerif-6e" transform="translate(946.292969 0)"/>
      <use xlink:href="#DejaVuSerif-73" transform="translate(1010.697266 0)"/>
      <use xlink:href="#DejaVuSerif-69" transform="translate(1062.015625 0)"/>
      <use xlink:href="#DejaVuSerif-74" transform="translate(1093.998047 0)"/>
      <use xlink:href="#DejaVuSerif-79" transform="translate(1134.183594 0)"/>
      <use xlink:href="#DejaVuSerif-20" transform="translate(1190.677734 0)"/>
      <use xlink:href="#DejaVuSerif-28" transform="translate(1222.464844 0)"/>
      <use xlink:href="#DejaVuSerif-64" transform="translate(1261.478516 0)"/>
      <use xlink:href="#DejaVuSerif-42" transform="translate(1325.492188 0)"/>
      <use xlink:href="#DejaVuSerif-29" transform="translate(1398.978516 0)"/>
     </g>
    </g>
   </g>
   <g id="line2d_31">
    <path d="M 92.745739 40.774844 
L 101.200284 61.303381 
L 109.65483 78.533049 
L 118.109375 92.29484 
L 126.56392 102.185372 
L 135.018466 109.513761 
L 143.473011 118.07659 
L 151.927557 129.84392 
L 160.382102 142.918849 
L 168.836648 154.540912 
L 177.291193 163.267714 
L 185.745739 169.097535 
L 194.200284 173.526301 
L 202.65483 178.393364 
L 211.109375 184.147368 
L 219.56392 189.792963 
L 228.018466 195.411586 
L 236.473011 201.867077 
L 244.927557 208.82479 
L 253.382102 215.401677 
L 261.836648 220.078465 
L 270.291193 222.541592 
L 278.745739 223.778649 
L 287.200284 225.645051 
L 295.65483 228.806146 
L 304.109375 232.136665 
L 312.56392 235.060957 
L 321.018466 237.26884 
L 329.473011 239.266332 
L 337.927557 240.937896 
L 346.382102 242.273858 
L 354.836648 243.630838 
L 363.291193 245.137692 
L 371.745739 246.969545 
L 380.200284 248.720809 
L 388.65483 249.703729 
L 397.109375 250.222984 
L 405.56392 250.93524 
L 414.018466 252.328611 
L 422.473011 254.14269 
L 430.927557 255.798437 
L 439.382102 257.209178 
L 447.836648 258.324701 
L 456.291193 260.018517 
L 464.745739 262.101987 
L 473.200284 264.227486 
L 481.65483 266.946704 
L 490.109375 270.225037 
L 498.56392 273.417221 
L 507.018466 276.441552 
L 515.473011 280.165539 
L 523.927557 285.197492 
L 532.382102 290.545634 
L 540.836648 295.678999 
L 549.291193 300.417613 
L 557.745739 304.782843 
L 566.200284 309.19158 
L 574.65483 312.971627 
L 583.109375 316.618757 
L 591.56392 320.768605 
L 600.018466 324.647748 
L 608.473011 327.866175 
L 616.927557 330.787122 
L 625.382102 333.514547 
L 633.836648 336.140003 
L 642.291193 338.93596 
L 650.745739 341.91233 
L 659.200284 344.599368 
L 667.65483 346.838549 
L 676.109375 348.941613 
L 684.56392 351.583107 
L 693.018466 354.07796 
L 701.473011 355.939249 
" clip-path="url(#p5ec18b1597)" style="fill: none; stroke: #1f77b4; stroke-width: 1.5; stroke-linecap: square"/>
   </g>
   <g id="line2d_32">
    <path d="M 92.745739 48.553578 
L 101.200284 66.877317 
L 109.65483 87.4859 
L 118.109375 104.979739 
L 126.56392 114.662454 
L 135.018466 121.584451 
L 143.473011 132.736513 
L 151.927557 147.321869 
L 160.382102 160.181927 
L 168.836648 169.99187 
L 177.291193 177.431973 
L 185.745739 181.523811 
L 194.200284 183.343929 
L 202.65483 185.839713 
L 211.109375 189.885446 
L 219.56392 195.538105 
L 228.018466 202.676326 
L 236.473011 210.287231 
L 244.927557 216.191242 
L 253.382102 220.535481 
L 261.836648 224.95025 
L 270.291193 228.529854 
L 278.745739 231.520331 
L 287.200284 235.306142 
L 295.65483 239.711985 
L 304.109375 243.973082 
L 312.56392 246.863922 
L 321.018466 249.633184 
L 329.473011 253.003032 
L 337.927557 255.444005 
L 346.382102 256.095285 
L 354.836648 255.513861 
L 363.291193 256.01564 
L 371.745739 256.595982 
L 380.200284 256.322129 
L 388.65483 257.335738 
L 397.109375 260.736465 
L 405.56392 264.938239 
L 414.018466 268.180831 
L 422.473011 269.773769 
L 430.927557 270.418547 
L 439.382102 271.448201 
L 447.836648 271.023649 
L 456.291193 268.746307 
L 464.745739 267.18616 
L 473.200284 266.253945 
L 481.65483 267.618956 
L 490.109375 273.795004 
L 498.56392 282.483302 
L 507.018466 287.668163 
L 515.473011 289.153805 
L 523.927557 290.302242 
L 532.382102 291.858249 
L 540.836648 295.649063 
L 549.291193 302.605148 
L 557.745739 309.234491 
L 566.200284 313.104341 
L 574.65483 317.398013 
L 583.109375 323.90209 
L 591.56392 329.281203 
L 600.018466 332.578001 
L 608.473011 336.089139 
L 616.927557 339.943182 
L 625.382102 344.718898 
L 633.836648 349.645403 
L 642.291193 351.859179 
L 650.745739 352.674796 
L 659.200284 353.469818 
L 667.65483 355.918984 
L 676.109375 359.903623 
L 684.56392 363.928375 
L 693.018466 365.411839 
L 701.473011 364.732834 
" clip-path="url(#p5ec18b1597)" style="fill: none; stroke: #d62728; stroke-width: 1.5; stroke-linecap: square"/>
   </g>
   <g id="line2d_33">
    <path d="M 92.745739 44.498286 
L 101.200284 61.420997 
L 109.65483 79.501514 
L 118.109375 95.445844 
L 126.56392 106.297651 
L 135.018466 114.877993 
L 143.473011 123.007873 
L 151.927557 130.242305 
L 160.382102 138.268406 
L 168.836648 148.12195 
L 177.291193 158.322509 
L 185.745739 167.435845 
L 194.200284 176.013377 
L 202.65483 183.130789 
L 211.109375 187.748128 
L 219.56392 191.192569 
L 228.018466 195.006318 
L 236.473011 197.737545 
L 244.927557 200.837567 
L 253.382102 207.703171 
L 261.836648 216.498331 
L 270.291193 222.853352 
L 278.745739 224.661079 
L 287.200284 225.66156 
L 295.65483 229.596381 
L 304.109375 235.254928 
L 312.56392 236.689436 
L 321.018466 234.396983 
L 329.473011 234.043085 
L 337.927557 237.147467 
L 346.382102 241.301019 
L 354.836648 242.506164 
L 363.291193 241.824761 
L 371.745739 242.09871 
L 380.200284 243.393718 
L 388.65483 243.929506 
L 397.109375 244.812216 
L 405.56392 248.688417 
L 414.018466 253.571194 
L 422.473011 254.804444 
L 430.927557 253.196415 
L 439.382102 252.379434 
L 447.836648 252.658283 
L 456.291193 253.080673 
L 464.745739 254.052954 
L 473.200284 257.48466 
L 481.65483 263.300333 
L 490.109375 268.198728 
L 498.56392 271.361968 
L 507.018466 273.436121 
L 515.473011 275.430298 
L 523.927557 279.46295 
L 532.382102 285.871933 
L 540.836648 292.521331 
L 549.291193 297.503522 
L 557.745739 302.178229 
L 566.200284 307.938209 
L 574.65483 313.616364 
L 583.109375 318.465839 
L 591.56392 321.936738 
L 600.018466 325.006835 
L 608.473011 328.423624 
L 616.927557 332.250468 
L 625.382102 335.97185 
L 633.836648 339.737224 
L 642.291193 342.481472 
L 650.745739 343.959036 
L 659.200284 344.294678 
L 667.65483 345.833238 
L 676.109375 350.64278 
L 684.56392 355.892707 
L 693.018466 358.08553 
L 701.473011 359.026032 
" clip-path="url(#p5ec18b1597)" style="fill: none; stroke: #e377c2; stroke-width: 1.5; stroke-linecap: square"/>
   </g>
   <g id="line2d_34">
    <path d="M 92.745739 53.037875 
L 101.200284 73.875192 
L 109.65483 91.870879 
L 118.109375 103.799135 
L 126.56392 111.439579 
L 135.018466 118.95741 
L 143.473011 126.81844 
L 151.927557 135.904898 
L 160.382102 146.772627 
L 168.836648 157.078342 
L 177.291193 165.484009 
L 185.745739 172.858214 
L 194.200284 178.360799 
L 202.65483 181.551805 
L 211.109375 184.885032 
L 219.56392 190.077394 
L 228.018466 195.835951 
L 236.473011 201.150674 
L 244.927557 205.631114 
L 253.382102 209.315455 
L 261.836648 212.794342 
L 270.291193 216.750614 
L 278.745739 220.365788 
L 287.200284 222.805587 
L 295.65483 224.982391 
L 304.109375 226.980073 
L 312.56392 227.643322 
L 321.018466 227.433076 
L 329.473011 227.818194 
L 337.927557 229.477525 
L 346.382102 230.523944 
L 354.836648 230.24062 
L 363.291193 230.038629 
L 371.745739 230.866411 
L 380.200284 232.003141 
L 388.65483 232.757459 
L 397.109375 233.962589 
L 405.56392 235.370919 
L 414.018466 236.023993 
L 422.473011 235.766447 
L 430.927557 235.040138 
L 439.382102 233.822047 
L 447.836648 233.016325 
L 456.291193 232.855245 
L 464.745739 233.912657 
L 473.200284 235.872068 
L 481.65483 238.243473 
L 490.109375 240.634392 
L 498.56392 243.287374 
L 507.018466 246.391351 
L 515.473011 248.622131 
L 523.927557 250.229677 
L 532.382102 253.116083 
L 540.836648 258.645362 
L 549.291193 264.606212 
L 557.745739 269.764442 
L 566.200284 274.16173 
L 574.65483 276.321083 
L 583.109375 278.026498 
L 591.56392 281.119673 
L 600.018466 284.823516 
L 608.473011 287.419954 
L 616.927557 289.546029 
L 625.382102 292.578846 
L 633.836648 295.274427 
L 642.291193 296.883277 
L 650.745739 298.570202 
L 659.200284 300.507782 
L 667.65483 302.133011 
L 676.109375 303.883668 
L 684.56392 305.819547 
L 693.018466 307.345876 
L 701.473011 308.103478 
" clip-path="url(#p5ec18b1597)" style="fill: none; stroke: #17becf; stroke-width: 1.5; stroke-linecap: square"/>
   </g>
   <g id="patch_3">
    <path d="M 62.309375 411.214844 
L 62.309375 23.134844 
" style="fill: none; stroke: #333333; stroke-linejoin: miter; stroke-linecap: square"/>
   </g>
   <g id="patch_4">
    <path d="M 62.309375 411.214844 
L 731.909375 411.214844 
" style="fill: none; stroke: #333333; stroke-linejoin: miter; stroke-linecap: square"/>
   </g>
   <g id="text_18">
    <!-- Dataset: Jin et al. (2019) | Subject: 17 | Session: 2 | All Task-State PSDs -->
    <g transform="translate(161.556484 17.134844) scale(0.13 -0.13)">
     <defs>
      <path id="DejaVuSerif-3a" d="M 666 325 
Q 666 500 786 622 
Q 906 744 1081 744 
Q 1256 744 1376 622 
Q 1497 500 1497 325 
Q 1497 150 1378 29 
Q 1259 -91 1081 -91 
Q 903 -91 784 29 
Q 666 150 666 325 
z
M 666 2363 
Q 666 2538 786 2658 
Q 906 2778 1081 2778 
Q 1259 2778 1378 2659 
Q 1497 2541 1497 2363 
Q 1497 2184 1378 2065 
Q 1259 1947 1081 1947 
Q 906 1947 786 2067 
Q 666 2188 666 2363 
z
" transform="scale(0.015625)"/>
      <path id="DejaVuSerif-4a" d="M -538 -1119 
L -538 -384 
L -181 -384 
Q -172 -694 -34 -845 
Q 103 -997 378 -997 
Q 750 -997 897 -762 
Q 1044 -528 1044 153 
L 1044 4331 
L 319 4331 
L 319 4666 
L 2272 4666 
L 2272 4331 
L 1678 4331 
L 1678 128 
Q 1678 -644 1368 -987 
Q 1059 -1331 372 -1331 
Q 150 -1331 -79 -1278 
Q -309 -1225 -538 -1119 
z
" transform="scale(0.015625)"/>
      <path id="DejaVuSerif-39" d="M 2994 2091 
Q 2784 1856 2512 1740 
Q 2241 1625 1900 1625 
Q 1206 1625 804 2044 
Q 403 2463 403 3188 
Q 403 3897 839 4323 
Q 1275 4750 2003 4750 
Q 2794 4750 3217 4161 
Q 3641 3572 3641 2478 
Q 3641 1253 3137 581 
Q 2634 -91 1722 -91 
Q 1475 -91 1203 -44 
Q 931 3 647 97 
L 647 872 
L 997 872 
Q 1038 556 1241 387 
Q 1444 219 1784 219 
Q 2391 219 2687 676 
Q 2984 1134 2994 2091 
z
M 1978 4441 
Q 1534 4441 1298 4117 
Q 1063 3794 1063 3188 
Q 1063 2581 1298 2256 
Q 1534 1931 1978 1931 
Q 2422 1931 2658 2245 
Q 2894 2559 2894 3150 
Q 2894 3772 2656 4106 
Q 2419 4441 1978 4441 
z
" transform="scale(0.015625)"/>
      <path id="DejaVuSerif-7c" d="M 1331 4891 
L 1331 -1509 
L 825 -1509 
L 825 4891 
L 1331 4891 
z
" transform="scale(0.015625)"/>
      <path id="DejaVuSerif-62" d="M 738 331 
L 738 4531 
L 184 4531 
L 184 4863 
L 1313 4863 
L 1313 2803 
Q 1481 3116 1742 3264 
Q 2003 3413 2388 3413 
Q 3000 3413 3387 2928 
Q 3775 2444 3775 1663 
Q 3775 881 3387 395 
Q 3000 -91 2388 -91 
Q 2003 -91 1742 57 
Q 1481 206 1313 519 
L 1313 0 
L 184 0 
L 184 331 
L 738 331 
z
M 1313 1497 
Q 1313 897 1542 583 
Q 1772 269 2209 269 
Q 2650 269 2876 622 
Q 3103 975 3103 1663 
Q 3103 2353 2876 2703 
Q 2650 3053 2209 3053 
Q 1772 3053 1542 2737 
Q 1313 2422 1313 1825 
L 1313 1497 
z
" transform="scale(0.015625)"/>
      <path id="DejaVuSerif-6a" d="M 641 4353 
Q 641 4497 745 4603 
Q 850 4709 997 4709 
Q 1141 4709 1245 4603 
Q 1350 4497 1350 4353 
Q 1350 4206 1248 4103 
Q 1147 4000 997 4000 
Q 850 4000 745 4103 
Q 641 4206 641 4353 
z
M 781 2988 
L 238 2988 
L 238 3322 
L 1356 3322 
L 1356 -325 
Q 1356 -838 1051 -1130 
Q 747 -1422 213 -1422 
Q -13 -1422 -217 -1370 
Q -422 -1319 -616 -1216 
L -616 -531 
L -319 -531 
Q -297 -831 -164 -972 
Q -31 -1113 225 -1113 
Q 509 -1113 645 -920 
Q 781 -728 781 -325 
L 781 2988 
z
" transform="scale(0.015625)"/>
      <path id="DejaVuSerif-41" d="M 1281 1691 
L 2994 1691 
L 2138 3909 
L 1281 1691 
z
M -38 0 
L -38 331 
L 372 331 
L 2034 4666 
L 2559 4666 
L 4225 331 
L 4684 331 
L 4684 0 
L 2988 0 
L 2988 331 
L 3506 331 
L 3116 1356 
L 1153 1356 
L 763 331 
L 1275 331 
L 1275 0 
L -38 0 
z
" transform="scale(0.015625)"/>
      <path id="DejaVuSerif-54" d="M 1222 0 
L 1222 331 
L 1819 331 
L 1819 4294 
L 447 4294 
L 447 3566 
L 63 3566 
L 63 4666 
L 4206 4666 
L 4206 3566 
L 3822 3566 
L 3822 4294 
L 2450 4294 
L 2450 331 
L 3047 331 
L 3047 0 
L 1222 0 
z
" transform="scale(0.015625)"/>
      <path id="DejaVuSerif-6b" d="M 1831 0 
L 219 0 
L 219 331 
L 738 331 
L 738 4531 
L 184 4531 
L 184 4863 
L 1313 4863 
L 1313 1697 
L 2713 2988 
L 2234 2988 
L 2234 3322 
L 3738 3322 
L 3738 2988 
L 3169 2988 
L 2181 2075 
L 3444 331 
L 3922 331 
L 3922 0 
L 2284 0 
L 2284 331 
L 2759 331 
L 1766 1697 
L 1313 1275 
L 1313 331 
L 1831 331 
L 1831 0 
z
" transform="scale(0.015625)"/>
      <path id="DejaVuSerif-2d" d="M 281 1959 
L 1881 1959 
L 1881 1472 
L 281 1472 
L 281 1959 
z
" transform="scale(0.015625)"/>
     </defs>
     <use xlink:href="#DejaVuSerif-44"/>
     <use xlink:href="#DejaVuSerif-61" transform="translate(80.175781 0)"/>
     <use xlink:href="#DejaVuSerif-74" transform="translate(139.794922 0)"/>
     <use xlink:href="#DejaVuSerif-61" transform="translate(179.980469 0)"/>
     <use xlink:href="#DejaVuSerif-73" transform="translate(239.599609 0)"/>
     <use xlink:href="#DejaVuSerif-65" transform="translate(290.917969 0)"/>
     <use xlink:href="#DejaVuSerif-74" transform="translate(350.097656 0)"/>
     <use xlink:href="#DejaVuSerif-3a" transform="translate(390.283203 0)"/>
     <use xlink:href="#DejaVuSerif-20" transform="translate(423.974609 0)"/>
     <use xlink:href="#DejaVuSerif-4a" transform="translate(455.761719 0)"/>
     <use xlink:href="#DejaVuSerif-69" transform="translate(495.849609 0)"/>
     <use xlink:href="#DejaVuSerif-6e" transform="translate(527.832031 0)"/>
     <use xlink:href="#DejaVuSerif-20" transform="translate(592.236328 0)"/>
     <use xlink:href="#DejaVuSerif-65" transform="translate(624.023438 0)"/>
     <use xlink:href="#DejaVuSerif-74" transform="translate(683.203125 0)"/>
     <use xlink:href="#DejaVuSerif-20" transform="translate(723.388672 0)"/>
     <use xlink:href="#DejaVuSerif-61" transform="translate(755.175781 0)"/>
     <use xlink:href="#DejaVuSerif-6c" transform="translate(814.794922 0)"/>
     <use xlink:href="#DejaVuSerif-2e" transform="translate(846.777344 0)"/>
     <use xlink:href="#DejaVuSerif-20" transform="translate(878.564453 0)"/>
     <use xlink:href="#DejaVuSerif-28" transform="translate(910.351562 0)"/>
     <use xlink:href="#DejaVuSerif-32" transform="translate(949.365234 0)"/>
     <use xlink:href="#DejaVuSerif-30" transform="translate(1012.988281 0)"/>
     <use xlink:href="#DejaVuSerif-31" transform="translate(1076.611328 0)"/>
     <use xlink:href="#DejaVuSerif-39" transform="translate(1140.234375 0)"/>
     <use xlink:href="#DejaVuSerif-29" transform="translate(1203.857422 0)"/>
     <use xlink:href="#DejaVuSerif-20" transform="translate(1242.871094 0)"/>
     <use xlink:href="#DejaVuSerif-7c" transform="translate(1274.658203 0)"/>
     <use xlink:href="#DejaVuSerif-20" transform="translate(1308.349609 0)"/>
     <use xlink:href="#DejaVuSerif-53" transform="translate(1340.136719 0)"/>
     <use xlink:href="#DejaVuSerif-75" transform="translate(1408.642578 0)"/>
     <use xlink:href="#DejaVuSerif-62" transform="translate(1473.046875 0)"/>
     <use xlink:href="#DejaVuSerif-6a" transform="translate(1537.060547 0)"/>
     <use xlink:href="#DejaVuSerif-65" transform="translate(1568.066406 0)"/>
     <use xlink:href="#DejaVuSerif-63" transform="translate(1627.246094 0)"/>
     <use xlink:href="#DejaVuSerif-74" transform="translate(1683.251953 0)"/>
     <use xlink:href="#DejaVuSerif-3a" transform="translate(1723.4375 0)"/>
     <use xlink:href="#DejaVuSerif-20" transform="translate(1757.128906 0)"/>
     <use xlink:href="#DejaVuSerif-31" transform="translate(1788.916016 0)"/>
     <use xlink:href="#DejaVuSerif-37" transform="translate(1852.539062 0)"/>
     <use xlink:href="#DejaVuSerif-20" transform="translate(1916.162109 0)"/>
     <use xlink:href="#DejaVuSerif-7c" transform="translate(1947.949219 0)"/>
     <use xlink:href="#DejaVuSerif-20" transform="translate(1981.640625 0)"/>
     <use xlink:href="#DejaVuSerif-53" transform="translate(2013.427734 0)"/>
     <use xlink:href="#DejaVuSerif-65" transform="translate(2081.933594 0)"/>
     <use xlink:href="#DejaVuSerif-73" transform="translate(2141.113281 0)"/>
     <use xlink:href="#DejaVuSerif-73" transform="translate(2192.431641 0)"/>
     <use xlink:href="#DejaVuSerif-69" transform="translate(2243.75 0)"/>
     <use xlink:href="#DejaVuSerif-6f" transform="translate(2275.732422 0)"/>
     <use xlink:href="#DejaVuSerif-6e" transform="translate(2335.9375 0)"/>
     <use xlink:href="#DejaVuSerif-3a" transform="translate(2400.341797 0)"/>
     <use xlink:href="#DejaVuSerif-20" transform="translate(2434.033203 0)"/>
     <use xlink:href="#DejaVuSerif-32" transform="translate(2465.820312 0)"/>
     <use xlink:href="#DejaVuSerif-20" transform="translate(2529.443359 0)"/>
     <use xlink:href="#DejaVuSerif-7c" transform="translate(2561.230469 0)"/>
     <use xlink:href="#DejaVuSerif-20" transform="translate(2594.921875 0)"/>
     <use xlink:href="#DejaVuSerif-41" transform="translate(2626.708984 0)"/>
     <use xlink:href="#DejaVuSerif-6c" transform="translate(2698.925781 0)"/>
     <use xlink:href="#DejaVuSerif-6c" transform="translate(2730.908203 0)"/>
     <use xlink:href="#DejaVuSerif-20" transform="translate(2762.890625 0)"/>
     <use xlink:href="#DejaVuSerif-54" transform="translate(2794.677734 0)"/>
     <use xlink:href="#DejaVuSerif-61" transform="translate(2853.626953 0)"/>
     <use xlink:href="#DejaVuSerif-73" transform="translate(2913.246094 0)"/>
     <use xlink:href="#DejaVuSerif-6b" transform="translate(2964.564453 0)"/>
     <use xlink:href="#DejaVuSerif-2d" transform="translate(3023.410156 0)"/>
     <use xlink:href="#DejaVuSerif-53" transform="translate(3057.199219 0)"/>
     <use xlink:href="#DejaVuSerif-74" transform="translate(3125.705078 0)"/>
     <use xlink:href="#DejaVuSerif-61" transform="translate(3165.890625 0)"/>
     <use xlink:href="#DejaVuSerif-74" transform="translate(3225.509766 0)"/>
     <use xlink:href="#DejaVuSerif-65" transform="translate(3265.695312 0)"/>
     <use xlink:href="#DejaVuSerif-20" transform="translate(3324.875 0)"/>
     <use xlink:href="#DejaVuSerif-50" transform="translate(3356.662109 0)"/>
     <use xlink:href="#DejaVuSerif-53" transform="translate(3423.947266 0)"/>
     <use xlink:href="#DejaVuSerif-44" transform="translate(3492.453125 0)"/>
     <use xlink:href="#DejaVuSerif-73" transform="translate(3572.628906 0)"/>
    </g>
   </g>
   <g id="legend_1">
    <g id="line2d_35">
     <path d="M 644.764063 36.233281 
L 654.764063 36.233281 
L 664.764063 36.233281 
" style="fill: none; stroke: #1f77b4; stroke-width: 1.5; stroke-linecap: square"/>
    </g>
    <g id="text_19">
     <!-- vs - MW -->
     <g transform="translate(672.764063 39.733281) scale(0.1 -0.1)">
      <defs>
       <path id="DejaVuSerif-76" d="M 1581 0 
L 359 2988 
L -19 2988 
L -19 3322 
L 1509 3322 
L 1509 2988 
L 978 2988 
L 1913 703 
L 2847 2988 
L 2350 2988 
L 2350 3322 
L 3597 3322 
L 3597 2988 
L 3225 2988 
L 2003 0 
L 1581 0 
z
" transform="scale(0.015625)"/>
       <path id="DejaVuSerif-4d" d="M 353 0 
L 353 331 
L 947 331 
L 947 4331 
L 319 4331 
L 319 4666 
L 1678 4666 
L 3316 1344 
L 4953 4666 
L 6228 4666 
L 6228 4331 
L 5606 4331 
L 5606 331 
L 6203 331 
L 6203 0 
L 4378 0 
L 4378 331 
L 4972 331 
L 4972 3938 
L 3372 684 
L 2931 684 
L 1331 3938 
L 1331 331 
L 1925 331 
L 1925 0 
L 353 0 
z
" transform="scale(0.015625)"/>
       <path id="DejaVuSerif-57" d="M 4878 0 
L 4366 0 
L 3297 3794 
L 2228 0 
L 1716 0 
L 494 4331 
L 31 4331 
L 31 4666 
L 1734 4666 
L 1734 4331 
L 1153 4331 
L 2125 884 
L 3188 4666 
L 3694 4666 
L 4775 844 
L 5753 4331 
L 5216 4331 
L 5216 4666 
L 6559 4666 
L 6559 4331 
L 6100 4331 
L 4878 0 
z
" transform="scale(0.015625)"/>
      </defs>
      <use xlink:href="#DejaVuSerif-76"/>
      <use xlink:href="#DejaVuSerif-73" transform="translate(56.494141 0)"/>
      <use xlink:href="#DejaVuSerif-20" transform="translate(107.8125 0)"/>
      <use xlink:href="#DejaVuSerif-2d" transform="translate(139.599609 0)"/>
      <use xlink:href="#DejaVuSerif-20" transform="translate(173.388672 0)"/>
      <use xlink:href="#DejaVuSerif-4d" transform="translate(205.175781 0)"/>
      <use xlink:href="#DejaVuSerif-57" transform="translate(307.568359 0)"/>
     </g>
    </g>
    <g id="line2d_36">
     <path d="M 644.764063 50.911406 
L 654.764063 50.911406 
L 664.764063 50.911406 
" style="fill: none; stroke: #d62728; stroke-width: 1.5; stroke-linecap: square"/>
    </g>
    <g id="text_20">
     <!-- vs - OT -->
     <g transform="translate(672.764063 54.411406) scale(0.1 -0.1)">
      <defs>
       <path id="DejaVuSerif-4f" d="M 2625 244 
Q 3391 244 3781 770 
Q 4172 1297 4172 2328 
Q 4172 3363 3781 3889 
Q 3391 4416 2625 4416 
Q 1856 4416 1465 3889 
Q 1075 3363 1075 2328 
Q 1075 1297 1465 770 
Q 1856 244 2625 244 
z
M 2625 -91 
Q 2150 -91 1751 65 
Q 1353 222 1050 525 
Q 700 875 529 1319 
Q 359 1763 359 2328 
Q 359 2894 529 3339 
Q 700 3784 1050 4134 
Q 1356 4441 1750 4595 
Q 2144 4750 2625 4750 
Q 3641 4750 4266 4084 
Q 4891 3419 4891 2328 
Q 4891 1769 4719 1320 
Q 4547 872 4197 525 
Q 3891 219 3497 64 
Q 3103 -91 2625 -91 
z
" transform="scale(0.015625)"/>
      </defs>
      <use xlink:href="#DejaVuSerif-76"/>
      <use xlink:href="#DejaVuSerif-73" transform="translate(56.494141 0)"/>
      <use xlink:href="#DejaVuSerif-20" transform="translate(107.8125 0)"/>
      <use xlink:href="#DejaVuSerif-2d" transform="translate(139.599609 0)"/>
      <use xlink:href="#DejaVuSerif-20" transform="translate(173.388672 0)"/>
      <use xlink:href="#DejaVuSerif-4f" transform="translate(205.175781 0)"/>
      <use xlink:href="#DejaVuSerif-54" transform="translate(287.158203 0)"/>
     </g>
    </g>
    <g id="line2d_37">
     <path d="M 644.764063 65.589531 
L 654.764063 65.589531 
L 664.764063 65.589531 
" style="fill: none; stroke: #e377c2; stroke-width: 1.5; stroke-linecap: square"/>
    </g>
    <g id="text_21">
     <!-- sart - MW -->
     <g transform="translate(672.764063 69.089531) scale(0.1 -0.1)">
      <use xlink:href="#DejaVuSerif-73"/>
      <use xlink:href="#DejaVuSerif-61" transform="translate(51.318359 0)"/>
      <use xlink:href="#DejaVuSerif-72" transform="translate(110.9375 0)"/>
      <use xlink:href="#DejaVuSerif-74" transform="translate(158.740234 0)"/>
      <use xlink:href="#DejaVuSerif-20" transform="translate(198.925781 0)"/>
      <use xlink:href="#DejaVuSerif-2d" transform="translate(230.712891 0)"/>
      <use xlink:href="#DejaVuSerif-20" transform="translate(264.501953 0)"/>
      <use xlink:href="#DejaVuSerif-4d" transform="translate(296.289062 0)"/>
      <use xlink:href="#DejaVuSerif-57" transform="translate(398.681641 0)"/>
     </g>
    </g>
    <g id="line2d_38">
     <path d="M 644.764063 80.267656 
L 654.764063 80.267656 
L 664.764063 80.267656 
" style="fill: none; stroke: #17becf; stroke-width: 1.5; stroke-linecap: square"/>
    </g>
    <g id="text_22">
     <!-- sart - OT -->
     <g transform="translate(672.764063 83.767656) scale(0.1 -0.1)">
      <use xlink:href="#DejaVuSerif-73"/>
      <use xlink:href="#DejaVuSerif-61" transform="translate(51.318359 0)"/>
      <use xlink:href="#DejaVuSerif-72" transform="translate(110.9375 0)"/>
      <use xlink:href="#DejaVuSerif-74" transform="translate(158.740234 0)"/>
      <use xlink:href="#DejaVuSerif-20" transform="translate(198.925781 0)"/>
      <use xlink:href="#DejaVuSerif-2d" transform="translate(230.712891 0)"/>
      <use xlink:href="#DejaVuSerif-20" transform="translate(264.501953 0)"/>
      <use xlink:href="#DejaVuSerif-4f" transform="translate(296.289062 0)"/>
      <use xlink:href="#DejaVuSerif-54" transform="translate(378.271484 0)"/>
     </g>
    </g>
   </g>
  </g>
 </g>
 <defs>
  <clipPath id="p5ec18b1597">
   <rect x="62.309375" y="23.134844" width="669.6" height="388.08"/>
  </clipPath>
 </defs>
</svg>
