<?xml version="1.0" encoding="utf-8" standalone="no"?>
<!DOCTYPE svg PUBLIC "-//W3C//DTD SVG 1.1//EN"
  "http://www.w3.org/Graphics/SVG/1.1/DTD/svg11.dtd">
<svg xmlns:xlink="http://www.w3.org/1999/xlink" width="730.522812pt" height="448.9275pt" viewBox="0 0 730.522812 448.9275" xmlns="http://www.w3.org/2000/svg" version="1.1">
 <metadata>
  <rdf:RDF xmlns:dc="http://purl.org/dc/elements/1.1/" xmlns:cc="http://creativecommons.org/ns#" xmlns:rdf="http://www.w3.org/1999/02/22-rdf-syntax-ns#">
   <cc:Work>
    <dc:type rdf:resource="http://purl.org/dc/dcmitype/StillImage"/>
    <dc:date>2025-05-30T20:15:56.435717</dc:date>
    <dc:format>image/svg+xml</dc:format>
    <dc:creator>
     <cc:Agent>
      <dc:title>Matplotlib v3.10.3, https://matplotlib.org/</dc:title>
     </cc:Agent>
    </dc:creator>
   </cc:Work>
  </rdf:RDF>
 </metadata>
 <defs>
  <style type="text/css">*{stroke-linejoin: round; stroke-linecap: butt}</style>
 </defs>
 <g id="figure_1">
  <g id="patch_1">
   <path d="M 0 448.9275 
L 730.522812 448.9275 
L 730.522812 0 
L 0 0 
z
" style="fill: #ffffff"/>
  </g>
  <g id="axes_1">
   <g id="patch_2">
    <path d="M 53.722813 411.214844 
L 723.322813 411.214844 
L 723.322813 23.134844 
L 53.722813 23.134844 
z
" style="fill: #ffffff"/>
   </g>
   <g id="FillBetweenPolyCollection_1">
    <defs>
     <path id="m27f578c786" d="M 84.159176 -256.729593 
L 84.159176 -256.729593 
L 92.613722 -245.867183 
L 101.068267 -237.420802 
L 109.522812 -231.510211 
L 117.977358 -228.610888 
L 126.431903 -228.009059 
L 134.886449 -228.296822 
L 143.340994 -229.452405 
L 151.79554 -234.910873 
L 160.250085 -249.029331 
L 168.704631 -271.562418 
L 177.159176 -296.443316 
L 185.613722 -317.444095 
L 194.068267 -330.173343 
L 202.522812 -331.967357 
L 210.977358 -323.370915 
L 219.431903 -306.996055 
L 227.886449 -285.156242 
L 236.340994 -258.869163 
L 244.79554 -229.922542 
L 253.250085 -203.718524 
L 261.704631 -185.963492 
L 270.159176 -176.97232 
L 278.613722 -172.678483 
L 287.068267 -170.463265 
L 295.522812 -169.83523 
L 303.977358 -170.796042 
L 312.431903 -172.39199 
L 320.886449 -174.204997 
L 329.340994 -176.290086 
L 337.79554 -178.264842 
L 346.250085 -179.686815 
L 354.704631 -179.717334 
L 363.159176 -177.737992 
L 371.613722 -174.65004 
L 380.068267 -171.717992 
L 388.522812 -168.881045 
L 396.977358 -165.897295 
L 405.431903 -163.428354 
L 413.886449 -161.884236 
L 422.340994 -160.715179 
L 430.79554 -159.289348 
L 439.250085 -157.232342 
L 447.704631 -154.523115 
L 456.159176 -151.423841 
L 464.613722 -147.91668 
L 473.068267 -144.758038 
L 481.522812 -141.959007 
L 489.977358 -138.889093 
L 498.431903 -135.65719 
L 506.886449 -132.661913 
L 515.340994 -130.497344 
L 523.79554 -129.085027 
L 532.250085 -127.657684 
L 540.704631 -125.439007 
L 549.159176 -123.055436 
L 557.613722 -121.145801 
L 566.068267 -119.435586 
L 574.522812 -117.876158 
L 582.977358 -116.348284 
L 591.431903 -114.979193 
L 599.886449 -114.125509 
L 608.340994 -113.838178 
L 616.79554 -113.521924 
L 625.250085 -112.810662 
L 633.704631 -111.972855 
L 642.159176 -110.911073 
L 650.613722 -109.614535 
L 659.068267 -108.209821 
L 667.522812 -107.001358 
L 675.977358 -105.907368 
L 684.431903 -104.806254 
L 692.886449 -104.152623 
L 692.886449 -104.152623 
L 692.886449 -55.352656 
L 684.431903 -55.352656 
L 675.977358 -55.352656 
L 667.522812 -55.352656 
L 659.068267 -55.352656 
L 650.613722 -55.352656 
L 642.159176 -55.352656 
L 633.704631 -55.352656 
L 625.250085 -55.352656 
L 616.79554 -55.352656 
L 608.340994 -55.352656 
L 599.886449 -55.352656 
L 591.431903 -55.352656 
L 582.977358 -55.352656 
L 574.522812 -55.352656 
L 566.068267 -55.352656 
L 557.613722 -55.352656 
L 549.159176 -55.352656 
L 540.704631 -55.352656 
L 532.250085 -55.352656 
L 523.79554 -55.352656 
L 515.340994 -55.352656 
L 506.886449 -55.352656 
L 498.431903 -55.352656 
L 489.977358 -55.352656 
L 481.522812 -55.352656 
L 473.068267 -55.352656 
L 464.613722 -55.352656 
L 456.159176 -55.352656 
L 447.704631 -55.352656 
L 439.250085 -55.352656 
L 430.79554 -55.352656 
L 422.340994 -55.352656 
L 413.886449 -55.352656 
L 405.431903 -55.352656 
L 396.977358 -55.352656 
L 388.522812 -55.352656 
L 380.068267 -55.352656 
L 371.613722 -55.352656 
L 363.159176 -55.352656 
L 354.704631 -55.352656 
L 346.250085 -55.352656 
L 337.79554 -55.352656 
L 329.340994 -55.352656 
L 320.886449 -55.352656 
L 312.431903 -55.352656 
L 303.977358 -55.352656 
L 295.522812 -55.352656 
L 287.068267 -55.352656 
L 278.613722 -55.352656 
L 270.159176 -55.352656 
L 261.704631 -55.352656 
L 253.250085 -55.352656 
L 244.79554 -55.352656 
L 236.340994 -55.352656 
L 227.886449 -55.352656 
L 219.431903 -55.352656 
L 210.977358 -55.352656 
L 202.522812 -55.352656 
L 194.068267 -55.352656 
L 185.613722 -55.352656 
L 177.159176 -55.352656 
L 168.704631 -55.352656 
L 160.250085 -55.352656 
L 151.79554 -55.352656 
L 143.340994 -55.352656 
L 134.886449 -55.352656 
L 126.431903 -55.352656 
L 117.977358 -55.352656 
L 109.522812 -55.352656 
L 101.068267 -55.352656 
L 92.613722 -55.352656 
L 84.159176 -55.352656 
z
" style="stroke: #1f77b4; stroke-opacity: 0.3"/>
    </defs>
    <g clip-path="url(#pa05ce2ebe0)">
     <use xlink:href="#m27f578c786" x="0" y="448.9275" style="fill: #1f77b4; fill-opacity: 0.3; stroke: #1f77b4; stroke-opacity: 0.3"/>
    </g>
   </g>
   <g id="FillBetweenPolyCollection_2">
    <defs>
     <path id="m66214a0005" d="M 84.159176 -249.008324 
L 84.159176 -249.008324 
L 92.613722 -236.058083 
L 101.068267 -228.431935 
L 109.522812 -222.743592 
L 117.977358 -218.666784 
L 126.431903 -216.6761 
L 134.886449 -215.524645 
L 143.340994 -216.797036 
L 151.79554 -225.468762 
L 160.250085 -240.472896 
L 168.704631 -259.922851 
L 177.159176 -280.65047 
L 185.613722 -298.026846 
L 194.068267 -308.940415 
L 202.522812 -311.894645 
L 210.977358 -306.522987 
L 219.431903 -293.694425 
L 227.886449 -274.247807 
L 236.340994 -249.152474 
L 244.79554 -219.606454 
L 253.250085 -190.951605 
L 261.704631 -171.342718 
L 270.159176 -161.887491 
L 278.613722 -157.903298 
L 287.068267 -157.189862 
L 295.522812 -158.219532 
L 303.977358 -159.400886 
L 312.431903 -160.361271 
L 320.886449 -162.388675 
L 329.340994 -165.10103 
L 337.79554 -166.339982 
L 346.250085 -165.855729 
L 354.704631 -164.103608 
L 363.159176 -161.648055 
L 371.613722 -159.929893 
L 380.068267 -158.9666 
L 388.522812 -157.442715 
L 396.977358 -154.940138 
L 405.431903 -152.037239 
L 413.886449 -149.41858 
L 422.340994 -146.650138 
L 430.79554 -144.480223 
L 439.250085 -143.475336 
L 447.704631 -141.979491 
L 456.159176 -138.752914 
L 464.613722 -136.045471 
L 473.068267 -133.790361 
L 481.522812 -131.065262 
L 489.977358 -127.71234 
L 498.431903 -123.862136 
L 506.886449 -119.972851 
L 515.340994 -116.395357 
L 523.79554 -112.633505 
L 532.250085 -110.013455 
L 540.704631 -108.912434 
L 549.159176 -107.179731 
L 557.613722 -104.777356 
L 566.068267 -101.718342 
L 574.522812 -99.636952 
L 582.977358 -99.002672 
L 591.431903 -98.364082 
L 599.886449 -96.983745 
L 608.340994 -94.967299 
L 616.79554 -93.546137 
L 625.250085 -93.714626 
L 633.704631 -94.354351 
L 642.159176 -93.07048 
L 650.613722 -89.686002 
L 659.068267 -87.412821 
L 667.522812 -87.001378 
L 675.977358 -86.896802 
L 684.431903 -86.069934 
L 692.886449 -84.400579 
L 692.886449 -84.400579 
L 692.886449 -55.352656 
L 684.431903 -55.352656 
L 675.977358 -55.352656 
L 667.522812 -55.352656 
L 659.068267 -55.352656 
L 650.613722 -55.352656 
L 642.159176 -55.352656 
L 633.704631 -55.352656 
L 625.250085 -55.352656 
L 616.79554 -55.352656 
L 608.340994 -55.352656 
L 599.886449 -55.352656 
L 591.431903 -55.352656 
L 582.977358 -55.352656 
L 574.522812 -55.352656 
L 566.068267 -55.352656 
L 557.613722 -55.352656 
L 549.159176 -55.352656 
L 540.704631 -55.352656 
L 532.250085 -55.352656 
L 523.79554 -55.352656 
L 515.340994 -55.352656 
L 506.886449 -55.352656 
L 498.431903 -55.352656 
L 489.977358 -55.352656 
L 481.522812 -55.352656 
L 473.068267 -55.352656 
L 464.613722 -55.352656 
L 456.159176 -55.352656 
L 447.704631 -55.352656 
L 439.250085 -55.352656 
L 430.79554 -55.352656 
L 422.340994 -55.352656 
L 413.886449 -55.352656 
L 405.431903 -55.352656 
L 396.977358 -55.352656 
L 388.522812 -55.352656 
L 380.068267 -55.352656 
L 371.613722 -55.352656 
L 363.159176 -55.352656 
L 354.704631 -55.352656 
L 346.250085 -55.352656 
L 337.79554 -55.352656 
L 329.340994 -55.352656 
L 320.886449 -55.352656 
L 312.431903 -55.352656 
L 303.977358 -55.352656 
L 295.522812 -55.352656 
L 287.068267 -55.352656 
L 278.613722 -55.352656 
L 270.159176 -55.352656 
L 261.704631 -55.352656 
L 253.250085 -55.352656 
L 244.79554 -55.352656 
L 236.340994 -55.352656 
L 227.886449 -55.352656 
L 219.431903 -55.352656 
L 210.977358 -55.352656 
L 202.522812 -55.352656 
L 194.068267 -55.352656 
L 185.613722 -55.352656 
L 177.159176 -55.352656 
L 168.704631 -55.352656 
L 160.250085 -55.352656 
L 151.79554 -55.352656 
L 143.340994 -55.352656 
L 134.886449 -55.352656 
L 126.431903 -55.352656 
L 117.977358 -55.352656 
L 109.522812 -55.352656 
L 101.068267 -55.352656 
L 92.613722 -55.352656 
L 84.159176 -55.352656 
z
" style="stroke: #d62728; stroke-opacity: 0.3"/>
    </defs>
    <g clip-path="url(#pa05ce2ebe0)">
     <use xlink:href="#m66214a0005" x="0" y="448.9275" style="fill: #d62728; fill-opacity: 0.3; stroke: #d62728; stroke-opacity: 0.3"/>
    </g>
   </g>
   <g id="FillBetweenPolyCollection_3">
    <defs>
     <path id="m6ac59208aa" d="M 84.159176 -259.625563 
L 84.159176 -259.625563 
L 92.613722 -248.665754 
L 101.068267 -240.835862 
L 109.522812 -235.098782 
L 117.977358 -230.021371 
L 126.431903 -226.475822 
L 134.886449 -225.515626 
L 143.340994 -227.414634 
L 151.79554 -233.843637 
L 160.250085 -245.965403 
L 168.704631 -261.633325 
L 177.159176 -278.596043 
L 185.613722 -293.966869 
L 194.068267 -302.265003 
L 202.522812 -300.679656 
L 210.977358 -291.403236 
L 219.431903 -278.748268 
L 227.886449 -262.89062 
L 236.340994 -242.180461 
L 244.79554 -219.860637 
L 253.250085 -200.438769 
L 261.704631 -187.461827 
L 270.159176 -180.684524 
L 278.613722 -177.312248 
L 287.068267 -175.197453 
L 295.522812 -174.078755 
L 303.977358 -175.032319 
L 312.431903 -177.466182 
L 320.886449 -180.208162 
L 329.340994 -182.309545 
L 337.79554 -183.337161 
L 346.250085 -182.986462 
L 354.704631 -181.259746 
L 363.159176 -179.254781 
L 371.613722 -176.471261 
L 380.068267 -172.468848 
L 388.522812 -168.784205 
L 396.977358 -167.198939 
L 405.431903 -165.773061 
L 413.886449 -164.083731 
L 422.340994 -162.829144 
L 430.79554 -162.542635 
L 439.250085 -162.945993 
L 447.704631 -162.589142 
L 456.159176 -160.276425 
L 464.613722 -156.292929 
L 473.068267 -151.328027 
L 481.522812 -147.383364 
L 489.977358 -145.451994 
L 498.431903 -144.140166 
L 506.886449 -142.444481 
L 515.340994 -139.836159 
L 523.79554 -136.821831 
L 532.250085 -134.731601 
L 540.704631 -133.418324 
L 549.159176 -132.754353 
L 557.613722 -132.059963 
L 566.068267 -131.124845 
L 574.522812 -130.981981 
L 582.977358 -131.669995 
L 591.431903 -131.173975 
L 599.886449 -129.695223 
L 608.340994 -127.796194 
L 616.79554 -126.054864 
L 625.250085 -124.972178 
L 633.704631 -124.208003 
L 642.159176 -122.752487 
L 650.613722 -121.008373 
L 659.068267 -119.480879 
L 667.522812 -118.638927 
L 675.977358 -118.907538 
L 684.431903 -119.736579 
L 692.886449 -119.403472 
L 692.886449 -119.403472 
L 692.886449 -55.352656 
L 684.431903 -55.352656 
L 675.977358 -55.352656 
L 667.522812 -55.352656 
L 659.068267 -55.352656 
L 650.613722 -55.352656 
L 642.159176 -55.352656 
L 633.704631 -55.352656 
L 625.250085 -55.352656 
L 616.79554 -55.352656 
L 608.340994 -55.352656 
L 599.886449 -55.352656 
L 591.431903 -55.352656 
L 582.977358 -55.352656 
L 574.522812 -55.352656 
L 566.068267 -55.352656 
L 557.613722 -55.352656 
L 549.159176 -55.352656 
L 540.704631 -55.352656 
L 532.250085 -55.352656 
L 523.79554 -55.352656 
L 515.340994 -55.352656 
L 506.886449 -55.352656 
L 498.431903 -55.352656 
L 489.977358 -55.352656 
L 481.522812 -55.352656 
L 473.068267 -55.352656 
L 464.613722 -55.352656 
L 456.159176 -55.352656 
L 447.704631 -55.352656 
L 439.250085 -55.352656 
L 430.79554 -55.352656 
L 422.340994 -55.352656 
L 413.886449 -55.352656 
L 405.431903 -55.352656 
L 396.977358 -55.352656 
L 388.522812 -55.352656 
L 380.068267 -55.352656 
L 371.613722 -55.352656 
L 363.159176 -55.352656 
L 354.704631 -55.352656 
L 346.250085 -55.352656 
L 337.79554 -55.352656 
L 329.340994 -55.352656 
L 320.886449 -55.352656 
L 312.431903 -55.352656 
L 303.977358 -55.352656 
L 295.522812 -55.352656 
L 287.068267 -55.352656 
L 278.613722 -55.352656 
L 270.159176 -55.352656 
L 261.704631 -55.352656 
L 253.250085 -55.352656 
L 244.79554 -55.352656 
L 236.340994 -55.352656 
L 227.886449 -55.352656 
L 219.431903 -55.352656 
L 210.977358 -55.352656 
L 202.522812 -55.352656 
L 194.068267 -55.352656 
L 185.613722 -55.352656 
L 177.159176 -55.352656 
L 168.704631 -55.352656 
L 160.250085 -55.352656 
L 151.79554 -55.352656 
L 143.340994 -55.352656 
L 134.886449 -55.352656 
L 126.431903 -55.352656 
L 117.977358 -55.352656 
L 109.522812 -55.352656 
L 101.068267 -55.352656 
L 92.613722 -55.352656 
L 84.159176 -55.352656 
z
" style="stroke: #e377c2; stroke-opacity: 0.3"/>
    </defs>
    <g clip-path="url(#pa05ce2ebe0)">
     <use xlink:href="#m6ac59208aa" x="0" y="448.9275" style="fill: #e377c2; fill-opacity: 0.3; stroke: #e377c2; stroke-opacity: 0.3"/>
    </g>
   </g>
   <g id="FillBetweenPolyCollection_4">
    <defs>
     <path id="m3ef77a79c9" d="M 84.159176 -265.680935 
L 84.159176 -265.680935 
L 92.613722 -255.729834 
L 101.068267 -248.062916 
L 109.522812 -243.58867 
L 117.977358 -243.68315 
L 126.431903 -245.759937 
L 134.886449 -247.335796 
L 143.340994 -251.638389 
L 151.79554 -264.467829 
L 160.250085 -293.774397 
L 168.704631 -337.723241 
L 177.159176 -378.247997 
L 185.613722 -403.11674 
L 194.068267 -408.152656 
L 202.522812 -394.593086 
L 210.977358 -368.358636 
L 219.431903 -338.20763 
L 227.886449 -306.02477 
L 236.340994 -271.862539 
L 244.79554 -239.671368 
L 253.250085 -214.586186 
L 261.704631 -198.856566 
L 270.159176 -191.313457 
L 278.613722 -188.77679 
L 287.068267 -188.490458 
L 295.522812 -190.256136 
L 303.977358 -193.744193 
L 312.431903 -195.784045 
L 320.886449 -195.810639 
L 329.340994 -197.45963 
L 337.79554 -200.346664 
L 346.250085 -201.29966 
L 354.704631 -199.563705 
L 363.159176 -197.254791 
L 371.613722 -195.64016 
L 380.068267 -194.267656 
L 388.522812 -191.693986 
L 396.977358 -187.762703 
L 405.431903 -184.171994 
L 413.886449 -182.363245 
L 422.340994 -181.449044 
L 430.79554 -181.521617 
L 439.250085 -179.509719 
L 447.704631 -174.875145 
L 456.159176 -170.987944 
L 464.613722 -168.345693 
L 473.068267 -165.119287 
L 481.522812 -162.132983 
L 489.977358 -159.076527 
L 498.431903 -154.913938 
L 506.886449 -150.375573 
L 515.340994 -147.760675 
L 523.79554 -146.158831 
L 532.250085 -143.450784 
L 540.704631 -139.035372 
L 549.159176 -134.918144 
L 557.613722 -133.052909 
L 566.068267 -132.054926 
L 574.522812 -130.536369 
L 582.977358 -129.382682 
L 591.431903 -127.026116 
L 599.886449 -123.407854 
L 608.340994 -122.01829 
L 616.79554 -123.481739 
L 625.250085 -124.288744 
L 633.704631 -123.702073 
L 642.159176 -122.783485 
L 650.613722 -122.031044 
L 659.068267 -120.178035 
L 667.522812 -117.128712 
L 675.977358 -115.642439 
L 684.431903 -115.617304 
L 692.886449 -114.968347 
L 692.886449 -114.968347 
L 692.886449 -55.352656 
L 684.431903 -55.352656 
L 675.977358 -55.352656 
L 667.522812 -55.352656 
L 659.068267 -55.352656 
L 650.613722 -55.352656 
L 642.159176 -55.352656 
L 633.704631 -55.352656 
L 625.250085 -55.352656 
L 616.79554 -55.352656 
L 608.340994 -55.352656 
L 599.886449 -55.352656 
L 591.431903 -55.352656 
L 582.977358 -55.352656 
L 574.522812 -55.352656 
L 566.068267 -55.352656 
L 557.613722 -55.352656 
L 549.159176 -55.352656 
L 540.704631 -55.352656 
L 532.250085 -55.352656 
L 523.79554 -55.352656 
L 515.340994 -55.352656 
L 506.886449 -55.352656 
L 498.431903 -55.352656 
L 489.977358 -55.352656 
L 481.522812 -55.352656 
L 473.068267 -55.352656 
L 464.613722 -55.352656 
L 456.159176 -55.352656 
L 447.704631 -55.352656 
L 439.250085 -55.352656 
L 430.79554 -55.352656 
L 422.340994 -55.352656 
L 413.886449 -55.352656 
L 405.431903 -55.352656 
L 396.977358 -55.352656 
L 388.522812 -55.352656 
L 380.068267 -55.352656 
L 371.613722 -55.352656 
L 363.159176 -55.352656 
L 354.704631 -55.352656 
L 346.250085 -55.352656 
L 337.79554 -55.352656 
L 329.340994 -55.352656 
L 320.886449 -55.352656 
L 312.431903 -55.352656 
L 303.977358 -55.352656 
L 295.522812 -55.352656 
L 287.068267 -55.352656 
L 278.613722 -55.352656 
L 270.159176 -55.352656 
L 261.704631 -55.352656 
L 253.250085 -55.352656 
L 244.79554 -55.352656 
L 236.340994 -55.352656 
L 227.886449 -55.352656 
L 219.431903 -55.352656 
L 210.977358 -55.352656 
L 202.522812 -55.352656 
L 194.068267 -55.352656 
L 185.613722 -55.352656 
L 177.159176 -55.352656 
L 168.704631 -55.352656 
L 160.250085 -55.352656 
L 151.79554 -55.352656 
L 143.340994 -55.352656 
L 134.886449 -55.352656 
L 126.431903 -55.352656 
L 117.977358 -55.352656 
L 109.522812 -55.352656 
L 101.068267 -55.352656 
L 92.613722 -55.352656 
L 84.159176 -55.352656 
z
" style="stroke: #17becf; stroke-opacity: 0.3"/>
    </defs>
    <g clip-path="url(#pa05ce2ebe0)">
     <use xlink:href="#m3ef77a79c9" x="0" y="448.9275" style="fill: #17becf; fill-opacity: 0.3; stroke: #17becf; stroke-opacity: 0.3"/>
    </g>
   </g>
   <g id="matplotlib.axis_1">
    <g id="xtick_1">
     <g id="line2d_1">
      <path d="M 101.068267 411.214844 
L 101.068267 23.134844 
" clip-path="url(#pa05ce2ebe0)" style="fill: none; stroke-dasharray: 2.96,1.28; stroke-dashoffset: 0; stroke: #dddddd; stroke-width: 0.8"/>
     </g>
     <g id="line2d_2">
      <defs>
       <path id="m3963bc6805" d="M 0 0 
L 0 3.5 
" style="stroke: #333333; stroke-width: 0.8"/>
      </defs>
      <g>
       <use xlink:href="#m3963bc6805" x="101.068267" y="411.214844" style="fill: #333333; stroke: #333333; stroke-width: 0.8"/>
      </g>
     </g>
     <g id="text_1">
      <!-- 5 -->
      <g style="fill: #333333" transform="translate(98.205142 425.053437) scale(0.09 -0.09)">
       <defs>
        <path id="DejaVuSerif-35" d="M 3219 4666 
L 3219 4153 
L 1081 4153 
L 1081 2816 
Q 1244 2928 1461 2984 
Q 1678 3041 1947 3041 
Q 2703 3041 3140 2622 
Q 3578 2203 3578 1478 
Q 3578 738 3136 323 
Q 2694 -91 1894 -91 
Q 1572 -91 1234 -12 
Q 897 66 544 225 
L 544 1131 
L 897 1131 
Q 925 688 1179 453 
Q 1434 219 1894 219 
Q 2388 219 2653 544 
Q 2919 869 2919 1478 
Q 2919 2084 2655 2407 
Q 2391 2731 1894 2731 
Q 1613 2731 1398 2631 
Q 1184 2531 1019 2322 
L 750 2322 
L 750 4666 
L 3219 4666 
z
" transform="scale(0.015625)"/>
       </defs>
       <use xlink:href="#DejaVuSerif-35"/>
      </g>
     </g>
    </g>
    <g id="xtick_2">
     <g id="line2d_3">
      <path d="M 185.613722 411.214844 
L 185.613722 23.134844 
" clip-path="url(#pa05ce2ebe0)" style="fill: none; stroke-dasharray: 2.96,1.28; stroke-dashoffset: 0; stroke: #dddddd; stroke-width: 0.8"/>
     </g>
     <g id="line2d_4">
      <g>
       <use xlink:href="#m3963bc6805" x="185.613722" y="411.214844" style="fill: #333333; stroke: #333333; stroke-width: 0.8"/>
      </g>
     </g>
     <g id="text_2">
      <!-- 10 -->
      <g style="fill: #333333" transform="translate(179.887472 425.053437) scale(0.09 -0.09)">
       <defs>
        <path id="DejaVuSerif-31" d="M 909 0 
L 909 331 
L 1722 331 
L 1722 4213 
L 781 3603 
L 781 4013 
L 1919 4750 
L 2350 4750 
L 2350 331 
L 3163 331 
L 3163 0 
L 909 0 
z
" transform="scale(0.015625)"/>
        <path id="DejaVuSerif-30" d="M 2034 219 
Q 2513 219 2750 744 
Q 2988 1269 2988 2328 
Q 2988 3391 2750 3916 
Q 2513 4441 2034 4441 
Q 1556 4441 1318 3916 
Q 1081 3391 1081 2328 
Q 1081 1269 1318 744 
Q 1556 219 2034 219 
z
M 2034 -91 
Q 1275 -91 848 546 
Q 422 1184 422 2328 
Q 422 3475 848 4112 
Q 1275 4750 2034 4750 
Q 2797 4750 3222 4112 
Q 3647 3475 3647 2328 
Q 3647 1184 3222 546 
Q 2797 -91 2034 -91 
z
" transform="scale(0.015625)"/>
       </defs>
       <use xlink:href="#DejaVuSerif-31"/>
       <use xlink:href="#DejaVuSerif-30" transform="translate(63.623047 0)"/>
      </g>
     </g>
    </g>
    <g id="xtick_3">
     <g id="line2d_5">
      <path d="M 270.159176 411.214844 
L 270.159176 23.134844 
" clip-path="url(#pa05ce2ebe0)" style="fill: none; stroke-dasharray: 2.96,1.28; stroke-dashoffset: 0; stroke: #dddddd; stroke-width: 0.8"/>
     </g>
     <g id="line2d_6">
      <g>
       <use xlink:href="#m3963bc6805" x="270.159176" y="411.214844" style="fill: #333333; stroke: #333333; stroke-width: 0.8"/>
      </g>
     </g>
     <g id="text_3">
      <!-- 15 -->
      <g style="fill: #333333" transform="translate(264.432926 425.053437) scale(0.09 -0.09)">
       <use xlink:href="#DejaVuSerif-31"/>
       <use xlink:href="#DejaVuSerif-35" transform="translate(63.623047 0)"/>
      </g>
     </g>
    </g>
    <g id="xtick_4">
     <g id="line2d_7">
      <path d="M 354.704631 411.214844 
L 354.704631 23.134844 
" clip-path="url(#pa05ce2ebe0)" style="fill: none; stroke-dasharray: 2.96,1.28; stroke-dashoffset: 0; stroke: #dddddd; stroke-width: 0.8"/>
     </g>
     <g id="line2d_8">
      <g>
       <use xlink:href="#m3963bc6805" x="354.704631" y="411.214844" style="fill: #333333; stroke: #333333; stroke-width: 0.8"/>
      </g>
     </g>
     <g id="text_4">
      <!-- 20 -->
      <g style="fill: #333333" transform="translate(348.978381 425.053437) scale(0.09 -0.09)">
       <defs>
        <path id="DejaVuSerif-32" d="M 819 3553 
L 469 3553 
L 469 4384 
Q 803 4563 1142 4656 
Q 1481 4750 1806 4750 
Q 2534 4750 2956 4397 
Q 3378 4044 3378 3438 
Q 3378 2753 2422 1800 
Q 2347 1728 2309 1691 
L 1131 513 
L 3078 513 
L 3078 1088 
L 3444 1088 
L 3444 0 
L 434 0 
L 434 341 
L 1850 1753 
Q 2319 2222 2519 2614 
Q 2719 3006 2719 3438 
Q 2719 3909 2473 4175 
Q 2228 4441 1797 4441 
Q 1350 4441 1106 4219 
Q 863 3997 819 3553 
z
" transform="scale(0.015625)"/>
       </defs>
       <use xlink:href="#DejaVuSerif-32"/>
       <use xlink:href="#DejaVuSerif-30" transform="translate(63.623047 0)"/>
      </g>
     </g>
    </g>
    <g id="xtick_5">
     <g id="line2d_9">
      <path d="M 439.250085 411.214844 
L 439.250085 23.134844 
" clip-path="url(#pa05ce2ebe0)" style="fill: none; stroke-dasharray: 2.96,1.28; stroke-dashoffset: 0; stroke: #dddddd; stroke-width: 0.8"/>
     </g>
     <g id="line2d_10">
      <g>
       <use xlink:href="#m3963bc6805" x="439.250085" y="411.214844" style="fill: #333333; stroke: #333333; stroke-width: 0.8"/>
      </g>
     </g>
     <g id="text_5">
      <!-- 25 -->
      <g style="fill: #333333" transform="translate(433.523835 425.053437) scale(0.09 -0.09)">
       <use xlink:href="#DejaVuSerif-32"/>
       <use xlink:href="#DejaVuSerif-35" transform="translate(63.623047 0)"/>
      </g>
     </g>
    </g>
    <g id="xtick_6">
     <g id="line2d_11">
      <path d="M 523.79554 411.214844 
L 523.79554 23.134844 
" clip-path="url(#pa05ce2ebe0)" style="fill: none; stroke-dasharray: 2.96,1.28; stroke-dashoffset: 0; stroke: #dddddd; stroke-width: 0.8"/>
     </g>
     <g id="line2d_12">
      <g>
       <use xlink:href="#m3963bc6805" x="523.79554" y="411.214844" style="fill: #333333; stroke: #333333; stroke-width: 0.8"/>
      </g>
     </g>
     <g id="text_6">
      <!-- 30 -->
      <g style="fill: #333333" transform="translate(518.06929 425.053437) scale(0.09 -0.09)">
       <defs>
        <path id="DejaVuSerif-33" d="M 622 4469 
Q 988 4606 1323 4678 
Q 1659 4750 1953 4750 
Q 2638 4750 3022 4454 
Q 3406 4159 3406 3634 
Q 3406 3213 3140 2930 
Q 2875 2647 2388 2547 
Q 2963 2466 3280 2130 
Q 3597 1794 3597 1259 
Q 3597 606 3158 257 
Q 2719 -91 1894 -91 
Q 1528 -91 1179 -12 
Q 831 66 488 225 
L 488 1131 
L 838 1131 
Q 869 681 1141 450 
Q 1413 219 1906 219 
Q 2384 219 2661 495 
Q 2938 772 2938 1253 
Q 2938 1803 2653 2086 
Q 2369 2369 1819 2369 
L 1522 2369 
L 1522 2688 
L 1678 2688 
Q 2225 2688 2498 2914 
Q 2772 3141 2772 3597 
Q 2772 4006 2547 4223 
Q 2322 4441 1900 4441 
Q 1478 4441 1245 4241 
Q 1013 4041 972 3647 
L 622 3647 
L 622 4469 
z
" transform="scale(0.015625)"/>
       </defs>
       <use xlink:href="#DejaVuSerif-33"/>
       <use xlink:href="#DejaVuSerif-30" transform="translate(63.623047 0)"/>
      </g>
     </g>
    </g>
    <g id="xtick_7">
     <g id="line2d_13">
      <path d="M 608.340994 411.214844 
L 608.340994 23.134844 
" clip-path="url(#pa05ce2ebe0)" style="fill: none; stroke-dasharray: 2.96,1.28; stroke-dashoffset: 0; stroke: #dddddd; stroke-width: 0.8"/>
     </g>
     <g id="line2d_14">
      <g>
       <use xlink:href="#m3963bc6805" x="608.340994" y="411.214844" style="fill: #333333; stroke: #333333; stroke-width: 0.8"/>
      </g>
     </g>
     <g id="text_7">
      <!-- 35 -->
      <g style="fill: #333333" transform="translate(602.614744 425.053437) scale(0.09 -0.09)">
       <use xlink:href="#DejaVuSerif-33"/>
       <use xlink:href="#DejaVuSerif-35" transform="translate(63.623047 0)"/>
      </g>
     </g>
    </g>
    <g id="xtick_8">
     <g id="line2d_15">
      <path d="M 692.886449 411.214844 
L 692.886449 23.134844 
" clip-path="url(#pa05ce2ebe0)" style="fill: none; stroke-dasharray: 2.96,1.28; stroke-dashoffset: 0; stroke: #dddddd; stroke-width: 0.8"/>
     </g>
     <g id="line2d_16">
      <g>
       <use xlink:href="#m3963bc6805" x="692.886449" y="411.214844" style="fill: #333333; stroke: #333333; stroke-width: 0.8"/>
      </g>
     </g>
     <g id="text_8">
      <!-- 40 -->
      <g style="fill: #333333" transform="translate(687.160199 425.053437) scale(0.09 -0.09)">
       <defs>
        <path id="DejaVuSerif-34" d="M 2234 1581 
L 2234 4063 
L 641 1581 
L 2234 1581 
z
M 3609 0 
L 1484 0 
L 1484 331 
L 2234 331 
L 2234 1247 
L 197 1247 
L 197 1588 
L 2241 4750 
L 2859 4750 
L 2859 1581 
L 3750 1581 
L 3750 1247 
L 2859 1247 
L 2859 331 
L 3609 331 
L 3609 0 
z
" transform="scale(0.015625)"/>
       </defs>
       <use xlink:href="#DejaVuSerif-34"/>
       <use xlink:href="#DejaVuSerif-30" transform="translate(63.623047 0)"/>
      </g>
     </g>
    </g>
    <g id="text_9">
     <!-- Frequency (Hz) -->
     <g transform="translate(345.040156 439.283437) scale(0.11 -0.11)">
      <defs>
       <path id="DejaVuSerif-46" d="M 353 0 
L 353 331 
L 947 331 
L 947 4331 
L 353 4331 
L 353 4666 
L 4172 4666 
L 4172 3628 
L 3788 3628 
L 3788 4281 
L 1581 4281 
L 1581 2719 
L 3175 2719 
L 3175 3303 
L 3559 3303 
L 3559 1753 
L 3175 1753 
L 3175 2338 
L 1581 2338 
L 1581 331 
L 2328 331 
L 2328 0 
L 353 0 
z
" transform="scale(0.015625)"/>
       <path id="DejaVuSerif-72" d="M 3059 3328 
L 3059 2497 
L 2728 2497 
Q 2713 2744 2591 2866 
Q 2469 2988 2234 2988 
Q 1809 2988 1582 2694 
Q 1356 2400 1356 1850 
L 1356 331 
L 2022 331 
L 2022 0 
L 263 0 
L 263 331 
L 781 331 
L 781 2994 
L 231 2994 
L 231 3322 
L 1356 3322 
L 1356 2731 
Q 1525 3078 1790 3245 
Q 2056 3413 2438 3413 
Q 2578 3413 2733 3391 
Q 2888 3369 3059 3328 
z
" transform="scale(0.015625)"/>
       <path id="DejaVuSerif-65" d="M 3469 1600 
L 991 1600 
L 991 1575 
Q 991 903 1244 561 
Q 1497 219 1991 219 
Q 2369 219 2611 417 
Q 2853 616 2950 1006 
L 3413 1006 
Q 3275 459 2904 184 
Q 2534 -91 1931 -91 
Q 1203 -91 761 389 
Q 319 869 319 1663 
Q 319 2450 753 2931 
Q 1188 3413 1894 3413 
Q 2647 3413 3050 2948 
Q 3453 2484 3469 1600 
z
M 2791 1931 
Q 2772 2513 2545 2808 
Q 2319 3103 1894 3103 
Q 1497 3103 1269 2806 
Q 1041 2509 991 1931 
L 2791 1931 
z
" transform="scale(0.015625)"/>
       <path id="DejaVuSerif-71" d="M 3359 2988 
L 3359 -997 
L 3909 -997 
L 3909 -1331 
L 2241 -1331 
L 2241 -997 
L 2784 -997 
L 2784 519 
Q 2616 206 2355 57 
Q 2094 -91 1709 -91 
Q 1097 -91 708 395 
Q 319 881 319 1663 
Q 319 2444 706 2928 
Q 1094 3413 1709 3413 
Q 2094 3413 2355 3264 
Q 2616 3116 2784 2803 
L 2784 3322 
L 3909 3322 
L 3909 2988 
L 3359 2988 
z
M 2784 1825 
Q 2784 2422 2554 2737 
Q 2325 3053 1888 3053 
Q 1444 3053 1217 2703 
Q 991 2353 991 1663 
Q 991 975 1217 622 
Q 1444 269 1888 269 
Q 2325 269 2554 583 
Q 2784 897 2784 1497 
L 2784 1825 
z
" transform="scale(0.015625)"/>
       <path id="DejaVuSerif-75" d="M 2266 3322 
L 3341 3322 
L 3341 331 
L 3884 331 
L 3884 0 
L 2766 0 
L 2766 588 
Q 2606 256 2353 82 
Q 2100 -91 1766 -91 
Q 1213 -91 952 223 
Q 691 538 691 1209 
L 691 2988 
L 172 2988 
L 172 3322 
L 1269 3322 
L 1269 1388 
Q 1269 781 1417 556 
Q 1566 331 1947 331 
Q 2347 331 2556 625 
Q 2766 919 2766 1478 
L 2766 2988 
L 2266 2988 
L 2266 3322 
z
" transform="scale(0.015625)"/>
       <path id="DejaVuSerif-6e" d="M 263 0 
L 263 331 
L 781 331 
L 781 2988 
L 231 2988 
L 231 3322 
L 1356 3322 
L 1356 2731 
Q 1516 3069 1770 3241 
Q 2025 3413 2363 3413 
Q 2913 3413 3172 3097 
Q 3431 2781 3431 2113 
L 3431 331 
L 3944 331 
L 3944 0 
L 2356 0 
L 2356 331 
L 2853 331 
L 2853 1931 
Q 2853 2541 2703 2767 
Q 2553 2994 2175 2994 
Q 1775 2994 1565 2701 
Q 1356 2409 1356 1850 
L 1356 331 
L 1856 331 
L 1856 0 
L 263 0 
z
" transform="scale(0.015625)"/>
       <path id="DejaVuSerif-63" d="M 3291 997 
Q 3169 466 2822 187 
Q 2475 -91 1925 -91 
Q 1200 -91 759 389 
Q 319 869 319 1663 
Q 319 2459 759 2936 
Q 1200 3413 1925 3413 
Q 2241 3413 2553 3339 
Q 2866 3266 3181 3116 
L 3181 2266 
L 2847 2266 
Q 2781 2703 2561 2903 
Q 2341 3103 1931 3103 
Q 1466 3103 1228 2742 
Q 991 2381 991 1663 
Q 991 944 1227 581 
Q 1463 219 1931 219 
Q 2303 219 2525 412 
Q 2747 606 2828 997 
L 3291 997 
z
" transform="scale(0.015625)"/>
       <path id="DejaVuSerif-79" d="M 1381 -609 
L 1600 -56 
L 359 2988 
L -19 2988 
L -19 3322 
L 1509 3322 
L 1509 2988 
L 978 2988 
L 1913 703 
L 2847 2988 
L 2350 2988 
L 2350 3322 
L 3597 3322 
L 3597 2988 
L 3225 2988 
L 1703 -750 
Q 1547 -1138 1356 -1280 
Q 1166 -1422 819 -1422 
Q 672 -1422 517 -1397 
Q 363 -1372 206 -1325 
L 206 -691 
L 500 -691 
Q 519 -903 608 -995 
Q 697 -1088 884 -1088 
Q 1056 -1088 1161 -992 
Q 1266 -897 1381 -609 
z
" transform="scale(0.015625)"/>
       <path id="DejaVuSerif-20" transform="scale(0.015625)"/>
       <path id="DejaVuSerif-28" d="M 2041 -997 
Q 1281 -656 893 83 
Q 506 822 506 1931 
Q 506 3044 893 3783 
Q 1281 4522 2041 4863 
L 2041 4556 
Q 1559 4225 1350 3623 
Q 1141 3022 1141 1931 
Q 1141 844 1350 242 
Q 1559 -359 2041 -691 
L 2041 -997 
z
" transform="scale(0.015625)"/>
       <path id="DejaVuSerif-48" d="M 353 0 
L 353 331 
L 947 331 
L 947 4331 
L 353 4331 
L 353 4666 
L 2175 4666 
L 2175 4331 
L 1581 4331 
L 1581 2719 
L 4000 2719 
L 4000 4331 
L 3406 4331 
L 3406 4666 
L 5228 4666 
L 5228 4331 
L 4634 4331 
L 4634 331 
L 5228 331 
L 5228 0 
L 3406 0 
L 3406 331 
L 4000 331 
L 4000 2338 
L 1581 2338 
L 1581 331 
L 2175 331 
L 2175 0 
L 353 0 
z
" transform="scale(0.015625)"/>
       <path id="DejaVuSerif-7a" d="M 256 0 
L 256 269 
L 2338 2988 
L 691 2988 
L 691 2413 
L 359 2413 
L 359 3322 
L 3078 3322 
L 3078 3053 
L 997 331 
L 2803 331 
L 2803 934 
L 3138 934 
L 3138 0 
L 256 0 
z
" transform="scale(0.015625)"/>
       <path id="DejaVuSerif-29" d="M 453 -997 
L 453 -691 
Q 934 -359 1145 242 
Q 1356 844 1356 1931 
Q 1356 3022 1145 3623 
Q 934 4225 453 4556 
L 453 4863 
Q 1216 4522 1603 3783 
Q 1991 3044 1991 1931 
Q 1991 822 1603 83 
Q 1216 -656 453 -997 
z
" transform="scale(0.015625)"/>
      </defs>
      <use xlink:href="#DejaVuSerif-46"/>
      <use xlink:href="#DejaVuSerif-72" transform="translate(69.384766 0)"/>
      <use xlink:href="#DejaVuSerif-65" transform="translate(117.1875 0)"/>
      <use xlink:href="#DejaVuSerif-71" transform="translate(176.367188 0)"/>
      <use xlink:href="#DejaVuSerif-75" transform="translate(240.380859 0)"/>
      <use xlink:href="#DejaVuSerif-65" transform="translate(304.785156 0)"/>
      <use xlink:href="#DejaVuSerif-6e" transform="translate(363.964844 0)"/>
      <use xlink:href="#DejaVuSerif-63" transform="translate(428.369141 0)"/>
      <use xlink:href="#DejaVuSerif-79" transform="translate(484.375 0)"/>
      <use xlink:href="#DejaVuSerif-20" transform="translate(540.869141 0)"/>
      <use xlink:href="#DejaVuSerif-28" transform="translate(572.65625 0)"/>
      <use xlink:href="#DejaVuSerif-48" transform="translate(611.669922 0)"/>
      <use xlink:href="#DejaVuSerif-7a" transform="translate(698.876953 0)"/>
      <use xlink:href="#DejaVuSerif-29" transform="translate(751.5625 0)"/>
     </g>
    </g>
   </g>
   <g id="matplotlib.axis_2">
    <g id="ytick_1">
     <g id="line2d_17">
      <path d="M 53.722813 370.886011 
L 723.322813 370.886011 
" clip-path="url(#pa05ce2ebe0)" style="fill: none; stroke-dasharray: 2.96,1.28; stroke-dashoffset: 0; stroke: #dddddd; stroke-width: 0.8"/>
     </g>
     <g id="line2d_18">
      <defs>
       <path id="m6446b92e45" d="M 0 0 
L -3.5 0 
" style="stroke: #333333; stroke-width: 0.8"/>
      </defs>
      <g>
       <use xlink:href="#m6446b92e45" x="53.722813" y="370.886011" style="fill: #333333; stroke: #333333; stroke-width: 0.8"/>
      </g>
     </g>
     <g id="text_10">
      <!-- −132 -->
      <g style="fill: #333333" transform="translate(22.002344 374.305307) scale(0.09 -0.09)">
       <defs>
        <path id="DejaVuSerif-2212" d="M 678 2259 
L 4684 2259 
L 4684 1753 
L 678 1753 
L 678 2259 
z
" transform="scale(0.015625)"/>
       </defs>
       <use xlink:href="#DejaVuSerif-2212"/>
       <use xlink:href="#DejaVuSerif-31" transform="translate(83.789062 0)"/>
       <use xlink:href="#DejaVuSerif-33" transform="translate(147.412109 0)"/>
       <use xlink:href="#DejaVuSerif-32" transform="translate(211.035156 0)"/>
      </g>
     </g>
    </g>
    <g id="ytick_2">
     <g id="line2d_19">
      <path d="M 53.722813 326.777657 
L 723.322813 326.777657 
" clip-path="url(#pa05ce2ebe0)" style="fill: none; stroke-dasharray: 2.96,1.28; stroke-dashoffset: 0; stroke: #dddddd; stroke-width: 0.8"/>
     </g>
     <g id="line2d_20">
      <g>
       <use xlink:href="#m6446b92e45" x="53.722813" y="326.777657" style="fill: #333333; stroke: #333333; stroke-width: 0.8"/>
      </g>
     </g>
     <g id="text_11">
      <!-- −130 -->
      <g style="fill: #333333" transform="translate(22.002344 330.196954) scale(0.09 -0.09)">
       <use xlink:href="#DejaVuSerif-2212"/>
       <use xlink:href="#DejaVuSerif-31" transform="translate(83.789062 0)"/>
       <use xlink:href="#DejaVuSerif-33" transform="translate(147.412109 0)"/>
       <use xlink:href="#DejaVuSerif-30" transform="translate(211.035156 0)"/>
      </g>
     </g>
    </g>
    <g id="ytick_3">
     <g id="line2d_21">
      <path d="M 53.722813 282.669303 
L 723.322813 282.669303 
" clip-path="url(#pa05ce2ebe0)" style="fill: none; stroke-dasharray: 2.96,1.28; stroke-dashoffset: 0; stroke: #dddddd; stroke-width: 0.8"/>
     </g>
     <g id="line2d_22">
      <g>
       <use xlink:href="#m6446b92e45" x="53.722813" y="282.669303" style="fill: #333333; stroke: #333333; stroke-width: 0.8"/>
      </g>
     </g>
     <g id="text_12">
      <!-- −128 -->
      <g style="fill: #333333" transform="translate(22.002344 286.0886) scale(0.09 -0.09)">
       <defs>
        <path id="DejaVuSerif-38" d="M 2981 1275 
Q 2981 1775 2732 2051 
Q 2484 2328 2034 2328 
Q 1584 2328 1336 2051 
Q 1088 1775 1088 1275 
Q 1088 772 1336 495 
Q 1584 219 2034 219 
Q 2484 219 2732 495 
Q 2981 772 2981 1275 
z
M 2853 3541 
Q 2853 3966 2637 4203 
Q 2422 4441 2034 4441 
Q 1650 4441 1433 4203 
Q 1216 3966 1216 3541 
Q 1216 3113 1433 2875 
Q 1650 2638 2034 2638 
Q 2422 2638 2637 2875 
Q 2853 3113 2853 3541 
z
M 2516 2484 
Q 3047 2413 3344 2092 
Q 3641 1772 3641 1275 
Q 3641 619 3225 264 
Q 2809 -91 2034 -91 
Q 1263 -91 845 264 
Q 428 619 428 1275 
Q 428 1772 725 2092 
Q 1022 2413 1556 2484 
Q 1084 2569 832 2842 
Q 581 3116 581 3541 
Q 581 4103 968 4426 
Q 1356 4750 2034 4750 
Q 2713 4750 3100 4426 
Q 3488 4103 3488 3541 
Q 3488 3116 3236 2842 
Q 2984 2569 2516 2484 
z
" transform="scale(0.015625)"/>
       </defs>
       <use xlink:href="#DejaVuSerif-2212"/>
       <use xlink:href="#DejaVuSerif-31" transform="translate(83.789062 0)"/>
       <use xlink:href="#DejaVuSerif-32" transform="translate(147.412109 0)"/>
       <use xlink:href="#DejaVuSerif-38" transform="translate(211.035156 0)"/>
      </g>
     </g>
    </g>
    <g id="ytick_4">
     <g id="line2d_23">
      <path d="M 53.722813 238.56095 
L 723.322813 238.56095 
" clip-path="url(#pa05ce2ebe0)" style="fill: none; stroke-dasharray: 2.96,1.28; stroke-dashoffset: 0; stroke: #dddddd; stroke-width: 0.8"/>
     </g>
     <g id="line2d_24">
      <g>
       <use xlink:href="#m6446b92e45" x="53.722813" y="238.56095" style="fill: #333333; stroke: #333333; stroke-width: 0.8"/>
      </g>
     </g>
     <g id="text_13">
      <!-- −126 -->
      <g style="fill: #333333" transform="translate(22.002344 241.980246) scale(0.09 -0.09)">
       <defs>
        <path id="DejaVuSerif-36" d="M 2094 219 
Q 2534 219 2771 542 
Q 3009 866 3009 1472 
Q 3009 2078 2771 2401 
Q 2534 2725 2094 2725 
Q 1647 2725 1412 2412 
Q 1178 2100 1178 1509 
Q 1178 888 1415 553 
Q 1653 219 2094 219 
z
M 1075 2569 
Q 1288 2803 1556 2918 
Q 1825 3034 2163 3034 
Q 2859 3034 3264 2615 
Q 3669 2197 3669 1472 
Q 3669 763 3233 336 
Q 2797 -91 2069 -91 
Q 1278 -91 853 498 
Q 428 1088 428 2181 
Q 428 3406 931 4078 
Q 1434 4750 2350 4750 
Q 2597 4750 2869 4703 
Q 3141 4656 3425 4563 
L 3425 3794 
L 3072 3794 
Q 3034 4109 2831 4275 
Q 2628 4441 2284 4441 
Q 1678 4441 1381 3981 
Q 1084 3522 1075 2569 
z
" transform="scale(0.015625)"/>
       </defs>
       <use xlink:href="#DejaVuSerif-2212"/>
       <use xlink:href="#DejaVuSerif-31" transform="translate(83.789062 0)"/>
       <use xlink:href="#DejaVuSerif-32" transform="translate(147.412109 0)"/>
       <use xlink:href="#DejaVuSerif-36" transform="translate(211.035156 0)"/>
      </g>
     </g>
    </g>
    <g id="ytick_5">
     <g id="line2d_25">
      <path d="M 53.722813 194.452596 
L 723.322813 194.452596 
" clip-path="url(#pa05ce2ebe0)" style="fill: none; stroke-dasharray: 2.96,1.28; stroke-dashoffset: 0; stroke: #dddddd; stroke-width: 0.8"/>
     </g>
     <g id="line2d_26">
      <g>
       <use xlink:href="#m6446b92e45" x="53.722813" y="194.452596" style="fill: #333333; stroke: #333333; stroke-width: 0.8"/>
      </g>
     </g>
     <g id="text_14">
      <!-- −124 -->
      <g style="fill: #333333" transform="translate(22.002344 197.871893) scale(0.09 -0.09)">
       <use xlink:href="#DejaVuSerif-2212"/>
       <use xlink:href="#DejaVuSerif-31" transform="translate(83.789062 0)"/>
       <use xlink:href="#DejaVuSerif-32" transform="translate(147.412109 0)"/>
       <use xlink:href="#DejaVuSerif-34" transform="translate(211.035156 0)"/>
      </g>
     </g>
    </g>
    <g id="ytick_6">
     <g id="line2d_27">
      <path d="M 53.722813 150.344242 
L 723.322813 150.344242 
" clip-path="url(#pa05ce2ebe0)" style="fill: none; stroke-dasharray: 2.96,1.28; stroke-dashoffset: 0; stroke: #dddddd; stroke-width: 0.8"/>
     </g>
     <g id="line2d_28">
      <g>
       <use xlink:href="#m6446b92e45" x="53.722813" y="150.344242" style="fill: #333333; stroke: #333333; stroke-width: 0.8"/>
      </g>
     </g>
     <g id="text_15">
      <!-- −122 -->
      <g style="fill: #333333" transform="translate(22.002344 153.763539) scale(0.09 -0.09)">
       <use xlink:href="#DejaVuSerif-2212"/>
       <use xlink:href="#DejaVuSerif-31" transform="translate(83.789062 0)"/>
       <use xlink:href="#DejaVuSerif-32" transform="translate(147.412109 0)"/>
       <use xlink:href="#DejaVuSerif-32" transform="translate(211.035156 0)"/>
      </g>
     </g>
    </g>
    <g id="ytick_7">
     <g id="line2d_29">
      <path d="M 53.722813 106.235889 
L 723.322813 106.235889 
" clip-path="url(#pa05ce2ebe0)" style="fill: none; stroke-dasharray: 2.96,1.28; stroke-dashoffset: 0; stroke: #dddddd; stroke-width: 0.8"/>
     </g>
     <g id="line2d_30">
      <g>
       <use xlink:href="#m6446b92e45" x="53.722813" y="106.235889" style="fill: #333333; stroke: #333333; stroke-width: 0.8"/>
      </g>
     </g>
     <g id="text_16">
      <!-- −120 -->
      <g style="fill: #333333" transform="translate(22.002344 109.655185) scale(0.09 -0.09)">
       <use xlink:href="#DejaVuSerif-2212"/>
       <use xlink:href="#DejaVuSerif-31" transform="translate(83.789062 0)"/>
       <use xlink:href="#DejaVuSerif-32" transform="translate(147.412109 0)"/>
       <use xlink:href="#DejaVuSerif-30" transform="translate(211.035156 0)"/>
      </g>
     </g>
    </g>
    <g id="ytick_8">
     <g id="line2d_31">
      <path d="M 53.722813 62.127535 
L 723.322813 62.127535 
" clip-path="url(#pa05ce2ebe0)" style="fill: none; stroke-dasharray: 2.96,1.28; stroke-dashoffset: 0; stroke: #dddddd; stroke-width: 0.8"/>
     </g>
     <g id="line2d_32">
      <g>
       <use xlink:href="#m6446b92e45" x="53.722813" y="62.127535" style="fill: #333333; stroke: #333333; stroke-width: 0.8"/>
      </g>
     </g>
     <g id="text_17">
      <!-- −118 -->
      <g style="fill: #333333" transform="translate(22.002344 65.546832) scale(0.09 -0.09)">
       <use xlink:href="#DejaVuSerif-2212"/>
       <use xlink:href="#DejaVuSerif-31" transform="translate(83.789062 0)"/>
       <use xlink:href="#DejaVuSerif-31" transform="translate(147.412109 0)"/>
       <use xlink:href="#DejaVuSerif-38" transform="translate(211.035156 0)"/>
      </g>
     </g>
    </g>
    <g id="text_18">
     <!-- Power Spectral Density (dB) -->
     <g transform="translate(15.558281 296.263984) rotate(-90) scale(0.11 -0.11)">
      <defs>
       <path id="DejaVuSerif-50" d="M 1581 2375 
L 2406 2375 
Q 2872 2375 3115 2626 
Q 3359 2878 3359 3353 
Q 3359 3831 3115 4081 
Q 2872 4331 2406 4331 
L 1581 4331 
L 1581 2375 
z
M 353 0 
L 353 331 
L 947 331 
L 947 4331 
L 353 4331 
L 353 4666 
L 2559 4666 
Q 3259 4666 3668 4311 
Q 4078 3956 4078 3353 
Q 4078 2753 3668 2397 
Q 3259 2041 2559 2041 
L 1581 2041 
L 1581 331 
L 2303 331 
L 2303 0 
L 353 0 
z
" transform="scale(0.015625)"/>
       <path id="DejaVuSerif-6f" d="M 1925 219 
Q 2388 219 2623 584 
Q 2859 950 2859 1663 
Q 2859 2375 2623 2739 
Q 2388 3103 1925 3103 
Q 1463 3103 1227 2739 
Q 991 2375 991 1663 
Q 991 950 1228 584 
Q 1466 219 1925 219 
z
M 1925 -91 
Q 1200 -91 759 389 
Q 319 869 319 1663 
Q 319 2456 758 2934 
Q 1197 3413 1925 3413 
Q 2653 3413 3092 2934 
Q 3531 2456 3531 1663 
Q 3531 869 3092 389 
Q 2653 -91 1925 -91 
z
" transform="scale(0.015625)"/>
       <path id="DejaVuSerif-77" d="M 3072 3322 
L 3922 728 
L 4672 2988 
L 4191 2988 
L 4191 3322 
L 5394 3322 
L 5394 2988 
L 5025 2988 
L 4038 0 
L 3559 0 
L 2741 2484 
L 1919 0 
L 1459 0 
L 475 2988 
L 103 2988 
L 103 3322 
L 1606 3322 
L 1606 2988 
L 1069 2988 
L 1813 728 
L 2669 3322 
L 3072 3322 
z
" transform="scale(0.015625)"/>
       <path id="DejaVuSerif-53" d="M 594 225 
L 594 1288 
L 953 1284 
Q 969 753 1261 498 
Q 1553 244 2150 244 
Q 2706 244 2998 464 
Q 3291 684 3291 1106 
Q 3291 1444 3114 1625 
Q 2938 1806 2369 1978 
L 1753 2163 
Q 1084 2366 811 2669 
Q 538 2972 538 3500 
Q 538 4094 959 4422 
Q 1381 4750 2144 4750 
Q 2469 4750 2856 4679 
Q 3244 4609 3681 4475 
L 3681 3481 
L 3328 3481 
Q 3275 3975 2998 4195 
Q 2722 4416 2156 4416 
Q 1663 4416 1405 4214 
Q 1147 4013 1147 3628 
Q 1147 3294 1340 3103 
Q 1534 2913 2163 2725 
L 2741 2553 
Q 3375 2363 3645 2067 
Q 3916 1772 3916 1275 
Q 3916 597 3481 253 
Q 3047 -91 2188 -91 
Q 1803 -91 1404 -12 
Q 1006 66 594 225 
z
" transform="scale(0.015625)"/>
       <path id="DejaVuSerif-70" d="M 1313 1825 
L 1313 1497 
Q 1313 897 1542 583 
Q 1772 269 2209 269 
Q 2650 269 2876 622 
Q 3103 975 3103 1663 
Q 3103 2353 2876 2703 
Q 2650 3053 2209 3053 
Q 1772 3053 1542 2737 
Q 1313 2422 1313 1825 
z
M 738 2988 
L 184 2988 
L 184 3322 
L 1313 3322 
L 1313 2803 
Q 1481 3116 1742 3264 
Q 2003 3413 2388 3413 
Q 3000 3413 3387 2928 
Q 3775 2444 3775 1663 
Q 3775 881 3387 395 
Q 3000 -91 2388 -91 
Q 2003 -91 1742 57 
Q 1481 206 1313 519 
L 1313 -997 
L 1856 -997 
L 1856 -1331 
L 184 -1331 
L 184 -997 
L 738 -997 
L 738 2988 
z
" transform="scale(0.015625)"/>
       <path id="DejaVuSerif-74" d="M 691 2988 
L 184 2988 
L 184 3322 
L 691 3322 
L 691 4353 
L 1269 4353 
L 1269 3322 
L 2350 3322 
L 2350 2988 
L 1269 2988 
L 1269 878 
Q 1269 456 1350 337 
Q 1431 219 1650 219 
Q 1875 219 1978 351 
Q 2081 484 2088 781 
L 2522 781 
Q 2497 328 2275 118 
Q 2053 -91 1600 -91 
Q 1103 -91 897 129 
Q 691 350 691 878 
L 691 2988 
z
" transform="scale(0.015625)"/>
       <path id="DejaVuSerif-61" d="M 2547 1044 
L 2547 1747 
L 1806 1747 
Q 1378 1747 1168 1562 
Q 959 1378 959 997 
Q 959 650 1171 447 
Q 1384 244 1747 244 
Q 2106 244 2326 466 
Q 2547 688 2547 1044 
z
M 3122 2075 
L 3122 331 
L 3634 331 
L 3634 0 
L 2547 0 
L 2547 359 
Q 2356 128 2106 18 
Q 1856 -91 1522 -91 
Q 969 -91 644 203 
Q 319 497 319 997 
Q 319 1513 691 1797 
Q 1063 2081 1741 2081 
L 2547 2081 
L 2547 2309 
Q 2547 2688 2317 2895 
Q 2088 3103 1672 3103 
Q 1328 3103 1125 2947 
Q 922 2791 872 2484 
L 575 2484 
L 575 3156 
Q 875 3284 1158 3348 
Q 1441 3413 1709 3413 
Q 2400 3413 2761 3070 
Q 3122 2728 3122 2075 
z
" transform="scale(0.015625)"/>
       <path id="DejaVuSerif-6c" d="M 1313 331 
L 1856 331 
L 1856 0 
L 184 0 
L 184 331 
L 738 331 
L 738 4531 
L 184 4531 
L 184 4863 
L 1313 4863 
L 1313 331 
z
" transform="scale(0.015625)"/>
       <path id="DejaVuSerif-44" d="M 1581 331 
L 2163 331 
Q 3072 331 3558 850 
Q 4044 1369 4044 2338 
Q 4044 3306 3559 3818 
Q 3075 4331 2163 4331 
L 1581 4331 
L 1581 331 
z
M 353 0 
L 353 331 
L 947 331 
L 947 4331 
L 353 4331 
L 353 4666 
L 2209 4666 
Q 3416 4666 4089 4050 
Q 4763 3434 4763 2338 
Q 4763 1238 4088 619 
Q 3413 0 2209 0 
L 353 0 
z
" transform="scale(0.015625)"/>
       <path id="DejaVuSerif-73" d="M 359 184 
L 359 959 
L 691 959 
Q 703 588 923 403 
Q 1144 219 1575 219 
Q 1963 219 2166 364 
Q 2369 509 2369 788 
Q 2369 1006 2220 1140 
Q 2072 1275 1594 1428 
L 1178 1569 
Q 750 1706 558 1912 
Q 366 2119 366 2438 
Q 366 2894 700 3153 
Q 1034 3413 1625 3413 
Q 1888 3413 2178 3344 
Q 2469 3275 2778 3144 
L 2778 2419 
L 2447 2419 
Q 2434 2741 2221 2922 
Q 2009 3103 1644 3103 
Q 1281 3103 1095 2975 
Q 909 2847 909 2591 
Q 909 2381 1050 2254 
Q 1191 2128 1613 1997 
L 2069 1856 
Q 2541 1709 2748 1489 
Q 2956 1269 2956 922 
Q 2956 450 2595 179 
Q 2234 -91 1600 -91 
Q 1278 -91 972 -22 
Q 666 47 359 184 
z
" transform="scale(0.015625)"/>
       <path id="DejaVuSerif-69" d="M 622 4353 
Q 622 4497 726 4603 
Q 831 4709 978 4709 
Q 1122 4709 1226 4603 
Q 1331 4497 1331 4353 
Q 1331 4206 1228 4103 
Q 1125 4000 978 4000 
Q 831 4000 726 4103 
Q 622 4206 622 4353 
z
M 1356 331 
L 1900 331 
L 1900 0 
L 231 0 
L 231 331 
L 781 331 
L 781 2988 
L 231 2988 
L 231 3322 
L 1356 3322 
L 1356 331 
z
" transform="scale(0.015625)"/>
       <path id="DejaVuSerif-64" d="M 3359 331 
L 3909 331 
L 3909 0 
L 2784 0 
L 2784 519 
Q 2616 206 2355 57 
Q 2094 -91 1709 -91 
Q 1097 -91 708 395 
Q 319 881 319 1663 
Q 319 2444 706 2928 
Q 1094 3413 1709 3413 
Q 2094 3413 2355 3264 
Q 2616 3116 2784 2803 
L 2784 4531 
L 2241 4531 
L 2241 4863 
L 3359 4863 
L 3359 331 
z
M 2784 1497 
L 2784 1825 
Q 2784 2422 2554 2737 
Q 2325 3053 1888 3053 
Q 1444 3053 1217 2703 
Q 991 2353 991 1663 
Q 991 975 1217 622 
Q 1444 269 1888 269 
Q 2325 269 2554 583 
Q 2784 897 2784 1497 
z
" transform="scale(0.015625)"/>
       <path id="DejaVuSerif-42" d="M 1581 331 
L 2516 331 
Q 3078 331 3337 575 
Q 3597 819 3597 1350 
Q 3597 1878 3339 2120 
Q 3081 2363 2516 2363 
L 1581 2363 
L 1581 331 
z
M 1581 2694 
L 2375 2694 
Q 2888 2694 3123 2891 
Q 3359 3088 3359 3513 
Q 3359 3941 3123 4136 
Q 2888 4331 2375 4331 
L 1581 4331 
L 1581 2694 
z
M 353 0 
L 353 331 
L 947 331 
L 947 4331 
L 353 4331 
L 353 4666 
L 2656 4666 
Q 3363 4666 3720 4377 
Q 4078 4088 4078 3513 
Q 4078 3097 3829 2850 
Q 3581 2603 3103 2547 
Q 3697 2472 4005 2167 
Q 4313 1863 4313 1350 
Q 4313 656 3875 328 
Q 3438 0 2509 0 
L 353 0 
z
" transform="scale(0.015625)"/>
      </defs>
      <use xlink:href="#DejaVuSerif-50"/>
      <use xlink:href="#DejaVuSerif-6f" transform="translate(63.285156 0)"/>
      <use xlink:href="#DejaVuSerif-77" transform="translate(123.490234 0)"/>
      <use xlink:href="#DejaVuSerif-65" transform="translate(209.085938 0)"/>
      <use xlink:href="#DejaVuSerif-72" transform="translate(268.265625 0)"/>
      <use xlink:href="#DejaVuSerif-20" transform="translate(316.068359 0)"/>
      <use xlink:href="#DejaVuSerif-53" transform="translate(347.855469 0)"/>
      <use xlink:href="#DejaVuSerif-70" transform="translate(416.361328 0)"/>
      <use xlink:href="#DejaVuSerif-65" transform="translate(480.375 0)"/>
      <use xlink:href="#DejaVuSerif-63" transform="translate(539.554688 0)"/>
      <use xlink:href="#DejaVuSerif-74" transform="translate(595.560547 0)"/>
      <use xlink:href="#DejaVuSerif-72" transform="translate(635.746094 0)"/>
      <use xlink:href="#DejaVuSerif-61" transform="translate(683.548828 0)"/>
      <use xlink:href="#DejaVuSerif-6c" transform="translate(743.167969 0)"/>
      <use xlink:href="#DejaVuSerif-20" transform="translate(775.150391 0)"/>
      <use xlink:href="#DejaVuSerif-44" transform="translate(806.9375 0)"/>
      <use xlink:href="#DejaVuSerif-65" transform="translate(887.113281 0)"/>
      <use xlink:href="#DejaVuSerif-6e" transform="translate(946.292969 0)"/>
      <use xlink:href="#DejaVuSerif-73" transform="translate(1010.697266 0)"/>
      <use xlink:href="#DejaVuSerif-69" transform="translate(1062.015625 0)"/>
      <use xlink:href="#DejaVuSerif-74" transform="translate(1093.998047 0)"/>
      <use xlink:href="#DejaVuSerif-79" transform="translate(1134.183594 0)"/>
      <use xlink:href="#DejaVuSerif-20" transform="translate(1190.677734 0)"/>
      <use xlink:href="#DejaVuSerif-28" transform="translate(1222.464844 0)"/>
      <use xlink:href="#DejaVuSerif-64" transform="translate(1261.478516 0)"/>
      <use xlink:href="#DejaVuSerif-42" transform="translate(1325.492188 0)"/>
      <use xlink:href="#DejaVuSerif-29" transform="translate(1398.978516 0)"/>
     </g>
    </g>
   </g>
   <g id="line2d_33">
    <path d="M 84.159176 192.197907 
L 92.613722 203.060317 
L 101.068267 211.506698 
L 109.522812 217.417289 
L 117.977358 220.316612 
L 126.431903 220.918441 
L 134.886449 220.630678 
L 143.340994 219.475095 
L 151.79554 214.016627 
L 160.250085 199.898169 
L 168.704631 177.365082 
L 177.159176 152.484184 
L 185.613722 131.483405 
L 194.068267 118.754157 
L 202.522812 116.960143 
L 210.977358 125.556585 
L 219.431903 141.931445 
L 227.886449 163.771258 
L 236.340994 190.058337 
L 244.79554 219.004958 
L 253.250085 245.208976 
L 261.704631 262.964008 
L 270.159176 271.95518 
L 278.613722 276.249017 
L 287.068267 278.464235 
L 295.522812 279.09227 
L 303.977358 278.131458 
L 312.431903 276.53551 
L 320.886449 274.722503 
L 329.340994 272.637414 
L 337.79554 270.662658 
L 346.250085 269.240685 
L 354.704631 269.210166 
L 363.159176 271.189508 
L 371.613722 274.27746 
L 380.068267 277.209508 
L 388.522812 280.046455 
L 396.977358 283.030205 
L 405.431903 285.499146 
L 413.886449 287.043264 
L 422.340994 288.212321 
L 430.79554 289.638152 
L 439.250085 291.695158 
L 447.704631 294.404385 
L 456.159176 297.503659 
L 464.613722 301.01082 
L 473.068267 304.169462 
L 481.522812 306.968493 
L 489.977358 310.038407 
L 498.431903 313.27031 
L 506.886449 316.265587 
L 515.340994 318.430156 
L 523.79554 319.842473 
L 532.250085 321.269816 
L 540.704631 323.488493 
L 549.159176 325.872064 
L 557.613722 327.781699 
L 566.068267 329.491914 
L 574.522812 331.051342 
L 582.977358 332.579216 
L 591.431903 333.948307 
L 599.886449 334.801991 
L 608.340994 335.089322 
L 616.79554 335.405576 
L 625.250085 336.116838 
L 633.704631 336.954645 
L 642.159176 338.016427 
L 650.613722 339.312965 
L 659.068267 340.717679 
L 667.522812 341.926142 
L 675.977358 343.020132 
L 684.431903 344.121246 
L 692.886449 344.774877 
" clip-path="url(#pa05ce2ebe0)" style="fill: none; stroke: #1f77b4; stroke-width: 1.5; stroke-linecap: square"/>
   </g>
   <g id="line2d_34">
    <path d="M 84.159176 199.919176 
L 92.613722 212.869417 
L 101.068267 220.495565 
L 109.522812 226.183908 
L 117.977358 230.260716 
L 126.431903 232.2514 
L 134.886449 233.402855 
L 143.340994 232.130464 
L 151.79554 223.458738 
L 160.250085 208.454604 
L 168.704631 189.004649 
L 177.159176 168.27703 
L 185.613722 150.900654 
L 194.068267 139.987085 
L 202.522812 137.032855 
L 210.977358 142.404513 
L 219.431903 155.233075 
L 227.886449 174.679693 
L 236.340994 199.775026 
L 244.79554 229.321046 
L 253.250085 257.975895 
L 261.704631 277.584782 
L 270.159176 287.040009 
L 278.613722 291.024202 
L 287.068267 291.737638 
L 295.522812 290.707968 
L 303.977358 289.526614 
L 312.431903 288.566229 
L 320.886449 286.538825 
L 329.340994 283.82647 
L 337.79554 282.587518 
L 346.250085 283.071771 
L 354.704631 284.823892 
L 363.159176 287.279445 
L 371.613722 288.997607 
L 380.068267 289.9609 
L 388.522812 291.484785 
L 396.977358 293.987362 
L 405.431903 296.890261 
L 413.886449 299.50892 
L 422.340994 302.277362 
L 430.79554 304.447277 
L 439.250085 305.452164 
L 447.704631 306.948009 
L 456.159176 310.174586 
L 464.613722 312.882029 
L 473.068267 315.137139 
L 481.522812 317.862238 
L 489.977358 321.21516 
L 498.431903 325.065364 
L 506.886449 328.954649 
L 515.340994 332.532143 
L 523.79554 336.293995 
L 532.250085 338.914045 
L 540.704631 340.015066 
L 549.159176 341.747769 
L 557.613722 344.150144 
L 566.068267 347.209158 
L 574.522812 349.290548 
L 582.977358 349.924828 
L 591.431903 350.563418 
L 599.886449 351.943755 
L 608.340994 353.960201 
L 616.79554 355.381363 
L 625.250085 355.212874 
L 633.704631 354.573149 
L 642.159176 355.85702 
L 650.613722 359.241498 
L 659.068267 361.514679 
L 667.522812 361.926122 
L 675.977358 362.030698 
L 684.431903 362.857566 
L 692.886449 364.526921 
" clip-path="url(#pa05ce2ebe0)" style="fill: none; stroke: #d62728; stroke-width: 1.5; stroke-linecap: square"/>
   </g>
   <g id="line2d_35">
    <path d="M 84.159176 189.301937 
L 92.613722 200.261746 
L 101.068267 208.091638 
L 109.522812 213.828718 
L 117.977358 218.906129 
L 126.431903 222.451678 
L 134.886449 223.411874 
L 143.340994 221.512866 
L 151.79554 215.083863 
L 160.250085 202.962097 
L 168.704631 187.294175 
L 177.159176 170.331457 
L 185.613722 154.960631 
L 194.068267 146.662497 
L 202.522812 148.247844 
L 210.977358 157.524264 
L 219.431903 170.179232 
L 227.886449 186.03688 
L 236.340994 206.747039 
L 244.79554 229.066863 
L 253.250085 248.488731 
L 261.704631 261.465673 
L 270.159176 268.242976 
L 278.613722 271.615252 
L 287.068267 273.730047 
L 295.522812 274.848745 
L 303.977358 273.895181 
L 312.431903 271.461318 
L 320.886449 268.719338 
L 329.340994 266.617955 
L 337.79554 265.590339 
L 346.250085 265.941038 
L 354.704631 267.667754 
L 363.159176 269.672719 
L 371.613722 272.456239 
L 380.068267 276.458652 
L 388.522812 280.143295 
L 396.977358 281.728561 
L 405.431903 283.154439 
L 413.886449 284.843769 
L 422.340994 286.098356 
L 430.79554 286.384865 
L 439.250085 285.981507 
L 447.704631 286.338358 
L 456.159176 288.651075 
L 464.613722 292.634571 
L 473.068267 297.599473 
L 481.522812 301.544136 
L 489.977358 303.475506 
L 498.431903 304.787334 
L 506.886449 306.483019 
L 515.340994 309.091341 
L 523.79554 312.105669 
L 532.250085 314.195899 
L 540.704631 315.509176 
L 549.159176 316.173147 
L 557.613722 316.867537 
L 566.068267 317.802655 
L 574.522812 317.945519 
L 582.977358 317.257505 
L 591.431903 317.753525 
L 599.886449 319.232277 
L 608.340994 321.131306 
L 616.79554 322.872636 
L 625.250085 323.955322 
L 633.704631 324.719497 
L 642.159176 326.175013 
L 650.613722 327.919127 
L 659.068267 329.446621 
L 667.522812 330.288573 
L 675.977358 330.019962 
L 684.431903 329.190921 
L 692.886449 329.524028 
" clip-path="url(#pa05ce2ebe0)" style="fill: none; stroke: #e377c2; stroke-width: 1.5; stroke-linecap: square"/>
   </g>
   <g id="line2d_36">
    <path d="M 84.159176 183.246565 
L 92.613722 193.197666 
L 101.068267 200.864584 
L 109.522812 205.33883 
L 117.977358 205.24435 
L 126.431903 203.167563 
L 134.886449 201.591704 
L 143.340994 197.289111 
L 151.79554 184.459671 
L 160.250085 155.153103 
L 168.704631 111.204259 
L 177.159176 70.679503 
L 185.613722 45.81076 
L 194.068267 40.774844 
L 202.522812 54.334414 
L 210.977358 80.568864 
L 219.431903 110.71987 
L 227.886449 142.90273 
L 236.340994 177.064961 
L 244.79554 209.256132 
L 253.250085 234.341314 
L 261.704631 250.070934 
L 270.159176 257.614043 
L 278.613722 260.15071 
L 287.068267 260.437042 
L 295.522812 258.671364 
L 303.977358 255.183307 
L 312.431903 253.143455 
L 320.886449 253.116861 
L 329.340994 251.46787 
L 337.79554 248.580836 
L 346.250085 247.62784 
L 354.704631 249.363795 
L 363.159176 251.672709 
L 371.613722 253.28734 
L 380.068267 254.659844 
L 388.522812 257.233514 
L 396.977358 261.164797 
L 405.431903 264.755506 
L 413.886449 266.564255 
L 422.340994 267.478456 
L 430.79554 267.405883 
L 439.250085 269.417781 
L 447.704631 274.052355 
L 456.159176 277.939556 
L 464.613722 280.581807 
L 473.068267 283.808213 
L 481.522812 286.794517 
L 489.977358 289.850973 
L 498.431903 294.013562 
L 506.886449 298.551927 
L 515.340994 301.166825 
L 523.79554 302.768669 
L 532.250085 305.476716 
L 540.704631 309.892128 
L 549.159176 314.009356 
L 557.613722 315.874591 
L 566.068267 316.872574 
L 574.522812 318.391131 
L 582.977358 319.544818 
L 591.431903 321.901384 
L 599.886449 325.519646 
L 608.340994 326.90921 
L 616.79554 325.445761 
L 625.250085 324.638756 
L 633.704631 325.225427 
L 642.159176 326.144015 
L 650.613722 326.896456 
L 659.068267 328.749465 
L 667.522812 331.798788 
L 675.977358 333.285061 
L 684.431903 333.310196 
L 692.886449 333.959153 
" clip-path="url(#pa05ce2ebe0)" style="fill: none; stroke: #17becf; stroke-width: 1.5; stroke-linecap: square"/>
   </g>
   <g id="patch_3">
    <path d="M 53.722813 411.214844 
L 53.722813 23.134844 
" style="fill: none; stroke: #333333; stroke-linejoin: miter; stroke-linecap: square"/>
   </g>
   <g id="patch_4">
    <path d="M 53.722812 411.214844 
L 723.322812 411.214844 
" style="fill: none; stroke: #333333; stroke-linejoin: miter; stroke-linecap: square"/>
   </g>
   <g id="text_19">
    <!-- Dataset: Jin et al. (2019) | Subject: 1 | Session: 1 | All Task-State PSDs -->
    <g transform="translate(157.105547 17.134844) scale(0.13 -0.13)">
     <defs>
      <path id="DejaVuSerif-3a" d="M 666 325 
Q 666 500 786 622 
Q 906 744 1081 744 
Q 1256 744 1376 622 
Q 1497 500 1497 325 
Q 1497 150 1378 29 
Q 1259 -91 1081 -91 
Q 903 -91 784 29 
Q 666 150 666 325 
z
M 666 2363 
Q 666 2538 786 2658 
Q 906 2778 1081 2778 
Q 1259 2778 1378 2659 
Q 1497 2541 1497 2363 
Q 1497 2184 1378 2065 
Q 1259 1947 1081 1947 
Q 906 1947 786 2067 
Q 666 2188 666 2363 
z
" transform="scale(0.015625)"/>
      <path id="DejaVuSerif-4a" d="M -538 -1119 
L -538 -384 
L -181 -384 
Q -172 -694 -34 -845 
Q 103 -997 378 -997 
Q 750 -997 897 -762 
Q 1044 -528 1044 153 
L 1044 4331 
L 319 4331 
L 319 4666 
L 2272 4666 
L 2272 4331 
L 1678 4331 
L 1678 128 
Q 1678 -644 1368 -987 
Q 1059 -1331 372 -1331 
Q 150 -1331 -79 -1278 
Q -309 -1225 -538 -1119 
z
" transform="scale(0.015625)"/>
      <path id="DejaVuSerif-2e" d="M 603 325 
Q 603 500 722 622 
Q 841 744 1019 744 
Q 1191 744 1312 622 
Q 1434 500 1434 325 
Q 1434 153 1312 31 
Q 1191 -91 1019 -91 
Q 841 -91 722 29 
Q 603 150 603 325 
z
" transform="scale(0.015625)"/>
      <path id="DejaVuSerif-39" d="M 2994 2091 
Q 2784 1856 2512 1740 
Q 2241 1625 1900 1625 
Q 1206 1625 804 2044 
Q 403 2463 403 3188 
Q 403 3897 839 4323 
Q 1275 4750 2003 4750 
Q 2794 4750 3217 4161 
Q 3641 3572 3641 2478 
Q 3641 1253 3137 581 
Q 2634 -91 1722 -91 
Q 1475 -91 1203 -44 
Q 931 3 647 97 
L 647 872 
L 997 872 
Q 1038 556 1241 387 
Q 1444 219 1784 219 
Q 2391 219 2687 676 
Q 2984 1134 2994 2091 
z
M 1978 4441 
Q 1534 4441 1298 4117 
Q 1063 3794 1063 3188 
Q 1063 2581 1298 2256 
Q 1534 1931 1978 1931 
Q 2422 1931 2658 2245 
Q 2894 2559 2894 3150 
Q 2894 3772 2656 4106 
Q 2419 4441 1978 4441 
z
" transform="scale(0.015625)"/>
      <path id="DejaVuSerif-7c" d="M 1331 4891 
L 1331 -1509 
L 825 -1509 
L 825 4891 
L 1331 4891 
z
" transform="scale(0.015625)"/>
      <path id="DejaVuSerif-62" d="M 738 331 
L 738 4531 
L 184 4531 
L 184 4863 
L 1313 4863 
L 1313 2803 
Q 1481 3116 1742 3264 
Q 2003 3413 2388 3413 
Q 3000 3413 3387 2928 
Q 3775 2444 3775 1663 
Q 3775 881 3387 395 
Q 3000 -91 2388 -91 
Q 2003 -91 1742 57 
Q 1481 206 1313 519 
L 1313 0 
L 184 0 
L 184 331 
L 738 331 
z
M 1313 1497 
Q 1313 897 1542 583 
Q 1772 269 2209 269 
Q 2650 269 2876 622 
Q 3103 975 3103 1663 
Q 3103 2353 2876 2703 
Q 2650 3053 2209 3053 
Q 1772 3053 1542 2737 
Q 1313 2422 1313 1825 
L 1313 1497 
z
" transform="scale(0.015625)"/>
      <path id="DejaVuSerif-6a" d="M 641 4353 
Q 641 4497 745 4603 
Q 850 4709 997 4709 
Q 1141 4709 1245 4603 
Q 1350 4497 1350 4353 
Q 1350 4206 1248 4103 
Q 1147 4000 997 4000 
Q 850 4000 745 4103 
Q 641 4206 641 4353 
z
M 781 2988 
L 238 2988 
L 238 3322 
L 1356 3322 
L 1356 -325 
Q 1356 -838 1051 -1130 
Q 747 -1422 213 -1422 
Q -13 -1422 -217 -1370 
Q -422 -1319 -616 -1216 
L -616 -531 
L -319 -531 
Q -297 -831 -164 -972 
Q -31 -1113 225 -1113 
Q 509 -1113 645 -920 
Q 781 -728 781 -325 
L 781 2988 
z
" transform="scale(0.015625)"/>
      <path id="DejaVuSerif-41" d="M 1281 1691 
L 2994 1691 
L 2138 3909 
L 1281 1691 
z
M -38 0 
L -38 331 
L 372 331 
L 2034 4666 
L 2559 4666 
L 4225 331 
L 4684 331 
L 4684 0 
L 2988 0 
L 2988 331 
L 3506 331 
L 3116 1356 
L 1153 1356 
L 763 331 
L 1275 331 
L 1275 0 
L -38 0 
z
" transform="scale(0.015625)"/>
      <path id="DejaVuSerif-54" d="M 1222 0 
L 1222 331 
L 1819 331 
L 1819 4294 
L 447 4294 
L 447 3566 
L 63 3566 
L 63 4666 
L 4206 4666 
L 4206 3566 
L 3822 3566 
L 3822 4294 
L 2450 4294 
L 2450 331 
L 3047 331 
L 3047 0 
L 1222 0 
z
" transform="scale(0.015625)"/>
      <path id="DejaVuSerif-6b" d="M 1831 0 
L 219 0 
L 219 331 
L 738 331 
L 738 4531 
L 184 4531 
L 184 4863 
L 1313 4863 
L 1313 1697 
L 2713 2988 
L 2234 2988 
L 2234 3322 
L 3738 3322 
L 3738 2988 
L 3169 2988 
L 2181 2075 
L 3444 331 
L 3922 331 
L 3922 0 
L 2284 0 
L 2284 331 
L 2759 331 
L 1766 1697 
L 1313 1275 
L 1313 331 
L 1831 331 
L 1831 0 
z
" transform="scale(0.015625)"/>
      <path id="DejaVuSerif-2d" d="M 281 1959 
L 1881 1959 
L 1881 1472 
L 281 1472 
L 281 1959 
z
" transform="scale(0.015625)"/>
     </defs>
     <use xlink:href="#DejaVuSerif-44"/>
     <use xlink:href="#DejaVuSerif-61" transform="translate(80.175781 0)"/>
     <use xlink:href="#DejaVuSerif-74" transform="translate(139.794922 0)"/>
     <use xlink:href="#DejaVuSerif-61" transform="translate(179.980469 0)"/>
     <use xlink:href="#DejaVuSerif-73" transform="translate(239.599609 0)"/>
     <use xlink:href="#DejaVuSerif-65" transform="translate(290.917969 0)"/>
     <use xlink:href="#DejaVuSerif-74" transform="translate(350.097656 0)"/>
     <use xlink:href="#DejaVuSerif-3a" transform="translate(390.283203 0)"/>
     <use xlink:href="#DejaVuSerif-20" transform="translate(423.974609 0)"/>
     <use xlink:href="#DejaVuSerif-4a" transform="translate(455.761719 0)"/>
     <use xlink:href="#DejaVuSerif-69" transform="translate(495.849609 0)"/>
     <use xlink:href="#DejaVuSerif-6e" transform="translate(527.832031 0)"/>
     <use xlink:href="#DejaVuSerif-20" transform="translate(592.236328 0)"/>
     <use xlink:href="#DejaVuSerif-65" transform="translate(624.023438 0)"/>
     <use xlink:href="#DejaVuSerif-74" transform="translate(683.203125 0)"/>
     <use xlink:href="#DejaVuSerif-20" transform="translate(723.388672 0)"/>
     <use xlink:href="#DejaVuSerif-61" transform="translate(755.175781 0)"/>
     <use xlink:href="#DejaVuSerif-6c" transform="translate(814.794922 0)"/>
     <use xlink:href="#DejaVuSerif-2e" transform="translate(846.777344 0)"/>
     <use xlink:href="#DejaVuSerif-20" transform="translate(878.564453 0)"/>
     <use xlink:href="#DejaVuSerif-28" transform="translate(910.351562 0)"/>
     <use xlink:href="#DejaVuSerif-32" transform="translate(949.365234 0)"/>
     <use xlink:href="#DejaVuSerif-30" transform="translate(1012.988281 0)"/>
     <use xlink:href="#DejaVuSerif-31" transform="translate(1076.611328 0)"/>
     <use xlink:href="#DejaVuSerif-39" transform="translate(1140.234375 0)"/>
     <use xlink:href="#DejaVuSerif-29" transform="translate(1203.857422 0)"/>
     <use xlink:href="#DejaVuSerif-20" transform="translate(1242.871094 0)"/>
     <use xlink:href="#DejaVuSerif-7c" transform="translate(1274.658203 0)"/>
     <use xlink:href="#DejaVuSerif-20" transform="translate(1308.349609 0)"/>
     <use xlink:href="#DejaVuSerif-53" transform="translate(1340.136719 0)"/>
     <use xlink:href="#DejaVuSerif-75" transform="translate(1408.642578 0)"/>
     <use xlink:href="#DejaVuSerif-62" transform="translate(1473.046875 0)"/>
     <use xlink:href="#DejaVuSerif-6a" transform="translate(1537.060547 0)"/>
     <use xlink:href="#DejaVuSerif-65" transform="translate(1568.066406 0)"/>
     <use xlink:href="#DejaVuSerif-63" transform="translate(1627.246094 0)"/>
     <use xlink:href="#DejaVuSerif-74" transform="translate(1683.251953 0)"/>
     <use xlink:href="#DejaVuSerif-3a" transform="translate(1723.4375 0)"/>
     <use xlink:href="#DejaVuSerif-20" transform="translate(1757.128906 0)"/>
     <use xlink:href="#DejaVuSerif-31" transform="translate(1788.916016 0)"/>
     <use xlink:href="#DejaVuSerif-20" transform="translate(1852.539062 0)"/>
     <use xlink:href="#DejaVuSerif-7c" transform="translate(1884.326172 0)"/>
     <use xlink:href="#DejaVuSerif-20" transform="translate(1918.017578 0)"/>
     <use xlink:href="#DejaVuSerif-53" transform="translate(1949.804688 0)"/>
     <use xlink:href="#DejaVuSerif-65" transform="translate(2018.310547 0)"/>
     <use xlink:href="#DejaVuSerif-73" transform="translate(2077.490234 0)"/>
     <use xlink:href="#DejaVuSerif-73" transform="translate(2128.808594 0)"/>
     <use xlink:href="#DejaVuSerif-69" transform="translate(2180.126953 0)"/>
     <use xlink:href="#DejaVuSerif-6f" transform="translate(2212.109375 0)"/>
     <use xlink:href="#DejaVuSerif-6e" transform="translate(2272.314453 0)"/>
     <use xlink:href="#DejaVuSerif-3a" transform="translate(2336.71875 0)"/>
     <use xlink:href="#DejaVuSerif-20" transform="translate(2370.410156 0)"/>
     <use xlink:href="#DejaVuSerif-31" transform="translate(2402.197266 0)"/>
     <use xlink:href="#DejaVuSerif-20" transform="translate(2465.820312 0)"/>
     <use xlink:href="#DejaVuSerif-7c" transform="translate(2497.607422 0)"/>
     <use xlink:href="#DejaVuSerif-20" transform="translate(2531.298828 0)"/>
     <use xlink:href="#DejaVuSerif-41" transform="translate(2563.085938 0)"/>
     <use xlink:href="#DejaVuSerif-6c" transform="translate(2635.302734 0)"/>
     <use xlink:href="#DejaVuSerif-6c" transform="translate(2667.285156 0)"/>
     <use xlink:href="#DejaVuSerif-20" transform="translate(2699.267578 0)"/>
     <use xlink:href="#DejaVuSerif-54" transform="translate(2731.054688 0)"/>
     <use xlink:href="#DejaVuSerif-61" transform="translate(2790.003906 0)"/>
     <use xlink:href="#DejaVuSerif-73" transform="translate(2849.623047 0)"/>
     <use xlink:href="#DejaVuSerif-6b" transform="translate(2900.941406 0)"/>
     <use xlink:href="#DejaVuSerif-2d" transform="translate(2959.787109 0)"/>
     <use xlink:href="#DejaVuSerif-53" transform="translate(2993.576172 0)"/>
     <use xlink:href="#DejaVuSerif-74" transform="translate(3062.082031 0)"/>
     <use xlink:href="#DejaVuSerif-61" transform="translate(3102.267578 0)"/>
     <use xlink:href="#DejaVuSerif-74" transform="translate(3161.886719 0)"/>
     <use xlink:href="#DejaVuSerif-65" transform="translate(3202.072266 0)"/>
     <use xlink:href="#DejaVuSerif-20" transform="translate(3261.251953 0)"/>
     <use xlink:href="#DejaVuSerif-50" transform="translate(3293.039062 0)"/>
     <use xlink:href="#DejaVuSerif-53" transform="translate(3360.324219 0)"/>
     <use xlink:href="#DejaVuSerif-44" transform="translate(3428.830078 0)"/>
     <use xlink:href="#DejaVuSerif-73" transform="translate(3509.005859 0)"/>
    </g>
   </g>
   <g id="legend_1">
    <g id="line2d_37">
     <path d="M 636.1775 36.233281 
L 646.1775 36.233281 
L 656.1775 36.233281 
" style="fill: none; stroke: #1f77b4; stroke-width: 1.5; stroke-linecap: square"/>
    </g>
    <g id="text_20">
     <!-- vs - MW -->
     <g transform="translate(664.1775 39.733281) scale(0.1 -0.1)">
      <defs>
       <path id="DejaVuSerif-76" d="M 1581 0 
L 359 2988 
L -19 2988 
L -19 3322 
L 1509 3322 
L 1509 2988 
L 978 2988 
L 1913 703 
L 2847 2988 
L 2350 2988 
L 2350 3322 
L 3597 3322 
L 3597 2988 
L 3225 2988 
L 2003 0 
L 1581 0 
z
" transform="scale(0.015625)"/>
       <path id="DejaVuSerif-4d" d="M 353 0 
L 353 331 
L 947 331 
L 947 4331 
L 319 4331 
L 319 4666 
L 1678 4666 
L 3316 1344 
L 4953 4666 
L 6228 4666 
L 6228 4331 
L 5606 4331 
L 5606 331 
L 6203 331 
L 6203 0 
L 4378 0 
L 4378 331 
L 4972 331 
L 4972 3938 
L 3372 684 
L 2931 684 
L 1331 3938 
L 1331 331 
L 1925 331 
L 1925 0 
L 353 0 
z
" transform="scale(0.015625)"/>
       <path id="DejaVuSerif-57" d="M 4878 0 
L 4366 0 
L 3297 3794 
L 2228 0 
L 1716 0 
L 494 4331 
L 31 4331 
L 31 4666 
L 1734 4666 
L 1734 4331 
L 1153 4331 
L 2125 884 
L 3188 4666 
L 3694 4666 
L 4775 844 
L 5753 4331 
L 5216 4331 
L 5216 4666 
L 6559 4666 
L 6559 4331 
L 6100 4331 
L 4878 0 
z
" transform="scale(0.015625)"/>
      </defs>
      <use xlink:href="#DejaVuSerif-76"/>
      <use xlink:href="#DejaVuSerif-73" transform="translate(56.494141 0)"/>
      <use xlink:href="#DejaVuSerif-20" transform="translate(107.8125 0)"/>
      <use xlink:href="#DejaVuSerif-2d" transform="translate(139.599609 0)"/>
      <use xlink:href="#DejaVuSerif-20" transform="translate(173.388672 0)"/>
      <use xlink:href="#DejaVuSerif-4d" transform="translate(205.175781 0)"/>
      <use xlink:href="#DejaVuSerif-57" transform="translate(307.568359 0)"/>
     </g>
    </g>
    <g id="line2d_38">
     <path d="M 636.1775 50.911406 
L 646.1775 50.911406 
L 656.1775 50.911406 
" style="fill: none; stroke: #d62728; stroke-width: 1.5; stroke-linecap: square"/>
    </g>
    <g id="text_21">
     <!-- vs - OT -->
     <g transform="translate(664.1775 54.411406) scale(0.1 -0.1)">
      <defs>
       <path id="DejaVuSerif-4f" d="M 2625 244 
Q 3391 244 3781 770 
Q 4172 1297 4172 2328 
Q 4172 3363 3781 3889 
Q 3391 4416 2625 4416 
Q 1856 4416 1465 3889 
Q 1075 3363 1075 2328 
Q 1075 1297 1465 770 
Q 1856 244 2625 244 
z
M 2625 -91 
Q 2150 -91 1751 65 
Q 1353 222 1050 525 
Q 700 875 529 1319 
Q 359 1763 359 2328 
Q 359 2894 529 3339 
Q 700 3784 1050 4134 
Q 1356 4441 1750 4595 
Q 2144 4750 2625 4750 
Q 3641 4750 4266 4084 
Q 4891 3419 4891 2328 
Q 4891 1769 4719 1320 
Q 4547 872 4197 525 
Q 3891 219 3497 64 
Q 3103 -91 2625 -91 
z
" transform="scale(0.015625)"/>
      </defs>
      <use xlink:href="#DejaVuSerif-76"/>
      <use xlink:href="#DejaVuSerif-73" transform="translate(56.494141 0)"/>
      <use xlink:href="#DejaVuSerif-20" transform="translate(107.8125 0)"/>
      <use xlink:href="#DejaVuSerif-2d" transform="translate(139.599609 0)"/>
      <use xlink:href="#DejaVuSerif-20" transform="translate(173.388672 0)"/>
      <use xlink:href="#DejaVuSerif-4f" transform="translate(205.175781 0)"/>
      <use xlink:href="#DejaVuSerif-54" transform="translate(287.158203 0)"/>
     </g>
    </g>
    <g id="line2d_39">
     <path d="M 636.1775 65.589531 
L 646.1775 65.589531 
L 656.1775 65.589531 
" style="fill: none; stroke: #e377c2; stroke-width: 1.5; stroke-linecap: square"/>
    </g>
    <g id="text_22">
     <!-- sart - MW -->
     <g transform="translate(664.1775 69.089531) scale(0.1 -0.1)">
      <use xlink:href="#DejaVuSerif-73"/>
      <use xlink:href="#DejaVuSerif-61" transform="translate(51.318359 0)"/>
      <use xlink:href="#DejaVuSerif-72" transform="translate(110.9375 0)"/>
      <use xlink:href="#DejaVuSerif-74" transform="translate(158.740234 0)"/>
      <use xlink:href="#DejaVuSerif-20" transform="translate(198.925781 0)"/>
      <use xlink:href="#DejaVuSerif-2d" transform="translate(230.712891 0)"/>
      <use xlink:href="#DejaVuSerif-20" transform="translate(264.501953 0)"/>
      <use xlink:href="#DejaVuSerif-4d" transform="translate(296.289062 0)"/>
      <use xlink:href="#DejaVuSerif-57" transform="translate(398.681641 0)"/>
     </g>
    </g>
    <g id="line2d_40">
     <path d="M 636.1775 80.267656 
L 646.1775 80.267656 
L 656.1775 80.267656 
" style="fill: none; stroke: #17becf; stroke-width: 1.5; stroke-linecap: square"/>
    </g>
    <g id="text_23">
     <!-- sart - OT -->
     <g transform="translate(664.1775 83.767656) scale(0.1 -0.1)">
      <use xlink:href="#DejaVuSerif-73"/>
      <use xlink:href="#DejaVuSerif-61" transform="translate(51.318359 0)"/>
      <use xlink:href="#DejaVuSerif-72" transform="translate(110.9375 0)"/>
      <use xlink:href="#DejaVuSerif-74" transform="translate(158.740234 0)"/>
      <use xlink:href="#DejaVuSerif-20" transform="translate(198.925781 0)"/>
      <use xlink:href="#DejaVuSerif-2d" transform="translate(230.712891 0)"/>
      <use xlink:href="#DejaVuSerif-20" transform="translate(264.501953 0)"/>
      <use xlink:href="#DejaVuSerif-4f" transform="translate(296.289062 0)"/>
      <use xlink:href="#DejaVuSerif-54" transform="translate(378.271484 0)"/>
     </g>
    </g>
   </g>
  </g>
 </g>
 <defs>
  <clipPath id="pa05ce2ebe0">
   <rect x="53.722813" y="23.134844" width="669.6" height="388.08"/>
  </clipPath>
 </defs>
</svg>
