<?xml version="1.0" encoding="utf-8" standalone="no"?>
<!DOCTYPE svg PUBLIC "-//W3C//DTD SVG 1.1//EN"
  "http://www.w3.org/Graphics/SVG/1.1/DTD/svg11.dtd">
<svg xmlns:xlink="http://www.w3.org/1999/xlink" width="739.109375pt" height="448.9275pt" viewBox="0 0 739.109375 448.9275" xmlns="http://www.w3.org/2000/svg" version="1.1">
 <metadata>
  <rdf:RDF xmlns:dc="http://purl.org/dc/elements/1.1/" xmlns:cc="http://creativecommons.org/ns#" xmlns:rdf="http://www.w3.org/1999/02/22-rdf-syntax-ns#">
   <cc:Work>
    <dc:type rdf:resource="http://purl.org/dc/dcmitype/StillImage"/>
    <dc:date>2025-05-30T20:15:57.589694</dc:date>
    <dc:format>image/svg+xml</dc:format>
    <dc:creator>
     <cc:Agent>
      <dc:title>Matplotlib v3.10.3, https://matplotlib.org/</dc:title>
     </cc:Agent>
    </dc:creator>
   </cc:Work>
  </rdf:RDF>
 </metadata>
 <defs>
  <style type="text/css">*{stroke-linejoin: round; stroke-linecap: butt}</style>
 </defs>
 <g id="figure_1">
  <g id="patch_1">
   <path d="M 0 448.9275 
L 739.109375 448.9275 
L 739.109375 0 
L 0 0 
z
" style="fill: #ffffff"/>
  </g>
  <g id="axes_1">
   <g id="patch_2">
    <path d="M 62.309375 411.214844 
L 731.909375 411.214844 
L 731.909375 23.134844 
L 62.309375 23.134844 
z
" style="fill: #ffffff"/>
   </g>
   <g id="FillBetweenPolyCollection_1">
    <defs>
     <path id="ma1cbbfc52a" d="M 92.745739 -408.152656 
L 92.745739 -408.152656 
L 101.200284 -398.712469 
L 109.65483 -390.174185 
L 118.109375 -381.679899 
L 126.56392 -373.442407 
L 135.018466 -366.580281 
L 143.473011 -361.06686 
L 151.927557 -356.795888 
L 160.382102 -355.312989 
L 168.836648 -358.542355 
L 177.291193 -366.575159 
L 185.745739 -376.839948 
L 194.200284 -385.621651 
L 202.65483 -389.613395 
L 211.109375 -387.831852 
L 219.56392 -381.697335 
L 228.018466 -373.425618 
L 236.473011 -365.464265 
L 244.927557 -359.728161 
L 253.382102 -356.381236 
L 261.836648 -354.110023 
L 270.291193 -351.982609 
L 278.745739 -350.100914 
L 287.200284 -348.637066 
L 295.65483 -346.949294 
L 304.109375 -343.915938 
L 312.56392 -338.642975 
L 321.018466 -331.837912 
L 329.473011 -324.892117 
L 337.927557 -318.236004 
L 346.382102 -311.209612 
L 354.836648 -303.454967 
L 363.291193 -295.387725 
L 371.745739 -287.226836 
L 380.200284 -278.61761 
L 388.65483 -270.057943 
L 397.109375 -261.84538 
L 405.56392 -253.614427 
L 414.018466 -245.307392 
L 422.473011 -237.275086 
L 430.927557 -229.636585 
L 439.382102 -222.493011 
L 447.836648 -216.299223 
L 456.291193 -210.748733 
L 464.745739 -205.239616 
L 473.200284 -200.056132 
L 481.65483 -195.673434 
L 490.109375 -191.872204 
L 498.56392 -188.114425 
L 507.018466 -184.281536 
L 515.473011 -180.531833 
L 523.927557 -176.512578 
L 532.382102 -171.762821 
L 540.836648 -166.65466 
L 549.291193 -162.187345 
L 557.745739 -158.468608 
L 566.200284 -154.585355 
L 574.65483 -150.44135 
L 583.109375 -146.140309 
L 591.56392 -141.998018 
L 600.018466 -138.263928 
L 608.473011 -135.020991 
L 616.927557 -131.611846 
L 625.382102 -127.965455 
L 633.836648 -124.294252 
L 642.291193 -120.365966 
L 650.745739 -116.769058 
L 659.200284 -114.083011 
L 667.65483 -112.179065 
L 676.109375 -110.194251 
L 684.56392 -107.698117 
L 693.018466 -105.322966 
L 701.473011 -103.148902 
L 701.473011 -103.148902 
L 701.473011 -55.352656 
L 693.018466 -55.352656 
L 684.56392 -55.352656 
L 676.109375 -55.352656 
L 667.65483 -55.352656 
L 659.200284 -55.352656 
L 650.745739 -55.352656 
L 642.291193 -55.352656 
L 633.836648 -55.352656 
L 625.382102 -55.352656 
L 616.927557 -55.352656 
L 608.473011 -55.352656 
L 600.018466 -55.352656 
L 591.56392 -55.352656 
L 583.109375 -55.352656 
L 574.65483 -55.352656 
L 566.200284 -55.352656 
L 557.745739 -55.352656 
L 549.291193 -55.352656 
L 540.836648 -55.352656 
L 532.382102 -55.352656 
L 523.927557 -55.352656 
L 515.473011 -55.352656 
L 507.018466 -55.352656 
L 498.56392 -55.352656 
L 490.109375 -55.352656 
L 481.65483 -55.352656 
L 473.200284 -55.352656 
L 464.745739 -55.352656 
L 456.291193 -55.352656 
L 447.836648 -55.352656 
L 439.382102 -55.352656 
L 430.927557 -55.352656 
L 422.473011 -55.352656 
L 414.018466 -55.352656 
L 405.56392 -55.352656 
L 397.109375 -55.352656 
L 388.65483 -55.352656 
L 380.200284 -55.352656 
L 371.745739 -55.352656 
L 363.291193 -55.352656 
L 354.836648 -55.352656 
L 346.382102 -55.352656 
L 337.927557 -55.352656 
L 329.473011 -55.352656 
L 321.018466 -55.352656 
L 312.56392 -55.352656 
L 304.109375 -55.352656 
L 295.65483 -55.352656 
L 287.200284 -55.352656 
L 278.745739 -55.352656 
L 270.291193 -55.352656 
L 261.836648 -55.352656 
L 253.382102 -55.352656 
L 244.927557 -55.352656 
L 236.473011 -55.352656 
L 228.018466 -55.352656 
L 219.56392 -55.352656 
L 211.109375 -55.352656 
L 202.65483 -55.352656 
L 194.200284 -55.352656 
L 185.745739 -55.352656 
L 177.291193 -55.352656 
L 168.836648 -55.352656 
L 160.382102 -55.352656 
L 151.927557 -55.352656 
L 143.473011 -55.352656 
L 135.018466 -55.352656 
L 126.56392 -55.352656 
L 118.109375 -55.352656 
L 109.65483 -55.352656 
L 101.200284 -55.352656 
L 92.745739 -55.352656 
z
" style="stroke: #1f77b4; stroke-opacity: 0.3"/>
    </defs>
    <g clip-path="url(#p99fecc364e)">
     <use xlink:href="#ma1cbbfc52a" x="0" y="448.9275" style="fill: #1f77b4; fill-opacity: 0.3; stroke: #1f77b4; stroke-opacity: 0.3"/>
    </g>
   </g>
   <g id="FillBetweenPolyCollection_2">
    <defs>
     <path id="m54fd638967" d="M 92.745739 -402.960877 
L 92.745739 -402.960877 
L 101.200284 -393.260832 
L 109.65483 -385.039486 
L 118.109375 -377.826021 
L 126.56392 -371.820035 
L 135.018466 -366.241902 
L 143.473011 -361.271898 
L 151.927557 -357.675409 
L 160.382102 -356.740548 
L 168.836648 -361.145194 
L 177.291193 -371.504711 
L 185.745739 -382.621908 
L 194.200284 -389.723641 
L 202.65483 -390.666232 
L 211.109375 -386.750936 
L 219.56392 -379.406757 
L 228.018466 -370.195182 
L 236.473011 -361.087774 
L 244.927557 -354.279059 
L 253.382102 -349.345118 
L 261.836648 -344.848708 
L 270.291193 -341.731963 
L 278.745739 -342.922263 
L 287.200284 -346.917013 
L 295.65483 -347.926073 
L 304.109375 -344.490259 
L 312.56392 -339.536156 
L 321.018466 -335.003114 
L 329.473011 -329.479878 
L 337.927557 -321.818852 
L 346.382102 -312.697253 
L 354.836648 -304.230488 
L 363.291193 -296.756972 
L 371.745739 -288.606022 
L 380.200284 -278.363375 
L 388.65483 -267.472176 
L 397.109375 -258.71841 
L 405.56392 -251.528138 
L 414.018466 -243.665986 
L 422.473011 -235.345501 
L 430.927557 -227.58876 
L 439.382102 -220.770023 
L 447.836648 -214.157277 
L 456.291193 -206.961171 
L 464.745739 -200.621603 
L 473.200284 -196.165458 
L 481.65483 -193.212669 
L 490.109375 -190.642336 
L 498.56392 -186.659379 
L 507.018466 -181.671738 
L 515.473011 -176.698483 
L 523.927557 -172.231491 
L 532.382102 -168.487124 
L 540.836648 -165.328416 
L 549.291193 -162.312968 
L 557.745739 -158.969656 
L 566.200284 -154.800544 
L 574.65483 -149.867629 
L 583.109375 -144.305483 
L 591.56392 -138.748782 
L 600.018466 -134.654894 
L 608.473011 -131.581563 
L 616.927557 -128.422268 
L 625.382102 -124.886395 
L 633.836648 -121.539473 
L 642.291193 -118.564902 
L 650.745739 -115.365594 
L 659.200284 -111.668536 
L 667.65483 -108.147282 
L 676.109375 -105.047484 
L 684.56392 -102.543371 
L 693.018466 -100.02432 
L 701.473011 -98.315369 
L 701.473011 -98.315369 
L 701.473011 -55.352656 
L 693.018466 -55.352656 
L 684.56392 -55.352656 
L 676.109375 -55.352656 
L 667.65483 -55.352656 
L 659.200284 -55.352656 
L 650.745739 -55.352656 
L 642.291193 -55.352656 
L 633.836648 -55.352656 
L 625.382102 -55.352656 
L 616.927557 -55.352656 
L 608.473011 -55.352656 
L 600.018466 -55.352656 
L 591.56392 -55.352656 
L 583.109375 -55.352656 
L 574.65483 -55.352656 
L 566.200284 -55.352656 
L 557.745739 -55.352656 
L 549.291193 -55.352656 
L 540.836648 -55.352656 
L 532.382102 -55.352656 
L 523.927557 -55.352656 
L 515.473011 -55.352656 
L 507.018466 -55.352656 
L 498.56392 -55.352656 
L 490.109375 -55.352656 
L 481.65483 -55.352656 
L 473.200284 -55.352656 
L 464.745739 -55.352656 
L 456.291193 -55.352656 
L 447.836648 -55.352656 
L 439.382102 -55.352656 
L 430.927557 -55.352656 
L 422.473011 -55.352656 
L 414.018466 -55.352656 
L 405.56392 -55.352656 
L 397.109375 -55.352656 
L 388.65483 -55.352656 
L 380.200284 -55.352656 
L 371.745739 -55.352656 
L 363.291193 -55.352656 
L 354.836648 -55.352656 
L 346.382102 -55.352656 
L 337.927557 -55.352656 
L 329.473011 -55.352656 
L 321.018466 -55.352656 
L 312.56392 -55.352656 
L 304.109375 -55.352656 
L 295.65483 -55.352656 
L 287.200284 -55.352656 
L 278.745739 -55.352656 
L 270.291193 -55.352656 
L 261.836648 -55.352656 
L 253.382102 -55.352656 
L 244.927557 -55.352656 
L 236.473011 -55.352656 
L 228.018466 -55.352656 
L 219.56392 -55.352656 
L 211.109375 -55.352656 
L 202.65483 -55.352656 
L 194.200284 -55.352656 
L 185.745739 -55.352656 
L 177.291193 -55.352656 
L 168.836648 -55.352656 
L 160.382102 -55.352656 
L 151.927557 -55.352656 
L 143.473011 -55.352656 
L 135.018466 -55.352656 
L 126.56392 -55.352656 
L 118.109375 -55.352656 
L 109.65483 -55.352656 
L 101.200284 -55.352656 
L 92.745739 -55.352656 
z
" style="stroke: #d62728; stroke-opacity: 0.3"/>
    </defs>
    <g clip-path="url(#p99fecc364e)">
     <use xlink:href="#m54fd638967" x="0" y="448.9275" style="fill: #d62728; fill-opacity: 0.3; stroke: #d62728; stroke-opacity: 0.3"/>
    </g>
   </g>
   <g id="FillBetweenPolyCollection_3">
    <defs>
     <path id="mff1423aa0b" d="M 92.745739 -402.413764 
L 92.745739 -402.413764 
L 101.200284 -390.033173 
L 109.65483 -381.727724 
L 118.109375 -376.004095 
L 126.56392 -370.688603 
L 135.018466 -365.146332 
L 143.473011 -358.87029 
L 151.927557 -354.006685 
L 160.382102 -355.353471 
L 168.836648 -364.573751 
L 177.291193 -376.3097 
L 185.745739 -386.576733 
L 194.200284 -393.785827 
L 202.65483 -394.503083 
L 211.109375 -389.632753 
L 219.56392 -383.023315 
L 228.018466 -375.053796 
L 236.473011 -365.619009 
L 244.927557 -356.04952 
L 253.382102 -348.535768 
L 261.836648 -344.589198 
L 270.291193 -343.172498 
L 278.745739 -342.202833 
L 287.200284 -341.000134 
L 295.65483 -339.822808 
L 304.109375 -339.464056 
L 312.56392 -338.114333 
L 321.018466 -333.77683 
L 329.473011 -326.258156 
L 337.927557 -317.057542 
L 346.382102 -308.85052 
L 354.836648 -302.17285 
L 363.291193 -295.959839 
L 371.745739 -288.29115 
L 380.200284 -278.70953 
L 388.65483 -268.285306 
L 397.109375 -258.294447 
L 405.56392 -250.304787 
L 414.018466 -242.176099 
L 422.473011 -232.701135 
L 430.927557 -223.302069 
L 439.382102 -215.362049 
L 447.836648 -208.000063 
L 456.291193 -201.134648 
L 464.745739 -196.03187 
L 473.200284 -192.534196 
L 481.65483 -188.679625 
L 490.109375 -184.043479 
L 498.56392 -179.431795 
L 507.018466 -175.660013 
L 515.473011 -171.425121 
L 523.927557 -166.007971 
L 532.382102 -160.954115 
L 540.836648 -157.274467 
L 549.291193 -153.509104 
L 557.745739 -148.178907 
L 566.200284 -143.510383 
L 574.65483 -140.528323 
L 583.109375 -136.521064 
L 591.56392 -131.136446 
L 600.018466 -126.753392 
L 608.473011 -122.937574 
L 616.927557 -118.27935 
L 625.382102 -113.656126 
L 633.836648 -109.110569 
L 642.291193 -104.207095 
L 650.745739 -99.713158 
L 659.200284 -96.891226 
L 667.65483 -95.662411 
L 676.109375 -94.961426 
L 684.56392 -92.80746 
L 693.018466 -88.068291 
L 701.473011 -83.278947 
L 701.473011 -83.278947 
L 701.473011 -55.352656 
L 693.018466 -55.352656 
L 684.56392 -55.352656 
L 676.109375 -55.352656 
L 667.65483 -55.352656 
L 659.200284 -55.352656 
L 650.745739 -55.352656 
L 642.291193 -55.352656 
L 633.836648 -55.352656 
L 625.382102 -55.352656 
L 616.927557 -55.352656 
L 608.473011 -55.352656 
L 600.018466 -55.352656 
L 591.56392 -55.352656 
L 583.109375 -55.352656 
L 574.65483 -55.352656 
L 566.200284 -55.352656 
L 557.745739 -55.352656 
L 549.291193 -55.352656 
L 540.836648 -55.352656 
L 532.382102 -55.352656 
L 523.927557 -55.352656 
L 515.473011 -55.352656 
L 507.018466 -55.352656 
L 498.56392 -55.352656 
L 490.109375 -55.352656 
L 481.65483 -55.352656 
L 473.200284 -55.352656 
L 464.745739 -55.352656 
L 456.291193 -55.352656 
L 447.836648 -55.352656 
L 439.382102 -55.352656 
L 430.927557 -55.352656 
L 422.473011 -55.352656 
L 414.018466 -55.352656 
L 405.56392 -55.352656 
L 397.109375 -55.352656 
L 388.65483 -55.352656 
L 380.200284 -55.352656 
L 371.745739 -55.352656 
L 363.291193 -55.352656 
L 354.836648 -55.352656 
L 346.382102 -55.352656 
L 337.927557 -55.352656 
L 329.473011 -55.352656 
L 321.018466 -55.352656 
L 312.56392 -55.352656 
L 304.109375 -55.352656 
L 295.65483 -55.352656 
L 287.200284 -55.352656 
L 278.745739 -55.352656 
L 270.291193 -55.352656 
L 261.836648 -55.352656 
L 253.382102 -55.352656 
L 244.927557 -55.352656 
L 236.473011 -55.352656 
L 228.018466 -55.352656 
L 219.56392 -55.352656 
L 211.109375 -55.352656 
L 202.65483 -55.352656 
L 194.200284 -55.352656 
L 185.745739 -55.352656 
L 177.291193 -55.352656 
L 168.836648 -55.352656 
L 160.382102 -55.352656 
L 151.927557 -55.352656 
L 143.473011 -55.352656 
L 135.018466 -55.352656 
L 126.56392 -55.352656 
L 118.109375 -55.352656 
L 109.65483 -55.352656 
L 101.200284 -55.352656 
L 92.745739 -55.352656 
z
" style="stroke: #e377c2; stroke-opacity: 0.3"/>
    </defs>
    <g clip-path="url(#p99fecc364e)">
     <use xlink:href="#mff1423aa0b" x="0" y="448.9275" style="fill: #e377c2; fill-opacity: 0.3; stroke: #e377c2; stroke-opacity: 0.3"/>
    </g>
   </g>
   <g id="FillBetweenPolyCollection_4">
    <defs>
     <path id="mb440cfa239" d="M 92.745739 -395.746884 
L 92.745739 -395.746884 
L 101.200284 -381.57422 
L 109.65483 -374.334726 
L 118.109375 -370.318626 
L 126.56392 -365.893223 
L 135.018466 -361.659744 
L 143.473011 -358.933925 
L 151.927557 -357.713293 
L 160.382102 -355.869993 
L 168.836648 -353.002454 
L 177.291193 -352.498725 
L 185.745739 -357.009625 
L 194.200284 -363.794676 
L 202.65483 -367.157118 
L 211.109375 -364.446026 
L 219.56392 -358.218809 
L 228.018466 -351.322707 
L 236.473011 -346.493782 
L 244.927557 -343.597892 
L 253.382102 -341.511786 
L 261.836648 -338.642982 
L 270.291193 -335.380612 
L 278.745739 -332.761189 
L 287.200284 -330.643934 
L 295.65483 -328.676389 
L 304.109375 -326.835496 
L 312.56392 -325.003816 
L 321.018466 -321.89379 
L 329.473011 -316.470483 
L 337.927557 -309.405573 
L 346.382102 -301.434091 
L 354.836648 -291.341943 
L 363.291193 -279.19371 
L 371.745739 -269.091166 
L 380.200284 -262.705636 
L 388.65483 -255.759509 
L 397.109375 -248.163116 
L 405.56392 -243.828847 
L 414.018466 -240.084785 
L 422.473011 -232.964594 
L 430.927557 -224.076097 
L 439.382102 -216.726878 
L 447.836648 -210.384224 
L 456.291193 -203.231283 
L 464.745739 -195.579187 
L 473.200284 -189.097521 
L 481.65483 -184.876182 
L 490.109375 -181.605891 
L 498.56392 -176.776998 
L 507.018466 -170.152937 
L 515.473011 -165.147034 
L 523.927557 -163.496964 
L 532.382102 -161.615571 
L 540.836648 -156.516797 
L 549.291193 -150.932766 
L 557.745739 -146.808493 
L 566.200284 -143.030958 
L 574.65483 -138.302227 
L 583.109375 -132.407869 
L 591.56392 -127.043924 
L 600.018466 -123.858144 
L 608.473011 -120.779955 
L 616.927557 -116.359162 
L 625.382102 -111.342875 
L 633.836648 -106.732522 
L 642.291193 -101.092571 
L 650.745739 -94.89039 
L 659.200284 -92.065434 
L 667.65483 -93.08522 
L 676.109375 -93.417598 
L 684.56392 -91.270396 
L 693.018466 -88.437091 
L 701.473011 -85.464477 
L 701.473011 -85.464477 
L 701.473011 -55.352656 
L 693.018466 -55.352656 
L 684.56392 -55.352656 
L 676.109375 -55.352656 
L 667.65483 -55.352656 
L 659.200284 -55.352656 
L 650.745739 -55.352656 
L 642.291193 -55.352656 
L 633.836648 -55.352656 
L 625.382102 -55.352656 
L 616.927557 -55.352656 
L 608.473011 -55.352656 
L 600.018466 -55.352656 
L 591.56392 -55.352656 
L 583.109375 -55.352656 
L 574.65483 -55.352656 
L 566.200284 -55.352656 
L 557.745739 -55.352656 
L 549.291193 -55.352656 
L 540.836648 -55.352656 
L 532.382102 -55.352656 
L 523.927557 -55.352656 
L 515.473011 -55.352656 
L 507.018466 -55.352656 
L 498.56392 -55.352656 
L 490.109375 -55.352656 
L 481.65483 -55.352656 
L 473.200284 -55.352656 
L 464.745739 -55.352656 
L 456.291193 -55.352656 
L 447.836648 -55.352656 
L 439.382102 -55.352656 
L 430.927557 -55.352656 
L 422.473011 -55.352656 
L 414.018466 -55.352656 
L 405.56392 -55.352656 
L 397.109375 -55.352656 
L 388.65483 -55.352656 
L 380.200284 -55.352656 
L 371.745739 -55.352656 
L 363.291193 -55.352656 
L 354.836648 -55.352656 
L 346.382102 -55.352656 
L 337.927557 -55.352656 
L 329.473011 -55.352656 
L 321.018466 -55.352656 
L 312.56392 -55.352656 
L 304.109375 -55.352656 
L 295.65483 -55.352656 
L 287.200284 -55.352656 
L 278.745739 -55.352656 
L 270.291193 -55.352656 
L 261.836648 -55.352656 
L 253.382102 -55.352656 
L 244.927557 -55.352656 
L 236.473011 -55.352656 
L 228.018466 -55.352656 
L 219.56392 -55.352656 
L 211.109375 -55.352656 
L 202.65483 -55.352656 
L 194.200284 -55.352656 
L 185.745739 -55.352656 
L 177.291193 -55.352656 
L 168.836648 -55.352656 
L 160.382102 -55.352656 
L 151.927557 -55.352656 
L 143.473011 -55.352656 
L 135.018466 -55.352656 
L 126.56392 -55.352656 
L 118.109375 -55.352656 
L 109.65483 -55.352656 
L 101.200284 -55.352656 
L 92.745739 -55.352656 
z
" style="stroke: #17becf; stroke-opacity: 0.3"/>
    </defs>
    <g clip-path="url(#p99fecc364e)">
     <use xlink:href="#mb440cfa239" x="0" y="448.9275" style="fill: #17becf; fill-opacity: 0.3; stroke: #17becf; stroke-opacity: 0.3"/>
    </g>
   </g>
   <g id="matplotlib.axis_1">
    <g id="xtick_1">
     <g id="line2d_1">
      <path d="M 109.65483 411.214844 
L 109.65483 23.134844 
" clip-path="url(#p99fecc364e)" style="fill: none; stroke-dasharray: 2.96,1.28; stroke-dashoffset: 0; stroke: #dddddd; stroke-width: 0.8"/>
     </g>
     <g id="line2d_2">
      <defs>
       <path id="m1139a0ff8d" d="M 0 0 
L 0 3.5 
" style="stroke: #333333; stroke-width: 0.8"/>
      </defs>
      <g>
       <use xlink:href="#m1139a0ff8d" x="109.65483" y="411.214844" style="fill: #333333; stroke: #333333; stroke-width: 0.8"/>
      </g>
     </g>
     <g id="text_1">
      <!-- 5 -->
      <g style="fill: #333333" transform="translate(106.791705 425.053437) scale(0.09 -0.09)">
       <defs>
        <path id="DejaVuSerif-35" d="M 3219 4666 
L 3219 4153 
L 1081 4153 
L 1081 2816 
Q 1244 2928 1461 2984 
Q 1678 3041 1947 3041 
Q 2703 3041 3140 2622 
Q 3578 2203 3578 1478 
Q 3578 738 3136 323 
Q 2694 -91 1894 -91 
Q 1572 -91 1234 -12 
Q 897 66 544 225 
L 544 1131 
L 897 1131 
Q 925 688 1179 453 
Q 1434 219 1894 219 
Q 2388 219 2653 544 
Q 2919 869 2919 1478 
Q 2919 2084 2655 2407 
Q 2391 2731 1894 2731 
Q 1613 2731 1398 2631 
Q 1184 2531 1019 2322 
L 750 2322 
L 750 4666 
L 3219 4666 
z
" transform="scale(0.015625)"/>
       </defs>
       <use xlink:href="#DejaVuSerif-35"/>
      </g>
     </g>
    </g>
    <g id="xtick_2">
     <g id="line2d_3">
      <path d="M 194.200284 411.214844 
L 194.200284 23.134844 
" clip-path="url(#p99fecc364e)" style="fill: none; stroke-dasharray: 2.96,1.28; stroke-dashoffset: 0; stroke: #dddddd; stroke-width: 0.8"/>
     </g>
     <g id="line2d_4">
      <g>
       <use xlink:href="#m1139a0ff8d" x="194.200284" y="411.214844" style="fill: #333333; stroke: #333333; stroke-width: 0.8"/>
      </g>
     </g>
     <g id="text_2">
      <!-- 10 -->
      <g style="fill: #333333" transform="translate(188.474034 425.053437) scale(0.09 -0.09)">
       <defs>
        <path id="DejaVuSerif-31" d="M 909 0 
L 909 331 
L 1722 331 
L 1722 4213 
L 781 3603 
L 781 4013 
L 1919 4750 
L 2350 4750 
L 2350 331 
L 3163 331 
L 3163 0 
L 909 0 
z
" transform="scale(0.015625)"/>
        <path id="DejaVuSerif-30" d="M 2034 219 
Q 2513 219 2750 744 
Q 2988 1269 2988 2328 
Q 2988 3391 2750 3916 
Q 2513 4441 2034 4441 
Q 1556 4441 1318 3916 
Q 1081 3391 1081 2328 
Q 1081 1269 1318 744 
Q 1556 219 2034 219 
z
M 2034 -91 
Q 1275 -91 848 546 
Q 422 1184 422 2328 
Q 422 3475 848 4112 
Q 1275 4750 2034 4750 
Q 2797 4750 3222 4112 
Q 3647 3475 3647 2328 
Q 3647 1184 3222 546 
Q 2797 -91 2034 -91 
z
" transform="scale(0.015625)"/>
       </defs>
       <use xlink:href="#DejaVuSerif-31"/>
       <use xlink:href="#DejaVuSerif-30" transform="translate(63.623047 0)"/>
      </g>
     </g>
    </g>
    <g id="xtick_3">
     <g id="line2d_5">
      <path d="M 278.745739 411.214844 
L 278.745739 23.134844 
" clip-path="url(#p99fecc364e)" style="fill: none; stroke-dasharray: 2.96,1.28; stroke-dashoffset: 0; stroke: #dddddd; stroke-width: 0.8"/>
     </g>
     <g id="line2d_6">
      <g>
       <use xlink:href="#m1139a0ff8d" x="278.745739" y="411.214844" style="fill: #333333; stroke: #333333; stroke-width: 0.8"/>
      </g>
     </g>
     <g id="text_3">
      <!-- 15 -->
      <g style="fill: #333333" transform="translate(273.019489 425.053437) scale(0.09 -0.09)">
       <use xlink:href="#DejaVuSerif-31"/>
       <use xlink:href="#DejaVuSerif-35" transform="translate(63.623047 0)"/>
      </g>
     </g>
    </g>
    <g id="xtick_4">
     <g id="line2d_7">
      <path d="M 363.291193 411.214844 
L 363.291193 23.134844 
" clip-path="url(#p99fecc364e)" style="fill: none; stroke-dasharray: 2.96,1.28; stroke-dashoffset: 0; stroke: #dddddd; stroke-width: 0.8"/>
     </g>
     <g id="line2d_8">
      <g>
       <use xlink:href="#m1139a0ff8d" x="363.291193" y="411.214844" style="fill: #333333; stroke: #333333; stroke-width: 0.8"/>
      </g>
     </g>
     <g id="text_4">
      <!-- 20 -->
      <g style="fill: #333333" transform="translate(357.564943 425.053437) scale(0.09 -0.09)">
       <defs>
        <path id="DejaVuSerif-32" d="M 819 3553 
L 469 3553 
L 469 4384 
Q 803 4563 1142 4656 
Q 1481 4750 1806 4750 
Q 2534 4750 2956 4397 
Q 3378 4044 3378 3438 
Q 3378 2753 2422 1800 
Q 2347 1728 2309 1691 
L 1131 513 
L 3078 513 
L 3078 1088 
L 3444 1088 
L 3444 0 
L 434 0 
L 434 341 
L 1850 1753 
Q 2319 2222 2519 2614 
Q 2719 3006 2719 3438 
Q 2719 3909 2473 4175 
Q 2228 4441 1797 4441 
Q 1350 4441 1106 4219 
Q 863 3997 819 3553 
z
" transform="scale(0.015625)"/>
       </defs>
       <use xlink:href="#DejaVuSerif-32"/>
       <use xlink:href="#DejaVuSerif-30" transform="translate(63.623047 0)"/>
      </g>
     </g>
    </g>
    <g id="xtick_5">
     <g id="line2d_9">
      <path d="M 447.836648 411.214844 
L 447.836648 23.134844 
" clip-path="url(#p99fecc364e)" style="fill: none; stroke-dasharray: 2.96,1.28; stroke-dashoffset: 0; stroke: #dddddd; stroke-width: 0.8"/>
     </g>
     <g id="line2d_10">
      <g>
       <use xlink:href="#m1139a0ff8d" x="447.836648" y="411.214844" style="fill: #333333; stroke: #333333; stroke-width: 0.8"/>
      </g>
     </g>
     <g id="text_5">
      <!-- 25 -->
      <g style="fill: #333333" transform="translate(442.110398 425.053437) scale(0.09 -0.09)">
       <use xlink:href="#DejaVuSerif-32"/>
       <use xlink:href="#DejaVuSerif-35" transform="translate(63.623047 0)"/>
      </g>
     </g>
    </g>
    <g id="xtick_6">
     <g id="line2d_11">
      <path d="M 532.382102 411.214844 
L 532.382102 23.134844 
" clip-path="url(#p99fecc364e)" style="fill: none; stroke-dasharray: 2.96,1.28; stroke-dashoffset: 0; stroke: #dddddd; stroke-width: 0.8"/>
     </g>
     <g id="line2d_12">
      <g>
       <use xlink:href="#m1139a0ff8d" x="532.382102" y="411.214844" style="fill: #333333; stroke: #333333; stroke-width: 0.8"/>
      </g>
     </g>
     <g id="text_6">
      <!-- 30 -->
      <g style="fill: #333333" transform="translate(526.655852 425.053437) scale(0.09 -0.09)">
       <defs>
        <path id="DejaVuSerif-33" d="M 622 4469 
Q 988 4606 1323 4678 
Q 1659 4750 1953 4750 
Q 2638 4750 3022 4454 
Q 3406 4159 3406 3634 
Q 3406 3213 3140 2930 
Q 2875 2647 2388 2547 
Q 2963 2466 3280 2130 
Q 3597 1794 3597 1259 
Q 3597 606 3158 257 
Q 2719 -91 1894 -91 
Q 1528 -91 1179 -12 
Q 831 66 488 225 
L 488 1131 
L 838 1131 
Q 869 681 1141 450 
Q 1413 219 1906 219 
Q 2384 219 2661 495 
Q 2938 772 2938 1253 
Q 2938 1803 2653 2086 
Q 2369 2369 1819 2369 
L 1522 2369 
L 1522 2688 
L 1678 2688 
Q 2225 2688 2498 2914 
Q 2772 3141 2772 3597 
Q 2772 4006 2547 4223 
Q 2322 4441 1900 4441 
Q 1478 4441 1245 4241 
Q 1013 4041 972 3647 
L 622 3647 
L 622 4469 
z
" transform="scale(0.015625)"/>
       </defs>
       <use xlink:href="#DejaVuSerif-33"/>
       <use xlink:href="#DejaVuSerif-30" transform="translate(63.623047 0)"/>
      </g>
     </g>
    </g>
    <g id="xtick_7">
     <g id="line2d_13">
      <path d="M 616.927557 411.214844 
L 616.927557 23.134844 
" clip-path="url(#p99fecc364e)" style="fill: none; stroke-dasharray: 2.96,1.28; stroke-dashoffset: 0; stroke: #dddddd; stroke-width: 0.8"/>
     </g>
     <g id="line2d_14">
      <g>
       <use xlink:href="#m1139a0ff8d" x="616.927557" y="411.214844" style="fill: #333333; stroke: #333333; stroke-width: 0.8"/>
      </g>
     </g>
     <g id="text_7">
      <!-- 35 -->
      <g style="fill: #333333" transform="translate(611.201307 425.053437) scale(0.09 -0.09)">
       <use xlink:href="#DejaVuSerif-33"/>
       <use xlink:href="#DejaVuSerif-35" transform="translate(63.623047 0)"/>
      </g>
     </g>
    </g>
    <g id="xtick_8">
     <g id="line2d_15">
      <path d="M 701.473011 411.214844 
L 701.473011 23.134844 
" clip-path="url(#p99fecc364e)" style="fill: none; stroke-dasharray: 2.96,1.28; stroke-dashoffset: 0; stroke: #dddddd; stroke-width: 0.8"/>
     </g>
     <g id="line2d_16">
      <g>
       <use xlink:href="#m1139a0ff8d" x="701.473011" y="411.214844" style="fill: #333333; stroke: #333333; stroke-width: 0.8"/>
      </g>
     </g>
     <g id="text_8">
      <!-- 40 -->
      <g style="fill: #333333" transform="translate(695.746761 425.053437) scale(0.09 -0.09)">
       <defs>
        <path id="DejaVuSerif-34" d="M 2234 1581 
L 2234 4063 
L 641 1581 
L 2234 1581 
z
M 3609 0 
L 1484 0 
L 1484 331 
L 2234 331 
L 2234 1247 
L 197 1247 
L 197 1588 
L 2241 4750 
L 2859 4750 
L 2859 1581 
L 3750 1581 
L 3750 1247 
L 2859 1247 
L 2859 331 
L 3609 331 
L 3609 0 
z
" transform="scale(0.015625)"/>
       </defs>
       <use xlink:href="#DejaVuSerif-34"/>
       <use xlink:href="#DejaVuSerif-30" transform="translate(63.623047 0)"/>
      </g>
     </g>
    </g>
    <g id="text_9">
     <!-- Frequency (Hz) -->
     <g transform="translate(353.626719 439.283437) scale(0.11 -0.11)">
      <defs>
       <path id="DejaVuSerif-46" d="M 353 0 
L 353 331 
L 947 331 
L 947 4331 
L 353 4331 
L 353 4666 
L 4172 4666 
L 4172 3628 
L 3788 3628 
L 3788 4281 
L 1581 4281 
L 1581 2719 
L 3175 2719 
L 3175 3303 
L 3559 3303 
L 3559 1753 
L 3175 1753 
L 3175 2338 
L 1581 2338 
L 1581 331 
L 2328 331 
L 2328 0 
L 353 0 
z
" transform="scale(0.015625)"/>
       <path id="DejaVuSerif-72" d="M 3059 3328 
L 3059 2497 
L 2728 2497 
Q 2713 2744 2591 2866 
Q 2469 2988 2234 2988 
Q 1809 2988 1582 2694 
Q 1356 2400 1356 1850 
L 1356 331 
L 2022 331 
L 2022 0 
L 263 0 
L 263 331 
L 781 331 
L 781 2994 
L 231 2994 
L 231 3322 
L 1356 3322 
L 1356 2731 
Q 1525 3078 1790 3245 
Q 2056 3413 2438 3413 
Q 2578 3413 2733 3391 
Q 2888 3369 3059 3328 
z
" transform="scale(0.015625)"/>
       <path id="DejaVuSerif-65" d="M 3469 1600 
L 991 1600 
L 991 1575 
Q 991 903 1244 561 
Q 1497 219 1991 219 
Q 2369 219 2611 417 
Q 2853 616 2950 1006 
L 3413 1006 
Q 3275 459 2904 184 
Q 2534 -91 1931 -91 
Q 1203 -91 761 389 
Q 319 869 319 1663 
Q 319 2450 753 2931 
Q 1188 3413 1894 3413 
Q 2647 3413 3050 2948 
Q 3453 2484 3469 1600 
z
M 2791 1931 
Q 2772 2513 2545 2808 
Q 2319 3103 1894 3103 
Q 1497 3103 1269 2806 
Q 1041 2509 991 1931 
L 2791 1931 
z
" transform="scale(0.015625)"/>
       <path id="DejaVuSerif-71" d="M 3359 2988 
L 3359 -997 
L 3909 -997 
L 3909 -1331 
L 2241 -1331 
L 2241 -997 
L 2784 -997 
L 2784 519 
Q 2616 206 2355 57 
Q 2094 -91 1709 -91 
Q 1097 -91 708 395 
Q 319 881 319 1663 
Q 319 2444 706 2928 
Q 1094 3413 1709 3413 
Q 2094 3413 2355 3264 
Q 2616 3116 2784 2803 
L 2784 3322 
L 3909 3322 
L 3909 2988 
L 3359 2988 
z
M 2784 1825 
Q 2784 2422 2554 2737 
Q 2325 3053 1888 3053 
Q 1444 3053 1217 2703 
Q 991 2353 991 1663 
Q 991 975 1217 622 
Q 1444 269 1888 269 
Q 2325 269 2554 583 
Q 2784 897 2784 1497 
L 2784 1825 
z
" transform="scale(0.015625)"/>
       <path id="DejaVuSerif-75" d="M 2266 3322 
L 3341 3322 
L 3341 331 
L 3884 331 
L 3884 0 
L 2766 0 
L 2766 588 
Q 2606 256 2353 82 
Q 2100 -91 1766 -91 
Q 1213 -91 952 223 
Q 691 538 691 1209 
L 691 2988 
L 172 2988 
L 172 3322 
L 1269 3322 
L 1269 1388 
Q 1269 781 1417 556 
Q 1566 331 1947 331 
Q 2347 331 2556 625 
Q 2766 919 2766 1478 
L 2766 2988 
L 2266 2988 
L 2266 3322 
z
" transform="scale(0.015625)"/>
       <path id="DejaVuSerif-6e" d="M 263 0 
L 263 331 
L 781 331 
L 781 2988 
L 231 2988 
L 231 3322 
L 1356 3322 
L 1356 2731 
Q 1516 3069 1770 3241 
Q 2025 3413 2363 3413 
Q 2913 3413 3172 3097 
Q 3431 2781 3431 2113 
L 3431 331 
L 3944 331 
L 3944 0 
L 2356 0 
L 2356 331 
L 2853 331 
L 2853 1931 
Q 2853 2541 2703 2767 
Q 2553 2994 2175 2994 
Q 1775 2994 1565 2701 
Q 1356 2409 1356 1850 
L 1356 331 
L 1856 331 
L 1856 0 
L 263 0 
z
" transform="scale(0.015625)"/>
       <path id="DejaVuSerif-63" d="M 3291 997 
Q 3169 466 2822 187 
Q 2475 -91 1925 -91 
Q 1200 -91 759 389 
Q 319 869 319 1663 
Q 319 2459 759 2936 
Q 1200 3413 1925 3413 
Q 2241 3413 2553 3339 
Q 2866 3266 3181 3116 
L 3181 2266 
L 2847 2266 
Q 2781 2703 2561 2903 
Q 2341 3103 1931 3103 
Q 1466 3103 1228 2742 
Q 991 2381 991 1663 
Q 991 944 1227 581 
Q 1463 219 1931 219 
Q 2303 219 2525 412 
Q 2747 606 2828 997 
L 3291 997 
z
" transform="scale(0.015625)"/>
       <path id="DejaVuSerif-79" d="M 1381 -609 
L 1600 -56 
L 359 2988 
L -19 2988 
L -19 3322 
L 1509 3322 
L 1509 2988 
L 978 2988 
L 1913 703 
L 2847 2988 
L 2350 2988 
L 2350 3322 
L 3597 3322 
L 3597 2988 
L 3225 2988 
L 1703 -750 
Q 1547 -1138 1356 -1280 
Q 1166 -1422 819 -1422 
Q 672 -1422 517 -1397 
Q 363 -1372 206 -1325 
L 206 -691 
L 500 -691 
Q 519 -903 608 -995 
Q 697 -1088 884 -1088 
Q 1056 -1088 1161 -992 
Q 1266 -897 1381 -609 
z
" transform="scale(0.015625)"/>
       <path id="DejaVuSerif-20" transform="scale(0.015625)"/>
       <path id="DejaVuSerif-28" d="M 2041 -997 
Q 1281 -656 893 83 
Q 506 822 506 1931 
Q 506 3044 893 3783 
Q 1281 4522 2041 4863 
L 2041 4556 
Q 1559 4225 1350 3623 
Q 1141 3022 1141 1931 
Q 1141 844 1350 242 
Q 1559 -359 2041 -691 
L 2041 -997 
z
" transform="scale(0.015625)"/>
       <path id="DejaVuSerif-48" d="M 353 0 
L 353 331 
L 947 331 
L 947 4331 
L 353 4331 
L 353 4666 
L 2175 4666 
L 2175 4331 
L 1581 4331 
L 1581 2719 
L 4000 2719 
L 4000 4331 
L 3406 4331 
L 3406 4666 
L 5228 4666 
L 5228 4331 
L 4634 4331 
L 4634 331 
L 5228 331 
L 5228 0 
L 3406 0 
L 3406 331 
L 4000 331 
L 4000 2338 
L 1581 2338 
L 1581 331 
L 2175 331 
L 2175 0 
L 353 0 
z
" transform="scale(0.015625)"/>
       <path id="DejaVuSerif-7a" d="M 256 0 
L 256 269 
L 2338 2988 
L 691 2988 
L 691 2413 
L 359 2413 
L 359 3322 
L 3078 3322 
L 3078 3053 
L 997 331 
L 2803 331 
L 2803 934 
L 3138 934 
L 3138 0 
L 256 0 
z
" transform="scale(0.015625)"/>
       <path id="DejaVuSerif-29" d="M 453 -997 
L 453 -691 
Q 934 -359 1145 242 
Q 1356 844 1356 1931 
Q 1356 3022 1145 3623 
Q 934 4225 453 4556 
L 453 4863 
Q 1216 4522 1603 3783 
Q 1991 3044 1991 1931 
Q 1991 822 1603 83 
Q 1216 -656 453 -997 
z
" transform="scale(0.015625)"/>
      </defs>
      <use xlink:href="#DejaVuSerif-46"/>
      <use xlink:href="#DejaVuSerif-72" transform="translate(69.384766 0)"/>
      <use xlink:href="#DejaVuSerif-65" transform="translate(117.1875 0)"/>
      <use xlink:href="#DejaVuSerif-71" transform="translate(176.367188 0)"/>
      <use xlink:href="#DejaVuSerif-75" transform="translate(240.380859 0)"/>
      <use xlink:href="#DejaVuSerif-65" transform="translate(304.785156 0)"/>
      <use xlink:href="#DejaVuSerif-6e" transform="translate(363.964844 0)"/>
      <use xlink:href="#DejaVuSerif-63" transform="translate(428.369141 0)"/>
      <use xlink:href="#DejaVuSerif-79" transform="translate(484.375 0)"/>
      <use xlink:href="#DejaVuSerif-20" transform="translate(540.869141 0)"/>
      <use xlink:href="#DejaVuSerif-28" transform="translate(572.65625 0)"/>
      <use xlink:href="#DejaVuSerif-48" transform="translate(611.669922 0)"/>
      <use xlink:href="#DejaVuSerif-7a" transform="translate(698.876953 0)"/>
      <use xlink:href="#DejaVuSerif-29" transform="translate(751.5625 0)"/>
     </g>
    </g>
   </g>
   <g id="matplotlib.axis_2">
    <g id="ytick_1">
     <g id="line2d_17">
      <path d="M 62.309375 361.061955 
L 731.909375 361.061955 
" clip-path="url(#p99fecc364e)" style="fill: none; stroke-dasharray: 2.96,1.28; stroke-dashoffset: 0; stroke: #dddddd; stroke-width: 0.8"/>
     </g>
     <g id="line2d_18">
      <defs>
       <path id="m4aa1aeaf7b" d="M 0 0 
L -3.5 0 
" style="stroke: #333333; stroke-width: 0.8"/>
      </defs>
      <g>
       <use xlink:href="#m4aa1aeaf7b" x="62.309375" y="361.061955" style="fill: #333333; stroke: #333333; stroke-width: 0.8"/>
      </g>
     </g>
     <g id="text_10">
      <!-- −137.5 -->
      <g style="fill: #333333" transform="translate(22.002344 364.481252) scale(0.09 -0.09)">
       <defs>
        <path id="DejaVuSerif-2212" d="M 678 2259 
L 4684 2259 
L 4684 1753 
L 678 1753 
L 678 2259 
z
" transform="scale(0.015625)"/>
        <path id="DejaVuSerif-37" d="M 3609 4347 
L 1784 0 
L 1319 0 
L 3059 4153 
L 903 4153 
L 903 3578 
L 538 3578 
L 538 4666 
L 3609 4666 
L 3609 4347 
z
" transform="scale(0.015625)"/>
        <path id="DejaVuSerif-2e" d="M 603 325 
Q 603 500 722 622 
Q 841 744 1019 744 
Q 1191 744 1312 622 
Q 1434 500 1434 325 
Q 1434 153 1312 31 
Q 1191 -91 1019 -91 
Q 841 -91 722 29 
Q 603 150 603 325 
z
" transform="scale(0.015625)"/>
       </defs>
       <use xlink:href="#DejaVuSerif-2212"/>
       <use xlink:href="#DejaVuSerif-31" transform="translate(83.789062 0)"/>
       <use xlink:href="#DejaVuSerif-33" transform="translate(147.412109 0)"/>
       <use xlink:href="#DejaVuSerif-37" transform="translate(211.035156 0)"/>
       <use xlink:href="#DejaVuSerif-2e" transform="translate(274.658203 0)"/>
       <use xlink:href="#DejaVuSerif-35" transform="translate(306.445312 0)"/>
      </g>
     </g>
    </g>
    <g id="ytick_2">
     <g id="line2d_19">
      <path d="M 62.309375 310.370274 
L 731.909375 310.370274 
" clip-path="url(#p99fecc364e)" style="fill: none; stroke-dasharray: 2.96,1.28; stroke-dashoffset: 0; stroke: #dddddd; stroke-width: 0.8"/>
     </g>
     <g id="line2d_20">
      <g>
       <use xlink:href="#m4aa1aeaf7b" x="62.309375" y="310.370274" style="fill: #333333; stroke: #333333; stroke-width: 0.8"/>
      </g>
     </g>
     <g id="text_11">
      <!-- −135.0 -->
      <g style="fill: #333333" transform="translate(22.002344 313.789571) scale(0.09 -0.09)">
       <use xlink:href="#DejaVuSerif-2212"/>
       <use xlink:href="#DejaVuSerif-31" transform="translate(83.789062 0)"/>
       <use xlink:href="#DejaVuSerif-33" transform="translate(147.412109 0)"/>
       <use xlink:href="#DejaVuSerif-35" transform="translate(211.035156 0)"/>
       <use xlink:href="#DejaVuSerif-2e" transform="translate(274.658203 0)"/>
       <use xlink:href="#DejaVuSerif-30" transform="translate(306.445312 0)"/>
      </g>
     </g>
    </g>
    <g id="ytick_3">
     <g id="line2d_21">
      <path d="M 62.309375 259.678593 
L 731.909375 259.678593 
" clip-path="url(#p99fecc364e)" style="fill: none; stroke-dasharray: 2.96,1.28; stroke-dashoffset: 0; stroke: #dddddd; stroke-width: 0.8"/>
     </g>
     <g id="line2d_22">
      <g>
       <use xlink:href="#m4aa1aeaf7b" x="62.309375" y="259.678593" style="fill: #333333; stroke: #333333; stroke-width: 0.8"/>
      </g>
     </g>
     <g id="text_12">
      <!-- −132.5 -->
      <g style="fill: #333333" transform="translate(22.002344 263.09789) scale(0.09 -0.09)">
       <use xlink:href="#DejaVuSerif-2212"/>
       <use xlink:href="#DejaVuSerif-31" transform="translate(83.789062 0)"/>
       <use xlink:href="#DejaVuSerif-33" transform="translate(147.412109 0)"/>
       <use xlink:href="#DejaVuSerif-32" transform="translate(211.035156 0)"/>
       <use xlink:href="#DejaVuSerif-2e" transform="translate(274.658203 0)"/>
       <use xlink:href="#DejaVuSerif-35" transform="translate(306.445312 0)"/>
      </g>
     </g>
    </g>
    <g id="ytick_4">
     <g id="line2d_23">
      <path d="M 62.309375 208.986912 
L 731.909375 208.986912 
" clip-path="url(#p99fecc364e)" style="fill: none; stroke-dasharray: 2.96,1.28; stroke-dashoffset: 0; stroke: #dddddd; stroke-width: 0.8"/>
     </g>
     <g id="line2d_24">
      <g>
       <use xlink:href="#m4aa1aeaf7b" x="62.309375" y="208.986912" style="fill: #333333; stroke: #333333; stroke-width: 0.8"/>
      </g>
     </g>
     <g id="text_13">
      <!-- −130.0 -->
      <g style="fill: #333333" transform="translate(22.002344 212.406209) scale(0.09 -0.09)">
       <use xlink:href="#DejaVuSerif-2212"/>
       <use xlink:href="#DejaVuSerif-31" transform="translate(83.789062 0)"/>
       <use xlink:href="#DejaVuSerif-33" transform="translate(147.412109 0)"/>
       <use xlink:href="#DejaVuSerif-30" transform="translate(211.035156 0)"/>
       <use xlink:href="#DejaVuSerif-2e" transform="translate(274.658203 0)"/>
       <use xlink:href="#DejaVuSerif-30" transform="translate(306.445312 0)"/>
      </g>
     </g>
    </g>
    <g id="ytick_5">
     <g id="line2d_25">
      <path d="M 62.309375 158.295231 
L 731.909375 158.295231 
" clip-path="url(#p99fecc364e)" style="fill: none; stroke-dasharray: 2.96,1.28; stroke-dashoffset: 0; stroke: #dddddd; stroke-width: 0.8"/>
     </g>
     <g id="line2d_26">
      <g>
       <use xlink:href="#m4aa1aeaf7b" x="62.309375" y="158.295231" style="fill: #333333; stroke: #333333; stroke-width: 0.8"/>
      </g>
     </g>
     <g id="text_14">
      <!-- −127.5 -->
      <g style="fill: #333333" transform="translate(22.002344 161.714528) scale(0.09 -0.09)">
       <use xlink:href="#DejaVuSerif-2212"/>
       <use xlink:href="#DejaVuSerif-31" transform="translate(83.789062 0)"/>
       <use xlink:href="#DejaVuSerif-32" transform="translate(147.412109 0)"/>
       <use xlink:href="#DejaVuSerif-37" transform="translate(211.035156 0)"/>
       <use xlink:href="#DejaVuSerif-2e" transform="translate(274.658203 0)"/>
       <use xlink:href="#DejaVuSerif-35" transform="translate(306.445312 0)"/>
      </g>
     </g>
    </g>
    <g id="ytick_6">
     <g id="line2d_27">
      <path d="M 62.309375 107.603551 
L 731.909375 107.603551 
" clip-path="url(#p99fecc364e)" style="fill: none; stroke-dasharray: 2.96,1.28; stroke-dashoffset: 0; stroke: #dddddd; stroke-width: 0.8"/>
     </g>
     <g id="line2d_28">
      <g>
       <use xlink:href="#m4aa1aeaf7b" x="62.309375" y="107.603551" style="fill: #333333; stroke: #333333; stroke-width: 0.8"/>
      </g>
     </g>
     <g id="text_15">
      <!-- −125.0 -->
      <g style="fill: #333333" transform="translate(22.002344 111.022847) scale(0.09 -0.09)">
       <use xlink:href="#DejaVuSerif-2212"/>
       <use xlink:href="#DejaVuSerif-31" transform="translate(83.789062 0)"/>
       <use xlink:href="#DejaVuSerif-32" transform="translate(147.412109 0)"/>
       <use xlink:href="#DejaVuSerif-35" transform="translate(211.035156 0)"/>
       <use xlink:href="#DejaVuSerif-2e" transform="translate(274.658203 0)"/>
       <use xlink:href="#DejaVuSerif-30" transform="translate(306.445312 0)"/>
      </g>
     </g>
    </g>
    <g id="ytick_7">
     <g id="line2d_29">
      <path d="M 62.309375 56.91187 
L 731.909375 56.91187 
" clip-path="url(#p99fecc364e)" style="fill: none; stroke-dasharray: 2.96,1.28; stroke-dashoffset: 0; stroke: #dddddd; stroke-width: 0.8"/>
     </g>
     <g id="line2d_30">
      <g>
       <use xlink:href="#m4aa1aeaf7b" x="62.309375" y="56.91187" style="fill: #333333; stroke: #333333; stroke-width: 0.8"/>
      </g>
     </g>
     <g id="text_16">
      <!-- −122.5 -->
      <g style="fill: #333333" transform="translate(22.002344 60.331167) scale(0.09 -0.09)">
       <use xlink:href="#DejaVuSerif-2212"/>
       <use xlink:href="#DejaVuSerif-31" transform="translate(83.789062 0)"/>
       <use xlink:href="#DejaVuSerif-32" transform="translate(147.412109 0)"/>
       <use xlink:href="#DejaVuSerif-32" transform="translate(211.035156 0)"/>
       <use xlink:href="#DejaVuSerif-2e" transform="translate(274.658203 0)"/>
       <use xlink:href="#DejaVuSerif-35" transform="translate(306.445312 0)"/>
      </g>
     </g>
    </g>
    <g id="text_17">
     <!-- Power Spectral Density (dB) -->
     <g transform="translate(15.558281 296.263984) rotate(-90) scale(0.11 -0.11)">
      <defs>
       <path id="DejaVuSerif-50" d="M 1581 2375 
L 2406 2375 
Q 2872 2375 3115 2626 
Q 3359 2878 3359 3353 
Q 3359 3831 3115 4081 
Q 2872 4331 2406 4331 
L 1581 4331 
L 1581 2375 
z
M 353 0 
L 353 331 
L 947 331 
L 947 4331 
L 353 4331 
L 353 4666 
L 2559 4666 
Q 3259 4666 3668 4311 
Q 4078 3956 4078 3353 
Q 4078 2753 3668 2397 
Q 3259 2041 2559 2041 
L 1581 2041 
L 1581 331 
L 2303 331 
L 2303 0 
L 353 0 
z
" transform="scale(0.015625)"/>
       <path id="DejaVuSerif-6f" d="M 1925 219 
Q 2388 219 2623 584 
Q 2859 950 2859 1663 
Q 2859 2375 2623 2739 
Q 2388 3103 1925 3103 
Q 1463 3103 1227 2739 
Q 991 2375 991 1663 
Q 991 950 1228 584 
Q 1466 219 1925 219 
z
M 1925 -91 
Q 1200 -91 759 389 
Q 319 869 319 1663 
Q 319 2456 758 2934 
Q 1197 3413 1925 3413 
Q 2653 3413 3092 2934 
Q 3531 2456 3531 1663 
Q 3531 869 3092 389 
Q 2653 -91 1925 -91 
z
" transform="scale(0.015625)"/>
       <path id="DejaVuSerif-77" d="M 3072 3322 
L 3922 728 
L 4672 2988 
L 4191 2988 
L 4191 3322 
L 5394 3322 
L 5394 2988 
L 5025 2988 
L 4038 0 
L 3559 0 
L 2741 2484 
L 1919 0 
L 1459 0 
L 475 2988 
L 103 2988 
L 103 3322 
L 1606 3322 
L 1606 2988 
L 1069 2988 
L 1813 728 
L 2669 3322 
L 3072 3322 
z
" transform="scale(0.015625)"/>
       <path id="DejaVuSerif-53" d="M 594 225 
L 594 1288 
L 953 1284 
Q 969 753 1261 498 
Q 1553 244 2150 244 
Q 2706 244 2998 464 
Q 3291 684 3291 1106 
Q 3291 1444 3114 1625 
Q 2938 1806 2369 1978 
L 1753 2163 
Q 1084 2366 811 2669 
Q 538 2972 538 3500 
Q 538 4094 959 4422 
Q 1381 4750 2144 4750 
Q 2469 4750 2856 4679 
Q 3244 4609 3681 4475 
L 3681 3481 
L 3328 3481 
Q 3275 3975 2998 4195 
Q 2722 4416 2156 4416 
Q 1663 4416 1405 4214 
Q 1147 4013 1147 3628 
Q 1147 3294 1340 3103 
Q 1534 2913 2163 2725 
L 2741 2553 
Q 3375 2363 3645 2067 
Q 3916 1772 3916 1275 
Q 3916 597 3481 253 
Q 3047 -91 2188 -91 
Q 1803 -91 1404 -12 
Q 1006 66 594 225 
z
" transform="scale(0.015625)"/>
       <path id="DejaVuSerif-70" d="M 1313 1825 
L 1313 1497 
Q 1313 897 1542 583 
Q 1772 269 2209 269 
Q 2650 269 2876 622 
Q 3103 975 3103 1663 
Q 3103 2353 2876 2703 
Q 2650 3053 2209 3053 
Q 1772 3053 1542 2737 
Q 1313 2422 1313 1825 
z
M 738 2988 
L 184 2988 
L 184 3322 
L 1313 3322 
L 1313 2803 
Q 1481 3116 1742 3264 
Q 2003 3413 2388 3413 
Q 3000 3413 3387 2928 
Q 3775 2444 3775 1663 
Q 3775 881 3387 395 
Q 3000 -91 2388 -91 
Q 2003 -91 1742 57 
Q 1481 206 1313 519 
L 1313 -997 
L 1856 -997 
L 1856 -1331 
L 184 -1331 
L 184 -997 
L 738 -997 
L 738 2988 
z
" transform="scale(0.015625)"/>
       <path id="DejaVuSerif-74" d="M 691 2988 
L 184 2988 
L 184 3322 
L 691 3322 
L 691 4353 
L 1269 4353 
L 1269 3322 
L 2350 3322 
L 2350 2988 
L 1269 2988 
L 1269 878 
Q 1269 456 1350 337 
Q 1431 219 1650 219 
Q 1875 219 1978 351 
Q 2081 484 2088 781 
L 2522 781 
Q 2497 328 2275 118 
Q 2053 -91 1600 -91 
Q 1103 -91 897 129 
Q 691 350 691 878 
L 691 2988 
z
" transform="scale(0.015625)"/>
       <path id="DejaVuSerif-61" d="M 2547 1044 
L 2547 1747 
L 1806 1747 
Q 1378 1747 1168 1562 
Q 959 1378 959 997 
Q 959 650 1171 447 
Q 1384 244 1747 244 
Q 2106 244 2326 466 
Q 2547 688 2547 1044 
z
M 3122 2075 
L 3122 331 
L 3634 331 
L 3634 0 
L 2547 0 
L 2547 359 
Q 2356 128 2106 18 
Q 1856 -91 1522 -91 
Q 969 -91 644 203 
Q 319 497 319 997 
Q 319 1513 691 1797 
Q 1063 2081 1741 2081 
L 2547 2081 
L 2547 2309 
Q 2547 2688 2317 2895 
Q 2088 3103 1672 3103 
Q 1328 3103 1125 2947 
Q 922 2791 872 2484 
L 575 2484 
L 575 3156 
Q 875 3284 1158 3348 
Q 1441 3413 1709 3413 
Q 2400 3413 2761 3070 
Q 3122 2728 3122 2075 
z
" transform="scale(0.015625)"/>
       <path id="DejaVuSerif-6c" d="M 1313 331 
L 1856 331 
L 1856 0 
L 184 0 
L 184 331 
L 738 331 
L 738 4531 
L 184 4531 
L 184 4863 
L 1313 4863 
L 1313 331 
z
" transform="scale(0.015625)"/>
       <path id="DejaVuSerif-44" d="M 1581 331 
L 2163 331 
Q 3072 331 3558 850 
Q 4044 1369 4044 2338 
Q 4044 3306 3559 3818 
Q 3075 4331 2163 4331 
L 1581 4331 
L 1581 331 
z
M 353 0 
L 353 331 
L 947 331 
L 947 4331 
L 353 4331 
L 353 4666 
L 2209 4666 
Q 3416 4666 4089 4050 
Q 4763 3434 4763 2338 
Q 4763 1238 4088 619 
Q 3413 0 2209 0 
L 353 0 
z
" transform="scale(0.015625)"/>
       <path id="DejaVuSerif-73" d="M 359 184 
L 359 959 
L 691 959 
Q 703 588 923 403 
Q 1144 219 1575 219 
Q 1963 219 2166 364 
Q 2369 509 2369 788 
Q 2369 1006 2220 1140 
Q 2072 1275 1594 1428 
L 1178 1569 
Q 750 1706 558 1912 
Q 366 2119 366 2438 
Q 366 2894 700 3153 
Q 1034 3413 1625 3413 
Q 1888 3413 2178 3344 
Q 2469 3275 2778 3144 
L 2778 2419 
L 2447 2419 
Q 2434 2741 2221 2922 
Q 2009 3103 1644 3103 
Q 1281 3103 1095 2975 
Q 909 2847 909 2591 
Q 909 2381 1050 2254 
Q 1191 2128 1613 1997 
L 2069 1856 
Q 2541 1709 2748 1489 
Q 2956 1269 2956 922 
Q 2956 450 2595 179 
Q 2234 -91 1600 -91 
Q 1278 -91 972 -22 
Q 666 47 359 184 
z
" transform="scale(0.015625)"/>
       <path id="DejaVuSerif-69" d="M 622 4353 
Q 622 4497 726 4603 
Q 831 4709 978 4709 
Q 1122 4709 1226 4603 
Q 1331 4497 1331 4353 
Q 1331 4206 1228 4103 
Q 1125 4000 978 4000 
Q 831 4000 726 4103 
Q 622 4206 622 4353 
z
M 1356 331 
L 1900 331 
L 1900 0 
L 231 0 
L 231 331 
L 781 331 
L 781 2988 
L 231 2988 
L 231 3322 
L 1356 3322 
L 1356 331 
z
" transform="scale(0.015625)"/>
       <path id="DejaVuSerif-64" d="M 3359 331 
L 3909 331 
L 3909 0 
L 2784 0 
L 2784 519 
Q 2616 206 2355 57 
Q 2094 -91 1709 -91 
Q 1097 -91 708 395 
Q 319 881 319 1663 
Q 319 2444 706 2928 
Q 1094 3413 1709 3413 
Q 2094 3413 2355 3264 
Q 2616 3116 2784 2803 
L 2784 4531 
L 2241 4531 
L 2241 4863 
L 3359 4863 
L 3359 331 
z
M 2784 1497 
L 2784 1825 
Q 2784 2422 2554 2737 
Q 2325 3053 1888 3053 
Q 1444 3053 1217 2703 
Q 991 2353 991 1663 
Q 991 975 1217 622 
Q 1444 269 1888 269 
Q 2325 269 2554 583 
Q 2784 897 2784 1497 
z
" transform="scale(0.015625)"/>
       <path id="DejaVuSerif-42" d="M 1581 331 
L 2516 331 
Q 3078 331 3337 575 
Q 3597 819 3597 1350 
Q 3597 1878 3339 2120 
Q 3081 2363 2516 2363 
L 1581 2363 
L 1581 331 
z
M 1581 2694 
L 2375 2694 
Q 2888 2694 3123 2891 
Q 3359 3088 3359 3513 
Q 3359 3941 3123 4136 
Q 2888 4331 2375 4331 
L 1581 4331 
L 1581 2694 
z
M 353 0 
L 353 331 
L 947 331 
L 947 4331 
L 353 4331 
L 353 4666 
L 2656 4666 
Q 3363 4666 3720 4377 
Q 4078 4088 4078 3513 
Q 4078 3097 3829 2850 
Q 3581 2603 3103 2547 
Q 3697 2472 4005 2167 
Q 4313 1863 4313 1350 
Q 4313 656 3875 328 
Q 3438 0 2509 0 
L 353 0 
z
" transform="scale(0.015625)"/>
      </defs>
      <use xlink:href="#DejaVuSerif-50"/>
      <use xlink:href="#DejaVuSerif-6f" transform="translate(63.285156 0)"/>
      <use xlink:href="#DejaVuSerif-77" transform="translate(123.490234 0)"/>
      <use xlink:href="#DejaVuSerif-65" transform="translate(209.085938 0)"/>
      <use xlink:href="#DejaVuSerif-72" transform="translate(268.265625 0)"/>
      <use xlink:href="#DejaVuSerif-20" transform="translate(316.068359 0)"/>
      <use xlink:href="#DejaVuSerif-53" transform="translate(347.855469 0)"/>
      <use xlink:href="#DejaVuSerif-70" transform="translate(416.361328 0)"/>
      <use xlink:href="#DejaVuSerif-65" transform="translate(480.375 0)"/>
      <use xlink:href="#DejaVuSerif-63" transform="translate(539.554688 0)"/>
      <use xlink:href="#DejaVuSerif-74" transform="translate(595.560547 0)"/>
      <use xlink:href="#DejaVuSerif-72" transform="translate(635.746094 0)"/>
      <use xlink:href="#DejaVuSerif-61" transform="translate(683.548828 0)"/>
      <use xlink:href="#DejaVuSerif-6c" transform="translate(743.167969 0)"/>
      <use xlink:href="#DejaVuSerif-20" transform="translate(775.150391 0)"/>
      <use xlink:href="#DejaVuSerif-44" transform="translate(806.9375 0)"/>
      <use xlink:href="#DejaVuSerif-65" transform="translate(887.113281 0)"/>
      <use xlink:href="#DejaVuSerif-6e" transform="translate(946.292969 0)"/>
      <use xlink:href="#DejaVuSerif-73" transform="translate(1010.697266 0)"/>
      <use xlink:href="#DejaVuSerif-69" transform="translate(1062.015625 0)"/>
      <use xlink:href="#DejaVuSerif-74" transform="translate(1093.998047 0)"/>
      <use xlink:href="#DejaVuSerif-79" transform="translate(1134.183594 0)"/>
      <use xlink:href="#DejaVuSerif-20" transform="translate(1190.677734 0)"/>
      <use xlink:href="#DejaVuSerif-28" transform="translate(1222.464844 0)"/>
      <use xlink:href="#DejaVuSerif-64" transform="translate(1261.478516 0)"/>
      <use xlink:href="#DejaVuSerif-42" transform="translate(1325.492188 0)"/>
      <use xlink:href="#DejaVuSerif-29" transform="translate(1398.978516 0)"/>
     </g>
    </g>
   </g>
   <g id="line2d_31">
    <path d="M 92.745739 40.774844 
L 101.200284 50.215031 
L 109.65483 58.753315 
L 118.109375 67.247601 
L 126.56392 75.485093 
L 135.018466 82.347219 
L 143.473011 87.86064 
L 151.927557 92.131612 
L 160.382102 93.614511 
L 168.836648 90.385145 
L 177.291193 82.352341 
L 185.745739 72.087552 
L 194.200284 63.305849 
L 202.65483 59.314105 
L 211.109375 61.095648 
L 219.56392 67.230165 
L 228.018466 75.501882 
L 236.473011 83.463235 
L 244.927557 89.199339 
L 253.382102 92.546264 
L 261.836648 94.817477 
L 270.291193 96.944891 
L 278.745739 98.826586 
L 287.200284 100.290434 
L 295.65483 101.978206 
L 304.109375 105.011562 
L 312.56392 110.284525 
L 321.018466 117.089588 
L 329.473011 124.035383 
L 337.927557 130.691496 
L 346.382102 137.717888 
L 354.836648 145.472533 
L 363.291193 153.539775 
L 371.745739 161.700664 
L 380.200284 170.30989 
L 388.65483 178.869557 
L 397.109375 187.08212 
L 405.56392 195.313073 
L 414.018466 203.620108 
L 422.473011 211.652414 
L 430.927557 219.290915 
L 439.382102 226.434489 
L 447.836648 232.628277 
L 456.291193 238.178767 
L 464.745739 243.687884 
L 473.200284 248.871368 
L 481.65483 253.254066 
L 490.109375 257.055296 
L 498.56392 260.813075 
L 507.018466 264.645964 
L 515.473011 268.395667 
L 523.927557 272.414922 
L 532.382102 277.164679 
L 540.836648 282.27284 
L 549.291193 286.740155 
L 557.745739 290.458892 
L 566.200284 294.342145 
L 574.65483 298.48615 
L 583.109375 302.787191 
L 591.56392 306.929482 
L 600.018466 310.663572 
L 608.473011 313.906509 
L 616.927557 317.315654 
L 625.382102 320.962045 
L 633.836648 324.633248 
L 642.291193 328.561534 
L 650.745739 332.158442 
L 659.200284 334.844489 
L 667.65483 336.748435 
L 676.109375 338.733249 
L 684.56392 341.229383 
L 693.018466 343.604534 
L 701.473011 345.778598 
" clip-path="url(#p99fecc364e)" style="fill: none; stroke: #1f77b4; stroke-width: 1.5; stroke-linecap: square"/>
   </g>
   <g id="line2d_32">
    <path d="M 92.745739 45.966623 
L 101.200284 55.666668 
L 109.65483 63.888014 
L 118.109375 71.101479 
L 126.56392 77.107465 
L 135.018466 82.685598 
L 143.473011 87.655602 
L 151.927557 91.252091 
L 160.382102 92.186952 
L 168.836648 87.782306 
L 177.291193 77.422789 
L 185.745739 66.305592 
L 194.200284 59.203859 
L 202.65483 58.261268 
L 211.109375 62.176564 
L 219.56392 69.520743 
L 228.018466 78.732318 
L 236.473011 87.839726 
L 244.927557 94.648441 
L 253.382102 99.582382 
L 261.836648 104.078792 
L 270.291193 107.195537 
L 278.745739 106.005237 
L 287.200284 102.010487 
L 295.65483 101.001427 
L 304.109375 104.437241 
L 312.56392 109.391344 
L 321.018466 113.924386 
L 329.473011 119.447622 
L 337.927557 127.108648 
L 346.382102 136.230247 
L 354.836648 144.697012 
L 363.291193 152.170528 
L 371.745739 160.321478 
L 380.200284 170.564125 
L 388.65483 181.455324 
L 397.109375 190.20909 
L 405.56392 197.399362 
L 414.018466 205.261514 
L 422.473011 213.581999 
L 430.927557 221.33874 
L 439.382102 228.157477 
L 447.836648 234.770223 
L 456.291193 241.966329 
L 464.745739 248.305897 
L 473.200284 252.762042 
L 481.65483 255.714831 
L 490.109375 258.285164 
L 498.56392 262.268121 
L 507.018466 267.255762 
L 515.473011 272.229017 
L 523.927557 276.696009 
L 532.382102 280.440376 
L 540.836648 283.599084 
L 549.291193 286.614532 
L 557.745739 289.957844 
L 566.200284 294.126956 
L 574.65483 299.059871 
L 583.109375 304.622017 
L 591.56392 310.178718 
L 600.018466 314.272606 
L 608.473011 317.345937 
L 616.927557 320.505232 
L 625.382102 324.041105 
L 633.836648 327.388027 
L 642.291193 330.362598 
L 650.745739 333.561906 
L 659.200284 337.258964 
L 667.65483 340.780218 
L 676.109375 343.880016 
L 684.56392 346.384129 
L 693.018466 348.90318 
L 701.473011 350.612131 
" clip-path="url(#p99fecc364e)" style="fill: none; stroke: #d62728; stroke-width: 1.5; stroke-linecap: square"/>
   </g>
   <g id="line2d_33">
    <path d="M 92.745739 46.513736 
L 101.200284 58.894327 
L 109.65483 67.199776 
L 118.109375 72.923405 
L 126.56392 78.238897 
L 135.018466 83.781168 
L 143.473011 90.05721 
L 151.927557 94.920815 
L 160.382102 93.574029 
L 168.836648 84.353749 
L 177.291193 72.6178 
L 185.745739 62.350767 
L 194.200284 55.141673 
L 202.65483 54.424417 
L 211.109375 59.294747 
L 219.56392 65.904185 
L 228.018466 73.873704 
L 236.473011 83.308491 
L 244.927557 92.87798 
L 253.382102 100.391732 
L 261.836648 104.338302 
L 270.291193 105.755002 
L 278.745739 106.724667 
L 287.200284 107.927366 
L 295.65483 109.104692 
L 304.109375 109.463444 
L 312.56392 110.813167 
L 321.018466 115.15067 
L 329.473011 122.669344 
L 337.927557 131.869958 
L 346.382102 140.07698 
L 354.836648 146.75465 
L 363.291193 152.967661 
L 371.745739 160.63635 
L 380.200284 170.21797 
L 388.65483 180.642194 
L 397.109375 190.633053 
L 405.56392 198.622713 
L 414.018466 206.751401 
L 422.473011 216.226365 
L 430.927557 225.625431 
L 439.382102 233.565451 
L 447.836648 240.927437 
L 456.291193 247.792852 
L 464.745739 252.89563 
L 473.200284 256.393304 
L 481.65483 260.247875 
L 490.109375 264.884021 
L 498.56392 269.495705 
L 507.018466 273.267487 
L 515.473011 277.502379 
L 523.927557 282.919529 
L 532.382102 287.973385 
L 540.836648 291.653033 
L 549.291193 295.418396 
L 557.745739 300.748593 
L 566.200284 305.417117 
L 574.65483 308.399177 
L 583.109375 312.406436 
L 591.56392 317.791054 
L 600.018466 322.174108 
L 608.473011 325.989926 
L 616.927557 330.64815 
L 625.382102 335.271374 
L 633.836648 339.816931 
L 642.291193 344.720405 
L 650.745739 349.214342 
L 659.200284 352.036274 
L 667.65483 353.265089 
L 676.109375 353.966074 
L 684.56392 356.12004 
L 693.018466 360.859209 
L 701.473011 365.648553 
" clip-path="url(#p99fecc364e)" style="fill: none; stroke: #e377c2; stroke-width: 1.5; stroke-linecap: square"/>
   </g>
   <g id="line2d_34">
    <path d="M 92.745739 53.180616 
L 101.200284 67.35328 
L 109.65483 74.592774 
L 118.109375 78.608874 
L 126.56392 83.034277 
L 135.018466 87.267756 
L 143.473011 89.993575 
L 151.927557 91.214207 
L 160.382102 93.057507 
L 168.836648 95.925046 
L 177.291193 96.428775 
L 185.745739 91.917875 
L 194.200284 85.132824 
L 202.65483 81.770382 
L 211.109375 84.481474 
L 219.56392 90.708691 
L 228.018466 97.604793 
L 236.473011 102.433718 
L 244.927557 105.329608 
L 253.382102 107.415714 
L 261.836648 110.284518 
L 270.291193 113.546888 
L 278.745739 116.166311 
L 287.200284 118.283566 
L 295.65483 120.251111 
L 304.109375 122.092004 
L 312.56392 123.923684 
L 321.018466 127.03371 
L 329.473011 132.457017 
L 337.927557 139.521927 
L 346.382102 147.493409 
L 354.836648 157.585557 
L 363.291193 169.73379 
L 371.745739 179.836334 
L 380.200284 186.221864 
L 388.65483 193.167991 
L 397.109375 200.764384 
L 405.56392 205.098653 
L 414.018466 208.842715 
L 422.473011 215.962906 
L 430.927557 224.851403 
L 439.382102 232.200622 
L 447.836648 238.543276 
L 456.291193 245.696217 
L 464.745739 253.348313 
L 473.200284 259.829979 
L 481.65483 264.051318 
L 490.109375 267.321609 
L 498.56392 272.150502 
L 507.018466 278.774563 
L 515.473011 283.780466 
L 523.927557 285.430536 
L 532.382102 287.311929 
L 540.836648 292.410703 
L 549.291193 297.994734 
L 557.745739 302.119007 
L 566.200284 305.896542 
L 574.65483 310.625273 
L 583.109375 316.519631 
L 591.56392 321.883576 
L 600.018466 325.069356 
L 608.473011 328.147545 
L 616.927557 332.568338 
L 625.382102 337.584625 
L 633.836648 342.194978 
L 642.291193 347.834929 
L 650.745739 354.03711 
L 659.200284 356.862066 
L 667.65483 355.84228 
L 676.109375 355.509902 
L 684.56392 357.657104 
L 693.018466 360.490409 
L 701.473011 363.463023 
" clip-path="url(#p99fecc364e)" style="fill: none; stroke: #17becf; stroke-width: 1.5; stroke-linecap: square"/>
   </g>
   <g id="patch_3">
    <path d="M 62.309375 411.214844 
L 62.309375 23.134844 
" style="fill: none; stroke: #333333; stroke-linejoin: miter; stroke-linecap: square"/>
   </g>
   <g id="patch_4">
    <path d="M 62.309375 411.214844 
L 731.909375 411.214844 
" style="fill: none; stroke: #333333; stroke-linejoin: miter; stroke-linecap: square"/>
   </g>
   <g id="text_18">
    <!-- Dataset: Jin et al. (2019) | Subject: 6 | Session: 1 | All Task-State PSDs -->
    <g transform="translate(165.692109 17.134844) scale(0.13 -0.13)">
     <defs>
      <path id="DejaVuSerif-3a" d="M 666 325 
Q 666 500 786 622 
Q 906 744 1081 744 
Q 1256 744 1376 622 
Q 1497 500 1497 325 
Q 1497 150 1378 29 
Q 1259 -91 1081 -91 
Q 903 -91 784 29 
Q 666 150 666 325 
z
M 666 2363 
Q 666 2538 786 2658 
Q 906 2778 1081 2778 
Q 1259 2778 1378 2659 
Q 1497 2541 1497 2363 
Q 1497 2184 1378 2065 
Q 1259 1947 1081 1947 
Q 906 1947 786 2067 
Q 666 2188 666 2363 
z
" transform="scale(0.015625)"/>
      <path id="DejaVuSerif-4a" d="M -538 -1119 
L -538 -384 
L -181 -384 
Q -172 -694 -34 -845 
Q 103 -997 378 -997 
Q 750 -997 897 -762 
Q 1044 -528 1044 153 
L 1044 4331 
L 319 4331 
L 319 4666 
L 2272 4666 
L 2272 4331 
L 1678 4331 
L 1678 128 
Q 1678 -644 1368 -987 
Q 1059 -1331 372 -1331 
Q 150 -1331 -79 -1278 
Q -309 -1225 -538 -1119 
z
" transform="scale(0.015625)"/>
      <path id="DejaVuSerif-39" d="M 2994 2091 
Q 2784 1856 2512 1740 
Q 2241 1625 1900 1625 
Q 1206 1625 804 2044 
Q 403 2463 403 3188 
Q 403 3897 839 4323 
Q 1275 4750 2003 4750 
Q 2794 4750 3217 4161 
Q 3641 3572 3641 2478 
Q 3641 1253 3137 581 
Q 2634 -91 1722 -91 
Q 1475 -91 1203 -44 
Q 931 3 647 97 
L 647 872 
L 997 872 
Q 1038 556 1241 387 
Q 1444 219 1784 219 
Q 2391 219 2687 676 
Q 2984 1134 2994 2091 
z
M 1978 4441 
Q 1534 4441 1298 4117 
Q 1063 3794 1063 3188 
Q 1063 2581 1298 2256 
Q 1534 1931 1978 1931 
Q 2422 1931 2658 2245 
Q 2894 2559 2894 3150 
Q 2894 3772 2656 4106 
Q 2419 4441 1978 4441 
z
" transform="scale(0.015625)"/>
      <path id="DejaVuSerif-7c" d="M 1331 4891 
L 1331 -1509 
L 825 -1509 
L 825 4891 
L 1331 4891 
z
" transform="scale(0.015625)"/>
      <path id="DejaVuSerif-62" d="M 738 331 
L 738 4531 
L 184 4531 
L 184 4863 
L 1313 4863 
L 1313 2803 
Q 1481 3116 1742 3264 
Q 2003 3413 2388 3413 
Q 3000 3413 3387 2928 
Q 3775 2444 3775 1663 
Q 3775 881 3387 395 
Q 3000 -91 2388 -91 
Q 2003 -91 1742 57 
Q 1481 206 1313 519 
L 1313 0 
L 184 0 
L 184 331 
L 738 331 
z
M 1313 1497 
Q 1313 897 1542 583 
Q 1772 269 2209 269 
Q 2650 269 2876 622 
Q 3103 975 3103 1663 
Q 3103 2353 2876 2703 
Q 2650 3053 2209 3053 
Q 1772 3053 1542 2737 
Q 1313 2422 1313 1825 
L 1313 1497 
z
" transform="scale(0.015625)"/>
      <path id="DejaVuSerif-6a" d="M 641 4353 
Q 641 4497 745 4603 
Q 850 4709 997 4709 
Q 1141 4709 1245 4603 
Q 1350 4497 1350 4353 
Q 1350 4206 1248 4103 
Q 1147 4000 997 4000 
Q 850 4000 745 4103 
Q 641 4206 641 4353 
z
M 781 2988 
L 238 2988 
L 238 3322 
L 1356 3322 
L 1356 -325 
Q 1356 -838 1051 -1130 
Q 747 -1422 213 -1422 
Q -13 -1422 -217 -1370 
Q -422 -1319 -616 -1216 
L -616 -531 
L -319 -531 
Q -297 -831 -164 -972 
Q -31 -1113 225 -1113 
Q 509 -1113 645 -920 
Q 781 -728 781 -325 
L 781 2988 
z
" transform="scale(0.015625)"/>
      <path id="DejaVuSerif-36" d="M 2094 219 
Q 2534 219 2771 542 
Q 3009 866 3009 1472 
Q 3009 2078 2771 2401 
Q 2534 2725 2094 2725 
Q 1647 2725 1412 2412 
Q 1178 2100 1178 1509 
Q 1178 888 1415 553 
Q 1653 219 2094 219 
z
M 1075 2569 
Q 1288 2803 1556 2918 
Q 1825 3034 2163 3034 
Q 2859 3034 3264 2615 
Q 3669 2197 3669 1472 
Q 3669 763 3233 336 
Q 2797 -91 2069 -91 
Q 1278 -91 853 498 
Q 428 1088 428 2181 
Q 428 3406 931 4078 
Q 1434 4750 2350 4750 
Q 2597 4750 2869 4703 
Q 3141 4656 3425 4563 
L 3425 3794 
L 3072 3794 
Q 3034 4109 2831 4275 
Q 2628 4441 2284 4441 
Q 1678 4441 1381 3981 
Q 1084 3522 1075 2569 
z
" transform="scale(0.015625)"/>
      <path id="DejaVuSerif-41" d="M 1281 1691 
L 2994 1691 
L 2138 3909 
L 1281 1691 
z
M -38 0 
L -38 331 
L 372 331 
L 2034 4666 
L 2559 4666 
L 4225 331 
L 4684 331 
L 4684 0 
L 2988 0 
L 2988 331 
L 3506 331 
L 3116 1356 
L 1153 1356 
L 763 331 
L 1275 331 
L 1275 0 
L -38 0 
z
" transform="scale(0.015625)"/>
      <path id="DejaVuSerif-54" d="M 1222 0 
L 1222 331 
L 1819 331 
L 1819 4294 
L 447 4294 
L 447 3566 
L 63 3566 
L 63 4666 
L 4206 4666 
L 4206 3566 
L 3822 3566 
L 3822 4294 
L 2450 4294 
L 2450 331 
L 3047 331 
L 3047 0 
L 1222 0 
z
" transform="scale(0.015625)"/>
      <path id="DejaVuSerif-6b" d="M 1831 0 
L 219 0 
L 219 331 
L 738 331 
L 738 4531 
L 184 4531 
L 184 4863 
L 1313 4863 
L 1313 1697 
L 2713 2988 
L 2234 2988 
L 2234 3322 
L 3738 3322 
L 3738 2988 
L 3169 2988 
L 2181 2075 
L 3444 331 
L 3922 331 
L 3922 0 
L 2284 0 
L 2284 331 
L 2759 331 
L 1766 1697 
L 1313 1275 
L 1313 331 
L 1831 331 
L 1831 0 
z
" transform="scale(0.015625)"/>
      <path id="DejaVuSerif-2d" d="M 281 1959 
L 1881 1959 
L 1881 1472 
L 281 1472 
L 281 1959 
z
" transform="scale(0.015625)"/>
     </defs>
     <use xlink:href="#DejaVuSerif-44"/>
     <use xlink:href="#DejaVuSerif-61" transform="translate(80.175781 0)"/>
     <use xlink:href="#DejaVuSerif-74" transform="translate(139.794922 0)"/>
     <use xlink:href="#DejaVuSerif-61" transform="translate(179.980469 0)"/>
     <use xlink:href="#DejaVuSerif-73" transform="translate(239.599609 0)"/>
     <use xlink:href="#DejaVuSerif-65" transform="translate(290.917969 0)"/>
     <use xlink:href="#DejaVuSerif-74" transform="translate(350.097656 0)"/>
     <use xlink:href="#DejaVuSerif-3a" transform="translate(390.283203 0)"/>
     <use xlink:href="#DejaVuSerif-20" transform="translate(423.974609 0)"/>
     <use xlink:href="#DejaVuSerif-4a" transform="translate(455.761719 0)"/>
     <use xlink:href="#DejaVuSerif-69" transform="translate(495.849609 0)"/>
     <use xlink:href="#DejaVuSerif-6e" transform="translate(527.832031 0)"/>
     <use xlink:href="#DejaVuSerif-20" transform="translate(592.236328 0)"/>
     <use xlink:href="#DejaVuSerif-65" transform="translate(624.023438 0)"/>
     <use xlink:href="#DejaVuSerif-74" transform="translate(683.203125 0)"/>
     <use xlink:href="#DejaVuSerif-20" transform="translate(723.388672 0)"/>
     <use xlink:href="#DejaVuSerif-61" transform="translate(755.175781 0)"/>
     <use xlink:href="#DejaVuSerif-6c" transform="translate(814.794922 0)"/>
     <use xlink:href="#DejaVuSerif-2e" transform="translate(846.777344 0)"/>
     <use xlink:href="#DejaVuSerif-20" transform="translate(878.564453 0)"/>
     <use xlink:href="#DejaVuSerif-28" transform="translate(910.351562 0)"/>
     <use xlink:href="#DejaVuSerif-32" transform="translate(949.365234 0)"/>
     <use xlink:href="#DejaVuSerif-30" transform="translate(1012.988281 0)"/>
     <use xlink:href="#DejaVuSerif-31" transform="translate(1076.611328 0)"/>
     <use xlink:href="#DejaVuSerif-39" transform="translate(1140.234375 0)"/>
     <use xlink:href="#DejaVuSerif-29" transform="translate(1203.857422 0)"/>
     <use xlink:href="#DejaVuSerif-20" transform="translate(1242.871094 0)"/>
     <use xlink:href="#DejaVuSerif-7c" transform="translate(1274.658203 0)"/>
     <use xlink:href="#DejaVuSerif-20" transform="translate(1308.349609 0)"/>
     <use xlink:href="#DejaVuSerif-53" transform="translate(1340.136719 0)"/>
     <use xlink:href="#DejaVuSerif-75" transform="translate(1408.642578 0)"/>
     <use xlink:href="#DejaVuSerif-62" transform="translate(1473.046875 0)"/>
     <use xlink:href="#DejaVuSerif-6a" transform="translate(1537.060547 0)"/>
     <use xlink:href="#DejaVuSerif-65" transform="translate(1568.066406 0)"/>
     <use xlink:href="#DejaVuSerif-63" transform="translate(1627.246094 0)"/>
     <use xlink:href="#DejaVuSerif-74" transform="translate(1683.251953 0)"/>
     <use xlink:href="#DejaVuSerif-3a" transform="translate(1723.4375 0)"/>
     <use xlink:href="#DejaVuSerif-20" transform="translate(1757.128906 0)"/>
     <use xlink:href="#DejaVuSerif-36" transform="translate(1788.916016 0)"/>
     <use xlink:href="#DejaVuSerif-20" transform="translate(1852.539062 0)"/>
     <use xlink:href="#DejaVuSerif-7c" transform="translate(1884.326172 0)"/>
     <use xlink:href="#DejaVuSerif-20" transform="translate(1918.017578 0)"/>
     <use xlink:href="#DejaVuSerif-53" transform="translate(1949.804688 0)"/>
     <use xlink:href="#DejaVuSerif-65" transform="translate(2018.310547 0)"/>
     <use xlink:href="#DejaVuSerif-73" transform="translate(2077.490234 0)"/>
     <use xlink:href="#DejaVuSerif-73" transform="translate(2128.808594 0)"/>
     <use xlink:href="#DejaVuSerif-69" transform="translate(2180.126953 0)"/>
     <use xlink:href="#DejaVuSerif-6f" transform="translate(2212.109375 0)"/>
     <use xlink:href="#DejaVuSerif-6e" transform="translate(2272.314453 0)"/>
     <use xlink:href="#DejaVuSerif-3a" transform="translate(2336.71875 0)"/>
     <use xlink:href="#DejaVuSerif-20" transform="translate(2370.410156 0)"/>
     <use xlink:href="#DejaVuSerif-31" transform="translate(2402.197266 0)"/>
     <use xlink:href="#DejaVuSerif-20" transform="translate(2465.820312 0)"/>
     <use xlink:href="#DejaVuSerif-7c" transform="translate(2497.607422 0)"/>
     <use xlink:href="#DejaVuSerif-20" transform="translate(2531.298828 0)"/>
     <use xlink:href="#DejaVuSerif-41" transform="translate(2563.085938 0)"/>
     <use xlink:href="#DejaVuSerif-6c" transform="translate(2635.302734 0)"/>
     <use xlink:href="#DejaVuSerif-6c" transform="translate(2667.285156 0)"/>
     <use xlink:href="#DejaVuSerif-20" transform="translate(2699.267578 0)"/>
     <use xlink:href="#DejaVuSerif-54" transform="translate(2731.054688 0)"/>
     <use xlink:href="#DejaVuSerif-61" transform="translate(2790.003906 0)"/>
     <use xlink:href="#DejaVuSerif-73" transform="translate(2849.623047 0)"/>
     <use xlink:href="#DejaVuSerif-6b" transform="translate(2900.941406 0)"/>
     <use xlink:href="#DejaVuSerif-2d" transform="translate(2959.787109 0)"/>
     <use xlink:href="#DejaVuSerif-53" transform="translate(2993.576172 0)"/>
     <use xlink:href="#DejaVuSerif-74" transform="translate(3062.082031 0)"/>
     <use xlink:href="#DejaVuSerif-61" transform="translate(3102.267578 0)"/>
     <use xlink:href="#DejaVuSerif-74" transform="translate(3161.886719 0)"/>
     <use xlink:href="#DejaVuSerif-65" transform="translate(3202.072266 0)"/>
     <use xlink:href="#DejaVuSerif-20" transform="translate(3261.251953 0)"/>
     <use xlink:href="#DejaVuSerif-50" transform="translate(3293.039062 0)"/>
     <use xlink:href="#DejaVuSerif-53" transform="translate(3360.324219 0)"/>
     <use xlink:href="#DejaVuSerif-44" transform="translate(3428.830078 0)"/>
     <use xlink:href="#DejaVuSerif-73" transform="translate(3509.005859 0)"/>
    </g>
   </g>
   <g id="legend_1">
    <g id="line2d_35">
     <path d="M 644.764063 36.233281 
L 654.764063 36.233281 
L 664.764063 36.233281 
" style="fill: none; stroke: #1f77b4; stroke-width: 1.5; stroke-linecap: square"/>
    </g>
    <g id="text_19">
     <!-- vs - MW -->
     <g transform="translate(672.764063 39.733281) scale(0.1 -0.1)">
      <defs>
       <path id="DejaVuSerif-76" d="M 1581 0 
L 359 2988 
L -19 2988 
L -19 3322 
L 1509 3322 
L 1509 2988 
L 978 2988 
L 1913 703 
L 2847 2988 
L 2350 2988 
L 2350 3322 
L 3597 3322 
L 3597 2988 
L 3225 2988 
L 2003 0 
L 1581 0 
z
" transform="scale(0.015625)"/>
       <path id="DejaVuSerif-4d" d="M 353 0 
L 353 331 
L 947 331 
L 947 4331 
L 319 4331 
L 319 4666 
L 1678 4666 
L 3316 1344 
L 4953 4666 
L 6228 4666 
L 6228 4331 
L 5606 4331 
L 5606 331 
L 6203 331 
L 6203 0 
L 4378 0 
L 4378 331 
L 4972 331 
L 4972 3938 
L 3372 684 
L 2931 684 
L 1331 3938 
L 1331 331 
L 1925 331 
L 1925 0 
L 353 0 
z
" transform="scale(0.015625)"/>
       <path id="DejaVuSerif-57" d="M 4878 0 
L 4366 0 
L 3297 3794 
L 2228 0 
L 1716 0 
L 494 4331 
L 31 4331 
L 31 4666 
L 1734 4666 
L 1734 4331 
L 1153 4331 
L 2125 884 
L 3188 4666 
L 3694 4666 
L 4775 844 
L 5753 4331 
L 5216 4331 
L 5216 4666 
L 6559 4666 
L 6559 4331 
L 6100 4331 
L 4878 0 
z
" transform="scale(0.015625)"/>
      </defs>
      <use xlink:href="#DejaVuSerif-76"/>
      <use xlink:href="#DejaVuSerif-73" transform="translate(56.494141 0)"/>
      <use xlink:href="#DejaVuSerif-20" transform="translate(107.8125 0)"/>
      <use xlink:href="#DejaVuSerif-2d" transform="translate(139.599609 0)"/>
      <use xlink:href="#DejaVuSerif-20" transform="translate(173.388672 0)"/>
      <use xlink:href="#DejaVuSerif-4d" transform="translate(205.175781 0)"/>
      <use xlink:href="#DejaVuSerif-57" transform="translate(307.568359 0)"/>
     </g>
    </g>
    <g id="line2d_36">
     <path d="M 644.764063 50.911406 
L 654.764063 50.911406 
L 664.764063 50.911406 
" style="fill: none; stroke: #d62728; stroke-width: 1.5; stroke-linecap: square"/>
    </g>
    <g id="text_20">
     <!-- vs - OT -->
     <g transform="translate(672.764063 54.411406) scale(0.1 -0.1)">
      <defs>
       <path id="DejaVuSerif-4f" d="M 2625 244 
Q 3391 244 3781 770 
Q 4172 1297 4172 2328 
Q 4172 3363 3781 3889 
Q 3391 4416 2625 4416 
Q 1856 4416 1465 3889 
Q 1075 3363 1075 2328 
Q 1075 1297 1465 770 
Q 1856 244 2625 244 
z
M 2625 -91 
Q 2150 -91 1751 65 
Q 1353 222 1050 525 
Q 700 875 529 1319 
Q 359 1763 359 2328 
Q 359 2894 529 3339 
Q 700 3784 1050 4134 
Q 1356 4441 1750 4595 
Q 2144 4750 2625 4750 
Q 3641 4750 4266 4084 
Q 4891 3419 4891 2328 
Q 4891 1769 4719 1320 
Q 4547 872 4197 525 
Q 3891 219 3497 64 
Q 3103 -91 2625 -91 
z
" transform="scale(0.015625)"/>
      </defs>
      <use xlink:href="#DejaVuSerif-76"/>
      <use xlink:href="#DejaVuSerif-73" transform="translate(56.494141 0)"/>
      <use xlink:href="#DejaVuSerif-20" transform="translate(107.8125 0)"/>
      <use xlink:href="#DejaVuSerif-2d" transform="translate(139.599609 0)"/>
      <use xlink:href="#DejaVuSerif-20" transform="translate(173.388672 0)"/>
      <use xlink:href="#DejaVuSerif-4f" transform="translate(205.175781 0)"/>
      <use xlink:href="#DejaVuSerif-54" transform="translate(287.158203 0)"/>
     </g>
    </g>
    <g id="line2d_37">
     <path d="M 644.764063 65.589531 
L 654.764063 65.589531 
L 664.764063 65.589531 
" style="fill: none; stroke: #e377c2; stroke-width: 1.5; stroke-linecap: square"/>
    </g>
    <g id="text_21">
     <!-- sart - MW -->
     <g transform="translate(672.764063 69.089531) scale(0.1 -0.1)">
      <use xlink:href="#DejaVuSerif-73"/>
      <use xlink:href="#DejaVuSerif-61" transform="translate(51.318359 0)"/>
      <use xlink:href="#DejaVuSerif-72" transform="translate(110.9375 0)"/>
      <use xlink:href="#DejaVuSerif-74" transform="translate(158.740234 0)"/>
      <use xlink:href="#DejaVuSerif-20" transform="translate(198.925781 0)"/>
      <use xlink:href="#DejaVuSerif-2d" transform="translate(230.712891 0)"/>
      <use xlink:href="#DejaVuSerif-20" transform="translate(264.501953 0)"/>
      <use xlink:href="#DejaVuSerif-4d" transform="translate(296.289062 0)"/>
      <use xlink:href="#DejaVuSerif-57" transform="translate(398.681641 0)"/>
     </g>
    </g>
    <g id="line2d_38">
     <path d="M 644.764063 80.267656 
L 654.764063 80.267656 
L 664.764063 80.267656 
" style="fill: none; stroke: #17becf; stroke-width: 1.5; stroke-linecap: square"/>
    </g>
    <g id="text_22">
     <!-- sart - OT -->
     <g transform="translate(672.764063 83.767656) scale(0.1 -0.1)">
      <use xlink:href="#DejaVuSerif-73"/>
      <use xlink:href="#DejaVuSerif-61" transform="translate(51.318359 0)"/>
      <use xlink:href="#DejaVuSerif-72" transform="translate(110.9375 0)"/>
      <use xlink:href="#DejaVuSerif-74" transform="translate(158.740234 0)"/>
      <use xlink:href="#DejaVuSerif-20" transform="translate(198.925781 0)"/>
      <use xlink:href="#DejaVuSerif-2d" transform="translate(230.712891 0)"/>
      <use xlink:href="#DejaVuSerif-20" transform="translate(264.501953 0)"/>
      <use xlink:href="#DejaVuSerif-4f" transform="translate(296.289062 0)"/>
      <use xlink:href="#DejaVuSerif-54" transform="translate(378.271484 0)"/>
     </g>
    </g>
   </g>
  </g>
 </g>
 <defs>
  <clipPath id="p99fecc364e">
   <rect x="62.309375" y="23.134844" width="669.6" height="388.08"/>
  </clipPath>
 </defs>
</svg>
