<?xml version="1.0" encoding="utf-8" standalone="no"?>
<!DOCTYPE svg PUBLIC "-//W3C//DTD SVG 1.1//EN"
  "http://www.w3.org/Graphics/SVG/1.1/DTD/svg11.dtd">
<svg xmlns:xlink="http://www.w3.org/1999/xlink" width="739.109375pt" height="448.9275pt" viewBox="0 0 739.109375 448.9275" xmlns="http://www.w3.org/2000/svg" version="1.1">
 <metadata>
  <rdf:RDF xmlns:dc="http://purl.org/dc/elements/1.1/" xmlns:cc="http://creativecommons.org/ns#" xmlns:rdf="http://www.w3.org/1999/02/22-rdf-syntax-ns#">
   <cc:Work>
    <dc:type rdf:resource="http://purl.org/dc/dcmitype/StillImage"/>
    <dc:date>2025-05-30T20:16:03.537134</dc:date>
    <dc:format>image/svg+xml</dc:format>
    <dc:creator>
     <cc:Agent>
      <dc:title>Matplotlib v3.10.3, https://matplotlib.org/</dc:title>
     </cc:Agent>
    </dc:creator>
   </cc:Work>
  </rdf:RDF>
 </metadata>
 <defs>
  <style type="text/css">*{stroke-linejoin: round; stroke-linecap: butt}</style>
 </defs>
 <g id="figure_1">
  <g id="patch_1">
   <path d="M 0 448.9275 
L 739.109375 448.9275 
L 739.109375 0 
L 0 0 
z
" style="fill: #ffffff"/>
  </g>
  <g id="axes_1">
   <g id="patch_2">
    <path d="M 62.309375 411.214844 
L 731.909375 411.214844 
L 731.909375 23.134844 
L 62.309375 23.134844 
z
" style="fill: #ffffff"/>
   </g>
   <g id="FillBetweenPolyCollection_1">
    <defs>
     <path id="md051658dbb" d="M 92.745739 -280.879624 
L 92.745739 -280.879624 
L 101.200284 -272.70627 
L 109.65483 -265.905953 
L 118.109375 -261.451469 
L 126.56392 -258.721141 
L 135.018466 -256.375044 
L 143.473011 -254.348905 
L 151.927557 -253.757602 
L 160.382102 -256.799941 
L 168.836648 -265.661678 
L 177.291193 -281.226394 
L 185.745739 -303.700639 
L 194.200284 -331.532281 
L 202.65483 -361.378153 
L 211.109375 -386.538672 
L 219.56392 -399.393983 
L 228.018466 -395.753993 
L 236.473011 -375.207333 
L 244.927557 -340.78724 
L 253.382102 -300.679714 
L 261.836648 -265.658204 
L 270.291193 -240.226604 
L 278.745739 -222.73277 
L 287.200284 -211.035702 
L 295.65483 -202.706903 
L 304.109375 -196.997121 
L 312.56392 -193.466586 
L 321.018466 -190.980765 
L 329.473011 -188.736034 
L 337.927557 -186.793624 
L 346.382102 -185.837251 
L 354.836648 -185.540876 
L 363.291193 -185.501682 
L 371.745739 -185.841986 
L 380.200284 -186.338861 
L 388.65483 -187.230157 
L 397.109375 -188.799032 
L 405.56392 -190.741546 
L 414.018466 -191.571336 
L 422.473011 -189.645587 
L 430.927557 -184.209932 
L 439.382102 -175.138684 
L 447.836648 -163.124378 
L 456.291193 -150.165173 
L 464.745739 -139.033552 
L 473.200284 -130.812957 
L 481.65483 -124.969705 
L 490.109375 -120.88985 
L 498.56392 -118.287191 
L 507.018466 -116.30196 
L 515.473011 -115.096402 
L 523.927557 -114.707022 
L 532.382102 -114.606724 
L 540.836648 -114.492585 
L 549.291193 -113.784435 
L 557.745739 -112.730374 
L 566.200284 -111.892233 
L 574.65483 -111.708635 
L 583.109375 -112.385457 
L 591.56392 -113.235134 
L 600.018466 -113.475434 
L 608.473011 -113.21985 
L 616.927557 -112.342081 
L 625.382102 -110.901923 
L 633.836648 -109.253168 
L 642.291193 -107.635277 
L 650.745739 -105.783431 
L 659.200284 -103.203895 
L 667.65483 -99.969468 
L 676.109375 -96.901881 
L 684.56392 -94.445529 
L 693.018466 -93.124654 
L 701.473011 -92.373926 
L 701.473011 -92.373926 
L 701.473011 -55.352656 
L 693.018466 -55.352656 
L 684.56392 -55.352656 
L 676.109375 -55.352656 
L 667.65483 -55.352656 
L 659.200284 -55.352656 
L 650.745739 -55.352656 
L 642.291193 -55.352656 
L 633.836648 -55.352656 
L 625.382102 -55.352656 
L 616.927557 -55.352656 
L 608.473011 -55.352656 
L 600.018466 -55.352656 
L 591.56392 -55.352656 
L 583.109375 -55.352656 
L 574.65483 -55.352656 
L 566.200284 -55.352656 
L 557.745739 -55.352656 
L 549.291193 -55.352656 
L 540.836648 -55.352656 
L 532.382102 -55.352656 
L 523.927557 -55.352656 
L 515.473011 -55.352656 
L 507.018466 -55.352656 
L 498.56392 -55.352656 
L 490.109375 -55.352656 
L 481.65483 -55.352656 
L 473.200284 -55.352656 
L 464.745739 -55.352656 
L 456.291193 -55.352656 
L 447.836648 -55.352656 
L 439.382102 -55.352656 
L 430.927557 -55.352656 
L 422.473011 -55.352656 
L 414.018466 -55.352656 
L 405.56392 -55.352656 
L 397.109375 -55.352656 
L 388.65483 -55.352656 
L 380.200284 -55.352656 
L 371.745739 -55.352656 
L 363.291193 -55.352656 
L 354.836648 -55.352656 
L 346.382102 -55.352656 
L 337.927557 -55.352656 
L 329.473011 -55.352656 
L 321.018466 -55.352656 
L 312.56392 -55.352656 
L 304.109375 -55.352656 
L 295.65483 -55.352656 
L 287.200284 -55.352656 
L 278.745739 -55.352656 
L 270.291193 -55.352656 
L 261.836648 -55.352656 
L 253.382102 -55.352656 
L 244.927557 -55.352656 
L 236.473011 -55.352656 
L 228.018466 -55.352656 
L 219.56392 -55.352656 
L 211.109375 -55.352656 
L 202.65483 -55.352656 
L 194.200284 -55.352656 
L 185.745739 -55.352656 
L 177.291193 -55.352656 
L 168.836648 -55.352656 
L 160.382102 -55.352656 
L 151.927557 -55.352656 
L 143.473011 -55.352656 
L 135.018466 -55.352656 
L 126.56392 -55.352656 
L 118.109375 -55.352656 
L 109.65483 -55.352656 
L 101.200284 -55.352656 
L 92.745739 -55.352656 
z
" style="stroke: #1f77b4; stroke-opacity: 0.3"/>
    </defs>
    <g clip-path="url(#p53d17b12d6)">
     <use xlink:href="#md051658dbb" x="0" y="448.9275" style="fill: #1f77b4; fill-opacity: 0.3; stroke: #1f77b4; stroke-opacity: 0.3"/>
    </g>
   </g>
   <g id="FillBetweenPolyCollection_2">
    <defs>
     <path id="m371102cc9b" d="M 92.745739 -279.536341 
L 92.745739 -279.536341 
L 101.200284 -275.654983 
L 109.65483 -272.289079 
L 118.109375 -269.061204 
L 126.56392 -265.901746 
L 135.018466 -261.311884 
L 143.473011 -256.420884 
L 151.927557 -253.585455 
L 160.382102 -255.026686 
L 168.836648 -264.299742 
L 177.291193 -283.494544 
L 185.745739 -310.707406 
L 194.200284 -342.305042 
L 202.65483 -371.8604 
L 211.109375 -394.957316 
L 219.56392 -408.152656 
L 228.018466 -406.232959 
L 236.473011 -386.136392 
L 244.927557 -350.083677 
L 253.382102 -305.359612 
L 261.836648 -263.575579 
L 270.291193 -235.535917 
L 278.745739 -220.716282 
L 287.200284 -211.866361 
L 295.65483 -206.108435 
L 304.109375 -202.01432 
L 312.56392 -196.746455 
L 321.018466 -192.352088 
L 329.473011 -188.679487 
L 337.927557 -184.628104 
L 346.382102 -182.841941 
L 354.836648 -183.927123 
L 363.291193 -185.804498 
L 371.745739 -187.212213 
L 380.200284 -188.27808 
L 388.65483 -188.747755 
L 397.109375 -188.99176 
L 405.56392 -191.300098 
L 414.018466 -194.912419 
L 422.473011 -196.63282 
L 430.927557 -193.552755 
L 439.382102 -185.928184 
L 447.836648 -173.133115 
L 456.291193 -156.883137 
L 464.745739 -140.709328 
L 473.200284 -128.665407 
L 481.65483 -121.319845 
L 490.109375 -116.040794 
L 498.56392 -111.549549 
L 507.018466 -109.590349 
L 515.473011 -109.17911 
L 523.927557 -106.695489 
L 532.382102 -104.27186 
L 540.836648 -104.189177 
L 549.291193 -104.734963 
L 557.745739 -104.667952 
L 566.200284 -105.154308 
L 574.65483 -105.18088 
L 583.109375 -105.554064 
L 591.56392 -107.281148 
L 600.018466 -108.73941 
L 608.473011 -109.195689 
L 616.927557 -110.167043 
L 625.382102 -110.748612 
L 633.836648 -109.448417 
L 642.291193 -106.694853 
L 650.745739 -103.379434 
L 659.200284 -99.549533 
L 667.65483 -94.912539 
L 676.109375 -90.348302 
L 684.56392 -86.339932 
L 693.018466 -83.329041 
L 701.473011 -80.904462 
L 701.473011 -80.904462 
L 701.473011 -55.352656 
L 693.018466 -55.352656 
L 684.56392 -55.352656 
L 676.109375 -55.352656 
L 667.65483 -55.352656 
L 659.200284 -55.352656 
L 650.745739 -55.352656 
L 642.291193 -55.352656 
L 633.836648 -55.352656 
L 625.382102 -55.352656 
L 616.927557 -55.352656 
L 608.473011 -55.352656 
L 600.018466 -55.352656 
L 591.56392 -55.352656 
L 583.109375 -55.352656 
L 574.65483 -55.352656 
L 566.200284 -55.352656 
L 557.745739 -55.352656 
L 549.291193 -55.352656 
L 540.836648 -55.352656 
L 532.382102 -55.352656 
L 523.927557 -55.352656 
L 515.473011 -55.352656 
L 507.018466 -55.352656 
L 498.56392 -55.352656 
L 490.109375 -55.352656 
L 481.65483 -55.352656 
L 473.200284 -55.352656 
L 464.745739 -55.352656 
L 456.291193 -55.352656 
L 447.836648 -55.352656 
L 439.382102 -55.352656 
L 430.927557 -55.352656 
L 422.473011 -55.352656 
L 414.018466 -55.352656 
L 405.56392 -55.352656 
L 397.109375 -55.352656 
L 388.65483 -55.352656 
L 380.200284 -55.352656 
L 371.745739 -55.352656 
L 363.291193 -55.352656 
L 354.836648 -55.352656 
L 346.382102 -55.352656 
L 337.927557 -55.352656 
L 329.473011 -55.352656 
L 321.018466 -55.352656 
L 312.56392 -55.352656 
L 304.109375 -55.352656 
L 295.65483 -55.352656 
L 287.200284 -55.352656 
L 278.745739 -55.352656 
L 270.291193 -55.352656 
L 261.836648 -55.352656 
L 253.382102 -55.352656 
L 244.927557 -55.352656 
L 236.473011 -55.352656 
L 228.018466 -55.352656 
L 219.56392 -55.352656 
L 211.109375 -55.352656 
L 202.65483 -55.352656 
L 194.200284 -55.352656 
L 185.745739 -55.352656 
L 177.291193 -55.352656 
L 168.836648 -55.352656 
L 160.382102 -55.352656 
L 151.927557 -55.352656 
L 143.473011 -55.352656 
L 135.018466 -55.352656 
L 126.56392 -55.352656 
L 118.109375 -55.352656 
L 109.65483 -55.352656 
L 101.200284 -55.352656 
L 92.745739 -55.352656 
z
" style="stroke: #d62728; stroke-opacity: 0.3"/>
    </defs>
    <g clip-path="url(#p53d17b12d6)">
     <use xlink:href="#m371102cc9b" x="0" y="448.9275" style="fill: #d62728; fill-opacity: 0.3; stroke: #d62728; stroke-opacity: 0.3"/>
    </g>
   </g>
   <g id="FillBetweenPolyCollection_3">
    <defs>
     <path id="m28f023b551" d="M 92.745739 -275.402244 
L 92.745739 -275.402244 
L 101.200284 -268.667754 
L 109.65483 -263.638248 
L 118.109375 -259.538223 
L 126.56392 -256.883972 
L 135.018466 -255.766178 
L 143.473011 -254.923264 
L 151.927557 -254.19426 
L 160.382102 -256.277004 
L 168.836648 -264.185552 
L 177.291193 -278.326356 
L 185.745739 -301.101602 
L 194.200284 -334.030747 
L 202.65483 -367.253987 
L 211.109375 -392.139185 
L 219.56392 -404.558624 
L 228.018466 -401.656185 
L 236.473011 -381.692899 
L 244.927557 -346.085512 
L 253.382102 -303.160077 
L 261.836648 -265.344719 
L 270.291193 -237.942687 
L 278.745739 -218.654568 
L 287.200284 -206.201917 
L 295.65483 -198.290195 
L 304.109375 -193.022362 
L 312.56392 -189.605961 
L 321.018466 -187.227616 
L 329.473011 -184.686759 
L 337.927557 -182.68992 
L 346.382102 -183.279325 
L 354.836648 -184.243956 
L 363.291193 -183.551761 
L 371.745739 -183.527973 
L 380.200284 -185.678947 
L 388.65483 -188.960647 
L 397.109375 -191.700738 
L 405.56392 -192.609946 
L 414.018466 -191.732313 
L 422.473011 -189.089276 
L 430.927557 -183.732452 
L 439.382102 -174.203753 
L 447.836648 -160.654459 
L 456.291193 -146.259217 
L 464.745739 -134.288836 
L 473.200284 -124.68039 
L 481.65483 -117.135771 
L 490.109375 -112.648109 
L 498.56392 -110.332232 
L 507.018466 -108.687087 
L 515.473011 -107.618425 
L 523.927557 -107.03182 
L 532.382102 -107.238481 
L 540.836648 -108.313776 
L 549.291193 -109.35076 
L 557.745739 -109.322109 
L 566.200284 -108.776186 
L 574.65483 -108.43851 
L 583.109375 -108.586146 
L 591.56392 -109.49063 
L 600.018466 -110.511859 
L 608.473011 -110.755227 
L 616.927557 -109.56895 
L 625.382102 -107.895951 
L 633.836648 -106.09642 
L 642.291193 -103.520693 
L 650.745739 -99.885665 
L 659.200284 -96.088088 
L 667.65483 -92.601404 
L 676.109375 -89.227866 
L 684.56392 -86.771237 
L 693.018466 -85.414012 
L 701.473011 -84.033107 
L 701.473011 -84.033107 
L 701.473011 -55.352656 
L 693.018466 -55.352656 
L 684.56392 -55.352656 
L 676.109375 -55.352656 
L 667.65483 -55.352656 
L 659.200284 -55.352656 
L 650.745739 -55.352656 
L 642.291193 -55.352656 
L 633.836648 -55.352656 
L 625.382102 -55.352656 
L 616.927557 -55.352656 
L 608.473011 -55.352656 
L 600.018466 -55.352656 
L 591.56392 -55.352656 
L 583.109375 -55.352656 
L 574.65483 -55.352656 
L 566.200284 -55.352656 
L 557.745739 -55.352656 
L 549.291193 -55.352656 
L 540.836648 -55.352656 
L 532.382102 -55.352656 
L 523.927557 -55.352656 
L 515.473011 -55.352656 
L 507.018466 -55.352656 
L 498.56392 -55.352656 
L 490.109375 -55.352656 
L 481.65483 -55.352656 
L 473.200284 -55.352656 
L 464.745739 -55.352656 
L 456.291193 -55.352656 
L 447.836648 -55.352656 
L 439.382102 -55.352656 
L 430.927557 -55.352656 
L 422.473011 -55.352656 
L 414.018466 -55.352656 
L 405.56392 -55.352656 
L 397.109375 -55.352656 
L 388.65483 -55.352656 
L 380.200284 -55.352656 
L 371.745739 -55.352656 
L 363.291193 -55.352656 
L 354.836648 -55.352656 
L 346.382102 -55.352656 
L 337.927557 -55.352656 
L 329.473011 -55.352656 
L 321.018466 -55.352656 
L 312.56392 -55.352656 
L 304.109375 -55.352656 
L 295.65483 -55.352656 
L 287.200284 -55.352656 
L 278.745739 -55.352656 
L 270.291193 -55.352656 
L 261.836648 -55.352656 
L 253.382102 -55.352656 
L 244.927557 -55.352656 
L 236.473011 -55.352656 
L 228.018466 -55.352656 
L 219.56392 -55.352656 
L 211.109375 -55.352656 
L 202.65483 -55.352656 
L 194.200284 -55.352656 
L 185.745739 -55.352656 
L 177.291193 -55.352656 
L 168.836648 -55.352656 
L 160.382102 -55.352656 
L 151.927557 -55.352656 
L 143.473011 -55.352656 
L 135.018466 -55.352656 
L 126.56392 -55.352656 
L 118.109375 -55.352656 
L 109.65483 -55.352656 
L 101.200284 -55.352656 
L 92.745739 -55.352656 
z
" style="stroke: #e377c2; stroke-opacity: 0.3"/>
    </defs>
    <g clip-path="url(#p53d17b12d6)">
     <use xlink:href="#m28f023b551" x="0" y="448.9275" style="fill: #e377c2; fill-opacity: 0.3; stroke: #e377c2; stroke-opacity: 0.3"/>
    </g>
   </g>
   <g id="FillBetweenPolyCollection_4">
    <defs>
     <path id="m5e5a5cab20" d="M 92.745739 -274.912337 
L 92.745739 -274.912337 
L 101.200284 -266.366059 
L 109.65483 -259.160907 
L 118.109375 -257.623411 
L 126.56392 -259.177172 
L 135.018466 -258.490473 
L 143.473011 -255.755597 
L 151.927557 -253.454629 
L 160.382102 -255.542751 
L 168.836648 -267.386536 
L 177.291193 -290.379246 
L 185.745739 -318.884492 
L 194.200284 -346.904043 
L 202.65483 -372.239847 
L 211.109375 -391.987113 
L 219.56392 -401.206469 
L 228.018466 -395.163937 
L 236.473011 -370.684723 
L 244.927557 -329.809904 
L 253.382102 -284.125773 
L 261.836648 -247.194204 
L 270.291193 -220.870137 
L 278.745739 -201.708958 
L 287.200284 -189.639986 
L 295.65483 -183.601317 
L 304.109375 -179.417735 
L 312.56392 -176.457025 
L 321.018466 -175.385621 
L 329.473011 -175.30519 
L 337.927557 -176.629562 
L 346.382102 -177.982637 
L 354.836648 -177.845118 
L 363.291193 -177.833649 
L 371.745739 -180.785485 
L 380.200284 -184.432254 
L 388.65483 -185.371661 
L 397.109375 -183.806811 
L 405.56392 -181.420078 
L 414.018466 -180.668181 
L 422.473011 -180.182829 
L 430.927557 -177.4807 
L 439.382102 -171.655064 
L 447.836648 -161.356986 
L 456.291193 -148.113148 
L 464.745739 -136.948755 
L 473.200284 -131.065496 
L 481.65483 -128.469933 
L 490.109375 -126.174123 
L 498.56392 -123.551609 
L 507.018466 -120.92439 
L 515.473011 -119.434955 
L 523.927557 -117.03119 
L 532.382102 -113.48743 
L 540.836648 -112.839263 
L 549.291193 -114.585395 
L 557.745739 -115.663006 
L 566.200284 -116.342304 
L 574.65483 -117.471396 
L 583.109375 -118.796512 
L 591.56392 -120.401015 
L 600.018466 -121.764978 
L 608.473011 -121.040366 
L 616.927557 -118.677382 
L 625.382102 -118.540361 
L 633.836648 -120.370373 
L 642.291193 -118.143886 
L 650.745739 -113.563328 
L 659.200284 -111.072681 
L 667.65483 -110.691854 
L 676.109375 -109.670507 
L 684.56392 -107.981167 
L 693.018466 -106.994704 
L 701.473011 -106.107218 
L 701.473011 -106.107218 
L 701.473011 -55.352656 
L 693.018466 -55.352656 
L 684.56392 -55.352656 
L 676.109375 -55.352656 
L 667.65483 -55.352656 
L 659.200284 -55.352656 
L 650.745739 -55.352656 
L 642.291193 -55.352656 
L 633.836648 -55.352656 
L 625.382102 -55.352656 
L 616.927557 -55.352656 
L 608.473011 -55.352656 
L 600.018466 -55.352656 
L 591.56392 -55.352656 
L 583.109375 -55.352656 
L 574.65483 -55.352656 
L 566.200284 -55.352656 
L 557.745739 -55.352656 
L 549.291193 -55.352656 
L 540.836648 -55.352656 
L 532.382102 -55.352656 
L 523.927557 -55.352656 
L 515.473011 -55.352656 
L 507.018466 -55.352656 
L 498.56392 -55.352656 
L 490.109375 -55.352656 
L 481.65483 -55.352656 
L 473.200284 -55.352656 
L 464.745739 -55.352656 
L 456.291193 -55.352656 
L 447.836648 -55.352656 
L 439.382102 -55.352656 
L 430.927557 -55.352656 
L 422.473011 -55.352656 
L 414.018466 -55.352656 
L 405.56392 -55.352656 
L 397.109375 -55.352656 
L 388.65483 -55.352656 
L 380.200284 -55.352656 
L 371.745739 -55.352656 
L 363.291193 -55.352656 
L 354.836648 -55.352656 
L 346.382102 -55.352656 
L 337.927557 -55.352656 
L 329.473011 -55.352656 
L 321.018466 -55.352656 
L 312.56392 -55.352656 
L 304.109375 -55.352656 
L 295.65483 -55.352656 
L 287.200284 -55.352656 
L 278.745739 -55.352656 
L 270.291193 -55.352656 
L 261.836648 -55.352656 
L 253.382102 -55.352656 
L 244.927557 -55.352656 
L 236.473011 -55.352656 
L 228.018466 -55.352656 
L 219.56392 -55.352656 
L 211.109375 -55.352656 
L 202.65483 -55.352656 
L 194.200284 -55.352656 
L 185.745739 -55.352656 
L 177.291193 -55.352656 
L 168.836648 -55.352656 
L 160.382102 -55.352656 
L 151.927557 -55.352656 
L 143.473011 -55.352656 
L 135.018466 -55.352656 
L 126.56392 -55.352656 
L 118.109375 -55.352656 
L 109.65483 -55.352656 
L 101.200284 -55.352656 
L 92.745739 -55.352656 
z
" style="stroke: #17becf; stroke-opacity: 0.3"/>
    </defs>
    <g clip-path="url(#p53d17b12d6)">
     <use xlink:href="#m5e5a5cab20" x="0" y="448.9275" style="fill: #17becf; fill-opacity: 0.3; stroke: #17becf; stroke-opacity: 0.3"/>
    </g>
   </g>
   <g id="matplotlib.axis_1">
    <g id="xtick_1">
     <g id="line2d_1">
      <path d="M 109.65483 411.214844 
L 109.65483 23.134844 
" clip-path="url(#p53d17b12d6)" style="fill: none; stroke-dasharray: 2.96,1.28; stroke-dashoffset: 0; stroke: #dddddd; stroke-width: 0.8"/>
     </g>
     <g id="line2d_2">
      <defs>
       <path id="m7004f4c0a9" d="M 0 0 
L 0 3.5 
" style="stroke: #333333; stroke-width: 0.8"/>
      </defs>
      <g>
       <use xlink:href="#m7004f4c0a9" x="109.65483" y="411.214844" style="fill: #333333; stroke: #333333; stroke-width: 0.8"/>
      </g>
     </g>
     <g id="text_1">
      <!-- 5 -->
      <g style="fill: #333333" transform="translate(106.791705 425.053437) scale(0.09 -0.09)">
       <defs>
        <path id="DejaVuSerif-35" d="M 3219 4666 
L 3219 4153 
L 1081 4153 
L 1081 2816 
Q 1244 2928 1461 2984 
Q 1678 3041 1947 3041 
Q 2703 3041 3140 2622 
Q 3578 2203 3578 1478 
Q 3578 738 3136 323 
Q 2694 -91 1894 -91 
Q 1572 -91 1234 -12 
Q 897 66 544 225 
L 544 1131 
L 897 1131 
Q 925 688 1179 453 
Q 1434 219 1894 219 
Q 2388 219 2653 544 
Q 2919 869 2919 1478 
Q 2919 2084 2655 2407 
Q 2391 2731 1894 2731 
Q 1613 2731 1398 2631 
Q 1184 2531 1019 2322 
L 750 2322 
L 750 4666 
L 3219 4666 
z
" transform="scale(0.015625)"/>
       </defs>
       <use xlink:href="#DejaVuSerif-35"/>
      </g>
     </g>
    </g>
    <g id="xtick_2">
     <g id="line2d_3">
      <path d="M 194.200284 411.214844 
L 194.200284 23.134844 
" clip-path="url(#p53d17b12d6)" style="fill: none; stroke-dasharray: 2.96,1.28; stroke-dashoffset: 0; stroke: #dddddd; stroke-width: 0.8"/>
     </g>
     <g id="line2d_4">
      <g>
       <use xlink:href="#m7004f4c0a9" x="194.200284" y="411.214844" style="fill: #333333; stroke: #333333; stroke-width: 0.8"/>
      </g>
     </g>
     <g id="text_2">
      <!-- 10 -->
      <g style="fill: #333333" transform="translate(188.474034 425.053437) scale(0.09 -0.09)">
       <defs>
        <path id="DejaVuSerif-31" d="M 909 0 
L 909 331 
L 1722 331 
L 1722 4213 
L 781 3603 
L 781 4013 
L 1919 4750 
L 2350 4750 
L 2350 331 
L 3163 331 
L 3163 0 
L 909 0 
z
" transform="scale(0.015625)"/>
        <path id="DejaVuSerif-30" d="M 2034 219 
Q 2513 219 2750 744 
Q 2988 1269 2988 2328 
Q 2988 3391 2750 3916 
Q 2513 4441 2034 4441 
Q 1556 4441 1318 3916 
Q 1081 3391 1081 2328 
Q 1081 1269 1318 744 
Q 1556 219 2034 219 
z
M 2034 -91 
Q 1275 -91 848 546 
Q 422 1184 422 2328 
Q 422 3475 848 4112 
Q 1275 4750 2034 4750 
Q 2797 4750 3222 4112 
Q 3647 3475 3647 2328 
Q 3647 1184 3222 546 
Q 2797 -91 2034 -91 
z
" transform="scale(0.015625)"/>
       </defs>
       <use xlink:href="#DejaVuSerif-31"/>
       <use xlink:href="#DejaVuSerif-30" transform="translate(63.623047 0)"/>
      </g>
     </g>
    </g>
    <g id="xtick_3">
     <g id="line2d_5">
      <path d="M 278.745739 411.214844 
L 278.745739 23.134844 
" clip-path="url(#p53d17b12d6)" style="fill: none; stroke-dasharray: 2.96,1.28; stroke-dashoffset: 0; stroke: #dddddd; stroke-width: 0.8"/>
     </g>
     <g id="line2d_6">
      <g>
       <use xlink:href="#m7004f4c0a9" x="278.745739" y="411.214844" style="fill: #333333; stroke: #333333; stroke-width: 0.8"/>
      </g>
     </g>
     <g id="text_3">
      <!-- 15 -->
      <g style="fill: #333333" transform="translate(273.019489 425.053437) scale(0.09 -0.09)">
       <use xlink:href="#DejaVuSerif-31"/>
       <use xlink:href="#DejaVuSerif-35" transform="translate(63.623047 0)"/>
      </g>
     </g>
    </g>
    <g id="xtick_4">
     <g id="line2d_7">
      <path d="M 363.291193 411.214844 
L 363.291193 23.134844 
" clip-path="url(#p53d17b12d6)" style="fill: none; stroke-dasharray: 2.96,1.28; stroke-dashoffset: 0; stroke: #dddddd; stroke-width: 0.8"/>
     </g>
     <g id="line2d_8">
      <g>
       <use xlink:href="#m7004f4c0a9" x="363.291193" y="411.214844" style="fill: #333333; stroke: #333333; stroke-width: 0.8"/>
      </g>
     </g>
     <g id="text_4">
      <!-- 20 -->
      <g style="fill: #333333" transform="translate(357.564943 425.053437) scale(0.09 -0.09)">
       <defs>
        <path id="DejaVuSerif-32" d="M 819 3553 
L 469 3553 
L 469 4384 
Q 803 4563 1142 4656 
Q 1481 4750 1806 4750 
Q 2534 4750 2956 4397 
Q 3378 4044 3378 3438 
Q 3378 2753 2422 1800 
Q 2347 1728 2309 1691 
L 1131 513 
L 3078 513 
L 3078 1088 
L 3444 1088 
L 3444 0 
L 434 0 
L 434 341 
L 1850 1753 
Q 2319 2222 2519 2614 
Q 2719 3006 2719 3438 
Q 2719 3909 2473 4175 
Q 2228 4441 1797 4441 
Q 1350 4441 1106 4219 
Q 863 3997 819 3553 
z
" transform="scale(0.015625)"/>
       </defs>
       <use xlink:href="#DejaVuSerif-32"/>
       <use xlink:href="#DejaVuSerif-30" transform="translate(63.623047 0)"/>
      </g>
     </g>
    </g>
    <g id="xtick_5">
     <g id="line2d_9">
      <path d="M 447.836648 411.214844 
L 447.836648 23.134844 
" clip-path="url(#p53d17b12d6)" style="fill: none; stroke-dasharray: 2.96,1.28; stroke-dashoffset: 0; stroke: #dddddd; stroke-width: 0.8"/>
     </g>
     <g id="line2d_10">
      <g>
       <use xlink:href="#m7004f4c0a9" x="447.836648" y="411.214844" style="fill: #333333; stroke: #333333; stroke-width: 0.8"/>
      </g>
     </g>
     <g id="text_5">
      <!-- 25 -->
      <g style="fill: #333333" transform="translate(442.110398 425.053437) scale(0.09 -0.09)">
       <use xlink:href="#DejaVuSerif-32"/>
       <use xlink:href="#DejaVuSerif-35" transform="translate(63.623047 0)"/>
      </g>
     </g>
    </g>
    <g id="xtick_6">
     <g id="line2d_11">
      <path d="M 532.382102 411.214844 
L 532.382102 23.134844 
" clip-path="url(#p53d17b12d6)" style="fill: none; stroke-dasharray: 2.96,1.28; stroke-dashoffset: 0; stroke: #dddddd; stroke-width: 0.8"/>
     </g>
     <g id="line2d_12">
      <g>
       <use xlink:href="#m7004f4c0a9" x="532.382102" y="411.214844" style="fill: #333333; stroke: #333333; stroke-width: 0.8"/>
      </g>
     </g>
     <g id="text_6">
      <!-- 30 -->
      <g style="fill: #333333" transform="translate(526.655852 425.053437) scale(0.09 -0.09)">
       <defs>
        <path id="DejaVuSerif-33" d="M 622 4469 
Q 988 4606 1323 4678 
Q 1659 4750 1953 4750 
Q 2638 4750 3022 4454 
Q 3406 4159 3406 3634 
Q 3406 3213 3140 2930 
Q 2875 2647 2388 2547 
Q 2963 2466 3280 2130 
Q 3597 1794 3597 1259 
Q 3597 606 3158 257 
Q 2719 -91 1894 -91 
Q 1528 -91 1179 -12 
Q 831 66 488 225 
L 488 1131 
L 838 1131 
Q 869 681 1141 450 
Q 1413 219 1906 219 
Q 2384 219 2661 495 
Q 2938 772 2938 1253 
Q 2938 1803 2653 2086 
Q 2369 2369 1819 2369 
L 1522 2369 
L 1522 2688 
L 1678 2688 
Q 2225 2688 2498 2914 
Q 2772 3141 2772 3597 
Q 2772 4006 2547 4223 
Q 2322 4441 1900 4441 
Q 1478 4441 1245 4241 
Q 1013 4041 972 3647 
L 622 3647 
L 622 4469 
z
" transform="scale(0.015625)"/>
       </defs>
       <use xlink:href="#DejaVuSerif-33"/>
       <use xlink:href="#DejaVuSerif-30" transform="translate(63.623047 0)"/>
      </g>
     </g>
    </g>
    <g id="xtick_7">
     <g id="line2d_13">
      <path d="M 616.927557 411.214844 
L 616.927557 23.134844 
" clip-path="url(#p53d17b12d6)" style="fill: none; stroke-dasharray: 2.96,1.28; stroke-dashoffset: 0; stroke: #dddddd; stroke-width: 0.8"/>
     </g>
     <g id="line2d_14">
      <g>
       <use xlink:href="#m7004f4c0a9" x="616.927557" y="411.214844" style="fill: #333333; stroke: #333333; stroke-width: 0.8"/>
      </g>
     </g>
     <g id="text_7">
      <!-- 35 -->
      <g style="fill: #333333" transform="translate(611.201307 425.053437) scale(0.09 -0.09)">
       <use xlink:href="#DejaVuSerif-33"/>
       <use xlink:href="#DejaVuSerif-35" transform="translate(63.623047 0)"/>
      </g>
     </g>
    </g>
    <g id="xtick_8">
     <g id="line2d_15">
      <path d="M 701.473011 411.214844 
L 701.473011 23.134844 
" clip-path="url(#p53d17b12d6)" style="fill: none; stroke-dasharray: 2.96,1.28; stroke-dashoffset: 0; stroke: #dddddd; stroke-width: 0.8"/>
     </g>
     <g id="line2d_16">
      <g>
       <use xlink:href="#m7004f4c0a9" x="701.473011" y="411.214844" style="fill: #333333; stroke: #333333; stroke-width: 0.8"/>
      </g>
     </g>
     <g id="text_8">
      <!-- 40 -->
      <g style="fill: #333333" transform="translate(695.746761 425.053437) scale(0.09 -0.09)">
       <defs>
        <path id="DejaVuSerif-34" d="M 2234 1581 
L 2234 4063 
L 641 1581 
L 2234 1581 
z
M 3609 0 
L 1484 0 
L 1484 331 
L 2234 331 
L 2234 1247 
L 197 1247 
L 197 1588 
L 2241 4750 
L 2859 4750 
L 2859 1581 
L 3750 1581 
L 3750 1247 
L 2859 1247 
L 2859 331 
L 3609 331 
L 3609 0 
z
" transform="scale(0.015625)"/>
       </defs>
       <use xlink:href="#DejaVuSerif-34"/>
       <use xlink:href="#DejaVuSerif-30" transform="translate(63.623047 0)"/>
      </g>
     </g>
    </g>
    <g id="text_9">
     <!-- Frequency (Hz) -->
     <g transform="translate(353.626719 439.283437) scale(0.11 -0.11)">
      <defs>
       <path id="DejaVuSerif-46" d="M 353 0 
L 353 331 
L 947 331 
L 947 4331 
L 353 4331 
L 353 4666 
L 4172 4666 
L 4172 3628 
L 3788 3628 
L 3788 4281 
L 1581 4281 
L 1581 2719 
L 3175 2719 
L 3175 3303 
L 3559 3303 
L 3559 1753 
L 3175 1753 
L 3175 2338 
L 1581 2338 
L 1581 331 
L 2328 331 
L 2328 0 
L 353 0 
z
" transform="scale(0.015625)"/>
       <path id="DejaVuSerif-72" d="M 3059 3328 
L 3059 2497 
L 2728 2497 
Q 2713 2744 2591 2866 
Q 2469 2988 2234 2988 
Q 1809 2988 1582 2694 
Q 1356 2400 1356 1850 
L 1356 331 
L 2022 331 
L 2022 0 
L 263 0 
L 263 331 
L 781 331 
L 781 2994 
L 231 2994 
L 231 3322 
L 1356 3322 
L 1356 2731 
Q 1525 3078 1790 3245 
Q 2056 3413 2438 3413 
Q 2578 3413 2733 3391 
Q 2888 3369 3059 3328 
z
" transform="scale(0.015625)"/>
       <path id="DejaVuSerif-65" d="M 3469 1600 
L 991 1600 
L 991 1575 
Q 991 903 1244 561 
Q 1497 219 1991 219 
Q 2369 219 2611 417 
Q 2853 616 2950 1006 
L 3413 1006 
Q 3275 459 2904 184 
Q 2534 -91 1931 -91 
Q 1203 -91 761 389 
Q 319 869 319 1663 
Q 319 2450 753 2931 
Q 1188 3413 1894 3413 
Q 2647 3413 3050 2948 
Q 3453 2484 3469 1600 
z
M 2791 1931 
Q 2772 2513 2545 2808 
Q 2319 3103 1894 3103 
Q 1497 3103 1269 2806 
Q 1041 2509 991 1931 
L 2791 1931 
z
" transform="scale(0.015625)"/>
       <path id="DejaVuSerif-71" d="M 3359 2988 
L 3359 -997 
L 3909 -997 
L 3909 -1331 
L 2241 -1331 
L 2241 -997 
L 2784 -997 
L 2784 519 
Q 2616 206 2355 57 
Q 2094 -91 1709 -91 
Q 1097 -91 708 395 
Q 319 881 319 1663 
Q 319 2444 706 2928 
Q 1094 3413 1709 3413 
Q 2094 3413 2355 3264 
Q 2616 3116 2784 2803 
L 2784 3322 
L 3909 3322 
L 3909 2988 
L 3359 2988 
z
M 2784 1825 
Q 2784 2422 2554 2737 
Q 2325 3053 1888 3053 
Q 1444 3053 1217 2703 
Q 991 2353 991 1663 
Q 991 975 1217 622 
Q 1444 269 1888 269 
Q 2325 269 2554 583 
Q 2784 897 2784 1497 
L 2784 1825 
z
" transform="scale(0.015625)"/>
       <path id="DejaVuSerif-75" d="M 2266 3322 
L 3341 3322 
L 3341 331 
L 3884 331 
L 3884 0 
L 2766 0 
L 2766 588 
Q 2606 256 2353 82 
Q 2100 -91 1766 -91 
Q 1213 -91 952 223 
Q 691 538 691 1209 
L 691 2988 
L 172 2988 
L 172 3322 
L 1269 3322 
L 1269 1388 
Q 1269 781 1417 556 
Q 1566 331 1947 331 
Q 2347 331 2556 625 
Q 2766 919 2766 1478 
L 2766 2988 
L 2266 2988 
L 2266 3322 
z
" transform="scale(0.015625)"/>
       <path id="DejaVuSerif-6e" d="M 263 0 
L 263 331 
L 781 331 
L 781 2988 
L 231 2988 
L 231 3322 
L 1356 3322 
L 1356 2731 
Q 1516 3069 1770 3241 
Q 2025 3413 2363 3413 
Q 2913 3413 3172 3097 
Q 3431 2781 3431 2113 
L 3431 331 
L 3944 331 
L 3944 0 
L 2356 0 
L 2356 331 
L 2853 331 
L 2853 1931 
Q 2853 2541 2703 2767 
Q 2553 2994 2175 2994 
Q 1775 2994 1565 2701 
Q 1356 2409 1356 1850 
L 1356 331 
L 1856 331 
L 1856 0 
L 263 0 
z
" transform="scale(0.015625)"/>
       <path id="DejaVuSerif-63" d="M 3291 997 
Q 3169 466 2822 187 
Q 2475 -91 1925 -91 
Q 1200 -91 759 389 
Q 319 869 319 1663 
Q 319 2459 759 2936 
Q 1200 3413 1925 3413 
Q 2241 3413 2553 3339 
Q 2866 3266 3181 3116 
L 3181 2266 
L 2847 2266 
Q 2781 2703 2561 2903 
Q 2341 3103 1931 3103 
Q 1466 3103 1228 2742 
Q 991 2381 991 1663 
Q 991 944 1227 581 
Q 1463 219 1931 219 
Q 2303 219 2525 412 
Q 2747 606 2828 997 
L 3291 997 
z
" transform="scale(0.015625)"/>
       <path id="DejaVuSerif-79" d="M 1381 -609 
L 1600 -56 
L 359 2988 
L -19 2988 
L -19 3322 
L 1509 3322 
L 1509 2988 
L 978 2988 
L 1913 703 
L 2847 2988 
L 2350 2988 
L 2350 3322 
L 3597 3322 
L 3597 2988 
L 3225 2988 
L 1703 -750 
Q 1547 -1138 1356 -1280 
Q 1166 -1422 819 -1422 
Q 672 -1422 517 -1397 
Q 363 -1372 206 -1325 
L 206 -691 
L 500 -691 
Q 519 -903 608 -995 
Q 697 -1088 884 -1088 
Q 1056 -1088 1161 -992 
Q 1266 -897 1381 -609 
z
" transform="scale(0.015625)"/>
       <path id="DejaVuSerif-20" transform="scale(0.015625)"/>
       <path id="DejaVuSerif-28" d="M 2041 -997 
Q 1281 -656 893 83 
Q 506 822 506 1931 
Q 506 3044 893 3783 
Q 1281 4522 2041 4863 
L 2041 4556 
Q 1559 4225 1350 3623 
Q 1141 3022 1141 1931 
Q 1141 844 1350 242 
Q 1559 -359 2041 -691 
L 2041 -997 
z
" transform="scale(0.015625)"/>
       <path id="DejaVuSerif-48" d="M 353 0 
L 353 331 
L 947 331 
L 947 4331 
L 353 4331 
L 353 4666 
L 2175 4666 
L 2175 4331 
L 1581 4331 
L 1581 2719 
L 4000 2719 
L 4000 4331 
L 3406 4331 
L 3406 4666 
L 5228 4666 
L 5228 4331 
L 4634 4331 
L 4634 331 
L 5228 331 
L 5228 0 
L 3406 0 
L 3406 331 
L 4000 331 
L 4000 2338 
L 1581 2338 
L 1581 331 
L 2175 331 
L 2175 0 
L 353 0 
z
" transform="scale(0.015625)"/>
       <path id="DejaVuSerif-7a" d="M 256 0 
L 256 269 
L 2338 2988 
L 691 2988 
L 691 2413 
L 359 2413 
L 359 3322 
L 3078 3322 
L 3078 3053 
L 997 331 
L 2803 331 
L 2803 934 
L 3138 934 
L 3138 0 
L 256 0 
z
" transform="scale(0.015625)"/>
       <path id="DejaVuSerif-29" d="M 453 -997 
L 453 -691 
Q 934 -359 1145 242 
Q 1356 844 1356 1931 
Q 1356 3022 1145 3623 
Q 934 4225 453 4556 
L 453 4863 
Q 1216 4522 1603 3783 
Q 1991 3044 1991 1931 
Q 1991 822 1603 83 
Q 1216 -656 453 -997 
z
" transform="scale(0.015625)"/>
      </defs>
      <use xlink:href="#DejaVuSerif-46"/>
      <use xlink:href="#DejaVuSerif-72" transform="translate(69.384766 0)"/>
      <use xlink:href="#DejaVuSerif-65" transform="translate(117.1875 0)"/>
      <use xlink:href="#DejaVuSerif-71" transform="translate(176.367188 0)"/>
      <use xlink:href="#DejaVuSerif-75" transform="translate(240.380859 0)"/>
      <use xlink:href="#DejaVuSerif-65" transform="translate(304.785156 0)"/>
      <use xlink:href="#DejaVuSerif-6e" transform="translate(363.964844 0)"/>
      <use xlink:href="#DejaVuSerif-63" transform="translate(428.369141 0)"/>
      <use xlink:href="#DejaVuSerif-79" transform="translate(484.375 0)"/>
      <use xlink:href="#DejaVuSerif-20" transform="translate(540.869141 0)"/>
      <use xlink:href="#DejaVuSerif-28" transform="translate(572.65625 0)"/>
      <use xlink:href="#DejaVuSerif-48" transform="translate(611.669922 0)"/>
      <use xlink:href="#DejaVuSerif-7a" transform="translate(698.876953 0)"/>
      <use xlink:href="#DejaVuSerif-29" transform="translate(751.5625 0)"/>
     </g>
    </g>
   </g>
   <g id="matplotlib.axis_2">
    <g id="ytick_1">
     <g id="line2d_17">
      <path d="M 62.309375 368.890047 
L 731.909375 368.890047 
" clip-path="url(#p53d17b12d6)" style="fill: none; stroke-dasharray: 2.96,1.28; stroke-dashoffset: 0; stroke: #dddddd; stroke-width: 0.8"/>
     </g>
     <g id="line2d_18">
      <defs>
       <path id="m91cec87160" d="M 0 0 
L -3.5 0 
" style="stroke: #333333; stroke-width: 0.8"/>
      </defs>
      <g>
       <use xlink:href="#m91cec87160" x="62.309375" y="368.890047" style="fill: #333333; stroke: #333333; stroke-width: 0.8"/>
      </g>
     </g>
     <g id="text_10">
      <!-- −130.0 -->
      <g style="fill: #333333" transform="translate(22.002344 372.309344) scale(0.09 -0.09)">
       <defs>
        <path id="DejaVuSerif-2212" d="M 678 2259 
L 4684 2259 
L 4684 1753 
L 678 1753 
L 678 2259 
z
" transform="scale(0.015625)"/>
        <path id="DejaVuSerif-2e" d="M 603 325 
Q 603 500 722 622 
Q 841 744 1019 744 
Q 1191 744 1312 622 
Q 1434 500 1434 325 
Q 1434 153 1312 31 
Q 1191 -91 1019 -91 
Q 841 -91 722 29 
Q 603 150 603 325 
z
" transform="scale(0.015625)"/>
       </defs>
       <use xlink:href="#DejaVuSerif-2212"/>
       <use xlink:href="#DejaVuSerif-31" transform="translate(83.789062 0)"/>
       <use xlink:href="#DejaVuSerif-33" transform="translate(147.412109 0)"/>
       <use xlink:href="#DejaVuSerif-30" transform="translate(211.035156 0)"/>
       <use xlink:href="#DejaVuSerif-2e" transform="translate(274.658203 0)"/>
       <use xlink:href="#DejaVuSerif-30" transform="translate(306.445312 0)"/>
      </g>
     </g>
    </g>
    <g id="ytick_2">
     <g id="line2d_19">
      <path d="M 62.309375 319.735286 
L 731.909375 319.735286 
" clip-path="url(#p53d17b12d6)" style="fill: none; stroke-dasharray: 2.96,1.28; stroke-dashoffset: 0; stroke: #dddddd; stroke-width: 0.8"/>
     </g>
     <g id="line2d_20">
      <g>
       <use xlink:href="#m91cec87160" x="62.309375" y="319.735286" style="fill: #333333; stroke: #333333; stroke-width: 0.8"/>
      </g>
     </g>
     <g id="text_11">
      <!-- −127.5 -->
      <g style="fill: #333333" transform="translate(22.002344 323.154583) scale(0.09 -0.09)">
       <defs>
        <path id="DejaVuSerif-37" d="M 3609 4347 
L 1784 0 
L 1319 0 
L 3059 4153 
L 903 4153 
L 903 3578 
L 538 3578 
L 538 4666 
L 3609 4666 
L 3609 4347 
z
" transform="scale(0.015625)"/>
       </defs>
       <use xlink:href="#DejaVuSerif-2212"/>
       <use xlink:href="#DejaVuSerif-31" transform="translate(83.789062 0)"/>
       <use xlink:href="#DejaVuSerif-32" transform="translate(147.412109 0)"/>
       <use xlink:href="#DejaVuSerif-37" transform="translate(211.035156 0)"/>
       <use xlink:href="#DejaVuSerif-2e" transform="translate(274.658203 0)"/>
       <use xlink:href="#DejaVuSerif-35" transform="translate(306.445312 0)"/>
      </g>
     </g>
    </g>
    <g id="ytick_3">
     <g id="line2d_21">
      <path d="M 62.309375 270.580525 
L 731.909375 270.580525 
" clip-path="url(#p53d17b12d6)" style="fill: none; stroke-dasharray: 2.96,1.28; stroke-dashoffset: 0; stroke: #dddddd; stroke-width: 0.8"/>
     </g>
     <g id="line2d_22">
      <g>
       <use xlink:href="#m91cec87160" x="62.309375" y="270.580525" style="fill: #333333; stroke: #333333; stroke-width: 0.8"/>
      </g>
     </g>
     <g id="text_12">
      <!-- −125.0 -->
      <g style="fill: #333333" transform="translate(22.002344 273.999822) scale(0.09 -0.09)">
       <use xlink:href="#DejaVuSerif-2212"/>
       <use xlink:href="#DejaVuSerif-31" transform="translate(83.789062 0)"/>
       <use xlink:href="#DejaVuSerif-32" transform="translate(147.412109 0)"/>
       <use xlink:href="#DejaVuSerif-35" transform="translate(211.035156 0)"/>
       <use xlink:href="#DejaVuSerif-2e" transform="translate(274.658203 0)"/>
       <use xlink:href="#DejaVuSerif-30" transform="translate(306.445312 0)"/>
      </g>
     </g>
    </g>
    <g id="ytick_4">
     <g id="line2d_23">
      <path d="M 62.309375 221.425764 
L 731.909375 221.425764 
" clip-path="url(#p53d17b12d6)" style="fill: none; stroke-dasharray: 2.96,1.28; stroke-dashoffset: 0; stroke: #dddddd; stroke-width: 0.8"/>
     </g>
     <g id="line2d_24">
      <g>
       <use xlink:href="#m91cec87160" x="62.309375" y="221.425764" style="fill: #333333; stroke: #333333; stroke-width: 0.8"/>
      </g>
     </g>
     <g id="text_13">
      <!-- −122.5 -->
      <g style="fill: #333333" transform="translate(22.002344 224.845061) scale(0.09 -0.09)">
       <use xlink:href="#DejaVuSerif-2212"/>
       <use xlink:href="#DejaVuSerif-31" transform="translate(83.789062 0)"/>
       <use xlink:href="#DejaVuSerif-32" transform="translate(147.412109 0)"/>
       <use xlink:href="#DejaVuSerif-32" transform="translate(211.035156 0)"/>
       <use xlink:href="#DejaVuSerif-2e" transform="translate(274.658203 0)"/>
       <use xlink:href="#DejaVuSerif-35" transform="translate(306.445312 0)"/>
      </g>
     </g>
    </g>
    <g id="ytick_5">
     <g id="line2d_25">
      <path d="M 62.309375 172.271003 
L 731.909375 172.271003 
" clip-path="url(#p53d17b12d6)" style="fill: none; stroke-dasharray: 2.96,1.28; stroke-dashoffset: 0; stroke: #dddddd; stroke-width: 0.8"/>
     </g>
     <g id="line2d_26">
      <g>
       <use xlink:href="#m91cec87160" x="62.309375" y="172.271003" style="fill: #333333; stroke: #333333; stroke-width: 0.8"/>
      </g>
     </g>
     <g id="text_14">
      <!-- −120.0 -->
      <g style="fill: #333333" transform="translate(22.002344 175.6903) scale(0.09 -0.09)">
       <use xlink:href="#DejaVuSerif-2212"/>
       <use xlink:href="#DejaVuSerif-31" transform="translate(83.789062 0)"/>
       <use xlink:href="#DejaVuSerif-32" transform="translate(147.412109 0)"/>
       <use xlink:href="#DejaVuSerif-30" transform="translate(211.035156 0)"/>
       <use xlink:href="#DejaVuSerif-2e" transform="translate(274.658203 0)"/>
       <use xlink:href="#DejaVuSerif-30" transform="translate(306.445312 0)"/>
      </g>
     </g>
    </g>
    <g id="ytick_6">
     <g id="line2d_27">
      <path d="M 62.309375 123.116242 
L 731.909375 123.116242 
" clip-path="url(#p53d17b12d6)" style="fill: none; stroke-dasharray: 2.96,1.28; stroke-dashoffset: 0; stroke: #dddddd; stroke-width: 0.8"/>
     </g>
     <g id="line2d_28">
      <g>
       <use xlink:href="#m91cec87160" x="62.309375" y="123.116242" style="fill: #333333; stroke: #333333; stroke-width: 0.8"/>
      </g>
     </g>
     <g id="text_15">
      <!-- −117.5 -->
      <g style="fill: #333333" transform="translate(22.002344 126.535539) scale(0.09 -0.09)">
       <use xlink:href="#DejaVuSerif-2212"/>
       <use xlink:href="#DejaVuSerif-31" transform="translate(83.789062 0)"/>
       <use xlink:href="#DejaVuSerif-31" transform="translate(147.412109 0)"/>
       <use xlink:href="#DejaVuSerif-37" transform="translate(211.035156 0)"/>
       <use xlink:href="#DejaVuSerif-2e" transform="translate(274.658203 0)"/>
       <use xlink:href="#DejaVuSerif-35" transform="translate(306.445312 0)"/>
      </g>
     </g>
    </g>
    <g id="ytick_7">
     <g id="line2d_29">
      <path d="M 62.309375 73.961481 
L 731.909375 73.961481 
" clip-path="url(#p53d17b12d6)" style="fill: none; stroke-dasharray: 2.96,1.28; stroke-dashoffset: 0; stroke: #dddddd; stroke-width: 0.8"/>
     </g>
     <g id="line2d_30">
      <g>
       <use xlink:href="#m91cec87160" x="62.309375" y="73.961481" style="fill: #333333; stroke: #333333; stroke-width: 0.8"/>
      </g>
     </g>
     <g id="text_16">
      <!-- −115.0 -->
      <g style="fill: #333333" transform="translate(22.002344 77.380778) scale(0.09 -0.09)">
       <use xlink:href="#DejaVuSerif-2212"/>
       <use xlink:href="#DejaVuSerif-31" transform="translate(83.789062 0)"/>
       <use xlink:href="#DejaVuSerif-31" transform="translate(147.412109 0)"/>
       <use xlink:href="#DejaVuSerif-35" transform="translate(211.035156 0)"/>
       <use xlink:href="#DejaVuSerif-2e" transform="translate(274.658203 0)"/>
       <use xlink:href="#DejaVuSerif-30" transform="translate(306.445312 0)"/>
      </g>
     </g>
    </g>
    <g id="ytick_8">
     <g id="line2d_31">
      <path d="M 62.309375 24.80672 
L 731.909375 24.80672 
" clip-path="url(#p53d17b12d6)" style="fill: none; stroke-dasharray: 2.96,1.28; stroke-dashoffset: 0; stroke: #dddddd; stroke-width: 0.8"/>
     </g>
     <g id="line2d_32">
      <g>
       <use xlink:href="#m91cec87160" x="62.309375" y="24.80672" style="fill: #333333; stroke: #333333; stroke-width: 0.8"/>
      </g>
     </g>
     <g id="text_17">
      <!-- −112.5 -->
      <g style="fill: #333333" transform="translate(22.002344 28.226017) scale(0.09 -0.09)">
       <use xlink:href="#DejaVuSerif-2212"/>
       <use xlink:href="#DejaVuSerif-31" transform="translate(83.789062 0)"/>
       <use xlink:href="#DejaVuSerif-31" transform="translate(147.412109 0)"/>
       <use xlink:href="#DejaVuSerif-32" transform="translate(211.035156 0)"/>
       <use xlink:href="#DejaVuSerif-2e" transform="translate(274.658203 0)"/>
       <use xlink:href="#DejaVuSerif-35" transform="translate(306.445312 0)"/>
      </g>
     </g>
    </g>
    <g id="text_18">
     <!-- Power Spectral Density (dB) -->
     <g transform="translate(15.558281 296.263984) rotate(-90) scale(0.11 -0.11)">
      <defs>
       <path id="DejaVuSerif-50" d="M 1581 2375 
L 2406 2375 
Q 2872 2375 3115 2626 
Q 3359 2878 3359 3353 
Q 3359 3831 3115 4081 
Q 2872 4331 2406 4331 
L 1581 4331 
L 1581 2375 
z
M 353 0 
L 353 331 
L 947 331 
L 947 4331 
L 353 4331 
L 353 4666 
L 2559 4666 
Q 3259 4666 3668 4311 
Q 4078 3956 4078 3353 
Q 4078 2753 3668 2397 
Q 3259 2041 2559 2041 
L 1581 2041 
L 1581 331 
L 2303 331 
L 2303 0 
L 353 0 
z
" transform="scale(0.015625)"/>
       <path id="DejaVuSerif-6f" d="M 1925 219 
Q 2388 219 2623 584 
Q 2859 950 2859 1663 
Q 2859 2375 2623 2739 
Q 2388 3103 1925 3103 
Q 1463 3103 1227 2739 
Q 991 2375 991 1663 
Q 991 950 1228 584 
Q 1466 219 1925 219 
z
M 1925 -91 
Q 1200 -91 759 389 
Q 319 869 319 1663 
Q 319 2456 758 2934 
Q 1197 3413 1925 3413 
Q 2653 3413 3092 2934 
Q 3531 2456 3531 1663 
Q 3531 869 3092 389 
Q 2653 -91 1925 -91 
z
" transform="scale(0.015625)"/>
       <path id="DejaVuSerif-77" d="M 3072 3322 
L 3922 728 
L 4672 2988 
L 4191 2988 
L 4191 3322 
L 5394 3322 
L 5394 2988 
L 5025 2988 
L 4038 0 
L 3559 0 
L 2741 2484 
L 1919 0 
L 1459 0 
L 475 2988 
L 103 2988 
L 103 3322 
L 1606 3322 
L 1606 2988 
L 1069 2988 
L 1813 728 
L 2669 3322 
L 3072 3322 
z
" transform="scale(0.015625)"/>
       <path id="DejaVuSerif-53" d="M 594 225 
L 594 1288 
L 953 1284 
Q 969 753 1261 498 
Q 1553 244 2150 244 
Q 2706 244 2998 464 
Q 3291 684 3291 1106 
Q 3291 1444 3114 1625 
Q 2938 1806 2369 1978 
L 1753 2163 
Q 1084 2366 811 2669 
Q 538 2972 538 3500 
Q 538 4094 959 4422 
Q 1381 4750 2144 4750 
Q 2469 4750 2856 4679 
Q 3244 4609 3681 4475 
L 3681 3481 
L 3328 3481 
Q 3275 3975 2998 4195 
Q 2722 4416 2156 4416 
Q 1663 4416 1405 4214 
Q 1147 4013 1147 3628 
Q 1147 3294 1340 3103 
Q 1534 2913 2163 2725 
L 2741 2553 
Q 3375 2363 3645 2067 
Q 3916 1772 3916 1275 
Q 3916 597 3481 253 
Q 3047 -91 2188 -91 
Q 1803 -91 1404 -12 
Q 1006 66 594 225 
z
" transform="scale(0.015625)"/>
       <path id="DejaVuSerif-70" d="M 1313 1825 
L 1313 1497 
Q 1313 897 1542 583 
Q 1772 269 2209 269 
Q 2650 269 2876 622 
Q 3103 975 3103 1663 
Q 3103 2353 2876 2703 
Q 2650 3053 2209 3053 
Q 1772 3053 1542 2737 
Q 1313 2422 1313 1825 
z
M 738 2988 
L 184 2988 
L 184 3322 
L 1313 3322 
L 1313 2803 
Q 1481 3116 1742 3264 
Q 2003 3413 2388 3413 
Q 3000 3413 3387 2928 
Q 3775 2444 3775 1663 
Q 3775 881 3387 395 
Q 3000 -91 2388 -91 
Q 2003 -91 1742 57 
Q 1481 206 1313 519 
L 1313 -997 
L 1856 -997 
L 1856 -1331 
L 184 -1331 
L 184 -997 
L 738 -997 
L 738 2988 
z
" transform="scale(0.015625)"/>
       <path id="DejaVuSerif-74" d="M 691 2988 
L 184 2988 
L 184 3322 
L 691 3322 
L 691 4353 
L 1269 4353 
L 1269 3322 
L 2350 3322 
L 2350 2988 
L 1269 2988 
L 1269 878 
Q 1269 456 1350 337 
Q 1431 219 1650 219 
Q 1875 219 1978 351 
Q 2081 484 2088 781 
L 2522 781 
Q 2497 328 2275 118 
Q 2053 -91 1600 -91 
Q 1103 -91 897 129 
Q 691 350 691 878 
L 691 2988 
z
" transform="scale(0.015625)"/>
       <path id="DejaVuSerif-61" d="M 2547 1044 
L 2547 1747 
L 1806 1747 
Q 1378 1747 1168 1562 
Q 959 1378 959 997 
Q 959 650 1171 447 
Q 1384 244 1747 244 
Q 2106 244 2326 466 
Q 2547 688 2547 1044 
z
M 3122 2075 
L 3122 331 
L 3634 331 
L 3634 0 
L 2547 0 
L 2547 359 
Q 2356 128 2106 18 
Q 1856 -91 1522 -91 
Q 969 -91 644 203 
Q 319 497 319 997 
Q 319 1513 691 1797 
Q 1063 2081 1741 2081 
L 2547 2081 
L 2547 2309 
Q 2547 2688 2317 2895 
Q 2088 3103 1672 3103 
Q 1328 3103 1125 2947 
Q 922 2791 872 2484 
L 575 2484 
L 575 3156 
Q 875 3284 1158 3348 
Q 1441 3413 1709 3413 
Q 2400 3413 2761 3070 
Q 3122 2728 3122 2075 
z
" transform="scale(0.015625)"/>
       <path id="DejaVuSerif-6c" d="M 1313 331 
L 1856 331 
L 1856 0 
L 184 0 
L 184 331 
L 738 331 
L 738 4531 
L 184 4531 
L 184 4863 
L 1313 4863 
L 1313 331 
z
" transform="scale(0.015625)"/>
       <path id="DejaVuSerif-44" d="M 1581 331 
L 2163 331 
Q 3072 331 3558 850 
Q 4044 1369 4044 2338 
Q 4044 3306 3559 3818 
Q 3075 4331 2163 4331 
L 1581 4331 
L 1581 331 
z
M 353 0 
L 353 331 
L 947 331 
L 947 4331 
L 353 4331 
L 353 4666 
L 2209 4666 
Q 3416 4666 4089 4050 
Q 4763 3434 4763 2338 
Q 4763 1238 4088 619 
Q 3413 0 2209 0 
L 353 0 
z
" transform="scale(0.015625)"/>
       <path id="DejaVuSerif-73" d="M 359 184 
L 359 959 
L 691 959 
Q 703 588 923 403 
Q 1144 219 1575 219 
Q 1963 219 2166 364 
Q 2369 509 2369 788 
Q 2369 1006 2220 1140 
Q 2072 1275 1594 1428 
L 1178 1569 
Q 750 1706 558 1912 
Q 366 2119 366 2438 
Q 366 2894 700 3153 
Q 1034 3413 1625 3413 
Q 1888 3413 2178 3344 
Q 2469 3275 2778 3144 
L 2778 2419 
L 2447 2419 
Q 2434 2741 2221 2922 
Q 2009 3103 1644 3103 
Q 1281 3103 1095 2975 
Q 909 2847 909 2591 
Q 909 2381 1050 2254 
Q 1191 2128 1613 1997 
L 2069 1856 
Q 2541 1709 2748 1489 
Q 2956 1269 2956 922 
Q 2956 450 2595 179 
Q 2234 -91 1600 -91 
Q 1278 -91 972 -22 
Q 666 47 359 184 
z
" transform="scale(0.015625)"/>
       <path id="DejaVuSerif-69" d="M 622 4353 
Q 622 4497 726 4603 
Q 831 4709 978 4709 
Q 1122 4709 1226 4603 
Q 1331 4497 1331 4353 
Q 1331 4206 1228 4103 
Q 1125 4000 978 4000 
Q 831 4000 726 4103 
Q 622 4206 622 4353 
z
M 1356 331 
L 1900 331 
L 1900 0 
L 231 0 
L 231 331 
L 781 331 
L 781 2988 
L 231 2988 
L 231 3322 
L 1356 3322 
L 1356 331 
z
" transform="scale(0.015625)"/>
       <path id="DejaVuSerif-64" d="M 3359 331 
L 3909 331 
L 3909 0 
L 2784 0 
L 2784 519 
Q 2616 206 2355 57 
Q 2094 -91 1709 -91 
Q 1097 -91 708 395 
Q 319 881 319 1663 
Q 319 2444 706 2928 
Q 1094 3413 1709 3413 
Q 2094 3413 2355 3264 
Q 2616 3116 2784 2803 
L 2784 4531 
L 2241 4531 
L 2241 4863 
L 3359 4863 
L 3359 331 
z
M 2784 1497 
L 2784 1825 
Q 2784 2422 2554 2737 
Q 2325 3053 1888 3053 
Q 1444 3053 1217 2703 
Q 991 2353 991 1663 
Q 991 975 1217 622 
Q 1444 269 1888 269 
Q 2325 269 2554 583 
Q 2784 897 2784 1497 
z
" transform="scale(0.015625)"/>
       <path id="DejaVuSerif-42" d="M 1581 331 
L 2516 331 
Q 3078 331 3337 575 
Q 3597 819 3597 1350 
Q 3597 1878 3339 2120 
Q 3081 2363 2516 2363 
L 1581 2363 
L 1581 331 
z
M 1581 2694 
L 2375 2694 
Q 2888 2694 3123 2891 
Q 3359 3088 3359 3513 
Q 3359 3941 3123 4136 
Q 2888 4331 2375 4331 
L 1581 4331 
L 1581 2694 
z
M 353 0 
L 353 331 
L 947 331 
L 947 4331 
L 353 4331 
L 353 4666 
L 2656 4666 
Q 3363 4666 3720 4377 
Q 4078 4088 4078 3513 
Q 4078 3097 3829 2850 
Q 3581 2603 3103 2547 
Q 3697 2472 4005 2167 
Q 4313 1863 4313 1350 
Q 4313 656 3875 328 
Q 3438 0 2509 0 
L 353 0 
z
" transform="scale(0.015625)"/>
      </defs>
      <use xlink:href="#DejaVuSerif-50"/>
      <use xlink:href="#DejaVuSerif-6f" transform="translate(63.285156 0)"/>
      <use xlink:href="#DejaVuSerif-77" transform="translate(123.490234 0)"/>
      <use xlink:href="#DejaVuSerif-65" transform="translate(209.085938 0)"/>
      <use xlink:href="#DejaVuSerif-72" transform="translate(268.265625 0)"/>
      <use xlink:href="#DejaVuSerif-20" transform="translate(316.068359 0)"/>
      <use xlink:href="#DejaVuSerif-53" transform="translate(347.855469 0)"/>
      <use xlink:href="#DejaVuSerif-70" transform="translate(416.361328 0)"/>
      <use xlink:href="#DejaVuSerif-65" transform="translate(480.375 0)"/>
      <use xlink:href="#DejaVuSerif-63" transform="translate(539.554688 0)"/>
      <use xlink:href="#DejaVuSerif-74" transform="translate(595.560547 0)"/>
      <use xlink:href="#DejaVuSerif-72" transform="translate(635.746094 0)"/>
      <use xlink:href="#DejaVuSerif-61" transform="translate(683.548828 0)"/>
      <use xlink:href="#DejaVuSerif-6c" transform="translate(743.167969 0)"/>
      <use xlink:href="#DejaVuSerif-20" transform="translate(775.150391 0)"/>
      <use xlink:href="#DejaVuSerif-44" transform="translate(806.9375 0)"/>
      <use xlink:href="#DejaVuSerif-65" transform="translate(887.113281 0)"/>
      <use xlink:href="#DejaVuSerif-6e" transform="translate(946.292969 0)"/>
      <use xlink:href="#DejaVuSerif-73" transform="translate(1010.697266 0)"/>
      <use xlink:href="#DejaVuSerif-69" transform="translate(1062.015625 0)"/>
      <use xlink:href="#DejaVuSerif-74" transform="translate(1093.998047 0)"/>
      <use xlink:href="#DejaVuSerif-79" transform="translate(1134.183594 0)"/>
      <use xlink:href="#DejaVuSerif-20" transform="translate(1190.677734 0)"/>
      <use xlink:href="#DejaVuSerif-28" transform="translate(1222.464844 0)"/>
      <use xlink:href="#DejaVuSerif-64" transform="translate(1261.478516 0)"/>
      <use xlink:href="#DejaVuSerif-42" transform="translate(1325.492188 0)"/>
      <use xlink:href="#DejaVuSerif-29" transform="translate(1398.978516 0)"/>
     </g>
    </g>
   </g>
   <g id="line2d_33">
    <path d="M 92.745739 168.047876 
L 101.200284 176.22123 
L 109.65483 183.021547 
L 118.109375 187.476031 
L 126.56392 190.206359 
L 135.018466 192.552456 
L 143.473011 194.578595 
L 151.927557 195.169898 
L 160.382102 192.127559 
L 168.836648 183.265822 
L 177.291193 167.701106 
L 185.745739 145.226861 
L 194.200284 117.395219 
L 202.65483 87.549347 
L 211.109375 62.388828 
L 219.56392 49.533517 
L 228.018466 53.173507 
L 236.473011 73.720167 
L 244.927557 108.14026 
L 253.382102 148.247786 
L 261.836648 183.269296 
L 270.291193 208.700896 
L 278.745739 226.19473 
L 287.200284 237.891798 
L 295.65483 246.220597 
L 304.109375 251.930379 
L 312.56392 255.460914 
L 321.018466 257.946735 
L 329.473011 260.191466 
L 337.927557 262.133876 
L 346.382102 263.090249 
L 354.836648 263.386624 
L 363.291193 263.425818 
L 371.745739 263.085514 
L 380.200284 262.588639 
L 388.65483 261.697343 
L 397.109375 260.128468 
L 405.56392 258.185954 
L 414.018466 257.356164 
L 422.473011 259.281913 
L 430.927557 264.717568 
L 439.382102 273.788816 
L 447.836648 285.803122 
L 456.291193 298.762327 
L 464.745739 309.893948 
L 473.200284 318.114543 
L 481.65483 323.957795 
L 490.109375 328.03765 
L 498.56392 330.640309 
L 507.018466 332.62554 
L 515.473011 333.831098 
L 523.927557 334.220478 
L 532.382102 334.320776 
L 540.836648 334.434915 
L 549.291193 335.143065 
L 557.745739 336.197126 
L 566.200284 337.035267 
L 574.65483 337.218865 
L 583.109375 336.542043 
L 591.56392 335.692366 
L 600.018466 335.452066 
L 608.473011 335.70765 
L 616.927557 336.585419 
L 625.382102 338.025577 
L 633.836648 339.674332 
L 642.291193 341.292223 
L 650.745739 343.144069 
L 659.200284 345.723605 
L 667.65483 348.958032 
L 676.109375 352.025619 
L 684.56392 354.481971 
L 693.018466 355.802846 
L 701.473011 356.553574 
" clip-path="url(#p53d17b12d6)" style="fill: none; stroke: #1f77b4; stroke-width: 1.5; stroke-linecap: square"/>
   </g>
   <g id="line2d_34">
    <path d="M 92.745739 169.391159 
L 101.200284 173.272517 
L 109.65483 176.638421 
L 118.109375 179.866296 
L 126.56392 183.025754 
L 135.018466 187.615616 
L 143.473011 192.506616 
L 151.927557 195.342045 
L 160.382102 193.900814 
L 168.836648 184.627758 
L 177.291193 165.432956 
L 185.745739 138.220094 
L 194.200284 106.622458 
L 202.65483 77.0671 
L 211.109375 53.970184 
L 219.56392 40.774844 
L 228.018466 42.694541 
L 236.473011 62.791108 
L 244.927557 98.843823 
L 253.382102 143.567888 
L 261.836648 185.351921 
L 270.291193 213.391583 
L 278.745739 228.211218 
L 287.200284 237.061139 
L 295.65483 242.819065 
L 304.109375 246.91318 
L 312.56392 252.181045 
L 321.018466 256.575412 
L 329.473011 260.248013 
L 337.927557 264.299396 
L 346.382102 266.085559 
L 354.836648 265.000377 
L 363.291193 263.123002 
L 371.745739 261.715287 
L 380.200284 260.64942 
L 388.65483 260.179745 
L 397.109375 259.93574 
L 405.56392 257.627402 
L 414.018466 254.015081 
L 422.473011 252.29468 
L 430.927557 255.374745 
L 439.382102 262.999316 
L 447.836648 275.794385 
L 456.291193 292.044363 
L 464.745739 308.218172 
L 473.200284 320.262093 
L 481.65483 327.607655 
L 490.109375 332.886706 
L 498.56392 337.377951 
L 507.018466 339.337151 
L 515.473011 339.74839 
L 523.927557 342.232011 
L 532.382102 344.65564 
L 540.836648 344.738323 
L 549.291193 344.192537 
L 557.745739 344.259548 
L 566.200284 343.773192 
L 574.65483 343.74662 
L 583.109375 343.373436 
L 591.56392 341.646352 
L 600.018466 340.18809 
L 608.473011 339.731811 
L 616.927557 338.760457 
L 625.382102 338.178888 
L 633.836648 339.479083 
L 642.291193 342.232647 
L 650.745739 345.548066 
L 659.200284 349.377967 
L 667.65483 354.014961 
L 676.109375 358.579198 
L 684.56392 362.587568 
L 693.018466 365.598459 
L 701.473011 368.023038 
" clip-path="url(#p53d17b12d6)" style="fill: none; stroke: #d62728; stroke-width: 1.5; stroke-linecap: square"/>
   </g>
   <g id="line2d_35">
    <path d="M 92.745739 173.525256 
L 101.200284 180.259746 
L 109.65483 185.289252 
L 118.109375 189.389277 
L 126.56392 192.043528 
L 135.018466 193.161322 
L 143.473011 194.004236 
L 151.927557 194.73324 
L 160.382102 192.650496 
L 168.836648 184.741948 
L 177.291193 170.601144 
L 185.745739 147.825898 
L 194.200284 114.896753 
L 202.65483 81.673513 
L 211.109375 56.788315 
L 219.56392 44.368876 
L 228.018466 47.271315 
L 236.473011 67.234601 
L 244.927557 102.841988 
L 253.382102 145.767423 
L 261.836648 183.582781 
L 270.291193 210.984813 
L 278.745739 230.272932 
L 287.200284 242.725583 
L 295.65483 250.637305 
L 304.109375 255.905138 
L 312.56392 259.321539 
L 321.018466 261.699884 
L 329.473011 264.240741 
L 337.927557 266.23758 
L 346.382102 265.648175 
L 354.836648 264.683544 
L 363.291193 265.375739 
L 371.745739 265.399527 
L 380.200284 263.248553 
L 388.65483 259.966853 
L 397.109375 257.226762 
L 405.56392 256.317554 
L 414.018466 257.195187 
L 422.473011 259.838224 
L 430.927557 265.195048 
L 439.382102 274.723747 
L 447.836648 288.273041 
L 456.291193 302.668283 
L 464.745739 314.638664 
L 473.200284 324.24711 
L 481.65483 331.791729 
L 490.109375 336.279391 
L 498.56392 338.595268 
L 507.018466 340.240413 
L 515.473011 341.309075 
L 523.927557 341.89568 
L 532.382102 341.689019 
L 540.836648 340.613724 
L 549.291193 339.57674 
L 557.745739 339.605391 
L 566.200284 340.151314 
L 574.65483 340.48899 
L 583.109375 340.341354 
L 591.56392 339.43687 
L 600.018466 338.415641 
L 608.473011 338.172273 
L 616.927557 339.35855 
L 625.382102 341.031549 
L 633.836648 342.83108 
L 642.291193 345.406807 
L 650.745739 349.041835 
L 659.200284 352.839412 
L 667.65483 356.326096 
L 676.109375 359.699634 
L 684.56392 362.156263 
L 693.018466 363.513488 
L 701.473011 364.894393 
" clip-path="url(#p53d17b12d6)" style="fill: none; stroke: #e377c2; stroke-width: 1.5; stroke-linecap: square"/>
   </g>
   <g id="line2d_36">
    <path d="M 92.745739 174.015163 
L 101.200284 182.561441 
L 109.65483 189.766593 
L 118.109375 191.304089 
L 126.56392 189.750328 
L 135.018466 190.437027 
L 143.473011 193.171903 
L 151.927557 195.472871 
L 160.382102 193.384749 
L 168.836648 181.540964 
L 177.291193 158.548254 
L 185.745739 130.043008 
L 194.200284 102.023457 
L 202.65483 76.687653 
L 211.109375 56.940387 
L 219.56392 47.721031 
L 228.018466 53.763563 
L 236.473011 78.242777 
L 244.927557 119.117596 
L 253.382102 164.801727 
L 261.836648 201.733296 
L 270.291193 228.057363 
L 278.745739 247.218542 
L 287.200284 259.287514 
L 295.65483 265.326183 
L 304.109375 269.509765 
L 312.56392 272.470475 
L 321.018466 273.541879 
L 329.473011 273.62231 
L 337.927557 272.297938 
L 346.382102 270.944863 
L 354.836648 271.082382 
L 363.291193 271.093851 
L 371.745739 268.142015 
L 380.200284 264.495246 
L 388.65483 263.555839 
L 397.109375 265.120689 
L 405.56392 267.507422 
L 414.018466 268.259319 
L 422.473011 268.744671 
L 430.927557 271.4468 
L 439.382102 277.272436 
L 447.836648 287.570514 
L 456.291193 300.814352 
L 464.745739 311.978745 
L 473.200284 317.862004 
L 481.65483 320.457567 
L 490.109375 322.753377 
L 498.56392 325.375891 
L 507.018466 328.00311 
L 515.473011 329.492545 
L 523.927557 331.89631 
L 532.382102 335.44007 
L 540.836648 336.088237 
L 549.291193 334.342105 
L 557.745739 333.264494 
L 566.200284 332.585196 
L 574.65483 331.456104 
L 583.109375 330.130988 
L 591.56392 328.526485 
L 600.018466 327.162522 
L 608.473011 327.887134 
L 616.927557 330.250118 
L 625.382102 330.387139 
L 633.836648 328.557127 
L 642.291193 330.783614 
L 650.745739 335.364172 
L 659.200284 337.854819 
L 667.65483 338.235646 
L 676.109375 339.256993 
L 684.56392 340.946333 
L 693.018466 341.932796 
L 701.473011 342.820282 
" clip-path="url(#p53d17b12d6)" style="fill: none; stroke: #17becf; stroke-width: 1.5; stroke-linecap: square"/>
   </g>
   <g id="patch_3">
    <path d="M 62.309375 411.214844 
L 62.309375 23.134844 
" style="fill: none; stroke: #333333; stroke-linejoin: miter; stroke-linecap: square"/>
   </g>
   <g id="patch_4">
    <path d="M 62.309375 411.214844 
L 731.909375 411.214844 
" style="fill: none; stroke: #333333; stroke-linejoin: miter; stroke-linecap: square"/>
   </g>
   <g id="text_19">
    <!-- Dataset: Jin et al. (2019) | Subject: 30 | Session: 2 | All Task-State PSDs -->
    <g transform="translate(161.556484 17.134844) scale(0.13 -0.13)">
     <defs>
      <path id="DejaVuSerif-3a" d="M 666 325 
Q 666 500 786 622 
Q 906 744 1081 744 
Q 1256 744 1376 622 
Q 1497 500 1497 325 
Q 1497 150 1378 29 
Q 1259 -91 1081 -91 
Q 903 -91 784 29 
Q 666 150 666 325 
z
M 666 2363 
Q 666 2538 786 2658 
Q 906 2778 1081 2778 
Q 1259 2778 1378 2659 
Q 1497 2541 1497 2363 
Q 1497 2184 1378 2065 
Q 1259 1947 1081 1947 
Q 906 1947 786 2067 
Q 666 2188 666 2363 
z
" transform="scale(0.015625)"/>
      <path id="DejaVuSerif-4a" d="M -538 -1119 
L -538 -384 
L -181 -384 
Q -172 -694 -34 -845 
Q 103 -997 378 -997 
Q 750 -997 897 -762 
Q 1044 -528 1044 153 
L 1044 4331 
L 319 4331 
L 319 4666 
L 2272 4666 
L 2272 4331 
L 1678 4331 
L 1678 128 
Q 1678 -644 1368 -987 
Q 1059 -1331 372 -1331 
Q 150 -1331 -79 -1278 
Q -309 -1225 -538 -1119 
z
" transform="scale(0.015625)"/>
      <path id="DejaVuSerif-39" d="M 2994 2091 
Q 2784 1856 2512 1740 
Q 2241 1625 1900 1625 
Q 1206 1625 804 2044 
Q 403 2463 403 3188 
Q 403 3897 839 4323 
Q 1275 4750 2003 4750 
Q 2794 4750 3217 4161 
Q 3641 3572 3641 2478 
Q 3641 1253 3137 581 
Q 2634 -91 1722 -91 
Q 1475 -91 1203 -44 
Q 931 3 647 97 
L 647 872 
L 997 872 
Q 1038 556 1241 387 
Q 1444 219 1784 219 
Q 2391 219 2687 676 
Q 2984 1134 2994 2091 
z
M 1978 4441 
Q 1534 4441 1298 4117 
Q 1063 3794 1063 3188 
Q 1063 2581 1298 2256 
Q 1534 1931 1978 1931 
Q 2422 1931 2658 2245 
Q 2894 2559 2894 3150 
Q 2894 3772 2656 4106 
Q 2419 4441 1978 4441 
z
" transform="scale(0.015625)"/>
      <path id="DejaVuSerif-7c" d="M 1331 4891 
L 1331 -1509 
L 825 -1509 
L 825 4891 
L 1331 4891 
z
" transform="scale(0.015625)"/>
      <path id="DejaVuSerif-62" d="M 738 331 
L 738 4531 
L 184 4531 
L 184 4863 
L 1313 4863 
L 1313 2803 
Q 1481 3116 1742 3264 
Q 2003 3413 2388 3413 
Q 3000 3413 3387 2928 
Q 3775 2444 3775 1663 
Q 3775 881 3387 395 
Q 3000 -91 2388 -91 
Q 2003 -91 1742 57 
Q 1481 206 1313 519 
L 1313 0 
L 184 0 
L 184 331 
L 738 331 
z
M 1313 1497 
Q 1313 897 1542 583 
Q 1772 269 2209 269 
Q 2650 269 2876 622 
Q 3103 975 3103 1663 
Q 3103 2353 2876 2703 
Q 2650 3053 2209 3053 
Q 1772 3053 1542 2737 
Q 1313 2422 1313 1825 
L 1313 1497 
z
" transform="scale(0.015625)"/>
      <path id="DejaVuSerif-6a" d="M 641 4353 
Q 641 4497 745 4603 
Q 850 4709 997 4709 
Q 1141 4709 1245 4603 
Q 1350 4497 1350 4353 
Q 1350 4206 1248 4103 
Q 1147 4000 997 4000 
Q 850 4000 745 4103 
Q 641 4206 641 4353 
z
M 781 2988 
L 238 2988 
L 238 3322 
L 1356 3322 
L 1356 -325 
Q 1356 -838 1051 -1130 
Q 747 -1422 213 -1422 
Q -13 -1422 -217 -1370 
Q -422 -1319 -616 -1216 
L -616 -531 
L -319 -531 
Q -297 -831 -164 -972 
Q -31 -1113 225 -1113 
Q 509 -1113 645 -920 
Q 781 -728 781 -325 
L 781 2988 
z
" transform="scale(0.015625)"/>
      <path id="DejaVuSerif-41" d="M 1281 1691 
L 2994 1691 
L 2138 3909 
L 1281 1691 
z
M -38 0 
L -38 331 
L 372 331 
L 2034 4666 
L 2559 4666 
L 4225 331 
L 4684 331 
L 4684 0 
L 2988 0 
L 2988 331 
L 3506 331 
L 3116 1356 
L 1153 1356 
L 763 331 
L 1275 331 
L 1275 0 
L -38 0 
z
" transform="scale(0.015625)"/>
      <path id="DejaVuSerif-54" d="M 1222 0 
L 1222 331 
L 1819 331 
L 1819 4294 
L 447 4294 
L 447 3566 
L 63 3566 
L 63 4666 
L 4206 4666 
L 4206 3566 
L 3822 3566 
L 3822 4294 
L 2450 4294 
L 2450 331 
L 3047 331 
L 3047 0 
L 1222 0 
z
" transform="scale(0.015625)"/>
      <path id="DejaVuSerif-6b" d="M 1831 0 
L 219 0 
L 219 331 
L 738 331 
L 738 4531 
L 184 4531 
L 184 4863 
L 1313 4863 
L 1313 1697 
L 2713 2988 
L 2234 2988 
L 2234 3322 
L 3738 3322 
L 3738 2988 
L 3169 2988 
L 2181 2075 
L 3444 331 
L 3922 331 
L 3922 0 
L 2284 0 
L 2284 331 
L 2759 331 
L 1766 1697 
L 1313 1275 
L 1313 331 
L 1831 331 
L 1831 0 
z
" transform="scale(0.015625)"/>
      <path id="DejaVuSerif-2d" d="M 281 1959 
L 1881 1959 
L 1881 1472 
L 281 1472 
L 281 1959 
z
" transform="scale(0.015625)"/>
     </defs>
     <use xlink:href="#DejaVuSerif-44"/>
     <use xlink:href="#DejaVuSerif-61" transform="translate(80.175781 0)"/>
     <use xlink:href="#DejaVuSerif-74" transform="translate(139.794922 0)"/>
     <use xlink:href="#DejaVuSerif-61" transform="translate(179.980469 0)"/>
     <use xlink:href="#DejaVuSerif-73" transform="translate(239.599609 0)"/>
     <use xlink:href="#DejaVuSerif-65" transform="translate(290.917969 0)"/>
     <use xlink:href="#DejaVuSerif-74" transform="translate(350.097656 0)"/>
     <use xlink:href="#DejaVuSerif-3a" transform="translate(390.283203 0)"/>
     <use xlink:href="#DejaVuSerif-20" transform="translate(423.974609 0)"/>
     <use xlink:href="#DejaVuSerif-4a" transform="translate(455.761719 0)"/>
     <use xlink:href="#DejaVuSerif-69" transform="translate(495.849609 0)"/>
     <use xlink:href="#DejaVuSerif-6e" transform="translate(527.832031 0)"/>
     <use xlink:href="#DejaVuSerif-20" transform="translate(592.236328 0)"/>
     <use xlink:href="#DejaVuSerif-65" transform="translate(624.023438 0)"/>
     <use xlink:href="#DejaVuSerif-74" transform="translate(683.203125 0)"/>
     <use xlink:href="#DejaVuSerif-20" transform="translate(723.388672 0)"/>
     <use xlink:href="#DejaVuSerif-61" transform="translate(755.175781 0)"/>
     <use xlink:href="#DejaVuSerif-6c" transform="translate(814.794922 0)"/>
     <use xlink:href="#DejaVuSerif-2e" transform="translate(846.777344 0)"/>
     <use xlink:href="#DejaVuSerif-20" transform="translate(878.564453 0)"/>
     <use xlink:href="#DejaVuSerif-28" transform="translate(910.351562 0)"/>
     <use xlink:href="#DejaVuSerif-32" transform="translate(949.365234 0)"/>
     <use xlink:href="#DejaVuSerif-30" transform="translate(1012.988281 0)"/>
     <use xlink:href="#DejaVuSerif-31" transform="translate(1076.611328 0)"/>
     <use xlink:href="#DejaVuSerif-39" transform="translate(1140.234375 0)"/>
     <use xlink:href="#DejaVuSerif-29" transform="translate(1203.857422 0)"/>
     <use xlink:href="#DejaVuSerif-20" transform="translate(1242.871094 0)"/>
     <use xlink:href="#DejaVuSerif-7c" transform="translate(1274.658203 0)"/>
     <use xlink:href="#DejaVuSerif-20" transform="translate(1308.349609 0)"/>
     <use xlink:href="#DejaVuSerif-53" transform="translate(1340.136719 0)"/>
     <use xlink:href="#DejaVuSerif-75" transform="translate(1408.642578 0)"/>
     <use xlink:href="#DejaVuSerif-62" transform="translate(1473.046875 0)"/>
     <use xlink:href="#DejaVuSerif-6a" transform="translate(1537.060547 0)"/>
     <use xlink:href="#DejaVuSerif-65" transform="translate(1568.066406 0)"/>
     <use xlink:href="#DejaVuSerif-63" transform="translate(1627.246094 0)"/>
     <use xlink:href="#DejaVuSerif-74" transform="translate(1683.251953 0)"/>
     <use xlink:href="#DejaVuSerif-3a" transform="translate(1723.4375 0)"/>
     <use xlink:href="#DejaVuSerif-20" transform="translate(1757.128906 0)"/>
     <use xlink:href="#DejaVuSerif-33" transform="translate(1788.916016 0)"/>
     <use xlink:href="#DejaVuSerif-30" transform="translate(1852.539062 0)"/>
     <use xlink:href="#DejaVuSerif-20" transform="translate(1916.162109 0)"/>
     <use xlink:href="#DejaVuSerif-7c" transform="translate(1947.949219 0)"/>
     <use xlink:href="#DejaVuSerif-20" transform="translate(1981.640625 0)"/>
     <use xlink:href="#DejaVuSerif-53" transform="translate(2013.427734 0)"/>
     <use xlink:href="#DejaVuSerif-65" transform="translate(2081.933594 0)"/>
     <use xlink:href="#DejaVuSerif-73" transform="translate(2141.113281 0)"/>
     <use xlink:href="#DejaVuSerif-73" transform="translate(2192.431641 0)"/>
     <use xlink:href="#DejaVuSerif-69" transform="translate(2243.75 0)"/>
     <use xlink:href="#DejaVuSerif-6f" transform="translate(2275.732422 0)"/>
     <use xlink:href="#DejaVuSerif-6e" transform="translate(2335.9375 0)"/>
     <use xlink:href="#DejaVuSerif-3a" transform="translate(2400.341797 0)"/>
     <use xlink:href="#DejaVuSerif-20" transform="translate(2434.033203 0)"/>
     <use xlink:href="#DejaVuSerif-32" transform="translate(2465.820312 0)"/>
     <use xlink:href="#DejaVuSerif-20" transform="translate(2529.443359 0)"/>
     <use xlink:href="#DejaVuSerif-7c" transform="translate(2561.230469 0)"/>
     <use xlink:href="#DejaVuSerif-20" transform="translate(2594.921875 0)"/>
     <use xlink:href="#DejaVuSerif-41" transform="translate(2626.708984 0)"/>
     <use xlink:href="#DejaVuSerif-6c" transform="translate(2698.925781 0)"/>
     <use xlink:href="#DejaVuSerif-6c" transform="translate(2730.908203 0)"/>
     <use xlink:href="#DejaVuSerif-20" transform="translate(2762.890625 0)"/>
     <use xlink:href="#DejaVuSerif-54" transform="translate(2794.677734 0)"/>
     <use xlink:href="#DejaVuSerif-61" transform="translate(2853.626953 0)"/>
     <use xlink:href="#DejaVuSerif-73" transform="translate(2913.246094 0)"/>
     <use xlink:href="#DejaVuSerif-6b" transform="translate(2964.564453 0)"/>
     <use xlink:href="#DejaVuSerif-2d" transform="translate(3023.410156 0)"/>
     <use xlink:href="#DejaVuSerif-53" transform="translate(3057.199219 0)"/>
     <use xlink:href="#DejaVuSerif-74" transform="translate(3125.705078 0)"/>
     <use xlink:href="#DejaVuSerif-61" transform="translate(3165.890625 0)"/>
     <use xlink:href="#DejaVuSerif-74" transform="translate(3225.509766 0)"/>
     <use xlink:href="#DejaVuSerif-65" transform="translate(3265.695312 0)"/>
     <use xlink:href="#DejaVuSerif-20" transform="translate(3324.875 0)"/>
     <use xlink:href="#DejaVuSerif-50" transform="translate(3356.662109 0)"/>
     <use xlink:href="#DejaVuSerif-53" transform="translate(3423.947266 0)"/>
     <use xlink:href="#DejaVuSerif-44" transform="translate(3492.453125 0)"/>
     <use xlink:href="#DejaVuSerif-73" transform="translate(3572.628906 0)"/>
    </g>
   </g>
   <g id="legend_1">
    <g id="line2d_37">
     <path d="M 644.764063 36.233281 
L 654.764063 36.233281 
L 664.764063 36.233281 
" style="fill: none; stroke: #1f77b4; stroke-width: 1.5; stroke-linecap: square"/>
    </g>
    <g id="text_20">
     <!-- vs - MW -->
     <g transform="translate(672.764063 39.733281) scale(0.1 -0.1)">
      <defs>
       <path id="DejaVuSerif-76" d="M 1581 0 
L 359 2988 
L -19 2988 
L -19 3322 
L 1509 3322 
L 1509 2988 
L 978 2988 
L 1913 703 
L 2847 2988 
L 2350 2988 
L 2350 3322 
L 3597 3322 
L 3597 2988 
L 3225 2988 
L 2003 0 
L 1581 0 
z
" transform="scale(0.015625)"/>
       <path id="DejaVuSerif-4d" d="M 353 0 
L 353 331 
L 947 331 
L 947 4331 
L 319 4331 
L 319 4666 
L 1678 4666 
L 3316 1344 
L 4953 4666 
L 6228 4666 
L 6228 4331 
L 5606 4331 
L 5606 331 
L 6203 331 
L 6203 0 
L 4378 0 
L 4378 331 
L 4972 331 
L 4972 3938 
L 3372 684 
L 2931 684 
L 1331 3938 
L 1331 331 
L 1925 331 
L 1925 0 
L 353 0 
z
" transform="scale(0.015625)"/>
       <path id="DejaVuSerif-57" d="M 4878 0 
L 4366 0 
L 3297 3794 
L 2228 0 
L 1716 0 
L 494 4331 
L 31 4331 
L 31 4666 
L 1734 4666 
L 1734 4331 
L 1153 4331 
L 2125 884 
L 3188 4666 
L 3694 4666 
L 4775 844 
L 5753 4331 
L 5216 4331 
L 5216 4666 
L 6559 4666 
L 6559 4331 
L 6100 4331 
L 4878 0 
z
" transform="scale(0.015625)"/>
      </defs>
      <use xlink:href="#DejaVuSerif-76"/>
      <use xlink:href="#DejaVuSerif-73" transform="translate(56.494141 0)"/>
      <use xlink:href="#DejaVuSerif-20" transform="translate(107.8125 0)"/>
      <use xlink:href="#DejaVuSerif-2d" transform="translate(139.599609 0)"/>
      <use xlink:href="#DejaVuSerif-20" transform="translate(173.388672 0)"/>
      <use xlink:href="#DejaVuSerif-4d" transform="translate(205.175781 0)"/>
      <use xlink:href="#DejaVuSerif-57" transform="translate(307.568359 0)"/>
     </g>
    </g>
    <g id="line2d_38">
     <path d="M 644.764063 50.911406 
L 654.764063 50.911406 
L 664.764063 50.911406 
" style="fill: none; stroke: #d62728; stroke-width: 1.5; stroke-linecap: square"/>
    </g>
    <g id="text_21">
     <!-- vs - OT -->
     <g transform="translate(672.764063 54.411406) scale(0.1 -0.1)">
      <defs>
       <path id="DejaVuSerif-4f" d="M 2625 244 
Q 3391 244 3781 770 
Q 4172 1297 4172 2328 
Q 4172 3363 3781 3889 
Q 3391 4416 2625 4416 
Q 1856 4416 1465 3889 
Q 1075 3363 1075 2328 
Q 1075 1297 1465 770 
Q 1856 244 2625 244 
z
M 2625 -91 
Q 2150 -91 1751 65 
Q 1353 222 1050 525 
Q 700 875 529 1319 
Q 359 1763 359 2328 
Q 359 2894 529 3339 
Q 700 3784 1050 4134 
Q 1356 4441 1750 4595 
Q 2144 4750 2625 4750 
Q 3641 4750 4266 4084 
Q 4891 3419 4891 2328 
Q 4891 1769 4719 1320 
Q 4547 872 4197 525 
Q 3891 219 3497 64 
Q 3103 -91 2625 -91 
z
" transform="scale(0.015625)"/>
      </defs>
      <use xlink:href="#DejaVuSerif-76"/>
      <use xlink:href="#DejaVuSerif-73" transform="translate(56.494141 0)"/>
      <use xlink:href="#DejaVuSerif-20" transform="translate(107.8125 0)"/>
      <use xlink:href="#DejaVuSerif-2d" transform="translate(139.599609 0)"/>
      <use xlink:href="#DejaVuSerif-20" transform="translate(173.388672 0)"/>
      <use xlink:href="#DejaVuSerif-4f" transform="translate(205.175781 0)"/>
      <use xlink:href="#DejaVuSerif-54" transform="translate(287.158203 0)"/>
     </g>
    </g>
    <g id="line2d_39">
     <path d="M 644.764063 65.589531 
L 654.764063 65.589531 
L 664.764063 65.589531 
" style="fill: none; stroke: #e377c2; stroke-width: 1.5; stroke-linecap: square"/>
    </g>
    <g id="text_22">
     <!-- sart - MW -->
     <g transform="translate(672.764063 69.089531) scale(0.1 -0.1)">
      <use xlink:href="#DejaVuSerif-73"/>
      <use xlink:href="#DejaVuSerif-61" transform="translate(51.318359 0)"/>
      <use xlink:href="#DejaVuSerif-72" transform="translate(110.9375 0)"/>
      <use xlink:href="#DejaVuSerif-74" transform="translate(158.740234 0)"/>
      <use xlink:href="#DejaVuSerif-20" transform="translate(198.925781 0)"/>
      <use xlink:href="#DejaVuSerif-2d" transform="translate(230.712891 0)"/>
      <use xlink:href="#DejaVuSerif-20" transform="translate(264.501953 0)"/>
      <use xlink:href="#DejaVuSerif-4d" transform="translate(296.289062 0)"/>
      <use xlink:href="#DejaVuSerif-57" transform="translate(398.681641 0)"/>
     </g>
    </g>
    <g id="line2d_40">
     <path d="M 644.764063 80.267656 
L 654.764063 80.267656 
L 664.764063 80.267656 
" style="fill: none; stroke: #17becf; stroke-width: 1.5; stroke-linecap: square"/>
    </g>
    <g id="text_23">
     <!-- sart - OT -->
     <g transform="translate(672.764063 83.767656) scale(0.1 -0.1)">
      <use xlink:href="#DejaVuSerif-73"/>
      <use xlink:href="#DejaVuSerif-61" transform="translate(51.318359 0)"/>
      <use xlink:href="#DejaVuSerif-72" transform="translate(110.9375 0)"/>
      <use xlink:href="#DejaVuSerif-74" transform="translate(158.740234 0)"/>
      <use xlink:href="#DejaVuSerif-20" transform="translate(198.925781 0)"/>
      <use xlink:href="#DejaVuSerif-2d" transform="translate(230.712891 0)"/>
      <use xlink:href="#DejaVuSerif-20" transform="translate(264.501953 0)"/>
      <use xlink:href="#DejaVuSerif-4f" transform="translate(296.289062 0)"/>
      <use xlink:href="#DejaVuSerif-54" transform="translate(378.271484 0)"/>
     </g>
    </g>
   </g>
  </g>
 </g>
 <defs>
  <clipPath id="p53d17b12d6">
   <rect x="62.309375" y="23.134844" width="669.6" height="388.08"/>
  </clipPath>
 </defs>
</svg>
