<?xml version="1.0" encoding="utf-8" standalone="no"?>
<!DOCTYPE svg PUBLIC "-//W3C//DTD SVG 1.1//EN"
  "http://www.w3.org/Graphics/SVG/1.1/DTD/svg11.dtd">
<svg xmlns:xlink="http://www.w3.org/1999/xlink" width="739.109375pt" height="448.9275pt" viewBox="0 0 739.109375 448.9275" xmlns="http://www.w3.org/2000/svg" version="1.1">
 <metadata>
  <rdf:RDF xmlns:dc="http://purl.org/dc/elements/1.1/" xmlns:cc="http://creativecommons.org/ns#" xmlns:rdf="http://www.w3.org/1999/02/22-rdf-syntax-ns#">
   <cc:Work>
    <dc:type rdf:resource="http://purl.org/dc/dcmitype/StillImage"/>
    <dc:date>2025-05-30T20:15:58.765704</dc:date>
    <dc:format>image/svg+xml</dc:format>
    <dc:creator>
     <cc:Agent>
      <dc:title>Matplotlib v3.10.3, https://matplotlib.org/</dc:title>
     </cc:Agent>
    </dc:creator>
   </cc:Work>
  </rdf:RDF>
 </metadata>
 <defs>
  <style type="text/css">*{stroke-linejoin: round; stroke-linecap: butt}</style>
 </defs>
 <g id="figure_1">
  <g id="patch_1">
   <path d="M 0 448.9275 
L 739.109375 448.9275 
L 739.109375 0 
L 0 0 
z
" style="fill: #ffffff"/>
  </g>
  <g id="axes_1">
   <g id="patch_2">
    <path d="M 62.309375 411.214844 
L 731.909375 411.214844 
L 731.909375 23.134844 
L 62.309375 23.134844 
z
" style="fill: #ffffff"/>
   </g>
   <g id="FillBetweenPolyCollection_1">
    <defs>
     <path id="m63860978f3" d="M 92.745739 -364.507549 
L 92.745739 -364.507549 
L 101.200284 -357.898281 
L 109.65483 -359.902493 
L 118.109375 -374.031658 
L 126.56392 -390.287632 
L 135.018466 -396.862921 
L 143.473011 -388.390862 
L 151.927557 -368.067459 
L 160.382102 -350.958181 
L 168.836648 -353.398217 
L 177.291193 -367.441994 
L 185.745739 -376.172602 
L 194.200284 -371.730714 
L 202.65483 -356.313214 
L 211.109375 -337.792819 
L 219.56392 -320.338519 
L 228.018466 -304.40225 
L 236.473011 -291.851719 
L 244.927557 -283.320276 
L 253.382102 -276.56177 
L 261.836648 -270.807256 
L 270.291193 -265.566942 
L 278.745739 -259.995206 
L 287.200284 -255.181512 
L 295.65483 -252.321969 
L 304.109375 -250.864599 
L 312.56392 -250.564433 
L 321.018466 -251.302303 
L 329.473011 -253.16192 
L 337.927557 -255.023284 
L 346.382102 -255.446583 
L 354.836648 -254.845638 
L 363.291193 -253.506518 
L 371.745739 -250.349995 
L 380.200284 -246.444634 
L 388.65483 -243.545327 
L 397.109375 -241.77316 
L 405.56392 -240.075 
L 414.018466 -236.662519 
L 422.473011 -231.718331 
L 430.927557 -226.362189 
L 439.382102 -221.370731 
L 447.836648 -217.265341 
L 456.291193 -212.757275 
L 464.745739 -207.317384 
L 473.200284 -202.482272 
L 481.65483 -199.343468 
L 490.109375 -197.397032 
L 498.56392 -195.514377 
L 507.018466 -192.894677 
L 515.473011 -189.071157 
L 523.927557 -185.651206 
L 532.382102 -183.047806 
L 540.836648 -179.689839 
L 549.291193 -174.568337 
L 557.745739 -168.489418 
L 566.200284 -162.377611 
L 574.65483 -156.370718 
L 583.109375 -149.756677 
L 591.56392 -142.92634 
L 600.018466 -137.273948 
L 608.473011 -132.532372 
L 616.927557 -128.144569 
L 625.382102 -124.229727 
L 633.836648 -120.635654 
L 642.291193 -116.496287 
L 650.745739 -111.563188 
L 659.200284 -107.376188 
L 667.65483 -104.684516 
L 676.109375 -101.984512 
L 684.56392 -98.444393 
L 693.018466 -95.070251 
L 701.473011 -92.931351 
L 701.473011 -92.931351 
L 701.473011 -55.352656 
L 693.018466 -55.352656 
L 684.56392 -55.352656 
L 676.109375 -55.352656 
L 667.65483 -55.352656 
L 659.200284 -55.352656 
L 650.745739 -55.352656 
L 642.291193 -55.352656 
L 633.836648 -55.352656 
L 625.382102 -55.352656 
L 616.927557 -55.352656 
L 608.473011 -55.352656 
L 600.018466 -55.352656 
L 591.56392 -55.352656 
L 583.109375 -55.352656 
L 574.65483 -55.352656 
L 566.200284 -55.352656 
L 557.745739 -55.352656 
L 549.291193 -55.352656 
L 540.836648 -55.352656 
L 532.382102 -55.352656 
L 523.927557 -55.352656 
L 515.473011 -55.352656 
L 507.018466 -55.352656 
L 498.56392 -55.352656 
L 490.109375 -55.352656 
L 481.65483 -55.352656 
L 473.200284 -55.352656 
L 464.745739 -55.352656 
L 456.291193 -55.352656 
L 447.836648 -55.352656 
L 439.382102 -55.352656 
L 430.927557 -55.352656 
L 422.473011 -55.352656 
L 414.018466 -55.352656 
L 405.56392 -55.352656 
L 397.109375 -55.352656 
L 388.65483 -55.352656 
L 380.200284 -55.352656 
L 371.745739 -55.352656 
L 363.291193 -55.352656 
L 354.836648 -55.352656 
L 346.382102 -55.352656 
L 337.927557 -55.352656 
L 329.473011 -55.352656 
L 321.018466 -55.352656 
L 312.56392 -55.352656 
L 304.109375 -55.352656 
L 295.65483 -55.352656 
L 287.200284 -55.352656 
L 278.745739 -55.352656 
L 270.291193 -55.352656 
L 261.836648 -55.352656 
L 253.382102 -55.352656 
L 244.927557 -55.352656 
L 236.473011 -55.352656 
L 228.018466 -55.352656 
L 219.56392 -55.352656 
L 211.109375 -55.352656 
L 202.65483 -55.352656 
L 194.200284 -55.352656 
L 185.745739 -55.352656 
L 177.291193 -55.352656 
L 168.836648 -55.352656 
L 160.382102 -55.352656 
L 151.927557 -55.352656 
L 143.473011 -55.352656 
L 135.018466 -55.352656 
L 126.56392 -55.352656 
L 118.109375 -55.352656 
L 109.65483 -55.352656 
L 101.200284 -55.352656 
L 92.745739 -55.352656 
z
" style="stroke: #1f77b4; stroke-opacity: 0.3"/>
    </defs>
    <g clip-path="url(#p10242a26d7)">
     <use xlink:href="#m63860978f3" x="0" y="448.9275" style="fill: #1f77b4; fill-opacity: 0.3; stroke: #1f77b4; stroke-opacity: 0.3"/>
    </g>
   </g>
   <g id="FillBetweenPolyCollection_2">
    <defs>
     <path id="mb1038a4133" d="M 92.745739 -353.303012 
L 92.745739 -353.303012 
L 101.200284 -350.28265 
L 109.65483 -347.790783 
L 118.109375 -353.64016 
L 126.56392 -367.74017 
L 135.018466 -377.856575 
L 143.473011 -375.984462 
L 151.927557 -362.290614 
L 160.382102 -349.862172 
L 168.836648 -353.223118 
L 177.291193 -365.092146 
L 185.745739 -371.117054 
L 194.200284 -365.99968 
L 202.65483 -350.75841 
L 211.109375 -332.367758 
L 219.56392 -314.828734 
L 228.018466 -294.808449 
L 236.473011 -275.794056 
L 244.927557 -264.736165 
L 253.382102 -258.065307 
L 261.836648 -254.079007 
L 270.291193 -250.889356 
L 278.745739 -246.925291 
L 287.200284 -242.566512 
L 295.65483 -241.362434 
L 304.109375 -243.514142 
L 312.56392 -247.294475 
L 321.018466 -250.038342 
L 329.473011 -248.719007 
L 337.927557 -247.685286 
L 346.382102 -250.189272 
L 354.836648 -251.319084 
L 363.291193 -250.463426 
L 371.745739 -249.924302 
L 380.200284 -248.864129 
L 388.65483 -247.1339 
L 397.109375 -244.347904 
L 405.56392 -238.911133 
L 414.018466 -231.480225 
L 422.473011 -224.085667 
L 430.927557 -216.813115 
L 439.382102 -211.257076 
L 447.836648 -207.634433 
L 456.291193 -203.00756 
L 464.745739 -197.31044 
L 473.200284 -194.939325 
L 481.65483 -197.223893 
L 490.109375 -198.517345 
L 498.56392 -196.462504 
L 507.018466 -191.338673 
L 515.473011 -185.713021 
L 523.927557 -182.826174 
L 532.382102 -180.72173 
L 540.836648 -176.631918 
L 549.291193 -170.921157 
L 557.745739 -163.617206 
L 566.200284 -155.391508 
L 574.65483 -149.09072 
L 583.109375 -144.390753 
L 591.56392 -138.637532 
L 600.018466 -131.94909 
L 608.473011 -126.571628 
L 616.927557 -123.085718 
L 625.382102 -119.750338 
L 633.836648 -114.54238 
L 642.291193 -109.546749 
L 650.745739 -107.250107 
L 659.200284 -106.169025 
L 667.65483 -104.909864 
L 676.109375 -103.26725 
L 684.56392 -101.369413 
L 693.018466 -99.503544 
L 701.473011 -96.315119 
L 701.473011 -96.315119 
L 701.473011 -55.352656 
L 693.018466 -55.352656 
L 684.56392 -55.352656 
L 676.109375 -55.352656 
L 667.65483 -55.352656 
L 659.200284 -55.352656 
L 650.745739 -55.352656 
L 642.291193 -55.352656 
L 633.836648 -55.352656 
L 625.382102 -55.352656 
L 616.927557 -55.352656 
L 608.473011 -55.352656 
L 600.018466 -55.352656 
L 591.56392 -55.352656 
L 583.109375 -55.352656 
L 574.65483 -55.352656 
L 566.200284 -55.352656 
L 557.745739 -55.352656 
L 549.291193 -55.352656 
L 540.836648 -55.352656 
L 532.382102 -55.352656 
L 523.927557 -55.352656 
L 515.473011 -55.352656 
L 507.018466 -55.352656 
L 498.56392 -55.352656 
L 490.109375 -55.352656 
L 481.65483 -55.352656 
L 473.200284 -55.352656 
L 464.745739 -55.352656 
L 456.291193 -55.352656 
L 447.836648 -55.352656 
L 439.382102 -55.352656 
L 430.927557 -55.352656 
L 422.473011 -55.352656 
L 414.018466 -55.352656 
L 405.56392 -55.352656 
L 397.109375 -55.352656 
L 388.65483 -55.352656 
L 380.200284 -55.352656 
L 371.745739 -55.352656 
L 363.291193 -55.352656 
L 354.836648 -55.352656 
L 346.382102 -55.352656 
L 337.927557 -55.352656 
L 329.473011 -55.352656 
L 321.018466 -55.352656 
L 312.56392 -55.352656 
L 304.109375 -55.352656 
L 295.65483 -55.352656 
L 287.200284 -55.352656 
L 278.745739 -55.352656 
L 270.291193 -55.352656 
L 261.836648 -55.352656 
L 253.382102 -55.352656 
L 244.927557 -55.352656 
L 236.473011 -55.352656 
L 228.018466 -55.352656 
L 219.56392 -55.352656 
L 211.109375 -55.352656 
L 202.65483 -55.352656 
L 194.200284 -55.352656 
L 185.745739 -55.352656 
L 177.291193 -55.352656 
L 168.836648 -55.352656 
L 160.382102 -55.352656 
L 151.927557 -55.352656 
L 143.473011 -55.352656 
L 135.018466 -55.352656 
L 126.56392 -55.352656 
L 118.109375 -55.352656 
L 109.65483 -55.352656 
L 101.200284 -55.352656 
L 92.745739 -55.352656 
z
" style="stroke: #d62728; stroke-opacity: 0.3"/>
    </defs>
    <g clip-path="url(#p10242a26d7)">
     <use xlink:href="#mb1038a4133" x="0" y="448.9275" style="fill: #d62728; fill-opacity: 0.3; stroke: #d62728; stroke-opacity: 0.3"/>
    </g>
   </g>
   <g id="FillBetweenPolyCollection_3">
    <defs>
     <path id="mbca5f41264" d="M 92.745739 -370.969315 
L 92.745739 -370.969315 
L 101.200284 -364.683903 
L 109.65483 -365.610766 
L 118.109375 -382.07155 
L 126.56392 -401.114796 
L 135.018466 -408.152656 
L 143.473011 -397.262906 
L 151.927557 -372.376756 
L 160.382102 -351.337929 
L 168.836648 -352.494351 
L 177.291193 -364.556291 
L 185.745739 -371.555634 
L 194.200284 -367.667619 
L 202.65483 -354.31905 
L 211.109375 -337.038635 
L 219.56392 -320.236012 
L 228.018466 -304.549084 
L 236.473011 -291.496142 
L 244.927557 -283.136328 
L 253.382102 -278.183031 
L 261.836648 -273.563178 
L 270.291193 -269.166096 
L 278.745739 -264.863746 
L 287.200284 -260.316978 
L 295.65483 -256.098369 
L 304.109375 -253.269057 
L 312.56392 -252.249342 
L 321.018466 -252.554515 
L 329.473011 -253.534244 
L 337.927557 -254.712281 
L 346.382102 -255.186555 
L 354.836648 -253.662321 
L 363.291193 -250.233723 
L 371.745739 -246.768607 
L 380.200284 -244.357067 
L 388.65483 -242.20936 
L 397.109375 -239.248041 
L 405.56392 -235.515896 
L 414.018466 -231.605262 
L 422.473011 -227.22505 
L 430.927557 -222.118921 
L 439.382102 -216.712156 
L 447.836648 -211.997199 
L 456.291193 -208.174431 
L 464.745739 -204.505667 
L 473.200284 -201.028073 
L 481.65483 -197.744444 
L 490.109375 -194.180901 
L 498.56392 -190.020566 
L 507.018466 -186.035887 
L 515.473011 -182.897109 
L 523.927557 -180.13442 
L 532.382102 -177.087432 
L 540.836648 -173.263867 
L 549.291193 -168.915272 
L 557.745739 -164.244934 
L 566.200284 -159.026592 
L 574.65483 -152.652681 
L 583.109375 -145.082169 
L 591.56392 -137.955845 
L 600.018466 -131.818607 
L 608.473011 -126.382268 
L 616.927557 -121.807947 
L 625.382102 -118.432692 
L 633.836648 -115.420617 
L 642.291193 -111.744486 
L 650.745739 -107.448674 
L 659.200284 -103.238388 
L 667.65483 -99.530538 
L 676.109375 -97.188379 
L 684.56392 -95.611579 
L 693.018466 -93.435385 
L 701.473011 -90.299366 
L 701.473011 -90.299366 
L 701.473011 -55.352656 
L 693.018466 -55.352656 
L 684.56392 -55.352656 
L 676.109375 -55.352656 
L 667.65483 -55.352656 
L 659.200284 -55.352656 
L 650.745739 -55.352656 
L 642.291193 -55.352656 
L 633.836648 -55.352656 
L 625.382102 -55.352656 
L 616.927557 -55.352656 
L 608.473011 -55.352656 
L 600.018466 -55.352656 
L 591.56392 -55.352656 
L 583.109375 -55.352656 
L 574.65483 -55.352656 
L 566.200284 -55.352656 
L 557.745739 -55.352656 
L 549.291193 -55.352656 
L 540.836648 -55.352656 
L 532.382102 -55.352656 
L 523.927557 -55.352656 
L 515.473011 -55.352656 
L 507.018466 -55.352656 
L 498.56392 -55.352656 
L 490.109375 -55.352656 
L 481.65483 -55.352656 
L 473.200284 -55.352656 
L 464.745739 -55.352656 
L 456.291193 -55.352656 
L 447.836648 -55.352656 
L 439.382102 -55.352656 
L 430.927557 -55.352656 
L 422.473011 -55.352656 
L 414.018466 -55.352656 
L 405.56392 -55.352656 
L 397.109375 -55.352656 
L 388.65483 -55.352656 
L 380.200284 -55.352656 
L 371.745739 -55.352656 
L 363.291193 -55.352656 
L 354.836648 -55.352656 
L 346.382102 -55.352656 
L 337.927557 -55.352656 
L 329.473011 -55.352656 
L 321.018466 -55.352656 
L 312.56392 -55.352656 
L 304.109375 -55.352656 
L 295.65483 -55.352656 
L 287.200284 -55.352656 
L 278.745739 -55.352656 
L 270.291193 -55.352656 
L 261.836648 -55.352656 
L 253.382102 -55.352656 
L 244.927557 -55.352656 
L 236.473011 -55.352656 
L 228.018466 -55.352656 
L 219.56392 -55.352656 
L 211.109375 -55.352656 
L 202.65483 -55.352656 
L 194.200284 -55.352656 
L 185.745739 -55.352656 
L 177.291193 -55.352656 
L 168.836648 -55.352656 
L 160.382102 -55.352656 
L 151.927557 -55.352656 
L 143.473011 -55.352656 
L 135.018466 -55.352656 
L 126.56392 -55.352656 
L 118.109375 -55.352656 
L 109.65483 -55.352656 
L 101.200284 -55.352656 
L 92.745739 -55.352656 
z
" style="stroke: #e377c2; stroke-opacity: 0.3"/>
    </defs>
    <g clip-path="url(#p10242a26d7)">
     <use xlink:href="#mbca5f41264" x="0" y="448.9275" style="fill: #e377c2; fill-opacity: 0.3; stroke: #e377c2; stroke-opacity: 0.3"/>
    </g>
   </g>
   <g id="FillBetweenPolyCollection_4">
    <defs>
     <path id="m7733d1c69d" d="M 92.745739 -364.817602 
L 92.745739 -364.817602 
L 101.200284 -359.626127 
L 109.65483 -361.194755 
L 118.109375 -373.063608 
L 126.56392 -387.263052 
L 135.018466 -393.916815 
L 143.473011 -387.308398 
L 151.927557 -372.730681 
L 160.382102 -367.87647 
L 168.836648 -378.935396 
L 177.291193 -390.749775 
L 185.745739 -391.899284 
L 194.200284 -380.687896 
L 202.65483 -362.131421 
L 211.109375 -345.38963 
L 219.56392 -328.774836 
L 228.018466 -310.954718 
L 236.473011 -296.228576 
L 244.927557 -285.637116 
L 253.382102 -277.138416 
L 261.836648 -267.548879 
L 270.291193 -259.695346 
L 278.745739 -257.926168 
L 287.200284 -260.323452 
L 295.65483 -263.355259 
L 304.109375 -264.732657 
L 312.56392 -263.562698 
L 321.018466 -262.875814 
L 329.473011 -266.295542 
L 337.927557 -270.872643 
L 346.382102 -272.647883 
L 354.836648 -270.766337 
L 363.291193 -267.988395 
L 371.745739 -267.021432 
L 380.200284 -267.528298 
L 388.65483 -265.370482 
L 397.109375 -259.784779 
L 405.56392 -252.150952 
L 414.018466 -243.306225 
L 422.473011 -235.074233 
L 430.927557 -231.383687 
L 439.382102 -229.733285 
L 447.836648 -226.492408 
L 456.291193 -221.837459 
L 464.745739 -215.286019 
L 473.200284 -207.563984 
L 481.65483 -202.872384 
L 490.109375 -200.698257 
L 498.56392 -197.629123 
L 507.018466 -194.592096 
L 515.473011 -193.981212 
L 523.927557 -194.82898 
L 532.382102 -193.64967 
L 540.836648 -188.655916 
L 549.291193 -182.093454 
L 557.745739 -174.588476 
L 566.200284 -164.325914 
L 574.65483 -152.985757 
L 583.109375 -144.681933 
L 591.56392 -139.469179 
L 600.018466 -133.692284 
L 608.473011 -125.095583 
L 616.927557 -116.192009 
L 625.382102 -109.842019 
L 633.836648 -104.788969 
L 642.291193 -100.53998 
L 650.745739 -97.722488 
L 659.200284 -95.580495 
L 667.65483 -92.304354 
L 676.109375 -88.061262 
L 684.56392 -85.341787 
L 693.018466 -83.467182 
L 701.473011 -80.126021 
L 701.473011 -80.126021 
L 701.473011 -55.352656 
L 693.018466 -55.352656 
L 684.56392 -55.352656 
L 676.109375 -55.352656 
L 667.65483 -55.352656 
L 659.200284 -55.352656 
L 650.745739 -55.352656 
L 642.291193 -55.352656 
L 633.836648 -55.352656 
L 625.382102 -55.352656 
L 616.927557 -55.352656 
L 608.473011 -55.352656 
L 600.018466 -55.352656 
L 591.56392 -55.352656 
L 583.109375 -55.352656 
L 574.65483 -55.352656 
L 566.200284 -55.352656 
L 557.745739 -55.352656 
L 549.291193 -55.352656 
L 540.836648 -55.352656 
L 532.382102 -55.352656 
L 523.927557 -55.352656 
L 515.473011 -55.352656 
L 507.018466 -55.352656 
L 498.56392 -55.352656 
L 490.109375 -55.352656 
L 481.65483 -55.352656 
L 473.200284 -55.352656 
L 464.745739 -55.352656 
L 456.291193 -55.352656 
L 447.836648 -55.352656 
L 439.382102 -55.352656 
L 430.927557 -55.352656 
L 422.473011 -55.352656 
L 414.018466 -55.352656 
L 405.56392 -55.352656 
L 397.109375 -55.352656 
L 388.65483 -55.352656 
L 380.200284 -55.352656 
L 371.745739 -55.352656 
L 363.291193 -55.352656 
L 354.836648 -55.352656 
L 346.382102 -55.352656 
L 337.927557 -55.352656 
L 329.473011 -55.352656 
L 321.018466 -55.352656 
L 312.56392 -55.352656 
L 304.109375 -55.352656 
L 295.65483 -55.352656 
L 287.200284 -55.352656 
L 278.745739 -55.352656 
L 270.291193 -55.352656 
L 261.836648 -55.352656 
L 253.382102 -55.352656 
L 244.927557 -55.352656 
L 236.473011 -55.352656 
L 228.018466 -55.352656 
L 219.56392 -55.352656 
L 211.109375 -55.352656 
L 202.65483 -55.352656 
L 194.200284 -55.352656 
L 185.745739 -55.352656 
L 177.291193 -55.352656 
L 168.836648 -55.352656 
L 160.382102 -55.352656 
L 151.927557 -55.352656 
L 143.473011 -55.352656 
L 135.018466 -55.352656 
L 126.56392 -55.352656 
L 118.109375 -55.352656 
L 109.65483 -55.352656 
L 101.200284 -55.352656 
L 92.745739 -55.352656 
z
" style="stroke: #17becf; stroke-opacity: 0.3"/>
    </defs>
    <g clip-path="url(#p10242a26d7)">
     <use xlink:href="#m7733d1c69d" x="0" y="448.9275" style="fill: #17becf; fill-opacity: 0.3; stroke: #17becf; stroke-opacity: 0.3"/>
    </g>
   </g>
   <g id="matplotlib.axis_1">
    <g id="xtick_1">
     <g id="line2d_1">
      <path d="M 109.65483 411.214844 
L 109.65483 23.134844 
" clip-path="url(#p10242a26d7)" style="fill: none; stroke-dasharray: 2.96,1.28; stroke-dashoffset: 0; stroke: #dddddd; stroke-width: 0.8"/>
     </g>
     <g id="line2d_2">
      <defs>
       <path id="m4df48296cc" d="M 0 0 
L 0 3.5 
" style="stroke: #333333; stroke-width: 0.8"/>
      </defs>
      <g>
       <use xlink:href="#m4df48296cc" x="109.65483" y="411.214844" style="fill: #333333; stroke: #333333; stroke-width: 0.8"/>
      </g>
     </g>
     <g id="text_1">
      <!-- 5 -->
      <g style="fill: #333333" transform="translate(106.791705 425.053437) scale(0.09 -0.09)">
       <defs>
        <path id="DejaVuSerif-35" d="M 3219 4666 
L 3219 4153 
L 1081 4153 
L 1081 2816 
Q 1244 2928 1461 2984 
Q 1678 3041 1947 3041 
Q 2703 3041 3140 2622 
Q 3578 2203 3578 1478 
Q 3578 738 3136 323 
Q 2694 -91 1894 -91 
Q 1572 -91 1234 -12 
Q 897 66 544 225 
L 544 1131 
L 897 1131 
Q 925 688 1179 453 
Q 1434 219 1894 219 
Q 2388 219 2653 544 
Q 2919 869 2919 1478 
Q 2919 2084 2655 2407 
Q 2391 2731 1894 2731 
Q 1613 2731 1398 2631 
Q 1184 2531 1019 2322 
L 750 2322 
L 750 4666 
L 3219 4666 
z
" transform="scale(0.015625)"/>
       </defs>
       <use xlink:href="#DejaVuSerif-35"/>
      </g>
     </g>
    </g>
    <g id="xtick_2">
     <g id="line2d_3">
      <path d="M 194.200284 411.214844 
L 194.200284 23.134844 
" clip-path="url(#p10242a26d7)" style="fill: none; stroke-dasharray: 2.96,1.28; stroke-dashoffset: 0; stroke: #dddddd; stroke-width: 0.8"/>
     </g>
     <g id="line2d_4">
      <g>
       <use xlink:href="#m4df48296cc" x="194.200284" y="411.214844" style="fill: #333333; stroke: #333333; stroke-width: 0.8"/>
      </g>
     </g>
     <g id="text_2">
      <!-- 10 -->
      <g style="fill: #333333" transform="translate(188.474034 425.053437) scale(0.09 -0.09)">
       <defs>
        <path id="DejaVuSerif-31" d="M 909 0 
L 909 331 
L 1722 331 
L 1722 4213 
L 781 3603 
L 781 4013 
L 1919 4750 
L 2350 4750 
L 2350 331 
L 3163 331 
L 3163 0 
L 909 0 
z
" transform="scale(0.015625)"/>
        <path id="DejaVuSerif-30" d="M 2034 219 
Q 2513 219 2750 744 
Q 2988 1269 2988 2328 
Q 2988 3391 2750 3916 
Q 2513 4441 2034 4441 
Q 1556 4441 1318 3916 
Q 1081 3391 1081 2328 
Q 1081 1269 1318 744 
Q 1556 219 2034 219 
z
M 2034 -91 
Q 1275 -91 848 546 
Q 422 1184 422 2328 
Q 422 3475 848 4112 
Q 1275 4750 2034 4750 
Q 2797 4750 3222 4112 
Q 3647 3475 3647 2328 
Q 3647 1184 3222 546 
Q 2797 -91 2034 -91 
z
" transform="scale(0.015625)"/>
       </defs>
       <use xlink:href="#DejaVuSerif-31"/>
       <use xlink:href="#DejaVuSerif-30" transform="translate(63.623047 0)"/>
      </g>
     </g>
    </g>
    <g id="xtick_3">
     <g id="line2d_5">
      <path d="M 278.745739 411.214844 
L 278.745739 23.134844 
" clip-path="url(#p10242a26d7)" style="fill: none; stroke-dasharray: 2.96,1.28; stroke-dashoffset: 0; stroke: #dddddd; stroke-width: 0.8"/>
     </g>
     <g id="line2d_6">
      <g>
       <use xlink:href="#m4df48296cc" x="278.745739" y="411.214844" style="fill: #333333; stroke: #333333; stroke-width: 0.8"/>
      </g>
     </g>
     <g id="text_3">
      <!-- 15 -->
      <g style="fill: #333333" transform="translate(273.019489 425.053437) scale(0.09 -0.09)">
       <use xlink:href="#DejaVuSerif-31"/>
       <use xlink:href="#DejaVuSerif-35" transform="translate(63.623047 0)"/>
      </g>
     </g>
    </g>
    <g id="xtick_4">
     <g id="line2d_7">
      <path d="M 363.291193 411.214844 
L 363.291193 23.134844 
" clip-path="url(#p10242a26d7)" style="fill: none; stroke-dasharray: 2.96,1.28; stroke-dashoffset: 0; stroke: #dddddd; stroke-width: 0.8"/>
     </g>
     <g id="line2d_8">
      <g>
       <use xlink:href="#m4df48296cc" x="363.291193" y="411.214844" style="fill: #333333; stroke: #333333; stroke-width: 0.8"/>
      </g>
     </g>
     <g id="text_4">
      <!-- 20 -->
      <g style="fill: #333333" transform="translate(357.564943 425.053437) scale(0.09 -0.09)">
       <defs>
        <path id="DejaVuSerif-32" d="M 819 3553 
L 469 3553 
L 469 4384 
Q 803 4563 1142 4656 
Q 1481 4750 1806 4750 
Q 2534 4750 2956 4397 
Q 3378 4044 3378 3438 
Q 3378 2753 2422 1800 
Q 2347 1728 2309 1691 
L 1131 513 
L 3078 513 
L 3078 1088 
L 3444 1088 
L 3444 0 
L 434 0 
L 434 341 
L 1850 1753 
Q 2319 2222 2519 2614 
Q 2719 3006 2719 3438 
Q 2719 3909 2473 4175 
Q 2228 4441 1797 4441 
Q 1350 4441 1106 4219 
Q 863 3997 819 3553 
z
" transform="scale(0.015625)"/>
       </defs>
       <use xlink:href="#DejaVuSerif-32"/>
       <use xlink:href="#DejaVuSerif-30" transform="translate(63.623047 0)"/>
      </g>
     </g>
    </g>
    <g id="xtick_5">
     <g id="line2d_9">
      <path d="M 447.836648 411.214844 
L 447.836648 23.134844 
" clip-path="url(#p10242a26d7)" style="fill: none; stroke-dasharray: 2.96,1.28; stroke-dashoffset: 0; stroke: #dddddd; stroke-width: 0.8"/>
     </g>
     <g id="line2d_10">
      <g>
       <use xlink:href="#m4df48296cc" x="447.836648" y="411.214844" style="fill: #333333; stroke: #333333; stroke-width: 0.8"/>
      </g>
     </g>
     <g id="text_5">
      <!-- 25 -->
      <g style="fill: #333333" transform="translate(442.110398 425.053437) scale(0.09 -0.09)">
       <use xlink:href="#DejaVuSerif-32"/>
       <use xlink:href="#DejaVuSerif-35" transform="translate(63.623047 0)"/>
      </g>
     </g>
    </g>
    <g id="xtick_6">
     <g id="line2d_11">
      <path d="M 532.382102 411.214844 
L 532.382102 23.134844 
" clip-path="url(#p10242a26d7)" style="fill: none; stroke-dasharray: 2.96,1.28; stroke-dashoffset: 0; stroke: #dddddd; stroke-width: 0.8"/>
     </g>
     <g id="line2d_12">
      <g>
       <use xlink:href="#m4df48296cc" x="532.382102" y="411.214844" style="fill: #333333; stroke: #333333; stroke-width: 0.8"/>
      </g>
     </g>
     <g id="text_6">
      <!-- 30 -->
      <g style="fill: #333333" transform="translate(526.655852 425.053437) scale(0.09 -0.09)">
       <defs>
        <path id="DejaVuSerif-33" d="M 622 4469 
Q 988 4606 1323 4678 
Q 1659 4750 1953 4750 
Q 2638 4750 3022 4454 
Q 3406 4159 3406 3634 
Q 3406 3213 3140 2930 
Q 2875 2647 2388 2547 
Q 2963 2466 3280 2130 
Q 3597 1794 3597 1259 
Q 3597 606 3158 257 
Q 2719 -91 1894 -91 
Q 1528 -91 1179 -12 
Q 831 66 488 225 
L 488 1131 
L 838 1131 
Q 869 681 1141 450 
Q 1413 219 1906 219 
Q 2384 219 2661 495 
Q 2938 772 2938 1253 
Q 2938 1803 2653 2086 
Q 2369 2369 1819 2369 
L 1522 2369 
L 1522 2688 
L 1678 2688 
Q 2225 2688 2498 2914 
Q 2772 3141 2772 3597 
Q 2772 4006 2547 4223 
Q 2322 4441 1900 4441 
Q 1478 4441 1245 4241 
Q 1013 4041 972 3647 
L 622 3647 
L 622 4469 
z
" transform="scale(0.015625)"/>
       </defs>
       <use xlink:href="#DejaVuSerif-33"/>
       <use xlink:href="#DejaVuSerif-30" transform="translate(63.623047 0)"/>
      </g>
     </g>
    </g>
    <g id="xtick_7">
     <g id="line2d_13">
      <path d="M 616.927557 411.214844 
L 616.927557 23.134844 
" clip-path="url(#p10242a26d7)" style="fill: none; stroke-dasharray: 2.96,1.28; stroke-dashoffset: 0; stroke: #dddddd; stroke-width: 0.8"/>
     </g>
     <g id="line2d_14">
      <g>
       <use xlink:href="#m4df48296cc" x="616.927557" y="411.214844" style="fill: #333333; stroke: #333333; stroke-width: 0.8"/>
      </g>
     </g>
     <g id="text_7">
      <!-- 35 -->
      <g style="fill: #333333" transform="translate(611.201307 425.053437) scale(0.09 -0.09)">
       <use xlink:href="#DejaVuSerif-33"/>
       <use xlink:href="#DejaVuSerif-35" transform="translate(63.623047 0)"/>
      </g>
     </g>
    </g>
    <g id="xtick_8">
     <g id="line2d_15">
      <path d="M 701.473011 411.214844 
L 701.473011 23.134844 
" clip-path="url(#p10242a26d7)" style="fill: none; stroke-dasharray: 2.96,1.28; stroke-dashoffset: 0; stroke: #dddddd; stroke-width: 0.8"/>
     </g>
     <g id="line2d_16">
      <g>
       <use xlink:href="#m4df48296cc" x="701.473011" y="411.214844" style="fill: #333333; stroke: #333333; stroke-width: 0.8"/>
      </g>
     </g>
     <g id="text_8">
      <!-- 40 -->
      <g style="fill: #333333" transform="translate(695.746761 425.053437) scale(0.09 -0.09)">
       <defs>
        <path id="DejaVuSerif-34" d="M 2234 1581 
L 2234 4063 
L 641 1581 
L 2234 1581 
z
M 3609 0 
L 1484 0 
L 1484 331 
L 2234 331 
L 2234 1247 
L 197 1247 
L 197 1588 
L 2241 4750 
L 2859 4750 
L 2859 1581 
L 3750 1581 
L 3750 1247 
L 2859 1247 
L 2859 331 
L 3609 331 
L 3609 0 
z
" transform="scale(0.015625)"/>
       </defs>
       <use xlink:href="#DejaVuSerif-34"/>
       <use xlink:href="#DejaVuSerif-30" transform="translate(63.623047 0)"/>
      </g>
     </g>
    </g>
    <g id="text_9">
     <!-- Frequency (Hz) -->
     <g transform="translate(353.626719 439.283437) scale(0.11 -0.11)">
      <defs>
       <path id="DejaVuSerif-46" d="M 353 0 
L 353 331 
L 947 331 
L 947 4331 
L 353 4331 
L 353 4666 
L 4172 4666 
L 4172 3628 
L 3788 3628 
L 3788 4281 
L 1581 4281 
L 1581 2719 
L 3175 2719 
L 3175 3303 
L 3559 3303 
L 3559 1753 
L 3175 1753 
L 3175 2338 
L 1581 2338 
L 1581 331 
L 2328 331 
L 2328 0 
L 353 0 
z
" transform="scale(0.015625)"/>
       <path id="DejaVuSerif-72" d="M 3059 3328 
L 3059 2497 
L 2728 2497 
Q 2713 2744 2591 2866 
Q 2469 2988 2234 2988 
Q 1809 2988 1582 2694 
Q 1356 2400 1356 1850 
L 1356 331 
L 2022 331 
L 2022 0 
L 263 0 
L 263 331 
L 781 331 
L 781 2994 
L 231 2994 
L 231 3322 
L 1356 3322 
L 1356 2731 
Q 1525 3078 1790 3245 
Q 2056 3413 2438 3413 
Q 2578 3413 2733 3391 
Q 2888 3369 3059 3328 
z
" transform="scale(0.015625)"/>
       <path id="DejaVuSerif-65" d="M 3469 1600 
L 991 1600 
L 991 1575 
Q 991 903 1244 561 
Q 1497 219 1991 219 
Q 2369 219 2611 417 
Q 2853 616 2950 1006 
L 3413 1006 
Q 3275 459 2904 184 
Q 2534 -91 1931 -91 
Q 1203 -91 761 389 
Q 319 869 319 1663 
Q 319 2450 753 2931 
Q 1188 3413 1894 3413 
Q 2647 3413 3050 2948 
Q 3453 2484 3469 1600 
z
M 2791 1931 
Q 2772 2513 2545 2808 
Q 2319 3103 1894 3103 
Q 1497 3103 1269 2806 
Q 1041 2509 991 1931 
L 2791 1931 
z
" transform="scale(0.015625)"/>
       <path id="DejaVuSerif-71" d="M 3359 2988 
L 3359 -997 
L 3909 -997 
L 3909 -1331 
L 2241 -1331 
L 2241 -997 
L 2784 -997 
L 2784 519 
Q 2616 206 2355 57 
Q 2094 -91 1709 -91 
Q 1097 -91 708 395 
Q 319 881 319 1663 
Q 319 2444 706 2928 
Q 1094 3413 1709 3413 
Q 2094 3413 2355 3264 
Q 2616 3116 2784 2803 
L 2784 3322 
L 3909 3322 
L 3909 2988 
L 3359 2988 
z
M 2784 1825 
Q 2784 2422 2554 2737 
Q 2325 3053 1888 3053 
Q 1444 3053 1217 2703 
Q 991 2353 991 1663 
Q 991 975 1217 622 
Q 1444 269 1888 269 
Q 2325 269 2554 583 
Q 2784 897 2784 1497 
L 2784 1825 
z
" transform="scale(0.015625)"/>
       <path id="DejaVuSerif-75" d="M 2266 3322 
L 3341 3322 
L 3341 331 
L 3884 331 
L 3884 0 
L 2766 0 
L 2766 588 
Q 2606 256 2353 82 
Q 2100 -91 1766 -91 
Q 1213 -91 952 223 
Q 691 538 691 1209 
L 691 2988 
L 172 2988 
L 172 3322 
L 1269 3322 
L 1269 1388 
Q 1269 781 1417 556 
Q 1566 331 1947 331 
Q 2347 331 2556 625 
Q 2766 919 2766 1478 
L 2766 2988 
L 2266 2988 
L 2266 3322 
z
" transform="scale(0.015625)"/>
       <path id="DejaVuSerif-6e" d="M 263 0 
L 263 331 
L 781 331 
L 781 2988 
L 231 2988 
L 231 3322 
L 1356 3322 
L 1356 2731 
Q 1516 3069 1770 3241 
Q 2025 3413 2363 3413 
Q 2913 3413 3172 3097 
Q 3431 2781 3431 2113 
L 3431 331 
L 3944 331 
L 3944 0 
L 2356 0 
L 2356 331 
L 2853 331 
L 2853 1931 
Q 2853 2541 2703 2767 
Q 2553 2994 2175 2994 
Q 1775 2994 1565 2701 
Q 1356 2409 1356 1850 
L 1356 331 
L 1856 331 
L 1856 0 
L 263 0 
z
" transform="scale(0.015625)"/>
       <path id="DejaVuSerif-63" d="M 3291 997 
Q 3169 466 2822 187 
Q 2475 -91 1925 -91 
Q 1200 -91 759 389 
Q 319 869 319 1663 
Q 319 2459 759 2936 
Q 1200 3413 1925 3413 
Q 2241 3413 2553 3339 
Q 2866 3266 3181 3116 
L 3181 2266 
L 2847 2266 
Q 2781 2703 2561 2903 
Q 2341 3103 1931 3103 
Q 1466 3103 1228 2742 
Q 991 2381 991 1663 
Q 991 944 1227 581 
Q 1463 219 1931 219 
Q 2303 219 2525 412 
Q 2747 606 2828 997 
L 3291 997 
z
" transform="scale(0.015625)"/>
       <path id="DejaVuSerif-79" d="M 1381 -609 
L 1600 -56 
L 359 2988 
L -19 2988 
L -19 3322 
L 1509 3322 
L 1509 2988 
L 978 2988 
L 1913 703 
L 2847 2988 
L 2350 2988 
L 2350 3322 
L 3597 3322 
L 3597 2988 
L 3225 2988 
L 1703 -750 
Q 1547 -1138 1356 -1280 
Q 1166 -1422 819 -1422 
Q 672 -1422 517 -1397 
Q 363 -1372 206 -1325 
L 206 -691 
L 500 -691 
Q 519 -903 608 -995 
Q 697 -1088 884 -1088 
Q 1056 -1088 1161 -992 
Q 1266 -897 1381 -609 
z
" transform="scale(0.015625)"/>
       <path id="DejaVuSerif-20" transform="scale(0.015625)"/>
       <path id="DejaVuSerif-28" d="M 2041 -997 
Q 1281 -656 893 83 
Q 506 822 506 1931 
Q 506 3044 893 3783 
Q 1281 4522 2041 4863 
L 2041 4556 
Q 1559 4225 1350 3623 
Q 1141 3022 1141 1931 
Q 1141 844 1350 242 
Q 1559 -359 2041 -691 
L 2041 -997 
z
" transform="scale(0.015625)"/>
       <path id="DejaVuSerif-48" d="M 353 0 
L 353 331 
L 947 331 
L 947 4331 
L 353 4331 
L 353 4666 
L 2175 4666 
L 2175 4331 
L 1581 4331 
L 1581 2719 
L 4000 2719 
L 4000 4331 
L 3406 4331 
L 3406 4666 
L 5228 4666 
L 5228 4331 
L 4634 4331 
L 4634 331 
L 5228 331 
L 5228 0 
L 3406 0 
L 3406 331 
L 4000 331 
L 4000 2338 
L 1581 2338 
L 1581 331 
L 2175 331 
L 2175 0 
L 353 0 
z
" transform="scale(0.015625)"/>
       <path id="DejaVuSerif-7a" d="M 256 0 
L 256 269 
L 2338 2988 
L 691 2988 
L 691 2413 
L 359 2413 
L 359 3322 
L 3078 3322 
L 3078 3053 
L 997 331 
L 2803 331 
L 2803 934 
L 3138 934 
L 3138 0 
L 256 0 
z
" transform="scale(0.015625)"/>
       <path id="DejaVuSerif-29" d="M 453 -997 
L 453 -691 
Q 934 -359 1145 242 
Q 1356 844 1356 1931 
Q 1356 3022 1145 3623 
Q 934 4225 453 4556 
L 453 4863 
Q 1216 4522 1603 3783 
Q 1991 3044 1991 1931 
Q 1991 822 1603 83 
Q 1216 -656 453 -997 
z
" transform="scale(0.015625)"/>
      </defs>
      <use xlink:href="#DejaVuSerif-46"/>
      <use xlink:href="#DejaVuSerif-72" transform="translate(69.384766 0)"/>
      <use xlink:href="#DejaVuSerif-65" transform="translate(117.1875 0)"/>
      <use xlink:href="#DejaVuSerif-71" transform="translate(176.367188 0)"/>
      <use xlink:href="#DejaVuSerif-75" transform="translate(240.380859 0)"/>
      <use xlink:href="#DejaVuSerif-65" transform="translate(304.785156 0)"/>
      <use xlink:href="#DejaVuSerif-6e" transform="translate(363.964844 0)"/>
      <use xlink:href="#DejaVuSerif-63" transform="translate(428.369141 0)"/>
      <use xlink:href="#DejaVuSerif-79" transform="translate(484.375 0)"/>
      <use xlink:href="#DejaVuSerif-20" transform="translate(540.869141 0)"/>
      <use xlink:href="#DejaVuSerif-28" transform="translate(572.65625 0)"/>
      <use xlink:href="#DejaVuSerif-48" transform="translate(611.669922 0)"/>
      <use xlink:href="#DejaVuSerif-7a" transform="translate(698.876953 0)"/>
      <use xlink:href="#DejaVuSerif-29" transform="translate(751.5625 0)"/>
     </g>
    </g>
   </g>
   <g id="matplotlib.axis_2">
    <g id="ytick_1">
     <g id="line2d_17">
      <path d="M 62.309375 395.938873 
L 731.909375 395.938873 
" clip-path="url(#p10242a26d7)" style="fill: none; stroke-dasharray: 2.96,1.28; stroke-dashoffset: 0; stroke: #dddddd; stroke-width: 0.8"/>
     </g>
     <g id="line2d_18">
      <defs>
       <path id="m49149c5076" d="M 0 0 
L -3.5 0 
" style="stroke: #333333; stroke-width: 0.8"/>
      </defs>
      <g>
       <use xlink:href="#m49149c5076" x="62.309375" y="395.938873" style="fill: #333333; stroke: #333333; stroke-width: 0.8"/>
      </g>
     </g>
     <g id="text_10">
      <!-- −132.5 -->
      <g style="fill: #333333" transform="translate(22.002344 399.35817) scale(0.09 -0.09)">
       <defs>
        <path id="DejaVuSerif-2212" d="M 678 2259 
L 4684 2259 
L 4684 1753 
L 678 1753 
L 678 2259 
z
" transform="scale(0.015625)"/>
        <path id="DejaVuSerif-2e" d="M 603 325 
Q 603 500 722 622 
Q 841 744 1019 744 
Q 1191 744 1312 622 
Q 1434 500 1434 325 
Q 1434 153 1312 31 
Q 1191 -91 1019 -91 
Q 841 -91 722 29 
Q 603 150 603 325 
z
" transform="scale(0.015625)"/>
       </defs>
       <use xlink:href="#DejaVuSerif-2212"/>
       <use xlink:href="#DejaVuSerif-31" transform="translate(83.789062 0)"/>
       <use xlink:href="#DejaVuSerif-33" transform="translate(147.412109 0)"/>
       <use xlink:href="#DejaVuSerif-32" transform="translate(211.035156 0)"/>
       <use xlink:href="#DejaVuSerif-2e" transform="translate(274.658203 0)"/>
       <use xlink:href="#DejaVuSerif-35" transform="translate(306.445312 0)"/>
      </g>
     </g>
    </g>
    <g id="ytick_2">
     <g id="line2d_19">
      <path d="M 62.309375 348.684649 
L 731.909375 348.684649 
" clip-path="url(#p10242a26d7)" style="fill: none; stroke-dasharray: 2.96,1.28; stroke-dashoffset: 0; stroke: #dddddd; stroke-width: 0.8"/>
     </g>
     <g id="line2d_20">
      <g>
       <use xlink:href="#m49149c5076" x="62.309375" y="348.684649" style="fill: #333333; stroke: #333333; stroke-width: 0.8"/>
      </g>
     </g>
     <g id="text_11">
      <!-- −130.0 -->
      <g style="fill: #333333" transform="translate(22.002344 352.103945) scale(0.09 -0.09)">
       <use xlink:href="#DejaVuSerif-2212"/>
       <use xlink:href="#DejaVuSerif-31" transform="translate(83.789062 0)"/>
       <use xlink:href="#DejaVuSerif-33" transform="translate(147.412109 0)"/>
       <use xlink:href="#DejaVuSerif-30" transform="translate(211.035156 0)"/>
       <use xlink:href="#DejaVuSerif-2e" transform="translate(274.658203 0)"/>
       <use xlink:href="#DejaVuSerif-30" transform="translate(306.445312 0)"/>
      </g>
     </g>
    </g>
    <g id="ytick_3">
     <g id="line2d_21">
      <path d="M 62.309375 301.430424 
L 731.909375 301.430424 
" clip-path="url(#p10242a26d7)" style="fill: none; stroke-dasharray: 2.96,1.28; stroke-dashoffset: 0; stroke: #dddddd; stroke-width: 0.8"/>
     </g>
     <g id="line2d_22">
      <g>
       <use xlink:href="#m49149c5076" x="62.309375" y="301.430424" style="fill: #333333; stroke: #333333; stroke-width: 0.8"/>
      </g>
     </g>
     <g id="text_12">
      <!-- −127.5 -->
      <g style="fill: #333333" transform="translate(22.002344 304.849721) scale(0.09 -0.09)">
       <defs>
        <path id="DejaVuSerif-37" d="M 3609 4347 
L 1784 0 
L 1319 0 
L 3059 4153 
L 903 4153 
L 903 3578 
L 538 3578 
L 538 4666 
L 3609 4666 
L 3609 4347 
z
" transform="scale(0.015625)"/>
       </defs>
       <use xlink:href="#DejaVuSerif-2212"/>
       <use xlink:href="#DejaVuSerif-31" transform="translate(83.789062 0)"/>
       <use xlink:href="#DejaVuSerif-32" transform="translate(147.412109 0)"/>
       <use xlink:href="#DejaVuSerif-37" transform="translate(211.035156 0)"/>
       <use xlink:href="#DejaVuSerif-2e" transform="translate(274.658203 0)"/>
       <use xlink:href="#DejaVuSerif-35" transform="translate(306.445312 0)"/>
      </g>
     </g>
    </g>
    <g id="ytick_4">
     <g id="line2d_23">
      <path d="M 62.309375 254.176199 
L 731.909375 254.176199 
" clip-path="url(#p10242a26d7)" style="fill: none; stroke-dasharray: 2.96,1.28; stroke-dashoffset: 0; stroke: #dddddd; stroke-width: 0.8"/>
     </g>
     <g id="line2d_24">
      <g>
       <use xlink:href="#m49149c5076" x="62.309375" y="254.176199" style="fill: #333333; stroke: #333333; stroke-width: 0.8"/>
      </g>
     </g>
     <g id="text_13">
      <!-- −125.0 -->
      <g style="fill: #333333" transform="translate(22.002344 257.595496) scale(0.09 -0.09)">
       <use xlink:href="#DejaVuSerif-2212"/>
       <use xlink:href="#DejaVuSerif-31" transform="translate(83.789062 0)"/>
       <use xlink:href="#DejaVuSerif-32" transform="translate(147.412109 0)"/>
       <use xlink:href="#DejaVuSerif-35" transform="translate(211.035156 0)"/>
       <use xlink:href="#DejaVuSerif-2e" transform="translate(274.658203 0)"/>
       <use xlink:href="#DejaVuSerif-30" transform="translate(306.445312 0)"/>
      </g>
     </g>
    </g>
    <g id="ytick_5">
     <g id="line2d_25">
      <path d="M 62.309375 206.921974 
L 731.909375 206.921974 
" clip-path="url(#p10242a26d7)" style="fill: none; stroke-dasharray: 2.96,1.28; stroke-dashoffset: 0; stroke: #dddddd; stroke-width: 0.8"/>
     </g>
     <g id="line2d_26">
      <g>
       <use xlink:href="#m49149c5076" x="62.309375" y="206.921974" style="fill: #333333; stroke: #333333; stroke-width: 0.8"/>
      </g>
     </g>
     <g id="text_14">
      <!-- −122.5 -->
      <g style="fill: #333333" transform="translate(22.002344 210.341271) scale(0.09 -0.09)">
       <use xlink:href="#DejaVuSerif-2212"/>
       <use xlink:href="#DejaVuSerif-31" transform="translate(83.789062 0)"/>
       <use xlink:href="#DejaVuSerif-32" transform="translate(147.412109 0)"/>
       <use xlink:href="#DejaVuSerif-32" transform="translate(211.035156 0)"/>
       <use xlink:href="#DejaVuSerif-2e" transform="translate(274.658203 0)"/>
       <use xlink:href="#DejaVuSerif-35" transform="translate(306.445312 0)"/>
      </g>
     </g>
    </g>
    <g id="ytick_6">
     <g id="line2d_27">
      <path d="M 62.309375 159.66775 
L 731.909375 159.66775 
" clip-path="url(#p10242a26d7)" style="fill: none; stroke-dasharray: 2.96,1.28; stroke-dashoffset: 0; stroke: #dddddd; stroke-width: 0.8"/>
     </g>
     <g id="line2d_28">
      <g>
       <use xlink:href="#m49149c5076" x="62.309375" y="159.66775" style="fill: #333333; stroke: #333333; stroke-width: 0.8"/>
      </g>
     </g>
     <g id="text_15">
      <!-- −120.0 -->
      <g style="fill: #333333" transform="translate(22.002344 163.087047) scale(0.09 -0.09)">
       <use xlink:href="#DejaVuSerif-2212"/>
       <use xlink:href="#DejaVuSerif-31" transform="translate(83.789062 0)"/>
       <use xlink:href="#DejaVuSerif-32" transform="translate(147.412109 0)"/>
       <use xlink:href="#DejaVuSerif-30" transform="translate(211.035156 0)"/>
       <use xlink:href="#DejaVuSerif-2e" transform="translate(274.658203 0)"/>
       <use xlink:href="#DejaVuSerif-30" transform="translate(306.445312 0)"/>
      </g>
     </g>
    </g>
    <g id="ytick_7">
     <g id="line2d_29">
      <path d="M 62.309375 112.413525 
L 731.909375 112.413525 
" clip-path="url(#p10242a26d7)" style="fill: none; stroke-dasharray: 2.96,1.28; stroke-dashoffset: 0; stroke: #dddddd; stroke-width: 0.8"/>
     </g>
     <g id="line2d_30">
      <g>
       <use xlink:href="#m49149c5076" x="62.309375" y="112.413525" style="fill: #333333; stroke: #333333; stroke-width: 0.8"/>
      </g>
     </g>
     <g id="text_16">
      <!-- −117.5 -->
      <g style="fill: #333333" transform="translate(22.002344 115.832822) scale(0.09 -0.09)">
       <use xlink:href="#DejaVuSerif-2212"/>
       <use xlink:href="#DejaVuSerif-31" transform="translate(83.789062 0)"/>
       <use xlink:href="#DejaVuSerif-31" transform="translate(147.412109 0)"/>
       <use xlink:href="#DejaVuSerif-37" transform="translate(211.035156 0)"/>
       <use xlink:href="#DejaVuSerif-2e" transform="translate(274.658203 0)"/>
       <use xlink:href="#DejaVuSerif-35" transform="translate(306.445312 0)"/>
      </g>
     </g>
    </g>
    <g id="ytick_8">
     <g id="line2d_31">
      <path d="M 62.309375 65.1593 
L 731.909375 65.1593 
" clip-path="url(#p10242a26d7)" style="fill: none; stroke-dasharray: 2.96,1.28; stroke-dashoffset: 0; stroke: #dddddd; stroke-width: 0.8"/>
     </g>
     <g id="line2d_32">
      <g>
       <use xlink:href="#m49149c5076" x="62.309375" y="65.1593" style="fill: #333333; stroke: #333333; stroke-width: 0.8"/>
      </g>
     </g>
     <g id="text_17">
      <!-- −115.0 -->
      <g style="fill: #333333" transform="translate(22.002344 68.578597) scale(0.09 -0.09)">
       <use xlink:href="#DejaVuSerif-2212"/>
       <use xlink:href="#DejaVuSerif-31" transform="translate(83.789062 0)"/>
       <use xlink:href="#DejaVuSerif-31" transform="translate(147.412109 0)"/>
       <use xlink:href="#DejaVuSerif-35" transform="translate(211.035156 0)"/>
       <use xlink:href="#DejaVuSerif-2e" transform="translate(274.658203 0)"/>
       <use xlink:href="#DejaVuSerif-30" transform="translate(306.445312 0)"/>
      </g>
     </g>
    </g>
    <g id="text_18">
     <!-- Power Spectral Density (dB) -->
     <g transform="translate(15.558281 296.263984) rotate(-90) scale(0.11 -0.11)">
      <defs>
       <path id="DejaVuSerif-50" d="M 1581 2375 
L 2406 2375 
Q 2872 2375 3115 2626 
Q 3359 2878 3359 3353 
Q 3359 3831 3115 4081 
Q 2872 4331 2406 4331 
L 1581 4331 
L 1581 2375 
z
M 353 0 
L 353 331 
L 947 331 
L 947 4331 
L 353 4331 
L 353 4666 
L 2559 4666 
Q 3259 4666 3668 4311 
Q 4078 3956 4078 3353 
Q 4078 2753 3668 2397 
Q 3259 2041 2559 2041 
L 1581 2041 
L 1581 331 
L 2303 331 
L 2303 0 
L 353 0 
z
" transform="scale(0.015625)"/>
       <path id="DejaVuSerif-6f" d="M 1925 219 
Q 2388 219 2623 584 
Q 2859 950 2859 1663 
Q 2859 2375 2623 2739 
Q 2388 3103 1925 3103 
Q 1463 3103 1227 2739 
Q 991 2375 991 1663 
Q 991 950 1228 584 
Q 1466 219 1925 219 
z
M 1925 -91 
Q 1200 -91 759 389 
Q 319 869 319 1663 
Q 319 2456 758 2934 
Q 1197 3413 1925 3413 
Q 2653 3413 3092 2934 
Q 3531 2456 3531 1663 
Q 3531 869 3092 389 
Q 2653 -91 1925 -91 
z
" transform="scale(0.015625)"/>
       <path id="DejaVuSerif-77" d="M 3072 3322 
L 3922 728 
L 4672 2988 
L 4191 2988 
L 4191 3322 
L 5394 3322 
L 5394 2988 
L 5025 2988 
L 4038 0 
L 3559 0 
L 2741 2484 
L 1919 0 
L 1459 0 
L 475 2988 
L 103 2988 
L 103 3322 
L 1606 3322 
L 1606 2988 
L 1069 2988 
L 1813 728 
L 2669 3322 
L 3072 3322 
z
" transform="scale(0.015625)"/>
       <path id="DejaVuSerif-53" d="M 594 225 
L 594 1288 
L 953 1284 
Q 969 753 1261 498 
Q 1553 244 2150 244 
Q 2706 244 2998 464 
Q 3291 684 3291 1106 
Q 3291 1444 3114 1625 
Q 2938 1806 2369 1978 
L 1753 2163 
Q 1084 2366 811 2669 
Q 538 2972 538 3500 
Q 538 4094 959 4422 
Q 1381 4750 2144 4750 
Q 2469 4750 2856 4679 
Q 3244 4609 3681 4475 
L 3681 3481 
L 3328 3481 
Q 3275 3975 2998 4195 
Q 2722 4416 2156 4416 
Q 1663 4416 1405 4214 
Q 1147 4013 1147 3628 
Q 1147 3294 1340 3103 
Q 1534 2913 2163 2725 
L 2741 2553 
Q 3375 2363 3645 2067 
Q 3916 1772 3916 1275 
Q 3916 597 3481 253 
Q 3047 -91 2188 -91 
Q 1803 -91 1404 -12 
Q 1006 66 594 225 
z
" transform="scale(0.015625)"/>
       <path id="DejaVuSerif-70" d="M 1313 1825 
L 1313 1497 
Q 1313 897 1542 583 
Q 1772 269 2209 269 
Q 2650 269 2876 622 
Q 3103 975 3103 1663 
Q 3103 2353 2876 2703 
Q 2650 3053 2209 3053 
Q 1772 3053 1542 2737 
Q 1313 2422 1313 1825 
z
M 738 2988 
L 184 2988 
L 184 3322 
L 1313 3322 
L 1313 2803 
Q 1481 3116 1742 3264 
Q 2003 3413 2388 3413 
Q 3000 3413 3387 2928 
Q 3775 2444 3775 1663 
Q 3775 881 3387 395 
Q 3000 -91 2388 -91 
Q 2003 -91 1742 57 
Q 1481 206 1313 519 
L 1313 -997 
L 1856 -997 
L 1856 -1331 
L 184 -1331 
L 184 -997 
L 738 -997 
L 738 2988 
z
" transform="scale(0.015625)"/>
       <path id="DejaVuSerif-74" d="M 691 2988 
L 184 2988 
L 184 3322 
L 691 3322 
L 691 4353 
L 1269 4353 
L 1269 3322 
L 2350 3322 
L 2350 2988 
L 1269 2988 
L 1269 878 
Q 1269 456 1350 337 
Q 1431 219 1650 219 
Q 1875 219 1978 351 
Q 2081 484 2088 781 
L 2522 781 
Q 2497 328 2275 118 
Q 2053 -91 1600 -91 
Q 1103 -91 897 129 
Q 691 350 691 878 
L 691 2988 
z
" transform="scale(0.015625)"/>
       <path id="DejaVuSerif-61" d="M 2547 1044 
L 2547 1747 
L 1806 1747 
Q 1378 1747 1168 1562 
Q 959 1378 959 997 
Q 959 650 1171 447 
Q 1384 244 1747 244 
Q 2106 244 2326 466 
Q 2547 688 2547 1044 
z
M 3122 2075 
L 3122 331 
L 3634 331 
L 3634 0 
L 2547 0 
L 2547 359 
Q 2356 128 2106 18 
Q 1856 -91 1522 -91 
Q 969 -91 644 203 
Q 319 497 319 997 
Q 319 1513 691 1797 
Q 1063 2081 1741 2081 
L 2547 2081 
L 2547 2309 
Q 2547 2688 2317 2895 
Q 2088 3103 1672 3103 
Q 1328 3103 1125 2947 
Q 922 2791 872 2484 
L 575 2484 
L 575 3156 
Q 875 3284 1158 3348 
Q 1441 3413 1709 3413 
Q 2400 3413 2761 3070 
Q 3122 2728 3122 2075 
z
" transform="scale(0.015625)"/>
       <path id="DejaVuSerif-6c" d="M 1313 331 
L 1856 331 
L 1856 0 
L 184 0 
L 184 331 
L 738 331 
L 738 4531 
L 184 4531 
L 184 4863 
L 1313 4863 
L 1313 331 
z
" transform="scale(0.015625)"/>
       <path id="DejaVuSerif-44" d="M 1581 331 
L 2163 331 
Q 3072 331 3558 850 
Q 4044 1369 4044 2338 
Q 4044 3306 3559 3818 
Q 3075 4331 2163 4331 
L 1581 4331 
L 1581 331 
z
M 353 0 
L 353 331 
L 947 331 
L 947 4331 
L 353 4331 
L 353 4666 
L 2209 4666 
Q 3416 4666 4089 4050 
Q 4763 3434 4763 2338 
Q 4763 1238 4088 619 
Q 3413 0 2209 0 
L 353 0 
z
" transform="scale(0.015625)"/>
       <path id="DejaVuSerif-73" d="M 359 184 
L 359 959 
L 691 959 
Q 703 588 923 403 
Q 1144 219 1575 219 
Q 1963 219 2166 364 
Q 2369 509 2369 788 
Q 2369 1006 2220 1140 
Q 2072 1275 1594 1428 
L 1178 1569 
Q 750 1706 558 1912 
Q 366 2119 366 2438 
Q 366 2894 700 3153 
Q 1034 3413 1625 3413 
Q 1888 3413 2178 3344 
Q 2469 3275 2778 3144 
L 2778 2419 
L 2447 2419 
Q 2434 2741 2221 2922 
Q 2009 3103 1644 3103 
Q 1281 3103 1095 2975 
Q 909 2847 909 2591 
Q 909 2381 1050 2254 
Q 1191 2128 1613 1997 
L 2069 1856 
Q 2541 1709 2748 1489 
Q 2956 1269 2956 922 
Q 2956 450 2595 179 
Q 2234 -91 1600 -91 
Q 1278 -91 972 -22 
Q 666 47 359 184 
z
" transform="scale(0.015625)"/>
       <path id="DejaVuSerif-69" d="M 622 4353 
Q 622 4497 726 4603 
Q 831 4709 978 4709 
Q 1122 4709 1226 4603 
Q 1331 4497 1331 4353 
Q 1331 4206 1228 4103 
Q 1125 4000 978 4000 
Q 831 4000 726 4103 
Q 622 4206 622 4353 
z
M 1356 331 
L 1900 331 
L 1900 0 
L 231 0 
L 231 331 
L 781 331 
L 781 2988 
L 231 2988 
L 231 3322 
L 1356 3322 
L 1356 331 
z
" transform="scale(0.015625)"/>
       <path id="DejaVuSerif-64" d="M 3359 331 
L 3909 331 
L 3909 0 
L 2784 0 
L 2784 519 
Q 2616 206 2355 57 
Q 2094 -91 1709 -91 
Q 1097 -91 708 395 
Q 319 881 319 1663 
Q 319 2444 706 2928 
Q 1094 3413 1709 3413 
Q 2094 3413 2355 3264 
Q 2616 3116 2784 2803 
L 2784 4531 
L 2241 4531 
L 2241 4863 
L 3359 4863 
L 3359 331 
z
M 2784 1497 
L 2784 1825 
Q 2784 2422 2554 2737 
Q 2325 3053 1888 3053 
Q 1444 3053 1217 2703 
Q 991 2353 991 1663 
Q 991 975 1217 622 
Q 1444 269 1888 269 
Q 2325 269 2554 583 
Q 2784 897 2784 1497 
z
" transform="scale(0.015625)"/>
       <path id="DejaVuSerif-42" d="M 1581 331 
L 2516 331 
Q 3078 331 3337 575 
Q 3597 819 3597 1350 
Q 3597 1878 3339 2120 
Q 3081 2363 2516 2363 
L 1581 2363 
L 1581 331 
z
M 1581 2694 
L 2375 2694 
Q 2888 2694 3123 2891 
Q 3359 3088 3359 3513 
Q 3359 3941 3123 4136 
Q 2888 4331 2375 4331 
L 1581 4331 
L 1581 2694 
z
M 353 0 
L 353 331 
L 947 331 
L 947 4331 
L 353 4331 
L 353 4666 
L 2656 4666 
Q 3363 4666 3720 4377 
Q 4078 4088 4078 3513 
Q 4078 3097 3829 2850 
Q 3581 2603 3103 2547 
Q 3697 2472 4005 2167 
Q 4313 1863 4313 1350 
Q 4313 656 3875 328 
Q 3438 0 2509 0 
L 353 0 
z
" transform="scale(0.015625)"/>
      </defs>
      <use xlink:href="#DejaVuSerif-50"/>
      <use xlink:href="#DejaVuSerif-6f" transform="translate(63.285156 0)"/>
      <use xlink:href="#DejaVuSerif-77" transform="translate(123.490234 0)"/>
      <use xlink:href="#DejaVuSerif-65" transform="translate(209.085938 0)"/>
      <use xlink:href="#DejaVuSerif-72" transform="translate(268.265625 0)"/>
      <use xlink:href="#DejaVuSerif-20" transform="translate(316.068359 0)"/>
      <use xlink:href="#DejaVuSerif-53" transform="translate(347.855469 0)"/>
      <use xlink:href="#DejaVuSerif-70" transform="translate(416.361328 0)"/>
      <use xlink:href="#DejaVuSerif-65" transform="translate(480.375 0)"/>
      <use xlink:href="#DejaVuSerif-63" transform="translate(539.554688 0)"/>
      <use xlink:href="#DejaVuSerif-74" transform="translate(595.560547 0)"/>
      <use xlink:href="#DejaVuSerif-72" transform="translate(635.746094 0)"/>
      <use xlink:href="#DejaVuSerif-61" transform="translate(683.548828 0)"/>
      <use xlink:href="#DejaVuSerif-6c" transform="translate(743.167969 0)"/>
      <use xlink:href="#DejaVuSerif-20" transform="translate(775.150391 0)"/>
      <use xlink:href="#DejaVuSerif-44" transform="translate(806.9375 0)"/>
      <use xlink:href="#DejaVuSerif-65" transform="translate(887.113281 0)"/>
      <use xlink:href="#DejaVuSerif-6e" transform="translate(946.292969 0)"/>
      <use xlink:href="#DejaVuSerif-73" transform="translate(1010.697266 0)"/>
      <use xlink:href="#DejaVuSerif-69" transform="translate(1062.015625 0)"/>
      <use xlink:href="#DejaVuSerif-74" transform="translate(1093.998047 0)"/>
      <use xlink:href="#DejaVuSerif-79" transform="translate(1134.183594 0)"/>
      <use xlink:href="#DejaVuSerif-20" transform="translate(1190.677734 0)"/>
      <use xlink:href="#DejaVuSerif-28" transform="translate(1222.464844 0)"/>
      <use xlink:href="#DejaVuSerif-64" transform="translate(1261.478516 0)"/>
      <use xlink:href="#DejaVuSerif-42" transform="translate(1325.492188 0)"/>
      <use xlink:href="#DejaVuSerif-29" transform="translate(1398.978516 0)"/>
     </g>
    </g>
   </g>
   <g id="line2d_33">
    <path d="M 92.745739 84.419951 
L 101.200284 91.029219 
L 109.65483 89.025007 
L 118.109375 74.895842 
L 126.56392 58.639868 
L 135.018466 52.064579 
L 143.473011 60.536638 
L 151.927557 80.860041 
L 160.382102 97.969319 
L 168.836648 95.529283 
L 177.291193 81.485506 
L 185.745739 72.754898 
L 194.200284 77.196786 
L 202.65483 92.614286 
L 211.109375 111.134681 
L 219.56392 128.588981 
L 228.018466 144.52525 
L 236.473011 157.075781 
L 244.927557 165.607224 
L 253.382102 172.36573 
L 261.836648 178.120244 
L 270.291193 183.360558 
L 278.745739 188.932294 
L 287.200284 193.745988 
L 295.65483 196.605531 
L 304.109375 198.062901 
L 312.56392 198.363067 
L 321.018466 197.625197 
L 329.473011 195.76558 
L 337.927557 193.904216 
L 346.382102 193.480917 
L 354.836648 194.081862 
L 363.291193 195.420982 
L 371.745739 198.577505 
L 380.200284 202.482866 
L 388.65483 205.382173 
L 397.109375 207.15434 
L 405.56392 208.8525 
L 414.018466 212.264981 
L 422.473011 217.209169 
L 430.927557 222.565311 
L 439.382102 227.556769 
L 447.836648 231.662159 
L 456.291193 236.170225 
L 464.745739 241.610116 
L 473.200284 246.445228 
L 481.65483 249.584032 
L 490.109375 251.530468 
L 498.56392 253.413123 
L 507.018466 256.032823 
L 515.473011 259.856343 
L 523.927557 263.276294 
L 532.382102 265.879694 
L 540.836648 269.237661 
L 549.291193 274.359163 
L 557.745739 280.438082 
L 566.200284 286.549889 
L 574.65483 292.556782 
L 583.109375 299.170823 
L 591.56392 306.00116 
L 600.018466 311.653552 
L 608.473011 316.395128 
L 616.927557 320.782931 
L 625.382102 324.697773 
L 633.836648 328.291846 
L 642.291193 332.431213 
L 650.745739 337.364312 
L 659.200284 341.551312 
L 667.65483 344.242984 
L 676.109375 346.942988 
L 684.56392 350.483107 
L 693.018466 353.857249 
L 701.473011 355.996149 
" clip-path="url(#p10242a26d7)" style="fill: none; stroke: #1f77b4; stroke-width: 1.5; stroke-linecap: square"/>
   </g>
   <g id="line2d_34">
    <path d="M 92.745739 95.624488 
L 101.200284 98.64485 
L 109.65483 101.136717 
L 118.109375 95.28734 
L 126.56392 81.18733 
L 135.018466 71.070925 
L 143.473011 72.943038 
L 151.927557 86.636886 
L 160.382102 99.065328 
L 168.836648 95.704382 
L 177.291193 83.835354 
L 185.745739 77.810446 
L 194.200284 82.92782 
L 202.65483 98.16909 
L 211.109375 116.559742 
L 219.56392 134.098766 
L 228.018466 154.119051 
L 236.473011 173.133444 
L 244.927557 184.191335 
L 253.382102 190.862193 
L 261.836648 194.848493 
L 270.291193 198.038144 
L 278.745739 202.002209 
L 287.200284 206.360988 
L 295.65483 207.565066 
L 304.109375 205.413358 
L 312.56392 201.633025 
L 321.018466 198.889158 
L 329.473011 200.208493 
L 337.927557 201.242214 
L 346.382102 198.738228 
L 354.836648 197.608416 
L 363.291193 198.464074 
L 371.745739 199.003198 
L 380.200284 200.063371 
L 388.65483 201.7936 
L 397.109375 204.579596 
L 405.56392 210.016367 
L 414.018466 217.447275 
L 422.473011 224.841833 
L 430.927557 232.114385 
L 439.382102 237.670424 
L 447.836648 241.293067 
L 456.291193 245.91994 
L 464.745739 251.61706 
L 473.200284 253.988175 
L 481.65483 251.703607 
L 490.109375 250.410155 
L 498.56392 252.464996 
L 507.018466 257.588827 
L 515.473011 263.214479 
L 523.927557 266.101326 
L 532.382102 268.20577 
L 540.836648 272.295582 
L 549.291193 278.006343 
L 557.745739 285.310294 
L 566.200284 293.535992 
L 574.65483 299.83678 
L 583.109375 304.536747 
L 591.56392 310.289968 
L 600.018466 316.97841 
L 608.473011 322.355872 
L 616.927557 325.841782 
L 625.382102 329.177162 
L 633.836648 334.38512 
L 642.291193 339.380751 
L 650.745739 341.677393 
L 659.200284 342.758475 
L 667.65483 344.017636 
L 676.109375 345.66025 
L 684.56392 347.558087 
L 693.018466 349.423956 
L 701.473011 352.612381 
" clip-path="url(#p10242a26d7)" style="fill: none; stroke: #d62728; stroke-width: 1.5; stroke-linecap: square"/>
   </g>
   <g id="line2d_35">
    <path d="M 92.745739 77.958185 
L 101.200284 84.243597 
L 109.65483 83.316734 
L 118.109375 66.85595 
L 126.56392 47.812704 
L 135.018466 40.774844 
L 143.473011 51.664594 
L 151.927557 76.550744 
L 160.382102 97.589571 
L 168.836648 96.433149 
L 177.291193 84.371209 
L 185.745739 77.371866 
L 194.200284 81.259881 
L 202.65483 94.60845 
L 211.109375 111.888865 
L 219.56392 128.691488 
L 228.018466 144.378416 
L 236.473011 157.431358 
L 244.927557 165.791172 
L 253.382102 170.744469 
L 261.836648 175.364322 
L 270.291193 179.761404 
L 278.745739 184.063754 
L 287.200284 188.610522 
L 295.65483 192.829131 
L 304.109375 195.658443 
L 312.56392 196.678158 
L 321.018466 196.372985 
L 329.473011 195.393256 
L 337.927557 194.215219 
L 346.382102 193.740945 
L 354.836648 195.265179 
L 363.291193 198.693777 
L 371.745739 202.158893 
L 380.200284 204.570433 
L 388.65483 206.71814 
L 397.109375 209.679459 
L 405.56392 213.411604 
L 414.018466 217.322238 
L 422.473011 221.70245 
L 430.927557 226.808579 
L 439.382102 232.215344 
L 447.836648 236.930301 
L 456.291193 240.753069 
L 464.745739 244.421833 
L 473.200284 247.899427 
L 481.65483 251.183056 
L 490.109375 254.746599 
L 498.56392 258.906934 
L 507.018466 262.891613 
L 515.473011 266.030391 
L 523.927557 268.79308 
L 532.382102 271.840068 
L 540.836648 275.663633 
L 549.291193 280.012228 
L 557.745739 284.682566 
L 566.200284 289.900908 
L 574.65483 296.274819 
L 583.109375 303.845331 
L 591.56392 310.971655 
L 600.018466 317.108893 
L 608.473011 322.545232 
L 616.927557 327.119553 
L 625.382102 330.494808 
L 633.836648 333.506883 
L 642.291193 337.183014 
L 650.745739 341.478826 
L 659.200284 345.689112 
L 667.65483 349.396962 
L 676.109375 351.739121 
L 684.56392 353.315921 
L 693.018466 355.492115 
L 701.473011 358.628134 
" clip-path="url(#p10242a26d7)" style="fill: none; stroke: #e377c2; stroke-width: 1.5; stroke-linecap: square"/>
   </g>
   <g id="line2d_36">
    <path d="M 92.745739 84.109898 
L 101.200284 89.301373 
L 109.65483 87.732745 
L 118.109375 75.863892 
L 126.56392 61.664448 
L 135.018466 55.010685 
L 143.473011 61.619102 
L 151.927557 76.196819 
L 160.382102 81.05103 
L 168.836648 69.992104 
L 177.291193 58.177725 
L 185.745739 57.028216 
L 194.200284 68.239604 
L 202.65483 86.796079 
L 211.109375 103.53787 
L 219.56392 120.152664 
L 228.018466 137.972782 
L 236.473011 152.698924 
L 244.927557 163.290384 
L 253.382102 171.789084 
L 261.836648 181.378621 
L 270.291193 189.232154 
L 278.745739 191.001332 
L 287.200284 188.604048 
L 295.65483 185.572241 
L 304.109375 184.194843 
L 312.56392 185.364802 
L 321.018466 186.051686 
L 329.473011 182.631958 
L 337.927557 178.054857 
L 346.382102 176.279617 
L 354.836648 178.161163 
L 363.291193 180.939105 
L 371.745739 181.906068 
L 380.200284 181.399202 
L 388.65483 183.557018 
L 397.109375 189.142721 
L 405.56392 196.776548 
L 414.018466 205.621275 
L 422.473011 213.853267 
L 430.927557 217.543813 
L 439.382102 219.194215 
L 447.836648 222.435092 
L 456.291193 227.090041 
L 464.745739 233.641481 
L 473.200284 241.363516 
L 481.65483 246.055116 
L 490.109375 248.229243 
L 498.56392 251.298377 
L 507.018466 254.335404 
L 515.473011 254.946288 
L 523.927557 254.09852 
L 532.382102 255.27783 
L 540.836648 260.271584 
L 549.291193 266.834046 
L 557.745739 274.339024 
L 566.200284 284.601586 
L 574.65483 295.941743 
L 583.109375 304.245567 
L 591.56392 309.458321 
L 600.018466 315.235216 
L 608.473011 323.831917 
L 616.927557 332.735491 
L 625.382102 339.085481 
L 633.836648 344.138531 
L 642.291193 348.38752 
L 650.745739 351.205012 
L 659.200284 353.347005 
L 667.65483 356.623146 
L 676.109375 360.866238 
L 684.56392 363.585713 
L 693.018466 365.460318 
L 701.473011 368.801479 
" clip-path="url(#p10242a26d7)" style="fill: none; stroke: #17becf; stroke-width: 1.5; stroke-linecap: square"/>
   </g>
   <g id="patch_3">
    <path d="M 62.309375 411.214844 
L 62.309375 23.134844 
" style="fill: none; stroke: #333333; stroke-linejoin: miter; stroke-linecap: square"/>
   </g>
   <g id="patch_4">
    <path d="M 62.309375 411.214844 
L 731.909375 411.214844 
" style="fill: none; stroke: #333333; stroke-linejoin: miter; stroke-linecap: square"/>
   </g>
   <g id="text_19">
    <!-- Dataset: Jin et al. (2019) | Subject: 11 | Session: 2 | All Task-State PSDs -->
    <g transform="translate(161.556484 17.134844) scale(0.13 -0.13)">
     <defs>
      <path id="DejaVuSerif-3a" d="M 666 325 
Q 666 500 786 622 
Q 906 744 1081 744 
Q 1256 744 1376 622 
Q 1497 500 1497 325 
Q 1497 150 1378 29 
Q 1259 -91 1081 -91 
Q 903 -91 784 29 
Q 666 150 666 325 
z
M 666 2363 
Q 666 2538 786 2658 
Q 906 2778 1081 2778 
Q 1259 2778 1378 2659 
Q 1497 2541 1497 2363 
Q 1497 2184 1378 2065 
Q 1259 1947 1081 1947 
Q 906 1947 786 2067 
Q 666 2188 666 2363 
z
" transform="scale(0.015625)"/>
      <path id="DejaVuSerif-4a" d="M -538 -1119 
L -538 -384 
L -181 -384 
Q -172 -694 -34 -845 
Q 103 -997 378 -997 
Q 750 -997 897 -762 
Q 1044 -528 1044 153 
L 1044 4331 
L 319 4331 
L 319 4666 
L 2272 4666 
L 2272 4331 
L 1678 4331 
L 1678 128 
Q 1678 -644 1368 -987 
Q 1059 -1331 372 -1331 
Q 150 -1331 -79 -1278 
Q -309 -1225 -538 -1119 
z
" transform="scale(0.015625)"/>
      <path id="DejaVuSerif-39" d="M 2994 2091 
Q 2784 1856 2512 1740 
Q 2241 1625 1900 1625 
Q 1206 1625 804 2044 
Q 403 2463 403 3188 
Q 403 3897 839 4323 
Q 1275 4750 2003 4750 
Q 2794 4750 3217 4161 
Q 3641 3572 3641 2478 
Q 3641 1253 3137 581 
Q 2634 -91 1722 -91 
Q 1475 -91 1203 -44 
Q 931 3 647 97 
L 647 872 
L 997 872 
Q 1038 556 1241 387 
Q 1444 219 1784 219 
Q 2391 219 2687 676 
Q 2984 1134 2994 2091 
z
M 1978 4441 
Q 1534 4441 1298 4117 
Q 1063 3794 1063 3188 
Q 1063 2581 1298 2256 
Q 1534 1931 1978 1931 
Q 2422 1931 2658 2245 
Q 2894 2559 2894 3150 
Q 2894 3772 2656 4106 
Q 2419 4441 1978 4441 
z
" transform="scale(0.015625)"/>
      <path id="DejaVuSerif-7c" d="M 1331 4891 
L 1331 -1509 
L 825 -1509 
L 825 4891 
L 1331 4891 
z
" transform="scale(0.015625)"/>
      <path id="DejaVuSerif-62" d="M 738 331 
L 738 4531 
L 184 4531 
L 184 4863 
L 1313 4863 
L 1313 2803 
Q 1481 3116 1742 3264 
Q 2003 3413 2388 3413 
Q 3000 3413 3387 2928 
Q 3775 2444 3775 1663 
Q 3775 881 3387 395 
Q 3000 -91 2388 -91 
Q 2003 -91 1742 57 
Q 1481 206 1313 519 
L 1313 0 
L 184 0 
L 184 331 
L 738 331 
z
M 1313 1497 
Q 1313 897 1542 583 
Q 1772 269 2209 269 
Q 2650 269 2876 622 
Q 3103 975 3103 1663 
Q 3103 2353 2876 2703 
Q 2650 3053 2209 3053 
Q 1772 3053 1542 2737 
Q 1313 2422 1313 1825 
L 1313 1497 
z
" transform="scale(0.015625)"/>
      <path id="DejaVuSerif-6a" d="M 641 4353 
Q 641 4497 745 4603 
Q 850 4709 997 4709 
Q 1141 4709 1245 4603 
Q 1350 4497 1350 4353 
Q 1350 4206 1248 4103 
Q 1147 4000 997 4000 
Q 850 4000 745 4103 
Q 641 4206 641 4353 
z
M 781 2988 
L 238 2988 
L 238 3322 
L 1356 3322 
L 1356 -325 
Q 1356 -838 1051 -1130 
Q 747 -1422 213 -1422 
Q -13 -1422 -217 -1370 
Q -422 -1319 -616 -1216 
L -616 -531 
L -319 -531 
Q -297 -831 -164 -972 
Q -31 -1113 225 -1113 
Q 509 -1113 645 -920 
Q 781 -728 781 -325 
L 781 2988 
z
" transform="scale(0.015625)"/>
      <path id="DejaVuSerif-41" d="M 1281 1691 
L 2994 1691 
L 2138 3909 
L 1281 1691 
z
M -38 0 
L -38 331 
L 372 331 
L 2034 4666 
L 2559 4666 
L 4225 331 
L 4684 331 
L 4684 0 
L 2988 0 
L 2988 331 
L 3506 331 
L 3116 1356 
L 1153 1356 
L 763 331 
L 1275 331 
L 1275 0 
L -38 0 
z
" transform="scale(0.015625)"/>
      <path id="DejaVuSerif-54" d="M 1222 0 
L 1222 331 
L 1819 331 
L 1819 4294 
L 447 4294 
L 447 3566 
L 63 3566 
L 63 4666 
L 4206 4666 
L 4206 3566 
L 3822 3566 
L 3822 4294 
L 2450 4294 
L 2450 331 
L 3047 331 
L 3047 0 
L 1222 0 
z
" transform="scale(0.015625)"/>
      <path id="DejaVuSerif-6b" d="M 1831 0 
L 219 0 
L 219 331 
L 738 331 
L 738 4531 
L 184 4531 
L 184 4863 
L 1313 4863 
L 1313 1697 
L 2713 2988 
L 2234 2988 
L 2234 3322 
L 3738 3322 
L 3738 2988 
L 3169 2988 
L 2181 2075 
L 3444 331 
L 3922 331 
L 3922 0 
L 2284 0 
L 2284 331 
L 2759 331 
L 1766 1697 
L 1313 1275 
L 1313 331 
L 1831 331 
L 1831 0 
z
" transform="scale(0.015625)"/>
      <path id="DejaVuSerif-2d" d="M 281 1959 
L 1881 1959 
L 1881 1472 
L 281 1472 
L 281 1959 
z
" transform="scale(0.015625)"/>
     </defs>
     <use xlink:href="#DejaVuSerif-44"/>
     <use xlink:href="#DejaVuSerif-61" transform="translate(80.175781 0)"/>
     <use xlink:href="#DejaVuSerif-74" transform="translate(139.794922 0)"/>
     <use xlink:href="#DejaVuSerif-61" transform="translate(179.980469 0)"/>
     <use xlink:href="#DejaVuSerif-73" transform="translate(239.599609 0)"/>
     <use xlink:href="#DejaVuSerif-65" transform="translate(290.917969 0)"/>
     <use xlink:href="#DejaVuSerif-74" transform="translate(350.097656 0)"/>
     <use xlink:href="#DejaVuSerif-3a" transform="translate(390.283203 0)"/>
     <use xlink:href="#DejaVuSerif-20" transform="translate(423.974609 0)"/>
     <use xlink:href="#DejaVuSerif-4a" transform="translate(455.761719 0)"/>
     <use xlink:href="#DejaVuSerif-69" transform="translate(495.849609 0)"/>
     <use xlink:href="#DejaVuSerif-6e" transform="translate(527.832031 0)"/>
     <use xlink:href="#DejaVuSerif-20" transform="translate(592.236328 0)"/>
     <use xlink:href="#DejaVuSerif-65" transform="translate(624.023438 0)"/>
     <use xlink:href="#DejaVuSerif-74" transform="translate(683.203125 0)"/>
     <use xlink:href="#DejaVuSerif-20" transform="translate(723.388672 0)"/>
     <use xlink:href="#DejaVuSerif-61" transform="translate(755.175781 0)"/>
     <use xlink:href="#DejaVuSerif-6c" transform="translate(814.794922 0)"/>
     <use xlink:href="#DejaVuSerif-2e" transform="translate(846.777344 0)"/>
     <use xlink:href="#DejaVuSerif-20" transform="translate(878.564453 0)"/>
     <use xlink:href="#DejaVuSerif-28" transform="translate(910.351562 0)"/>
     <use xlink:href="#DejaVuSerif-32" transform="translate(949.365234 0)"/>
     <use xlink:href="#DejaVuSerif-30" transform="translate(1012.988281 0)"/>
     <use xlink:href="#DejaVuSerif-31" transform="translate(1076.611328 0)"/>
     <use xlink:href="#DejaVuSerif-39" transform="translate(1140.234375 0)"/>
     <use xlink:href="#DejaVuSerif-29" transform="translate(1203.857422 0)"/>
     <use xlink:href="#DejaVuSerif-20" transform="translate(1242.871094 0)"/>
     <use xlink:href="#DejaVuSerif-7c" transform="translate(1274.658203 0)"/>
     <use xlink:href="#DejaVuSerif-20" transform="translate(1308.349609 0)"/>
     <use xlink:href="#DejaVuSerif-53" transform="translate(1340.136719 0)"/>
     <use xlink:href="#DejaVuSerif-75" transform="translate(1408.642578 0)"/>
     <use xlink:href="#DejaVuSerif-62" transform="translate(1473.046875 0)"/>
     <use xlink:href="#DejaVuSerif-6a" transform="translate(1537.060547 0)"/>
     <use xlink:href="#DejaVuSerif-65" transform="translate(1568.066406 0)"/>
     <use xlink:href="#DejaVuSerif-63" transform="translate(1627.246094 0)"/>
     <use xlink:href="#DejaVuSerif-74" transform="translate(1683.251953 0)"/>
     <use xlink:href="#DejaVuSerif-3a" transform="translate(1723.4375 0)"/>
     <use xlink:href="#DejaVuSerif-20" transform="translate(1757.128906 0)"/>
     <use xlink:href="#DejaVuSerif-31" transform="translate(1788.916016 0)"/>
     <use xlink:href="#DejaVuSerif-31" transform="translate(1852.539062 0)"/>
     <use xlink:href="#DejaVuSerif-20" transform="translate(1916.162109 0)"/>
     <use xlink:href="#DejaVuSerif-7c" transform="translate(1947.949219 0)"/>
     <use xlink:href="#DejaVuSerif-20" transform="translate(1981.640625 0)"/>
     <use xlink:href="#DejaVuSerif-53" transform="translate(2013.427734 0)"/>
     <use xlink:href="#DejaVuSerif-65" transform="translate(2081.933594 0)"/>
     <use xlink:href="#DejaVuSerif-73" transform="translate(2141.113281 0)"/>
     <use xlink:href="#DejaVuSerif-73" transform="translate(2192.431641 0)"/>
     <use xlink:href="#DejaVuSerif-69" transform="translate(2243.75 0)"/>
     <use xlink:href="#DejaVuSerif-6f" transform="translate(2275.732422 0)"/>
     <use xlink:href="#DejaVuSerif-6e" transform="translate(2335.9375 0)"/>
     <use xlink:href="#DejaVuSerif-3a" transform="translate(2400.341797 0)"/>
     <use xlink:href="#DejaVuSerif-20" transform="translate(2434.033203 0)"/>
     <use xlink:href="#DejaVuSerif-32" transform="translate(2465.820312 0)"/>
     <use xlink:href="#DejaVuSerif-20" transform="translate(2529.443359 0)"/>
     <use xlink:href="#DejaVuSerif-7c" transform="translate(2561.230469 0)"/>
     <use xlink:href="#DejaVuSerif-20" transform="translate(2594.921875 0)"/>
     <use xlink:href="#DejaVuSerif-41" transform="translate(2626.708984 0)"/>
     <use xlink:href="#DejaVuSerif-6c" transform="translate(2698.925781 0)"/>
     <use xlink:href="#DejaVuSerif-6c" transform="translate(2730.908203 0)"/>
     <use xlink:href="#DejaVuSerif-20" transform="translate(2762.890625 0)"/>
     <use xlink:href="#DejaVuSerif-54" transform="translate(2794.677734 0)"/>
     <use xlink:href="#DejaVuSerif-61" transform="translate(2853.626953 0)"/>
     <use xlink:href="#DejaVuSerif-73" transform="translate(2913.246094 0)"/>
     <use xlink:href="#DejaVuSerif-6b" transform="translate(2964.564453 0)"/>
     <use xlink:href="#DejaVuSerif-2d" transform="translate(3023.410156 0)"/>
     <use xlink:href="#DejaVuSerif-53" transform="translate(3057.199219 0)"/>
     <use xlink:href="#DejaVuSerif-74" transform="translate(3125.705078 0)"/>
     <use xlink:href="#DejaVuSerif-61" transform="translate(3165.890625 0)"/>
     <use xlink:href="#DejaVuSerif-74" transform="translate(3225.509766 0)"/>
     <use xlink:href="#DejaVuSerif-65" transform="translate(3265.695312 0)"/>
     <use xlink:href="#DejaVuSerif-20" transform="translate(3324.875 0)"/>
     <use xlink:href="#DejaVuSerif-50" transform="translate(3356.662109 0)"/>
     <use xlink:href="#DejaVuSerif-53" transform="translate(3423.947266 0)"/>
     <use xlink:href="#DejaVuSerif-44" transform="translate(3492.453125 0)"/>
     <use xlink:href="#DejaVuSerif-73" transform="translate(3572.628906 0)"/>
    </g>
   </g>
   <g id="legend_1">
    <g id="line2d_37">
     <path d="M 644.764063 36.233281 
L 654.764063 36.233281 
L 664.764063 36.233281 
" style="fill: none; stroke: #1f77b4; stroke-width: 1.5; stroke-linecap: square"/>
    </g>
    <g id="text_20">
     <!-- vs - MW -->
     <g transform="translate(672.764063 39.733281) scale(0.1 -0.1)">
      <defs>
       <path id="DejaVuSerif-76" d="M 1581 0 
L 359 2988 
L -19 2988 
L -19 3322 
L 1509 3322 
L 1509 2988 
L 978 2988 
L 1913 703 
L 2847 2988 
L 2350 2988 
L 2350 3322 
L 3597 3322 
L 3597 2988 
L 3225 2988 
L 2003 0 
L 1581 0 
z
" transform="scale(0.015625)"/>
       <path id="DejaVuSerif-4d" d="M 353 0 
L 353 331 
L 947 331 
L 947 4331 
L 319 4331 
L 319 4666 
L 1678 4666 
L 3316 1344 
L 4953 4666 
L 6228 4666 
L 6228 4331 
L 5606 4331 
L 5606 331 
L 6203 331 
L 6203 0 
L 4378 0 
L 4378 331 
L 4972 331 
L 4972 3938 
L 3372 684 
L 2931 684 
L 1331 3938 
L 1331 331 
L 1925 331 
L 1925 0 
L 353 0 
z
" transform="scale(0.015625)"/>
       <path id="DejaVuSerif-57" d="M 4878 0 
L 4366 0 
L 3297 3794 
L 2228 0 
L 1716 0 
L 494 4331 
L 31 4331 
L 31 4666 
L 1734 4666 
L 1734 4331 
L 1153 4331 
L 2125 884 
L 3188 4666 
L 3694 4666 
L 4775 844 
L 5753 4331 
L 5216 4331 
L 5216 4666 
L 6559 4666 
L 6559 4331 
L 6100 4331 
L 4878 0 
z
" transform="scale(0.015625)"/>
      </defs>
      <use xlink:href="#DejaVuSerif-76"/>
      <use xlink:href="#DejaVuSerif-73" transform="translate(56.494141 0)"/>
      <use xlink:href="#DejaVuSerif-20" transform="translate(107.8125 0)"/>
      <use xlink:href="#DejaVuSerif-2d" transform="translate(139.599609 0)"/>
      <use xlink:href="#DejaVuSerif-20" transform="translate(173.388672 0)"/>
      <use xlink:href="#DejaVuSerif-4d" transform="translate(205.175781 0)"/>
      <use xlink:href="#DejaVuSerif-57" transform="translate(307.568359 0)"/>
     </g>
    </g>
    <g id="line2d_38">
     <path d="M 644.764063 50.911406 
L 654.764063 50.911406 
L 664.764063 50.911406 
" style="fill: none; stroke: #d62728; stroke-width: 1.5; stroke-linecap: square"/>
    </g>
    <g id="text_21">
     <!-- vs - OT -->
     <g transform="translate(672.764063 54.411406) scale(0.1 -0.1)">
      <defs>
       <path id="DejaVuSerif-4f" d="M 2625 244 
Q 3391 244 3781 770 
Q 4172 1297 4172 2328 
Q 4172 3363 3781 3889 
Q 3391 4416 2625 4416 
Q 1856 4416 1465 3889 
Q 1075 3363 1075 2328 
Q 1075 1297 1465 770 
Q 1856 244 2625 244 
z
M 2625 -91 
Q 2150 -91 1751 65 
Q 1353 222 1050 525 
Q 700 875 529 1319 
Q 359 1763 359 2328 
Q 359 2894 529 3339 
Q 700 3784 1050 4134 
Q 1356 4441 1750 4595 
Q 2144 4750 2625 4750 
Q 3641 4750 4266 4084 
Q 4891 3419 4891 2328 
Q 4891 1769 4719 1320 
Q 4547 872 4197 525 
Q 3891 219 3497 64 
Q 3103 -91 2625 -91 
z
" transform="scale(0.015625)"/>
      </defs>
      <use xlink:href="#DejaVuSerif-76"/>
      <use xlink:href="#DejaVuSerif-73" transform="translate(56.494141 0)"/>
      <use xlink:href="#DejaVuSerif-20" transform="translate(107.8125 0)"/>
      <use xlink:href="#DejaVuSerif-2d" transform="translate(139.599609 0)"/>
      <use xlink:href="#DejaVuSerif-20" transform="translate(173.388672 0)"/>
      <use xlink:href="#DejaVuSerif-4f" transform="translate(205.175781 0)"/>
      <use xlink:href="#DejaVuSerif-54" transform="translate(287.158203 0)"/>
     </g>
    </g>
    <g id="line2d_39">
     <path d="M 644.764063 65.589531 
L 654.764063 65.589531 
L 664.764063 65.589531 
" style="fill: none; stroke: #e377c2; stroke-width: 1.5; stroke-linecap: square"/>
    </g>
    <g id="text_22">
     <!-- sart - MW -->
     <g transform="translate(672.764063 69.089531) scale(0.1 -0.1)">
      <use xlink:href="#DejaVuSerif-73"/>
      <use xlink:href="#DejaVuSerif-61" transform="translate(51.318359 0)"/>
      <use xlink:href="#DejaVuSerif-72" transform="translate(110.9375 0)"/>
      <use xlink:href="#DejaVuSerif-74" transform="translate(158.740234 0)"/>
      <use xlink:href="#DejaVuSerif-20" transform="translate(198.925781 0)"/>
      <use xlink:href="#DejaVuSerif-2d" transform="translate(230.712891 0)"/>
      <use xlink:href="#DejaVuSerif-20" transform="translate(264.501953 0)"/>
      <use xlink:href="#DejaVuSerif-4d" transform="translate(296.289062 0)"/>
      <use xlink:href="#DejaVuSerif-57" transform="translate(398.681641 0)"/>
     </g>
    </g>
    <g id="line2d_40">
     <path d="M 644.764063 80.267656 
L 654.764063 80.267656 
L 664.764063 80.267656 
" style="fill: none; stroke: #17becf; stroke-width: 1.5; stroke-linecap: square"/>
    </g>
    <g id="text_23">
     <!-- sart - OT -->
     <g transform="translate(672.764063 83.767656) scale(0.1 -0.1)">
      <use xlink:href="#DejaVuSerif-73"/>
      <use xlink:href="#DejaVuSerif-61" transform="translate(51.318359 0)"/>
      <use xlink:href="#DejaVuSerif-72" transform="translate(110.9375 0)"/>
      <use xlink:href="#DejaVuSerif-74" transform="translate(158.740234 0)"/>
      <use xlink:href="#DejaVuSerif-20" transform="translate(198.925781 0)"/>
      <use xlink:href="#DejaVuSerif-2d" transform="translate(230.712891 0)"/>
      <use xlink:href="#DejaVuSerif-20" transform="translate(264.501953 0)"/>
      <use xlink:href="#DejaVuSerif-4f" transform="translate(296.289062 0)"/>
      <use xlink:href="#DejaVuSerif-54" transform="translate(378.271484 0)"/>
     </g>
    </g>
   </g>
  </g>
 </g>
 <defs>
  <clipPath id="p10242a26d7">
   <rect x="62.309375" y="23.134844" width="669.6" height="388.08"/>
  </clipPath>
 </defs>
</svg>
