<?xml version="1.0" encoding="utf-8" standalone="no"?>
<!DOCTYPE svg PUBLIC "-//W3C//DTD SVG 1.1//EN"
  "http://www.w3.org/Graphics/SVG/1.1/DTD/svg11.dtd">
<svg xmlns:xlink="http://www.w3.org/1999/xlink" width="739.109375pt" height="448.9275pt" viewBox="0 0 739.109375 448.9275" xmlns="http://www.w3.org/2000/svg" version="1.1">
 <metadata>
  <rdf:RDF xmlns:dc="http://purl.org/dc/elements/1.1/" xmlns:cc="http://creativecommons.org/ns#" xmlns:rdf="http://www.w3.org/1999/02/22-rdf-syntax-ns#">
   <cc:Work>
    <dc:type rdf:resource="http://purl.org/dc/dcmitype/StillImage"/>
    <dc:date>2025-05-30T20:15:53.252218</dc:date>
    <dc:format>image/svg+xml</dc:format>
    <dc:creator>
     <cc:Agent>
      <dc:title>Matplotlib v3.10.3, https://matplotlib.org/</dc:title>
     </cc:Agent>
    </dc:creator>
   </cc:Work>
  </rdf:RDF>
 </metadata>
 <defs>
  <style type="text/css">*{stroke-linejoin: round; stroke-linecap: butt}</style>
 </defs>
 <g id="figure_1">
  <g id="patch_1">
   <path d="M 0 448.9275 
L 739.109375 448.9275 
L 739.109375 0 
L 0 0 
z
" style="fill: #ffffff"/>
  </g>
  <g id="axes_1">
   <g id="patch_2">
    <path d="M 62.309375 411.214844 
L 731.909375 411.214844 
L 731.909375 23.134844 
L 62.309375 23.134844 
z
" style="fill: #ffffff"/>
   </g>
   <g id="FillBetweenPolyCollection_1">
    <defs>
     <path id="mf5492b3c6c" d="M 92.745739 -408.152656 
L 92.745739 -408.152656 
L 101.200284 -384.475794 
L 109.65483 -362.682983 
L 118.109375 -345.86325 
L 126.56392 -336.761793 
L 135.018466 -335.555323 
L 143.473011 -344.163591 
L 151.927557 -363.569557 
L 160.382102 -384.632649 
L 168.836648 -395.471723 
L 177.291193 -390.39298 
L 185.745739 -370.237552 
L 194.200284 -341.798801 
L 202.65483 -315.132465 
L 211.109375 -294.173679 
L 219.56392 -276.455605 
L 228.018466 -262.057839 
L 236.473011 -252.061671 
L 244.927557 -244.722623 
L 253.382102 -238.587921 
L 261.836648 -233.304225 
L 270.291193 -230.007091 
L 278.745739 -228.843935 
L 287.200284 -228.993173 
L 295.65483 -228.859127 
L 304.109375 -226.529576 
L 312.56392 -222.49753 
L 321.018466 -219.2583 
L 329.473011 -216.988413 
L 337.927557 -214.702737 
L 346.382102 -212.902469 
L 354.836648 -210.789979 
L 363.291193 -207.940545 
L 371.745739 -205.773447 
L 380.200284 -204.095153 
L 388.65483 -201.811288 
L 397.109375 -198.324636 
L 405.56392 -194.344553 
L 414.018466 -190.47734 
L 422.473011 -186.797282 
L 430.927557 -182.749902 
L 439.382102 -177.749127 
L 447.836648 -172.893699 
L 456.291193 -168.841126 
L 464.745739 -165.085807 
L 473.200284 -160.820407 
L 481.65483 -157.003848 
L 490.109375 -155.131769 
L 498.56392 -153.613354 
L 507.018466 -151.12791 
L 515.473011 -149.369784 
L 523.927557 -149.957017 
L 532.382102 -152.275102 
L 540.836648 -154.361538 
L 549.291193 -155.760237 
L 557.745739 -157.922837 
L 566.200284 -159.585808 
L 574.65483 -159.247235 
L 583.109375 -156.466407 
L 591.56392 -151.537181 
L 600.018466 -145.353215 
L 608.473011 -139.102195 
L 616.927557 -132.988612 
L 625.382102 -126.992631 
L 633.836648 -120.996598 
L 642.291193 -115.283696 
L 650.745739 -110.470162 
L 659.200284 -105.738002 
L 667.65483 -100.369436 
L 676.109375 -95.255598 
L 684.56392 -90.877597 
L 693.018466 -87.07038 
L 701.473011 -83.443855 
L 701.473011 -83.443855 
L 701.473011 -55.352656 
L 693.018466 -55.352656 
L 684.56392 -55.352656 
L 676.109375 -55.352656 
L 667.65483 -55.352656 
L 659.200284 -55.352656 
L 650.745739 -55.352656 
L 642.291193 -55.352656 
L 633.836648 -55.352656 
L 625.382102 -55.352656 
L 616.927557 -55.352656 
L 608.473011 -55.352656 
L 600.018466 -55.352656 
L 591.56392 -55.352656 
L 583.109375 -55.352656 
L 574.65483 -55.352656 
L 566.200284 -55.352656 
L 557.745739 -55.352656 
L 549.291193 -55.352656 
L 540.836648 -55.352656 
L 532.382102 -55.352656 
L 523.927557 -55.352656 
L 515.473011 -55.352656 
L 507.018466 -55.352656 
L 498.56392 -55.352656 
L 490.109375 -55.352656 
L 481.65483 -55.352656 
L 473.200284 -55.352656 
L 464.745739 -55.352656 
L 456.291193 -55.352656 
L 447.836648 -55.352656 
L 439.382102 -55.352656 
L 430.927557 -55.352656 
L 422.473011 -55.352656 
L 414.018466 -55.352656 
L 405.56392 -55.352656 
L 397.109375 -55.352656 
L 388.65483 -55.352656 
L 380.200284 -55.352656 
L 371.745739 -55.352656 
L 363.291193 -55.352656 
L 354.836648 -55.352656 
L 346.382102 -55.352656 
L 337.927557 -55.352656 
L 329.473011 -55.352656 
L 321.018466 -55.352656 
L 312.56392 -55.352656 
L 304.109375 -55.352656 
L 295.65483 -55.352656 
L 287.200284 -55.352656 
L 278.745739 -55.352656 
L 270.291193 -55.352656 
L 261.836648 -55.352656 
L 253.382102 -55.352656 
L 244.927557 -55.352656 
L 236.473011 -55.352656 
L 228.018466 -55.352656 
L 219.56392 -55.352656 
L 211.109375 -55.352656 
L 202.65483 -55.352656 
L 194.200284 -55.352656 
L 185.745739 -55.352656 
L 177.291193 -55.352656 
L 168.836648 -55.352656 
L 160.382102 -55.352656 
L 151.927557 -55.352656 
L 143.473011 -55.352656 
L 135.018466 -55.352656 
L 126.56392 -55.352656 
L 118.109375 -55.352656 
L 109.65483 -55.352656 
L 101.200284 -55.352656 
L 92.745739 -55.352656 
z
" style="stroke: #1f77b4; stroke-opacity: 0.3"/>
    </defs>
    <g clip-path="url(#p412d192e82)">
     <use xlink:href="#mf5492b3c6c" x="0" y="448.9275" style="fill: #1f77b4; fill-opacity: 0.3; stroke: #1f77b4; stroke-opacity: 0.3"/>
    </g>
   </g>
   <g id="FillBetweenPolyCollection_2">
    <defs>
     <path id="m681d3d7287" d="M 92.745739 -399.007626 
L 92.745739 -399.007626 
L 101.200284 -378.595454 
L 109.65483 -360.691955 
L 118.109375 -346.218603 
L 126.56392 -337.528358 
L 135.018466 -335.885451 
L 143.473011 -345.175815 
L 151.927557 -364.51422 
L 160.382102 -383.910675 
L 168.836648 -392.190326 
L 177.291193 -384.39042 
L 185.745739 -363.247919 
L 194.200284 -337.114109 
L 202.65483 -312.946994 
L 211.109375 -292.370905 
L 219.56392 -275.706016 
L 228.018466 -263.142011 
L 236.473011 -253.932292 
L 244.927557 -246.927669 
L 253.382102 -241.348327 
L 261.836648 -236.686108 
L 270.291193 -233.11617 
L 278.745739 -231.695035 
L 287.200284 -231.343724 
L 295.65483 -229.932917 
L 304.109375 -226.59417 
L 312.56392 -223.897463 
L 321.018466 -223.777562 
L 329.473011 -223.436891 
L 337.927557 -221.461342 
L 346.382102 -218.970153 
L 354.836648 -217.548873 
L 363.291193 -216.981352 
L 371.745739 -216.457032 
L 380.200284 -214.877732 
L 388.65483 -211.08871 
L 397.109375 -206.729704 
L 405.56392 -203.80819 
L 414.018466 -201.114929 
L 422.473011 -197.080912 
L 430.927557 -192.641215 
L 439.382102 -188.951508 
L 447.836648 -186.772756 
L 456.291193 -184.722804 
L 464.745739 -181.317689 
L 473.200284 -177.400907 
L 481.65483 -174.536442 
L 490.109375 -172.605224 
L 498.56392 -170.781655 
L 507.018466 -169.464683 
L 515.473011 -168.807818 
L 523.927557 -168.520798 
L 532.382102 -168.930921 
L 540.836648 -169.78023 
L 549.291193 -169.999822 
L 557.745739 -170.07999 
L 566.200284 -170.331051 
L 574.65483 -168.710313 
L 583.109375 -165.093918 
L 591.56392 -161.007384 
L 600.018466 -156.474175 
L 608.473011 -151.268492 
L 616.927557 -144.881329 
L 625.382102 -137.666018 
L 633.836648 -131.103234 
L 642.291193 -126.181359 
L 650.745739 -122.297795 
L 659.200284 -118.58694 
L 667.65483 -114.769115 
L 676.109375 -111.113501 
L 684.56392 -108.103083 
L 693.018466 -105.482169 
L 701.473011 -102.432013 
L 701.473011 -102.432013 
L 701.473011 -55.352656 
L 693.018466 -55.352656 
L 684.56392 -55.352656 
L 676.109375 -55.352656 
L 667.65483 -55.352656 
L 659.200284 -55.352656 
L 650.745739 -55.352656 
L 642.291193 -55.352656 
L 633.836648 -55.352656 
L 625.382102 -55.352656 
L 616.927557 -55.352656 
L 608.473011 -55.352656 
L 600.018466 -55.352656 
L 591.56392 -55.352656 
L 583.109375 -55.352656 
L 574.65483 -55.352656 
L 566.200284 -55.352656 
L 557.745739 -55.352656 
L 549.291193 -55.352656 
L 540.836648 -55.352656 
L 532.382102 -55.352656 
L 523.927557 -55.352656 
L 515.473011 -55.352656 
L 507.018466 -55.352656 
L 498.56392 -55.352656 
L 490.109375 -55.352656 
L 481.65483 -55.352656 
L 473.200284 -55.352656 
L 464.745739 -55.352656 
L 456.291193 -55.352656 
L 447.836648 -55.352656 
L 439.382102 -55.352656 
L 430.927557 -55.352656 
L 422.473011 -55.352656 
L 414.018466 -55.352656 
L 405.56392 -55.352656 
L 397.109375 -55.352656 
L 388.65483 -55.352656 
L 380.200284 -55.352656 
L 371.745739 -55.352656 
L 363.291193 -55.352656 
L 354.836648 -55.352656 
L 346.382102 -55.352656 
L 337.927557 -55.352656 
L 329.473011 -55.352656 
L 321.018466 -55.352656 
L 312.56392 -55.352656 
L 304.109375 -55.352656 
L 295.65483 -55.352656 
L 287.200284 -55.352656 
L 278.745739 -55.352656 
L 270.291193 -55.352656 
L 261.836648 -55.352656 
L 253.382102 -55.352656 
L 244.927557 -55.352656 
L 236.473011 -55.352656 
L 228.018466 -55.352656 
L 219.56392 -55.352656 
L 211.109375 -55.352656 
L 202.65483 -55.352656 
L 194.200284 -55.352656 
L 185.745739 -55.352656 
L 177.291193 -55.352656 
L 168.836648 -55.352656 
L 160.382102 -55.352656 
L 151.927557 -55.352656 
L 143.473011 -55.352656 
L 135.018466 -55.352656 
L 126.56392 -55.352656 
L 118.109375 -55.352656 
L 109.65483 -55.352656 
L 101.200284 -55.352656 
L 92.745739 -55.352656 
z
" style="stroke: #17becf; stroke-opacity: 0.3"/>
    </defs>
    <g clip-path="url(#p412d192e82)">
     <use xlink:href="#m681d3d7287" x="0" y="448.9275" style="fill: #17becf; fill-opacity: 0.3; stroke: #17becf; stroke-opacity: 0.3"/>
    </g>
   </g>
   <g id="matplotlib.axis_1">
    <g id="xtick_1">
     <g id="line2d_1">
      <path d="M 109.65483 411.214844 
L 109.65483 23.134844 
" clip-path="url(#p412d192e82)" style="fill: none; stroke-dasharray: 2.96,1.28; stroke-dashoffset: 0; stroke: #dddddd; stroke-width: 0.8"/>
     </g>
     <g id="line2d_2">
      <defs>
       <path id="m6b57f09927" d="M 0 0 
L 0 3.5 
" style="stroke: #333333; stroke-width: 0.8"/>
      </defs>
      <g>
       <use xlink:href="#m6b57f09927" x="109.65483" y="411.214844" style="fill: #333333; stroke: #333333; stroke-width: 0.8"/>
      </g>
     </g>
     <g id="text_1">
      <!-- 5 -->
      <g style="fill: #333333" transform="translate(106.791705 425.053437) scale(0.09 -0.09)">
       <defs>
        <path id="DejaVuSerif-35" d="M 3219 4666 
L 3219 4153 
L 1081 4153 
L 1081 2816 
Q 1244 2928 1461 2984 
Q 1678 3041 1947 3041 
Q 2703 3041 3140 2622 
Q 3578 2203 3578 1478 
Q 3578 738 3136 323 
Q 2694 -91 1894 -91 
Q 1572 -91 1234 -12 
Q 897 66 544 225 
L 544 1131 
L 897 1131 
Q 925 688 1179 453 
Q 1434 219 1894 219 
Q 2388 219 2653 544 
Q 2919 869 2919 1478 
Q 2919 2084 2655 2407 
Q 2391 2731 1894 2731 
Q 1613 2731 1398 2631 
Q 1184 2531 1019 2322 
L 750 2322 
L 750 4666 
L 3219 4666 
z
" transform="scale(0.015625)"/>
       </defs>
       <use xlink:href="#DejaVuSerif-35"/>
      </g>
     </g>
    </g>
    <g id="xtick_2">
     <g id="line2d_3">
      <path d="M 194.200284 411.214844 
L 194.200284 23.134844 
" clip-path="url(#p412d192e82)" style="fill: none; stroke-dasharray: 2.96,1.28; stroke-dashoffset: 0; stroke: #dddddd; stroke-width: 0.8"/>
     </g>
     <g id="line2d_4">
      <g>
       <use xlink:href="#m6b57f09927" x="194.200284" y="411.214844" style="fill: #333333; stroke: #333333; stroke-width: 0.8"/>
      </g>
     </g>
     <g id="text_2">
      <!-- 10 -->
      <g style="fill: #333333" transform="translate(188.474034 425.053437) scale(0.09 -0.09)">
       <defs>
        <path id="DejaVuSerif-31" d="M 909 0 
L 909 331 
L 1722 331 
L 1722 4213 
L 781 3603 
L 781 4013 
L 1919 4750 
L 2350 4750 
L 2350 331 
L 3163 331 
L 3163 0 
L 909 0 
z
" transform="scale(0.015625)"/>
        <path id="DejaVuSerif-30" d="M 2034 219 
Q 2513 219 2750 744 
Q 2988 1269 2988 2328 
Q 2988 3391 2750 3916 
Q 2513 4441 2034 4441 
Q 1556 4441 1318 3916 
Q 1081 3391 1081 2328 
Q 1081 1269 1318 744 
Q 1556 219 2034 219 
z
M 2034 -91 
Q 1275 -91 848 546 
Q 422 1184 422 2328 
Q 422 3475 848 4112 
Q 1275 4750 2034 4750 
Q 2797 4750 3222 4112 
Q 3647 3475 3647 2328 
Q 3647 1184 3222 546 
Q 2797 -91 2034 -91 
z
" transform="scale(0.015625)"/>
       </defs>
       <use xlink:href="#DejaVuSerif-31"/>
       <use xlink:href="#DejaVuSerif-30" transform="translate(63.623047 0)"/>
      </g>
     </g>
    </g>
    <g id="xtick_3">
     <g id="line2d_5">
      <path d="M 278.745739 411.214844 
L 278.745739 23.134844 
" clip-path="url(#p412d192e82)" style="fill: none; stroke-dasharray: 2.96,1.28; stroke-dashoffset: 0; stroke: #dddddd; stroke-width: 0.8"/>
     </g>
     <g id="line2d_6">
      <g>
       <use xlink:href="#m6b57f09927" x="278.745739" y="411.214844" style="fill: #333333; stroke: #333333; stroke-width: 0.8"/>
      </g>
     </g>
     <g id="text_3">
      <!-- 15 -->
      <g style="fill: #333333" transform="translate(273.019489 425.053437) scale(0.09 -0.09)">
       <use xlink:href="#DejaVuSerif-31"/>
       <use xlink:href="#DejaVuSerif-35" transform="translate(63.623047 0)"/>
      </g>
     </g>
    </g>
    <g id="xtick_4">
     <g id="line2d_7">
      <path d="M 363.291193 411.214844 
L 363.291193 23.134844 
" clip-path="url(#p412d192e82)" style="fill: none; stroke-dasharray: 2.96,1.28; stroke-dashoffset: 0; stroke: #dddddd; stroke-width: 0.8"/>
     </g>
     <g id="line2d_8">
      <g>
       <use xlink:href="#m6b57f09927" x="363.291193" y="411.214844" style="fill: #333333; stroke: #333333; stroke-width: 0.8"/>
      </g>
     </g>
     <g id="text_4">
      <!-- 20 -->
      <g style="fill: #333333" transform="translate(357.564943 425.053437) scale(0.09 -0.09)">
       <defs>
        <path id="DejaVuSerif-32" d="M 819 3553 
L 469 3553 
L 469 4384 
Q 803 4563 1142 4656 
Q 1481 4750 1806 4750 
Q 2534 4750 2956 4397 
Q 3378 4044 3378 3438 
Q 3378 2753 2422 1800 
Q 2347 1728 2309 1691 
L 1131 513 
L 3078 513 
L 3078 1088 
L 3444 1088 
L 3444 0 
L 434 0 
L 434 341 
L 1850 1753 
Q 2319 2222 2519 2614 
Q 2719 3006 2719 3438 
Q 2719 3909 2473 4175 
Q 2228 4441 1797 4441 
Q 1350 4441 1106 4219 
Q 863 3997 819 3553 
z
" transform="scale(0.015625)"/>
       </defs>
       <use xlink:href="#DejaVuSerif-32"/>
       <use xlink:href="#DejaVuSerif-30" transform="translate(63.623047 0)"/>
      </g>
     </g>
    </g>
    <g id="xtick_5">
     <g id="line2d_9">
      <path d="M 447.836648 411.214844 
L 447.836648 23.134844 
" clip-path="url(#p412d192e82)" style="fill: none; stroke-dasharray: 2.96,1.28; stroke-dashoffset: 0; stroke: #dddddd; stroke-width: 0.8"/>
     </g>
     <g id="line2d_10">
      <g>
       <use xlink:href="#m6b57f09927" x="447.836648" y="411.214844" style="fill: #333333; stroke: #333333; stroke-width: 0.8"/>
      </g>
     </g>
     <g id="text_5">
      <!-- 25 -->
      <g style="fill: #333333" transform="translate(442.110398 425.053437) scale(0.09 -0.09)">
       <use xlink:href="#DejaVuSerif-32"/>
       <use xlink:href="#DejaVuSerif-35" transform="translate(63.623047 0)"/>
      </g>
     </g>
    </g>
    <g id="xtick_6">
     <g id="line2d_11">
      <path d="M 532.382102 411.214844 
L 532.382102 23.134844 
" clip-path="url(#p412d192e82)" style="fill: none; stroke-dasharray: 2.96,1.28; stroke-dashoffset: 0; stroke: #dddddd; stroke-width: 0.8"/>
     </g>
     <g id="line2d_12">
      <g>
       <use xlink:href="#m6b57f09927" x="532.382102" y="411.214844" style="fill: #333333; stroke: #333333; stroke-width: 0.8"/>
      </g>
     </g>
     <g id="text_6">
      <!-- 30 -->
      <g style="fill: #333333" transform="translate(526.655852 425.053437) scale(0.09 -0.09)">
       <defs>
        <path id="DejaVuSerif-33" d="M 622 4469 
Q 988 4606 1323 4678 
Q 1659 4750 1953 4750 
Q 2638 4750 3022 4454 
Q 3406 4159 3406 3634 
Q 3406 3213 3140 2930 
Q 2875 2647 2388 2547 
Q 2963 2466 3280 2130 
Q 3597 1794 3597 1259 
Q 3597 606 3158 257 
Q 2719 -91 1894 -91 
Q 1528 -91 1179 -12 
Q 831 66 488 225 
L 488 1131 
L 838 1131 
Q 869 681 1141 450 
Q 1413 219 1906 219 
Q 2384 219 2661 495 
Q 2938 772 2938 1253 
Q 2938 1803 2653 2086 
Q 2369 2369 1819 2369 
L 1522 2369 
L 1522 2688 
L 1678 2688 
Q 2225 2688 2498 2914 
Q 2772 3141 2772 3597 
Q 2772 4006 2547 4223 
Q 2322 4441 1900 4441 
Q 1478 4441 1245 4241 
Q 1013 4041 972 3647 
L 622 3647 
L 622 4469 
z
" transform="scale(0.015625)"/>
       </defs>
       <use xlink:href="#DejaVuSerif-33"/>
       <use xlink:href="#DejaVuSerif-30" transform="translate(63.623047 0)"/>
      </g>
     </g>
    </g>
    <g id="xtick_7">
     <g id="line2d_13">
      <path d="M 616.927557 411.214844 
L 616.927557 23.134844 
" clip-path="url(#p412d192e82)" style="fill: none; stroke-dasharray: 2.96,1.28; stroke-dashoffset: 0; stroke: #dddddd; stroke-width: 0.8"/>
     </g>
     <g id="line2d_14">
      <g>
       <use xlink:href="#m6b57f09927" x="616.927557" y="411.214844" style="fill: #333333; stroke: #333333; stroke-width: 0.8"/>
      </g>
     </g>
     <g id="text_7">
      <!-- 35 -->
      <g style="fill: #333333" transform="translate(611.201307 425.053437) scale(0.09 -0.09)">
       <use xlink:href="#DejaVuSerif-33"/>
       <use xlink:href="#DejaVuSerif-35" transform="translate(63.623047 0)"/>
      </g>
     </g>
    </g>
    <g id="xtick_8">
     <g id="line2d_15">
      <path d="M 701.473011 411.214844 
L 701.473011 23.134844 
" clip-path="url(#p412d192e82)" style="fill: none; stroke-dasharray: 2.96,1.28; stroke-dashoffset: 0; stroke: #dddddd; stroke-width: 0.8"/>
     </g>
     <g id="line2d_16">
      <g>
       <use xlink:href="#m6b57f09927" x="701.473011" y="411.214844" style="fill: #333333; stroke: #333333; stroke-width: 0.8"/>
      </g>
     </g>
     <g id="text_8">
      <!-- 40 -->
      <g style="fill: #333333" transform="translate(695.746761 425.053437) scale(0.09 -0.09)">
       <defs>
        <path id="DejaVuSerif-34" d="M 2234 1581 
L 2234 4063 
L 641 1581 
L 2234 1581 
z
M 3609 0 
L 1484 0 
L 1484 331 
L 2234 331 
L 2234 1247 
L 197 1247 
L 197 1588 
L 2241 4750 
L 2859 4750 
L 2859 1581 
L 3750 1581 
L 3750 1247 
L 2859 1247 
L 2859 331 
L 3609 331 
L 3609 0 
z
" transform="scale(0.015625)"/>
       </defs>
       <use xlink:href="#DejaVuSerif-34"/>
       <use xlink:href="#DejaVuSerif-30" transform="translate(63.623047 0)"/>
      </g>
     </g>
    </g>
    <g id="text_9">
     <!-- Frequency (Hz) -->
     <g transform="translate(353.626719 439.283437) scale(0.11 -0.11)">
      <defs>
       <path id="DejaVuSerif-46" d="M 353 0 
L 353 331 
L 947 331 
L 947 4331 
L 353 4331 
L 353 4666 
L 4172 4666 
L 4172 3628 
L 3788 3628 
L 3788 4281 
L 1581 4281 
L 1581 2719 
L 3175 2719 
L 3175 3303 
L 3559 3303 
L 3559 1753 
L 3175 1753 
L 3175 2338 
L 1581 2338 
L 1581 331 
L 2328 331 
L 2328 0 
L 353 0 
z
" transform="scale(0.015625)"/>
       <path id="DejaVuSerif-72" d="M 3059 3328 
L 3059 2497 
L 2728 2497 
Q 2713 2744 2591 2866 
Q 2469 2988 2234 2988 
Q 1809 2988 1582 2694 
Q 1356 2400 1356 1850 
L 1356 331 
L 2022 331 
L 2022 0 
L 263 0 
L 263 331 
L 781 331 
L 781 2994 
L 231 2994 
L 231 3322 
L 1356 3322 
L 1356 2731 
Q 1525 3078 1790 3245 
Q 2056 3413 2438 3413 
Q 2578 3413 2733 3391 
Q 2888 3369 3059 3328 
z
" transform="scale(0.015625)"/>
       <path id="DejaVuSerif-65" d="M 3469 1600 
L 991 1600 
L 991 1575 
Q 991 903 1244 561 
Q 1497 219 1991 219 
Q 2369 219 2611 417 
Q 2853 616 2950 1006 
L 3413 1006 
Q 3275 459 2904 184 
Q 2534 -91 1931 -91 
Q 1203 -91 761 389 
Q 319 869 319 1663 
Q 319 2450 753 2931 
Q 1188 3413 1894 3413 
Q 2647 3413 3050 2948 
Q 3453 2484 3469 1600 
z
M 2791 1931 
Q 2772 2513 2545 2808 
Q 2319 3103 1894 3103 
Q 1497 3103 1269 2806 
Q 1041 2509 991 1931 
L 2791 1931 
z
" transform="scale(0.015625)"/>
       <path id="DejaVuSerif-71" d="M 3359 2988 
L 3359 -997 
L 3909 -997 
L 3909 -1331 
L 2241 -1331 
L 2241 -997 
L 2784 -997 
L 2784 519 
Q 2616 206 2355 57 
Q 2094 -91 1709 -91 
Q 1097 -91 708 395 
Q 319 881 319 1663 
Q 319 2444 706 2928 
Q 1094 3413 1709 3413 
Q 2094 3413 2355 3264 
Q 2616 3116 2784 2803 
L 2784 3322 
L 3909 3322 
L 3909 2988 
L 3359 2988 
z
M 2784 1825 
Q 2784 2422 2554 2737 
Q 2325 3053 1888 3053 
Q 1444 3053 1217 2703 
Q 991 2353 991 1663 
Q 991 975 1217 622 
Q 1444 269 1888 269 
Q 2325 269 2554 583 
Q 2784 897 2784 1497 
L 2784 1825 
z
" transform="scale(0.015625)"/>
       <path id="DejaVuSerif-75" d="M 2266 3322 
L 3341 3322 
L 3341 331 
L 3884 331 
L 3884 0 
L 2766 0 
L 2766 588 
Q 2606 256 2353 82 
Q 2100 -91 1766 -91 
Q 1213 -91 952 223 
Q 691 538 691 1209 
L 691 2988 
L 172 2988 
L 172 3322 
L 1269 3322 
L 1269 1388 
Q 1269 781 1417 556 
Q 1566 331 1947 331 
Q 2347 331 2556 625 
Q 2766 919 2766 1478 
L 2766 2988 
L 2266 2988 
L 2266 3322 
z
" transform="scale(0.015625)"/>
       <path id="DejaVuSerif-6e" d="M 263 0 
L 263 331 
L 781 331 
L 781 2988 
L 231 2988 
L 231 3322 
L 1356 3322 
L 1356 2731 
Q 1516 3069 1770 3241 
Q 2025 3413 2363 3413 
Q 2913 3413 3172 3097 
Q 3431 2781 3431 2113 
L 3431 331 
L 3944 331 
L 3944 0 
L 2356 0 
L 2356 331 
L 2853 331 
L 2853 1931 
Q 2853 2541 2703 2767 
Q 2553 2994 2175 2994 
Q 1775 2994 1565 2701 
Q 1356 2409 1356 1850 
L 1356 331 
L 1856 331 
L 1856 0 
L 263 0 
z
" transform="scale(0.015625)"/>
       <path id="DejaVuSerif-63" d="M 3291 997 
Q 3169 466 2822 187 
Q 2475 -91 1925 -91 
Q 1200 -91 759 389 
Q 319 869 319 1663 
Q 319 2459 759 2936 
Q 1200 3413 1925 3413 
Q 2241 3413 2553 3339 
Q 2866 3266 3181 3116 
L 3181 2266 
L 2847 2266 
Q 2781 2703 2561 2903 
Q 2341 3103 1931 3103 
Q 1466 3103 1228 2742 
Q 991 2381 991 1663 
Q 991 944 1227 581 
Q 1463 219 1931 219 
Q 2303 219 2525 412 
Q 2747 606 2828 997 
L 3291 997 
z
" transform="scale(0.015625)"/>
       <path id="DejaVuSerif-79" d="M 1381 -609 
L 1600 -56 
L 359 2988 
L -19 2988 
L -19 3322 
L 1509 3322 
L 1509 2988 
L 978 2988 
L 1913 703 
L 2847 2988 
L 2350 2988 
L 2350 3322 
L 3597 3322 
L 3597 2988 
L 3225 2988 
L 1703 -750 
Q 1547 -1138 1356 -1280 
Q 1166 -1422 819 -1422 
Q 672 -1422 517 -1397 
Q 363 -1372 206 -1325 
L 206 -691 
L 500 -691 
Q 519 -903 608 -995 
Q 697 -1088 884 -1088 
Q 1056 -1088 1161 -992 
Q 1266 -897 1381 -609 
z
" transform="scale(0.015625)"/>
       <path id="DejaVuSerif-20" transform="scale(0.015625)"/>
       <path id="DejaVuSerif-28" d="M 2041 -997 
Q 1281 -656 893 83 
Q 506 822 506 1931 
Q 506 3044 893 3783 
Q 1281 4522 2041 4863 
L 2041 4556 
Q 1559 4225 1350 3623 
Q 1141 3022 1141 1931 
Q 1141 844 1350 242 
Q 1559 -359 2041 -691 
L 2041 -997 
z
" transform="scale(0.015625)"/>
       <path id="DejaVuSerif-48" d="M 353 0 
L 353 331 
L 947 331 
L 947 4331 
L 353 4331 
L 353 4666 
L 2175 4666 
L 2175 4331 
L 1581 4331 
L 1581 2719 
L 4000 2719 
L 4000 4331 
L 3406 4331 
L 3406 4666 
L 5228 4666 
L 5228 4331 
L 4634 4331 
L 4634 331 
L 5228 331 
L 5228 0 
L 3406 0 
L 3406 331 
L 4000 331 
L 4000 2338 
L 1581 2338 
L 1581 331 
L 2175 331 
L 2175 0 
L 353 0 
z
" transform="scale(0.015625)"/>
       <path id="DejaVuSerif-7a" d="M 256 0 
L 256 269 
L 2338 2988 
L 691 2988 
L 691 2413 
L 359 2413 
L 359 3322 
L 3078 3322 
L 3078 3053 
L 997 331 
L 2803 331 
L 2803 934 
L 3138 934 
L 3138 0 
L 256 0 
z
" transform="scale(0.015625)"/>
       <path id="DejaVuSerif-29" d="M 453 -997 
L 453 -691 
Q 934 -359 1145 242 
Q 1356 844 1356 1931 
Q 1356 3022 1145 3623 
Q 934 4225 453 4556 
L 453 4863 
Q 1216 4522 1603 3783 
Q 1991 3044 1991 1931 
Q 1991 822 1603 83 
Q 1216 -656 453 -997 
z
" transform="scale(0.015625)"/>
      </defs>
      <use xlink:href="#DejaVuSerif-46"/>
      <use xlink:href="#DejaVuSerif-72" transform="translate(69.384766 0)"/>
      <use xlink:href="#DejaVuSerif-65" transform="translate(117.1875 0)"/>
      <use xlink:href="#DejaVuSerif-71" transform="translate(176.367188 0)"/>
      <use xlink:href="#DejaVuSerif-75" transform="translate(240.380859 0)"/>
      <use xlink:href="#DejaVuSerif-65" transform="translate(304.785156 0)"/>
      <use xlink:href="#DejaVuSerif-6e" transform="translate(363.964844 0)"/>
      <use xlink:href="#DejaVuSerif-63" transform="translate(428.369141 0)"/>
      <use xlink:href="#DejaVuSerif-79" transform="translate(484.375 0)"/>
      <use xlink:href="#DejaVuSerif-20" transform="translate(540.869141 0)"/>
      <use xlink:href="#DejaVuSerif-28" transform="translate(572.65625 0)"/>
      <use xlink:href="#DejaVuSerif-48" transform="translate(611.669922 0)"/>
      <use xlink:href="#DejaVuSerif-7a" transform="translate(698.876953 0)"/>
      <use xlink:href="#DejaVuSerif-29" transform="translate(751.5625 0)"/>
     </g>
    </g>
   </g>
   <g id="matplotlib.axis_2">
    <g id="ytick_1">
     <g id="line2d_17">
      <path d="M 62.309375 401.684418 
L 731.909375 401.684418 
" clip-path="url(#p412d192e82)" style="fill: none; stroke-dasharray: 2.96,1.28; stroke-dashoffset: 0; stroke: #dddddd; stroke-width: 0.8"/>
     </g>
     <g id="line2d_18">
      <defs>
       <path id="ma0d03acc5c" d="M 0 0 
L -3.5 0 
" style="stroke: #333333; stroke-width: 0.8"/>
      </defs>
      <g>
       <use xlink:href="#ma0d03acc5c" x="62.309375" y="401.684418" style="fill: #333333; stroke: #333333; stroke-width: 0.8"/>
      </g>
     </g>
     <g id="text_10">
      <!-- −135.0 -->
      <g style="fill: #333333" transform="translate(22.002344 405.103715) scale(0.09 -0.09)">
       <defs>
        <path id="DejaVuSerif-2212" d="M 678 2259 
L 4684 2259 
L 4684 1753 
L 678 1753 
L 678 2259 
z
" transform="scale(0.015625)"/>
        <path id="DejaVuSerif-2e" d="M 603 325 
Q 603 500 722 622 
Q 841 744 1019 744 
Q 1191 744 1312 622 
Q 1434 500 1434 325 
Q 1434 153 1312 31 
Q 1191 -91 1019 -91 
Q 841 -91 722 29 
Q 603 150 603 325 
z
" transform="scale(0.015625)"/>
       </defs>
       <use xlink:href="#DejaVuSerif-2212"/>
       <use xlink:href="#DejaVuSerif-31" transform="translate(83.789062 0)"/>
       <use xlink:href="#DejaVuSerif-33" transform="translate(147.412109 0)"/>
       <use xlink:href="#DejaVuSerif-35" transform="translate(211.035156 0)"/>
       <use xlink:href="#DejaVuSerif-2e" transform="translate(274.658203 0)"/>
       <use xlink:href="#DejaVuSerif-30" transform="translate(306.445312 0)"/>
      </g>
     </g>
    </g>
    <g id="ytick_2">
     <g id="line2d_19">
      <path d="M 62.309375 348.993295 
L 731.909375 348.993295 
" clip-path="url(#p412d192e82)" style="fill: none; stroke-dasharray: 2.96,1.28; stroke-dashoffset: 0; stroke: #dddddd; stroke-width: 0.8"/>
     </g>
     <g id="line2d_20">
      <g>
       <use xlink:href="#ma0d03acc5c" x="62.309375" y="348.993295" style="fill: #333333; stroke: #333333; stroke-width: 0.8"/>
      </g>
     </g>
     <g id="text_11">
      <!-- −132.5 -->
      <g style="fill: #333333" transform="translate(22.002344 352.412592) scale(0.09 -0.09)">
       <use xlink:href="#DejaVuSerif-2212"/>
       <use xlink:href="#DejaVuSerif-31" transform="translate(83.789062 0)"/>
       <use xlink:href="#DejaVuSerif-33" transform="translate(147.412109 0)"/>
       <use xlink:href="#DejaVuSerif-32" transform="translate(211.035156 0)"/>
       <use xlink:href="#DejaVuSerif-2e" transform="translate(274.658203 0)"/>
       <use xlink:href="#DejaVuSerif-35" transform="translate(306.445312 0)"/>
      </g>
     </g>
    </g>
    <g id="ytick_3">
     <g id="line2d_21">
      <path d="M 62.309375 296.302173 
L 731.909375 296.302173 
" clip-path="url(#p412d192e82)" style="fill: none; stroke-dasharray: 2.96,1.28; stroke-dashoffset: 0; stroke: #dddddd; stroke-width: 0.8"/>
     </g>
     <g id="line2d_22">
      <g>
       <use xlink:href="#ma0d03acc5c" x="62.309375" y="296.302173" style="fill: #333333; stroke: #333333; stroke-width: 0.8"/>
      </g>
     </g>
     <g id="text_12">
      <!-- −130.0 -->
      <g style="fill: #333333" transform="translate(22.002344 299.721469) scale(0.09 -0.09)">
       <use xlink:href="#DejaVuSerif-2212"/>
       <use xlink:href="#DejaVuSerif-31" transform="translate(83.789062 0)"/>
       <use xlink:href="#DejaVuSerif-33" transform="translate(147.412109 0)"/>
       <use xlink:href="#DejaVuSerif-30" transform="translate(211.035156 0)"/>
       <use xlink:href="#DejaVuSerif-2e" transform="translate(274.658203 0)"/>
       <use xlink:href="#DejaVuSerif-30" transform="translate(306.445312 0)"/>
      </g>
     </g>
    </g>
    <g id="ytick_4">
     <g id="line2d_23">
      <path d="M 62.309375 243.61105 
L 731.909375 243.61105 
" clip-path="url(#p412d192e82)" style="fill: none; stroke-dasharray: 2.96,1.28; stroke-dashoffset: 0; stroke: #dddddd; stroke-width: 0.8"/>
     </g>
     <g id="line2d_24">
      <g>
       <use xlink:href="#ma0d03acc5c" x="62.309375" y="243.61105" style="fill: #333333; stroke: #333333; stroke-width: 0.8"/>
      </g>
     </g>
     <g id="text_13">
      <!-- −127.5 -->
      <g style="fill: #333333" transform="translate(22.002344 247.030347) scale(0.09 -0.09)">
       <defs>
        <path id="DejaVuSerif-37" d="M 3609 4347 
L 1784 0 
L 1319 0 
L 3059 4153 
L 903 4153 
L 903 3578 
L 538 3578 
L 538 4666 
L 3609 4666 
L 3609 4347 
z
" transform="scale(0.015625)"/>
       </defs>
       <use xlink:href="#DejaVuSerif-2212"/>
       <use xlink:href="#DejaVuSerif-31" transform="translate(83.789062 0)"/>
       <use xlink:href="#DejaVuSerif-32" transform="translate(147.412109 0)"/>
       <use xlink:href="#DejaVuSerif-37" transform="translate(211.035156 0)"/>
       <use xlink:href="#DejaVuSerif-2e" transform="translate(274.658203 0)"/>
       <use xlink:href="#DejaVuSerif-35" transform="translate(306.445312 0)"/>
      </g>
     </g>
    </g>
    <g id="ytick_5">
     <g id="line2d_25">
      <path d="M 62.309375 190.919927 
L 731.909375 190.919927 
" clip-path="url(#p412d192e82)" style="fill: none; stroke-dasharray: 2.96,1.28; stroke-dashoffset: 0; stroke: #dddddd; stroke-width: 0.8"/>
     </g>
     <g id="line2d_26">
      <g>
       <use xlink:href="#ma0d03acc5c" x="62.309375" y="190.919927" style="fill: #333333; stroke: #333333; stroke-width: 0.8"/>
      </g>
     </g>
     <g id="text_14">
      <!-- −125.0 -->
      <g style="fill: #333333" transform="translate(22.002344 194.339224) scale(0.09 -0.09)">
       <use xlink:href="#DejaVuSerif-2212"/>
       <use xlink:href="#DejaVuSerif-31" transform="translate(83.789062 0)"/>
       <use xlink:href="#DejaVuSerif-32" transform="translate(147.412109 0)"/>
       <use xlink:href="#DejaVuSerif-35" transform="translate(211.035156 0)"/>
       <use xlink:href="#DejaVuSerif-2e" transform="translate(274.658203 0)"/>
       <use xlink:href="#DejaVuSerif-30" transform="translate(306.445312 0)"/>
      </g>
     </g>
    </g>
    <g id="ytick_6">
     <g id="line2d_27">
      <path d="M 62.309375 138.228805 
L 731.909375 138.228805 
" clip-path="url(#p412d192e82)" style="fill: none; stroke-dasharray: 2.96,1.28; stroke-dashoffset: 0; stroke: #dddddd; stroke-width: 0.8"/>
     </g>
     <g id="line2d_28">
      <g>
       <use xlink:href="#ma0d03acc5c" x="62.309375" y="138.228805" style="fill: #333333; stroke: #333333; stroke-width: 0.8"/>
      </g>
     </g>
     <g id="text_15">
      <!-- −122.5 -->
      <g style="fill: #333333" transform="translate(22.002344 141.648101) scale(0.09 -0.09)">
       <use xlink:href="#DejaVuSerif-2212"/>
       <use xlink:href="#DejaVuSerif-31" transform="translate(83.789062 0)"/>
       <use xlink:href="#DejaVuSerif-32" transform="translate(147.412109 0)"/>
       <use xlink:href="#DejaVuSerif-32" transform="translate(211.035156 0)"/>
       <use xlink:href="#DejaVuSerif-2e" transform="translate(274.658203 0)"/>
       <use xlink:href="#DejaVuSerif-35" transform="translate(306.445312 0)"/>
      </g>
     </g>
    </g>
    <g id="ytick_7">
     <g id="line2d_29">
      <path d="M 62.309375 85.537682 
L 731.909375 85.537682 
" clip-path="url(#p412d192e82)" style="fill: none; stroke-dasharray: 2.96,1.28; stroke-dashoffset: 0; stroke: #dddddd; stroke-width: 0.8"/>
     </g>
     <g id="line2d_30">
      <g>
       <use xlink:href="#ma0d03acc5c" x="62.309375" y="85.537682" style="fill: #333333; stroke: #333333; stroke-width: 0.8"/>
      </g>
     </g>
     <g id="text_16">
      <!-- −120.0 -->
      <g style="fill: #333333" transform="translate(22.002344 88.956979) scale(0.09 -0.09)">
       <use xlink:href="#DejaVuSerif-2212"/>
       <use xlink:href="#DejaVuSerif-31" transform="translate(83.789062 0)"/>
       <use xlink:href="#DejaVuSerif-32" transform="translate(147.412109 0)"/>
       <use xlink:href="#DejaVuSerif-30" transform="translate(211.035156 0)"/>
       <use xlink:href="#DejaVuSerif-2e" transform="translate(274.658203 0)"/>
       <use xlink:href="#DejaVuSerif-30" transform="translate(306.445312 0)"/>
      </g>
     </g>
    </g>
    <g id="ytick_8">
     <g id="line2d_31">
      <path d="M 62.309375 32.846559 
L 731.909375 32.846559 
" clip-path="url(#p412d192e82)" style="fill: none; stroke-dasharray: 2.96,1.28; stroke-dashoffset: 0; stroke: #dddddd; stroke-width: 0.8"/>
     </g>
     <g id="line2d_32">
      <g>
       <use xlink:href="#ma0d03acc5c" x="62.309375" y="32.846559" style="fill: #333333; stroke: #333333; stroke-width: 0.8"/>
      </g>
     </g>
     <g id="text_17">
      <!-- −117.5 -->
      <g style="fill: #333333" transform="translate(22.002344 36.265856) scale(0.09 -0.09)">
       <use xlink:href="#DejaVuSerif-2212"/>
       <use xlink:href="#DejaVuSerif-31" transform="translate(83.789062 0)"/>
       <use xlink:href="#DejaVuSerif-31" transform="translate(147.412109 0)"/>
       <use xlink:href="#DejaVuSerif-37" transform="translate(211.035156 0)"/>
       <use xlink:href="#DejaVuSerif-2e" transform="translate(274.658203 0)"/>
       <use xlink:href="#DejaVuSerif-35" transform="translate(306.445312 0)"/>
      </g>
     </g>
    </g>
    <g id="text_18">
     <!-- Power Spectral Density (dB) -->
     <g transform="translate(15.558281 296.263984) rotate(-90) scale(0.11 -0.11)">
      <defs>
       <path id="DejaVuSerif-50" d="M 1581 2375 
L 2406 2375 
Q 2872 2375 3115 2626 
Q 3359 2878 3359 3353 
Q 3359 3831 3115 4081 
Q 2872 4331 2406 4331 
L 1581 4331 
L 1581 2375 
z
M 353 0 
L 353 331 
L 947 331 
L 947 4331 
L 353 4331 
L 353 4666 
L 2559 4666 
Q 3259 4666 3668 4311 
Q 4078 3956 4078 3353 
Q 4078 2753 3668 2397 
Q 3259 2041 2559 2041 
L 1581 2041 
L 1581 331 
L 2303 331 
L 2303 0 
L 353 0 
z
" transform="scale(0.015625)"/>
       <path id="DejaVuSerif-6f" d="M 1925 219 
Q 2388 219 2623 584 
Q 2859 950 2859 1663 
Q 2859 2375 2623 2739 
Q 2388 3103 1925 3103 
Q 1463 3103 1227 2739 
Q 991 2375 991 1663 
Q 991 950 1228 584 
Q 1466 219 1925 219 
z
M 1925 -91 
Q 1200 -91 759 389 
Q 319 869 319 1663 
Q 319 2456 758 2934 
Q 1197 3413 1925 3413 
Q 2653 3413 3092 2934 
Q 3531 2456 3531 1663 
Q 3531 869 3092 389 
Q 2653 -91 1925 -91 
z
" transform="scale(0.015625)"/>
       <path id="DejaVuSerif-77" d="M 3072 3322 
L 3922 728 
L 4672 2988 
L 4191 2988 
L 4191 3322 
L 5394 3322 
L 5394 2988 
L 5025 2988 
L 4038 0 
L 3559 0 
L 2741 2484 
L 1919 0 
L 1459 0 
L 475 2988 
L 103 2988 
L 103 3322 
L 1606 3322 
L 1606 2988 
L 1069 2988 
L 1813 728 
L 2669 3322 
L 3072 3322 
z
" transform="scale(0.015625)"/>
       <path id="DejaVuSerif-53" d="M 594 225 
L 594 1288 
L 953 1284 
Q 969 753 1261 498 
Q 1553 244 2150 244 
Q 2706 244 2998 464 
Q 3291 684 3291 1106 
Q 3291 1444 3114 1625 
Q 2938 1806 2369 1978 
L 1753 2163 
Q 1084 2366 811 2669 
Q 538 2972 538 3500 
Q 538 4094 959 4422 
Q 1381 4750 2144 4750 
Q 2469 4750 2856 4679 
Q 3244 4609 3681 4475 
L 3681 3481 
L 3328 3481 
Q 3275 3975 2998 4195 
Q 2722 4416 2156 4416 
Q 1663 4416 1405 4214 
Q 1147 4013 1147 3628 
Q 1147 3294 1340 3103 
Q 1534 2913 2163 2725 
L 2741 2553 
Q 3375 2363 3645 2067 
Q 3916 1772 3916 1275 
Q 3916 597 3481 253 
Q 3047 -91 2188 -91 
Q 1803 -91 1404 -12 
Q 1006 66 594 225 
z
" transform="scale(0.015625)"/>
       <path id="DejaVuSerif-70" d="M 1313 1825 
L 1313 1497 
Q 1313 897 1542 583 
Q 1772 269 2209 269 
Q 2650 269 2876 622 
Q 3103 975 3103 1663 
Q 3103 2353 2876 2703 
Q 2650 3053 2209 3053 
Q 1772 3053 1542 2737 
Q 1313 2422 1313 1825 
z
M 738 2988 
L 184 2988 
L 184 3322 
L 1313 3322 
L 1313 2803 
Q 1481 3116 1742 3264 
Q 2003 3413 2388 3413 
Q 3000 3413 3387 2928 
Q 3775 2444 3775 1663 
Q 3775 881 3387 395 
Q 3000 -91 2388 -91 
Q 2003 -91 1742 57 
Q 1481 206 1313 519 
L 1313 -997 
L 1856 -997 
L 1856 -1331 
L 184 -1331 
L 184 -997 
L 738 -997 
L 738 2988 
z
" transform="scale(0.015625)"/>
       <path id="DejaVuSerif-74" d="M 691 2988 
L 184 2988 
L 184 3322 
L 691 3322 
L 691 4353 
L 1269 4353 
L 1269 3322 
L 2350 3322 
L 2350 2988 
L 1269 2988 
L 1269 878 
Q 1269 456 1350 337 
Q 1431 219 1650 219 
Q 1875 219 1978 351 
Q 2081 484 2088 781 
L 2522 781 
Q 2497 328 2275 118 
Q 2053 -91 1600 -91 
Q 1103 -91 897 129 
Q 691 350 691 878 
L 691 2988 
z
" transform="scale(0.015625)"/>
       <path id="DejaVuSerif-61" d="M 2547 1044 
L 2547 1747 
L 1806 1747 
Q 1378 1747 1168 1562 
Q 959 1378 959 997 
Q 959 650 1171 447 
Q 1384 244 1747 244 
Q 2106 244 2326 466 
Q 2547 688 2547 1044 
z
M 3122 2075 
L 3122 331 
L 3634 331 
L 3634 0 
L 2547 0 
L 2547 359 
Q 2356 128 2106 18 
Q 1856 -91 1522 -91 
Q 969 -91 644 203 
Q 319 497 319 997 
Q 319 1513 691 1797 
Q 1063 2081 1741 2081 
L 2547 2081 
L 2547 2309 
Q 2547 2688 2317 2895 
Q 2088 3103 1672 3103 
Q 1328 3103 1125 2947 
Q 922 2791 872 2484 
L 575 2484 
L 575 3156 
Q 875 3284 1158 3348 
Q 1441 3413 1709 3413 
Q 2400 3413 2761 3070 
Q 3122 2728 3122 2075 
z
" transform="scale(0.015625)"/>
       <path id="DejaVuSerif-6c" d="M 1313 331 
L 1856 331 
L 1856 0 
L 184 0 
L 184 331 
L 738 331 
L 738 4531 
L 184 4531 
L 184 4863 
L 1313 4863 
L 1313 331 
z
" transform="scale(0.015625)"/>
       <path id="DejaVuSerif-44" d="M 1581 331 
L 2163 331 
Q 3072 331 3558 850 
Q 4044 1369 4044 2338 
Q 4044 3306 3559 3818 
Q 3075 4331 2163 4331 
L 1581 4331 
L 1581 331 
z
M 353 0 
L 353 331 
L 947 331 
L 947 4331 
L 353 4331 
L 353 4666 
L 2209 4666 
Q 3416 4666 4089 4050 
Q 4763 3434 4763 2338 
Q 4763 1238 4088 619 
Q 3413 0 2209 0 
L 353 0 
z
" transform="scale(0.015625)"/>
       <path id="DejaVuSerif-73" d="M 359 184 
L 359 959 
L 691 959 
Q 703 588 923 403 
Q 1144 219 1575 219 
Q 1963 219 2166 364 
Q 2369 509 2369 788 
Q 2369 1006 2220 1140 
Q 2072 1275 1594 1428 
L 1178 1569 
Q 750 1706 558 1912 
Q 366 2119 366 2438 
Q 366 2894 700 3153 
Q 1034 3413 1625 3413 
Q 1888 3413 2178 3344 
Q 2469 3275 2778 3144 
L 2778 2419 
L 2447 2419 
Q 2434 2741 2221 2922 
Q 2009 3103 1644 3103 
Q 1281 3103 1095 2975 
Q 909 2847 909 2591 
Q 909 2381 1050 2254 
Q 1191 2128 1613 1997 
L 2069 1856 
Q 2541 1709 2748 1489 
Q 2956 1269 2956 922 
Q 2956 450 2595 179 
Q 2234 -91 1600 -91 
Q 1278 -91 972 -22 
Q 666 47 359 184 
z
" transform="scale(0.015625)"/>
       <path id="DejaVuSerif-69" d="M 622 4353 
Q 622 4497 726 4603 
Q 831 4709 978 4709 
Q 1122 4709 1226 4603 
Q 1331 4497 1331 4353 
Q 1331 4206 1228 4103 
Q 1125 4000 978 4000 
Q 831 4000 726 4103 
Q 622 4206 622 4353 
z
M 1356 331 
L 1900 331 
L 1900 0 
L 231 0 
L 231 331 
L 781 331 
L 781 2988 
L 231 2988 
L 231 3322 
L 1356 3322 
L 1356 331 
z
" transform="scale(0.015625)"/>
       <path id="DejaVuSerif-64" d="M 3359 331 
L 3909 331 
L 3909 0 
L 2784 0 
L 2784 519 
Q 2616 206 2355 57 
Q 2094 -91 1709 -91 
Q 1097 -91 708 395 
Q 319 881 319 1663 
Q 319 2444 706 2928 
Q 1094 3413 1709 3413 
Q 2094 3413 2355 3264 
Q 2616 3116 2784 2803 
L 2784 4531 
L 2241 4531 
L 2241 4863 
L 3359 4863 
L 3359 331 
z
M 2784 1497 
L 2784 1825 
Q 2784 2422 2554 2737 
Q 2325 3053 1888 3053 
Q 1444 3053 1217 2703 
Q 991 2353 991 1663 
Q 991 975 1217 622 
Q 1444 269 1888 269 
Q 2325 269 2554 583 
Q 2784 897 2784 1497 
z
" transform="scale(0.015625)"/>
       <path id="DejaVuSerif-42" d="M 1581 331 
L 2516 331 
Q 3078 331 3337 575 
Q 3597 819 3597 1350 
Q 3597 1878 3339 2120 
Q 3081 2363 2516 2363 
L 1581 2363 
L 1581 331 
z
M 1581 2694 
L 2375 2694 
Q 2888 2694 3123 2891 
Q 3359 3088 3359 3513 
Q 3359 3941 3123 4136 
Q 2888 4331 2375 4331 
L 1581 4331 
L 1581 2694 
z
M 353 0 
L 353 331 
L 947 331 
L 947 4331 
L 353 4331 
L 353 4666 
L 2656 4666 
Q 3363 4666 3720 4377 
Q 4078 4088 4078 3513 
Q 4078 3097 3829 2850 
Q 3581 2603 3103 2547 
Q 3697 2472 4005 2167 
Q 4313 1863 4313 1350 
Q 4313 656 3875 328 
Q 3438 0 2509 0 
L 353 0 
z
" transform="scale(0.015625)"/>
      </defs>
      <use xlink:href="#DejaVuSerif-50"/>
      <use xlink:href="#DejaVuSerif-6f" transform="translate(63.285156 0)"/>
      <use xlink:href="#DejaVuSerif-77" transform="translate(123.490234 0)"/>
      <use xlink:href="#DejaVuSerif-65" transform="translate(209.085938 0)"/>
      <use xlink:href="#DejaVuSerif-72" transform="translate(268.265625 0)"/>
      <use xlink:href="#DejaVuSerif-20" transform="translate(316.068359 0)"/>
      <use xlink:href="#DejaVuSerif-53" transform="translate(347.855469 0)"/>
      <use xlink:href="#DejaVuSerif-70" transform="translate(416.361328 0)"/>
      <use xlink:href="#DejaVuSerif-65" transform="translate(480.375 0)"/>
      <use xlink:href="#DejaVuSerif-63" transform="translate(539.554688 0)"/>
      <use xlink:href="#DejaVuSerif-74" transform="translate(595.560547 0)"/>
      <use xlink:href="#DejaVuSerif-72" transform="translate(635.746094 0)"/>
      <use xlink:href="#DejaVuSerif-61" transform="translate(683.548828 0)"/>
      <use xlink:href="#DejaVuSerif-6c" transform="translate(743.167969 0)"/>
      <use xlink:href="#DejaVuSerif-20" transform="translate(775.150391 0)"/>
      <use xlink:href="#DejaVuSerif-44" transform="translate(806.9375 0)"/>
      <use xlink:href="#DejaVuSerif-65" transform="translate(887.113281 0)"/>
      <use xlink:href="#DejaVuSerif-6e" transform="translate(946.292969 0)"/>
      <use xlink:href="#DejaVuSerif-73" transform="translate(1010.697266 0)"/>
      <use xlink:href="#DejaVuSerif-69" transform="translate(1062.015625 0)"/>
      <use xlink:href="#DejaVuSerif-74" transform="translate(1093.998047 0)"/>
      <use xlink:href="#DejaVuSerif-79" transform="translate(1134.183594 0)"/>
      <use xlink:href="#DejaVuSerif-20" transform="translate(1190.677734 0)"/>
      <use xlink:href="#DejaVuSerif-28" transform="translate(1222.464844 0)"/>
      <use xlink:href="#DejaVuSerif-64" transform="translate(1261.478516 0)"/>
      <use xlink:href="#DejaVuSerif-42" transform="translate(1325.492188 0)"/>
      <use xlink:href="#DejaVuSerif-29" transform="translate(1398.978516 0)"/>
     </g>
    </g>
   </g>
   <g id="line2d_33">
    <path d="M 92.745739 40.774844 
L 101.200284 64.451706 
L 109.65483 86.244517 
L 118.109375 103.06425 
L 126.56392 112.165707 
L 135.018466 113.372177 
L 143.473011 104.763909 
L 151.927557 85.357943 
L 160.382102 64.294851 
L 168.836648 53.455777 
L 177.291193 58.53452 
L 185.745739 78.689948 
L 194.200284 107.128699 
L 202.65483 133.795035 
L 211.109375 154.753821 
L 219.56392 172.471895 
L 228.018466 186.869661 
L 236.473011 196.865829 
L 244.927557 204.204877 
L 253.382102 210.339579 
L 261.836648 215.623275 
L 270.291193 218.920409 
L 278.745739 220.083565 
L 287.200284 219.934327 
L 295.65483 220.068373 
L 304.109375 222.397924 
L 312.56392 226.42997 
L 321.018466 229.6692 
L 329.473011 231.939087 
L 337.927557 234.224763 
L 346.382102 236.025031 
L 354.836648 238.137521 
L 363.291193 240.986955 
L 371.745739 243.154053 
L 380.200284 244.832347 
L 388.65483 247.116212 
L 397.109375 250.602864 
L 405.56392 254.582947 
L 414.018466 258.45016 
L 422.473011 262.130218 
L 430.927557 266.177598 
L 439.382102 271.178373 
L 447.836648 276.033801 
L 456.291193 280.086374 
L 464.745739 283.841693 
L 473.200284 288.107093 
L 481.65483 291.923652 
L 490.109375 293.795731 
L 498.56392 295.314146 
L 507.018466 297.79959 
L 515.473011 299.557716 
L 523.927557 298.970483 
L 532.382102 296.652398 
L 540.836648 294.565962 
L 549.291193 293.167263 
L 557.745739 291.004663 
L 566.200284 289.341692 
L 574.65483 289.680265 
L 583.109375 292.461093 
L 591.56392 297.390319 
L 600.018466 303.574285 
L 608.473011 309.825305 
L 616.927557 315.938888 
L 625.382102 321.934869 
L 633.836648 327.930902 
L 642.291193 333.643804 
L 650.745739 338.457338 
L 659.200284 343.189498 
L 667.65483 348.558064 
L 676.109375 353.671902 
L 684.56392 358.049903 
L 693.018466 361.85712 
L 701.473011 365.483645 
" clip-path="url(#p412d192e82)" style="fill: none; stroke: #1f77b4; stroke-width: 1.5; stroke-linecap: square"/>
   </g>
   <g id="line2d_34">
    <path d="M 92.745739 49.919874 
L 101.200284 70.332046 
L 109.65483 88.235545 
L 118.109375 102.708897 
L 126.56392 111.399142 
L 135.018466 113.042049 
L 143.473011 103.751685 
L 151.927557 84.41328 
L 160.382102 65.016825 
L 168.836648 56.737174 
L 177.291193 64.53708 
L 185.745739 85.679581 
L 194.200284 111.813391 
L 202.65483 135.980506 
L 211.109375 156.556595 
L 219.56392 173.221484 
L 228.018466 185.785489 
L 236.473011 194.995208 
L 244.927557 201.999831 
L 253.382102 207.579173 
L 261.836648 212.241392 
L 270.291193 215.81133 
L 278.745739 217.232465 
L 287.200284 217.583776 
L 295.65483 218.994583 
L 304.109375 222.33333 
L 312.56392 225.030037 
L 321.018466 225.149938 
L 329.473011 225.490609 
L 337.927557 227.466158 
L 346.382102 229.957347 
L 354.836648 231.378627 
L 363.291193 231.946148 
L 371.745739 232.470468 
L 380.200284 234.049768 
L 388.65483 237.83879 
L 397.109375 242.197796 
L 405.56392 245.11931 
L 414.018466 247.812571 
L 422.473011 251.846588 
L 430.927557 256.286285 
L 439.382102 259.975992 
L 447.836648 262.154744 
L 456.291193 264.204696 
L 464.745739 267.609811 
L 473.200284 271.526593 
L 481.65483 274.391058 
L 490.109375 276.322276 
L 498.56392 278.145845 
L 507.018466 279.462817 
L 515.473011 280.119682 
L 523.927557 280.406702 
L 532.382102 279.996579 
L 540.836648 279.14727 
L 549.291193 278.927678 
L 557.745739 278.84751 
L 566.200284 278.596449 
L 574.65483 280.217187 
L 583.109375 283.833582 
L 591.56392 287.920116 
L 600.018466 292.453325 
L 608.473011 297.659008 
L 616.927557 304.046171 
L 625.382102 311.261482 
L 633.836648 317.824266 
L 642.291193 322.746141 
L 650.745739 326.629705 
L 659.200284 330.34056 
L 667.65483 334.158385 
L 676.109375 337.813999 
L 684.56392 340.824417 
L 693.018466 343.445331 
L 701.473011 346.495487 
" clip-path="url(#p412d192e82)" style="fill: none; stroke: #17becf; stroke-width: 1.5; stroke-linecap: square"/>
   </g>
   <g id="patch_3">
    <path d="M 62.309375 411.214844 
L 62.309375 23.134844 
" style="fill: none; stroke: #333333; stroke-linejoin: miter; stroke-linecap: square"/>
   </g>
   <g id="patch_4">
    <path d="M 62.309375 411.214844 
L 731.909375 411.214844 
" style="fill: none; stroke: #333333; stroke-linejoin: miter; stroke-linecap: square"/>
   </g>
   <g id="text_19">
    <!-- Dataset: Braboszcz et al. (2017) | Subject: 047 | Session: 1 | All Task-State PSDs -->
    <g transform="translate(132.634531 17.134844) scale(0.13 -0.13)">
     <defs>
      <path id="DejaVuSerif-3a" d="M 666 325 
Q 666 500 786 622 
Q 906 744 1081 744 
Q 1256 744 1376 622 
Q 1497 500 1497 325 
Q 1497 150 1378 29 
Q 1259 -91 1081 -91 
Q 903 -91 784 29 
Q 666 150 666 325 
z
M 666 2363 
Q 666 2538 786 2658 
Q 906 2778 1081 2778 
Q 1259 2778 1378 2659 
Q 1497 2541 1497 2363 
Q 1497 2184 1378 2065 
Q 1259 1947 1081 1947 
Q 906 1947 786 2067 
Q 666 2188 666 2363 
z
" transform="scale(0.015625)"/>
      <path id="DejaVuSerif-62" d="M 738 331 
L 738 4531 
L 184 4531 
L 184 4863 
L 1313 4863 
L 1313 2803 
Q 1481 3116 1742 3264 
Q 2003 3413 2388 3413 
Q 3000 3413 3387 2928 
Q 3775 2444 3775 1663 
Q 3775 881 3387 395 
Q 3000 -91 2388 -91 
Q 2003 -91 1742 57 
Q 1481 206 1313 519 
L 1313 0 
L 184 0 
L 184 331 
L 738 331 
z
M 1313 1497 
Q 1313 897 1542 583 
Q 1772 269 2209 269 
Q 2650 269 2876 622 
Q 3103 975 3103 1663 
Q 3103 2353 2876 2703 
Q 2650 3053 2209 3053 
Q 1772 3053 1542 2737 
Q 1313 2422 1313 1825 
L 1313 1497 
z
" transform="scale(0.015625)"/>
      <path id="DejaVuSerif-7c" d="M 1331 4891 
L 1331 -1509 
L 825 -1509 
L 825 4891 
L 1331 4891 
z
" transform="scale(0.015625)"/>
      <path id="DejaVuSerif-6a" d="M 641 4353 
Q 641 4497 745 4603 
Q 850 4709 997 4709 
Q 1141 4709 1245 4603 
Q 1350 4497 1350 4353 
Q 1350 4206 1248 4103 
Q 1147 4000 997 4000 
Q 850 4000 745 4103 
Q 641 4206 641 4353 
z
M 781 2988 
L 238 2988 
L 238 3322 
L 1356 3322 
L 1356 -325 
Q 1356 -838 1051 -1130 
Q 747 -1422 213 -1422 
Q -13 -1422 -217 -1370 
Q -422 -1319 -616 -1216 
L -616 -531 
L -319 -531 
Q -297 -831 -164 -972 
Q -31 -1113 225 -1113 
Q 509 -1113 645 -920 
Q 781 -728 781 -325 
L 781 2988 
z
" transform="scale(0.015625)"/>
      <path id="DejaVuSerif-41" d="M 1281 1691 
L 2994 1691 
L 2138 3909 
L 1281 1691 
z
M -38 0 
L -38 331 
L 372 331 
L 2034 4666 
L 2559 4666 
L 4225 331 
L 4684 331 
L 4684 0 
L 2988 0 
L 2988 331 
L 3506 331 
L 3116 1356 
L 1153 1356 
L 763 331 
L 1275 331 
L 1275 0 
L -38 0 
z
" transform="scale(0.015625)"/>
      <path id="DejaVuSerif-54" d="M 1222 0 
L 1222 331 
L 1819 331 
L 1819 4294 
L 447 4294 
L 447 3566 
L 63 3566 
L 63 4666 
L 4206 4666 
L 4206 3566 
L 3822 3566 
L 3822 4294 
L 2450 4294 
L 2450 331 
L 3047 331 
L 3047 0 
L 1222 0 
z
" transform="scale(0.015625)"/>
      <path id="DejaVuSerif-6b" d="M 1831 0 
L 219 0 
L 219 331 
L 738 331 
L 738 4531 
L 184 4531 
L 184 4863 
L 1313 4863 
L 1313 1697 
L 2713 2988 
L 2234 2988 
L 2234 3322 
L 3738 3322 
L 3738 2988 
L 3169 2988 
L 2181 2075 
L 3444 331 
L 3922 331 
L 3922 0 
L 2284 0 
L 2284 331 
L 2759 331 
L 1766 1697 
L 1313 1275 
L 1313 331 
L 1831 331 
L 1831 0 
z
" transform="scale(0.015625)"/>
      <path id="DejaVuSerif-2d" d="M 281 1959 
L 1881 1959 
L 1881 1472 
L 281 1472 
L 281 1959 
z
" transform="scale(0.015625)"/>
     </defs>
     <use xlink:href="#DejaVuSerif-44"/>
     <use xlink:href="#DejaVuSerif-61" transform="translate(80.175781 0)"/>
     <use xlink:href="#DejaVuSerif-74" transform="translate(139.794922 0)"/>
     <use xlink:href="#DejaVuSerif-61" transform="translate(179.980469 0)"/>
     <use xlink:href="#DejaVuSerif-73" transform="translate(239.599609 0)"/>
     <use xlink:href="#DejaVuSerif-65" transform="translate(290.917969 0)"/>
     <use xlink:href="#DejaVuSerif-74" transform="translate(350.097656 0)"/>
     <use xlink:href="#DejaVuSerif-3a" transform="translate(390.283203 0)"/>
     <use xlink:href="#DejaVuSerif-20" transform="translate(423.974609 0)"/>
     <use xlink:href="#DejaVuSerif-42" transform="translate(455.761719 0)"/>
     <use xlink:href="#DejaVuSerif-72" transform="translate(529.248047 0)"/>
     <use xlink:href="#DejaVuSerif-61" transform="translate(577.050781 0)"/>
     <use xlink:href="#DejaVuSerif-62" transform="translate(636.669922 0)"/>
     <use xlink:href="#DejaVuSerif-6f" transform="translate(700.683594 0)"/>
     <use xlink:href="#DejaVuSerif-73" transform="translate(760.888672 0)"/>
     <use xlink:href="#DejaVuSerif-7a" transform="translate(812.207031 0)"/>
     <use xlink:href="#DejaVuSerif-63" transform="translate(864.892578 0)"/>
     <use xlink:href="#DejaVuSerif-7a" transform="translate(920.898438 0)"/>
     <use xlink:href="#DejaVuSerif-20" transform="translate(973.583984 0)"/>
     <use xlink:href="#DejaVuSerif-65" transform="translate(1005.371094 0)"/>
     <use xlink:href="#DejaVuSerif-74" transform="translate(1064.550781 0)"/>
     <use xlink:href="#DejaVuSerif-20" transform="translate(1104.736328 0)"/>
     <use xlink:href="#DejaVuSerif-61" transform="translate(1136.523438 0)"/>
     <use xlink:href="#DejaVuSerif-6c" transform="translate(1196.142578 0)"/>
     <use xlink:href="#DejaVuSerif-2e" transform="translate(1228.125 0)"/>
     <use xlink:href="#DejaVuSerif-20" transform="translate(1259.912109 0)"/>
     <use xlink:href="#DejaVuSerif-28" transform="translate(1291.699219 0)"/>
     <use xlink:href="#DejaVuSerif-32" transform="translate(1330.712891 0)"/>
     <use xlink:href="#DejaVuSerif-30" transform="translate(1394.335938 0)"/>
     <use xlink:href="#DejaVuSerif-31" transform="translate(1457.958984 0)"/>
     <use xlink:href="#DejaVuSerif-37" transform="translate(1521.582031 0)"/>
     <use xlink:href="#DejaVuSerif-29" transform="translate(1585.205078 0)"/>
     <use xlink:href="#DejaVuSerif-20" transform="translate(1624.21875 0)"/>
     <use xlink:href="#DejaVuSerif-7c" transform="translate(1656.005859 0)"/>
     <use xlink:href="#DejaVuSerif-20" transform="translate(1689.697266 0)"/>
     <use xlink:href="#DejaVuSerif-53" transform="translate(1721.484375 0)"/>
     <use xlink:href="#DejaVuSerif-75" transform="translate(1789.990234 0)"/>
     <use xlink:href="#DejaVuSerif-62" transform="translate(1854.394531 0)"/>
     <use xlink:href="#DejaVuSerif-6a" transform="translate(1918.408203 0)"/>
     <use xlink:href="#DejaVuSerif-65" transform="translate(1949.414062 0)"/>
     <use xlink:href="#DejaVuSerif-63" transform="translate(2008.59375 0)"/>
     <use xlink:href="#DejaVuSerif-74" transform="translate(2064.599609 0)"/>
     <use xlink:href="#DejaVuSerif-3a" transform="translate(2104.785156 0)"/>
     <use xlink:href="#DejaVuSerif-20" transform="translate(2138.476562 0)"/>
     <use xlink:href="#DejaVuSerif-30" transform="translate(2170.263672 0)"/>
     <use xlink:href="#DejaVuSerif-34" transform="translate(2233.886719 0)"/>
     <use xlink:href="#DejaVuSerif-37" transform="translate(2297.509766 0)"/>
     <use xlink:href="#DejaVuSerif-20" transform="translate(2361.132812 0)"/>
     <use xlink:href="#DejaVuSerif-7c" transform="translate(2392.919922 0)"/>
     <use xlink:href="#DejaVuSerif-20" transform="translate(2426.611328 0)"/>
     <use xlink:href="#DejaVuSerif-53" transform="translate(2458.398438 0)"/>
     <use xlink:href="#DejaVuSerif-65" transform="translate(2526.904297 0)"/>
     <use xlink:href="#DejaVuSerif-73" transform="translate(2586.083984 0)"/>
     <use xlink:href="#DejaVuSerif-73" transform="translate(2637.402344 0)"/>
     <use xlink:href="#DejaVuSerif-69" transform="translate(2688.720703 0)"/>
     <use xlink:href="#DejaVuSerif-6f" transform="translate(2720.703125 0)"/>
     <use xlink:href="#DejaVuSerif-6e" transform="translate(2780.908203 0)"/>
     <use xlink:href="#DejaVuSerif-3a" transform="translate(2845.3125 0)"/>
     <use xlink:href="#DejaVuSerif-20" transform="translate(2879.003906 0)"/>
     <use xlink:href="#DejaVuSerif-31" transform="translate(2910.791016 0)"/>
     <use xlink:href="#DejaVuSerif-20" transform="translate(2974.414062 0)"/>
     <use xlink:href="#DejaVuSerif-7c" transform="translate(3006.201172 0)"/>
     <use xlink:href="#DejaVuSerif-20" transform="translate(3039.892578 0)"/>
     <use xlink:href="#DejaVuSerif-41" transform="translate(3071.679688 0)"/>
     <use xlink:href="#DejaVuSerif-6c" transform="translate(3143.896484 0)"/>
     <use xlink:href="#DejaVuSerif-6c" transform="translate(3175.878906 0)"/>
     <use xlink:href="#DejaVuSerif-20" transform="translate(3207.861328 0)"/>
     <use xlink:href="#DejaVuSerif-54" transform="translate(3239.648438 0)"/>
     <use xlink:href="#DejaVuSerif-61" transform="translate(3298.597656 0)"/>
     <use xlink:href="#DejaVuSerif-73" transform="translate(3358.216797 0)"/>
     <use xlink:href="#DejaVuSerif-6b" transform="translate(3409.535156 0)"/>
     <use xlink:href="#DejaVuSerif-2d" transform="translate(3468.380859 0)"/>
     <use xlink:href="#DejaVuSerif-53" transform="translate(3502.169922 0)"/>
     <use xlink:href="#DejaVuSerif-74" transform="translate(3570.675781 0)"/>
     <use xlink:href="#DejaVuSerif-61" transform="translate(3610.861328 0)"/>
     <use xlink:href="#DejaVuSerif-74" transform="translate(3670.480469 0)"/>
     <use xlink:href="#DejaVuSerif-65" transform="translate(3710.666016 0)"/>
     <use xlink:href="#DejaVuSerif-20" transform="translate(3769.845703 0)"/>
     <use xlink:href="#DejaVuSerif-50" transform="translate(3801.632812 0)"/>
     <use xlink:href="#DejaVuSerif-53" transform="translate(3868.917969 0)"/>
     <use xlink:href="#DejaVuSerif-44" transform="translate(3937.423828 0)"/>
     <use xlink:href="#DejaVuSerif-73" transform="translate(4017.599609 0)"/>
    </g>
   </g>
   <g id="legend_1">
    <g id="line2d_35">
     <path d="M 632.135938 36.233281 
L 642.135938 36.233281 
L 652.135938 36.233281 
" style="fill: none; stroke: #1f77b4; stroke-width: 1.5; stroke-linecap: square"/>
    </g>
    <g id="text_20">
     <!-- med2 - OT -->
     <g transform="translate(660.135938 39.733281) scale(0.1 -0.1)">
      <defs>
       <path id="DejaVuSerif-6d" d="M 3316 2675 
Q 3481 3041 3739 3227 
Q 3997 3413 4341 3413 
Q 4863 3413 5119 3089 
Q 5375 2766 5375 2113 
L 5375 331 
L 5894 331 
L 5894 0 
L 4300 0 
L 4300 331 
L 4800 331 
L 4800 2047 
Q 4800 2556 4650 2772 
Q 4500 2988 4153 2988 
Q 3769 2988 3567 2697 
Q 3366 2406 3366 1850 
L 3366 331 
L 3866 331 
L 3866 0 
L 2291 0 
L 2291 331 
L 2791 331 
L 2791 2069 
Q 2791 2566 2641 2777 
Q 2491 2988 2144 2988 
Q 1759 2988 1557 2697 
Q 1356 2406 1356 1850 
L 1356 331 
L 1856 331 
L 1856 0 
L 263 0 
L 263 331 
L 781 331 
L 781 2994 
L 231 2994 
L 231 3322 
L 1356 3322 
L 1356 2731 
Q 1516 3063 1762 3238 
Q 2009 3413 2322 3413 
Q 2709 3413 2968 3220 
Q 3228 3028 3316 2675 
z
" transform="scale(0.015625)"/>
       <path id="DejaVuSerif-4f" d="M 2625 244 
Q 3391 244 3781 770 
Q 4172 1297 4172 2328 
Q 4172 3363 3781 3889 
Q 3391 4416 2625 4416 
Q 1856 4416 1465 3889 
Q 1075 3363 1075 2328 
Q 1075 1297 1465 770 
Q 1856 244 2625 244 
z
M 2625 -91 
Q 2150 -91 1751 65 
Q 1353 222 1050 525 
Q 700 875 529 1319 
Q 359 1763 359 2328 
Q 359 2894 529 3339 
Q 700 3784 1050 4134 
Q 1356 4441 1750 4595 
Q 2144 4750 2625 4750 
Q 3641 4750 4266 4084 
Q 4891 3419 4891 2328 
Q 4891 1769 4719 1320 
Q 4547 872 4197 525 
Q 3891 219 3497 64 
Q 3103 -91 2625 -91 
z
" transform="scale(0.015625)"/>
      </defs>
      <use xlink:href="#DejaVuSerif-6d"/>
      <use xlink:href="#DejaVuSerif-65" transform="translate(94.824219 0)"/>
      <use xlink:href="#DejaVuSerif-64" transform="translate(154.003906 0)"/>
      <use xlink:href="#DejaVuSerif-32" transform="translate(218.017578 0)"/>
      <use xlink:href="#DejaVuSerif-20" transform="translate(281.640625 0)"/>
      <use xlink:href="#DejaVuSerif-2d" transform="translate(313.427734 0)"/>
      <use xlink:href="#DejaVuSerif-20" transform="translate(347.216797 0)"/>
      <use xlink:href="#DejaVuSerif-4f" transform="translate(379.003906 0)"/>
      <use xlink:href="#DejaVuSerif-54" transform="translate(460.986328 0)"/>
     </g>
    </g>
    <g id="line2d_36">
     <path d="M 632.135938 50.911406 
L 642.135938 50.911406 
L 652.135938 50.911406 
" style="fill: none; stroke: #17becf; stroke-width: 1.5; stroke-linecap: square"/>
    </g>
    <g id="text_21">
     <!-- think2 - MW -->
     <g transform="translate(660.135938 54.411406) scale(0.1 -0.1)">
      <defs>
       <path id="DejaVuSerif-68" d="M 263 0 
L 263 331 
L 781 331 
L 781 4531 
L 231 4531 
L 231 4863 
L 1356 4863 
L 1356 2731 
Q 1516 3069 1770 3241 
Q 2025 3413 2363 3413 
Q 2913 3413 3172 3097 
Q 3431 2781 3431 2113 
L 3431 331 
L 3944 331 
L 3944 0 
L 2356 0 
L 2356 331 
L 2853 331 
L 2853 1931 
Q 2853 2541 2704 2764 
Q 2556 2988 2175 2988 
Q 1775 2988 1565 2697 
Q 1356 2406 1356 1850 
L 1356 331 
L 1856 331 
L 1856 0 
L 263 0 
z
" transform="scale(0.015625)"/>
       <path id="DejaVuSerif-4d" d="M 353 0 
L 353 331 
L 947 331 
L 947 4331 
L 319 4331 
L 319 4666 
L 1678 4666 
L 3316 1344 
L 4953 4666 
L 6228 4666 
L 6228 4331 
L 5606 4331 
L 5606 331 
L 6203 331 
L 6203 0 
L 4378 0 
L 4378 331 
L 4972 331 
L 4972 3938 
L 3372 684 
L 2931 684 
L 1331 3938 
L 1331 331 
L 1925 331 
L 1925 0 
L 353 0 
z
" transform="scale(0.015625)"/>
       <path id="DejaVuSerif-57" d="M 4878 0 
L 4366 0 
L 3297 3794 
L 2228 0 
L 1716 0 
L 494 4331 
L 31 4331 
L 31 4666 
L 1734 4666 
L 1734 4331 
L 1153 4331 
L 2125 884 
L 3188 4666 
L 3694 4666 
L 4775 844 
L 5753 4331 
L 5216 4331 
L 5216 4666 
L 6559 4666 
L 6559 4331 
L 6100 4331 
L 4878 0 
z
" transform="scale(0.015625)"/>
      </defs>
      <use xlink:href="#DejaVuSerif-74"/>
      <use xlink:href="#DejaVuSerif-68" transform="translate(40.185547 0)"/>
      <use xlink:href="#DejaVuSerif-69" transform="translate(104.589844 0)"/>
      <use xlink:href="#DejaVuSerif-6e" transform="translate(136.572266 0)"/>
      <use xlink:href="#DejaVuSerif-6b" transform="translate(200.976562 0)"/>
      <use xlink:href="#DejaVuSerif-32" transform="translate(261.572266 0)"/>
      <use xlink:href="#DejaVuSerif-20" transform="translate(325.195312 0)"/>
      <use xlink:href="#DejaVuSerif-2d" transform="translate(356.982422 0)"/>
      <use xlink:href="#DejaVuSerif-20" transform="translate(390.771484 0)"/>
      <use xlink:href="#DejaVuSerif-4d" transform="translate(422.558594 0)"/>
      <use xlink:href="#DejaVuSerif-57" transform="translate(524.951172 0)"/>
     </g>
    </g>
   </g>
  </g>
 </g>
 <defs>
  <clipPath id="p412d192e82">
   <rect x="62.309375" y="23.134844" width="669.6" height="388.08"/>
  </clipPath>
 </defs>
</svg>
