<?xml version="1.0" encoding="utf-8" standalone="no"?>
<!DOCTYPE svg PUBLIC "-//W3C//DTD SVG 1.1//EN"
  "http://www.w3.org/Graphics/SVG/1.1/DTD/svg11.dtd">
<svg xmlns:xlink="http://www.w3.org/1999/xlink" width="730.522812pt" height="448.9275pt" viewBox="0 0 730.522812 448.9275" xmlns="http://www.w3.org/2000/svg" version="1.1">
 <metadata>
  <rdf:RDF xmlns:dc="http://purl.org/dc/elements/1.1/" xmlns:cc="http://creativecommons.org/ns#" xmlns:rdf="http://www.w3.org/1999/02/22-rdf-syntax-ns#">
   <cc:Work>
    <dc:type rdf:resource="http://purl.org/dc/dcmitype/StillImage"/>
    <dc:date>2025-05-30T20:16:04.788083</dc:date>
    <dc:format>image/svg+xml</dc:format>
    <dc:creator>
     <cc:Agent>
      <dc:title>Matplotlib v3.10.3, https://matplotlib.org/</dc:title>
     </cc:Agent>
    </dc:creator>
   </cc:Work>
  </rdf:RDF>
 </metadata>
 <defs>
  <style type="text/css">*{stroke-linejoin: round; stroke-linecap: butt}</style>
 </defs>
 <g id="figure_1">
  <g id="patch_1">
   <path d="M 0 448.9275 
L 730.522812 448.9275 
L 730.522812 0 
L 0 0 
z
" style="fill: #ffffff"/>
  </g>
  <g id="axes_1">
   <g id="patch_2">
    <path d="M 53.722813 411.214844 
L 723.322813 411.214844 
L 723.322813 23.134844 
L 53.722813 23.134844 
z
" style="fill: #ffffff"/>
   </g>
   <g id="FillBetweenPolyCollection_1">
    <defs>
     <path id="m97c8b02785" d="M 84.159176 -401.885302 
L 84.159176 -401.885302 
L 92.613722 -380.338563 
L 101.068267 -365.865407 
L 109.522812 -354.998565 
L 117.977358 -347.661384 
L 126.431903 -348.448616 
L 134.886449 -352.572738 
L 143.340994 -354.014966 
L 151.79554 -351.08826 
L 160.250085 -342.492839 
L 168.704631 -329.457004 
L 177.159176 -316.316517 
L 185.613722 -303.969793 
L 194.068267 -292.336721 
L 202.522812 -285.888564 
L 210.977358 -280.161577 
L 219.431903 -269.479672 
L 227.886449 -256.076236 
L 236.340994 -246.028146 
L 244.79554 -238.273529 
L 253.250085 -232.118147 
L 261.704631 -228.398562 
L 270.159176 -224.484214 
L 278.613722 -219.330777 
L 287.068267 -215.702869 
L 295.522812 -213.389547 
L 303.977358 -211.20433 
L 312.431903 -207.972521 
L 320.886449 -205.137211 
L 329.340994 -205.652454 
L 337.79554 -209.559007 
L 346.250085 -214.713169 
L 354.704631 -218.173308 
L 363.159176 -218.203065 
L 371.613722 -215.70087 
L 380.068267 -213.871243 
L 388.522812 -214.776731 
L 396.977358 -214.92368 
L 405.431903 -213.350346 
L 413.886449 -212.509502 
L 422.340994 -212.334657 
L 430.79554 -210.921623 
L 439.250085 -208.762283 
L 447.704631 -206.524809 
L 456.159176 -204.371551 
L 464.613722 -203.953133 
L 473.068267 -205.212738 
L 481.522812 -204.279472 
L 489.977358 -198.476648 
L 498.431903 -191.509344 
L 506.886449 -184.179194 
L 515.340994 -177.182342 
L 523.79554 -172.381216 
L 532.250085 -168.658209 
L 540.704631 -161.822254 
L 549.159176 -151.573917 
L 557.613722 -141.300664 
L 566.068267 -134.12863 
L 574.522812 -129.407683 
L 582.977358 -126.049757 
L 591.431903 -122.236245 
L 599.886449 -117.59608 
L 608.340994 -114.370787 
L 616.79554 -113.032378 
L 625.250085 -111.099669 
L 633.704631 -107.14342 
L 642.159176 -102.530459 
L 650.613722 -99.21329 
L 659.068267 -97.150242 
L 667.522812 -95.966238 
L 675.977358 -95.344709 
L 684.431903 -94.833664 
L 692.886449 -92.806295 
L 692.886449 -92.806295 
L 692.886449 -55.352656 
L 684.431903 -55.352656 
L 675.977358 -55.352656 
L 667.522812 -55.352656 
L 659.068267 -55.352656 
L 650.613722 -55.352656 
L 642.159176 -55.352656 
L 633.704631 -55.352656 
L 625.250085 -55.352656 
L 616.79554 -55.352656 
L 608.340994 -55.352656 
L 599.886449 -55.352656 
L 591.431903 -55.352656 
L 582.977358 -55.352656 
L 574.522812 -55.352656 
L 566.068267 -55.352656 
L 557.613722 -55.352656 
L 549.159176 -55.352656 
L 540.704631 -55.352656 
L 532.250085 -55.352656 
L 523.79554 -55.352656 
L 515.340994 -55.352656 
L 506.886449 -55.352656 
L 498.431903 -55.352656 
L 489.977358 -55.352656 
L 481.522812 -55.352656 
L 473.068267 -55.352656 
L 464.613722 -55.352656 
L 456.159176 -55.352656 
L 447.704631 -55.352656 
L 439.250085 -55.352656 
L 430.79554 -55.352656 
L 422.340994 -55.352656 
L 413.886449 -55.352656 
L 405.431903 -55.352656 
L 396.977358 -55.352656 
L 388.522812 -55.352656 
L 380.068267 -55.352656 
L 371.613722 -55.352656 
L 363.159176 -55.352656 
L 354.704631 -55.352656 
L 346.250085 -55.352656 
L 337.79554 -55.352656 
L 329.340994 -55.352656 
L 320.886449 -55.352656 
L 312.431903 -55.352656 
L 303.977358 -55.352656 
L 295.522812 -55.352656 
L 287.068267 -55.352656 
L 278.613722 -55.352656 
L 270.159176 -55.352656 
L 261.704631 -55.352656 
L 253.250085 -55.352656 
L 244.79554 -55.352656 
L 236.340994 -55.352656 
L 227.886449 -55.352656 
L 219.431903 -55.352656 
L 210.977358 -55.352656 
L 202.522812 -55.352656 
L 194.068267 -55.352656 
L 185.613722 -55.352656 
L 177.159176 -55.352656 
L 168.704631 -55.352656 
L 160.250085 -55.352656 
L 151.79554 -55.352656 
L 143.340994 -55.352656 
L 134.886449 -55.352656 
L 126.431903 -55.352656 
L 117.977358 -55.352656 
L 109.522812 -55.352656 
L 101.068267 -55.352656 
L 92.613722 -55.352656 
L 84.159176 -55.352656 
z
" style="stroke: #1f77b4; stroke-opacity: 0.3"/>
    </defs>
    <g clip-path="url(#p0be1b4c89b)">
     <use xlink:href="#m97c8b02785" x="0" y="448.9275" style="fill: #1f77b4; fill-opacity: 0.3; stroke: #1f77b4; stroke-opacity: 0.3"/>
    </g>
   </g>
   <g id="FillBetweenPolyCollection_2">
    <defs>
     <path id="me135a9988b" d="M 84.159176 -341.18029 
L 84.159176 -341.18029 
L 92.613722 -343.619509 
L 101.068267 -343.627397 
L 109.522812 -333.554312 
L 117.977358 -325.192366 
L 126.431903 -326.570196 
L 134.886449 -335.992191 
L 143.340994 -342.402013 
L 151.79554 -331.737861 
L 160.250085 -304.870736 
L 168.704631 -278.432796 
L 177.159176 -269.256847 
L 185.613722 -269.645786 
L 194.068267 -269.886104 
L 202.522812 -265.725939 
L 210.977358 -253.915118 
L 219.431903 -234.914979 
L 227.886449 -215.91049 
L 236.340994 -203.461799 
L 244.79554 -202.983041 
L 253.250085 -211.095488 
L 261.704631 -209.616891 
L 270.159176 -193.630333 
L 278.613722 -180.245126 
L 287.068267 -190.863671 
L 295.522812 -212.861371 
L 303.977358 -225.510945 
L 312.431903 -228.638822 
L 320.886449 -232.118288 
L 329.340994 -235.156632 
L 337.79554 -229.881622 
L 346.250085 -218.669952 
L 354.704631 -221.239455 
L 363.159176 -236.593228 
L 371.613722 -244.675646 
L 380.068267 -243.986235 
L 388.522812 -245.591471 
L 396.977358 -253.661129 
L 405.431903 -256.065665 
L 413.886449 -252.203928 
L 422.340994 -248.153724 
L 430.79554 -241.793789 
L 439.250085 -228.080342 
L 447.704631 -215.836186 
L 456.159176 -218.161357 
L 464.613722 -230.881529 
L 473.068267 -242.191457 
L 481.522812 -235.756876 
L 489.977358 -223.413038 
L 498.431903 -225.429976 
L 506.886449 -231.071605 
L 515.340994 -225.147704 
L 523.79554 -212.043973 
L 532.250085 -206.065978 
L 540.704631 -200.662222 
L 549.159176 -186.355123 
L 557.613722 -171.818976 
L 566.068267 -160.201712 
L 574.522812 -146.016181 
L 582.977358 -133.375233 
L 591.431903 -126.672467 
L 599.886449 -124.861627 
L 608.340994 -127.196348 
L 616.79554 -131.071408 
L 625.250085 -130.001186 
L 633.704631 -126.767479 
L 642.159176 -129.627051 
L 650.613722 -130.946829 
L 659.068267 -126.048288 
L 667.522812 -115.281069 
L 675.977358 -108.414063 
L 684.431903 -108.62426 
L 692.886449 -110.775694 
L 692.886449 -110.775694 
L 692.886449 -55.352656 
L 684.431903 -55.352656 
L 675.977358 -55.352656 
L 667.522812 -55.352656 
L 659.068267 -55.352656 
L 650.613722 -55.352656 
L 642.159176 -55.352656 
L 633.704631 -55.352656 
L 625.250085 -55.352656 
L 616.79554 -55.352656 
L 608.340994 -55.352656 
L 599.886449 -55.352656 
L 591.431903 -55.352656 
L 582.977358 -55.352656 
L 574.522812 -55.352656 
L 566.068267 -55.352656 
L 557.613722 -55.352656 
L 549.159176 -55.352656 
L 540.704631 -55.352656 
L 532.250085 -55.352656 
L 523.79554 -55.352656 
L 515.340994 -55.352656 
L 506.886449 -55.352656 
L 498.431903 -55.352656 
L 489.977358 -55.352656 
L 481.522812 -55.352656 
L 473.068267 -55.352656 
L 464.613722 -55.352656 
L 456.159176 -55.352656 
L 447.704631 -55.352656 
L 439.250085 -55.352656 
L 430.79554 -55.352656 
L 422.340994 -55.352656 
L 413.886449 -55.352656 
L 405.431903 -55.352656 
L 396.977358 -55.352656 
L 388.522812 -55.352656 
L 380.068267 -55.352656 
L 371.613722 -55.352656 
L 363.159176 -55.352656 
L 354.704631 -55.352656 
L 346.250085 -55.352656 
L 337.79554 -55.352656 
L 329.340994 -55.352656 
L 320.886449 -55.352656 
L 312.431903 -55.352656 
L 303.977358 -55.352656 
L 295.522812 -55.352656 
L 287.068267 -55.352656 
L 278.613722 -55.352656 
L 270.159176 -55.352656 
L 261.704631 -55.352656 
L 253.250085 -55.352656 
L 244.79554 -55.352656 
L 236.340994 -55.352656 
L 227.886449 -55.352656 
L 219.431903 -55.352656 
L 210.977358 -55.352656 
L 202.522812 -55.352656 
L 194.068267 -55.352656 
L 185.613722 -55.352656 
L 177.159176 -55.352656 
L 168.704631 -55.352656 
L 160.250085 -55.352656 
L 151.79554 -55.352656 
L 143.340994 -55.352656 
L 134.886449 -55.352656 
L 126.431903 -55.352656 
L 117.977358 -55.352656 
L 109.522812 -55.352656 
L 101.068267 -55.352656 
L 92.613722 -55.352656 
L 84.159176 -55.352656 
z
" style="stroke: #8c564b; stroke-opacity: 0.3"/>
    </defs>
    <g clip-path="url(#p0be1b4c89b)">
     <use xlink:href="#me135a9988b" x="0" y="448.9275" style="fill: #8c564b; fill-opacity: 0.3; stroke: #8c564b; stroke-opacity: 0.3"/>
    </g>
   </g>
   <g id="FillBetweenPolyCollection_3">
    <defs>
     <path id="m3a9bc9d90e" d="M 84.159176 -408.152656 
L 84.159176 -408.152656 
L 92.613722 -375.201768 
L 101.068267 -365.193209 
L 109.522812 -366.339449 
L 117.977358 -365.319654 
L 126.431903 -354.458772 
L 134.886449 -341.159462 
L 143.340994 -325.364852 
L 151.79554 -306.38199 
L 160.250085 -286.637375 
L 168.704631 -279.002249 
L 177.159176 -287.148667 
L 185.613722 -291.612274 
L 194.068267 -287.941363 
L 202.522812 -277.446321 
L 210.977358 -266.04786 
L 219.431903 -260.171321 
L 227.886449 -253.640024 
L 236.340994 -241.113592 
L 244.79554 -235.604768 
L 253.250085 -238.069225 
L 261.704631 -240.330232 
L 270.159176 -239.763603 
L 278.613722 -234.341468 
L 287.068267 -228.237582 
L 295.522812 -232.291226 
L 303.977358 -238.55615 
L 312.431903 -234.063444 
L 320.886449 -222.198342 
L 329.340994 -217.860757 
L 337.79554 -214.723234 
L 346.250085 -206.593764 
L 354.704631 -204.166646 
L 363.159176 -212.38572 
L 371.613722 -225.247569 
L 380.068267 -232.253134 
L 388.522812 -232.21549 
L 396.977358 -226.437325 
L 405.431903 -220.398155 
L 413.886449 -217.799381 
L 422.340994 -216.387864 
L 430.79554 -217.462026 
L 439.250085 -216.561025 
L 447.704631 -214.891203 
L 456.159176 -214.675239 
L 464.613722 -218.702261 
L 473.068267 -226.609292 
L 481.522812 -227.470667 
L 489.977358 -221.92907 
L 498.431903 -216.796351 
L 506.886449 -209.942896 
L 515.340994 -197.883072 
L 523.79554 -184.849076 
L 532.250085 -173.411086 
L 540.704631 -163.664705 
L 549.159176 -158.874027 
L 557.613722 -157.01096 
L 566.068267 -149.982776 
L 574.522812 -137.824449 
L 582.977358 -135.066422 
L 591.431903 -139.467851 
L 599.886449 -141.655884 
L 608.340994 -144.974065 
L 616.79554 -148.971276 
L 625.250085 -143.595561 
L 633.704631 -133.04568 
L 642.159176 -134.387318 
L 650.613722 -137.91947 
L 659.068267 -137.25494 
L 667.522812 -133.478355 
L 675.977358 -130.070854 
L 684.431903 -133.159397 
L 692.886449 -145.78313 
L 692.886449 -145.78313 
L 692.886449 -55.352656 
L 684.431903 -55.352656 
L 675.977358 -55.352656 
L 667.522812 -55.352656 
L 659.068267 -55.352656 
L 650.613722 -55.352656 
L 642.159176 -55.352656 
L 633.704631 -55.352656 
L 625.250085 -55.352656 
L 616.79554 -55.352656 
L 608.340994 -55.352656 
L 599.886449 -55.352656 
L 591.431903 -55.352656 
L 582.977358 -55.352656 
L 574.522812 -55.352656 
L 566.068267 -55.352656 
L 557.613722 -55.352656 
L 549.159176 -55.352656 
L 540.704631 -55.352656 
L 532.250085 -55.352656 
L 523.79554 -55.352656 
L 515.340994 -55.352656 
L 506.886449 -55.352656 
L 498.431903 -55.352656 
L 489.977358 -55.352656 
L 481.522812 -55.352656 
L 473.068267 -55.352656 
L 464.613722 -55.352656 
L 456.159176 -55.352656 
L 447.704631 -55.352656 
L 439.250085 -55.352656 
L 430.79554 -55.352656 
L 422.340994 -55.352656 
L 413.886449 -55.352656 
L 405.431903 -55.352656 
L 396.977358 -55.352656 
L 388.522812 -55.352656 
L 380.068267 -55.352656 
L 371.613722 -55.352656 
L 363.159176 -55.352656 
L 354.704631 -55.352656 
L 346.250085 -55.352656 
L 337.79554 -55.352656 
L 329.340994 -55.352656 
L 320.886449 -55.352656 
L 312.431903 -55.352656 
L 303.977358 -55.352656 
L 295.522812 -55.352656 
L 287.068267 -55.352656 
L 278.613722 -55.352656 
L 270.159176 -55.352656 
L 261.704631 -55.352656 
L 253.250085 -55.352656 
L 244.79554 -55.352656 
L 236.340994 -55.352656 
L 227.886449 -55.352656 
L 219.431903 -55.352656 
L 210.977358 -55.352656 
L 202.522812 -55.352656 
L 194.068267 -55.352656 
L 185.613722 -55.352656 
L 177.159176 -55.352656 
L 168.704631 -55.352656 
L 160.250085 -55.352656 
L 151.79554 -55.352656 
L 143.340994 -55.352656 
L 134.886449 -55.352656 
L 126.431903 -55.352656 
L 117.977358 -55.352656 
L 109.522812 -55.352656 
L 101.068267 -55.352656 
L 92.613722 -55.352656 
L 84.159176 -55.352656 
z
" style="stroke: #17becf; stroke-opacity: 0.3"/>
    </defs>
    <g clip-path="url(#p0be1b4c89b)">
     <use xlink:href="#m3a9bc9d90e" x="0" y="448.9275" style="fill: #17becf; fill-opacity: 0.3; stroke: #17becf; stroke-opacity: 0.3"/>
    </g>
   </g>
   <g id="matplotlib.axis_1">
    <g id="xtick_1">
     <g id="line2d_1">
      <path d="M 101.068267 411.214844 
L 101.068267 23.134844 
" clip-path="url(#p0be1b4c89b)" style="fill: none; stroke-dasharray: 2.96,1.28; stroke-dashoffset: 0; stroke: #dddddd; stroke-width: 0.8"/>
     </g>
     <g id="line2d_2">
      <defs>
       <path id="ma3b0379d4e" d="M 0 0 
L 0 3.5 
" style="stroke: #333333; stroke-width: 0.8"/>
      </defs>
      <g>
       <use xlink:href="#ma3b0379d4e" x="101.068267" y="411.214844" style="fill: #333333; stroke: #333333; stroke-width: 0.8"/>
      </g>
     </g>
     <g id="text_1">
      <!-- 5 -->
      <g style="fill: #333333" transform="translate(98.205142 425.053437) scale(0.09 -0.09)">
       <defs>
        <path id="DejaVuSerif-35" d="M 3219 4666 
L 3219 4153 
L 1081 4153 
L 1081 2816 
Q 1244 2928 1461 2984 
Q 1678 3041 1947 3041 
Q 2703 3041 3140 2622 
Q 3578 2203 3578 1478 
Q 3578 738 3136 323 
Q 2694 -91 1894 -91 
Q 1572 -91 1234 -12 
Q 897 66 544 225 
L 544 1131 
L 897 1131 
Q 925 688 1179 453 
Q 1434 219 1894 219 
Q 2388 219 2653 544 
Q 2919 869 2919 1478 
Q 2919 2084 2655 2407 
Q 2391 2731 1894 2731 
Q 1613 2731 1398 2631 
Q 1184 2531 1019 2322 
L 750 2322 
L 750 4666 
L 3219 4666 
z
" transform="scale(0.015625)"/>
       </defs>
       <use xlink:href="#DejaVuSerif-35"/>
      </g>
     </g>
    </g>
    <g id="xtick_2">
     <g id="line2d_3">
      <path d="M 185.613722 411.214844 
L 185.613722 23.134844 
" clip-path="url(#p0be1b4c89b)" style="fill: none; stroke-dasharray: 2.96,1.28; stroke-dashoffset: 0; stroke: #dddddd; stroke-width: 0.8"/>
     </g>
     <g id="line2d_4">
      <g>
       <use xlink:href="#ma3b0379d4e" x="185.613722" y="411.214844" style="fill: #333333; stroke: #333333; stroke-width: 0.8"/>
      </g>
     </g>
     <g id="text_2">
      <!-- 10 -->
      <g style="fill: #333333" transform="translate(179.887472 425.053437) scale(0.09 -0.09)">
       <defs>
        <path id="DejaVuSerif-31" d="M 909 0 
L 909 331 
L 1722 331 
L 1722 4213 
L 781 3603 
L 781 4013 
L 1919 4750 
L 2350 4750 
L 2350 331 
L 3163 331 
L 3163 0 
L 909 0 
z
" transform="scale(0.015625)"/>
        <path id="DejaVuSerif-30" d="M 2034 219 
Q 2513 219 2750 744 
Q 2988 1269 2988 2328 
Q 2988 3391 2750 3916 
Q 2513 4441 2034 4441 
Q 1556 4441 1318 3916 
Q 1081 3391 1081 2328 
Q 1081 1269 1318 744 
Q 1556 219 2034 219 
z
M 2034 -91 
Q 1275 -91 848 546 
Q 422 1184 422 2328 
Q 422 3475 848 4112 
Q 1275 4750 2034 4750 
Q 2797 4750 3222 4112 
Q 3647 3475 3647 2328 
Q 3647 1184 3222 546 
Q 2797 -91 2034 -91 
z
" transform="scale(0.015625)"/>
       </defs>
       <use xlink:href="#DejaVuSerif-31"/>
       <use xlink:href="#DejaVuSerif-30" transform="translate(63.623047 0)"/>
      </g>
     </g>
    </g>
    <g id="xtick_3">
     <g id="line2d_5">
      <path d="M 270.159176 411.214844 
L 270.159176 23.134844 
" clip-path="url(#p0be1b4c89b)" style="fill: none; stroke-dasharray: 2.96,1.28; stroke-dashoffset: 0; stroke: #dddddd; stroke-width: 0.8"/>
     </g>
     <g id="line2d_6">
      <g>
       <use xlink:href="#ma3b0379d4e" x="270.159176" y="411.214844" style="fill: #333333; stroke: #333333; stroke-width: 0.8"/>
      </g>
     </g>
     <g id="text_3">
      <!-- 15 -->
      <g style="fill: #333333" transform="translate(264.432926 425.053437) scale(0.09 -0.09)">
       <use xlink:href="#DejaVuSerif-31"/>
       <use xlink:href="#DejaVuSerif-35" transform="translate(63.623047 0)"/>
      </g>
     </g>
    </g>
    <g id="xtick_4">
     <g id="line2d_7">
      <path d="M 354.704631 411.214844 
L 354.704631 23.134844 
" clip-path="url(#p0be1b4c89b)" style="fill: none; stroke-dasharray: 2.96,1.28; stroke-dashoffset: 0; stroke: #dddddd; stroke-width: 0.8"/>
     </g>
     <g id="line2d_8">
      <g>
       <use xlink:href="#ma3b0379d4e" x="354.704631" y="411.214844" style="fill: #333333; stroke: #333333; stroke-width: 0.8"/>
      </g>
     </g>
     <g id="text_4">
      <!-- 20 -->
      <g style="fill: #333333" transform="translate(348.978381 425.053437) scale(0.09 -0.09)">
       <defs>
        <path id="DejaVuSerif-32" d="M 819 3553 
L 469 3553 
L 469 4384 
Q 803 4563 1142 4656 
Q 1481 4750 1806 4750 
Q 2534 4750 2956 4397 
Q 3378 4044 3378 3438 
Q 3378 2753 2422 1800 
Q 2347 1728 2309 1691 
L 1131 513 
L 3078 513 
L 3078 1088 
L 3444 1088 
L 3444 0 
L 434 0 
L 434 341 
L 1850 1753 
Q 2319 2222 2519 2614 
Q 2719 3006 2719 3438 
Q 2719 3909 2473 4175 
Q 2228 4441 1797 4441 
Q 1350 4441 1106 4219 
Q 863 3997 819 3553 
z
" transform="scale(0.015625)"/>
       </defs>
       <use xlink:href="#DejaVuSerif-32"/>
       <use xlink:href="#DejaVuSerif-30" transform="translate(63.623047 0)"/>
      </g>
     </g>
    </g>
    <g id="xtick_5">
     <g id="line2d_9">
      <path d="M 439.250085 411.214844 
L 439.250085 23.134844 
" clip-path="url(#p0be1b4c89b)" style="fill: none; stroke-dasharray: 2.96,1.28; stroke-dashoffset: 0; stroke: #dddddd; stroke-width: 0.8"/>
     </g>
     <g id="line2d_10">
      <g>
       <use xlink:href="#ma3b0379d4e" x="439.250085" y="411.214844" style="fill: #333333; stroke: #333333; stroke-width: 0.8"/>
      </g>
     </g>
     <g id="text_5">
      <!-- 25 -->
      <g style="fill: #333333" transform="translate(433.523835 425.053437) scale(0.09 -0.09)">
       <use xlink:href="#DejaVuSerif-32"/>
       <use xlink:href="#DejaVuSerif-35" transform="translate(63.623047 0)"/>
      </g>
     </g>
    </g>
    <g id="xtick_6">
     <g id="line2d_11">
      <path d="M 523.79554 411.214844 
L 523.79554 23.134844 
" clip-path="url(#p0be1b4c89b)" style="fill: none; stroke-dasharray: 2.96,1.28; stroke-dashoffset: 0; stroke: #dddddd; stroke-width: 0.8"/>
     </g>
     <g id="line2d_12">
      <g>
       <use xlink:href="#ma3b0379d4e" x="523.79554" y="411.214844" style="fill: #333333; stroke: #333333; stroke-width: 0.8"/>
      </g>
     </g>
     <g id="text_6">
      <!-- 30 -->
      <g style="fill: #333333" transform="translate(518.06929 425.053437) scale(0.09 -0.09)">
       <defs>
        <path id="DejaVuSerif-33" d="M 622 4469 
Q 988 4606 1323 4678 
Q 1659 4750 1953 4750 
Q 2638 4750 3022 4454 
Q 3406 4159 3406 3634 
Q 3406 3213 3140 2930 
Q 2875 2647 2388 2547 
Q 2963 2466 3280 2130 
Q 3597 1794 3597 1259 
Q 3597 606 3158 257 
Q 2719 -91 1894 -91 
Q 1528 -91 1179 -12 
Q 831 66 488 225 
L 488 1131 
L 838 1131 
Q 869 681 1141 450 
Q 1413 219 1906 219 
Q 2384 219 2661 495 
Q 2938 772 2938 1253 
Q 2938 1803 2653 2086 
Q 2369 2369 1819 2369 
L 1522 2369 
L 1522 2688 
L 1678 2688 
Q 2225 2688 2498 2914 
Q 2772 3141 2772 3597 
Q 2772 4006 2547 4223 
Q 2322 4441 1900 4441 
Q 1478 4441 1245 4241 
Q 1013 4041 972 3647 
L 622 3647 
L 622 4469 
z
" transform="scale(0.015625)"/>
       </defs>
       <use xlink:href="#DejaVuSerif-33"/>
       <use xlink:href="#DejaVuSerif-30" transform="translate(63.623047 0)"/>
      </g>
     </g>
    </g>
    <g id="xtick_7">
     <g id="line2d_13">
      <path d="M 608.340994 411.214844 
L 608.340994 23.134844 
" clip-path="url(#p0be1b4c89b)" style="fill: none; stroke-dasharray: 2.96,1.28; stroke-dashoffset: 0; stroke: #dddddd; stroke-width: 0.8"/>
     </g>
     <g id="line2d_14">
      <g>
       <use xlink:href="#ma3b0379d4e" x="608.340994" y="411.214844" style="fill: #333333; stroke: #333333; stroke-width: 0.8"/>
      </g>
     </g>
     <g id="text_7">
      <!-- 35 -->
      <g style="fill: #333333" transform="translate(602.614744 425.053437) scale(0.09 -0.09)">
       <use xlink:href="#DejaVuSerif-33"/>
       <use xlink:href="#DejaVuSerif-35" transform="translate(63.623047 0)"/>
      </g>
     </g>
    </g>
    <g id="xtick_8">
     <g id="line2d_15">
      <path d="M 692.886449 411.214844 
L 692.886449 23.134844 
" clip-path="url(#p0be1b4c89b)" style="fill: none; stroke-dasharray: 2.96,1.28; stroke-dashoffset: 0; stroke: #dddddd; stroke-width: 0.8"/>
     </g>
     <g id="line2d_16">
      <g>
       <use xlink:href="#ma3b0379d4e" x="692.886449" y="411.214844" style="fill: #333333; stroke: #333333; stroke-width: 0.8"/>
      </g>
     </g>
     <g id="text_8">
      <!-- 40 -->
      <g style="fill: #333333" transform="translate(687.160199 425.053437) scale(0.09 -0.09)">
       <defs>
        <path id="DejaVuSerif-34" d="M 2234 1581 
L 2234 4063 
L 641 1581 
L 2234 1581 
z
M 3609 0 
L 1484 0 
L 1484 331 
L 2234 331 
L 2234 1247 
L 197 1247 
L 197 1588 
L 2241 4750 
L 2859 4750 
L 2859 1581 
L 3750 1581 
L 3750 1247 
L 2859 1247 
L 2859 331 
L 3609 331 
L 3609 0 
z
" transform="scale(0.015625)"/>
       </defs>
       <use xlink:href="#DejaVuSerif-34"/>
       <use xlink:href="#DejaVuSerif-30" transform="translate(63.623047 0)"/>
      </g>
     </g>
    </g>
    <g id="text_9">
     <!-- Frequency (Hz) -->
     <g transform="translate(345.040156 439.283437) scale(0.11 -0.11)">
      <defs>
       <path id="DejaVuSerif-46" d="M 353 0 
L 353 331 
L 947 331 
L 947 4331 
L 353 4331 
L 353 4666 
L 4172 4666 
L 4172 3628 
L 3788 3628 
L 3788 4281 
L 1581 4281 
L 1581 2719 
L 3175 2719 
L 3175 3303 
L 3559 3303 
L 3559 1753 
L 3175 1753 
L 3175 2338 
L 1581 2338 
L 1581 331 
L 2328 331 
L 2328 0 
L 353 0 
z
" transform="scale(0.015625)"/>
       <path id="DejaVuSerif-72" d="M 3059 3328 
L 3059 2497 
L 2728 2497 
Q 2713 2744 2591 2866 
Q 2469 2988 2234 2988 
Q 1809 2988 1582 2694 
Q 1356 2400 1356 1850 
L 1356 331 
L 2022 331 
L 2022 0 
L 263 0 
L 263 331 
L 781 331 
L 781 2994 
L 231 2994 
L 231 3322 
L 1356 3322 
L 1356 2731 
Q 1525 3078 1790 3245 
Q 2056 3413 2438 3413 
Q 2578 3413 2733 3391 
Q 2888 3369 3059 3328 
z
" transform="scale(0.015625)"/>
       <path id="DejaVuSerif-65" d="M 3469 1600 
L 991 1600 
L 991 1575 
Q 991 903 1244 561 
Q 1497 219 1991 219 
Q 2369 219 2611 417 
Q 2853 616 2950 1006 
L 3413 1006 
Q 3275 459 2904 184 
Q 2534 -91 1931 -91 
Q 1203 -91 761 389 
Q 319 869 319 1663 
Q 319 2450 753 2931 
Q 1188 3413 1894 3413 
Q 2647 3413 3050 2948 
Q 3453 2484 3469 1600 
z
M 2791 1931 
Q 2772 2513 2545 2808 
Q 2319 3103 1894 3103 
Q 1497 3103 1269 2806 
Q 1041 2509 991 1931 
L 2791 1931 
z
" transform="scale(0.015625)"/>
       <path id="DejaVuSerif-71" d="M 3359 2988 
L 3359 -997 
L 3909 -997 
L 3909 -1331 
L 2241 -1331 
L 2241 -997 
L 2784 -997 
L 2784 519 
Q 2616 206 2355 57 
Q 2094 -91 1709 -91 
Q 1097 -91 708 395 
Q 319 881 319 1663 
Q 319 2444 706 2928 
Q 1094 3413 1709 3413 
Q 2094 3413 2355 3264 
Q 2616 3116 2784 2803 
L 2784 3322 
L 3909 3322 
L 3909 2988 
L 3359 2988 
z
M 2784 1825 
Q 2784 2422 2554 2737 
Q 2325 3053 1888 3053 
Q 1444 3053 1217 2703 
Q 991 2353 991 1663 
Q 991 975 1217 622 
Q 1444 269 1888 269 
Q 2325 269 2554 583 
Q 2784 897 2784 1497 
L 2784 1825 
z
" transform="scale(0.015625)"/>
       <path id="DejaVuSerif-75" d="M 2266 3322 
L 3341 3322 
L 3341 331 
L 3884 331 
L 3884 0 
L 2766 0 
L 2766 588 
Q 2606 256 2353 82 
Q 2100 -91 1766 -91 
Q 1213 -91 952 223 
Q 691 538 691 1209 
L 691 2988 
L 172 2988 
L 172 3322 
L 1269 3322 
L 1269 1388 
Q 1269 781 1417 556 
Q 1566 331 1947 331 
Q 2347 331 2556 625 
Q 2766 919 2766 1478 
L 2766 2988 
L 2266 2988 
L 2266 3322 
z
" transform="scale(0.015625)"/>
       <path id="DejaVuSerif-6e" d="M 263 0 
L 263 331 
L 781 331 
L 781 2988 
L 231 2988 
L 231 3322 
L 1356 3322 
L 1356 2731 
Q 1516 3069 1770 3241 
Q 2025 3413 2363 3413 
Q 2913 3413 3172 3097 
Q 3431 2781 3431 2113 
L 3431 331 
L 3944 331 
L 3944 0 
L 2356 0 
L 2356 331 
L 2853 331 
L 2853 1931 
Q 2853 2541 2703 2767 
Q 2553 2994 2175 2994 
Q 1775 2994 1565 2701 
Q 1356 2409 1356 1850 
L 1356 331 
L 1856 331 
L 1856 0 
L 263 0 
z
" transform="scale(0.015625)"/>
       <path id="DejaVuSerif-63" d="M 3291 997 
Q 3169 466 2822 187 
Q 2475 -91 1925 -91 
Q 1200 -91 759 389 
Q 319 869 319 1663 
Q 319 2459 759 2936 
Q 1200 3413 1925 3413 
Q 2241 3413 2553 3339 
Q 2866 3266 3181 3116 
L 3181 2266 
L 2847 2266 
Q 2781 2703 2561 2903 
Q 2341 3103 1931 3103 
Q 1466 3103 1228 2742 
Q 991 2381 991 1663 
Q 991 944 1227 581 
Q 1463 219 1931 219 
Q 2303 219 2525 412 
Q 2747 606 2828 997 
L 3291 997 
z
" transform="scale(0.015625)"/>
       <path id="DejaVuSerif-79" d="M 1381 -609 
L 1600 -56 
L 359 2988 
L -19 2988 
L -19 3322 
L 1509 3322 
L 1509 2988 
L 978 2988 
L 1913 703 
L 2847 2988 
L 2350 2988 
L 2350 3322 
L 3597 3322 
L 3597 2988 
L 3225 2988 
L 1703 -750 
Q 1547 -1138 1356 -1280 
Q 1166 -1422 819 -1422 
Q 672 -1422 517 -1397 
Q 363 -1372 206 -1325 
L 206 -691 
L 500 -691 
Q 519 -903 608 -995 
Q 697 -1088 884 -1088 
Q 1056 -1088 1161 -992 
Q 1266 -897 1381 -609 
z
" transform="scale(0.015625)"/>
       <path id="DejaVuSerif-20" transform="scale(0.015625)"/>
       <path id="DejaVuSerif-28" d="M 2041 -997 
Q 1281 -656 893 83 
Q 506 822 506 1931 
Q 506 3044 893 3783 
Q 1281 4522 2041 4863 
L 2041 4556 
Q 1559 4225 1350 3623 
Q 1141 3022 1141 1931 
Q 1141 844 1350 242 
Q 1559 -359 2041 -691 
L 2041 -997 
z
" transform="scale(0.015625)"/>
       <path id="DejaVuSerif-48" d="M 353 0 
L 353 331 
L 947 331 
L 947 4331 
L 353 4331 
L 353 4666 
L 2175 4666 
L 2175 4331 
L 1581 4331 
L 1581 2719 
L 4000 2719 
L 4000 4331 
L 3406 4331 
L 3406 4666 
L 5228 4666 
L 5228 4331 
L 4634 4331 
L 4634 331 
L 5228 331 
L 5228 0 
L 3406 0 
L 3406 331 
L 4000 331 
L 4000 2338 
L 1581 2338 
L 1581 331 
L 2175 331 
L 2175 0 
L 353 0 
z
" transform="scale(0.015625)"/>
       <path id="DejaVuSerif-7a" d="M 256 0 
L 256 269 
L 2338 2988 
L 691 2988 
L 691 2413 
L 359 2413 
L 359 3322 
L 3078 3322 
L 3078 3053 
L 997 331 
L 2803 331 
L 2803 934 
L 3138 934 
L 3138 0 
L 256 0 
z
" transform="scale(0.015625)"/>
       <path id="DejaVuSerif-29" d="M 453 -997 
L 453 -691 
Q 934 -359 1145 242 
Q 1356 844 1356 1931 
Q 1356 3022 1145 3623 
Q 934 4225 453 4556 
L 453 4863 
Q 1216 4522 1603 3783 
Q 1991 3044 1991 1931 
Q 1991 822 1603 83 
Q 1216 -656 453 -997 
z
" transform="scale(0.015625)"/>
      </defs>
      <use xlink:href="#DejaVuSerif-46"/>
      <use xlink:href="#DejaVuSerif-72" transform="translate(69.384766 0)"/>
      <use xlink:href="#DejaVuSerif-65" transform="translate(117.1875 0)"/>
      <use xlink:href="#DejaVuSerif-71" transform="translate(176.367188 0)"/>
      <use xlink:href="#DejaVuSerif-75" transform="translate(240.380859 0)"/>
      <use xlink:href="#DejaVuSerif-65" transform="translate(304.785156 0)"/>
      <use xlink:href="#DejaVuSerif-6e" transform="translate(363.964844 0)"/>
      <use xlink:href="#DejaVuSerif-63" transform="translate(428.369141 0)"/>
      <use xlink:href="#DejaVuSerif-79" transform="translate(484.375 0)"/>
      <use xlink:href="#DejaVuSerif-20" transform="translate(540.869141 0)"/>
      <use xlink:href="#DejaVuSerif-28" transform="translate(572.65625 0)"/>
      <use xlink:href="#DejaVuSerif-48" transform="translate(611.669922 0)"/>
      <use xlink:href="#DejaVuSerif-7a" transform="translate(698.876953 0)"/>
      <use xlink:href="#DejaVuSerif-29" transform="translate(751.5625 0)"/>
     </g>
    </g>
   </g>
   <g id="matplotlib.axis_2">
    <g id="ytick_1">
     <g id="line2d_17">
      <path d="M 53.722813 370.325889 
L 723.322813 370.325889 
" clip-path="url(#p0be1b4c89b)" style="fill: none; stroke-dasharray: 2.96,1.28; stroke-dashoffset: 0; stroke: #dddddd; stroke-width: 0.8"/>
     </g>
     <g id="line2d_18">
      <defs>
       <path id="mede7bcf9c0" d="M 0 0 
L -3.5 0 
" style="stroke: #333333; stroke-width: 0.8"/>
      </defs>
      <g>
       <use xlink:href="#mede7bcf9c0" x="53.722813" y="370.325889" style="fill: #333333; stroke: #333333; stroke-width: 0.8"/>
      </g>
     </g>
     <g id="text_10">
      <!-- −132 -->
      <g style="fill: #333333" transform="translate(22.002344 373.745186) scale(0.09 -0.09)">
       <defs>
        <path id="DejaVuSerif-2212" d="M 678 2259 
L 4684 2259 
L 4684 1753 
L 678 1753 
L 678 2259 
z
" transform="scale(0.015625)"/>
       </defs>
       <use xlink:href="#DejaVuSerif-2212"/>
       <use xlink:href="#DejaVuSerif-31" transform="translate(83.789062 0)"/>
       <use xlink:href="#DejaVuSerif-33" transform="translate(147.412109 0)"/>
       <use xlink:href="#DejaVuSerif-32" transform="translate(211.035156 0)"/>
      </g>
     </g>
    </g>
    <g id="ytick_2">
     <g id="line2d_19">
      <path d="M 53.722813 313.362729 
L 723.322813 313.362729 
" clip-path="url(#p0be1b4c89b)" style="fill: none; stroke-dasharray: 2.96,1.28; stroke-dashoffset: 0; stroke: #dddddd; stroke-width: 0.8"/>
     </g>
     <g id="line2d_20">
      <g>
       <use xlink:href="#mede7bcf9c0" x="53.722813" y="313.362729" style="fill: #333333; stroke: #333333; stroke-width: 0.8"/>
      </g>
     </g>
     <g id="text_11">
      <!-- −130 -->
      <g style="fill: #333333" transform="translate(22.002344 316.782026) scale(0.09 -0.09)">
       <use xlink:href="#DejaVuSerif-2212"/>
       <use xlink:href="#DejaVuSerif-31" transform="translate(83.789062 0)"/>
       <use xlink:href="#DejaVuSerif-33" transform="translate(147.412109 0)"/>
       <use xlink:href="#DejaVuSerif-30" transform="translate(211.035156 0)"/>
      </g>
     </g>
    </g>
    <g id="ytick_3">
     <g id="line2d_21">
      <path d="M 53.722813 256.399568 
L 723.322813 256.399568 
" clip-path="url(#p0be1b4c89b)" style="fill: none; stroke-dasharray: 2.96,1.28; stroke-dashoffset: 0; stroke: #dddddd; stroke-width: 0.8"/>
     </g>
     <g id="line2d_22">
      <g>
       <use xlink:href="#mede7bcf9c0" x="53.722813" y="256.399568" style="fill: #333333; stroke: #333333; stroke-width: 0.8"/>
      </g>
     </g>
     <g id="text_12">
      <!-- −128 -->
      <g style="fill: #333333" transform="translate(22.002344 259.818865) scale(0.09 -0.09)">
       <defs>
        <path id="DejaVuSerif-38" d="M 2981 1275 
Q 2981 1775 2732 2051 
Q 2484 2328 2034 2328 
Q 1584 2328 1336 2051 
Q 1088 1775 1088 1275 
Q 1088 772 1336 495 
Q 1584 219 2034 219 
Q 2484 219 2732 495 
Q 2981 772 2981 1275 
z
M 2853 3541 
Q 2853 3966 2637 4203 
Q 2422 4441 2034 4441 
Q 1650 4441 1433 4203 
Q 1216 3966 1216 3541 
Q 1216 3113 1433 2875 
Q 1650 2638 2034 2638 
Q 2422 2638 2637 2875 
Q 2853 3113 2853 3541 
z
M 2516 2484 
Q 3047 2413 3344 2092 
Q 3641 1772 3641 1275 
Q 3641 619 3225 264 
Q 2809 -91 2034 -91 
Q 1263 -91 845 264 
Q 428 619 428 1275 
Q 428 1772 725 2092 
Q 1022 2413 1556 2484 
Q 1084 2569 832 2842 
Q 581 3116 581 3541 
Q 581 4103 968 4426 
Q 1356 4750 2034 4750 
Q 2713 4750 3100 4426 
Q 3488 4103 3488 3541 
Q 3488 3116 3236 2842 
Q 2984 2569 2516 2484 
z
" transform="scale(0.015625)"/>
       </defs>
       <use xlink:href="#DejaVuSerif-2212"/>
       <use xlink:href="#DejaVuSerif-31" transform="translate(83.789062 0)"/>
       <use xlink:href="#DejaVuSerif-32" transform="translate(147.412109 0)"/>
       <use xlink:href="#DejaVuSerif-38" transform="translate(211.035156 0)"/>
      </g>
     </g>
    </g>
    <g id="ytick_4">
     <g id="line2d_23">
      <path d="M 53.722813 199.436408 
L 723.322813 199.436408 
" clip-path="url(#p0be1b4c89b)" style="fill: none; stroke-dasharray: 2.96,1.28; stroke-dashoffset: 0; stroke: #dddddd; stroke-width: 0.8"/>
     </g>
     <g id="line2d_24">
      <g>
       <use xlink:href="#mede7bcf9c0" x="53.722813" y="199.436408" style="fill: #333333; stroke: #333333; stroke-width: 0.8"/>
      </g>
     </g>
     <g id="text_13">
      <!-- −126 -->
      <g style="fill: #333333" transform="translate(22.002344 202.855704) scale(0.09 -0.09)">
       <defs>
        <path id="DejaVuSerif-36" d="M 2094 219 
Q 2534 219 2771 542 
Q 3009 866 3009 1472 
Q 3009 2078 2771 2401 
Q 2534 2725 2094 2725 
Q 1647 2725 1412 2412 
Q 1178 2100 1178 1509 
Q 1178 888 1415 553 
Q 1653 219 2094 219 
z
M 1075 2569 
Q 1288 2803 1556 2918 
Q 1825 3034 2163 3034 
Q 2859 3034 3264 2615 
Q 3669 2197 3669 1472 
Q 3669 763 3233 336 
Q 2797 -91 2069 -91 
Q 1278 -91 853 498 
Q 428 1088 428 2181 
Q 428 3406 931 4078 
Q 1434 4750 2350 4750 
Q 2597 4750 2869 4703 
Q 3141 4656 3425 4563 
L 3425 3794 
L 3072 3794 
Q 3034 4109 2831 4275 
Q 2628 4441 2284 4441 
Q 1678 4441 1381 3981 
Q 1084 3522 1075 2569 
z
" transform="scale(0.015625)"/>
       </defs>
       <use xlink:href="#DejaVuSerif-2212"/>
       <use xlink:href="#DejaVuSerif-31" transform="translate(83.789062 0)"/>
       <use xlink:href="#DejaVuSerif-32" transform="translate(147.412109 0)"/>
       <use xlink:href="#DejaVuSerif-36" transform="translate(211.035156 0)"/>
      </g>
     </g>
    </g>
    <g id="ytick_5">
     <g id="line2d_25">
      <path d="M 53.722813 142.473247 
L 723.322813 142.473247 
" clip-path="url(#p0be1b4c89b)" style="fill: none; stroke-dasharray: 2.96,1.28; stroke-dashoffset: 0; stroke: #dddddd; stroke-width: 0.8"/>
     </g>
     <g id="line2d_26">
      <g>
       <use xlink:href="#mede7bcf9c0" x="53.722813" y="142.473247" style="fill: #333333; stroke: #333333; stroke-width: 0.8"/>
      </g>
     </g>
     <g id="text_14">
      <!-- −124 -->
      <g style="fill: #333333" transform="translate(22.002344 145.892544) scale(0.09 -0.09)">
       <use xlink:href="#DejaVuSerif-2212"/>
       <use xlink:href="#DejaVuSerif-31" transform="translate(83.789062 0)"/>
       <use xlink:href="#DejaVuSerif-32" transform="translate(147.412109 0)"/>
       <use xlink:href="#DejaVuSerif-34" transform="translate(211.035156 0)"/>
      </g>
     </g>
    </g>
    <g id="ytick_6">
     <g id="line2d_27">
      <path d="M 53.722813 85.510086 
L 723.322813 85.510086 
" clip-path="url(#p0be1b4c89b)" style="fill: none; stroke-dasharray: 2.96,1.28; stroke-dashoffset: 0; stroke: #dddddd; stroke-width: 0.8"/>
     </g>
     <g id="line2d_28">
      <g>
       <use xlink:href="#mede7bcf9c0" x="53.722813" y="85.510086" style="fill: #333333; stroke: #333333; stroke-width: 0.8"/>
      </g>
     </g>
     <g id="text_15">
      <!-- −122 -->
      <g style="fill: #333333" transform="translate(22.002344 88.929383) scale(0.09 -0.09)">
       <use xlink:href="#DejaVuSerif-2212"/>
       <use xlink:href="#DejaVuSerif-31" transform="translate(83.789062 0)"/>
       <use xlink:href="#DejaVuSerif-32" transform="translate(147.412109 0)"/>
       <use xlink:href="#DejaVuSerif-32" transform="translate(211.035156 0)"/>
      </g>
     </g>
    </g>
    <g id="ytick_7">
     <g id="line2d_29">
      <path d="M 53.722813 28.546926 
L 723.322813 28.546926 
" clip-path="url(#p0be1b4c89b)" style="fill: none; stroke-dasharray: 2.96,1.28; stroke-dashoffset: 0; stroke: #dddddd; stroke-width: 0.8"/>
     </g>
     <g id="line2d_30">
      <g>
       <use xlink:href="#mede7bcf9c0" x="53.722813" y="28.546926" style="fill: #333333; stroke: #333333; stroke-width: 0.8"/>
      </g>
     </g>
     <g id="text_16">
      <!-- −120 -->
      <g style="fill: #333333" transform="translate(22.002344 31.966223) scale(0.09 -0.09)">
       <use xlink:href="#DejaVuSerif-2212"/>
       <use xlink:href="#DejaVuSerif-31" transform="translate(83.789062 0)"/>
       <use xlink:href="#DejaVuSerif-32" transform="translate(147.412109 0)"/>
       <use xlink:href="#DejaVuSerif-30" transform="translate(211.035156 0)"/>
      </g>
     </g>
    </g>
    <g id="text_17">
     <!-- Power Spectral Density (dB) -->
     <g transform="translate(15.558281 296.263984) rotate(-90) scale(0.11 -0.11)">
      <defs>
       <path id="DejaVuSerif-50" d="M 1581 2375 
L 2406 2375 
Q 2872 2375 3115 2626 
Q 3359 2878 3359 3353 
Q 3359 3831 3115 4081 
Q 2872 4331 2406 4331 
L 1581 4331 
L 1581 2375 
z
M 353 0 
L 353 331 
L 947 331 
L 947 4331 
L 353 4331 
L 353 4666 
L 2559 4666 
Q 3259 4666 3668 4311 
Q 4078 3956 4078 3353 
Q 4078 2753 3668 2397 
Q 3259 2041 2559 2041 
L 1581 2041 
L 1581 331 
L 2303 331 
L 2303 0 
L 353 0 
z
" transform="scale(0.015625)"/>
       <path id="DejaVuSerif-6f" d="M 1925 219 
Q 2388 219 2623 584 
Q 2859 950 2859 1663 
Q 2859 2375 2623 2739 
Q 2388 3103 1925 3103 
Q 1463 3103 1227 2739 
Q 991 2375 991 1663 
Q 991 950 1228 584 
Q 1466 219 1925 219 
z
M 1925 -91 
Q 1200 -91 759 389 
Q 319 869 319 1663 
Q 319 2456 758 2934 
Q 1197 3413 1925 3413 
Q 2653 3413 3092 2934 
Q 3531 2456 3531 1663 
Q 3531 869 3092 389 
Q 2653 -91 1925 -91 
z
" transform="scale(0.015625)"/>
       <path id="DejaVuSerif-77" d="M 3072 3322 
L 3922 728 
L 4672 2988 
L 4191 2988 
L 4191 3322 
L 5394 3322 
L 5394 2988 
L 5025 2988 
L 4038 0 
L 3559 0 
L 2741 2484 
L 1919 0 
L 1459 0 
L 475 2988 
L 103 2988 
L 103 3322 
L 1606 3322 
L 1606 2988 
L 1069 2988 
L 1813 728 
L 2669 3322 
L 3072 3322 
z
" transform="scale(0.015625)"/>
       <path id="DejaVuSerif-53" d="M 594 225 
L 594 1288 
L 953 1284 
Q 969 753 1261 498 
Q 1553 244 2150 244 
Q 2706 244 2998 464 
Q 3291 684 3291 1106 
Q 3291 1444 3114 1625 
Q 2938 1806 2369 1978 
L 1753 2163 
Q 1084 2366 811 2669 
Q 538 2972 538 3500 
Q 538 4094 959 4422 
Q 1381 4750 2144 4750 
Q 2469 4750 2856 4679 
Q 3244 4609 3681 4475 
L 3681 3481 
L 3328 3481 
Q 3275 3975 2998 4195 
Q 2722 4416 2156 4416 
Q 1663 4416 1405 4214 
Q 1147 4013 1147 3628 
Q 1147 3294 1340 3103 
Q 1534 2913 2163 2725 
L 2741 2553 
Q 3375 2363 3645 2067 
Q 3916 1772 3916 1275 
Q 3916 597 3481 253 
Q 3047 -91 2188 -91 
Q 1803 -91 1404 -12 
Q 1006 66 594 225 
z
" transform="scale(0.015625)"/>
       <path id="DejaVuSerif-70" d="M 1313 1825 
L 1313 1497 
Q 1313 897 1542 583 
Q 1772 269 2209 269 
Q 2650 269 2876 622 
Q 3103 975 3103 1663 
Q 3103 2353 2876 2703 
Q 2650 3053 2209 3053 
Q 1772 3053 1542 2737 
Q 1313 2422 1313 1825 
z
M 738 2988 
L 184 2988 
L 184 3322 
L 1313 3322 
L 1313 2803 
Q 1481 3116 1742 3264 
Q 2003 3413 2388 3413 
Q 3000 3413 3387 2928 
Q 3775 2444 3775 1663 
Q 3775 881 3387 395 
Q 3000 -91 2388 -91 
Q 2003 -91 1742 57 
Q 1481 206 1313 519 
L 1313 -997 
L 1856 -997 
L 1856 -1331 
L 184 -1331 
L 184 -997 
L 738 -997 
L 738 2988 
z
" transform="scale(0.015625)"/>
       <path id="DejaVuSerif-74" d="M 691 2988 
L 184 2988 
L 184 3322 
L 691 3322 
L 691 4353 
L 1269 4353 
L 1269 3322 
L 2350 3322 
L 2350 2988 
L 1269 2988 
L 1269 878 
Q 1269 456 1350 337 
Q 1431 219 1650 219 
Q 1875 219 1978 351 
Q 2081 484 2088 781 
L 2522 781 
Q 2497 328 2275 118 
Q 2053 -91 1600 -91 
Q 1103 -91 897 129 
Q 691 350 691 878 
L 691 2988 
z
" transform="scale(0.015625)"/>
       <path id="DejaVuSerif-61" d="M 2547 1044 
L 2547 1747 
L 1806 1747 
Q 1378 1747 1168 1562 
Q 959 1378 959 997 
Q 959 650 1171 447 
Q 1384 244 1747 244 
Q 2106 244 2326 466 
Q 2547 688 2547 1044 
z
M 3122 2075 
L 3122 331 
L 3634 331 
L 3634 0 
L 2547 0 
L 2547 359 
Q 2356 128 2106 18 
Q 1856 -91 1522 -91 
Q 969 -91 644 203 
Q 319 497 319 997 
Q 319 1513 691 1797 
Q 1063 2081 1741 2081 
L 2547 2081 
L 2547 2309 
Q 2547 2688 2317 2895 
Q 2088 3103 1672 3103 
Q 1328 3103 1125 2947 
Q 922 2791 872 2484 
L 575 2484 
L 575 3156 
Q 875 3284 1158 3348 
Q 1441 3413 1709 3413 
Q 2400 3413 2761 3070 
Q 3122 2728 3122 2075 
z
" transform="scale(0.015625)"/>
       <path id="DejaVuSerif-6c" d="M 1313 331 
L 1856 331 
L 1856 0 
L 184 0 
L 184 331 
L 738 331 
L 738 4531 
L 184 4531 
L 184 4863 
L 1313 4863 
L 1313 331 
z
" transform="scale(0.015625)"/>
       <path id="DejaVuSerif-44" d="M 1581 331 
L 2163 331 
Q 3072 331 3558 850 
Q 4044 1369 4044 2338 
Q 4044 3306 3559 3818 
Q 3075 4331 2163 4331 
L 1581 4331 
L 1581 331 
z
M 353 0 
L 353 331 
L 947 331 
L 947 4331 
L 353 4331 
L 353 4666 
L 2209 4666 
Q 3416 4666 4089 4050 
Q 4763 3434 4763 2338 
Q 4763 1238 4088 619 
Q 3413 0 2209 0 
L 353 0 
z
" transform="scale(0.015625)"/>
       <path id="DejaVuSerif-73" d="M 359 184 
L 359 959 
L 691 959 
Q 703 588 923 403 
Q 1144 219 1575 219 
Q 1963 219 2166 364 
Q 2369 509 2369 788 
Q 2369 1006 2220 1140 
Q 2072 1275 1594 1428 
L 1178 1569 
Q 750 1706 558 1912 
Q 366 2119 366 2438 
Q 366 2894 700 3153 
Q 1034 3413 1625 3413 
Q 1888 3413 2178 3344 
Q 2469 3275 2778 3144 
L 2778 2419 
L 2447 2419 
Q 2434 2741 2221 2922 
Q 2009 3103 1644 3103 
Q 1281 3103 1095 2975 
Q 909 2847 909 2591 
Q 909 2381 1050 2254 
Q 1191 2128 1613 1997 
L 2069 1856 
Q 2541 1709 2748 1489 
Q 2956 1269 2956 922 
Q 2956 450 2595 179 
Q 2234 -91 1600 -91 
Q 1278 -91 972 -22 
Q 666 47 359 184 
z
" transform="scale(0.015625)"/>
       <path id="DejaVuSerif-69" d="M 622 4353 
Q 622 4497 726 4603 
Q 831 4709 978 4709 
Q 1122 4709 1226 4603 
Q 1331 4497 1331 4353 
Q 1331 4206 1228 4103 
Q 1125 4000 978 4000 
Q 831 4000 726 4103 
Q 622 4206 622 4353 
z
M 1356 331 
L 1900 331 
L 1900 0 
L 231 0 
L 231 331 
L 781 331 
L 781 2988 
L 231 2988 
L 231 3322 
L 1356 3322 
L 1356 331 
z
" transform="scale(0.015625)"/>
       <path id="DejaVuSerif-64" d="M 3359 331 
L 3909 331 
L 3909 0 
L 2784 0 
L 2784 519 
Q 2616 206 2355 57 
Q 2094 -91 1709 -91 
Q 1097 -91 708 395 
Q 319 881 319 1663 
Q 319 2444 706 2928 
Q 1094 3413 1709 3413 
Q 2094 3413 2355 3264 
Q 2616 3116 2784 2803 
L 2784 4531 
L 2241 4531 
L 2241 4863 
L 3359 4863 
L 3359 331 
z
M 2784 1497 
L 2784 1825 
Q 2784 2422 2554 2737 
Q 2325 3053 1888 3053 
Q 1444 3053 1217 2703 
Q 991 2353 991 1663 
Q 991 975 1217 622 
Q 1444 269 1888 269 
Q 2325 269 2554 583 
Q 2784 897 2784 1497 
z
" transform="scale(0.015625)"/>
       <path id="DejaVuSerif-42" d="M 1581 331 
L 2516 331 
Q 3078 331 3337 575 
Q 3597 819 3597 1350 
Q 3597 1878 3339 2120 
Q 3081 2363 2516 2363 
L 1581 2363 
L 1581 331 
z
M 1581 2694 
L 2375 2694 
Q 2888 2694 3123 2891 
Q 3359 3088 3359 3513 
Q 3359 3941 3123 4136 
Q 2888 4331 2375 4331 
L 1581 4331 
L 1581 2694 
z
M 353 0 
L 353 331 
L 947 331 
L 947 4331 
L 353 4331 
L 353 4666 
L 2656 4666 
Q 3363 4666 3720 4377 
Q 4078 4088 4078 3513 
Q 4078 3097 3829 2850 
Q 3581 2603 3103 2547 
Q 3697 2472 4005 2167 
Q 4313 1863 4313 1350 
Q 4313 656 3875 328 
Q 3438 0 2509 0 
L 353 0 
z
" transform="scale(0.015625)"/>
      </defs>
      <use xlink:href="#DejaVuSerif-50"/>
      <use xlink:href="#DejaVuSerif-6f" transform="translate(63.285156 0)"/>
      <use xlink:href="#DejaVuSerif-77" transform="translate(123.490234 0)"/>
      <use xlink:href="#DejaVuSerif-65" transform="translate(209.085938 0)"/>
      <use xlink:href="#DejaVuSerif-72" transform="translate(268.265625 0)"/>
      <use xlink:href="#DejaVuSerif-20" transform="translate(316.068359 0)"/>
      <use xlink:href="#DejaVuSerif-53" transform="translate(347.855469 0)"/>
      <use xlink:href="#DejaVuSerif-70" transform="translate(416.361328 0)"/>
      <use xlink:href="#DejaVuSerif-65" transform="translate(480.375 0)"/>
      <use xlink:href="#DejaVuSerif-63" transform="translate(539.554688 0)"/>
      <use xlink:href="#DejaVuSerif-74" transform="translate(595.560547 0)"/>
      <use xlink:href="#DejaVuSerif-72" transform="translate(635.746094 0)"/>
      <use xlink:href="#DejaVuSerif-61" transform="translate(683.548828 0)"/>
      <use xlink:href="#DejaVuSerif-6c" transform="translate(743.167969 0)"/>
      <use xlink:href="#DejaVuSerif-20" transform="translate(775.150391 0)"/>
      <use xlink:href="#DejaVuSerif-44" transform="translate(806.9375 0)"/>
      <use xlink:href="#DejaVuSerif-65" transform="translate(887.113281 0)"/>
      <use xlink:href="#DejaVuSerif-6e" transform="translate(946.292969 0)"/>
      <use xlink:href="#DejaVuSerif-73" transform="translate(1010.697266 0)"/>
      <use xlink:href="#DejaVuSerif-69" transform="translate(1062.015625 0)"/>
      <use xlink:href="#DejaVuSerif-74" transform="translate(1093.998047 0)"/>
      <use xlink:href="#DejaVuSerif-79" transform="translate(1134.183594 0)"/>
      <use xlink:href="#DejaVuSerif-20" transform="translate(1190.677734 0)"/>
      <use xlink:href="#DejaVuSerif-28" transform="translate(1222.464844 0)"/>
      <use xlink:href="#DejaVuSerif-64" transform="translate(1261.478516 0)"/>
      <use xlink:href="#DejaVuSerif-42" transform="translate(1325.492188 0)"/>
      <use xlink:href="#DejaVuSerif-29" transform="translate(1398.978516 0)"/>
     </g>
    </g>
   </g>
   <g id="line2d_31">
    <path d="M 84.159176 47.042198 
L 92.613722 68.588937 
L 101.068267 83.062093 
L 109.522812 93.928935 
L 117.977358 101.266116 
L 126.431903 100.478884 
L 134.886449 96.354762 
L 143.340994 94.912534 
L 151.79554 97.83924 
L 160.250085 106.434661 
L 168.704631 119.470496 
L 177.159176 132.610983 
L 185.613722 144.957707 
L 194.068267 156.590779 
L 202.522812 163.038936 
L 210.977358 168.765923 
L 219.431903 179.447828 
L 227.886449 192.851264 
L 236.340994 202.899354 
L 244.79554 210.653971 
L 253.250085 216.809353 
L 261.704631 220.528938 
L 270.159176 224.443286 
L 278.613722 229.596723 
L 287.068267 233.224631 
L 295.522812 235.537953 
L 303.977358 237.72317 
L 312.431903 240.954979 
L 320.886449 243.790289 
L 329.340994 243.275046 
L 337.79554 239.368493 
L 346.250085 234.214331 
L 354.704631 230.754192 
L 363.159176 230.724435 
L 371.613722 233.22663 
L 380.068267 235.056257 
L 388.522812 234.150769 
L 396.977358 234.00382 
L 405.431903 235.577154 
L 413.886449 236.417998 
L 422.340994 236.592843 
L 430.79554 238.005877 
L 439.250085 240.165217 
L 447.704631 242.402691 
L 456.159176 244.555949 
L 464.613722 244.974367 
L 473.068267 243.714762 
L 481.522812 244.648028 
L 489.977358 250.450852 
L 498.431903 257.418156 
L 506.886449 264.748306 
L 515.340994 271.745158 
L 523.79554 276.546284 
L 532.250085 280.269291 
L 540.704631 287.105246 
L 549.159176 297.353583 
L 557.613722 307.626836 
L 566.068267 314.79887 
L 574.522812 319.519817 
L 582.977358 322.877743 
L 591.431903 326.691255 
L 599.886449 331.33142 
L 608.340994 334.556713 
L 616.79554 335.895122 
L 625.250085 337.827831 
L 633.704631 341.78408 
L 642.159176 346.397041 
L 650.613722 349.71421 
L 659.068267 351.777258 
L 667.522812 352.961262 
L 675.977358 353.582791 
L 684.431903 354.093836 
L 692.886449 356.121205 
" clip-path="url(#p0be1b4c89b)" style="fill: none; stroke: #1f77b4; stroke-width: 1.5; stroke-linecap: square"/>
   </g>
   <g id="line2d_32">
    <path d="M 84.159176 107.74721 
L 92.613722 105.307991 
L 101.068267 105.300103 
L 109.522812 115.373188 
L 117.977358 123.735134 
L 126.431903 122.357304 
L 134.886449 112.935309 
L 143.340994 106.525487 
L 151.79554 117.189639 
L 160.250085 144.056764 
L 168.704631 170.494704 
L 177.159176 179.670653 
L 185.613722 179.281714 
L 194.068267 179.041396 
L 202.522812 183.201561 
L 210.977358 195.012382 
L 219.431903 214.012521 
L 227.886449 233.01701 
L 236.340994 245.465701 
L 244.79554 245.944459 
L 253.250085 237.832012 
L 261.704631 239.310609 
L 270.159176 255.297167 
L 278.613722 268.682374 
L 287.068267 258.063829 
L 295.522812 236.066129 
L 303.977358 223.416555 
L 312.431903 220.288678 
L 320.886449 216.809212 
L 329.340994 213.770868 
L 337.79554 219.045878 
L 346.250085 230.257548 
L 354.704631 227.688045 
L 363.159176 212.334272 
L 371.613722 204.251854 
L 380.068267 204.941265 
L 388.522812 203.336029 
L 396.977358 195.266371 
L 405.431903 192.861835 
L 413.886449 196.723572 
L 422.340994 200.773776 
L 430.79554 207.133711 
L 439.250085 220.847158 
L 447.704631 233.091314 
L 456.159176 230.766143 
L 464.613722 218.045971 
L 473.068267 206.736043 
L 481.522812 213.170624 
L 489.977358 225.514462 
L 498.431903 223.497524 
L 506.886449 217.855895 
L 515.340994 223.779796 
L 523.79554 236.883527 
L 532.250085 242.861522 
L 540.704631 248.265278 
L 549.159176 262.572377 
L 557.613722 277.108524 
L 566.068267 288.725788 
L 574.522812 302.911319 
L 582.977358 315.552267 
L 591.431903 322.255033 
L 599.886449 324.065873 
L 608.340994 321.731152 
L 616.79554 317.856092 
L 625.250085 318.926314 
L 633.704631 322.160021 
L 642.159176 319.300449 
L 650.613722 317.980671 
L 659.068267 322.879212 
L 667.522812 333.646431 
L 675.977358 340.513437 
L 684.431903 340.30324 
L 692.886449 338.151806 
" clip-path="url(#p0be1b4c89b)" style="fill: none; stroke: #8c564b; stroke-width: 1.5; stroke-linecap: square"/>
   </g>
   <g id="line2d_33">
    <path d="M 84.159176 40.774844 
L 92.613722 73.725732 
L 101.068267 83.734291 
L 109.522812 82.588051 
L 117.977358 83.607846 
L 126.431903 94.468728 
L 134.886449 107.768038 
L 143.340994 123.562648 
L 151.79554 142.54551 
L 160.250085 162.290125 
L 168.704631 169.925251 
L 177.159176 161.778833 
L 185.613722 157.315226 
L 194.068267 160.986137 
L 202.522812 171.481179 
L 210.977358 182.87964 
L 219.431903 188.756179 
L 227.886449 195.287476 
L 236.340994 207.813908 
L 244.79554 213.322732 
L 253.250085 210.858275 
L 261.704631 208.597268 
L 270.159176 209.163897 
L 278.613722 214.586032 
L 287.068267 220.689918 
L 295.522812 216.636274 
L 303.977358 210.37135 
L 312.431903 214.864056 
L 320.886449 226.729158 
L 329.340994 231.066743 
L 337.79554 234.204266 
L 346.250085 242.333736 
L 354.704631 244.760854 
L 363.159176 236.54178 
L 371.613722 223.679931 
L 380.068267 216.674366 
L 388.522812 216.71201 
L 396.977358 222.490175 
L 405.431903 228.529345 
L 413.886449 231.128119 
L 422.340994 232.539636 
L 430.79554 231.465474 
L 439.250085 232.366475 
L 447.704631 234.036297 
L 456.159176 234.252261 
L 464.613722 230.225239 
L 473.068267 222.318208 
L 481.522812 221.456833 
L 489.977358 226.99843 
L 498.431903 232.131149 
L 506.886449 238.984604 
L 515.340994 251.044428 
L 523.79554 264.078424 
L 532.250085 275.516414 
L 540.704631 285.262795 
L 549.159176 290.053473 
L 557.613722 291.91654 
L 566.068267 298.944724 
L 574.522812 311.103051 
L 582.977358 313.861078 
L 591.431903 309.459649 
L 599.886449 307.271616 
L 608.340994 303.953435 
L 616.79554 299.956224 
L 625.250085 305.331939 
L 633.704631 315.88182 
L 642.159176 314.540182 
L 650.613722 311.00803 
L 659.068267 311.67256 
L 667.522812 315.449145 
L 675.977358 318.856646 
L 684.431903 315.768103 
L 692.886449 303.14437 
" clip-path="url(#p0be1b4c89b)" style="fill: none; stroke: #17becf; stroke-width: 1.5; stroke-linecap: square"/>
   </g>
   <g id="patch_3">
    <path d="M 53.722813 411.214844 
L 53.722813 23.134844 
" style="fill: none; stroke: #333333; stroke-linejoin: miter; stroke-linecap: square"/>
   </g>
   <g id="patch_4">
    <path d="M 53.722812 411.214844 
L 723.322812 411.214844 
" style="fill: none; stroke: #333333; stroke-linejoin: miter; stroke-linecap: square"/>
   </g>
   <g id="text_18">
    <!-- Dataset: Touryan et al. (2022) | Subject: 12 | Session: 2 | All Task-State PSDs -->
    <g transform="translate(135.068516 17.134844) scale(0.13 -0.13)">
     <defs>
      <path id="DejaVuSerif-3a" d="M 666 325 
Q 666 500 786 622 
Q 906 744 1081 744 
Q 1256 744 1376 622 
Q 1497 500 1497 325 
Q 1497 150 1378 29 
Q 1259 -91 1081 -91 
Q 903 -91 784 29 
Q 666 150 666 325 
z
M 666 2363 
Q 666 2538 786 2658 
Q 906 2778 1081 2778 
Q 1259 2778 1378 2659 
Q 1497 2541 1497 2363 
Q 1497 2184 1378 2065 
Q 1259 1947 1081 1947 
Q 906 1947 786 2067 
Q 666 2188 666 2363 
z
" transform="scale(0.015625)"/>
      <path id="DejaVuSerif-54" d="M 1222 0 
L 1222 331 
L 1819 331 
L 1819 4294 
L 447 4294 
L 447 3566 
L 63 3566 
L 63 4666 
L 4206 4666 
L 4206 3566 
L 3822 3566 
L 3822 4294 
L 2450 4294 
L 2450 331 
L 3047 331 
L 3047 0 
L 1222 0 
z
" transform="scale(0.015625)"/>
      <path id="DejaVuSerif-2e" d="M 603 325 
Q 603 500 722 622 
Q 841 744 1019 744 
Q 1191 744 1312 622 
Q 1434 500 1434 325 
Q 1434 153 1312 31 
Q 1191 -91 1019 -91 
Q 841 -91 722 29 
Q 603 150 603 325 
z
" transform="scale(0.015625)"/>
      <path id="DejaVuSerif-7c" d="M 1331 4891 
L 1331 -1509 
L 825 -1509 
L 825 4891 
L 1331 4891 
z
" transform="scale(0.015625)"/>
      <path id="DejaVuSerif-62" d="M 738 331 
L 738 4531 
L 184 4531 
L 184 4863 
L 1313 4863 
L 1313 2803 
Q 1481 3116 1742 3264 
Q 2003 3413 2388 3413 
Q 3000 3413 3387 2928 
Q 3775 2444 3775 1663 
Q 3775 881 3387 395 
Q 3000 -91 2388 -91 
Q 2003 -91 1742 57 
Q 1481 206 1313 519 
L 1313 0 
L 184 0 
L 184 331 
L 738 331 
z
M 1313 1497 
Q 1313 897 1542 583 
Q 1772 269 2209 269 
Q 2650 269 2876 622 
Q 3103 975 3103 1663 
Q 3103 2353 2876 2703 
Q 2650 3053 2209 3053 
Q 1772 3053 1542 2737 
Q 1313 2422 1313 1825 
L 1313 1497 
z
" transform="scale(0.015625)"/>
      <path id="DejaVuSerif-6a" d="M 641 4353 
Q 641 4497 745 4603 
Q 850 4709 997 4709 
Q 1141 4709 1245 4603 
Q 1350 4497 1350 4353 
Q 1350 4206 1248 4103 
Q 1147 4000 997 4000 
Q 850 4000 745 4103 
Q 641 4206 641 4353 
z
M 781 2988 
L 238 2988 
L 238 3322 
L 1356 3322 
L 1356 -325 
Q 1356 -838 1051 -1130 
Q 747 -1422 213 -1422 
Q -13 -1422 -217 -1370 
Q -422 -1319 -616 -1216 
L -616 -531 
L -319 -531 
Q -297 -831 -164 -972 
Q -31 -1113 225 -1113 
Q 509 -1113 645 -920 
Q 781 -728 781 -325 
L 781 2988 
z
" transform="scale(0.015625)"/>
      <path id="DejaVuSerif-41" d="M 1281 1691 
L 2994 1691 
L 2138 3909 
L 1281 1691 
z
M -38 0 
L -38 331 
L 372 331 
L 2034 4666 
L 2559 4666 
L 4225 331 
L 4684 331 
L 4684 0 
L 2988 0 
L 2988 331 
L 3506 331 
L 3116 1356 
L 1153 1356 
L 763 331 
L 1275 331 
L 1275 0 
L -38 0 
z
" transform="scale(0.015625)"/>
      <path id="DejaVuSerif-6b" d="M 1831 0 
L 219 0 
L 219 331 
L 738 331 
L 738 4531 
L 184 4531 
L 184 4863 
L 1313 4863 
L 1313 1697 
L 2713 2988 
L 2234 2988 
L 2234 3322 
L 3738 3322 
L 3738 2988 
L 3169 2988 
L 2181 2075 
L 3444 331 
L 3922 331 
L 3922 0 
L 2284 0 
L 2284 331 
L 2759 331 
L 1766 1697 
L 1313 1275 
L 1313 331 
L 1831 331 
L 1831 0 
z
" transform="scale(0.015625)"/>
      <path id="DejaVuSerif-2d" d="M 281 1959 
L 1881 1959 
L 1881 1472 
L 281 1472 
L 281 1959 
z
" transform="scale(0.015625)"/>
     </defs>
     <use xlink:href="#DejaVuSerif-44"/>
     <use xlink:href="#DejaVuSerif-61" transform="translate(80.175781 0)"/>
     <use xlink:href="#DejaVuSerif-74" transform="translate(139.794922 0)"/>
     <use xlink:href="#DejaVuSerif-61" transform="translate(179.980469 0)"/>
     <use xlink:href="#DejaVuSerif-73" transform="translate(239.599609 0)"/>
     <use xlink:href="#DejaVuSerif-65" transform="translate(290.917969 0)"/>
     <use xlink:href="#DejaVuSerif-74" transform="translate(350.097656 0)"/>
     <use xlink:href="#DejaVuSerif-3a" transform="translate(390.283203 0)"/>
     <use xlink:href="#DejaVuSerif-20" transform="translate(423.974609 0)"/>
     <use xlink:href="#DejaVuSerif-54" transform="translate(455.761719 0)"/>
     <use xlink:href="#DejaVuSerif-6f" transform="translate(514.710938 0)"/>
     <use xlink:href="#DejaVuSerif-75" transform="translate(574.916016 0)"/>
     <use xlink:href="#DejaVuSerif-72" transform="translate(639.320312 0)"/>
     <use xlink:href="#DejaVuSerif-79" transform="translate(687.123047 0)"/>
     <use xlink:href="#DejaVuSerif-61" transform="translate(743.617188 0)"/>
     <use xlink:href="#DejaVuSerif-6e" transform="translate(803.236328 0)"/>
     <use xlink:href="#DejaVuSerif-20" transform="translate(867.640625 0)"/>
     <use xlink:href="#DejaVuSerif-65" transform="translate(899.427734 0)"/>
     <use xlink:href="#DejaVuSerif-74" transform="translate(958.607422 0)"/>
     <use xlink:href="#DejaVuSerif-20" transform="translate(998.792969 0)"/>
     <use xlink:href="#DejaVuSerif-61" transform="translate(1030.580078 0)"/>
     <use xlink:href="#DejaVuSerif-6c" transform="translate(1090.199219 0)"/>
     <use xlink:href="#DejaVuSerif-2e" transform="translate(1122.181641 0)"/>
     <use xlink:href="#DejaVuSerif-20" transform="translate(1153.96875 0)"/>
     <use xlink:href="#DejaVuSerif-28" transform="translate(1185.755859 0)"/>
     <use xlink:href="#DejaVuSerif-32" transform="translate(1224.769531 0)"/>
     <use xlink:href="#DejaVuSerif-30" transform="translate(1288.392578 0)"/>
     <use xlink:href="#DejaVuSerif-32" transform="translate(1352.015625 0)"/>
     <use xlink:href="#DejaVuSerif-32" transform="translate(1415.638672 0)"/>
     <use xlink:href="#DejaVuSerif-29" transform="translate(1479.261719 0)"/>
     <use xlink:href="#DejaVuSerif-20" transform="translate(1518.275391 0)"/>
     <use xlink:href="#DejaVuSerif-7c" transform="translate(1550.0625 0)"/>
     <use xlink:href="#DejaVuSerif-20" transform="translate(1583.753906 0)"/>
     <use xlink:href="#DejaVuSerif-53" transform="translate(1615.541016 0)"/>
     <use xlink:href="#DejaVuSerif-75" transform="translate(1684.046875 0)"/>
     <use xlink:href="#DejaVuSerif-62" transform="translate(1748.451172 0)"/>
     <use xlink:href="#DejaVuSerif-6a" transform="translate(1812.464844 0)"/>
     <use xlink:href="#DejaVuSerif-65" transform="translate(1843.470703 0)"/>
     <use xlink:href="#DejaVuSerif-63" transform="translate(1902.650391 0)"/>
     <use xlink:href="#DejaVuSerif-74" transform="translate(1958.65625 0)"/>
     <use xlink:href="#DejaVuSerif-3a" transform="translate(1998.841797 0)"/>
     <use xlink:href="#DejaVuSerif-20" transform="translate(2032.533203 0)"/>
     <use xlink:href="#DejaVuSerif-31" transform="translate(2064.320312 0)"/>
     <use xlink:href="#DejaVuSerif-32" transform="translate(2127.943359 0)"/>
     <use xlink:href="#DejaVuSerif-20" transform="translate(2191.566406 0)"/>
     <use xlink:href="#DejaVuSerif-7c" transform="translate(2223.353516 0)"/>
     <use xlink:href="#DejaVuSerif-20" transform="translate(2257.044922 0)"/>
     <use xlink:href="#DejaVuSerif-53" transform="translate(2288.832031 0)"/>
     <use xlink:href="#DejaVuSerif-65" transform="translate(2357.337891 0)"/>
     <use xlink:href="#DejaVuSerif-73" transform="translate(2416.517578 0)"/>
     <use xlink:href="#DejaVuSerif-73" transform="translate(2467.835938 0)"/>
     <use xlink:href="#DejaVuSerif-69" transform="translate(2519.154297 0)"/>
     <use xlink:href="#DejaVuSerif-6f" transform="translate(2551.136719 0)"/>
     <use xlink:href="#DejaVuSerif-6e" transform="translate(2611.341797 0)"/>
     <use xlink:href="#DejaVuSerif-3a" transform="translate(2675.746094 0)"/>
     <use xlink:href="#DejaVuSerif-20" transform="translate(2709.4375 0)"/>
     <use xlink:href="#DejaVuSerif-32" transform="translate(2741.224609 0)"/>
     <use xlink:href="#DejaVuSerif-20" transform="translate(2804.847656 0)"/>
     <use xlink:href="#DejaVuSerif-7c" transform="translate(2836.634766 0)"/>
     <use xlink:href="#DejaVuSerif-20" transform="translate(2870.326172 0)"/>
     <use xlink:href="#DejaVuSerif-41" transform="translate(2902.113281 0)"/>
     <use xlink:href="#DejaVuSerif-6c" transform="translate(2974.330078 0)"/>
     <use xlink:href="#DejaVuSerif-6c" transform="translate(3006.3125 0)"/>
     <use xlink:href="#DejaVuSerif-20" transform="translate(3038.294922 0)"/>
     <use xlink:href="#DejaVuSerif-54" transform="translate(3070.082031 0)"/>
     <use xlink:href="#DejaVuSerif-61" transform="translate(3129.03125 0)"/>
     <use xlink:href="#DejaVuSerif-73" transform="translate(3188.650391 0)"/>
     <use xlink:href="#DejaVuSerif-6b" transform="translate(3239.96875 0)"/>
     <use xlink:href="#DejaVuSerif-2d" transform="translate(3298.814453 0)"/>
     <use xlink:href="#DejaVuSerif-53" transform="translate(3332.603516 0)"/>
     <use xlink:href="#DejaVuSerif-74" transform="translate(3401.109375 0)"/>
     <use xlink:href="#DejaVuSerif-61" transform="translate(3441.294922 0)"/>
     <use xlink:href="#DejaVuSerif-74" transform="translate(3500.914062 0)"/>
     <use xlink:href="#DejaVuSerif-65" transform="translate(3541.099609 0)"/>
     <use xlink:href="#DejaVuSerif-20" transform="translate(3600.279297 0)"/>
     <use xlink:href="#DejaVuSerif-50" transform="translate(3632.066406 0)"/>
     <use xlink:href="#DejaVuSerif-53" transform="translate(3699.351562 0)"/>
     <use xlink:href="#DejaVuSerif-44" transform="translate(3767.857422 0)"/>
     <use xlink:href="#DejaVuSerif-73" transform="translate(3848.033203 0)"/>
    </g>
   </g>
   <g id="legend_1">
    <g id="line2d_34">
     <path d="M 578.844688 36.233281 
L 588.844688 36.233281 
L 598.844688 36.233281 
" style="fill: none; stroke: #1f77b4; stroke-width: 1.5; stroke-linecap: square"/>
    </g>
    <g id="text_19">
     <!-- police_detection - OT -->
     <g transform="translate(606.844688 39.733281) scale(0.1 -0.1)">
      <defs>
       <path id="DejaVuSerif-5f" d="M 3200 -1259 
L 3200 -1509 
L 0 -1509 
L 0 -1259 
L 3200 -1259 
z
" transform="scale(0.015625)"/>
       <path id="DejaVuSerif-4f" d="M 2625 244 
Q 3391 244 3781 770 
Q 4172 1297 4172 2328 
Q 4172 3363 3781 3889 
Q 3391 4416 2625 4416 
Q 1856 4416 1465 3889 
Q 1075 3363 1075 2328 
Q 1075 1297 1465 770 
Q 1856 244 2625 244 
z
M 2625 -91 
Q 2150 -91 1751 65 
Q 1353 222 1050 525 
Q 700 875 529 1319 
Q 359 1763 359 2328 
Q 359 2894 529 3339 
Q 700 3784 1050 4134 
Q 1356 4441 1750 4595 
Q 2144 4750 2625 4750 
Q 3641 4750 4266 4084 
Q 4891 3419 4891 2328 
Q 4891 1769 4719 1320 
Q 4547 872 4197 525 
Q 3891 219 3497 64 
Q 3103 -91 2625 -91 
z
" transform="scale(0.015625)"/>
      </defs>
      <use xlink:href="#DejaVuSerif-70"/>
      <use xlink:href="#DejaVuSerif-6f" transform="translate(64.013672 0)"/>
      <use xlink:href="#DejaVuSerif-6c" transform="translate(124.21875 0)"/>
      <use xlink:href="#DejaVuSerif-69" transform="translate(156.201172 0)"/>
      <use xlink:href="#DejaVuSerif-63" transform="translate(188.183594 0)"/>
      <use xlink:href="#DejaVuSerif-65" transform="translate(244.189453 0)"/>
      <use xlink:href="#DejaVuSerif-5f" transform="translate(303.369141 0)"/>
      <use xlink:href="#DejaVuSerif-64" transform="translate(353.369141 0)"/>
      <use xlink:href="#DejaVuSerif-65" transform="translate(417.382812 0)"/>
      <use xlink:href="#DejaVuSerif-74" transform="translate(476.5625 0)"/>
      <use xlink:href="#DejaVuSerif-65" transform="translate(516.748047 0)"/>
      <use xlink:href="#DejaVuSerif-63" transform="translate(575.927734 0)"/>
      <use xlink:href="#DejaVuSerif-74" transform="translate(631.933594 0)"/>
      <use xlink:href="#DejaVuSerif-69" transform="translate(672.119141 0)"/>
      <use xlink:href="#DejaVuSerif-6f" transform="translate(704.101562 0)"/>
      <use xlink:href="#DejaVuSerif-6e" transform="translate(764.306641 0)"/>
      <use xlink:href="#DejaVuSerif-20" transform="translate(828.710938 0)"/>
      <use xlink:href="#DejaVuSerif-2d" transform="translate(860.498047 0)"/>
      <use xlink:href="#DejaVuSerif-20" transform="translate(894.287109 0)"/>
      <use xlink:href="#DejaVuSerif-4f" transform="translate(926.074219 0)"/>
      <use xlink:href="#DejaVuSerif-54" transform="translate(1008.056641 0)"/>
     </g>
    </g>
    <g id="line2d_35">
     <path d="M 578.844688 51.189531 
L 588.844688 51.189531 
L 598.844688 51.189531 
" style="fill: none; stroke: #8c564b; stroke-width: 1.5; stroke-linecap: square"/>
    </g>
    <g id="text_20">
     <!-- collision - MW -->
     <g transform="translate(606.844688 54.689531) scale(0.1 -0.1)">
      <defs>
       <path id="DejaVuSerif-4d" d="M 353 0 
L 353 331 
L 947 331 
L 947 4331 
L 319 4331 
L 319 4666 
L 1678 4666 
L 3316 1344 
L 4953 4666 
L 6228 4666 
L 6228 4331 
L 5606 4331 
L 5606 331 
L 6203 331 
L 6203 0 
L 4378 0 
L 4378 331 
L 4972 331 
L 4972 3938 
L 3372 684 
L 2931 684 
L 1331 3938 
L 1331 331 
L 1925 331 
L 1925 0 
L 353 0 
z
" transform="scale(0.015625)"/>
       <path id="DejaVuSerif-57" d="M 4878 0 
L 4366 0 
L 3297 3794 
L 2228 0 
L 1716 0 
L 494 4331 
L 31 4331 
L 31 4666 
L 1734 4666 
L 1734 4331 
L 1153 4331 
L 2125 884 
L 3188 4666 
L 3694 4666 
L 4775 844 
L 5753 4331 
L 5216 4331 
L 5216 4666 
L 6559 4666 
L 6559 4331 
L 6100 4331 
L 4878 0 
z
" transform="scale(0.015625)"/>
      </defs>
      <use xlink:href="#DejaVuSerif-63"/>
      <use xlink:href="#DejaVuSerif-6f" transform="translate(56.005859 0)"/>
      <use xlink:href="#DejaVuSerif-6c" transform="translate(116.210938 0)"/>
      <use xlink:href="#DejaVuSerif-6c" transform="translate(148.193359 0)"/>
      <use xlink:href="#DejaVuSerif-69" transform="translate(180.175781 0)"/>
      <use xlink:href="#DejaVuSerif-73" transform="translate(212.158203 0)"/>
      <use xlink:href="#DejaVuSerif-69" transform="translate(263.476562 0)"/>
      <use xlink:href="#DejaVuSerif-6f" transform="translate(295.458984 0)"/>
      <use xlink:href="#DejaVuSerif-6e" transform="translate(355.664062 0)"/>
      <use xlink:href="#DejaVuSerif-20" transform="translate(420.068359 0)"/>
      <use xlink:href="#DejaVuSerif-2d" transform="translate(451.855469 0)"/>
      <use xlink:href="#DejaVuSerif-20" transform="translate(485.644531 0)"/>
      <use xlink:href="#DejaVuSerif-4d" transform="translate(517.431641 0)"/>
      <use xlink:href="#DejaVuSerif-57" transform="translate(619.824219 0)"/>
     </g>
    </g>
    <g id="line2d_36">
     <path d="M 578.844688 65.867656 
L 588.844688 65.867656 
L 598.844688 65.867656 
" style="fill: none; stroke: #17becf; stroke-width: 1.5; stroke-linecap: square"/>
    </g>
    <g id="text_21">
     <!-- collision - OT -->
     <g transform="translate(606.844688 69.367656) scale(0.1 -0.1)">
      <use xlink:href="#DejaVuSerif-63"/>
      <use xlink:href="#DejaVuSerif-6f" transform="translate(56.005859 0)"/>
      <use xlink:href="#DejaVuSerif-6c" transform="translate(116.210938 0)"/>
      <use xlink:href="#DejaVuSerif-6c" transform="translate(148.193359 0)"/>
      <use xlink:href="#DejaVuSerif-69" transform="translate(180.175781 0)"/>
      <use xlink:href="#DejaVuSerif-73" transform="translate(212.158203 0)"/>
      <use xlink:href="#DejaVuSerif-69" transform="translate(263.476562 0)"/>
      <use xlink:href="#DejaVuSerif-6f" transform="translate(295.458984 0)"/>
      <use xlink:href="#DejaVuSerif-6e" transform="translate(355.664062 0)"/>
      <use xlink:href="#DejaVuSerif-20" transform="translate(420.068359 0)"/>
      <use xlink:href="#DejaVuSerif-2d" transform="translate(451.855469 0)"/>
      <use xlink:href="#DejaVuSerif-20" transform="translate(485.644531 0)"/>
      <use xlink:href="#DejaVuSerif-4f" transform="translate(517.431641 0)"/>
      <use xlink:href="#DejaVuSerif-54" transform="translate(599.414062 0)"/>
     </g>
    </g>
   </g>
  </g>
 </g>
 <defs>
  <clipPath id="p0be1b4c89b">
   <rect x="53.722813" y="23.134844" width="669.6" height="388.08"/>
  </clipPath>
 </defs>
</svg>
