<?xml version="1.0" encoding="utf-8" standalone="no"?>
<!DOCTYPE svg PUBLIC "-//W3C//DTD SVG 1.1//EN"
  "http://www.w3.org/Graphics/SVG/1.1/DTD/svg11.dtd">
<svg xmlns:xlink="http://www.w3.org/1999/xlink" width="730.522812pt" height="448.9275pt" viewBox="0 0 730.522812 448.9275" xmlns="http://www.w3.org/2000/svg" version="1.1">
 <metadata>
  <rdf:RDF xmlns:dc="http://purl.org/dc/elements/1.1/" xmlns:cc="http://creativecommons.org/ns#" xmlns:rdf="http://www.w3.org/1999/02/22-rdf-syntax-ns#">
   <cc:Work>
    <dc:type rdf:resource="http://purl.org/dc/dcmitype/StillImage"/>
    <dc:date>2025-05-30T20:16:04.090822</dc:date>
    <dc:format>image/svg+xml</dc:format>
    <dc:creator>
     <cc:Agent>
      <dc:title>Matplotlib v3.10.3, https://matplotlib.org/</dc:title>
     </cc:Agent>
    </dc:creator>
   </cc:Work>
  </rdf:RDF>
 </metadata>
 <defs>
  <style type="text/css">*{stroke-linejoin: round; stroke-linecap: butt}</style>
 </defs>
 <g id="figure_1">
  <g id="patch_1">
   <path d="M 0 448.9275 
L 730.522812 448.9275 
L 730.522812 0 
L 0 0 
z
" style="fill: #ffffff"/>
  </g>
  <g id="axes_1">
   <g id="patch_2">
    <path d="M 53.722813 411.214844 
L 723.322813 411.214844 
L 723.322813 23.134844 
L 53.722813 23.134844 
z
" style="fill: #ffffff"/>
   </g>
   <g id="FillBetweenPolyCollection_1">
    <defs>
     <path id="m4189545289" d="M 84.159176 -340.244614 
L 84.159176 -340.244614 
L 92.613722 -311.878172 
L 101.068267 -290.560161 
L 109.522812 -283.319417 
L 117.977358 -287.571082 
L 126.431903 -300.937871 
L 134.886449 -319.932038 
L 143.340994 -331.344782 
L 151.79554 -335.00733 
L 160.250085 -334.124787 
L 168.704631 -332.96405 
L 177.159176 -330.801633 
L 185.613722 -332.663568 
L 194.068267 -343.416854 
L 202.522812 -352.31823 
L 210.977358 -351.593791 
L 219.431903 -342.855271 
L 227.886449 -333.952347 
L 236.340994 -328.62869 
L 244.79554 -322.967292 
L 253.250085 -313.055096 
L 261.704631 -305.742434 
L 270.159176 -305.819205 
L 278.613722 -307.132579 
L 287.068267 -308.79196 
L 295.522812 -306.410188 
L 303.977358 -305.244395 
L 312.431903 -311.156491 
L 320.886449 -317.405304 
L 329.340994 -320.772041 
L 337.79554 -325.04063 
L 346.250085 -329.650045 
L 354.704631 -326.82828 
L 363.159176 -317.032644 
L 371.613722 -309.812254 
L 380.068267 -305.398734 
L 388.522812 -297.062737 
L 396.977358 -284.84402 
L 405.431903 -275.075915 
L 413.886449 -269.453792 
L 422.340994 -261.146132 
L 430.79554 -248.311003 
L 439.250085 -240.237598 
L 447.704631 -240.936628 
L 456.159176 -237.931226 
L 464.613722 -227.878799 
L 473.068267 -217.118834 
L 481.522812 -208.339056 
L 489.977358 -200.741272 
L 498.431903 -196.084267 
L 506.886449 -190.802437 
L 515.340994 -181.845741 
L 523.79554 -175.297977 
L 532.250085 -174.068534 
L 540.704631 -167.823531 
L 549.159176 -150.847578 
L 557.613722 -131.103503 
L 566.068267 -119.302512 
L 574.522812 -117.123977 
L 582.977358 -118.410568 
L 591.431903 -118.738844 
L 599.886449 -117.046532 
L 608.340994 -114.989311 
L 616.79554 -114.128309 
L 625.250085 -112.401305 
L 633.704631 -105.975575 
L 642.159176 -103.961433 
L 650.613722 -109.224553 
L 659.068267 -115.603553 
L 667.522812 -119.296682 
L 675.977358 -118.44547 
L 684.431903 -114.791183 
L 692.886449 -112.208144 
L 692.886449 -112.208144 
L 692.886449 -55.352656 
L 684.431903 -55.352656 
L 675.977358 -55.352656 
L 667.522812 -55.352656 
L 659.068267 -55.352656 
L 650.613722 -55.352656 
L 642.159176 -55.352656 
L 633.704631 -55.352656 
L 625.250085 -55.352656 
L 616.79554 -55.352656 
L 608.340994 -55.352656 
L 599.886449 -55.352656 
L 591.431903 -55.352656 
L 582.977358 -55.352656 
L 574.522812 -55.352656 
L 566.068267 -55.352656 
L 557.613722 -55.352656 
L 549.159176 -55.352656 
L 540.704631 -55.352656 
L 532.250085 -55.352656 
L 523.79554 -55.352656 
L 515.340994 -55.352656 
L 506.886449 -55.352656 
L 498.431903 -55.352656 
L 489.977358 -55.352656 
L 481.522812 -55.352656 
L 473.068267 -55.352656 
L 464.613722 -55.352656 
L 456.159176 -55.352656 
L 447.704631 -55.352656 
L 439.250085 -55.352656 
L 430.79554 -55.352656 
L 422.340994 -55.352656 
L 413.886449 -55.352656 
L 405.431903 -55.352656 
L 396.977358 -55.352656 
L 388.522812 -55.352656 
L 380.068267 -55.352656 
L 371.613722 -55.352656 
L 363.159176 -55.352656 
L 354.704631 -55.352656 
L 346.250085 -55.352656 
L 337.79554 -55.352656 
L 329.340994 -55.352656 
L 320.886449 -55.352656 
L 312.431903 -55.352656 
L 303.977358 -55.352656 
L 295.522812 -55.352656 
L 287.068267 -55.352656 
L 278.613722 -55.352656 
L 270.159176 -55.352656 
L 261.704631 -55.352656 
L 253.250085 -55.352656 
L 244.79554 -55.352656 
L 236.340994 -55.352656 
L 227.886449 -55.352656 
L 219.431903 -55.352656 
L 210.977358 -55.352656 
L 202.522812 -55.352656 
L 194.068267 -55.352656 
L 185.613722 -55.352656 
L 177.159176 -55.352656 
L 168.704631 -55.352656 
L 160.250085 -55.352656 
L 151.79554 -55.352656 
L 143.340994 -55.352656 
L 134.886449 -55.352656 
L 126.431903 -55.352656 
L 117.977358 -55.352656 
L 109.522812 -55.352656 
L 101.068267 -55.352656 
L 92.613722 -55.352656 
L 84.159176 -55.352656 
z
" style="stroke: #1f77b4; stroke-opacity: 0.3"/>
    </defs>
    <g clip-path="url(#pbe3e01a113)">
     <use xlink:href="#m4189545289" x="0" y="448.9275" style="fill: #1f77b4; fill-opacity: 0.3; stroke: #1f77b4; stroke-opacity: 0.3"/>
    </g>
   </g>
   <g id="FillBetweenPolyCollection_2">
    <defs>
     <path id="m26c2771e20" d="M 84.159176 -352.306957 
L 84.159176 -352.306957 
L 92.613722 -336.747189 
L 101.068267 -324.966599 
L 109.522812 -320.530799 
L 117.977358 -323.361083 
L 126.431903 -330.063709 
L 134.886449 -338.564573 
L 143.340994 -349.97144 
L 151.79554 -359.272818 
L 160.250085 -361.199039 
L 168.704631 -359.10928 
L 177.159176 -359.528303 
L 185.613722 -363.96979 
L 194.068267 -365.805806 
L 202.522812 -361.866286 
L 210.977358 -354.482868 
L 219.431903 -346.880742 
L 227.886449 -341.805858 
L 236.340994 -339.889516 
L 244.79554 -336.029517 
L 253.250085 -330.423242 
L 261.704631 -326.072919 
L 270.159176 -324.067836 
L 278.613722 -324.714941 
L 287.068267 -324.905651 
L 295.522812 -324.167 
L 303.977358 -323.520949 
L 312.431903 -321.715148 
L 320.886449 -320.992267 
L 329.340994 -322.925747 
L 337.79554 -325.043126 
L 346.250085 -326.232227 
L 354.704631 -323.384495 
L 363.159176 -315.602247 
L 371.613722 -306.864769 
L 380.068267 -302.308692 
L 388.522812 -299.361012 
L 396.977358 -295.794818 
L 405.431903 -289.780672 
L 413.886449 -281.278941 
L 422.340994 -274.852215 
L 430.79554 -270.985193 
L 439.250085 -267.820199 
L 447.704631 -263.1313 
L 456.159176 -254.829603 
L 464.613722 -245.325155 
L 473.068267 -235.161969 
L 481.522812 -224.198437 
L 489.977358 -215.85466 
L 498.431903 -208.210047 
L 506.886449 -197.179796 
L 515.340994 -181.478468 
L 523.79554 -166.543297 
L 532.250085 -155.805852 
L 540.704631 -145.438563 
L 549.159176 -135.832335 
L 557.613722 -128.519086 
L 566.068267 -123.480002 
L 574.522812 -121.948506 
L 582.977358 -121.72787 
L 591.431903 -118.504615 
L 599.886449 -112.326273 
L 608.340994 -108.182058 
L 616.79554 -107.357863 
L 625.250085 -107.665352 
L 633.704631 -109.557875 
L 642.159176 -110.201214 
L 650.613722 -108.301907 
L 659.068267 -105.484236 
L 667.522812 -102.855605 
L 675.977358 -102.533003 
L 684.431903 -102.50162 
L 692.886449 -98.85142 
L 692.886449 -98.85142 
L 692.886449 -55.352656 
L 684.431903 -55.352656 
L 675.977358 -55.352656 
L 667.522812 -55.352656 
L 659.068267 -55.352656 
L 650.613722 -55.352656 
L 642.159176 -55.352656 
L 633.704631 -55.352656 
L 625.250085 -55.352656 
L 616.79554 -55.352656 
L 608.340994 -55.352656 
L 599.886449 -55.352656 
L 591.431903 -55.352656 
L 582.977358 -55.352656 
L 574.522812 -55.352656 
L 566.068267 -55.352656 
L 557.613722 -55.352656 
L 549.159176 -55.352656 
L 540.704631 -55.352656 
L 532.250085 -55.352656 
L 523.79554 -55.352656 
L 515.340994 -55.352656 
L 506.886449 -55.352656 
L 498.431903 -55.352656 
L 489.977358 -55.352656 
L 481.522812 -55.352656 
L 473.068267 -55.352656 
L 464.613722 -55.352656 
L 456.159176 -55.352656 
L 447.704631 -55.352656 
L 439.250085 -55.352656 
L 430.79554 -55.352656 
L 422.340994 -55.352656 
L 413.886449 -55.352656 
L 405.431903 -55.352656 
L 396.977358 -55.352656 
L 388.522812 -55.352656 
L 380.068267 -55.352656 
L 371.613722 -55.352656 
L 363.159176 -55.352656 
L 354.704631 -55.352656 
L 346.250085 -55.352656 
L 337.79554 -55.352656 
L 329.340994 -55.352656 
L 320.886449 -55.352656 
L 312.431903 -55.352656 
L 303.977358 -55.352656 
L 295.522812 -55.352656 
L 287.068267 -55.352656 
L 278.613722 -55.352656 
L 270.159176 -55.352656 
L 261.704631 -55.352656 
L 253.250085 -55.352656 
L 244.79554 -55.352656 
L 236.340994 -55.352656 
L 227.886449 -55.352656 
L 219.431903 -55.352656 
L 210.977358 -55.352656 
L 202.522812 -55.352656 
L 194.068267 -55.352656 
L 185.613722 -55.352656 
L 177.159176 -55.352656 
L 168.704631 -55.352656 
L 160.250085 -55.352656 
L 151.79554 -55.352656 
L 143.340994 -55.352656 
L 134.886449 -55.352656 
L 126.431903 -55.352656 
L 117.977358 -55.352656 
L 109.522812 -55.352656 
L 101.068267 -55.352656 
L 92.613722 -55.352656 
L 84.159176 -55.352656 
z
" style="stroke: #d62728; stroke-opacity: 0.3"/>
    </defs>
    <g clip-path="url(#pbe3e01a113)">
     <use xlink:href="#m26c2771e20" x="0" y="448.9275" style="fill: #d62728; fill-opacity: 0.3; stroke: #d62728; stroke-opacity: 0.3"/>
    </g>
   </g>
   <g id="FillBetweenPolyCollection_3">
    <defs>
     <path id="m2175ef6f1d" d="M 84.159176 -326.944178 
L 84.159176 -326.944178 
L 92.613722 -333.301883 
L 101.068267 -335.009494 
L 109.522812 -326.026184 
L 117.977358 -318.5794 
L 126.431903 -330.479956 
L 134.886449 -351.432428 
L 143.340994 -358.225963 
L 151.79554 -350.448171 
L 160.250085 -351.38088 
L 168.704631 -359.261678 
L 177.159176 -355.713613 
L 185.613722 -341.992699 
L 194.068267 -322.695659 
L 202.522812 -304.685004 
L 210.977358 -308.382856 
L 219.431903 -331.357105 
L 227.886449 -341.36092 
L 236.340994 -329.558291 
L 244.79554 -313.849809 
L 253.250085 -313.016401 
L 261.704631 -325.788253 
L 270.159176 -346.400995 
L 278.613722 -363.611935 
L 287.068267 -370.728738 
L 295.522812 -384.650539 
L 303.977358 -403.407813 
L 312.431903 -408.152656 
L 320.886449 -394.291785 
L 329.340994 -370.096275 
L 337.79554 -348.846335 
L 346.250085 -342.74287 
L 354.704631 -344.532082 
L 363.159176 -342.868864 
L 371.613722 -333.658111 
L 380.068267 -321.600324 
L 388.522812 -313.384312 
L 396.977358 -311.333245 
L 405.431903 -313.041409 
L 413.886449 -313.213168 
L 422.340994 -315.060276 
L 430.79554 -321.152241 
L 439.250085 -322.556652 
L 447.704631 -312.227268 
L 456.159176 -297.78306 
L 464.613722 -286.83635 
L 473.068267 -273.389186 
L 481.522812 -259.83798 
L 489.977358 -257.774751 
L 498.431903 -252.771058 
L 506.886449 -229.717625 
L 515.340994 -199.976451 
L 523.79554 -187.327339 
L 532.250085 -184.553227 
L 540.704631 -170.427783 
L 549.159176 -148.456081 
L 557.613722 -140.446893 
L 566.068267 -147.069358 
L 574.522812 -157.677471 
L 582.977358 -163.824518 
L 591.431903 -155.928716 
L 599.886449 -132.510889 
L 608.340994 -110.4145 
L 616.79554 -101.278982 
L 625.250085 -101.859173 
L 633.704631 -107.50336 
L 642.159176 -113.46311 
L 650.613722 -113.016087 
L 659.068267 -114.877395 
L 667.522812 -126.135233 
L 675.977358 -138.20089 
L 684.431903 -139.510366 
L 692.886449 -129.46008 
L 692.886449 -129.46008 
L 692.886449 -55.352656 
L 684.431903 -55.352656 
L 675.977358 -55.352656 
L 667.522812 -55.352656 
L 659.068267 -55.352656 
L 650.613722 -55.352656 
L 642.159176 -55.352656 
L 633.704631 -55.352656 
L 625.250085 -55.352656 
L 616.79554 -55.352656 
L 608.340994 -55.352656 
L 599.886449 -55.352656 
L 591.431903 -55.352656 
L 582.977358 -55.352656 
L 574.522812 -55.352656 
L 566.068267 -55.352656 
L 557.613722 -55.352656 
L 549.159176 -55.352656 
L 540.704631 -55.352656 
L 532.250085 -55.352656 
L 523.79554 -55.352656 
L 515.340994 -55.352656 
L 506.886449 -55.352656 
L 498.431903 -55.352656 
L 489.977358 -55.352656 
L 481.522812 -55.352656 
L 473.068267 -55.352656 
L 464.613722 -55.352656 
L 456.159176 -55.352656 
L 447.704631 -55.352656 
L 439.250085 -55.352656 
L 430.79554 -55.352656 
L 422.340994 -55.352656 
L 413.886449 -55.352656 
L 405.431903 -55.352656 
L 396.977358 -55.352656 
L 388.522812 -55.352656 
L 380.068267 -55.352656 
L 371.613722 -55.352656 
L 363.159176 -55.352656 
L 354.704631 -55.352656 
L 346.250085 -55.352656 
L 337.79554 -55.352656 
L 329.340994 -55.352656 
L 320.886449 -55.352656 
L 312.431903 -55.352656 
L 303.977358 -55.352656 
L 295.522812 -55.352656 
L 287.068267 -55.352656 
L 278.613722 -55.352656 
L 270.159176 -55.352656 
L 261.704631 -55.352656 
L 253.250085 -55.352656 
L 244.79554 -55.352656 
L 236.340994 -55.352656 
L 227.886449 -55.352656 
L 219.431903 -55.352656 
L 210.977358 -55.352656 
L 202.522812 -55.352656 
L 194.068267 -55.352656 
L 185.613722 -55.352656 
L 177.159176 -55.352656 
L 168.704631 -55.352656 
L 160.250085 -55.352656 
L 151.79554 -55.352656 
L 143.340994 -55.352656 
L 134.886449 -55.352656 
L 126.431903 -55.352656 
L 117.977358 -55.352656 
L 109.522812 -55.352656 
L 101.068267 -55.352656 
L 92.613722 -55.352656 
L 84.159176 -55.352656 
z
" style="stroke: #e377c2; stroke-opacity: 0.3"/>
    </defs>
    <g clip-path="url(#pbe3e01a113)">
     <use xlink:href="#m2175ef6f1d" x="0" y="448.9275" style="fill: #e377c2; fill-opacity: 0.3; stroke: #e377c2; stroke-opacity: 0.3"/>
    </g>
   </g>
   <g id="FillBetweenPolyCollection_4">
    <defs>
     <path id="m0d29236de6" d="M 84.159176 -347.35429 
L 84.159176 -347.35429 
L 92.613722 -330.517115 
L 101.068267 -315.677364 
L 109.522812 -315.112445 
L 117.977358 -320.874062 
L 126.431903 -320.331796 
L 134.886449 -314.92539 
L 143.340994 -310.950616 
L 151.79554 -310.356136 
L 160.250085 -303.847177 
L 168.704631 -291.424351 
L 177.159176 -290.846151 
L 185.613722 -305.440194 
L 194.068267 -319.398777 
L 202.522812 -334.089242 
L 210.977358 -351.577295 
L 219.431903 -356.789284 
L 227.886449 -344.198883 
L 236.340994 -321.655922 
L 244.79554 -301.589385 
L 253.250085 -296.11217 
L 261.704631 -298.615672 
L 270.159176 -300.582312 
L 278.613722 -302.728503 
L 287.068267 -306.90611 
L 295.522812 -309.638226 
L 303.977358 -314.905244 
L 312.431903 -316.370079 
L 320.886449 -312.997364 
L 329.340994 -312.840337 
L 337.79554 -312.885419 
L 346.250085 -310.027695 
L 354.704631 -306.356658 
L 363.159176 -309.590829 
L 371.613722 -314.394403 
L 380.068267 -317.692393 
L 388.522812 -326.371328 
L 396.977358 -332.752638 
L 405.431903 -322.59232 
L 413.886449 -298.347211 
L 422.340994 -278.172342 
L 430.79554 -270.551041 
L 439.250085 -271.812051 
L 447.704631 -282.583614 
L 456.159176 -290.487802 
L 464.613722 -282.802525 
L 473.068267 -264.994671 
L 481.522812 -245.741927 
L 489.977358 -230.862604 
L 498.431903 -225.609332 
L 506.886449 -228.121903 
L 515.340994 -228.812204 
L 523.79554 -224.739875 
L 532.250085 -215.474871 
L 540.704631 -201.684402 
L 549.159176 -193.260447 
L 557.613722 -190.217057 
L 566.068267 -180.265658 
L 574.522812 -162.182042 
L 582.977358 -150.660707 
L 591.431903 -152.281006 
L 599.886449 -160.223275 
L 608.340994 -158.974709 
L 616.79554 -154.745033 
L 625.250085 -154.577059 
L 633.704631 -158.26584 
L 642.159176 -164.863133 
L 650.613722 -171.043113 
L 659.068267 -165.115309 
L 667.522812 -145.237302 
L 675.977358 -129.314412 
L 684.431903 -123.314092 
L 692.886449 -121.552629 
L 692.886449 -121.552629 
L 692.886449 -55.352656 
L 684.431903 -55.352656 
L 675.977358 -55.352656 
L 667.522812 -55.352656 
L 659.068267 -55.352656 
L 650.613722 -55.352656 
L 642.159176 -55.352656 
L 633.704631 -55.352656 
L 625.250085 -55.352656 
L 616.79554 -55.352656 
L 608.340994 -55.352656 
L 599.886449 -55.352656 
L 591.431903 -55.352656 
L 582.977358 -55.352656 
L 574.522812 -55.352656 
L 566.068267 -55.352656 
L 557.613722 -55.352656 
L 549.159176 -55.352656 
L 540.704631 -55.352656 
L 532.250085 -55.352656 
L 523.79554 -55.352656 
L 515.340994 -55.352656 
L 506.886449 -55.352656 
L 498.431903 -55.352656 
L 489.977358 -55.352656 
L 481.522812 -55.352656 
L 473.068267 -55.352656 
L 464.613722 -55.352656 
L 456.159176 -55.352656 
L 447.704631 -55.352656 
L 439.250085 -55.352656 
L 430.79554 -55.352656 
L 422.340994 -55.352656 
L 413.886449 -55.352656 
L 405.431903 -55.352656 
L 396.977358 -55.352656 
L 388.522812 -55.352656 
L 380.068267 -55.352656 
L 371.613722 -55.352656 
L 363.159176 -55.352656 
L 354.704631 -55.352656 
L 346.250085 -55.352656 
L 337.79554 -55.352656 
L 329.340994 -55.352656 
L 320.886449 -55.352656 
L 312.431903 -55.352656 
L 303.977358 -55.352656 
L 295.522812 -55.352656 
L 287.068267 -55.352656 
L 278.613722 -55.352656 
L 270.159176 -55.352656 
L 261.704631 -55.352656 
L 253.250085 -55.352656 
L 244.79554 -55.352656 
L 236.340994 -55.352656 
L 227.886449 -55.352656 
L 219.431903 -55.352656 
L 210.977358 -55.352656 
L 202.522812 -55.352656 
L 194.068267 -55.352656 
L 185.613722 -55.352656 
L 177.159176 -55.352656 
L 168.704631 -55.352656 
L 160.250085 -55.352656 
L 151.79554 -55.352656 
L 143.340994 -55.352656 
L 134.886449 -55.352656 
L 126.431903 -55.352656 
L 117.977358 -55.352656 
L 109.522812 -55.352656 
L 101.068267 -55.352656 
L 92.613722 -55.352656 
L 84.159176 -55.352656 
z
" style="stroke: #17becf; stroke-opacity: 0.3"/>
    </defs>
    <g clip-path="url(#pbe3e01a113)">
     <use xlink:href="#m0d29236de6" x="0" y="448.9275" style="fill: #17becf; fill-opacity: 0.3; stroke: #17becf; stroke-opacity: 0.3"/>
    </g>
   </g>
   <g id="matplotlib.axis_1">
    <g id="xtick_1">
     <g id="line2d_1">
      <path d="M 101.068267 411.214844 
L 101.068267 23.134844 
" clip-path="url(#pbe3e01a113)" style="fill: none; stroke-dasharray: 2.96,1.28; stroke-dashoffset: 0; stroke: #dddddd; stroke-width: 0.8"/>
     </g>
     <g id="line2d_2">
      <defs>
       <path id="me315e96671" d="M 0 0 
L 0 3.5 
" style="stroke: #333333; stroke-width: 0.8"/>
      </defs>
      <g>
       <use xlink:href="#me315e96671" x="101.068267" y="411.214844" style="fill: #333333; stroke: #333333; stroke-width: 0.8"/>
      </g>
     </g>
     <g id="text_1">
      <!-- 5 -->
      <g style="fill: #333333" transform="translate(98.205142 425.053437) scale(0.09 -0.09)">
       <defs>
        <path id="DejaVuSerif-35" d="M 3219 4666 
L 3219 4153 
L 1081 4153 
L 1081 2816 
Q 1244 2928 1461 2984 
Q 1678 3041 1947 3041 
Q 2703 3041 3140 2622 
Q 3578 2203 3578 1478 
Q 3578 738 3136 323 
Q 2694 -91 1894 -91 
Q 1572 -91 1234 -12 
Q 897 66 544 225 
L 544 1131 
L 897 1131 
Q 925 688 1179 453 
Q 1434 219 1894 219 
Q 2388 219 2653 544 
Q 2919 869 2919 1478 
Q 2919 2084 2655 2407 
Q 2391 2731 1894 2731 
Q 1613 2731 1398 2631 
Q 1184 2531 1019 2322 
L 750 2322 
L 750 4666 
L 3219 4666 
z
" transform="scale(0.015625)"/>
       </defs>
       <use xlink:href="#DejaVuSerif-35"/>
      </g>
     </g>
    </g>
    <g id="xtick_2">
     <g id="line2d_3">
      <path d="M 185.613722 411.214844 
L 185.613722 23.134844 
" clip-path="url(#pbe3e01a113)" style="fill: none; stroke-dasharray: 2.96,1.28; stroke-dashoffset: 0; stroke: #dddddd; stroke-width: 0.8"/>
     </g>
     <g id="line2d_4">
      <g>
       <use xlink:href="#me315e96671" x="185.613722" y="411.214844" style="fill: #333333; stroke: #333333; stroke-width: 0.8"/>
      </g>
     </g>
     <g id="text_2">
      <!-- 10 -->
      <g style="fill: #333333" transform="translate(179.887472 425.053437) scale(0.09 -0.09)">
       <defs>
        <path id="DejaVuSerif-31" d="M 909 0 
L 909 331 
L 1722 331 
L 1722 4213 
L 781 3603 
L 781 4013 
L 1919 4750 
L 2350 4750 
L 2350 331 
L 3163 331 
L 3163 0 
L 909 0 
z
" transform="scale(0.015625)"/>
        <path id="DejaVuSerif-30" d="M 2034 219 
Q 2513 219 2750 744 
Q 2988 1269 2988 2328 
Q 2988 3391 2750 3916 
Q 2513 4441 2034 4441 
Q 1556 4441 1318 3916 
Q 1081 3391 1081 2328 
Q 1081 1269 1318 744 
Q 1556 219 2034 219 
z
M 2034 -91 
Q 1275 -91 848 546 
Q 422 1184 422 2328 
Q 422 3475 848 4112 
Q 1275 4750 2034 4750 
Q 2797 4750 3222 4112 
Q 3647 3475 3647 2328 
Q 3647 1184 3222 546 
Q 2797 -91 2034 -91 
z
" transform="scale(0.015625)"/>
       </defs>
       <use xlink:href="#DejaVuSerif-31"/>
       <use xlink:href="#DejaVuSerif-30" transform="translate(63.623047 0)"/>
      </g>
     </g>
    </g>
    <g id="xtick_3">
     <g id="line2d_5">
      <path d="M 270.159176 411.214844 
L 270.159176 23.134844 
" clip-path="url(#pbe3e01a113)" style="fill: none; stroke-dasharray: 2.96,1.28; stroke-dashoffset: 0; stroke: #dddddd; stroke-width: 0.8"/>
     </g>
     <g id="line2d_6">
      <g>
       <use xlink:href="#me315e96671" x="270.159176" y="411.214844" style="fill: #333333; stroke: #333333; stroke-width: 0.8"/>
      </g>
     </g>
     <g id="text_3">
      <!-- 15 -->
      <g style="fill: #333333" transform="translate(264.432926 425.053437) scale(0.09 -0.09)">
       <use xlink:href="#DejaVuSerif-31"/>
       <use xlink:href="#DejaVuSerif-35" transform="translate(63.623047 0)"/>
      </g>
     </g>
    </g>
    <g id="xtick_4">
     <g id="line2d_7">
      <path d="M 354.704631 411.214844 
L 354.704631 23.134844 
" clip-path="url(#pbe3e01a113)" style="fill: none; stroke-dasharray: 2.96,1.28; stroke-dashoffset: 0; stroke: #dddddd; stroke-width: 0.8"/>
     </g>
     <g id="line2d_8">
      <g>
       <use xlink:href="#me315e96671" x="354.704631" y="411.214844" style="fill: #333333; stroke: #333333; stroke-width: 0.8"/>
      </g>
     </g>
     <g id="text_4">
      <!-- 20 -->
      <g style="fill: #333333" transform="translate(348.978381 425.053437) scale(0.09 -0.09)">
       <defs>
        <path id="DejaVuSerif-32" d="M 819 3553 
L 469 3553 
L 469 4384 
Q 803 4563 1142 4656 
Q 1481 4750 1806 4750 
Q 2534 4750 2956 4397 
Q 3378 4044 3378 3438 
Q 3378 2753 2422 1800 
Q 2347 1728 2309 1691 
L 1131 513 
L 3078 513 
L 3078 1088 
L 3444 1088 
L 3444 0 
L 434 0 
L 434 341 
L 1850 1753 
Q 2319 2222 2519 2614 
Q 2719 3006 2719 3438 
Q 2719 3909 2473 4175 
Q 2228 4441 1797 4441 
Q 1350 4441 1106 4219 
Q 863 3997 819 3553 
z
" transform="scale(0.015625)"/>
       </defs>
       <use xlink:href="#DejaVuSerif-32"/>
       <use xlink:href="#DejaVuSerif-30" transform="translate(63.623047 0)"/>
      </g>
     </g>
    </g>
    <g id="xtick_5">
     <g id="line2d_9">
      <path d="M 439.250085 411.214844 
L 439.250085 23.134844 
" clip-path="url(#pbe3e01a113)" style="fill: none; stroke-dasharray: 2.96,1.28; stroke-dashoffset: 0; stroke: #dddddd; stroke-width: 0.8"/>
     </g>
     <g id="line2d_10">
      <g>
       <use xlink:href="#me315e96671" x="439.250085" y="411.214844" style="fill: #333333; stroke: #333333; stroke-width: 0.8"/>
      </g>
     </g>
     <g id="text_5">
      <!-- 25 -->
      <g style="fill: #333333" transform="translate(433.523835 425.053437) scale(0.09 -0.09)">
       <use xlink:href="#DejaVuSerif-32"/>
       <use xlink:href="#DejaVuSerif-35" transform="translate(63.623047 0)"/>
      </g>
     </g>
    </g>
    <g id="xtick_6">
     <g id="line2d_11">
      <path d="M 523.79554 411.214844 
L 523.79554 23.134844 
" clip-path="url(#pbe3e01a113)" style="fill: none; stroke-dasharray: 2.96,1.28; stroke-dashoffset: 0; stroke: #dddddd; stroke-width: 0.8"/>
     </g>
     <g id="line2d_12">
      <g>
       <use xlink:href="#me315e96671" x="523.79554" y="411.214844" style="fill: #333333; stroke: #333333; stroke-width: 0.8"/>
      </g>
     </g>
     <g id="text_6">
      <!-- 30 -->
      <g style="fill: #333333" transform="translate(518.06929 425.053437) scale(0.09 -0.09)">
       <defs>
        <path id="DejaVuSerif-33" d="M 622 4469 
Q 988 4606 1323 4678 
Q 1659 4750 1953 4750 
Q 2638 4750 3022 4454 
Q 3406 4159 3406 3634 
Q 3406 3213 3140 2930 
Q 2875 2647 2388 2547 
Q 2963 2466 3280 2130 
Q 3597 1794 3597 1259 
Q 3597 606 3158 257 
Q 2719 -91 1894 -91 
Q 1528 -91 1179 -12 
Q 831 66 488 225 
L 488 1131 
L 838 1131 
Q 869 681 1141 450 
Q 1413 219 1906 219 
Q 2384 219 2661 495 
Q 2938 772 2938 1253 
Q 2938 1803 2653 2086 
Q 2369 2369 1819 2369 
L 1522 2369 
L 1522 2688 
L 1678 2688 
Q 2225 2688 2498 2914 
Q 2772 3141 2772 3597 
Q 2772 4006 2547 4223 
Q 2322 4441 1900 4441 
Q 1478 4441 1245 4241 
Q 1013 4041 972 3647 
L 622 3647 
L 622 4469 
z
" transform="scale(0.015625)"/>
       </defs>
       <use xlink:href="#DejaVuSerif-33"/>
       <use xlink:href="#DejaVuSerif-30" transform="translate(63.623047 0)"/>
      </g>
     </g>
    </g>
    <g id="xtick_7">
     <g id="line2d_13">
      <path d="M 608.340994 411.214844 
L 608.340994 23.134844 
" clip-path="url(#pbe3e01a113)" style="fill: none; stroke-dasharray: 2.96,1.28; stroke-dashoffset: 0; stroke: #dddddd; stroke-width: 0.8"/>
     </g>
     <g id="line2d_14">
      <g>
       <use xlink:href="#me315e96671" x="608.340994" y="411.214844" style="fill: #333333; stroke: #333333; stroke-width: 0.8"/>
      </g>
     </g>
     <g id="text_7">
      <!-- 35 -->
      <g style="fill: #333333" transform="translate(602.614744 425.053437) scale(0.09 -0.09)">
       <use xlink:href="#DejaVuSerif-33"/>
       <use xlink:href="#DejaVuSerif-35" transform="translate(63.623047 0)"/>
      </g>
     </g>
    </g>
    <g id="xtick_8">
     <g id="line2d_15">
      <path d="M 692.886449 411.214844 
L 692.886449 23.134844 
" clip-path="url(#pbe3e01a113)" style="fill: none; stroke-dasharray: 2.96,1.28; stroke-dashoffset: 0; stroke: #dddddd; stroke-width: 0.8"/>
     </g>
     <g id="line2d_16">
      <g>
       <use xlink:href="#me315e96671" x="692.886449" y="411.214844" style="fill: #333333; stroke: #333333; stroke-width: 0.8"/>
      </g>
     </g>
     <g id="text_8">
      <!-- 40 -->
      <g style="fill: #333333" transform="translate(687.160199 425.053437) scale(0.09 -0.09)">
       <defs>
        <path id="DejaVuSerif-34" d="M 2234 1581 
L 2234 4063 
L 641 1581 
L 2234 1581 
z
M 3609 0 
L 1484 0 
L 1484 331 
L 2234 331 
L 2234 1247 
L 197 1247 
L 197 1588 
L 2241 4750 
L 2859 4750 
L 2859 1581 
L 3750 1581 
L 3750 1247 
L 2859 1247 
L 2859 331 
L 3609 331 
L 3609 0 
z
" transform="scale(0.015625)"/>
       </defs>
       <use xlink:href="#DejaVuSerif-34"/>
       <use xlink:href="#DejaVuSerif-30" transform="translate(63.623047 0)"/>
      </g>
     </g>
    </g>
    <g id="text_9">
     <!-- Frequency (Hz) -->
     <g transform="translate(345.040156 439.283437) scale(0.11 -0.11)">
      <defs>
       <path id="DejaVuSerif-46" d="M 353 0 
L 353 331 
L 947 331 
L 947 4331 
L 353 4331 
L 353 4666 
L 4172 4666 
L 4172 3628 
L 3788 3628 
L 3788 4281 
L 1581 4281 
L 1581 2719 
L 3175 2719 
L 3175 3303 
L 3559 3303 
L 3559 1753 
L 3175 1753 
L 3175 2338 
L 1581 2338 
L 1581 331 
L 2328 331 
L 2328 0 
L 353 0 
z
" transform="scale(0.015625)"/>
       <path id="DejaVuSerif-72" d="M 3059 3328 
L 3059 2497 
L 2728 2497 
Q 2713 2744 2591 2866 
Q 2469 2988 2234 2988 
Q 1809 2988 1582 2694 
Q 1356 2400 1356 1850 
L 1356 331 
L 2022 331 
L 2022 0 
L 263 0 
L 263 331 
L 781 331 
L 781 2994 
L 231 2994 
L 231 3322 
L 1356 3322 
L 1356 2731 
Q 1525 3078 1790 3245 
Q 2056 3413 2438 3413 
Q 2578 3413 2733 3391 
Q 2888 3369 3059 3328 
z
" transform="scale(0.015625)"/>
       <path id="DejaVuSerif-65" d="M 3469 1600 
L 991 1600 
L 991 1575 
Q 991 903 1244 561 
Q 1497 219 1991 219 
Q 2369 219 2611 417 
Q 2853 616 2950 1006 
L 3413 1006 
Q 3275 459 2904 184 
Q 2534 -91 1931 -91 
Q 1203 -91 761 389 
Q 319 869 319 1663 
Q 319 2450 753 2931 
Q 1188 3413 1894 3413 
Q 2647 3413 3050 2948 
Q 3453 2484 3469 1600 
z
M 2791 1931 
Q 2772 2513 2545 2808 
Q 2319 3103 1894 3103 
Q 1497 3103 1269 2806 
Q 1041 2509 991 1931 
L 2791 1931 
z
" transform="scale(0.015625)"/>
       <path id="DejaVuSerif-71" d="M 3359 2988 
L 3359 -997 
L 3909 -997 
L 3909 -1331 
L 2241 -1331 
L 2241 -997 
L 2784 -997 
L 2784 519 
Q 2616 206 2355 57 
Q 2094 -91 1709 -91 
Q 1097 -91 708 395 
Q 319 881 319 1663 
Q 319 2444 706 2928 
Q 1094 3413 1709 3413 
Q 2094 3413 2355 3264 
Q 2616 3116 2784 2803 
L 2784 3322 
L 3909 3322 
L 3909 2988 
L 3359 2988 
z
M 2784 1825 
Q 2784 2422 2554 2737 
Q 2325 3053 1888 3053 
Q 1444 3053 1217 2703 
Q 991 2353 991 1663 
Q 991 975 1217 622 
Q 1444 269 1888 269 
Q 2325 269 2554 583 
Q 2784 897 2784 1497 
L 2784 1825 
z
" transform="scale(0.015625)"/>
       <path id="DejaVuSerif-75" d="M 2266 3322 
L 3341 3322 
L 3341 331 
L 3884 331 
L 3884 0 
L 2766 0 
L 2766 588 
Q 2606 256 2353 82 
Q 2100 -91 1766 -91 
Q 1213 -91 952 223 
Q 691 538 691 1209 
L 691 2988 
L 172 2988 
L 172 3322 
L 1269 3322 
L 1269 1388 
Q 1269 781 1417 556 
Q 1566 331 1947 331 
Q 2347 331 2556 625 
Q 2766 919 2766 1478 
L 2766 2988 
L 2266 2988 
L 2266 3322 
z
" transform="scale(0.015625)"/>
       <path id="DejaVuSerif-6e" d="M 263 0 
L 263 331 
L 781 331 
L 781 2988 
L 231 2988 
L 231 3322 
L 1356 3322 
L 1356 2731 
Q 1516 3069 1770 3241 
Q 2025 3413 2363 3413 
Q 2913 3413 3172 3097 
Q 3431 2781 3431 2113 
L 3431 331 
L 3944 331 
L 3944 0 
L 2356 0 
L 2356 331 
L 2853 331 
L 2853 1931 
Q 2853 2541 2703 2767 
Q 2553 2994 2175 2994 
Q 1775 2994 1565 2701 
Q 1356 2409 1356 1850 
L 1356 331 
L 1856 331 
L 1856 0 
L 263 0 
z
" transform="scale(0.015625)"/>
       <path id="DejaVuSerif-63" d="M 3291 997 
Q 3169 466 2822 187 
Q 2475 -91 1925 -91 
Q 1200 -91 759 389 
Q 319 869 319 1663 
Q 319 2459 759 2936 
Q 1200 3413 1925 3413 
Q 2241 3413 2553 3339 
Q 2866 3266 3181 3116 
L 3181 2266 
L 2847 2266 
Q 2781 2703 2561 2903 
Q 2341 3103 1931 3103 
Q 1466 3103 1228 2742 
Q 991 2381 991 1663 
Q 991 944 1227 581 
Q 1463 219 1931 219 
Q 2303 219 2525 412 
Q 2747 606 2828 997 
L 3291 997 
z
" transform="scale(0.015625)"/>
       <path id="DejaVuSerif-79" d="M 1381 -609 
L 1600 -56 
L 359 2988 
L -19 2988 
L -19 3322 
L 1509 3322 
L 1509 2988 
L 978 2988 
L 1913 703 
L 2847 2988 
L 2350 2988 
L 2350 3322 
L 3597 3322 
L 3597 2988 
L 3225 2988 
L 1703 -750 
Q 1547 -1138 1356 -1280 
Q 1166 -1422 819 -1422 
Q 672 -1422 517 -1397 
Q 363 -1372 206 -1325 
L 206 -691 
L 500 -691 
Q 519 -903 608 -995 
Q 697 -1088 884 -1088 
Q 1056 -1088 1161 -992 
Q 1266 -897 1381 -609 
z
" transform="scale(0.015625)"/>
       <path id="DejaVuSerif-20" transform="scale(0.015625)"/>
       <path id="DejaVuSerif-28" d="M 2041 -997 
Q 1281 -656 893 83 
Q 506 822 506 1931 
Q 506 3044 893 3783 
Q 1281 4522 2041 4863 
L 2041 4556 
Q 1559 4225 1350 3623 
Q 1141 3022 1141 1931 
Q 1141 844 1350 242 
Q 1559 -359 2041 -691 
L 2041 -997 
z
" transform="scale(0.015625)"/>
       <path id="DejaVuSerif-48" d="M 353 0 
L 353 331 
L 947 331 
L 947 4331 
L 353 4331 
L 353 4666 
L 2175 4666 
L 2175 4331 
L 1581 4331 
L 1581 2719 
L 4000 2719 
L 4000 4331 
L 3406 4331 
L 3406 4666 
L 5228 4666 
L 5228 4331 
L 4634 4331 
L 4634 331 
L 5228 331 
L 5228 0 
L 3406 0 
L 3406 331 
L 4000 331 
L 4000 2338 
L 1581 2338 
L 1581 331 
L 2175 331 
L 2175 0 
L 353 0 
z
" transform="scale(0.015625)"/>
       <path id="DejaVuSerif-7a" d="M 256 0 
L 256 269 
L 2338 2988 
L 691 2988 
L 691 2413 
L 359 2413 
L 359 3322 
L 3078 3322 
L 3078 3053 
L 997 331 
L 2803 331 
L 2803 934 
L 3138 934 
L 3138 0 
L 256 0 
z
" transform="scale(0.015625)"/>
       <path id="DejaVuSerif-29" d="M 453 -997 
L 453 -691 
Q 934 -359 1145 242 
Q 1356 844 1356 1931 
Q 1356 3022 1145 3623 
Q 934 4225 453 4556 
L 453 4863 
Q 1216 4522 1603 3783 
Q 1991 3044 1991 1931 
Q 1991 822 1603 83 
Q 1216 -656 453 -997 
z
" transform="scale(0.015625)"/>
      </defs>
      <use xlink:href="#DejaVuSerif-46"/>
      <use xlink:href="#DejaVuSerif-72" transform="translate(69.384766 0)"/>
      <use xlink:href="#DejaVuSerif-65" transform="translate(117.1875 0)"/>
      <use xlink:href="#DejaVuSerif-71" transform="translate(176.367188 0)"/>
      <use xlink:href="#DejaVuSerif-75" transform="translate(240.380859 0)"/>
      <use xlink:href="#DejaVuSerif-65" transform="translate(304.785156 0)"/>
      <use xlink:href="#DejaVuSerif-6e" transform="translate(363.964844 0)"/>
      <use xlink:href="#DejaVuSerif-63" transform="translate(428.369141 0)"/>
      <use xlink:href="#DejaVuSerif-79" transform="translate(484.375 0)"/>
      <use xlink:href="#DejaVuSerif-20" transform="translate(540.869141 0)"/>
      <use xlink:href="#DejaVuSerif-28" transform="translate(572.65625 0)"/>
      <use xlink:href="#DejaVuSerif-48" transform="translate(611.669922 0)"/>
      <use xlink:href="#DejaVuSerif-7a" transform="translate(698.876953 0)"/>
      <use xlink:href="#DejaVuSerif-29" transform="translate(751.5625 0)"/>
     </g>
    </g>
   </g>
   <g id="matplotlib.axis_2">
    <g id="ytick_1">
     <g id="line2d_17">
      <path d="M 53.722813 369.371752 
L 723.322813 369.371752 
" clip-path="url(#pbe3e01a113)" style="fill: none; stroke-dasharray: 2.96,1.28; stroke-dashoffset: 0; stroke: #dddddd; stroke-width: 0.8"/>
     </g>
     <g id="line2d_18">
      <defs>
       <path id="mbd49749650" d="M 0 0 
L -3.5 0 
" style="stroke: #333333; stroke-width: 0.8"/>
      </defs>
      <g>
       <use xlink:href="#mbd49749650" x="53.722813" y="369.371752" style="fill: #333333; stroke: #333333; stroke-width: 0.8"/>
      </g>
     </g>
     <g id="text_10">
      <!-- −130 -->
      <g style="fill: #333333" transform="translate(22.002344 372.791049) scale(0.09 -0.09)">
       <defs>
        <path id="DejaVuSerif-2212" d="M 678 2259 
L 4684 2259 
L 4684 1753 
L 678 1753 
L 678 2259 
z
" transform="scale(0.015625)"/>
       </defs>
       <use xlink:href="#DejaVuSerif-2212"/>
       <use xlink:href="#DejaVuSerif-31" transform="translate(83.789062 0)"/>
       <use xlink:href="#DejaVuSerif-33" transform="translate(147.412109 0)"/>
       <use xlink:href="#DejaVuSerif-30" transform="translate(211.035156 0)"/>
      </g>
     </g>
    </g>
    <g id="ytick_2">
     <g id="line2d_19">
      <path d="M 53.722813 302.15372 
L 723.322813 302.15372 
" clip-path="url(#pbe3e01a113)" style="fill: none; stroke-dasharray: 2.96,1.28; stroke-dashoffset: 0; stroke: #dddddd; stroke-width: 0.8"/>
     </g>
     <g id="line2d_20">
      <g>
       <use xlink:href="#mbd49749650" x="53.722813" y="302.15372" style="fill: #333333; stroke: #333333; stroke-width: 0.8"/>
      </g>
     </g>
     <g id="text_11">
      <!-- −128 -->
      <g style="fill: #333333" transform="translate(22.002344 305.573017) scale(0.09 -0.09)">
       <defs>
        <path id="DejaVuSerif-38" d="M 2981 1275 
Q 2981 1775 2732 2051 
Q 2484 2328 2034 2328 
Q 1584 2328 1336 2051 
Q 1088 1775 1088 1275 
Q 1088 772 1336 495 
Q 1584 219 2034 219 
Q 2484 219 2732 495 
Q 2981 772 2981 1275 
z
M 2853 3541 
Q 2853 3966 2637 4203 
Q 2422 4441 2034 4441 
Q 1650 4441 1433 4203 
Q 1216 3966 1216 3541 
Q 1216 3113 1433 2875 
Q 1650 2638 2034 2638 
Q 2422 2638 2637 2875 
Q 2853 3113 2853 3541 
z
M 2516 2484 
Q 3047 2413 3344 2092 
Q 3641 1772 3641 1275 
Q 3641 619 3225 264 
Q 2809 -91 2034 -91 
Q 1263 -91 845 264 
Q 428 619 428 1275 
Q 428 1772 725 2092 
Q 1022 2413 1556 2484 
Q 1084 2569 832 2842 
Q 581 3116 581 3541 
Q 581 4103 968 4426 
Q 1356 4750 2034 4750 
Q 2713 4750 3100 4426 
Q 3488 4103 3488 3541 
Q 3488 3116 3236 2842 
Q 2984 2569 2516 2484 
z
" transform="scale(0.015625)"/>
       </defs>
       <use xlink:href="#DejaVuSerif-2212"/>
       <use xlink:href="#DejaVuSerif-31" transform="translate(83.789062 0)"/>
       <use xlink:href="#DejaVuSerif-32" transform="translate(147.412109 0)"/>
       <use xlink:href="#DejaVuSerif-38" transform="translate(211.035156 0)"/>
      </g>
     </g>
    </g>
    <g id="ytick_3">
     <g id="line2d_21">
      <path d="M 53.722813 234.935688 
L 723.322813 234.935688 
" clip-path="url(#pbe3e01a113)" style="fill: none; stroke-dasharray: 2.96,1.28; stroke-dashoffset: 0; stroke: #dddddd; stroke-width: 0.8"/>
     </g>
     <g id="line2d_22">
      <g>
       <use xlink:href="#mbd49749650" x="53.722813" y="234.935688" style="fill: #333333; stroke: #333333; stroke-width: 0.8"/>
      </g>
     </g>
     <g id="text_12">
      <!-- −126 -->
      <g style="fill: #333333" transform="translate(22.002344 238.354984) scale(0.09 -0.09)">
       <defs>
        <path id="DejaVuSerif-36" d="M 2094 219 
Q 2534 219 2771 542 
Q 3009 866 3009 1472 
Q 3009 2078 2771 2401 
Q 2534 2725 2094 2725 
Q 1647 2725 1412 2412 
Q 1178 2100 1178 1509 
Q 1178 888 1415 553 
Q 1653 219 2094 219 
z
M 1075 2569 
Q 1288 2803 1556 2918 
Q 1825 3034 2163 3034 
Q 2859 3034 3264 2615 
Q 3669 2197 3669 1472 
Q 3669 763 3233 336 
Q 2797 -91 2069 -91 
Q 1278 -91 853 498 
Q 428 1088 428 2181 
Q 428 3406 931 4078 
Q 1434 4750 2350 4750 
Q 2597 4750 2869 4703 
Q 3141 4656 3425 4563 
L 3425 3794 
L 3072 3794 
Q 3034 4109 2831 4275 
Q 2628 4441 2284 4441 
Q 1678 4441 1381 3981 
Q 1084 3522 1075 2569 
z
" transform="scale(0.015625)"/>
       </defs>
       <use xlink:href="#DejaVuSerif-2212"/>
       <use xlink:href="#DejaVuSerif-31" transform="translate(83.789062 0)"/>
       <use xlink:href="#DejaVuSerif-32" transform="translate(147.412109 0)"/>
       <use xlink:href="#DejaVuSerif-36" transform="translate(211.035156 0)"/>
      </g>
     </g>
    </g>
    <g id="ytick_4">
     <g id="line2d_23">
      <path d="M 53.722813 167.717655 
L 723.322813 167.717655 
" clip-path="url(#pbe3e01a113)" style="fill: none; stroke-dasharray: 2.96,1.28; stroke-dashoffset: 0; stroke: #dddddd; stroke-width: 0.8"/>
     </g>
     <g id="line2d_24">
      <g>
       <use xlink:href="#mbd49749650" x="53.722813" y="167.717655" style="fill: #333333; stroke: #333333; stroke-width: 0.8"/>
      </g>
     </g>
     <g id="text_13">
      <!-- −124 -->
      <g style="fill: #333333" transform="translate(22.002344 171.136952) scale(0.09 -0.09)">
       <use xlink:href="#DejaVuSerif-2212"/>
       <use xlink:href="#DejaVuSerif-31" transform="translate(83.789062 0)"/>
       <use xlink:href="#DejaVuSerif-32" transform="translate(147.412109 0)"/>
       <use xlink:href="#DejaVuSerif-34" transform="translate(211.035156 0)"/>
      </g>
     </g>
    </g>
    <g id="ytick_5">
     <g id="line2d_25">
      <path d="M 53.722813 100.499623 
L 723.322813 100.499623 
" clip-path="url(#pbe3e01a113)" style="fill: none; stroke-dasharray: 2.96,1.28; stroke-dashoffset: 0; stroke: #dddddd; stroke-width: 0.8"/>
     </g>
     <g id="line2d_26">
      <g>
       <use xlink:href="#mbd49749650" x="53.722813" y="100.499623" style="fill: #333333; stroke: #333333; stroke-width: 0.8"/>
      </g>
     </g>
     <g id="text_14">
      <!-- −122 -->
      <g style="fill: #333333" transform="translate(22.002344 103.91892) scale(0.09 -0.09)">
       <use xlink:href="#DejaVuSerif-2212"/>
       <use xlink:href="#DejaVuSerif-31" transform="translate(83.789062 0)"/>
       <use xlink:href="#DejaVuSerif-32" transform="translate(147.412109 0)"/>
       <use xlink:href="#DejaVuSerif-32" transform="translate(211.035156 0)"/>
      </g>
     </g>
    </g>
    <g id="ytick_6">
     <g id="line2d_27">
      <path d="M 53.722813 33.281591 
L 723.322813 33.281591 
" clip-path="url(#pbe3e01a113)" style="fill: none; stroke-dasharray: 2.96,1.28; stroke-dashoffset: 0; stroke: #dddddd; stroke-width: 0.8"/>
     </g>
     <g id="line2d_28">
      <g>
       <use xlink:href="#mbd49749650" x="53.722813" y="33.281591" style="fill: #333333; stroke: #333333; stroke-width: 0.8"/>
      </g>
     </g>
     <g id="text_15">
      <!-- −120 -->
      <g style="fill: #333333" transform="translate(22.002344 36.700888) scale(0.09 -0.09)">
       <use xlink:href="#DejaVuSerif-2212"/>
       <use xlink:href="#DejaVuSerif-31" transform="translate(83.789062 0)"/>
       <use xlink:href="#DejaVuSerif-32" transform="translate(147.412109 0)"/>
       <use xlink:href="#DejaVuSerif-30" transform="translate(211.035156 0)"/>
      </g>
     </g>
    </g>
    <g id="text_16">
     <!-- Power Spectral Density (dB) -->
     <g transform="translate(15.558281 296.263984) rotate(-90) scale(0.11 -0.11)">
      <defs>
       <path id="DejaVuSerif-50" d="M 1581 2375 
L 2406 2375 
Q 2872 2375 3115 2626 
Q 3359 2878 3359 3353 
Q 3359 3831 3115 4081 
Q 2872 4331 2406 4331 
L 1581 4331 
L 1581 2375 
z
M 353 0 
L 353 331 
L 947 331 
L 947 4331 
L 353 4331 
L 353 4666 
L 2559 4666 
Q 3259 4666 3668 4311 
Q 4078 3956 4078 3353 
Q 4078 2753 3668 2397 
Q 3259 2041 2559 2041 
L 1581 2041 
L 1581 331 
L 2303 331 
L 2303 0 
L 353 0 
z
" transform="scale(0.015625)"/>
       <path id="DejaVuSerif-6f" d="M 1925 219 
Q 2388 219 2623 584 
Q 2859 950 2859 1663 
Q 2859 2375 2623 2739 
Q 2388 3103 1925 3103 
Q 1463 3103 1227 2739 
Q 991 2375 991 1663 
Q 991 950 1228 584 
Q 1466 219 1925 219 
z
M 1925 -91 
Q 1200 -91 759 389 
Q 319 869 319 1663 
Q 319 2456 758 2934 
Q 1197 3413 1925 3413 
Q 2653 3413 3092 2934 
Q 3531 2456 3531 1663 
Q 3531 869 3092 389 
Q 2653 -91 1925 -91 
z
" transform="scale(0.015625)"/>
       <path id="DejaVuSerif-77" d="M 3072 3322 
L 3922 728 
L 4672 2988 
L 4191 2988 
L 4191 3322 
L 5394 3322 
L 5394 2988 
L 5025 2988 
L 4038 0 
L 3559 0 
L 2741 2484 
L 1919 0 
L 1459 0 
L 475 2988 
L 103 2988 
L 103 3322 
L 1606 3322 
L 1606 2988 
L 1069 2988 
L 1813 728 
L 2669 3322 
L 3072 3322 
z
" transform="scale(0.015625)"/>
       <path id="DejaVuSerif-53" d="M 594 225 
L 594 1288 
L 953 1284 
Q 969 753 1261 498 
Q 1553 244 2150 244 
Q 2706 244 2998 464 
Q 3291 684 3291 1106 
Q 3291 1444 3114 1625 
Q 2938 1806 2369 1978 
L 1753 2163 
Q 1084 2366 811 2669 
Q 538 2972 538 3500 
Q 538 4094 959 4422 
Q 1381 4750 2144 4750 
Q 2469 4750 2856 4679 
Q 3244 4609 3681 4475 
L 3681 3481 
L 3328 3481 
Q 3275 3975 2998 4195 
Q 2722 4416 2156 4416 
Q 1663 4416 1405 4214 
Q 1147 4013 1147 3628 
Q 1147 3294 1340 3103 
Q 1534 2913 2163 2725 
L 2741 2553 
Q 3375 2363 3645 2067 
Q 3916 1772 3916 1275 
Q 3916 597 3481 253 
Q 3047 -91 2188 -91 
Q 1803 -91 1404 -12 
Q 1006 66 594 225 
z
" transform="scale(0.015625)"/>
       <path id="DejaVuSerif-70" d="M 1313 1825 
L 1313 1497 
Q 1313 897 1542 583 
Q 1772 269 2209 269 
Q 2650 269 2876 622 
Q 3103 975 3103 1663 
Q 3103 2353 2876 2703 
Q 2650 3053 2209 3053 
Q 1772 3053 1542 2737 
Q 1313 2422 1313 1825 
z
M 738 2988 
L 184 2988 
L 184 3322 
L 1313 3322 
L 1313 2803 
Q 1481 3116 1742 3264 
Q 2003 3413 2388 3413 
Q 3000 3413 3387 2928 
Q 3775 2444 3775 1663 
Q 3775 881 3387 395 
Q 3000 -91 2388 -91 
Q 2003 -91 1742 57 
Q 1481 206 1313 519 
L 1313 -997 
L 1856 -997 
L 1856 -1331 
L 184 -1331 
L 184 -997 
L 738 -997 
L 738 2988 
z
" transform="scale(0.015625)"/>
       <path id="DejaVuSerif-74" d="M 691 2988 
L 184 2988 
L 184 3322 
L 691 3322 
L 691 4353 
L 1269 4353 
L 1269 3322 
L 2350 3322 
L 2350 2988 
L 1269 2988 
L 1269 878 
Q 1269 456 1350 337 
Q 1431 219 1650 219 
Q 1875 219 1978 351 
Q 2081 484 2088 781 
L 2522 781 
Q 2497 328 2275 118 
Q 2053 -91 1600 -91 
Q 1103 -91 897 129 
Q 691 350 691 878 
L 691 2988 
z
" transform="scale(0.015625)"/>
       <path id="DejaVuSerif-61" d="M 2547 1044 
L 2547 1747 
L 1806 1747 
Q 1378 1747 1168 1562 
Q 959 1378 959 997 
Q 959 650 1171 447 
Q 1384 244 1747 244 
Q 2106 244 2326 466 
Q 2547 688 2547 1044 
z
M 3122 2075 
L 3122 331 
L 3634 331 
L 3634 0 
L 2547 0 
L 2547 359 
Q 2356 128 2106 18 
Q 1856 -91 1522 -91 
Q 969 -91 644 203 
Q 319 497 319 997 
Q 319 1513 691 1797 
Q 1063 2081 1741 2081 
L 2547 2081 
L 2547 2309 
Q 2547 2688 2317 2895 
Q 2088 3103 1672 3103 
Q 1328 3103 1125 2947 
Q 922 2791 872 2484 
L 575 2484 
L 575 3156 
Q 875 3284 1158 3348 
Q 1441 3413 1709 3413 
Q 2400 3413 2761 3070 
Q 3122 2728 3122 2075 
z
" transform="scale(0.015625)"/>
       <path id="DejaVuSerif-6c" d="M 1313 331 
L 1856 331 
L 1856 0 
L 184 0 
L 184 331 
L 738 331 
L 738 4531 
L 184 4531 
L 184 4863 
L 1313 4863 
L 1313 331 
z
" transform="scale(0.015625)"/>
       <path id="DejaVuSerif-44" d="M 1581 331 
L 2163 331 
Q 3072 331 3558 850 
Q 4044 1369 4044 2338 
Q 4044 3306 3559 3818 
Q 3075 4331 2163 4331 
L 1581 4331 
L 1581 331 
z
M 353 0 
L 353 331 
L 947 331 
L 947 4331 
L 353 4331 
L 353 4666 
L 2209 4666 
Q 3416 4666 4089 4050 
Q 4763 3434 4763 2338 
Q 4763 1238 4088 619 
Q 3413 0 2209 0 
L 353 0 
z
" transform="scale(0.015625)"/>
       <path id="DejaVuSerif-73" d="M 359 184 
L 359 959 
L 691 959 
Q 703 588 923 403 
Q 1144 219 1575 219 
Q 1963 219 2166 364 
Q 2369 509 2369 788 
Q 2369 1006 2220 1140 
Q 2072 1275 1594 1428 
L 1178 1569 
Q 750 1706 558 1912 
Q 366 2119 366 2438 
Q 366 2894 700 3153 
Q 1034 3413 1625 3413 
Q 1888 3413 2178 3344 
Q 2469 3275 2778 3144 
L 2778 2419 
L 2447 2419 
Q 2434 2741 2221 2922 
Q 2009 3103 1644 3103 
Q 1281 3103 1095 2975 
Q 909 2847 909 2591 
Q 909 2381 1050 2254 
Q 1191 2128 1613 1997 
L 2069 1856 
Q 2541 1709 2748 1489 
Q 2956 1269 2956 922 
Q 2956 450 2595 179 
Q 2234 -91 1600 -91 
Q 1278 -91 972 -22 
Q 666 47 359 184 
z
" transform="scale(0.015625)"/>
       <path id="DejaVuSerif-69" d="M 622 4353 
Q 622 4497 726 4603 
Q 831 4709 978 4709 
Q 1122 4709 1226 4603 
Q 1331 4497 1331 4353 
Q 1331 4206 1228 4103 
Q 1125 4000 978 4000 
Q 831 4000 726 4103 
Q 622 4206 622 4353 
z
M 1356 331 
L 1900 331 
L 1900 0 
L 231 0 
L 231 331 
L 781 331 
L 781 2988 
L 231 2988 
L 231 3322 
L 1356 3322 
L 1356 331 
z
" transform="scale(0.015625)"/>
       <path id="DejaVuSerif-64" d="M 3359 331 
L 3909 331 
L 3909 0 
L 2784 0 
L 2784 519 
Q 2616 206 2355 57 
Q 2094 -91 1709 -91 
Q 1097 -91 708 395 
Q 319 881 319 1663 
Q 319 2444 706 2928 
Q 1094 3413 1709 3413 
Q 2094 3413 2355 3264 
Q 2616 3116 2784 2803 
L 2784 4531 
L 2241 4531 
L 2241 4863 
L 3359 4863 
L 3359 331 
z
M 2784 1497 
L 2784 1825 
Q 2784 2422 2554 2737 
Q 2325 3053 1888 3053 
Q 1444 3053 1217 2703 
Q 991 2353 991 1663 
Q 991 975 1217 622 
Q 1444 269 1888 269 
Q 2325 269 2554 583 
Q 2784 897 2784 1497 
z
" transform="scale(0.015625)"/>
       <path id="DejaVuSerif-42" d="M 1581 331 
L 2516 331 
Q 3078 331 3337 575 
Q 3597 819 3597 1350 
Q 3597 1878 3339 2120 
Q 3081 2363 2516 2363 
L 1581 2363 
L 1581 331 
z
M 1581 2694 
L 2375 2694 
Q 2888 2694 3123 2891 
Q 3359 3088 3359 3513 
Q 3359 3941 3123 4136 
Q 2888 4331 2375 4331 
L 1581 4331 
L 1581 2694 
z
M 353 0 
L 353 331 
L 947 331 
L 947 4331 
L 353 4331 
L 353 4666 
L 2656 4666 
Q 3363 4666 3720 4377 
Q 4078 4088 4078 3513 
Q 4078 3097 3829 2850 
Q 3581 2603 3103 2547 
Q 3697 2472 4005 2167 
Q 4313 1863 4313 1350 
Q 4313 656 3875 328 
Q 3438 0 2509 0 
L 353 0 
z
" transform="scale(0.015625)"/>
      </defs>
      <use xlink:href="#DejaVuSerif-50"/>
      <use xlink:href="#DejaVuSerif-6f" transform="translate(63.285156 0)"/>
      <use xlink:href="#DejaVuSerif-77" transform="translate(123.490234 0)"/>
      <use xlink:href="#DejaVuSerif-65" transform="translate(209.085938 0)"/>
      <use xlink:href="#DejaVuSerif-72" transform="translate(268.265625 0)"/>
      <use xlink:href="#DejaVuSerif-20" transform="translate(316.068359 0)"/>
      <use xlink:href="#DejaVuSerif-53" transform="translate(347.855469 0)"/>
      <use xlink:href="#DejaVuSerif-70" transform="translate(416.361328 0)"/>
      <use xlink:href="#DejaVuSerif-65" transform="translate(480.375 0)"/>
      <use xlink:href="#DejaVuSerif-63" transform="translate(539.554688 0)"/>
      <use xlink:href="#DejaVuSerif-74" transform="translate(595.560547 0)"/>
      <use xlink:href="#DejaVuSerif-72" transform="translate(635.746094 0)"/>
      <use xlink:href="#DejaVuSerif-61" transform="translate(683.548828 0)"/>
      <use xlink:href="#DejaVuSerif-6c" transform="translate(743.167969 0)"/>
      <use xlink:href="#DejaVuSerif-20" transform="translate(775.150391 0)"/>
      <use xlink:href="#DejaVuSerif-44" transform="translate(806.9375 0)"/>
      <use xlink:href="#DejaVuSerif-65" transform="translate(887.113281 0)"/>
      <use xlink:href="#DejaVuSerif-6e" transform="translate(946.292969 0)"/>
      <use xlink:href="#DejaVuSerif-73" transform="translate(1010.697266 0)"/>
      <use xlink:href="#DejaVuSerif-69" transform="translate(1062.015625 0)"/>
      <use xlink:href="#DejaVuSerif-74" transform="translate(1093.998047 0)"/>
      <use xlink:href="#DejaVuSerif-79" transform="translate(1134.183594 0)"/>
      <use xlink:href="#DejaVuSerif-20" transform="translate(1190.677734 0)"/>
      <use xlink:href="#DejaVuSerif-28" transform="translate(1222.464844 0)"/>
      <use xlink:href="#DejaVuSerif-64" transform="translate(1261.478516 0)"/>
      <use xlink:href="#DejaVuSerif-42" transform="translate(1325.492188 0)"/>
      <use xlink:href="#DejaVuSerif-29" transform="translate(1398.978516 0)"/>
     </g>
    </g>
   </g>
   <g id="line2d_29">
    <path d="M 84.159176 108.682886 
L 92.613722 137.049328 
L 101.068267 158.367339 
L 109.522812 165.608083 
L 117.977358 161.356418 
L 126.431903 147.989629 
L 134.886449 128.995462 
L 143.340994 117.582718 
L 151.79554 113.92017 
L 160.250085 114.802713 
L 168.704631 115.96345 
L 177.159176 118.125867 
L 185.613722 116.263932 
L 194.068267 105.510646 
L 202.522812 96.60927 
L 210.977358 97.333709 
L 219.431903 106.072229 
L 227.886449 114.975153 
L 236.340994 120.29881 
L 244.79554 125.960208 
L 253.250085 135.872404 
L 261.704631 143.185066 
L 270.159176 143.108295 
L 278.613722 141.794921 
L 287.068267 140.13554 
L 295.522812 142.517312 
L 303.977358 143.683105 
L 312.431903 137.771009 
L 320.886449 131.522196 
L 329.340994 128.155459 
L 337.79554 123.88687 
L 346.250085 119.277455 
L 354.704631 122.09922 
L 363.159176 131.894856 
L 371.613722 139.115246 
L 380.068267 143.528766 
L 388.522812 151.864763 
L 396.977358 164.08348 
L 405.431903 173.851585 
L 413.886449 179.473708 
L 422.340994 187.781368 
L 430.79554 200.616497 
L 439.250085 208.689902 
L 447.704631 207.990872 
L 456.159176 210.996274 
L 464.613722 221.048701 
L 473.068267 231.808666 
L 481.522812 240.588444 
L 489.977358 248.186228 
L 498.431903 252.843233 
L 506.886449 258.125063 
L 515.340994 267.081759 
L 523.79554 273.629523 
L 532.250085 274.858966 
L 540.704631 281.103969 
L 549.159176 298.079922 
L 557.613722 317.823997 
L 566.068267 329.624988 
L 574.522812 331.803523 
L 582.977358 330.516932 
L 591.431903 330.188656 
L 599.886449 331.880968 
L 608.340994 333.938189 
L 616.79554 334.799191 
L 625.250085 336.526195 
L 633.704631 342.951925 
L 642.159176 344.966067 
L 650.613722 339.702947 
L 659.068267 333.323947 
L 667.522812 329.630818 
L 675.977358 330.48203 
L 684.431903 334.136317 
L 692.886449 336.719356 
" clip-path="url(#pbe3e01a113)" style="fill: none; stroke: #1f77b4; stroke-width: 1.5; stroke-linecap: square"/>
   </g>
   <g id="line2d_30">
    <path d="M 84.159176 96.620543 
L 92.613722 112.180311 
L 101.068267 123.960901 
L 109.522812 128.396701 
L 117.977358 125.566417 
L 126.431903 118.863791 
L 134.886449 110.362927 
L 143.340994 98.95606 
L 151.79554 89.654682 
L 160.250085 87.728461 
L 168.704631 89.81822 
L 177.159176 89.399197 
L 185.613722 84.95771 
L 194.068267 83.121694 
L 202.522812 87.061214 
L 210.977358 94.444632 
L 219.431903 102.046758 
L 227.886449 107.121642 
L 236.340994 109.037984 
L 244.79554 112.897983 
L 253.250085 118.504258 
L 261.704631 122.854581 
L 270.159176 124.859664 
L 278.613722 124.212559 
L 287.068267 124.021849 
L 295.522812 124.7605 
L 303.977358 125.406551 
L 312.431903 127.212352 
L 320.886449 127.935233 
L 329.340994 126.001753 
L 337.79554 123.884374 
L 346.250085 122.695273 
L 354.704631 125.543005 
L 363.159176 133.325253 
L 371.613722 142.062731 
L 380.068267 146.618808 
L 388.522812 149.566488 
L 396.977358 153.132682 
L 405.431903 159.146828 
L 413.886449 167.648559 
L 422.340994 174.075285 
L 430.79554 177.942307 
L 439.250085 181.107301 
L 447.704631 185.7962 
L 456.159176 194.097897 
L 464.613722 203.602345 
L 473.068267 213.765531 
L 481.522812 224.729063 
L 489.977358 233.07284 
L 498.431903 240.717453 
L 506.886449 251.747704 
L 515.340994 267.449032 
L 523.79554 282.384203 
L 532.250085 293.121648 
L 540.704631 303.488937 
L 549.159176 313.095165 
L 557.613722 320.408414 
L 566.068267 325.447498 
L 574.522812 326.978994 
L 582.977358 327.19963 
L 591.431903 330.422885 
L 599.886449 336.601227 
L 608.340994 340.745442 
L 616.79554 341.569637 
L 625.250085 341.262148 
L 633.704631 339.369625 
L 642.159176 338.726286 
L 650.613722 340.625593 
L 659.068267 343.443264 
L 667.522812 346.071895 
L 675.977358 346.394497 
L 684.431903 346.42588 
L 692.886449 350.07608 
" clip-path="url(#pbe3e01a113)" style="fill: none; stroke: #d62728; stroke-width: 1.5; stroke-linecap: square"/>
   </g>
   <g id="line2d_31">
    <path d="M 84.159176 121.983322 
L 92.613722 115.625617 
L 101.068267 113.918006 
L 109.522812 122.901316 
L 117.977358 130.3481 
L 126.431903 118.447544 
L 134.886449 97.495072 
L 143.340994 90.701537 
L 151.79554 98.479329 
L 160.250085 97.54662 
L 168.704631 89.665822 
L 177.159176 93.213887 
L 185.613722 106.934801 
L 194.068267 126.231841 
L 202.522812 144.242496 
L 210.977358 140.544644 
L 219.431903 117.570395 
L 227.886449 107.56658 
L 236.340994 119.369209 
L 244.79554 135.077691 
L 253.250085 135.911099 
L 261.704631 123.139247 
L 270.159176 102.526505 
L 278.613722 85.315565 
L 287.068267 78.198762 
L 295.522812 64.276961 
L 303.977358 45.519687 
L 312.431903 40.774844 
L 320.886449 54.635715 
L 329.340994 78.831225 
L 337.79554 100.081165 
L 346.250085 106.18463 
L 354.704631 104.395418 
L 363.159176 106.058636 
L 371.613722 115.269389 
L 380.068267 127.327176 
L 388.522812 135.543188 
L 396.977358 137.594255 
L 405.431903 135.886091 
L 413.886449 135.714332 
L 422.340994 133.867224 
L 430.79554 127.775259 
L 439.250085 126.370848 
L 447.704631 136.700232 
L 456.159176 151.14444 
L 464.613722 162.09115 
L 473.068267 175.538314 
L 481.522812 189.08952 
L 489.977358 191.152749 
L 498.431903 196.156442 
L 506.886449 219.209875 
L 515.340994 248.951049 
L 523.79554 261.600161 
L 532.250085 264.374273 
L 540.704631 278.499717 
L 549.159176 300.471419 
L 557.613722 308.480607 
L 566.068267 301.858142 
L 574.522812 291.250029 
L 582.977358 285.102982 
L 591.431903 292.998784 
L 599.886449 316.416611 
L 608.340994 338.513 
L 616.79554 347.648518 
L 625.250085 347.068327 
L 633.704631 341.42414 
L 642.159176 335.46439 
L 650.613722 335.911413 
L 659.068267 334.050105 
L 667.522812 322.792267 
L 675.977358 310.72661 
L 684.431903 309.417134 
L 692.886449 319.46742 
" clip-path="url(#pbe3e01a113)" style="fill: none; stroke: #e377c2; stroke-width: 1.5; stroke-linecap: square"/>
   </g>
   <g id="line2d_32">
    <path d="M 84.159176 101.57321 
L 92.613722 118.410385 
L 101.068267 133.250136 
L 109.522812 133.815055 
L 117.977358 128.053438 
L 126.431903 128.595704 
L 134.886449 134.00211 
L 143.340994 137.976884 
L 151.79554 138.571364 
L 160.250085 145.080323 
L 168.704631 157.503149 
L 177.159176 158.081349 
L 185.613722 143.487306 
L 194.068267 129.528723 
L 202.522812 114.838258 
L 210.977358 97.350205 
L 219.431903 92.138216 
L 227.886449 104.728617 
L 236.340994 127.271578 
L 244.79554 147.338115 
L 253.250085 152.81533 
L 261.704631 150.311828 
L 270.159176 148.345188 
L 278.613722 146.198997 
L 287.068267 142.02139 
L 295.522812 139.289274 
L 303.977358 134.022256 
L 312.431903 132.557421 
L 320.886449 135.930136 
L 329.340994 136.087163 
L 337.79554 136.042081 
L 346.250085 138.899805 
L 354.704631 142.570842 
L 363.159176 139.336671 
L 371.613722 134.533097 
L 380.068267 131.235107 
L 388.522812 122.556172 
L 396.977358 116.174862 
L 405.431903 126.33518 
L 413.886449 150.580289 
L 422.340994 170.755158 
L 430.79554 178.376459 
L 439.250085 177.115449 
L 447.704631 166.343886 
L 456.159176 158.439698 
L 464.613722 166.124975 
L 473.068267 183.932829 
L 481.522812 203.185573 
L 489.977358 218.064896 
L 498.431903 223.318168 
L 506.886449 220.805597 
L 515.340994 220.115296 
L 523.79554 224.187625 
L 532.250085 233.452629 
L 540.704631 247.243098 
L 549.159176 255.667053 
L 557.613722 258.710443 
L 566.068267 268.661842 
L 574.522812 286.745458 
L 582.977358 298.266793 
L 591.431903 296.646494 
L 599.886449 288.704225 
L 608.340994 289.952791 
L 616.79554 294.182467 
L 625.250085 294.350441 
L 633.704631 290.66166 
L 642.159176 284.064367 
L 650.613722 277.884387 
L 659.068267 283.812191 
L 667.522812 303.690198 
L 675.977358 319.613088 
L 684.431903 325.613408 
L 692.886449 327.374871 
" clip-path="url(#pbe3e01a113)" style="fill: none; stroke: #17becf; stroke-width: 1.5; stroke-linecap: square"/>
   </g>
   <g id="patch_3">
    <path d="M 53.722813 411.214844 
L 53.722813 23.134844 
" style="fill: none; stroke: #333333; stroke-linejoin: miter; stroke-linecap: square"/>
   </g>
   <g id="patch_4">
    <path d="M 53.722812 411.214844 
L 723.322812 411.214844 
" style="fill: none; stroke: #333333; stroke-linejoin: miter; stroke-linecap: square"/>
   </g>
   <g id="text_17">
    <!-- Dataset: Touryan et al. (2022) | Subject: 04 | Session: 2 | All Task-State PSDs -->
    <g transform="translate(135.068516 17.134844) scale(0.13 -0.13)">
     <defs>
      <path id="DejaVuSerif-3a" d="M 666 325 
Q 666 500 786 622 
Q 906 744 1081 744 
Q 1256 744 1376 622 
Q 1497 500 1497 325 
Q 1497 150 1378 29 
Q 1259 -91 1081 -91 
Q 903 -91 784 29 
Q 666 150 666 325 
z
M 666 2363 
Q 666 2538 786 2658 
Q 906 2778 1081 2778 
Q 1259 2778 1378 2659 
Q 1497 2541 1497 2363 
Q 1497 2184 1378 2065 
Q 1259 1947 1081 1947 
Q 906 1947 786 2067 
Q 666 2188 666 2363 
z
" transform="scale(0.015625)"/>
      <path id="DejaVuSerif-54" d="M 1222 0 
L 1222 331 
L 1819 331 
L 1819 4294 
L 447 4294 
L 447 3566 
L 63 3566 
L 63 4666 
L 4206 4666 
L 4206 3566 
L 3822 3566 
L 3822 4294 
L 2450 4294 
L 2450 331 
L 3047 331 
L 3047 0 
L 1222 0 
z
" transform="scale(0.015625)"/>
      <path id="DejaVuSerif-2e" d="M 603 325 
Q 603 500 722 622 
Q 841 744 1019 744 
Q 1191 744 1312 622 
Q 1434 500 1434 325 
Q 1434 153 1312 31 
Q 1191 -91 1019 -91 
Q 841 -91 722 29 
Q 603 150 603 325 
z
" transform="scale(0.015625)"/>
      <path id="DejaVuSerif-7c" d="M 1331 4891 
L 1331 -1509 
L 825 -1509 
L 825 4891 
L 1331 4891 
z
" transform="scale(0.015625)"/>
      <path id="DejaVuSerif-62" d="M 738 331 
L 738 4531 
L 184 4531 
L 184 4863 
L 1313 4863 
L 1313 2803 
Q 1481 3116 1742 3264 
Q 2003 3413 2388 3413 
Q 3000 3413 3387 2928 
Q 3775 2444 3775 1663 
Q 3775 881 3387 395 
Q 3000 -91 2388 -91 
Q 2003 -91 1742 57 
Q 1481 206 1313 519 
L 1313 0 
L 184 0 
L 184 331 
L 738 331 
z
M 1313 1497 
Q 1313 897 1542 583 
Q 1772 269 2209 269 
Q 2650 269 2876 622 
Q 3103 975 3103 1663 
Q 3103 2353 2876 2703 
Q 2650 3053 2209 3053 
Q 1772 3053 1542 2737 
Q 1313 2422 1313 1825 
L 1313 1497 
z
" transform="scale(0.015625)"/>
      <path id="DejaVuSerif-6a" d="M 641 4353 
Q 641 4497 745 4603 
Q 850 4709 997 4709 
Q 1141 4709 1245 4603 
Q 1350 4497 1350 4353 
Q 1350 4206 1248 4103 
Q 1147 4000 997 4000 
Q 850 4000 745 4103 
Q 641 4206 641 4353 
z
M 781 2988 
L 238 2988 
L 238 3322 
L 1356 3322 
L 1356 -325 
Q 1356 -838 1051 -1130 
Q 747 -1422 213 -1422 
Q -13 -1422 -217 -1370 
Q -422 -1319 -616 -1216 
L -616 -531 
L -319 -531 
Q -297 -831 -164 -972 
Q -31 -1113 225 -1113 
Q 509 -1113 645 -920 
Q 781 -728 781 -325 
L 781 2988 
z
" transform="scale(0.015625)"/>
      <path id="DejaVuSerif-41" d="M 1281 1691 
L 2994 1691 
L 2138 3909 
L 1281 1691 
z
M -38 0 
L -38 331 
L 372 331 
L 2034 4666 
L 2559 4666 
L 4225 331 
L 4684 331 
L 4684 0 
L 2988 0 
L 2988 331 
L 3506 331 
L 3116 1356 
L 1153 1356 
L 763 331 
L 1275 331 
L 1275 0 
L -38 0 
z
" transform="scale(0.015625)"/>
      <path id="DejaVuSerif-6b" d="M 1831 0 
L 219 0 
L 219 331 
L 738 331 
L 738 4531 
L 184 4531 
L 184 4863 
L 1313 4863 
L 1313 1697 
L 2713 2988 
L 2234 2988 
L 2234 3322 
L 3738 3322 
L 3738 2988 
L 3169 2988 
L 2181 2075 
L 3444 331 
L 3922 331 
L 3922 0 
L 2284 0 
L 2284 331 
L 2759 331 
L 1766 1697 
L 1313 1275 
L 1313 331 
L 1831 331 
L 1831 0 
z
" transform="scale(0.015625)"/>
      <path id="DejaVuSerif-2d" d="M 281 1959 
L 1881 1959 
L 1881 1472 
L 281 1472 
L 281 1959 
z
" transform="scale(0.015625)"/>
     </defs>
     <use xlink:href="#DejaVuSerif-44"/>
     <use xlink:href="#DejaVuSerif-61" transform="translate(80.175781 0)"/>
     <use xlink:href="#DejaVuSerif-74" transform="translate(139.794922 0)"/>
     <use xlink:href="#DejaVuSerif-61" transform="translate(179.980469 0)"/>
     <use xlink:href="#DejaVuSerif-73" transform="translate(239.599609 0)"/>
     <use xlink:href="#DejaVuSerif-65" transform="translate(290.917969 0)"/>
     <use xlink:href="#DejaVuSerif-74" transform="translate(350.097656 0)"/>
     <use xlink:href="#DejaVuSerif-3a" transform="translate(390.283203 0)"/>
     <use xlink:href="#DejaVuSerif-20" transform="translate(423.974609 0)"/>
     <use xlink:href="#DejaVuSerif-54" transform="translate(455.761719 0)"/>
     <use xlink:href="#DejaVuSerif-6f" transform="translate(514.710938 0)"/>
     <use xlink:href="#DejaVuSerif-75" transform="translate(574.916016 0)"/>
     <use xlink:href="#DejaVuSerif-72" transform="translate(639.320312 0)"/>
     <use xlink:href="#DejaVuSerif-79" transform="translate(687.123047 0)"/>
     <use xlink:href="#DejaVuSerif-61" transform="translate(743.617188 0)"/>
     <use xlink:href="#DejaVuSerif-6e" transform="translate(803.236328 0)"/>
     <use xlink:href="#DejaVuSerif-20" transform="translate(867.640625 0)"/>
     <use xlink:href="#DejaVuSerif-65" transform="translate(899.427734 0)"/>
     <use xlink:href="#DejaVuSerif-74" transform="translate(958.607422 0)"/>
     <use xlink:href="#DejaVuSerif-20" transform="translate(998.792969 0)"/>
     <use xlink:href="#DejaVuSerif-61" transform="translate(1030.580078 0)"/>
     <use xlink:href="#DejaVuSerif-6c" transform="translate(1090.199219 0)"/>
     <use xlink:href="#DejaVuSerif-2e" transform="translate(1122.181641 0)"/>
     <use xlink:href="#DejaVuSerif-20" transform="translate(1153.96875 0)"/>
     <use xlink:href="#DejaVuSerif-28" transform="translate(1185.755859 0)"/>
     <use xlink:href="#DejaVuSerif-32" transform="translate(1224.769531 0)"/>
     <use xlink:href="#DejaVuSerif-30" transform="translate(1288.392578 0)"/>
     <use xlink:href="#DejaVuSerif-32" transform="translate(1352.015625 0)"/>
     <use xlink:href="#DejaVuSerif-32" transform="translate(1415.638672 0)"/>
     <use xlink:href="#DejaVuSerif-29" transform="translate(1479.261719 0)"/>
     <use xlink:href="#DejaVuSerif-20" transform="translate(1518.275391 0)"/>
     <use xlink:href="#DejaVuSerif-7c" transform="translate(1550.0625 0)"/>
     <use xlink:href="#DejaVuSerif-20" transform="translate(1583.753906 0)"/>
     <use xlink:href="#DejaVuSerif-53" transform="translate(1615.541016 0)"/>
     <use xlink:href="#DejaVuSerif-75" transform="translate(1684.046875 0)"/>
     <use xlink:href="#DejaVuSerif-62" transform="translate(1748.451172 0)"/>
     <use xlink:href="#DejaVuSerif-6a" transform="translate(1812.464844 0)"/>
     <use xlink:href="#DejaVuSerif-65" transform="translate(1843.470703 0)"/>
     <use xlink:href="#DejaVuSerif-63" transform="translate(1902.650391 0)"/>
     <use xlink:href="#DejaVuSerif-74" transform="translate(1958.65625 0)"/>
     <use xlink:href="#DejaVuSerif-3a" transform="translate(1998.841797 0)"/>
     <use xlink:href="#DejaVuSerif-20" transform="translate(2032.533203 0)"/>
     <use xlink:href="#DejaVuSerif-30" transform="translate(2064.320312 0)"/>
     <use xlink:href="#DejaVuSerif-34" transform="translate(2127.943359 0)"/>
     <use xlink:href="#DejaVuSerif-20" transform="translate(2191.566406 0)"/>
     <use xlink:href="#DejaVuSerif-7c" transform="translate(2223.353516 0)"/>
     <use xlink:href="#DejaVuSerif-20" transform="translate(2257.044922 0)"/>
     <use xlink:href="#DejaVuSerif-53" transform="translate(2288.832031 0)"/>
     <use xlink:href="#DejaVuSerif-65" transform="translate(2357.337891 0)"/>
     <use xlink:href="#DejaVuSerif-73" transform="translate(2416.517578 0)"/>
     <use xlink:href="#DejaVuSerif-73" transform="translate(2467.835938 0)"/>
     <use xlink:href="#DejaVuSerif-69" transform="translate(2519.154297 0)"/>
     <use xlink:href="#DejaVuSerif-6f" transform="translate(2551.136719 0)"/>
     <use xlink:href="#DejaVuSerif-6e" transform="translate(2611.341797 0)"/>
     <use xlink:href="#DejaVuSerif-3a" transform="translate(2675.746094 0)"/>
     <use xlink:href="#DejaVuSerif-20" transform="translate(2709.4375 0)"/>
     <use xlink:href="#DejaVuSerif-32" transform="translate(2741.224609 0)"/>
     <use xlink:href="#DejaVuSerif-20" transform="translate(2804.847656 0)"/>
     <use xlink:href="#DejaVuSerif-7c" transform="translate(2836.634766 0)"/>
     <use xlink:href="#DejaVuSerif-20" transform="translate(2870.326172 0)"/>
     <use xlink:href="#DejaVuSerif-41" transform="translate(2902.113281 0)"/>
     <use xlink:href="#DejaVuSerif-6c" transform="translate(2974.330078 0)"/>
     <use xlink:href="#DejaVuSerif-6c" transform="translate(3006.3125 0)"/>
     <use xlink:href="#DejaVuSerif-20" transform="translate(3038.294922 0)"/>
     <use xlink:href="#DejaVuSerif-54" transform="translate(3070.082031 0)"/>
     <use xlink:href="#DejaVuSerif-61" transform="translate(3129.03125 0)"/>
     <use xlink:href="#DejaVuSerif-73" transform="translate(3188.650391 0)"/>
     <use xlink:href="#DejaVuSerif-6b" transform="translate(3239.96875 0)"/>
     <use xlink:href="#DejaVuSerif-2d" transform="translate(3298.814453 0)"/>
     <use xlink:href="#DejaVuSerif-53" transform="translate(3332.603516 0)"/>
     <use xlink:href="#DejaVuSerif-74" transform="translate(3401.109375 0)"/>
     <use xlink:href="#DejaVuSerif-61" transform="translate(3441.294922 0)"/>
     <use xlink:href="#DejaVuSerif-74" transform="translate(3500.914062 0)"/>
     <use xlink:href="#DejaVuSerif-65" transform="translate(3541.099609 0)"/>
     <use xlink:href="#DejaVuSerif-20" transform="translate(3600.279297 0)"/>
     <use xlink:href="#DejaVuSerif-50" transform="translate(3632.066406 0)"/>
     <use xlink:href="#DejaVuSerif-53" transform="translate(3699.351562 0)"/>
     <use xlink:href="#DejaVuSerif-44" transform="translate(3767.857422 0)"/>
     <use xlink:href="#DejaVuSerif-73" transform="translate(3848.033203 0)"/>
    </g>
   </g>
   <g id="legend_1">
    <g id="line2d_33">
     <path d="M 573.19625 36.233281 
L 583.19625 36.233281 
L 593.19625 36.233281 
" style="fill: none; stroke: #1f77b4; stroke-width: 1.5; stroke-linecap: square"/>
    </g>
    <g id="text_18">
     <!-- police_detection - MW -->
     <g transform="translate(601.19625 39.733281) scale(0.1 -0.1)">
      <defs>
       <path id="DejaVuSerif-5f" d="M 3200 -1259 
L 3200 -1509 
L 0 -1509 
L 0 -1259 
L 3200 -1259 
z
" transform="scale(0.015625)"/>
       <path id="DejaVuSerif-4d" d="M 353 0 
L 353 331 
L 947 331 
L 947 4331 
L 319 4331 
L 319 4666 
L 1678 4666 
L 3316 1344 
L 4953 4666 
L 6228 4666 
L 6228 4331 
L 5606 4331 
L 5606 331 
L 6203 331 
L 6203 0 
L 4378 0 
L 4378 331 
L 4972 331 
L 4972 3938 
L 3372 684 
L 2931 684 
L 1331 3938 
L 1331 331 
L 1925 331 
L 1925 0 
L 353 0 
z
" transform="scale(0.015625)"/>
       <path id="DejaVuSerif-57" d="M 4878 0 
L 4366 0 
L 3297 3794 
L 2228 0 
L 1716 0 
L 494 4331 
L 31 4331 
L 31 4666 
L 1734 4666 
L 1734 4331 
L 1153 4331 
L 2125 884 
L 3188 4666 
L 3694 4666 
L 4775 844 
L 5753 4331 
L 5216 4331 
L 5216 4666 
L 6559 4666 
L 6559 4331 
L 6100 4331 
L 4878 0 
z
" transform="scale(0.015625)"/>
      </defs>
      <use xlink:href="#DejaVuSerif-70"/>
      <use xlink:href="#DejaVuSerif-6f" transform="translate(64.013672 0)"/>
      <use xlink:href="#DejaVuSerif-6c" transform="translate(124.21875 0)"/>
      <use xlink:href="#DejaVuSerif-69" transform="translate(156.201172 0)"/>
      <use xlink:href="#DejaVuSerif-63" transform="translate(188.183594 0)"/>
      <use xlink:href="#DejaVuSerif-65" transform="translate(244.189453 0)"/>
      <use xlink:href="#DejaVuSerif-5f" transform="translate(303.369141 0)"/>
      <use xlink:href="#DejaVuSerif-64" transform="translate(353.369141 0)"/>
      <use xlink:href="#DejaVuSerif-65" transform="translate(417.382812 0)"/>
      <use xlink:href="#DejaVuSerif-74" transform="translate(476.5625 0)"/>
      <use xlink:href="#DejaVuSerif-65" transform="translate(516.748047 0)"/>
      <use xlink:href="#DejaVuSerif-63" transform="translate(575.927734 0)"/>
      <use xlink:href="#DejaVuSerif-74" transform="translate(631.933594 0)"/>
      <use xlink:href="#DejaVuSerif-69" transform="translate(672.119141 0)"/>
      <use xlink:href="#DejaVuSerif-6f" transform="translate(704.101562 0)"/>
      <use xlink:href="#DejaVuSerif-6e" transform="translate(764.306641 0)"/>
      <use xlink:href="#DejaVuSerif-20" transform="translate(828.710938 0)"/>
      <use xlink:href="#DejaVuSerif-2d" transform="translate(860.498047 0)"/>
      <use xlink:href="#DejaVuSerif-20" transform="translate(894.287109 0)"/>
      <use xlink:href="#DejaVuSerif-4d" transform="translate(926.074219 0)"/>
      <use xlink:href="#DejaVuSerif-57" transform="translate(1028.466797 0)"/>
     </g>
    </g>
    <g id="line2d_34">
     <path d="M 573.19625 51.189531 
L 583.19625 51.189531 
L 593.19625 51.189531 
" style="fill: none; stroke: #d62728; stroke-width: 1.5; stroke-linecap: square"/>
    </g>
    <g id="text_19">
     <!-- police_detection - OT -->
     <g transform="translate(601.19625 54.689531) scale(0.1 -0.1)">
      <defs>
       <path id="DejaVuSerif-4f" d="M 2625 244 
Q 3391 244 3781 770 
Q 4172 1297 4172 2328 
Q 4172 3363 3781 3889 
Q 3391 4416 2625 4416 
Q 1856 4416 1465 3889 
Q 1075 3363 1075 2328 
Q 1075 1297 1465 770 
Q 1856 244 2625 244 
z
M 2625 -91 
Q 2150 -91 1751 65 
Q 1353 222 1050 525 
Q 700 875 529 1319 
Q 359 1763 359 2328 
Q 359 2894 529 3339 
Q 700 3784 1050 4134 
Q 1356 4441 1750 4595 
Q 2144 4750 2625 4750 
Q 3641 4750 4266 4084 
Q 4891 3419 4891 2328 
Q 4891 1769 4719 1320 
Q 4547 872 4197 525 
Q 3891 219 3497 64 
Q 3103 -91 2625 -91 
z
" transform="scale(0.015625)"/>
      </defs>
      <use xlink:href="#DejaVuSerif-70"/>
      <use xlink:href="#DejaVuSerif-6f" transform="translate(64.013672 0)"/>
      <use xlink:href="#DejaVuSerif-6c" transform="translate(124.21875 0)"/>
      <use xlink:href="#DejaVuSerif-69" transform="translate(156.201172 0)"/>
      <use xlink:href="#DejaVuSerif-63" transform="translate(188.183594 0)"/>
      <use xlink:href="#DejaVuSerif-65" transform="translate(244.189453 0)"/>
      <use xlink:href="#DejaVuSerif-5f" transform="translate(303.369141 0)"/>
      <use xlink:href="#DejaVuSerif-64" transform="translate(353.369141 0)"/>
      <use xlink:href="#DejaVuSerif-65" transform="translate(417.382812 0)"/>
      <use xlink:href="#DejaVuSerif-74" transform="translate(476.5625 0)"/>
      <use xlink:href="#DejaVuSerif-65" transform="translate(516.748047 0)"/>
      <use xlink:href="#DejaVuSerif-63" transform="translate(575.927734 0)"/>
      <use xlink:href="#DejaVuSerif-74" transform="translate(631.933594 0)"/>
      <use xlink:href="#DejaVuSerif-69" transform="translate(672.119141 0)"/>
      <use xlink:href="#DejaVuSerif-6f" transform="translate(704.101562 0)"/>
      <use xlink:href="#DejaVuSerif-6e" transform="translate(764.306641 0)"/>
      <use xlink:href="#DejaVuSerif-20" transform="translate(828.710938 0)"/>
      <use xlink:href="#DejaVuSerif-2d" transform="translate(860.498047 0)"/>
      <use xlink:href="#DejaVuSerif-20" transform="translate(894.287109 0)"/>
      <use xlink:href="#DejaVuSerif-4f" transform="translate(926.074219 0)"/>
      <use xlink:href="#DejaVuSerif-54" transform="translate(1008.056641 0)"/>
     </g>
    </g>
    <g id="line2d_35">
     <path d="M 573.19625 66.145781 
L 583.19625 66.145781 
L 593.19625 66.145781 
" style="fill: none; stroke: #e377c2; stroke-width: 1.5; stroke-linecap: square"/>
    </g>
    <g id="text_20">
     <!-- collision - MW -->
     <g transform="translate(601.19625 69.645781) scale(0.1 -0.1)">
      <use xlink:href="#DejaVuSerif-63"/>
      <use xlink:href="#DejaVuSerif-6f" transform="translate(56.005859 0)"/>
      <use xlink:href="#DejaVuSerif-6c" transform="translate(116.210938 0)"/>
      <use xlink:href="#DejaVuSerif-6c" transform="translate(148.193359 0)"/>
      <use xlink:href="#DejaVuSerif-69" transform="translate(180.175781 0)"/>
      <use xlink:href="#DejaVuSerif-73" transform="translate(212.158203 0)"/>
      <use xlink:href="#DejaVuSerif-69" transform="translate(263.476562 0)"/>
      <use xlink:href="#DejaVuSerif-6f" transform="translate(295.458984 0)"/>
      <use xlink:href="#DejaVuSerif-6e" transform="translate(355.664062 0)"/>
      <use xlink:href="#DejaVuSerif-20" transform="translate(420.068359 0)"/>
      <use xlink:href="#DejaVuSerif-2d" transform="translate(451.855469 0)"/>
      <use xlink:href="#DejaVuSerif-20" transform="translate(485.644531 0)"/>
      <use xlink:href="#DejaVuSerif-4d" transform="translate(517.431641 0)"/>
      <use xlink:href="#DejaVuSerif-57" transform="translate(619.824219 0)"/>
     </g>
    </g>
    <g id="line2d_36">
     <path d="M 573.19625 80.823906 
L 583.19625 80.823906 
L 593.19625 80.823906 
" style="fill: none; stroke: #17becf; stroke-width: 1.5; stroke-linecap: square"/>
    </g>
    <g id="text_21">
     <!-- collision - OT -->
     <g transform="translate(601.19625 84.323906) scale(0.1 -0.1)">
      <use xlink:href="#DejaVuSerif-63"/>
      <use xlink:href="#DejaVuSerif-6f" transform="translate(56.005859 0)"/>
      <use xlink:href="#DejaVuSerif-6c" transform="translate(116.210938 0)"/>
      <use xlink:href="#DejaVuSerif-6c" transform="translate(148.193359 0)"/>
      <use xlink:href="#DejaVuSerif-69" transform="translate(180.175781 0)"/>
      <use xlink:href="#DejaVuSerif-73" transform="translate(212.158203 0)"/>
      <use xlink:href="#DejaVuSerif-69" transform="translate(263.476562 0)"/>
      <use xlink:href="#DejaVuSerif-6f" transform="translate(295.458984 0)"/>
      <use xlink:href="#DejaVuSerif-6e" transform="translate(355.664062 0)"/>
      <use xlink:href="#DejaVuSerif-20" transform="translate(420.068359 0)"/>
      <use xlink:href="#DejaVuSerif-2d" transform="translate(451.855469 0)"/>
      <use xlink:href="#DejaVuSerif-20" transform="translate(485.644531 0)"/>
      <use xlink:href="#DejaVuSerif-4f" transform="translate(517.431641 0)"/>
      <use xlink:href="#DejaVuSerif-54" transform="translate(599.414062 0)"/>
     </g>
    </g>
   </g>
  </g>
 </g>
 <defs>
  <clipPath id="pbe3e01a113">
   <rect x="53.722813" y="23.134844" width="669.6" height="388.08"/>
  </clipPath>
 </defs>
</svg>
