<?xml version="1.0" encoding="utf-8" standalone="no"?>
<!DOCTYPE svg PUBLIC "-//W3C//DTD SVG 1.1//EN"
  "http://www.w3.org/Graphics/SVG/1.1/DTD/svg11.dtd">
<svg xmlns:xlink="http://www.w3.org/1999/xlink" width="730.522812pt" height="448.9275pt" viewBox="0 0 730.522812 448.9275" xmlns="http://www.w3.org/2000/svg" version="1.1">
 <metadata>
  <rdf:RDF xmlns:dc="http://purl.org/dc/elements/1.1/" xmlns:cc="http://creativecommons.org/ns#" xmlns:rdf="http://www.w3.org/1999/02/22-rdf-syntax-ns#">
   <cc:Work>
    <dc:type rdf:resource="http://purl.org/dc/dcmitype/StillImage"/>
    <dc:date>2025-05-30T20:16:03.779000</dc:date>
    <dc:format>image/svg+xml</dc:format>
    <dc:creator>
     <cc:Agent>
      <dc:title>Matplotlib v3.10.3, https://matplotlib.org/</dc:title>
     </cc:Agent>
    </dc:creator>
   </cc:Work>
  </rdf:RDF>
 </metadata>
 <defs>
  <style type="text/css">*{stroke-linejoin: round; stroke-linecap: butt}</style>
 </defs>
 <g id="figure_1">
  <g id="patch_1">
   <path d="M 0 448.9275 
L 730.522812 448.9275 
L 730.522812 0 
L 0 0 
z
" style="fill: #ffffff"/>
  </g>
  <g id="axes_1">
   <g id="patch_2">
    <path d="M 53.722813 411.214844 
L 723.322813 411.214844 
L 723.322813 23.134844 
L 53.722813 23.134844 
z
" style="fill: #ffffff"/>
   </g>
   <g id="FillBetweenPolyCollection_1">
    <defs>
     <path id="m1a542857c5" d="M 84.159176 -364.97081 
L 84.159176 -364.97081 
L 92.613722 -346.873698 
L 101.068267 -331.529398 
L 109.522812 -318.168944 
L 117.977358 -306.798514 
L 126.431903 -298.136148 
L 134.886449 -290.907497 
L 143.340994 -285.002682 
L 151.79554 -283.595163 
L 160.250085 -286.617868 
L 168.704631 -292.818226 
L 177.159176 -302.177087 
L 185.613722 -311.527688 
L 194.068267 -318.165912 
L 202.522812 -323.434095 
L 210.977358 -326.75776 
L 219.431903 -323.762217 
L 227.886449 -313.528332 
L 236.340994 -299.368177 
L 244.79554 -285.653043 
L 253.250085 -274.810847 
L 261.704631 -267.856769 
L 270.159176 -262.666255 
L 278.613722 -257.428514 
L 287.068267 -253.426924 
L 295.522812 -250.637554 
L 303.977358 -246.859341 
L 312.431903 -242.558326 
L 320.886449 -240.318588 
L 329.340994 -241.117765 
L 337.79554 -241.808753 
L 346.250085 -240.37597 
L 354.704631 -238.245064 
L 363.159176 -236.783865 
L 371.613722 -239.004865 
L 380.068267 -245.175297 
L 388.522812 -248.483779 
L 396.977358 -245.144723 
L 405.431903 -238.006404 
L 413.886449 -231.241445 
L 422.340994 -225.01914 
L 430.79554 -218.325596 
L 439.250085 -212.830804 
L 447.704631 -207.079957 
L 456.159176 -198.310683 
L 464.613722 -190.552725 
L 473.068267 -187.927027 
L 481.522812 -186.71494 
L 489.977358 -184.010501 
L 498.431903 -179.586968 
L 506.886449 -175.077771 
L 515.340994 -171.621482 
L 523.79554 -169.040569 
L 532.250085 -164.993757 
L 540.704631 -159.545166 
L 549.159176 -155.849461 
L 557.613722 -152.519077 
L 566.068267 -148.523176 
L 574.522812 -144.022192 
L 582.977358 -139.12375 
L 591.431903 -134.324399 
L 599.886449 -129.147976 
L 608.340994 -121.30943 
L 616.79554 -112.454803 
L 625.250085 -107.703319 
L 633.704631 -106.861687 
L 642.159176 -106.253005 
L 650.613722 -103.924965 
L 659.068267 -99.646157 
L 667.522812 -96.953865 
L 675.977358 -95.813204 
L 684.431903 -94.397834 
L 692.886449 -93.825665 
L 692.886449 -93.825665 
L 692.886449 -55.352656 
L 684.431903 -55.352656 
L 675.977358 -55.352656 
L 667.522812 -55.352656 
L 659.068267 -55.352656 
L 650.613722 -55.352656 
L 642.159176 -55.352656 
L 633.704631 -55.352656 
L 625.250085 -55.352656 
L 616.79554 -55.352656 
L 608.340994 -55.352656 
L 599.886449 -55.352656 
L 591.431903 -55.352656 
L 582.977358 -55.352656 
L 574.522812 -55.352656 
L 566.068267 -55.352656 
L 557.613722 -55.352656 
L 549.159176 -55.352656 
L 540.704631 -55.352656 
L 532.250085 -55.352656 
L 523.79554 -55.352656 
L 515.340994 -55.352656 
L 506.886449 -55.352656 
L 498.431903 -55.352656 
L 489.977358 -55.352656 
L 481.522812 -55.352656 
L 473.068267 -55.352656 
L 464.613722 -55.352656 
L 456.159176 -55.352656 
L 447.704631 -55.352656 
L 439.250085 -55.352656 
L 430.79554 -55.352656 
L 422.340994 -55.352656 
L 413.886449 -55.352656 
L 405.431903 -55.352656 
L 396.977358 -55.352656 
L 388.522812 -55.352656 
L 380.068267 -55.352656 
L 371.613722 -55.352656 
L 363.159176 -55.352656 
L 354.704631 -55.352656 
L 346.250085 -55.352656 
L 337.79554 -55.352656 
L 329.340994 -55.352656 
L 320.886449 -55.352656 
L 312.431903 -55.352656 
L 303.977358 -55.352656 
L 295.522812 -55.352656 
L 287.068267 -55.352656 
L 278.613722 -55.352656 
L 270.159176 -55.352656 
L 261.704631 -55.352656 
L 253.250085 -55.352656 
L 244.79554 -55.352656 
L 236.340994 -55.352656 
L 227.886449 -55.352656 
L 219.431903 -55.352656 
L 210.977358 -55.352656 
L 202.522812 -55.352656 
L 194.068267 -55.352656 
L 185.613722 -55.352656 
L 177.159176 -55.352656 
L 168.704631 -55.352656 
L 160.250085 -55.352656 
L 151.79554 -55.352656 
L 143.340994 -55.352656 
L 134.886449 -55.352656 
L 126.431903 -55.352656 
L 117.977358 -55.352656 
L 109.522812 -55.352656 
L 101.068267 -55.352656 
L 92.613722 -55.352656 
L 84.159176 -55.352656 
z
" style="stroke: #1f77b4; stroke-opacity: 0.3"/>
    </defs>
    <g clip-path="url(#p00f97938c1)">
     <use xlink:href="#m1a542857c5" x="0" y="448.9275" style="fill: #1f77b4; fill-opacity: 0.3; stroke: #1f77b4; stroke-opacity: 0.3"/>
    </g>
   </g>
   <g id="FillBetweenPolyCollection_2">
    <defs>
     <path id="m0288536d6f" d="M 84.159176 -368.34215 
L 84.159176 -368.34215 
L 92.613722 -355.666996 
L 101.068267 -334.146911 
L 109.522812 -316.760527 
L 117.977358 -306.698301 
L 126.431903 -300.81545 
L 134.886449 -295.586541 
L 143.340994 -291.756918 
L 151.79554 -289.748095 
L 160.250085 -291.680274 
L 168.704631 -303.592757 
L 177.159176 -322.087597 
L 185.613722 -342.040353 
L 194.068267 -360.641972 
L 202.522812 -374.053509 
L 210.977358 -375.039414 
L 219.431903 -364.875283 
L 227.886449 -345.49538 
L 236.340994 -317.671214 
L 244.79554 -293.338644 
L 253.250085 -285.878987 
L 261.704631 -287.983283 
L 270.159176 -288.430659 
L 278.613722 -287.091204 
L 287.068267 -282.26292 
L 295.522812 -273.204638 
L 303.977358 -267.836809 
L 312.431903 -270.429198 
L 320.886449 -272.962643 
L 329.340994 -270.475136 
L 337.79554 -268.59169 
L 346.250085 -272.325547 
L 354.704631 -277.578231 
L 363.159176 -281.717208 
L 371.613722 -284.458116 
L 380.068267 -281.934509 
L 388.522812 -268.414849 
L 396.977358 -248.22724 
L 405.431903 -235.248888 
L 413.886449 -229.764103 
L 422.340994 -226.420092 
L 430.79554 -226.019978 
L 439.250085 -225.773183 
L 447.704631 -219.64626 
L 456.159176 -207.728773 
L 464.613722 -198.469048 
L 473.068267 -191.237046 
L 481.522812 -182.047852 
L 489.977358 -176.198037 
L 498.431903 -174.091792 
L 506.886449 -175.587139 
L 515.340994 -175.322898 
L 523.79554 -165.673954 
L 532.250085 -157.895263 
L 540.704631 -165.725209 
L 549.159176 -171.133633 
L 557.613722 -163.545939 
L 566.068267 -150.288835 
L 574.522812 -144.819078 
L 582.977358 -142.457204 
L 591.431903 -137.177344 
L 599.886449 -129.788258 
L 608.340994 -120.741783 
L 616.79554 -114.23056 
L 625.250085 -112.530786 
L 633.704631 -111.212585 
L 642.159176 -105.677967 
L 650.613722 -98.548212 
L 659.068267 -93.570967 
L 667.522812 -89.574278 
L 675.977358 -86.31086 
L 684.431903 -86.360111 
L 692.886449 -89.980502 
L 692.886449 -89.980502 
L 692.886449 -55.352656 
L 684.431903 -55.352656 
L 675.977358 -55.352656 
L 667.522812 -55.352656 
L 659.068267 -55.352656 
L 650.613722 -55.352656 
L 642.159176 -55.352656 
L 633.704631 -55.352656 
L 625.250085 -55.352656 
L 616.79554 -55.352656 
L 608.340994 -55.352656 
L 599.886449 -55.352656 
L 591.431903 -55.352656 
L 582.977358 -55.352656 
L 574.522812 -55.352656 
L 566.068267 -55.352656 
L 557.613722 -55.352656 
L 549.159176 -55.352656 
L 540.704631 -55.352656 
L 532.250085 -55.352656 
L 523.79554 -55.352656 
L 515.340994 -55.352656 
L 506.886449 -55.352656 
L 498.431903 -55.352656 
L 489.977358 -55.352656 
L 481.522812 -55.352656 
L 473.068267 -55.352656 
L 464.613722 -55.352656 
L 456.159176 -55.352656 
L 447.704631 -55.352656 
L 439.250085 -55.352656 
L 430.79554 -55.352656 
L 422.340994 -55.352656 
L 413.886449 -55.352656 
L 405.431903 -55.352656 
L 396.977358 -55.352656 
L 388.522812 -55.352656 
L 380.068267 -55.352656 
L 371.613722 -55.352656 
L 363.159176 -55.352656 
L 354.704631 -55.352656 
L 346.250085 -55.352656 
L 337.79554 -55.352656 
L 329.340994 -55.352656 
L 320.886449 -55.352656 
L 312.431903 -55.352656 
L 303.977358 -55.352656 
L 295.522812 -55.352656 
L 287.068267 -55.352656 
L 278.613722 -55.352656 
L 270.159176 -55.352656 
L 261.704631 -55.352656 
L 253.250085 -55.352656 
L 244.79554 -55.352656 
L 236.340994 -55.352656 
L 227.886449 -55.352656 
L 219.431903 -55.352656 
L 210.977358 -55.352656 
L 202.522812 -55.352656 
L 194.068267 -55.352656 
L 185.613722 -55.352656 
L 177.159176 -55.352656 
L 168.704631 -55.352656 
L 160.250085 -55.352656 
L 151.79554 -55.352656 
L 143.340994 -55.352656 
L 134.886449 -55.352656 
L 126.431903 -55.352656 
L 117.977358 -55.352656 
L 109.522812 -55.352656 
L 101.068267 -55.352656 
L 92.613722 -55.352656 
L 84.159176 -55.352656 
z
" style="stroke: #8c564b; stroke-opacity: 0.3"/>
    </defs>
    <g clip-path="url(#p00f97938c1)">
     <use xlink:href="#m0288536d6f" x="0" y="448.9275" style="fill: #8c564b; fill-opacity: 0.3; stroke: #8c564b; stroke-opacity: 0.3"/>
    </g>
   </g>
   <g id="FillBetweenPolyCollection_3">
    <defs>
     <path id="m06ac4febcb" d="M 84.159176 -340.841217 
L 84.159176 -340.841217 
L 92.613722 -330.955669 
L 101.068267 -324.917845 
L 109.522812 -319.184118 
L 117.977358 -314.343008 
L 126.431903 -309.490489 
L 134.886449 -300.510928 
L 143.340994 -288.631656 
L 151.79554 -281.874927 
L 160.250085 -282.569531 
L 168.704631 -285.146718 
L 177.159176 -292.761211 
L 185.613722 -315.157979 
L 194.068267 -345.639176 
L 202.522812 -375.1261 
L 210.977358 -397.854925 
L 219.431903 -408.152656 
L 227.886449 -398.350982 
L 236.340994 -366.474043 
L 244.79554 -326.302132 
L 253.250085 -290.726124 
L 261.704631 -262.666901 
L 270.159176 -248.510989 
L 278.613722 -243.851842 
L 287.068267 -236.407137 
L 295.522812 -227.279511 
L 303.977358 -225.849176 
L 312.431903 -231.94746 
L 320.886449 -236.542596 
L 329.340994 -236.311321 
L 337.79554 -234.435149 
L 346.250085 -235.423302 
L 354.704631 -236.199214 
L 363.159176 -231.452243 
L 371.613722 -226.996756 
L 380.068267 -229.202385 
L 388.522812 -232.791947 
L 396.977358 -232.217001 
L 405.431903 -232.10772 
L 413.886449 -232.954176 
L 422.340994 -229.194616 
L 430.79554 -219.874662 
L 439.250085 -209.620382 
L 447.704631 -200.897599 
L 456.159176 -190.552445 
L 464.613722 -177.60888 
L 473.068267 -167.047833 
L 481.522812 -167.391332 
L 489.977358 -173.785385 
L 498.431903 -178.608446 
L 506.886449 -178.885643 
L 515.340994 -172.08499 
L 523.79554 -169.339074 
L 532.250085 -176.051013 
L 540.704631 -178.783289 
L 549.159176 -170.60549 
L 557.613722 -156.99376 
L 566.068267 -147.353249 
L 574.522812 -142.734303 
L 582.977358 -137.449558 
L 591.431903 -131.560587 
L 599.886449 -127.732464 
L 608.340994 -127.660385 
L 616.79554 -126.369095 
L 625.250085 -120.526565 
L 633.704631 -109.32771 
L 642.159176 -98.643569 
L 650.613722 -100.634459 
L 659.068267 -113.670544 
L 667.522812 -117.098126 
L 675.977358 -103.129605 
L 684.431903 -86.186993 
L 692.886449 -86.392595 
L 692.886449 -86.392595 
L 692.886449 -55.352656 
L 684.431903 -55.352656 
L 675.977358 -55.352656 
L 667.522812 -55.352656 
L 659.068267 -55.352656 
L 650.613722 -55.352656 
L 642.159176 -55.352656 
L 633.704631 -55.352656 
L 625.250085 -55.352656 
L 616.79554 -55.352656 
L 608.340994 -55.352656 
L 599.886449 -55.352656 
L 591.431903 -55.352656 
L 582.977358 -55.352656 
L 574.522812 -55.352656 
L 566.068267 -55.352656 
L 557.613722 -55.352656 
L 549.159176 -55.352656 
L 540.704631 -55.352656 
L 532.250085 -55.352656 
L 523.79554 -55.352656 
L 515.340994 -55.352656 
L 506.886449 -55.352656 
L 498.431903 -55.352656 
L 489.977358 -55.352656 
L 481.522812 -55.352656 
L 473.068267 -55.352656 
L 464.613722 -55.352656 
L 456.159176 -55.352656 
L 447.704631 -55.352656 
L 439.250085 -55.352656 
L 430.79554 -55.352656 
L 422.340994 -55.352656 
L 413.886449 -55.352656 
L 405.431903 -55.352656 
L 396.977358 -55.352656 
L 388.522812 -55.352656 
L 380.068267 -55.352656 
L 371.613722 -55.352656 
L 363.159176 -55.352656 
L 354.704631 -55.352656 
L 346.250085 -55.352656 
L 337.79554 -55.352656 
L 329.340994 -55.352656 
L 320.886449 -55.352656 
L 312.431903 -55.352656 
L 303.977358 -55.352656 
L 295.522812 -55.352656 
L 287.068267 -55.352656 
L 278.613722 -55.352656 
L 270.159176 -55.352656 
L 261.704631 -55.352656 
L 253.250085 -55.352656 
L 244.79554 -55.352656 
L 236.340994 -55.352656 
L 227.886449 -55.352656 
L 219.431903 -55.352656 
L 210.977358 -55.352656 
L 202.522812 -55.352656 
L 194.068267 -55.352656 
L 185.613722 -55.352656 
L 177.159176 -55.352656 
L 168.704631 -55.352656 
L 160.250085 -55.352656 
L 151.79554 -55.352656 
L 143.340994 -55.352656 
L 134.886449 -55.352656 
L 126.431903 -55.352656 
L 117.977358 -55.352656 
L 109.522812 -55.352656 
L 101.068267 -55.352656 
L 92.613722 -55.352656 
L 84.159176 -55.352656 
z
" style="stroke: #17becf; stroke-opacity: 0.3"/>
    </defs>
    <g clip-path="url(#p00f97938c1)">
     <use xlink:href="#m06ac4febcb" x="0" y="448.9275" style="fill: #17becf; fill-opacity: 0.3; stroke: #17becf; stroke-opacity: 0.3"/>
    </g>
   </g>
   <g id="matplotlib.axis_1">
    <g id="xtick_1">
     <g id="line2d_1">
      <path d="M 101.068267 411.214844 
L 101.068267 23.134844 
" clip-path="url(#p00f97938c1)" style="fill: none; stroke-dasharray: 2.96,1.28; stroke-dashoffset: 0; stroke: #dddddd; stroke-width: 0.8"/>
     </g>
     <g id="line2d_2">
      <defs>
       <path id="m00ecb1b0b3" d="M 0 0 
L 0 3.5 
" style="stroke: #333333; stroke-width: 0.8"/>
      </defs>
      <g>
       <use xlink:href="#m00ecb1b0b3" x="101.068267" y="411.214844" style="fill: #333333; stroke: #333333; stroke-width: 0.8"/>
      </g>
     </g>
     <g id="text_1">
      <!-- 5 -->
      <g style="fill: #333333" transform="translate(98.205142 425.053437) scale(0.09 -0.09)">
       <defs>
        <path id="DejaVuSerif-35" d="M 3219 4666 
L 3219 4153 
L 1081 4153 
L 1081 2816 
Q 1244 2928 1461 2984 
Q 1678 3041 1947 3041 
Q 2703 3041 3140 2622 
Q 3578 2203 3578 1478 
Q 3578 738 3136 323 
Q 2694 -91 1894 -91 
Q 1572 -91 1234 -12 
Q 897 66 544 225 
L 544 1131 
L 897 1131 
Q 925 688 1179 453 
Q 1434 219 1894 219 
Q 2388 219 2653 544 
Q 2919 869 2919 1478 
Q 2919 2084 2655 2407 
Q 2391 2731 1894 2731 
Q 1613 2731 1398 2631 
Q 1184 2531 1019 2322 
L 750 2322 
L 750 4666 
L 3219 4666 
z
" transform="scale(0.015625)"/>
       </defs>
       <use xlink:href="#DejaVuSerif-35"/>
      </g>
     </g>
    </g>
    <g id="xtick_2">
     <g id="line2d_3">
      <path d="M 185.613722 411.214844 
L 185.613722 23.134844 
" clip-path="url(#p00f97938c1)" style="fill: none; stroke-dasharray: 2.96,1.28; stroke-dashoffset: 0; stroke: #dddddd; stroke-width: 0.8"/>
     </g>
     <g id="line2d_4">
      <g>
       <use xlink:href="#m00ecb1b0b3" x="185.613722" y="411.214844" style="fill: #333333; stroke: #333333; stroke-width: 0.8"/>
      </g>
     </g>
     <g id="text_2">
      <!-- 10 -->
      <g style="fill: #333333" transform="translate(179.887472 425.053437) scale(0.09 -0.09)">
       <defs>
        <path id="DejaVuSerif-31" d="M 909 0 
L 909 331 
L 1722 331 
L 1722 4213 
L 781 3603 
L 781 4013 
L 1919 4750 
L 2350 4750 
L 2350 331 
L 3163 331 
L 3163 0 
L 909 0 
z
" transform="scale(0.015625)"/>
        <path id="DejaVuSerif-30" d="M 2034 219 
Q 2513 219 2750 744 
Q 2988 1269 2988 2328 
Q 2988 3391 2750 3916 
Q 2513 4441 2034 4441 
Q 1556 4441 1318 3916 
Q 1081 3391 1081 2328 
Q 1081 1269 1318 744 
Q 1556 219 2034 219 
z
M 2034 -91 
Q 1275 -91 848 546 
Q 422 1184 422 2328 
Q 422 3475 848 4112 
Q 1275 4750 2034 4750 
Q 2797 4750 3222 4112 
Q 3647 3475 3647 2328 
Q 3647 1184 3222 546 
Q 2797 -91 2034 -91 
z
" transform="scale(0.015625)"/>
       </defs>
       <use xlink:href="#DejaVuSerif-31"/>
       <use xlink:href="#DejaVuSerif-30" transform="translate(63.623047 0)"/>
      </g>
     </g>
    </g>
    <g id="xtick_3">
     <g id="line2d_5">
      <path d="M 270.159176 411.214844 
L 270.159176 23.134844 
" clip-path="url(#p00f97938c1)" style="fill: none; stroke-dasharray: 2.96,1.28; stroke-dashoffset: 0; stroke: #dddddd; stroke-width: 0.8"/>
     </g>
     <g id="line2d_6">
      <g>
       <use xlink:href="#m00ecb1b0b3" x="270.159176" y="411.214844" style="fill: #333333; stroke: #333333; stroke-width: 0.8"/>
      </g>
     </g>
     <g id="text_3">
      <!-- 15 -->
      <g style="fill: #333333" transform="translate(264.432926 425.053437) scale(0.09 -0.09)">
       <use xlink:href="#DejaVuSerif-31"/>
       <use xlink:href="#DejaVuSerif-35" transform="translate(63.623047 0)"/>
      </g>
     </g>
    </g>
    <g id="xtick_4">
     <g id="line2d_7">
      <path d="M 354.704631 411.214844 
L 354.704631 23.134844 
" clip-path="url(#p00f97938c1)" style="fill: none; stroke-dasharray: 2.96,1.28; stroke-dashoffset: 0; stroke: #dddddd; stroke-width: 0.8"/>
     </g>
     <g id="line2d_8">
      <g>
       <use xlink:href="#m00ecb1b0b3" x="354.704631" y="411.214844" style="fill: #333333; stroke: #333333; stroke-width: 0.8"/>
      </g>
     </g>
     <g id="text_4">
      <!-- 20 -->
      <g style="fill: #333333" transform="translate(348.978381 425.053437) scale(0.09 -0.09)">
       <defs>
        <path id="DejaVuSerif-32" d="M 819 3553 
L 469 3553 
L 469 4384 
Q 803 4563 1142 4656 
Q 1481 4750 1806 4750 
Q 2534 4750 2956 4397 
Q 3378 4044 3378 3438 
Q 3378 2753 2422 1800 
Q 2347 1728 2309 1691 
L 1131 513 
L 3078 513 
L 3078 1088 
L 3444 1088 
L 3444 0 
L 434 0 
L 434 341 
L 1850 1753 
Q 2319 2222 2519 2614 
Q 2719 3006 2719 3438 
Q 2719 3909 2473 4175 
Q 2228 4441 1797 4441 
Q 1350 4441 1106 4219 
Q 863 3997 819 3553 
z
" transform="scale(0.015625)"/>
       </defs>
       <use xlink:href="#DejaVuSerif-32"/>
       <use xlink:href="#DejaVuSerif-30" transform="translate(63.623047 0)"/>
      </g>
     </g>
    </g>
    <g id="xtick_5">
     <g id="line2d_9">
      <path d="M 439.250085 411.214844 
L 439.250085 23.134844 
" clip-path="url(#p00f97938c1)" style="fill: none; stroke-dasharray: 2.96,1.28; stroke-dashoffset: 0; stroke: #dddddd; stroke-width: 0.8"/>
     </g>
     <g id="line2d_10">
      <g>
       <use xlink:href="#m00ecb1b0b3" x="439.250085" y="411.214844" style="fill: #333333; stroke: #333333; stroke-width: 0.8"/>
      </g>
     </g>
     <g id="text_5">
      <!-- 25 -->
      <g style="fill: #333333" transform="translate(433.523835 425.053437) scale(0.09 -0.09)">
       <use xlink:href="#DejaVuSerif-32"/>
       <use xlink:href="#DejaVuSerif-35" transform="translate(63.623047 0)"/>
      </g>
     </g>
    </g>
    <g id="xtick_6">
     <g id="line2d_11">
      <path d="M 523.79554 411.214844 
L 523.79554 23.134844 
" clip-path="url(#p00f97938c1)" style="fill: none; stroke-dasharray: 2.96,1.28; stroke-dashoffset: 0; stroke: #dddddd; stroke-width: 0.8"/>
     </g>
     <g id="line2d_12">
      <g>
       <use xlink:href="#m00ecb1b0b3" x="523.79554" y="411.214844" style="fill: #333333; stroke: #333333; stroke-width: 0.8"/>
      </g>
     </g>
     <g id="text_6">
      <!-- 30 -->
      <g style="fill: #333333" transform="translate(518.06929 425.053437) scale(0.09 -0.09)">
       <defs>
        <path id="DejaVuSerif-33" d="M 622 4469 
Q 988 4606 1323 4678 
Q 1659 4750 1953 4750 
Q 2638 4750 3022 4454 
Q 3406 4159 3406 3634 
Q 3406 3213 3140 2930 
Q 2875 2647 2388 2547 
Q 2963 2466 3280 2130 
Q 3597 1794 3597 1259 
Q 3597 606 3158 257 
Q 2719 -91 1894 -91 
Q 1528 -91 1179 -12 
Q 831 66 488 225 
L 488 1131 
L 838 1131 
Q 869 681 1141 450 
Q 1413 219 1906 219 
Q 2384 219 2661 495 
Q 2938 772 2938 1253 
Q 2938 1803 2653 2086 
Q 2369 2369 1819 2369 
L 1522 2369 
L 1522 2688 
L 1678 2688 
Q 2225 2688 2498 2914 
Q 2772 3141 2772 3597 
Q 2772 4006 2547 4223 
Q 2322 4441 1900 4441 
Q 1478 4441 1245 4241 
Q 1013 4041 972 3647 
L 622 3647 
L 622 4469 
z
" transform="scale(0.015625)"/>
       </defs>
       <use xlink:href="#DejaVuSerif-33"/>
       <use xlink:href="#DejaVuSerif-30" transform="translate(63.623047 0)"/>
      </g>
     </g>
    </g>
    <g id="xtick_7">
     <g id="line2d_13">
      <path d="M 608.340994 411.214844 
L 608.340994 23.134844 
" clip-path="url(#p00f97938c1)" style="fill: none; stroke-dasharray: 2.96,1.28; stroke-dashoffset: 0; stroke: #dddddd; stroke-width: 0.8"/>
     </g>
     <g id="line2d_14">
      <g>
       <use xlink:href="#m00ecb1b0b3" x="608.340994" y="411.214844" style="fill: #333333; stroke: #333333; stroke-width: 0.8"/>
      </g>
     </g>
     <g id="text_7">
      <!-- 35 -->
      <g style="fill: #333333" transform="translate(602.614744 425.053437) scale(0.09 -0.09)">
       <use xlink:href="#DejaVuSerif-33"/>
       <use xlink:href="#DejaVuSerif-35" transform="translate(63.623047 0)"/>
      </g>
     </g>
    </g>
    <g id="xtick_8">
     <g id="line2d_15">
      <path d="M 692.886449 411.214844 
L 692.886449 23.134844 
" clip-path="url(#p00f97938c1)" style="fill: none; stroke-dasharray: 2.96,1.28; stroke-dashoffset: 0; stroke: #dddddd; stroke-width: 0.8"/>
     </g>
     <g id="line2d_16">
      <g>
       <use xlink:href="#m00ecb1b0b3" x="692.886449" y="411.214844" style="fill: #333333; stroke: #333333; stroke-width: 0.8"/>
      </g>
     </g>
     <g id="text_8">
      <!-- 40 -->
      <g style="fill: #333333" transform="translate(687.160199 425.053437) scale(0.09 -0.09)">
       <defs>
        <path id="DejaVuSerif-34" d="M 2234 1581 
L 2234 4063 
L 641 1581 
L 2234 1581 
z
M 3609 0 
L 1484 0 
L 1484 331 
L 2234 331 
L 2234 1247 
L 197 1247 
L 197 1588 
L 2241 4750 
L 2859 4750 
L 2859 1581 
L 3750 1581 
L 3750 1247 
L 2859 1247 
L 2859 331 
L 3609 331 
L 3609 0 
z
" transform="scale(0.015625)"/>
       </defs>
       <use xlink:href="#DejaVuSerif-34"/>
       <use xlink:href="#DejaVuSerif-30" transform="translate(63.623047 0)"/>
      </g>
     </g>
    </g>
    <g id="text_9">
     <!-- Frequency (Hz) -->
     <g transform="translate(345.040156 439.283437) scale(0.11 -0.11)">
      <defs>
       <path id="DejaVuSerif-46" d="M 353 0 
L 353 331 
L 947 331 
L 947 4331 
L 353 4331 
L 353 4666 
L 4172 4666 
L 4172 3628 
L 3788 3628 
L 3788 4281 
L 1581 4281 
L 1581 2719 
L 3175 2719 
L 3175 3303 
L 3559 3303 
L 3559 1753 
L 3175 1753 
L 3175 2338 
L 1581 2338 
L 1581 331 
L 2328 331 
L 2328 0 
L 353 0 
z
" transform="scale(0.015625)"/>
       <path id="DejaVuSerif-72" d="M 3059 3328 
L 3059 2497 
L 2728 2497 
Q 2713 2744 2591 2866 
Q 2469 2988 2234 2988 
Q 1809 2988 1582 2694 
Q 1356 2400 1356 1850 
L 1356 331 
L 2022 331 
L 2022 0 
L 263 0 
L 263 331 
L 781 331 
L 781 2994 
L 231 2994 
L 231 3322 
L 1356 3322 
L 1356 2731 
Q 1525 3078 1790 3245 
Q 2056 3413 2438 3413 
Q 2578 3413 2733 3391 
Q 2888 3369 3059 3328 
z
" transform="scale(0.015625)"/>
       <path id="DejaVuSerif-65" d="M 3469 1600 
L 991 1600 
L 991 1575 
Q 991 903 1244 561 
Q 1497 219 1991 219 
Q 2369 219 2611 417 
Q 2853 616 2950 1006 
L 3413 1006 
Q 3275 459 2904 184 
Q 2534 -91 1931 -91 
Q 1203 -91 761 389 
Q 319 869 319 1663 
Q 319 2450 753 2931 
Q 1188 3413 1894 3413 
Q 2647 3413 3050 2948 
Q 3453 2484 3469 1600 
z
M 2791 1931 
Q 2772 2513 2545 2808 
Q 2319 3103 1894 3103 
Q 1497 3103 1269 2806 
Q 1041 2509 991 1931 
L 2791 1931 
z
" transform="scale(0.015625)"/>
       <path id="DejaVuSerif-71" d="M 3359 2988 
L 3359 -997 
L 3909 -997 
L 3909 -1331 
L 2241 -1331 
L 2241 -997 
L 2784 -997 
L 2784 519 
Q 2616 206 2355 57 
Q 2094 -91 1709 -91 
Q 1097 -91 708 395 
Q 319 881 319 1663 
Q 319 2444 706 2928 
Q 1094 3413 1709 3413 
Q 2094 3413 2355 3264 
Q 2616 3116 2784 2803 
L 2784 3322 
L 3909 3322 
L 3909 2988 
L 3359 2988 
z
M 2784 1825 
Q 2784 2422 2554 2737 
Q 2325 3053 1888 3053 
Q 1444 3053 1217 2703 
Q 991 2353 991 1663 
Q 991 975 1217 622 
Q 1444 269 1888 269 
Q 2325 269 2554 583 
Q 2784 897 2784 1497 
L 2784 1825 
z
" transform="scale(0.015625)"/>
       <path id="DejaVuSerif-75" d="M 2266 3322 
L 3341 3322 
L 3341 331 
L 3884 331 
L 3884 0 
L 2766 0 
L 2766 588 
Q 2606 256 2353 82 
Q 2100 -91 1766 -91 
Q 1213 -91 952 223 
Q 691 538 691 1209 
L 691 2988 
L 172 2988 
L 172 3322 
L 1269 3322 
L 1269 1388 
Q 1269 781 1417 556 
Q 1566 331 1947 331 
Q 2347 331 2556 625 
Q 2766 919 2766 1478 
L 2766 2988 
L 2266 2988 
L 2266 3322 
z
" transform="scale(0.015625)"/>
       <path id="DejaVuSerif-6e" d="M 263 0 
L 263 331 
L 781 331 
L 781 2988 
L 231 2988 
L 231 3322 
L 1356 3322 
L 1356 2731 
Q 1516 3069 1770 3241 
Q 2025 3413 2363 3413 
Q 2913 3413 3172 3097 
Q 3431 2781 3431 2113 
L 3431 331 
L 3944 331 
L 3944 0 
L 2356 0 
L 2356 331 
L 2853 331 
L 2853 1931 
Q 2853 2541 2703 2767 
Q 2553 2994 2175 2994 
Q 1775 2994 1565 2701 
Q 1356 2409 1356 1850 
L 1356 331 
L 1856 331 
L 1856 0 
L 263 0 
z
" transform="scale(0.015625)"/>
       <path id="DejaVuSerif-63" d="M 3291 997 
Q 3169 466 2822 187 
Q 2475 -91 1925 -91 
Q 1200 -91 759 389 
Q 319 869 319 1663 
Q 319 2459 759 2936 
Q 1200 3413 1925 3413 
Q 2241 3413 2553 3339 
Q 2866 3266 3181 3116 
L 3181 2266 
L 2847 2266 
Q 2781 2703 2561 2903 
Q 2341 3103 1931 3103 
Q 1466 3103 1228 2742 
Q 991 2381 991 1663 
Q 991 944 1227 581 
Q 1463 219 1931 219 
Q 2303 219 2525 412 
Q 2747 606 2828 997 
L 3291 997 
z
" transform="scale(0.015625)"/>
       <path id="DejaVuSerif-79" d="M 1381 -609 
L 1600 -56 
L 359 2988 
L -19 2988 
L -19 3322 
L 1509 3322 
L 1509 2988 
L 978 2988 
L 1913 703 
L 2847 2988 
L 2350 2988 
L 2350 3322 
L 3597 3322 
L 3597 2988 
L 3225 2988 
L 1703 -750 
Q 1547 -1138 1356 -1280 
Q 1166 -1422 819 -1422 
Q 672 -1422 517 -1397 
Q 363 -1372 206 -1325 
L 206 -691 
L 500 -691 
Q 519 -903 608 -995 
Q 697 -1088 884 -1088 
Q 1056 -1088 1161 -992 
Q 1266 -897 1381 -609 
z
" transform="scale(0.015625)"/>
       <path id="DejaVuSerif-20" transform="scale(0.015625)"/>
       <path id="DejaVuSerif-28" d="M 2041 -997 
Q 1281 -656 893 83 
Q 506 822 506 1931 
Q 506 3044 893 3783 
Q 1281 4522 2041 4863 
L 2041 4556 
Q 1559 4225 1350 3623 
Q 1141 3022 1141 1931 
Q 1141 844 1350 242 
Q 1559 -359 2041 -691 
L 2041 -997 
z
" transform="scale(0.015625)"/>
       <path id="DejaVuSerif-48" d="M 353 0 
L 353 331 
L 947 331 
L 947 4331 
L 353 4331 
L 353 4666 
L 2175 4666 
L 2175 4331 
L 1581 4331 
L 1581 2719 
L 4000 2719 
L 4000 4331 
L 3406 4331 
L 3406 4666 
L 5228 4666 
L 5228 4331 
L 4634 4331 
L 4634 331 
L 5228 331 
L 5228 0 
L 3406 0 
L 3406 331 
L 4000 331 
L 4000 2338 
L 1581 2338 
L 1581 331 
L 2175 331 
L 2175 0 
L 353 0 
z
" transform="scale(0.015625)"/>
       <path id="DejaVuSerif-7a" d="M 256 0 
L 256 269 
L 2338 2988 
L 691 2988 
L 691 2413 
L 359 2413 
L 359 3322 
L 3078 3322 
L 3078 3053 
L 997 331 
L 2803 331 
L 2803 934 
L 3138 934 
L 3138 0 
L 256 0 
z
" transform="scale(0.015625)"/>
       <path id="DejaVuSerif-29" d="M 453 -997 
L 453 -691 
Q 934 -359 1145 242 
Q 1356 844 1356 1931 
Q 1356 3022 1145 3623 
Q 934 4225 453 4556 
L 453 4863 
Q 1216 4522 1603 3783 
Q 1991 3044 1991 1931 
Q 1991 822 1603 83 
Q 1216 -656 453 -997 
z
" transform="scale(0.015625)"/>
      </defs>
      <use xlink:href="#DejaVuSerif-46"/>
      <use xlink:href="#DejaVuSerif-72" transform="translate(69.384766 0)"/>
      <use xlink:href="#DejaVuSerif-65" transform="translate(117.1875 0)"/>
      <use xlink:href="#DejaVuSerif-71" transform="translate(176.367188 0)"/>
      <use xlink:href="#DejaVuSerif-75" transform="translate(240.380859 0)"/>
      <use xlink:href="#DejaVuSerif-65" transform="translate(304.785156 0)"/>
      <use xlink:href="#DejaVuSerif-6e" transform="translate(363.964844 0)"/>
      <use xlink:href="#DejaVuSerif-63" transform="translate(428.369141 0)"/>
      <use xlink:href="#DejaVuSerif-79" transform="translate(484.375 0)"/>
      <use xlink:href="#DejaVuSerif-20" transform="translate(540.869141 0)"/>
      <use xlink:href="#DejaVuSerif-28" transform="translate(572.65625 0)"/>
      <use xlink:href="#DejaVuSerif-48" transform="translate(611.669922 0)"/>
      <use xlink:href="#DejaVuSerif-7a" transform="translate(698.876953 0)"/>
      <use xlink:href="#DejaVuSerif-29" transform="translate(751.5625 0)"/>
     </g>
    </g>
   </g>
   <g id="matplotlib.axis_2">
    <g id="ytick_1">
     <g id="line2d_17">
      <path d="M 53.722813 394.335193 
L 723.322813 394.335193 
" clip-path="url(#p00f97938c1)" style="fill: none; stroke-dasharray: 2.96,1.28; stroke-dashoffset: 0; stroke: #dddddd; stroke-width: 0.8"/>
     </g>
     <g id="line2d_18">
      <defs>
       <path id="md4b95de45b" d="M 0 0 
L -3.5 0 
" style="stroke: #333333; stroke-width: 0.8"/>
      </defs>
      <g>
       <use xlink:href="#md4b95de45b" x="53.722813" y="394.335193" style="fill: #333333; stroke: #333333; stroke-width: 0.8"/>
      </g>
     </g>
     <g id="text_10">
      <!-- −134 -->
      <g style="fill: #333333" transform="translate(22.002344 397.75449) scale(0.09 -0.09)">
       <defs>
        <path id="DejaVuSerif-2212" d="M 678 2259 
L 4684 2259 
L 4684 1753 
L 678 1753 
L 678 2259 
z
" transform="scale(0.015625)"/>
       </defs>
       <use xlink:href="#DejaVuSerif-2212"/>
       <use xlink:href="#DejaVuSerif-31" transform="translate(83.789062 0)"/>
       <use xlink:href="#DejaVuSerif-33" transform="translate(147.412109 0)"/>
       <use xlink:href="#DejaVuSerif-34" transform="translate(211.035156 0)"/>
      </g>
     </g>
    </g>
    <g id="ytick_2">
     <g id="line2d_19">
      <path d="M 53.722813 347.842233 
L 723.322813 347.842233 
" clip-path="url(#p00f97938c1)" style="fill: none; stroke-dasharray: 2.96,1.28; stroke-dashoffset: 0; stroke: #dddddd; stroke-width: 0.8"/>
     </g>
     <g id="line2d_20">
      <g>
       <use xlink:href="#md4b95de45b" x="53.722813" y="347.842233" style="fill: #333333; stroke: #333333; stroke-width: 0.8"/>
      </g>
     </g>
     <g id="text_11">
      <!-- −132 -->
      <g style="fill: #333333" transform="translate(22.002344 351.26153) scale(0.09 -0.09)">
       <use xlink:href="#DejaVuSerif-2212"/>
       <use xlink:href="#DejaVuSerif-31" transform="translate(83.789062 0)"/>
       <use xlink:href="#DejaVuSerif-33" transform="translate(147.412109 0)"/>
       <use xlink:href="#DejaVuSerif-32" transform="translate(211.035156 0)"/>
      </g>
     </g>
    </g>
    <g id="ytick_3">
     <g id="line2d_21">
      <path d="M 53.722813 301.349273 
L 723.322813 301.349273 
" clip-path="url(#p00f97938c1)" style="fill: none; stroke-dasharray: 2.96,1.28; stroke-dashoffset: 0; stroke: #dddddd; stroke-width: 0.8"/>
     </g>
     <g id="line2d_22">
      <g>
       <use xlink:href="#md4b95de45b" x="53.722813" y="301.349273" style="fill: #333333; stroke: #333333; stroke-width: 0.8"/>
      </g>
     </g>
     <g id="text_12">
      <!-- −130 -->
      <g style="fill: #333333" transform="translate(22.002344 304.76857) scale(0.09 -0.09)">
       <use xlink:href="#DejaVuSerif-2212"/>
       <use xlink:href="#DejaVuSerif-31" transform="translate(83.789062 0)"/>
       <use xlink:href="#DejaVuSerif-33" transform="translate(147.412109 0)"/>
       <use xlink:href="#DejaVuSerif-30" transform="translate(211.035156 0)"/>
      </g>
     </g>
    </g>
    <g id="ytick_4">
     <g id="line2d_23">
      <path d="M 53.722813 254.856313 
L 723.322813 254.856313 
" clip-path="url(#p00f97938c1)" style="fill: none; stroke-dasharray: 2.96,1.28; stroke-dashoffset: 0; stroke: #dddddd; stroke-width: 0.8"/>
     </g>
     <g id="line2d_24">
      <g>
       <use xlink:href="#md4b95de45b" x="53.722813" y="254.856313" style="fill: #333333; stroke: #333333; stroke-width: 0.8"/>
      </g>
     </g>
     <g id="text_13">
      <!-- −128 -->
      <g style="fill: #333333" transform="translate(22.002344 258.27561) scale(0.09 -0.09)">
       <defs>
        <path id="DejaVuSerif-38" d="M 2981 1275 
Q 2981 1775 2732 2051 
Q 2484 2328 2034 2328 
Q 1584 2328 1336 2051 
Q 1088 1775 1088 1275 
Q 1088 772 1336 495 
Q 1584 219 2034 219 
Q 2484 219 2732 495 
Q 2981 772 2981 1275 
z
M 2853 3541 
Q 2853 3966 2637 4203 
Q 2422 4441 2034 4441 
Q 1650 4441 1433 4203 
Q 1216 3966 1216 3541 
Q 1216 3113 1433 2875 
Q 1650 2638 2034 2638 
Q 2422 2638 2637 2875 
Q 2853 3113 2853 3541 
z
M 2516 2484 
Q 3047 2413 3344 2092 
Q 3641 1772 3641 1275 
Q 3641 619 3225 264 
Q 2809 -91 2034 -91 
Q 1263 -91 845 264 
Q 428 619 428 1275 
Q 428 1772 725 2092 
Q 1022 2413 1556 2484 
Q 1084 2569 832 2842 
Q 581 3116 581 3541 
Q 581 4103 968 4426 
Q 1356 4750 2034 4750 
Q 2713 4750 3100 4426 
Q 3488 4103 3488 3541 
Q 3488 3116 3236 2842 
Q 2984 2569 2516 2484 
z
" transform="scale(0.015625)"/>
       </defs>
       <use xlink:href="#DejaVuSerif-2212"/>
       <use xlink:href="#DejaVuSerif-31" transform="translate(83.789062 0)"/>
       <use xlink:href="#DejaVuSerif-32" transform="translate(147.412109 0)"/>
       <use xlink:href="#DejaVuSerif-38" transform="translate(211.035156 0)"/>
      </g>
     </g>
    </g>
    <g id="ytick_5">
     <g id="line2d_25">
      <path d="M 53.722813 208.363354 
L 723.322813 208.363354 
" clip-path="url(#p00f97938c1)" style="fill: none; stroke-dasharray: 2.96,1.28; stroke-dashoffset: 0; stroke: #dddddd; stroke-width: 0.8"/>
     </g>
     <g id="line2d_26">
      <g>
       <use xlink:href="#md4b95de45b" x="53.722813" y="208.363354" style="fill: #333333; stroke: #333333; stroke-width: 0.8"/>
      </g>
     </g>
     <g id="text_14">
      <!-- −126 -->
      <g style="fill: #333333" transform="translate(22.002344 211.78265) scale(0.09 -0.09)">
       <defs>
        <path id="DejaVuSerif-36" d="M 2094 219 
Q 2534 219 2771 542 
Q 3009 866 3009 1472 
Q 3009 2078 2771 2401 
Q 2534 2725 2094 2725 
Q 1647 2725 1412 2412 
Q 1178 2100 1178 1509 
Q 1178 888 1415 553 
Q 1653 219 2094 219 
z
M 1075 2569 
Q 1288 2803 1556 2918 
Q 1825 3034 2163 3034 
Q 2859 3034 3264 2615 
Q 3669 2197 3669 1472 
Q 3669 763 3233 336 
Q 2797 -91 2069 -91 
Q 1278 -91 853 498 
Q 428 1088 428 2181 
Q 428 3406 931 4078 
Q 1434 4750 2350 4750 
Q 2597 4750 2869 4703 
Q 3141 4656 3425 4563 
L 3425 3794 
L 3072 3794 
Q 3034 4109 2831 4275 
Q 2628 4441 2284 4441 
Q 1678 4441 1381 3981 
Q 1084 3522 1075 2569 
z
" transform="scale(0.015625)"/>
       </defs>
       <use xlink:href="#DejaVuSerif-2212"/>
       <use xlink:href="#DejaVuSerif-31" transform="translate(83.789062 0)"/>
       <use xlink:href="#DejaVuSerif-32" transform="translate(147.412109 0)"/>
       <use xlink:href="#DejaVuSerif-36" transform="translate(211.035156 0)"/>
      </g>
     </g>
    </g>
    <g id="ytick_6">
     <g id="line2d_27">
      <path d="M 53.722813 161.870394 
L 723.322813 161.870394 
" clip-path="url(#p00f97938c1)" style="fill: none; stroke-dasharray: 2.96,1.28; stroke-dashoffset: 0; stroke: #dddddd; stroke-width: 0.8"/>
     </g>
     <g id="line2d_28">
      <g>
       <use xlink:href="#md4b95de45b" x="53.722813" y="161.870394" style="fill: #333333; stroke: #333333; stroke-width: 0.8"/>
      </g>
     </g>
     <g id="text_15">
      <!-- −124 -->
      <g style="fill: #333333" transform="translate(22.002344 165.28969) scale(0.09 -0.09)">
       <use xlink:href="#DejaVuSerif-2212"/>
       <use xlink:href="#DejaVuSerif-31" transform="translate(83.789062 0)"/>
       <use xlink:href="#DejaVuSerif-32" transform="translate(147.412109 0)"/>
       <use xlink:href="#DejaVuSerif-34" transform="translate(211.035156 0)"/>
      </g>
     </g>
    </g>
    <g id="ytick_7">
     <g id="line2d_29">
      <path d="M 53.722813 115.377434 
L 723.322813 115.377434 
" clip-path="url(#p00f97938c1)" style="fill: none; stroke-dasharray: 2.96,1.28; stroke-dashoffset: 0; stroke: #dddddd; stroke-width: 0.8"/>
     </g>
     <g id="line2d_30">
      <g>
       <use xlink:href="#md4b95de45b" x="53.722813" y="115.377434" style="fill: #333333; stroke: #333333; stroke-width: 0.8"/>
      </g>
     </g>
     <g id="text_16">
      <!-- −122 -->
      <g style="fill: #333333" transform="translate(22.002344 118.79673) scale(0.09 -0.09)">
       <use xlink:href="#DejaVuSerif-2212"/>
       <use xlink:href="#DejaVuSerif-31" transform="translate(83.789062 0)"/>
       <use xlink:href="#DejaVuSerif-32" transform="translate(147.412109 0)"/>
       <use xlink:href="#DejaVuSerif-32" transform="translate(211.035156 0)"/>
      </g>
     </g>
    </g>
    <g id="ytick_8">
     <g id="line2d_31">
      <path d="M 53.722813 68.884474 
L 723.322813 68.884474 
" clip-path="url(#p00f97938c1)" style="fill: none; stroke-dasharray: 2.96,1.28; stroke-dashoffset: 0; stroke: #dddddd; stroke-width: 0.8"/>
     </g>
     <g id="line2d_32">
      <g>
       <use xlink:href="#md4b95de45b" x="53.722813" y="68.884474" style="fill: #333333; stroke: #333333; stroke-width: 0.8"/>
      </g>
     </g>
     <g id="text_17">
      <!-- −120 -->
      <g style="fill: #333333" transform="translate(22.002344 72.30377) scale(0.09 -0.09)">
       <use xlink:href="#DejaVuSerif-2212"/>
       <use xlink:href="#DejaVuSerif-31" transform="translate(83.789062 0)"/>
       <use xlink:href="#DejaVuSerif-32" transform="translate(147.412109 0)"/>
       <use xlink:href="#DejaVuSerif-30" transform="translate(211.035156 0)"/>
      </g>
     </g>
    </g>
    <g id="text_18">
     <!-- Power Spectral Density (dB) -->
     <g transform="translate(15.558281 296.263984) rotate(-90) scale(0.11 -0.11)">
      <defs>
       <path id="DejaVuSerif-50" d="M 1581 2375 
L 2406 2375 
Q 2872 2375 3115 2626 
Q 3359 2878 3359 3353 
Q 3359 3831 3115 4081 
Q 2872 4331 2406 4331 
L 1581 4331 
L 1581 2375 
z
M 353 0 
L 353 331 
L 947 331 
L 947 4331 
L 353 4331 
L 353 4666 
L 2559 4666 
Q 3259 4666 3668 4311 
Q 4078 3956 4078 3353 
Q 4078 2753 3668 2397 
Q 3259 2041 2559 2041 
L 1581 2041 
L 1581 331 
L 2303 331 
L 2303 0 
L 353 0 
z
" transform="scale(0.015625)"/>
       <path id="DejaVuSerif-6f" d="M 1925 219 
Q 2388 219 2623 584 
Q 2859 950 2859 1663 
Q 2859 2375 2623 2739 
Q 2388 3103 1925 3103 
Q 1463 3103 1227 2739 
Q 991 2375 991 1663 
Q 991 950 1228 584 
Q 1466 219 1925 219 
z
M 1925 -91 
Q 1200 -91 759 389 
Q 319 869 319 1663 
Q 319 2456 758 2934 
Q 1197 3413 1925 3413 
Q 2653 3413 3092 2934 
Q 3531 2456 3531 1663 
Q 3531 869 3092 389 
Q 2653 -91 1925 -91 
z
" transform="scale(0.015625)"/>
       <path id="DejaVuSerif-77" d="M 3072 3322 
L 3922 728 
L 4672 2988 
L 4191 2988 
L 4191 3322 
L 5394 3322 
L 5394 2988 
L 5025 2988 
L 4038 0 
L 3559 0 
L 2741 2484 
L 1919 0 
L 1459 0 
L 475 2988 
L 103 2988 
L 103 3322 
L 1606 3322 
L 1606 2988 
L 1069 2988 
L 1813 728 
L 2669 3322 
L 3072 3322 
z
" transform="scale(0.015625)"/>
       <path id="DejaVuSerif-53" d="M 594 225 
L 594 1288 
L 953 1284 
Q 969 753 1261 498 
Q 1553 244 2150 244 
Q 2706 244 2998 464 
Q 3291 684 3291 1106 
Q 3291 1444 3114 1625 
Q 2938 1806 2369 1978 
L 1753 2163 
Q 1084 2366 811 2669 
Q 538 2972 538 3500 
Q 538 4094 959 4422 
Q 1381 4750 2144 4750 
Q 2469 4750 2856 4679 
Q 3244 4609 3681 4475 
L 3681 3481 
L 3328 3481 
Q 3275 3975 2998 4195 
Q 2722 4416 2156 4416 
Q 1663 4416 1405 4214 
Q 1147 4013 1147 3628 
Q 1147 3294 1340 3103 
Q 1534 2913 2163 2725 
L 2741 2553 
Q 3375 2363 3645 2067 
Q 3916 1772 3916 1275 
Q 3916 597 3481 253 
Q 3047 -91 2188 -91 
Q 1803 -91 1404 -12 
Q 1006 66 594 225 
z
" transform="scale(0.015625)"/>
       <path id="DejaVuSerif-70" d="M 1313 1825 
L 1313 1497 
Q 1313 897 1542 583 
Q 1772 269 2209 269 
Q 2650 269 2876 622 
Q 3103 975 3103 1663 
Q 3103 2353 2876 2703 
Q 2650 3053 2209 3053 
Q 1772 3053 1542 2737 
Q 1313 2422 1313 1825 
z
M 738 2988 
L 184 2988 
L 184 3322 
L 1313 3322 
L 1313 2803 
Q 1481 3116 1742 3264 
Q 2003 3413 2388 3413 
Q 3000 3413 3387 2928 
Q 3775 2444 3775 1663 
Q 3775 881 3387 395 
Q 3000 -91 2388 -91 
Q 2003 -91 1742 57 
Q 1481 206 1313 519 
L 1313 -997 
L 1856 -997 
L 1856 -1331 
L 184 -1331 
L 184 -997 
L 738 -997 
L 738 2988 
z
" transform="scale(0.015625)"/>
       <path id="DejaVuSerif-74" d="M 691 2988 
L 184 2988 
L 184 3322 
L 691 3322 
L 691 4353 
L 1269 4353 
L 1269 3322 
L 2350 3322 
L 2350 2988 
L 1269 2988 
L 1269 878 
Q 1269 456 1350 337 
Q 1431 219 1650 219 
Q 1875 219 1978 351 
Q 2081 484 2088 781 
L 2522 781 
Q 2497 328 2275 118 
Q 2053 -91 1600 -91 
Q 1103 -91 897 129 
Q 691 350 691 878 
L 691 2988 
z
" transform="scale(0.015625)"/>
       <path id="DejaVuSerif-61" d="M 2547 1044 
L 2547 1747 
L 1806 1747 
Q 1378 1747 1168 1562 
Q 959 1378 959 997 
Q 959 650 1171 447 
Q 1384 244 1747 244 
Q 2106 244 2326 466 
Q 2547 688 2547 1044 
z
M 3122 2075 
L 3122 331 
L 3634 331 
L 3634 0 
L 2547 0 
L 2547 359 
Q 2356 128 2106 18 
Q 1856 -91 1522 -91 
Q 969 -91 644 203 
Q 319 497 319 997 
Q 319 1513 691 1797 
Q 1063 2081 1741 2081 
L 2547 2081 
L 2547 2309 
Q 2547 2688 2317 2895 
Q 2088 3103 1672 3103 
Q 1328 3103 1125 2947 
Q 922 2791 872 2484 
L 575 2484 
L 575 3156 
Q 875 3284 1158 3348 
Q 1441 3413 1709 3413 
Q 2400 3413 2761 3070 
Q 3122 2728 3122 2075 
z
" transform="scale(0.015625)"/>
       <path id="DejaVuSerif-6c" d="M 1313 331 
L 1856 331 
L 1856 0 
L 184 0 
L 184 331 
L 738 331 
L 738 4531 
L 184 4531 
L 184 4863 
L 1313 4863 
L 1313 331 
z
" transform="scale(0.015625)"/>
       <path id="DejaVuSerif-44" d="M 1581 331 
L 2163 331 
Q 3072 331 3558 850 
Q 4044 1369 4044 2338 
Q 4044 3306 3559 3818 
Q 3075 4331 2163 4331 
L 1581 4331 
L 1581 331 
z
M 353 0 
L 353 331 
L 947 331 
L 947 4331 
L 353 4331 
L 353 4666 
L 2209 4666 
Q 3416 4666 4089 4050 
Q 4763 3434 4763 2338 
Q 4763 1238 4088 619 
Q 3413 0 2209 0 
L 353 0 
z
" transform="scale(0.015625)"/>
       <path id="DejaVuSerif-73" d="M 359 184 
L 359 959 
L 691 959 
Q 703 588 923 403 
Q 1144 219 1575 219 
Q 1963 219 2166 364 
Q 2369 509 2369 788 
Q 2369 1006 2220 1140 
Q 2072 1275 1594 1428 
L 1178 1569 
Q 750 1706 558 1912 
Q 366 2119 366 2438 
Q 366 2894 700 3153 
Q 1034 3413 1625 3413 
Q 1888 3413 2178 3344 
Q 2469 3275 2778 3144 
L 2778 2419 
L 2447 2419 
Q 2434 2741 2221 2922 
Q 2009 3103 1644 3103 
Q 1281 3103 1095 2975 
Q 909 2847 909 2591 
Q 909 2381 1050 2254 
Q 1191 2128 1613 1997 
L 2069 1856 
Q 2541 1709 2748 1489 
Q 2956 1269 2956 922 
Q 2956 450 2595 179 
Q 2234 -91 1600 -91 
Q 1278 -91 972 -22 
Q 666 47 359 184 
z
" transform="scale(0.015625)"/>
       <path id="DejaVuSerif-69" d="M 622 4353 
Q 622 4497 726 4603 
Q 831 4709 978 4709 
Q 1122 4709 1226 4603 
Q 1331 4497 1331 4353 
Q 1331 4206 1228 4103 
Q 1125 4000 978 4000 
Q 831 4000 726 4103 
Q 622 4206 622 4353 
z
M 1356 331 
L 1900 331 
L 1900 0 
L 231 0 
L 231 331 
L 781 331 
L 781 2988 
L 231 2988 
L 231 3322 
L 1356 3322 
L 1356 331 
z
" transform="scale(0.015625)"/>
       <path id="DejaVuSerif-64" d="M 3359 331 
L 3909 331 
L 3909 0 
L 2784 0 
L 2784 519 
Q 2616 206 2355 57 
Q 2094 -91 1709 -91 
Q 1097 -91 708 395 
Q 319 881 319 1663 
Q 319 2444 706 2928 
Q 1094 3413 1709 3413 
Q 2094 3413 2355 3264 
Q 2616 3116 2784 2803 
L 2784 4531 
L 2241 4531 
L 2241 4863 
L 3359 4863 
L 3359 331 
z
M 2784 1497 
L 2784 1825 
Q 2784 2422 2554 2737 
Q 2325 3053 1888 3053 
Q 1444 3053 1217 2703 
Q 991 2353 991 1663 
Q 991 975 1217 622 
Q 1444 269 1888 269 
Q 2325 269 2554 583 
Q 2784 897 2784 1497 
z
" transform="scale(0.015625)"/>
       <path id="DejaVuSerif-42" d="M 1581 331 
L 2516 331 
Q 3078 331 3337 575 
Q 3597 819 3597 1350 
Q 3597 1878 3339 2120 
Q 3081 2363 2516 2363 
L 1581 2363 
L 1581 331 
z
M 1581 2694 
L 2375 2694 
Q 2888 2694 3123 2891 
Q 3359 3088 3359 3513 
Q 3359 3941 3123 4136 
Q 2888 4331 2375 4331 
L 1581 4331 
L 1581 2694 
z
M 353 0 
L 353 331 
L 947 331 
L 947 4331 
L 353 4331 
L 353 4666 
L 2656 4666 
Q 3363 4666 3720 4377 
Q 4078 4088 4078 3513 
Q 4078 3097 3829 2850 
Q 3581 2603 3103 2547 
Q 3697 2472 4005 2167 
Q 4313 1863 4313 1350 
Q 4313 656 3875 328 
Q 3438 0 2509 0 
L 353 0 
z
" transform="scale(0.015625)"/>
      </defs>
      <use xlink:href="#DejaVuSerif-50"/>
      <use xlink:href="#DejaVuSerif-6f" transform="translate(63.285156 0)"/>
      <use xlink:href="#DejaVuSerif-77" transform="translate(123.490234 0)"/>
      <use xlink:href="#DejaVuSerif-65" transform="translate(209.085938 0)"/>
      <use xlink:href="#DejaVuSerif-72" transform="translate(268.265625 0)"/>
      <use xlink:href="#DejaVuSerif-20" transform="translate(316.068359 0)"/>
      <use xlink:href="#DejaVuSerif-53" transform="translate(347.855469 0)"/>
      <use xlink:href="#DejaVuSerif-70" transform="translate(416.361328 0)"/>
      <use xlink:href="#DejaVuSerif-65" transform="translate(480.375 0)"/>
      <use xlink:href="#DejaVuSerif-63" transform="translate(539.554688 0)"/>
      <use xlink:href="#DejaVuSerif-74" transform="translate(595.560547 0)"/>
      <use xlink:href="#DejaVuSerif-72" transform="translate(635.746094 0)"/>
      <use xlink:href="#DejaVuSerif-61" transform="translate(683.548828 0)"/>
      <use xlink:href="#DejaVuSerif-6c" transform="translate(743.167969 0)"/>
      <use xlink:href="#DejaVuSerif-20" transform="translate(775.150391 0)"/>
      <use xlink:href="#DejaVuSerif-44" transform="translate(806.9375 0)"/>
      <use xlink:href="#DejaVuSerif-65" transform="translate(887.113281 0)"/>
      <use xlink:href="#DejaVuSerif-6e" transform="translate(946.292969 0)"/>
      <use xlink:href="#DejaVuSerif-73" transform="translate(1010.697266 0)"/>
      <use xlink:href="#DejaVuSerif-69" transform="translate(1062.015625 0)"/>
      <use xlink:href="#DejaVuSerif-74" transform="translate(1093.998047 0)"/>
      <use xlink:href="#DejaVuSerif-79" transform="translate(1134.183594 0)"/>
      <use xlink:href="#DejaVuSerif-20" transform="translate(1190.677734 0)"/>
      <use xlink:href="#DejaVuSerif-28" transform="translate(1222.464844 0)"/>
      <use xlink:href="#DejaVuSerif-64" transform="translate(1261.478516 0)"/>
      <use xlink:href="#DejaVuSerif-42" transform="translate(1325.492188 0)"/>
      <use xlink:href="#DejaVuSerif-29" transform="translate(1398.978516 0)"/>
     </g>
    </g>
   </g>
   <g id="line2d_33">
    <path d="M 84.159176 83.95669 
L 92.613722 102.053802 
L 101.068267 117.398102 
L 109.522812 130.758556 
L 117.977358 142.128986 
L 126.431903 150.791352 
L 134.886449 158.020003 
L 143.340994 163.924818 
L 151.79554 165.332337 
L 160.250085 162.309632 
L 168.704631 156.109274 
L 177.159176 146.750413 
L 185.613722 137.399812 
L 194.068267 130.761588 
L 202.522812 125.493405 
L 210.977358 122.16974 
L 219.431903 125.165283 
L 227.886449 135.399168 
L 236.340994 149.559323 
L 244.79554 163.274457 
L 253.250085 174.116653 
L 261.704631 181.070731 
L 270.159176 186.261245 
L 278.613722 191.498986 
L 287.068267 195.500576 
L 295.522812 198.289946 
L 303.977358 202.068159 
L 312.431903 206.369174 
L 320.886449 208.608912 
L 329.340994 207.809735 
L 337.79554 207.118747 
L 346.250085 208.55153 
L 354.704631 210.682436 
L 363.159176 212.143635 
L 371.613722 209.922635 
L 380.068267 203.752203 
L 388.522812 200.443721 
L 396.977358 203.782777 
L 405.431903 210.921096 
L 413.886449 217.686055 
L 422.340994 223.90836 
L 430.79554 230.601904 
L 439.250085 236.096696 
L 447.704631 241.847543 
L 456.159176 250.616817 
L 464.613722 258.374775 
L 473.068267 261.000473 
L 481.522812 262.21256 
L 489.977358 264.916999 
L 498.431903 269.340532 
L 506.886449 273.849729 
L 515.340994 277.306018 
L 523.79554 279.886931 
L 532.250085 283.933743 
L 540.704631 289.382334 
L 549.159176 293.078039 
L 557.613722 296.408423 
L 566.068267 300.404324 
L 574.522812 304.905308 
L 582.977358 309.80375 
L 591.431903 314.603101 
L 599.886449 319.779524 
L 608.340994 327.61807 
L 616.79554 336.472697 
L 625.250085 341.224181 
L 633.704631 342.065813 
L 642.159176 342.674495 
L 650.613722 345.002535 
L 659.068267 349.281343 
L 667.522812 351.973635 
L 675.977358 353.114296 
L 684.431903 354.529666 
L 692.886449 355.101835 
" clip-path="url(#p00f97938c1)" style="fill: none; stroke: #1f77b4; stroke-width: 1.5; stroke-linecap: square"/>
   </g>
   <g id="line2d_34">
    <path d="M 84.159176 80.58535 
L 92.613722 93.260504 
L 101.068267 114.780589 
L 109.522812 132.166973 
L 117.977358 142.229199 
L 126.431903 148.11205 
L 134.886449 153.340959 
L 143.340994 157.170582 
L 151.79554 159.179405 
L 160.250085 157.247226 
L 168.704631 145.334743 
L 177.159176 126.839903 
L 185.613722 106.887147 
L 194.068267 88.285528 
L 202.522812 74.873991 
L 210.977358 73.888086 
L 219.431903 84.052217 
L 227.886449 103.43212 
L 236.340994 131.256286 
L 244.79554 155.588856 
L 253.250085 163.048513 
L 261.704631 160.944217 
L 270.159176 160.496841 
L 278.613722 161.836296 
L 287.068267 166.66458 
L 295.522812 175.722862 
L 303.977358 181.090691 
L 312.431903 178.498302 
L 320.886449 175.964857 
L 329.340994 178.452364 
L 337.79554 180.33581 
L 346.250085 176.601953 
L 354.704631 171.349269 
L 363.159176 167.210292 
L 371.613722 164.469384 
L 380.068267 166.992991 
L 388.522812 180.512651 
L 396.977358 200.70026 
L 405.431903 213.678612 
L 413.886449 219.163397 
L 422.340994 222.507408 
L 430.79554 222.907522 
L 439.250085 223.154317 
L 447.704631 229.28124 
L 456.159176 241.198727 
L 464.613722 250.458452 
L 473.068267 257.690454 
L 481.522812 266.879648 
L 489.977358 272.729463 
L 498.431903 274.835708 
L 506.886449 273.340361 
L 515.340994 273.604602 
L 523.79554 283.253546 
L 532.250085 291.032237 
L 540.704631 283.202291 
L 549.159176 277.793867 
L 557.613722 285.381561 
L 566.068267 298.638665 
L 574.522812 304.108422 
L 582.977358 306.470296 
L 591.431903 311.750156 
L 599.886449 319.139242 
L 608.340994 328.185717 
L 616.79554 334.69694 
L 625.250085 336.396714 
L 633.704631 337.714915 
L 642.159176 343.249533 
L 650.613722 350.379288 
L 659.068267 355.356533 
L 667.522812 359.353222 
L 675.977358 362.61664 
L 684.431903 362.567389 
L 692.886449 358.946998 
" clip-path="url(#p00f97938c1)" style="fill: none; stroke: #8c564b; stroke-width: 1.5; stroke-linecap: square"/>
   </g>
   <g id="line2d_35">
    <path d="M 84.159176 108.086283 
L 92.613722 117.971831 
L 101.068267 124.009655 
L 109.522812 129.743382 
L 117.977358 134.584492 
L 126.431903 139.437011 
L 134.886449 148.416572 
L 143.340994 160.295844 
L 151.79554 167.052573 
L 160.250085 166.357969 
L 168.704631 163.780782 
L 177.159176 156.166289 
L 185.613722 133.769521 
L 194.068267 103.288324 
L 202.522812 73.8014 
L 210.977358 51.072575 
L 219.431903 40.774844 
L 227.886449 50.576518 
L 236.340994 82.453457 
L 244.79554 122.625368 
L 253.250085 158.201376 
L 261.704631 186.260599 
L 270.159176 200.416511 
L 278.613722 205.075658 
L 287.068267 212.520363 
L 295.522812 221.647989 
L 303.977358 223.078324 
L 312.431903 216.98004 
L 320.886449 212.384904 
L 329.340994 212.616179 
L 337.79554 214.492351 
L 346.250085 213.504198 
L 354.704631 212.728286 
L 363.159176 217.475257 
L 371.613722 221.930744 
L 380.068267 219.725115 
L 388.522812 216.135553 
L 396.977358 216.710499 
L 405.431903 216.81978 
L 413.886449 215.973324 
L 422.340994 219.732884 
L 430.79554 229.052838 
L 439.250085 239.307118 
L 447.704631 248.029901 
L 456.159176 258.375055 
L 464.613722 271.31862 
L 473.068267 281.879667 
L 481.522812 281.536168 
L 489.977358 275.142115 
L 498.431903 270.319054 
L 506.886449 270.041857 
L 515.340994 276.84251 
L 523.79554 279.588426 
L 532.250085 272.876487 
L 540.704631 270.144211 
L 549.159176 278.32201 
L 557.613722 291.93374 
L 566.068267 301.574251 
L 574.522812 306.193197 
L 582.977358 311.477942 
L 591.431903 317.366913 
L 599.886449 321.195036 
L 608.340994 321.267115 
L 616.79554 322.558405 
L 625.250085 328.400935 
L 633.704631 339.59979 
L 642.159176 350.283931 
L 650.613722 348.293041 
L 659.068267 335.256956 
L 667.522812 331.829374 
L 675.977358 345.797895 
L 684.431903 362.740507 
L 692.886449 362.534905 
" clip-path="url(#p00f97938c1)" style="fill: none; stroke: #17becf; stroke-width: 1.5; stroke-linecap: square"/>
   </g>
   <g id="patch_3">
    <path d="M 53.722813 411.214844 
L 53.722813 23.134844 
" style="fill: none; stroke: #333333; stroke-linejoin: miter; stroke-linecap: square"/>
   </g>
   <g id="patch_4">
    <path d="M 53.722812 411.214844 
L 723.322812 411.214844 
" style="fill: none; stroke: #333333; stroke-linejoin: miter; stroke-linecap: square"/>
   </g>
   <g id="text_19">
    <!-- Dataset: Touryan et al. (2022) | Subject: 01 | Session: 2 | All Task-State PSDs -->
    <g transform="translate(135.068516 17.134844) scale(0.13 -0.13)">
     <defs>
      <path id="DejaVuSerif-3a" d="M 666 325 
Q 666 500 786 622 
Q 906 744 1081 744 
Q 1256 744 1376 622 
Q 1497 500 1497 325 
Q 1497 150 1378 29 
Q 1259 -91 1081 -91 
Q 903 -91 784 29 
Q 666 150 666 325 
z
M 666 2363 
Q 666 2538 786 2658 
Q 906 2778 1081 2778 
Q 1259 2778 1378 2659 
Q 1497 2541 1497 2363 
Q 1497 2184 1378 2065 
Q 1259 1947 1081 1947 
Q 906 1947 786 2067 
Q 666 2188 666 2363 
z
" transform="scale(0.015625)"/>
      <path id="DejaVuSerif-54" d="M 1222 0 
L 1222 331 
L 1819 331 
L 1819 4294 
L 447 4294 
L 447 3566 
L 63 3566 
L 63 4666 
L 4206 4666 
L 4206 3566 
L 3822 3566 
L 3822 4294 
L 2450 4294 
L 2450 331 
L 3047 331 
L 3047 0 
L 1222 0 
z
" transform="scale(0.015625)"/>
      <path id="DejaVuSerif-2e" d="M 603 325 
Q 603 500 722 622 
Q 841 744 1019 744 
Q 1191 744 1312 622 
Q 1434 500 1434 325 
Q 1434 153 1312 31 
Q 1191 -91 1019 -91 
Q 841 -91 722 29 
Q 603 150 603 325 
z
" transform="scale(0.015625)"/>
      <path id="DejaVuSerif-7c" d="M 1331 4891 
L 1331 -1509 
L 825 -1509 
L 825 4891 
L 1331 4891 
z
" transform="scale(0.015625)"/>
      <path id="DejaVuSerif-62" d="M 738 331 
L 738 4531 
L 184 4531 
L 184 4863 
L 1313 4863 
L 1313 2803 
Q 1481 3116 1742 3264 
Q 2003 3413 2388 3413 
Q 3000 3413 3387 2928 
Q 3775 2444 3775 1663 
Q 3775 881 3387 395 
Q 3000 -91 2388 -91 
Q 2003 -91 1742 57 
Q 1481 206 1313 519 
L 1313 0 
L 184 0 
L 184 331 
L 738 331 
z
M 1313 1497 
Q 1313 897 1542 583 
Q 1772 269 2209 269 
Q 2650 269 2876 622 
Q 3103 975 3103 1663 
Q 3103 2353 2876 2703 
Q 2650 3053 2209 3053 
Q 1772 3053 1542 2737 
Q 1313 2422 1313 1825 
L 1313 1497 
z
" transform="scale(0.015625)"/>
      <path id="DejaVuSerif-6a" d="M 641 4353 
Q 641 4497 745 4603 
Q 850 4709 997 4709 
Q 1141 4709 1245 4603 
Q 1350 4497 1350 4353 
Q 1350 4206 1248 4103 
Q 1147 4000 997 4000 
Q 850 4000 745 4103 
Q 641 4206 641 4353 
z
M 781 2988 
L 238 2988 
L 238 3322 
L 1356 3322 
L 1356 -325 
Q 1356 -838 1051 -1130 
Q 747 -1422 213 -1422 
Q -13 -1422 -217 -1370 
Q -422 -1319 -616 -1216 
L -616 -531 
L -319 -531 
Q -297 -831 -164 -972 
Q -31 -1113 225 -1113 
Q 509 -1113 645 -920 
Q 781 -728 781 -325 
L 781 2988 
z
" transform="scale(0.015625)"/>
      <path id="DejaVuSerif-41" d="M 1281 1691 
L 2994 1691 
L 2138 3909 
L 1281 1691 
z
M -38 0 
L -38 331 
L 372 331 
L 2034 4666 
L 2559 4666 
L 4225 331 
L 4684 331 
L 4684 0 
L 2988 0 
L 2988 331 
L 3506 331 
L 3116 1356 
L 1153 1356 
L 763 331 
L 1275 331 
L 1275 0 
L -38 0 
z
" transform="scale(0.015625)"/>
      <path id="DejaVuSerif-6b" d="M 1831 0 
L 219 0 
L 219 331 
L 738 331 
L 738 4531 
L 184 4531 
L 184 4863 
L 1313 4863 
L 1313 1697 
L 2713 2988 
L 2234 2988 
L 2234 3322 
L 3738 3322 
L 3738 2988 
L 3169 2988 
L 2181 2075 
L 3444 331 
L 3922 331 
L 3922 0 
L 2284 0 
L 2284 331 
L 2759 331 
L 1766 1697 
L 1313 1275 
L 1313 331 
L 1831 331 
L 1831 0 
z
" transform="scale(0.015625)"/>
      <path id="DejaVuSerif-2d" d="M 281 1959 
L 1881 1959 
L 1881 1472 
L 281 1472 
L 281 1959 
z
" transform="scale(0.015625)"/>
     </defs>
     <use xlink:href="#DejaVuSerif-44"/>
     <use xlink:href="#DejaVuSerif-61" transform="translate(80.175781 0)"/>
     <use xlink:href="#DejaVuSerif-74" transform="translate(139.794922 0)"/>
     <use xlink:href="#DejaVuSerif-61" transform="translate(179.980469 0)"/>
     <use xlink:href="#DejaVuSerif-73" transform="translate(239.599609 0)"/>
     <use xlink:href="#DejaVuSerif-65" transform="translate(290.917969 0)"/>
     <use xlink:href="#DejaVuSerif-74" transform="translate(350.097656 0)"/>
     <use xlink:href="#DejaVuSerif-3a" transform="translate(390.283203 0)"/>
     <use xlink:href="#DejaVuSerif-20" transform="translate(423.974609 0)"/>
     <use xlink:href="#DejaVuSerif-54" transform="translate(455.761719 0)"/>
     <use xlink:href="#DejaVuSerif-6f" transform="translate(514.710938 0)"/>
     <use xlink:href="#DejaVuSerif-75" transform="translate(574.916016 0)"/>
     <use xlink:href="#DejaVuSerif-72" transform="translate(639.320312 0)"/>
     <use xlink:href="#DejaVuSerif-79" transform="translate(687.123047 0)"/>
     <use xlink:href="#DejaVuSerif-61" transform="translate(743.617188 0)"/>
     <use xlink:href="#DejaVuSerif-6e" transform="translate(803.236328 0)"/>
     <use xlink:href="#DejaVuSerif-20" transform="translate(867.640625 0)"/>
     <use xlink:href="#DejaVuSerif-65" transform="translate(899.427734 0)"/>
     <use xlink:href="#DejaVuSerif-74" transform="translate(958.607422 0)"/>
     <use xlink:href="#DejaVuSerif-20" transform="translate(998.792969 0)"/>
     <use xlink:href="#DejaVuSerif-61" transform="translate(1030.580078 0)"/>
     <use xlink:href="#DejaVuSerif-6c" transform="translate(1090.199219 0)"/>
     <use xlink:href="#DejaVuSerif-2e" transform="translate(1122.181641 0)"/>
     <use xlink:href="#DejaVuSerif-20" transform="translate(1153.96875 0)"/>
     <use xlink:href="#DejaVuSerif-28" transform="translate(1185.755859 0)"/>
     <use xlink:href="#DejaVuSerif-32" transform="translate(1224.769531 0)"/>
     <use xlink:href="#DejaVuSerif-30" transform="translate(1288.392578 0)"/>
     <use xlink:href="#DejaVuSerif-32" transform="translate(1352.015625 0)"/>
     <use xlink:href="#DejaVuSerif-32" transform="translate(1415.638672 0)"/>
     <use xlink:href="#DejaVuSerif-29" transform="translate(1479.261719 0)"/>
     <use xlink:href="#DejaVuSerif-20" transform="translate(1518.275391 0)"/>
     <use xlink:href="#DejaVuSerif-7c" transform="translate(1550.0625 0)"/>
     <use xlink:href="#DejaVuSerif-20" transform="translate(1583.753906 0)"/>
     <use xlink:href="#DejaVuSerif-53" transform="translate(1615.541016 0)"/>
     <use xlink:href="#DejaVuSerif-75" transform="translate(1684.046875 0)"/>
     <use xlink:href="#DejaVuSerif-62" transform="translate(1748.451172 0)"/>
     <use xlink:href="#DejaVuSerif-6a" transform="translate(1812.464844 0)"/>
     <use xlink:href="#DejaVuSerif-65" transform="translate(1843.470703 0)"/>
     <use xlink:href="#DejaVuSerif-63" transform="translate(1902.650391 0)"/>
     <use xlink:href="#DejaVuSerif-74" transform="translate(1958.65625 0)"/>
     <use xlink:href="#DejaVuSerif-3a" transform="translate(1998.841797 0)"/>
     <use xlink:href="#DejaVuSerif-20" transform="translate(2032.533203 0)"/>
     <use xlink:href="#DejaVuSerif-30" transform="translate(2064.320312 0)"/>
     <use xlink:href="#DejaVuSerif-31" transform="translate(2127.943359 0)"/>
     <use xlink:href="#DejaVuSerif-20" transform="translate(2191.566406 0)"/>
     <use xlink:href="#DejaVuSerif-7c" transform="translate(2223.353516 0)"/>
     <use xlink:href="#DejaVuSerif-20" transform="translate(2257.044922 0)"/>
     <use xlink:href="#DejaVuSerif-53" transform="translate(2288.832031 0)"/>
     <use xlink:href="#DejaVuSerif-65" transform="translate(2357.337891 0)"/>
     <use xlink:href="#DejaVuSerif-73" transform="translate(2416.517578 0)"/>
     <use xlink:href="#DejaVuSerif-73" transform="translate(2467.835938 0)"/>
     <use xlink:href="#DejaVuSerif-69" transform="translate(2519.154297 0)"/>
     <use xlink:href="#DejaVuSerif-6f" transform="translate(2551.136719 0)"/>
     <use xlink:href="#DejaVuSerif-6e" transform="translate(2611.341797 0)"/>
     <use xlink:href="#DejaVuSerif-3a" transform="translate(2675.746094 0)"/>
     <use xlink:href="#DejaVuSerif-20" transform="translate(2709.4375 0)"/>
     <use xlink:href="#DejaVuSerif-32" transform="translate(2741.224609 0)"/>
     <use xlink:href="#DejaVuSerif-20" transform="translate(2804.847656 0)"/>
     <use xlink:href="#DejaVuSerif-7c" transform="translate(2836.634766 0)"/>
     <use xlink:href="#DejaVuSerif-20" transform="translate(2870.326172 0)"/>
     <use xlink:href="#DejaVuSerif-41" transform="translate(2902.113281 0)"/>
     <use xlink:href="#DejaVuSerif-6c" transform="translate(2974.330078 0)"/>
     <use xlink:href="#DejaVuSerif-6c" transform="translate(3006.3125 0)"/>
     <use xlink:href="#DejaVuSerif-20" transform="translate(3038.294922 0)"/>
     <use xlink:href="#DejaVuSerif-54" transform="translate(3070.082031 0)"/>
     <use xlink:href="#DejaVuSerif-61" transform="translate(3129.03125 0)"/>
     <use xlink:href="#DejaVuSerif-73" transform="translate(3188.650391 0)"/>
     <use xlink:href="#DejaVuSerif-6b" transform="translate(3239.96875 0)"/>
     <use xlink:href="#DejaVuSerif-2d" transform="translate(3298.814453 0)"/>
     <use xlink:href="#DejaVuSerif-53" transform="translate(3332.603516 0)"/>
     <use xlink:href="#DejaVuSerif-74" transform="translate(3401.109375 0)"/>
     <use xlink:href="#DejaVuSerif-61" transform="translate(3441.294922 0)"/>
     <use xlink:href="#DejaVuSerif-74" transform="translate(3500.914062 0)"/>
     <use xlink:href="#DejaVuSerif-65" transform="translate(3541.099609 0)"/>
     <use xlink:href="#DejaVuSerif-20" transform="translate(3600.279297 0)"/>
     <use xlink:href="#DejaVuSerif-50" transform="translate(3632.066406 0)"/>
     <use xlink:href="#DejaVuSerif-53" transform="translate(3699.351562 0)"/>
     <use xlink:href="#DejaVuSerif-44" transform="translate(3767.857422 0)"/>
     <use xlink:href="#DejaVuSerif-73" transform="translate(3848.033203 0)"/>
    </g>
   </g>
   <g id="legend_1">
    <g id="line2d_36">
     <path d="M 578.844688 36.233281 
L 588.844688 36.233281 
L 598.844688 36.233281 
" style="fill: none; stroke: #1f77b4; stroke-width: 1.5; stroke-linecap: square"/>
    </g>
    <g id="text_20">
     <!-- police_detection - OT -->
     <g transform="translate(606.844688 39.733281) scale(0.1 -0.1)">
      <defs>
       <path id="DejaVuSerif-5f" d="M 3200 -1259 
L 3200 -1509 
L 0 -1509 
L 0 -1259 
L 3200 -1259 
z
" transform="scale(0.015625)"/>
       <path id="DejaVuSerif-4f" d="M 2625 244 
Q 3391 244 3781 770 
Q 4172 1297 4172 2328 
Q 4172 3363 3781 3889 
Q 3391 4416 2625 4416 
Q 1856 4416 1465 3889 
Q 1075 3363 1075 2328 
Q 1075 1297 1465 770 
Q 1856 244 2625 244 
z
M 2625 -91 
Q 2150 -91 1751 65 
Q 1353 222 1050 525 
Q 700 875 529 1319 
Q 359 1763 359 2328 
Q 359 2894 529 3339 
Q 700 3784 1050 4134 
Q 1356 4441 1750 4595 
Q 2144 4750 2625 4750 
Q 3641 4750 4266 4084 
Q 4891 3419 4891 2328 
Q 4891 1769 4719 1320 
Q 4547 872 4197 525 
Q 3891 219 3497 64 
Q 3103 -91 2625 -91 
z
" transform="scale(0.015625)"/>
      </defs>
      <use xlink:href="#DejaVuSerif-70"/>
      <use xlink:href="#DejaVuSerif-6f" transform="translate(64.013672 0)"/>
      <use xlink:href="#DejaVuSerif-6c" transform="translate(124.21875 0)"/>
      <use xlink:href="#DejaVuSerif-69" transform="translate(156.201172 0)"/>
      <use xlink:href="#DejaVuSerif-63" transform="translate(188.183594 0)"/>
      <use xlink:href="#DejaVuSerif-65" transform="translate(244.189453 0)"/>
      <use xlink:href="#DejaVuSerif-5f" transform="translate(303.369141 0)"/>
      <use xlink:href="#DejaVuSerif-64" transform="translate(353.369141 0)"/>
      <use xlink:href="#DejaVuSerif-65" transform="translate(417.382812 0)"/>
      <use xlink:href="#DejaVuSerif-74" transform="translate(476.5625 0)"/>
      <use xlink:href="#DejaVuSerif-65" transform="translate(516.748047 0)"/>
      <use xlink:href="#DejaVuSerif-63" transform="translate(575.927734 0)"/>
      <use xlink:href="#DejaVuSerif-74" transform="translate(631.933594 0)"/>
      <use xlink:href="#DejaVuSerif-69" transform="translate(672.119141 0)"/>
      <use xlink:href="#DejaVuSerif-6f" transform="translate(704.101562 0)"/>
      <use xlink:href="#DejaVuSerif-6e" transform="translate(764.306641 0)"/>
      <use xlink:href="#DejaVuSerif-20" transform="translate(828.710938 0)"/>
      <use xlink:href="#DejaVuSerif-2d" transform="translate(860.498047 0)"/>
      <use xlink:href="#DejaVuSerif-20" transform="translate(894.287109 0)"/>
      <use xlink:href="#DejaVuSerif-4f" transform="translate(926.074219 0)"/>
      <use xlink:href="#DejaVuSerif-54" transform="translate(1008.056641 0)"/>
     </g>
    </g>
    <g id="line2d_37">
     <path d="M 578.844688 51.189531 
L 588.844688 51.189531 
L 598.844688 51.189531 
" style="fill: none; stroke: #8c564b; stroke-width: 1.5; stroke-linecap: square"/>
    </g>
    <g id="text_21">
     <!-- collision - MW -->
     <g transform="translate(606.844688 54.689531) scale(0.1 -0.1)">
      <defs>
       <path id="DejaVuSerif-4d" d="M 353 0 
L 353 331 
L 947 331 
L 947 4331 
L 319 4331 
L 319 4666 
L 1678 4666 
L 3316 1344 
L 4953 4666 
L 6228 4666 
L 6228 4331 
L 5606 4331 
L 5606 331 
L 6203 331 
L 6203 0 
L 4378 0 
L 4378 331 
L 4972 331 
L 4972 3938 
L 3372 684 
L 2931 684 
L 1331 3938 
L 1331 331 
L 1925 331 
L 1925 0 
L 353 0 
z
" transform="scale(0.015625)"/>
       <path id="DejaVuSerif-57" d="M 4878 0 
L 4366 0 
L 3297 3794 
L 2228 0 
L 1716 0 
L 494 4331 
L 31 4331 
L 31 4666 
L 1734 4666 
L 1734 4331 
L 1153 4331 
L 2125 884 
L 3188 4666 
L 3694 4666 
L 4775 844 
L 5753 4331 
L 5216 4331 
L 5216 4666 
L 6559 4666 
L 6559 4331 
L 6100 4331 
L 4878 0 
z
" transform="scale(0.015625)"/>
      </defs>
      <use xlink:href="#DejaVuSerif-63"/>
      <use xlink:href="#DejaVuSerif-6f" transform="translate(56.005859 0)"/>
      <use xlink:href="#DejaVuSerif-6c" transform="translate(116.210938 0)"/>
      <use xlink:href="#DejaVuSerif-6c" transform="translate(148.193359 0)"/>
      <use xlink:href="#DejaVuSerif-69" transform="translate(180.175781 0)"/>
      <use xlink:href="#DejaVuSerif-73" transform="translate(212.158203 0)"/>
      <use xlink:href="#DejaVuSerif-69" transform="translate(263.476562 0)"/>
      <use xlink:href="#DejaVuSerif-6f" transform="translate(295.458984 0)"/>
      <use xlink:href="#DejaVuSerif-6e" transform="translate(355.664062 0)"/>
      <use xlink:href="#DejaVuSerif-20" transform="translate(420.068359 0)"/>
      <use xlink:href="#DejaVuSerif-2d" transform="translate(451.855469 0)"/>
      <use xlink:href="#DejaVuSerif-20" transform="translate(485.644531 0)"/>
      <use xlink:href="#DejaVuSerif-4d" transform="translate(517.431641 0)"/>
      <use xlink:href="#DejaVuSerif-57" transform="translate(619.824219 0)"/>
     </g>
    </g>
    <g id="line2d_38">
     <path d="M 578.844688 65.867656 
L 588.844688 65.867656 
L 598.844688 65.867656 
" style="fill: none; stroke: #17becf; stroke-width: 1.5; stroke-linecap: square"/>
    </g>
    <g id="text_22">
     <!-- collision - OT -->
     <g transform="translate(606.844688 69.367656) scale(0.1 -0.1)">
      <use xlink:href="#DejaVuSerif-63"/>
      <use xlink:href="#DejaVuSerif-6f" transform="translate(56.005859 0)"/>
      <use xlink:href="#DejaVuSerif-6c" transform="translate(116.210938 0)"/>
      <use xlink:href="#DejaVuSerif-6c" transform="translate(148.193359 0)"/>
      <use xlink:href="#DejaVuSerif-69" transform="translate(180.175781 0)"/>
      <use xlink:href="#DejaVuSerif-73" transform="translate(212.158203 0)"/>
      <use xlink:href="#DejaVuSerif-69" transform="translate(263.476562 0)"/>
      <use xlink:href="#DejaVuSerif-6f" transform="translate(295.458984 0)"/>
      <use xlink:href="#DejaVuSerif-6e" transform="translate(355.664062 0)"/>
      <use xlink:href="#DejaVuSerif-20" transform="translate(420.068359 0)"/>
      <use xlink:href="#DejaVuSerif-2d" transform="translate(451.855469 0)"/>
      <use xlink:href="#DejaVuSerif-20" transform="translate(485.644531 0)"/>
      <use xlink:href="#DejaVuSerif-4f" transform="translate(517.431641 0)"/>
      <use xlink:href="#DejaVuSerif-54" transform="translate(599.414062 0)"/>
     </g>
    </g>
   </g>
  </g>
 </g>
 <defs>
  <clipPath id="p00f97938c1">
   <rect x="53.722813" y="23.134844" width="669.6" height="388.08"/>
  </clipPath>
 </defs>
</svg>
