<?xml version="1.0" encoding="utf-8" standalone="no"?>
<!DOCTYPE svg PUBLIC "-//W3C//DTD SVG 1.1//EN"
  "http://www.w3.org/Graphics/SVG/1.1/DTD/svg11.dtd">
<svg xmlns:xlink="http://www.w3.org/1999/xlink" width="739.109375pt" height="448.9275pt" viewBox="0 0 739.109375 448.9275" xmlns="http://www.w3.org/2000/svg" version="1.1">
 <metadata>
  <rdf:RDF xmlns:dc="http://purl.org/dc/elements/1.1/" xmlns:cc="http://creativecommons.org/ns#" xmlns:rdf="http://www.w3.org/1999/02/22-rdf-syntax-ns#">
   <cc:Work>
    <dc:type rdf:resource="http://purl.org/dc/dcmitype/StillImage"/>
    <dc:date>2025-05-30T20:16:05.531686</dc:date>
    <dc:format>image/svg+xml</dc:format>
    <dc:creator>
     <cc:Agent>
      <dc:title>Matplotlib v3.10.3, https://matplotlib.org/</dc:title>
     </cc:Agent>
    </dc:creator>
   </cc:Work>
  </rdf:RDF>
 </metadata>
 <defs>
  <style type="text/css">*{stroke-linejoin: round; stroke-linecap: butt}</style>
 </defs>
 <g id="figure_1">
  <g id="patch_1">
   <path d="M 0 448.9275 
L 739.109375 448.9275 
L 739.109375 0 
L 0 0 
z
" style="fill: #ffffff"/>
  </g>
  <g id="axes_1">
   <g id="patch_2">
    <path d="M 62.309375 411.214844 
L 731.909375 411.214844 
L 731.909375 23.134844 
L 62.309375 23.134844 
z
" style="fill: #ffffff"/>
   </g>
   <g id="FillBetweenPolyCollection_1">
    <defs>
     <path id="m9289f5d704" d="M 92.745739 -265.018739 
L 92.745739 -265.018739 
L 101.200284 -256.033338 
L 109.65483 -247.830253 
L 118.109375 -239.118871 
L 126.56392 -235.887593 
L 135.018466 -236.356227 
L 143.473011 -236.621187 
L 151.927557 -240.775999 
L 160.382102 -255.183771 
L 168.836648 -281.965873 
L 177.291193 -309.496298 
L 185.745739 -327.755142 
L 194.200284 -334.80444 
L 202.65483 -330.765662 
L 211.109375 -316.16749 
L 219.56392 -295.388454 
L 228.018466 -272.510634 
L 236.473011 -249.779569 
L 244.927557 -232.942068 
L 253.382102 -227.159496 
L 261.836648 -227.046031 
L 270.291193 -231.259697 
L 278.745739 -233.279192 
L 287.200284 -224.461893 
L 295.65483 -212.38839 
L 304.109375 -205.226318 
L 312.56392 -199.876326 
L 321.018466 -197.232463 
L 329.473011 -202.848222 
L 337.927557 -211.048561 
L 346.382102 -215.394121 
L 354.836648 -216.374999 
L 363.291193 -212.338021 
L 371.745739 -207.706551 
L 380.200284 -204.723237 
L 388.65483 -198.72257 
L 397.109375 -194.718783 
L 405.56392 -198.350313 
L 414.018466 -202.614238 
L 422.473011 -198.609162 
L 430.927557 -187.13574 
L 439.382102 -177.243331 
L 447.836648 -175.741269 
L 456.291193 -173.70964 
L 464.745739 -168.170686 
L 473.200284 -167.715001 
L 481.65483 -168.693361 
L 490.109375 -165.718135 
L 498.56392 -159.175132 
L 507.018466 -153.409635 
L 515.473011 -149.562341 
L 523.927557 -145.85464 
L 532.382102 -144.057376 
L 540.836648 -146.675004 
L 549.291193 -151.368913 
L 557.745739 -151.715643 
L 566.200284 -147.75567 
L 574.65483 -147.362984 
L 583.109375 -150.466832 
L 591.56392 -151.209389 
L 600.018466 -150.205742 
L 608.473011 -153.248833 
L 616.927557 -159.641059 
L 625.382102 -160.736568 
L 633.836648 -153.129401 
L 642.291193 -146.517599 
L 650.745739 -146.881773 
L 659.200284 -147.731563 
L 667.65483 -146.669789 
L 676.109375 -143.617967 
L 684.56392 -139.35905 
L 693.018466 -136.470352 
L 701.473011 -136.991291 
L 701.473011 -136.991291 
L 701.473011 -55.352656 
L 693.018466 -55.352656 
L 684.56392 -55.352656 
L 676.109375 -55.352656 
L 667.65483 -55.352656 
L 659.200284 -55.352656 
L 650.745739 -55.352656 
L 642.291193 -55.352656 
L 633.836648 -55.352656 
L 625.382102 -55.352656 
L 616.927557 -55.352656 
L 608.473011 -55.352656 
L 600.018466 -55.352656 
L 591.56392 -55.352656 
L 583.109375 -55.352656 
L 574.65483 -55.352656 
L 566.200284 -55.352656 
L 557.745739 -55.352656 
L 549.291193 -55.352656 
L 540.836648 -55.352656 
L 532.382102 -55.352656 
L 523.927557 -55.352656 
L 515.473011 -55.352656 
L 507.018466 -55.352656 
L 498.56392 -55.352656 
L 490.109375 -55.352656 
L 481.65483 -55.352656 
L 473.200284 -55.352656 
L 464.745739 -55.352656 
L 456.291193 -55.352656 
L 447.836648 -55.352656 
L 439.382102 -55.352656 
L 430.927557 -55.352656 
L 422.473011 -55.352656 
L 414.018466 -55.352656 
L 405.56392 -55.352656 
L 397.109375 -55.352656 
L 388.65483 -55.352656 
L 380.200284 -55.352656 
L 371.745739 -55.352656 
L 363.291193 -55.352656 
L 354.836648 -55.352656 
L 346.382102 -55.352656 
L 337.927557 -55.352656 
L 329.473011 -55.352656 
L 321.018466 -55.352656 
L 312.56392 -55.352656 
L 304.109375 -55.352656 
L 295.65483 -55.352656 
L 287.200284 -55.352656 
L 278.745739 -55.352656 
L 270.291193 -55.352656 
L 261.836648 -55.352656 
L 253.382102 -55.352656 
L 244.927557 -55.352656 
L 236.473011 -55.352656 
L 228.018466 -55.352656 
L 219.56392 -55.352656 
L 211.109375 -55.352656 
L 202.65483 -55.352656 
L 194.200284 -55.352656 
L 185.745739 -55.352656 
L 177.291193 -55.352656 
L 168.836648 -55.352656 
L 160.382102 -55.352656 
L 151.927557 -55.352656 
L 143.473011 -55.352656 
L 135.018466 -55.352656 
L 126.56392 -55.352656 
L 118.109375 -55.352656 
L 109.65483 -55.352656 
L 101.200284 -55.352656 
L 92.745739 -55.352656 
z
" style="stroke: #1f77b4; stroke-opacity: 0.3"/>
    </defs>
    <g clip-path="url(#p5501f2a35a)">
     <use xlink:href="#m9289f5d704" x="0" y="448.9275" style="fill: #1f77b4; fill-opacity: 0.3; stroke: #1f77b4; stroke-opacity: 0.3"/>
    </g>
   </g>
   <g id="FillBetweenPolyCollection_2">
    <defs>
     <path id="mfcfc898952" d="M 92.745739 -260.893011 
L 92.745739 -260.893011 
L 101.200284 -253.818452 
L 109.65483 -250.416338 
L 118.109375 -249.551012 
L 126.56392 -248.505623 
L 135.018466 -247.364896 
L 143.473011 -249.343768 
L 151.927557 -257.394205 
L 160.382102 -271.836213 
L 168.836648 -289.512546 
L 177.291193 -306.690072 
L 185.745739 -320.531266 
L 194.200284 -328.168598 
L 202.65483 -326.19522 
L 211.109375 -314.596962 
L 219.56392 -294.918557 
L 228.018466 -269.226404 
L 236.473011 -241.86393 
L 244.927557 -220.448716 
L 253.382102 -208.082311 
L 261.836648 -199.248073 
L 270.291193 -191.954168 
L 278.745739 -185.976135 
L 287.200284 -181.791546 
L 295.65483 -179.852453 
L 304.109375 -179.699914 
L 312.56392 -180.538797 
L 321.018466 -180.727158 
L 329.473011 -179.330898 
L 337.927557 -178.61867 
L 346.382102 -179.645489 
L 354.836648 -180.292513 
L 363.291193 -178.514799 
L 371.745739 -174.936206 
L 380.200284 -171.185218 
L 388.65483 -168.757899 
L 397.109375 -167.946998 
L 405.56392 -167.569115 
L 414.018466 -166.388146 
L 422.473011 -163.394337 
L 430.927557 -158.421274 
L 439.382102 -153.718916 
L 447.836648 -150.698086 
L 456.291193 -148.63726 
L 464.745739 -146.266599 
L 473.200284 -142.730074 
L 481.65483 -137.848612 
L 490.109375 -132.671384 
L 498.56392 -128.147972 
L 507.018466 -124.659914 
L 515.473011 -122.244967 
L 523.927557 -120.445398 
L 532.382102 -119.588554 
L 540.836648 -118.944409 
L 549.291193 -117.383169 
L 557.745739 -115.183136 
L 566.200284 -112.339109 
L 574.65483 -109.177073 
L 583.109375 -106.846264 
L 591.56392 -105.8683 
L 600.018466 -105.853408 
L 608.473011 -106.293972 
L 616.927557 -106.331515 
L 625.382102 -105.922663 
L 633.836648 -104.983969 
L 642.291193 -103.74245 
L 650.745739 -102.392103 
L 659.200284 -100.344576 
L 667.65483 -98.691685 
L 676.109375 -98.624216 
L 684.56392 -98.732812 
L 693.018466 -97.952623 
L 701.473011 -96.868416 
L 701.473011 -96.868416 
L 701.473011 -55.352656 
L 693.018466 -55.352656 
L 684.56392 -55.352656 
L 676.109375 -55.352656 
L 667.65483 -55.352656 
L 659.200284 -55.352656 
L 650.745739 -55.352656 
L 642.291193 -55.352656 
L 633.836648 -55.352656 
L 625.382102 -55.352656 
L 616.927557 -55.352656 
L 608.473011 -55.352656 
L 600.018466 -55.352656 
L 591.56392 -55.352656 
L 583.109375 -55.352656 
L 574.65483 -55.352656 
L 566.200284 -55.352656 
L 557.745739 -55.352656 
L 549.291193 -55.352656 
L 540.836648 -55.352656 
L 532.382102 -55.352656 
L 523.927557 -55.352656 
L 515.473011 -55.352656 
L 507.018466 -55.352656 
L 498.56392 -55.352656 
L 490.109375 -55.352656 
L 481.65483 -55.352656 
L 473.200284 -55.352656 
L 464.745739 -55.352656 
L 456.291193 -55.352656 
L 447.836648 -55.352656 
L 439.382102 -55.352656 
L 430.927557 -55.352656 
L 422.473011 -55.352656 
L 414.018466 -55.352656 
L 405.56392 -55.352656 
L 397.109375 -55.352656 
L 388.65483 -55.352656 
L 380.200284 -55.352656 
L 371.745739 -55.352656 
L 363.291193 -55.352656 
L 354.836648 -55.352656 
L 346.382102 -55.352656 
L 337.927557 -55.352656 
L 329.473011 -55.352656 
L 321.018466 -55.352656 
L 312.56392 -55.352656 
L 304.109375 -55.352656 
L 295.65483 -55.352656 
L 287.200284 -55.352656 
L 278.745739 -55.352656 
L 270.291193 -55.352656 
L 261.836648 -55.352656 
L 253.382102 -55.352656 
L 244.927557 -55.352656 
L 236.473011 -55.352656 
L 228.018466 -55.352656 
L 219.56392 -55.352656 
L 211.109375 -55.352656 
L 202.65483 -55.352656 
L 194.200284 -55.352656 
L 185.745739 -55.352656 
L 177.291193 -55.352656 
L 168.836648 -55.352656 
L 160.382102 -55.352656 
L 151.927557 -55.352656 
L 143.473011 -55.352656 
L 135.018466 -55.352656 
L 126.56392 -55.352656 
L 118.109375 -55.352656 
L 109.65483 -55.352656 
L 101.200284 -55.352656 
L 92.745739 -55.352656 
z
" style="stroke: #d62728; stroke-opacity: 0.3"/>
    </defs>
    <g clip-path="url(#p5501f2a35a)">
     <use xlink:href="#mfcfc898952" x="0" y="448.9275" style="fill: #d62728; fill-opacity: 0.3; stroke: #d62728; stroke-opacity: 0.3"/>
    </g>
   </g>
   <g id="FillBetweenPolyCollection_3">
    <defs>
     <path id="m33ee58f6b4" d="M 92.745739 -264.601199 
L 92.745739 -264.601199 
L 101.200284 -243.631687 
L 109.65483 -224.117083 
L 118.109375 -223.739299 
L 126.56392 -230.405223 
L 135.018466 -228.285648 
L 143.473011 -225.976318 
L 151.927557 -240.379716 
L 160.382102 -262.631423 
L 168.836648 -279.184014 
L 177.291193 -289.116081 
L 185.745739 -294.697301 
L 194.200284 -296.152913 
L 202.65483 -290.493871 
L 211.109375 -276.96309 
L 219.56392 -261.995881 
L 228.018466 -250.71925 
L 236.473011 -234.778922 
L 244.927557 -210.83792 
L 253.382102 -189.180452 
L 261.836648 -175.182229 
L 270.291193 -159.48953 
L 278.745739 -144.237906 
L 287.200284 -143.30088 
L 295.65483 -150.754169 
L 304.109375 -159.428078 
L 312.56392 -170.669372 
L 321.018466 -177.205865 
L 329.473011 -175.36247 
L 337.927557 -172.665154 
L 346.382102 -175.056429 
L 354.836648 -179.96928 
L 363.291193 -186.300445 
L 371.745739 -192.172584 
L 380.200284 -193.009462 
L 388.65483 -189.886481 
L 397.109375 -188.413547 
L 405.56392 -184.548696 
L 414.018466 -174.212957 
L 422.473011 -164.067221 
L 430.927557 -158.573982 
L 439.382102 -153.759151 
L 447.836648 -151.42158 
L 456.291193 -150.532189 
L 464.745739 -146.201069 
L 473.200284 -137.669172 
L 481.65483 -130.762655 
L 490.109375 -127.596621 
L 498.56392 -125.640312 
L 507.018466 -122.528986 
L 515.473011 -116.168101 
L 523.927557 -108.98549 
L 532.382102 -103.765474 
L 540.836648 -103.669379 
L 549.291193 -105.107852 
L 557.745739 -103.958142 
L 566.200284 -101.586643 
L 574.65483 -97.019553 
L 583.109375 -91.000714 
L 591.56392 -88.862964 
L 600.018466 -89.736358 
L 608.473011 -92.739083 
L 616.927557 -97.709469 
L 625.382102 -101.99072 
L 633.836648 -103.271465 
L 642.291193 -101.728212 
L 650.745739 -96.984092 
L 659.200284 -92.01902 
L 667.65483 -90.680005 
L 676.109375 -89.591964 
L 684.56392 -86.635084 
L 693.018466 -82.926605 
L 701.473011 -79.886476 
L 701.473011 -79.886476 
L 701.473011 -55.352656 
L 693.018466 -55.352656 
L 684.56392 -55.352656 
L 676.109375 -55.352656 
L 667.65483 -55.352656 
L 659.200284 -55.352656 
L 650.745739 -55.352656 
L 642.291193 -55.352656 
L 633.836648 -55.352656 
L 625.382102 -55.352656 
L 616.927557 -55.352656 
L 608.473011 -55.352656 
L 600.018466 -55.352656 
L 591.56392 -55.352656 
L 583.109375 -55.352656 
L 574.65483 -55.352656 
L 566.200284 -55.352656 
L 557.745739 -55.352656 
L 549.291193 -55.352656 
L 540.836648 -55.352656 
L 532.382102 -55.352656 
L 523.927557 -55.352656 
L 515.473011 -55.352656 
L 507.018466 -55.352656 
L 498.56392 -55.352656 
L 490.109375 -55.352656 
L 481.65483 -55.352656 
L 473.200284 -55.352656 
L 464.745739 -55.352656 
L 456.291193 -55.352656 
L 447.836648 -55.352656 
L 439.382102 -55.352656 
L 430.927557 -55.352656 
L 422.473011 -55.352656 
L 414.018466 -55.352656 
L 405.56392 -55.352656 
L 397.109375 -55.352656 
L 388.65483 -55.352656 
L 380.200284 -55.352656 
L 371.745739 -55.352656 
L 363.291193 -55.352656 
L 354.836648 -55.352656 
L 346.382102 -55.352656 
L 337.927557 -55.352656 
L 329.473011 -55.352656 
L 321.018466 -55.352656 
L 312.56392 -55.352656 
L 304.109375 -55.352656 
L 295.65483 -55.352656 
L 287.200284 -55.352656 
L 278.745739 -55.352656 
L 270.291193 -55.352656 
L 261.836648 -55.352656 
L 253.382102 -55.352656 
L 244.927557 -55.352656 
L 236.473011 -55.352656 
L 228.018466 -55.352656 
L 219.56392 -55.352656 
L 211.109375 -55.352656 
L 202.65483 -55.352656 
L 194.200284 -55.352656 
L 185.745739 -55.352656 
L 177.291193 -55.352656 
L 168.836648 -55.352656 
L 160.382102 -55.352656 
L 151.927557 -55.352656 
L 143.473011 -55.352656 
L 135.018466 -55.352656 
L 126.56392 -55.352656 
L 118.109375 -55.352656 
L 109.65483 -55.352656 
L 101.200284 -55.352656 
L 92.745739 -55.352656 
z
" style="stroke: #e377c2; stroke-opacity: 0.3"/>
    </defs>
    <g clip-path="url(#p5501f2a35a)">
     <use xlink:href="#m33ee58f6b4" x="0" y="448.9275" style="fill: #e377c2; fill-opacity: 0.3; stroke: #e377c2; stroke-opacity: 0.3"/>
    </g>
   </g>
   <g id="FillBetweenPolyCollection_4">
    <defs>
     <path id="mdb1b950fce" d="M 92.745739 -286.78085 
L 92.745739 -286.78085 
L 101.200284 -278.459598 
L 109.65483 -274.875952 
L 118.109375 -276.687333 
L 126.56392 -284.80441 
L 135.018466 -300.815866 
L 143.473011 -313.192796 
L 151.927557 -326.202801 
L 160.382102 -347.473874 
L 168.836648 -373.334384 
L 177.291193 -397.465502 
L 185.745739 -408.152656 
L 194.200284 -395.329317 
L 202.65483 -358.920922 
L 211.109375 -311.729208 
L 219.56392 -276.543924 
L 228.018466 -256.69368 
L 236.473011 -237.965844 
L 244.927557 -220.908763 
L 253.382102 -210.901248 
L 261.836648 -205.722117 
L 270.291193 -199.492279 
L 278.745739 -192.243033 
L 287.200284 -188.738128 
L 295.65483 -189.394161 
L 304.109375 -187.139721 
L 312.56392 -183.970283 
L 321.018466 -192.64394 
L 329.473011 -208.894381 
L 337.927557 -217.243338 
L 346.382102 -213.176565 
L 354.836648 -202.813275 
L 363.291193 -194.435253 
L 371.745739 -190.411937 
L 380.200284 -184.287847 
L 388.65483 -176.493857 
L 397.109375 -171.642026 
L 405.56392 -170.819857 
L 414.018466 -170.606221 
L 422.473011 -168.51744 
L 430.927557 -162.277053 
L 439.382102 -152.409284 
L 447.836648 -140.788187 
L 456.291193 -130.591718 
L 464.745739 -126.021053 
L 473.200284 -127.522191 
L 481.65483 -129.838141 
L 490.109375 -124.081027 
L 498.56392 -114.272228 
L 507.018466 -110.799044 
L 515.473011 -106.0375 
L 523.927557 -96.784824 
L 532.382102 -93.176448 
L 540.836648 -96.423575 
L 549.291193 -99.409646 
L 557.745739 -100.290062 
L 566.200284 -98.11691 
L 574.65483 -94.559028 
L 583.109375 -93.483836 
L 591.56392 -90.30348 
L 600.018466 -84.093275 
L 608.473011 -80.658934 
L 616.927557 -80.96377 
L 625.382102 -84.405468 
L 633.836648 -90.346696 
L 642.291193 -95.016483 
L 650.745739 -94.514942 
L 659.200284 -93.231894 
L 667.65483 -94.623683 
L 676.109375 -94.442371 
L 684.56392 -91.687269 
L 693.018466 -88.528028 
L 701.473011 -82.415308 
L 701.473011 -82.415308 
L 701.473011 -55.352656 
L 693.018466 -55.352656 
L 684.56392 -55.352656 
L 676.109375 -55.352656 
L 667.65483 -55.352656 
L 659.200284 -55.352656 
L 650.745739 -55.352656 
L 642.291193 -55.352656 
L 633.836648 -55.352656 
L 625.382102 -55.352656 
L 616.927557 -55.352656 
L 608.473011 -55.352656 
L 600.018466 -55.352656 
L 591.56392 -55.352656 
L 583.109375 -55.352656 
L 574.65483 -55.352656 
L 566.200284 -55.352656 
L 557.745739 -55.352656 
L 549.291193 -55.352656 
L 540.836648 -55.352656 
L 532.382102 -55.352656 
L 523.927557 -55.352656 
L 515.473011 -55.352656 
L 507.018466 -55.352656 
L 498.56392 -55.352656 
L 490.109375 -55.352656 
L 481.65483 -55.352656 
L 473.200284 -55.352656 
L 464.745739 -55.352656 
L 456.291193 -55.352656 
L 447.836648 -55.352656 
L 439.382102 -55.352656 
L 430.927557 -55.352656 
L 422.473011 -55.352656 
L 414.018466 -55.352656 
L 405.56392 -55.352656 
L 397.109375 -55.352656 
L 388.65483 -55.352656 
L 380.200284 -55.352656 
L 371.745739 -55.352656 
L 363.291193 -55.352656 
L 354.836648 -55.352656 
L 346.382102 -55.352656 
L 337.927557 -55.352656 
L 329.473011 -55.352656 
L 321.018466 -55.352656 
L 312.56392 -55.352656 
L 304.109375 -55.352656 
L 295.65483 -55.352656 
L 287.200284 -55.352656 
L 278.745739 -55.352656 
L 270.291193 -55.352656 
L 261.836648 -55.352656 
L 253.382102 -55.352656 
L 244.927557 -55.352656 
L 236.473011 -55.352656 
L 228.018466 -55.352656 
L 219.56392 -55.352656 
L 211.109375 -55.352656 
L 202.65483 -55.352656 
L 194.200284 -55.352656 
L 185.745739 -55.352656 
L 177.291193 -55.352656 
L 168.836648 -55.352656 
L 160.382102 -55.352656 
L 151.927557 -55.352656 
L 143.473011 -55.352656 
L 135.018466 -55.352656 
L 126.56392 -55.352656 
L 118.109375 -55.352656 
L 109.65483 -55.352656 
L 101.200284 -55.352656 
L 92.745739 -55.352656 
z
" style="stroke: #17becf; stroke-opacity: 0.3"/>
    </defs>
    <g clip-path="url(#p5501f2a35a)">
     <use xlink:href="#mdb1b950fce" x="0" y="448.9275" style="fill: #17becf; fill-opacity: 0.3; stroke: #17becf; stroke-opacity: 0.3"/>
    </g>
   </g>
   <g id="matplotlib.axis_1">
    <g id="xtick_1">
     <g id="line2d_1">
      <path d="M 109.65483 411.214844 
L 109.65483 23.134844 
" clip-path="url(#p5501f2a35a)" style="fill: none; stroke-dasharray: 2.96,1.28; stroke-dashoffset: 0; stroke: #dddddd; stroke-width: 0.8"/>
     </g>
     <g id="line2d_2">
      <defs>
       <path id="mb01ca15b88" d="M 0 0 
L 0 3.5 
" style="stroke: #333333; stroke-width: 0.8"/>
      </defs>
      <g>
       <use xlink:href="#mb01ca15b88" x="109.65483" y="411.214844" style="fill: #333333; stroke: #333333; stroke-width: 0.8"/>
      </g>
     </g>
     <g id="text_1">
      <!-- 5 -->
      <g style="fill: #333333" transform="translate(106.791705 425.053437) scale(0.09 -0.09)">
       <defs>
        <path id="DejaVuSerif-35" d="M 3219 4666 
L 3219 4153 
L 1081 4153 
L 1081 2816 
Q 1244 2928 1461 2984 
Q 1678 3041 1947 3041 
Q 2703 3041 3140 2622 
Q 3578 2203 3578 1478 
Q 3578 738 3136 323 
Q 2694 -91 1894 -91 
Q 1572 -91 1234 -12 
Q 897 66 544 225 
L 544 1131 
L 897 1131 
Q 925 688 1179 453 
Q 1434 219 1894 219 
Q 2388 219 2653 544 
Q 2919 869 2919 1478 
Q 2919 2084 2655 2407 
Q 2391 2731 1894 2731 
Q 1613 2731 1398 2631 
Q 1184 2531 1019 2322 
L 750 2322 
L 750 4666 
L 3219 4666 
z
" transform="scale(0.015625)"/>
       </defs>
       <use xlink:href="#DejaVuSerif-35"/>
      </g>
     </g>
    </g>
    <g id="xtick_2">
     <g id="line2d_3">
      <path d="M 194.200284 411.214844 
L 194.200284 23.134844 
" clip-path="url(#p5501f2a35a)" style="fill: none; stroke-dasharray: 2.96,1.28; stroke-dashoffset: 0; stroke: #dddddd; stroke-width: 0.8"/>
     </g>
     <g id="line2d_4">
      <g>
       <use xlink:href="#mb01ca15b88" x="194.200284" y="411.214844" style="fill: #333333; stroke: #333333; stroke-width: 0.8"/>
      </g>
     </g>
     <g id="text_2">
      <!-- 10 -->
      <g style="fill: #333333" transform="translate(188.474034 425.053437) scale(0.09 -0.09)">
       <defs>
        <path id="DejaVuSerif-31" d="M 909 0 
L 909 331 
L 1722 331 
L 1722 4213 
L 781 3603 
L 781 4013 
L 1919 4750 
L 2350 4750 
L 2350 331 
L 3163 331 
L 3163 0 
L 909 0 
z
" transform="scale(0.015625)"/>
        <path id="DejaVuSerif-30" d="M 2034 219 
Q 2513 219 2750 744 
Q 2988 1269 2988 2328 
Q 2988 3391 2750 3916 
Q 2513 4441 2034 4441 
Q 1556 4441 1318 3916 
Q 1081 3391 1081 2328 
Q 1081 1269 1318 744 
Q 1556 219 2034 219 
z
M 2034 -91 
Q 1275 -91 848 546 
Q 422 1184 422 2328 
Q 422 3475 848 4112 
Q 1275 4750 2034 4750 
Q 2797 4750 3222 4112 
Q 3647 3475 3647 2328 
Q 3647 1184 3222 546 
Q 2797 -91 2034 -91 
z
" transform="scale(0.015625)"/>
       </defs>
       <use xlink:href="#DejaVuSerif-31"/>
       <use xlink:href="#DejaVuSerif-30" transform="translate(63.623047 0)"/>
      </g>
     </g>
    </g>
    <g id="xtick_3">
     <g id="line2d_5">
      <path d="M 278.745739 411.214844 
L 278.745739 23.134844 
" clip-path="url(#p5501f2a35a)" style="fill: none; stroke-dasharray: 2.96,1.28; stroke-dashoffset: 0; stroke: #dddddd; stroke-width: 0.8"/>
     </g>
     <g id="line2d_6">
      <g>
       <use xlink:href="#mb01ca15b88" x="278.745739" y="411.214844" style="fill: #333333; stroke: #333333; stroke-width: 0.8"/>
      </g>
     </g>
     <g id="text_3">
      <!-- 15 -->
      <g style="fill: #333333" transform="translate(273.019489 425.053437) scale(0.09 -0.09)">
       <use xlink:href="#DejaVuSerif-31"/>
       <use xlink:href="#DejaVuSerif-35" transform="translate(63.623047 0)"/>
      </g>
     </g>
    </g>
    <g id="xtick_4">
     <g id="line2d_7">
      <path d="M 363.291193 411.214844 
L 363.291193 23.134844 
" clip-path="url(#p5501f2a35a)" style="fill: none; stroke-dasharray: 2.96,1.28; stroke-dashoffset: 0; stroke: #dddddd; stroke-width: 0.8"/>
     </g>
     <g id="line2d_8">
      <g>
       <use xlink:href="#mb01ca15b88" x="363.291193" y="411.214844" style="fill: #333333; stroke: #333333; stroke-width: 0.8"/>
      </g>
     </g>
     <g id="text_4">
      <!-- 20 -->
      <g style="fill: #333333" transform="translate(357.564943 425.053437) scale(0.09 -0.09)">
       <defs>
        <path id="DejaVuSerif-32" d="M 819 3553 
L 469 3553 
L 469 4384 
Q 803 4563 1142 4656 
Q 1481 4750 1806 4750 
Q 2534 4750 2956 4397 
Q 3378 4044 3378 3438 
Q 3378 2753 2422 1800 
Q 2347 1728 2309 1691 
L 1131 513 
L 3078 513 
L 3078 1088 
L 3444 1088 
L 3444 0 
L 434 0 
L 434 341 
L 1850 1753 
Q 2319 2222 2519 2614 
Q 2719 3006 2719 3438 
Q 2719 3909 2473 4175 
Q 2228 4441 1797 4441 
Q 1350 4441 1106 4219 
Q 863 3997 819 3553 
z
" transform="scale(0.015625)"/>
       </defs>
       <use xlink:href="#DejaVuSerif-32"/>
       <use xlink:href="#DejaVuSerif-30" transform="translate(63.623047 0)"/>
      </g>
     </g>
    </g>
    <g id="xtick_5">
     <g id="line2d_9">
      <path d="M 447.836648 411.214844 
L 447.836648 23.134844 
" clip-path="url(#p5501f2a35a)" style="fill: none; stroke-dasharray: 2.96,1.28; stroke-dashoffset: 0; stroke: #dddddd; stroke-width: 0.8"/>
     </g>
     <g id="line2d_10">
      <g>
       <use xlink:href="#mb01ca15b88" x="447.836648" y="411.214844" style="fill: #333333; stroke: #333333; stroke-width: 0.8"/>
      </g>
     </g>
     <g id="text_5">
      <!-- 25 -->
      <g style="fill: #333333" transform="translate(442.110398 425.053437) scale(0.09 -0.09)">
       <use xlink:href="#DejaVuSerif-32"/>
       <use xlink:href="#DejaVuSerif-35" transform="translate(63.623047 0)"/>
      </g>
     </g>
    </g>
    <g id="xtick_6">
     <g id="line2d_11">
      <path d="M 532.382102 411.214844 
L 532.382102 23.134844 
" clip-path="url(#p5501f2a35a)" style="fill: none; stroke-dasharray: 2.96,1.28; stroke-dashoffset: 0; stroke: #dddddd; stroke-width: 0.8"/>
     </g>
     <g id="line2d_12">
      <g>
       <use xlink:href="#mb01ca15b88" x="532.382102" y="411.214844" style="fill: #333333; stroke: #333333; stroke-width: 0.8"/>
      </g>
     </g>
     <g id="text_6">
      <!-- 30 -->
      <g style="fill: #333333" transform="translate(526.655852 425.053437) scale(0.09 -0.09)">
       <defs>
        <path id="DejaVuSerif-33" d="M 622 4469 
Q 988 4606 1323 4678 
Q 1659 4750 1953 4750 
Q 2638 4750 3022 4454 
Q 3406 4159 3406 3634 
Q 3406 3213 3140 2930 
Q 2875 2647 2388 2547 
Q 2963 2466 3280 2130 
Q 3597 1794 3597 1259 
Q 3597 606 3158 257 
Q 2719 -91 1894 -91 
Q 1528 -91 1179 -12 
Q 831 66 488 225 
L 488 1131 
L 838 1131 
Q 869 681 1141 450 
Q 1413 219 1906 219 
Q 2384 219 2661 495 
Q 2938 772 2938 1253 
Q 2938 1803 2653 2086 
Q 2369 2369 1819 2369 
L 1522 2369 
L 1522 2688 
L 1678 2688 
Q 2225 2688 2498 2914 
Q 2772 3141 2772 3597 
Q 2772 4006 2547 4223 
Q 2322 4441 1900 4441 
Q 1478 4441 1245 4241 
Q 1013 4041 972 3647 
L 622 3647 
L 622 4469 
z
" transform="scale(0.015625)"/>
       </defs>
       <use xlink:href="#DejaVuSerif-33"/>
       <use xlink:href="#DejaVuSerif-30" transform="translate(63.623047 0)"/>
      </g>
     </g>
    </g>
    <g id="xtick_7">
     <g id="line2d_13">
      <path d="M 616.927557 411.214844 
L 616.927557 23.134844 
" clip-path="url(#p5501f2a35a)" style="fill: none; stroke-dasharray: 2.96,1.28; stroke-dashoffset: 0; stroke: #dddddd; stroke-width: 0.8"/>
     </g>
     <g id="line2d_14">
      <g>
       <use xlink:href="#mb01ca15b88" x="616.927557" y="411.214844" style="fill: #333333; stroke: #333333; stroke-width: 0.8"/>
      </g>
     </g>
     <g id="text_7">
      <!-- 35 -->
      <g style="fill: #333333" transform="translate(611.201307 425.053437) scale(0.09 -0.09)">
       <use xlink:href="#DejaVuSerif-33"/>
       <use xlink:href="#DejaVuSerif-35" transform="translate(63.623047 0)"/>
      </g>
     </g>
    </g>
    <g id="xtick_8">
     <g id="line2d_15">
      <path d="M 701.473011 411.214844 
L 701.473011 23.134844 
" clip-path="url(#p5501f2a35a)" style="fill: none; stroke-dasharray: 2.96,1.28; stroke-dashoffset: 0; stroke: #dddddd; stroke-width: 0.8"/>
     </g>
     <g id="line2d_16">
      <g>
       <use xlink:href="#mb01ca15b88" x="701.473011" y="411.214844" style="fill: #333333; stroke: #333333; stroke-width: 0.8"/>
      </g>
     </g>
     <g id="text_8">
      <!-- 40 -->
      <g style="fill: #333333" transform="translate(695.746761 425.053437) scale(0.09 -0.09)">
       <defs>
        <path id="DejaVuSerif-34" d="M 2234 1581 
L 2234 4063 
L 641 1581 
L 2234 1581 
z
M 3609 0 
L 1484 0 
L 1484 331 
L 2234 331 
L 2234 1247 
L 197 1247 
L 197 1588 
L 2241 4750 
L 2859 4750 
L 2859 1581 
L 3750 1581 
L 3750 1247 
L 2859 1247 
L 2859 331 
L 3609 331 
L 3609 0 
z
" transform="scale(0.015625)"/>
       </defs>
       <use xlink:href="#DejaVuSerif-34"/>
       <use xlink:href="#DejaVuSerif-30" transform="translate(63.623047 0)"/>
      </g>
     </g>
    </g>
    <g id="text_9">
     <!-- Frequency (Hz) -->
     <g transform="translate(353.626719 439.283437) scale(0.11 -0.11)">
      <defs>
       <path id="DejaVuSerif-46" d="M 353 0 
L 353 331 
L 947 331 
L 947 4331 
L 353 4331 
L 353 4666 
L 4172 4666 
L 4172 3628 
L 3788 3628 
L 3788 4281 
L 1581 4281 
L 1581 2719 
L 3175 2719 
L 3175 3303 
L 3559 3303 
L 3559 1753 
L 3175 1753 
L 3175 2338 
L 1581 2338 
L 1581 331 
L 2328 331 
L 2328 0 
L 353 0 
z
" transform="scale(0.015625)"/>
       <path id="DejaVuSerif-72" d="M 3059 3328 
L 3059 2497 
L 2728 2497 
Q 2713 2744 2591 2866 
Q 2469 2988 2234 2988 
Q 1809 2988 1582 2694 
Q 1356 2400 1356 1850 
L 1356 331 
L 2022 331 
L 2022 0 
L 263 0 
L 263 331 
L 781 331 
L 781 2994 
L 231 2994 
L 231 3322 
L 1356 3322 
L 1356 2731 
Q 1525 3078 1790 3245 
Q 2056 3413 2438 3413 
Q 2578 3413 2733 3391 
Q 2888 3369 3059 3328 
z
" transform="scale(0.015625)"/>
       <path id="DejaVuSerif-65" d="M 3469 1600 
L 991 1600 
L 991 1575 
Q 991 903 1244 561 
Q 1497 219 1991 219 
Q 2369 219 2611 417 
Q 2853 616 2950 1006 
L 3413 1006 
Q 3275 459 2904 184 
Q 2534 -91 1931 -91 
Q 1203 -91 761 389 
Q 319 869 319 1663 
Q 319 2450 753 2931 
Q 1188 3413 1894 3413 
Q 2647 3413 3050 2948 
Q 3453 2484 3469 1600 
z
M 2791 1931 
Q 2772 2513 2545 2808 
Q 2319 3103 1894 3103 
Q 1497 3103 1269 2806 
Q 1041 2509 991 1931 
L 2791 1931 
z
" transform="scale(0.015625)"/>
       <path id="DejaVuSerif-71" d="M 3359 2988 
L 3359 -997 
L 3909 -997 
L 3909 -1331 
L 2241 -1331 
L 2241 -997 
L 2784 -997 
L 2784 519 
Q 2616 206 2355 57 
Q 2094 -91 1709 -91 
Q 1097 -91 708 395 
Q 319 881 319 1663 
Q 319 2444 706 2928 
Q 1094 3413 1709 3413 
Q 2094 3413 2355 3264 
Q 2616 3116 2784 2803 
L 2784 3322 
L 3909 3322 
L 3909 2988 
L 3359 2988 
z
M 2784 1825 
Q 2784 2422 2554 2737 
Q 2325 3053 1888 3053 
Q 1444 3053 1217 2703 
Q 991 2353 991 1663 
Q 991 975 1217 622 
Q 1444 269 1888 269 
Q 2325 269 2554 583 
Q 2784 897 2784 1497 
L 2784 1825 
z
" transform="scale(0.015625)"/>
       <path id="DejaVuSerif-75" d="M 2266 3322 
L 3341 3322 
L 3341 331 
L 3884 331 
L 3884 0 
L 2766 0 
L 2766 588 
Q 2606 256 2353 82 
Q 2100 -91 1766 -91 
Q 1213 -91 952 223 
Q 691 538 691 1209 
L 691 2988 
L 172 2988 
L 172 3322 
L 1269 3322 
L 1269 1388 
Q 1269 781 1417 556 
Q 1566 331 1947 331 
Q 2347 331 2556 625 
Q 2766 919 2766 1478 
L 2766 2988 
L 2266 2988 
L 2266 3322 
z
" transform="scale(0.015625)"/>
       <path id="DejaVuSerif-6e" d="M 263 0 
L 263 331 
L 781 331 
L 781 2988 
L 231 2988 
L 231 3322 
L 1356 3322 
L 1356 2731 
Q 1516 3069 1770 3241 
Q 2025 3413 2363 3413 
Q 2913 3413 3172 3097 
Q 3431 2781 3431 2113 
L 3431 331 
L 3944 331 
L 3944 0 
L 2356 0 
L 2356 331 
L 2853 331 
L 2853 1931 
Q 2853 2541 2703 2767 
Q 2553 2994 2175 2994 
Q 1775 2994 1565 2701 
Q 1356 2409 1356 1850 
L 1356 331 
L 1856 331 
L 1856 0 
L 263 0 
z
" transform="scale(0.015625)"/>
       <path id="DejaVuSerif-63" d="M 3291 997 
Q 3169 466 2822 187 
Q 2475 -91 1925 -91 
Q 1200 -91 759 389 
Q 319 869 319 1663 
Q 319 2459 759 2936 
Q 1200 3413 1925 3413 
Q 2241 3413 2553 3339 
Q 2866 3266 3181 3116 
L 3181 2266 
L 2847 2266 
Q 2781 2703 2561 2903 
Q 2341 3103 1931 3103 
Q 1466 3103 1228 2742 
Q 991 2381 991 1663 
Q 991 944 1227 581 
Q 1463 219 1931 219 
Q 2303 219 2525 412 
Q 2747 606 2828 997 
L 3291 997 
z
" transform="scale(0.015625)"/>
       <path id="DejaVuSerif-79" d="M 1381 -609 
L 1600 -56 
L 359 2988 
L -19 2988 
L -19 3322 
L 1509 3322 
L 1509 2988 
L 978 2988 
L 1913 703 
L 2847 2988 
L 2350 2988 
L 2350 3322 
L 3597 3322 
L 3597 2988 
L 3225 2988 
L 1703 -750 
Q 1547 -1138 1356 -1280 
Q 1166 -1422 819 -1422 
Q 672 -1422 517 -1397 
Q 363 -1372 206 -1325 
L 206 -691 
L 500 -691 
Q 519 -903 608 -995 
Q 697 -1088 884 -1088 
Q 1056 -1088 1161 -992 
Q 1266 -897 1381 -609 
z
" transform="scale(0.015625)"/>
       <path id="DejaVuSerif-20" transform="scale(0.015625)"/>
       <path id="DejaVuSerif-28" d="M 2041 -997 
Q 1281 -656 893 83 
Q 506 822 506 1931 
Q 506 3044 893 3783 
Q 1281 4522 2041 4863 
L 2041 4556 
Q 1559 4225 1350 3623 
Q 1141 3022 1141 1931 
Q 1141 844 1350 242 
Q 1559 -359 2041 -691 
L 2041 -997 
z
" transform="scale(0.015625)"/>
       <path id="DejaVuSerif-48" d="M 353 0 
L 353 331 
L 947 331 
L 947 4331 
L 353 4331 
L 353 4666 
L 2175 4666 
L 2175 4331 
L 1581 4331 
L 1581 2719 
L 4000 2719 
L 4000 4331 
L 3406 4331 
L 3406 4666 
L 5228 4666 
L 5228 4331 
L 4634 4331 
L 4634 331 
L 5228 331 
L 5228 0 
L 3406 0 
L 3406 331 
L 4000 331 
L 4000 2338 
L 1581 2338 
L 1581 331 
L 2175 331 
L 2175 0 
L 353 0 
z
" transform="scale(0.015625)"/>
       <path id="DejaVuSerif-7a" d="M 256 0 
L 256 269 
L 2338 2988 
L 691 2988 
L 691 2413 
L 359 2413 
L 359 3322 
L 3078 3322 
L 3078 3053 
L 997 331 
L 2803 331 
L 2803 934 
L 3138 934 
L 3138 0 
L 256 0 
z
" transform="scale(0.015625)"/>
       <path id="DejaVuSerif-29" d="M 453 -997 
L 453 -691 
Q 934 -359 1145 242 
Q 1356 844 1356 1931 
Q 1356 3022 1145 3623 
Q 934 4225 453 4556 
L 453 4863 
Q 1216 4522 1603 3783 
Q 1991 3044 1991 1931 
Q 1991 822 1603 83 
Q 1216 -656 453 -997 
z
" transform="scale(0.015625)"/>
      </defs>
      <use xlink:href="#DejaVuSerif-46"/>
      <use xlink:href="#DejaVuSerif-72" transform="translate(69.384766 0)"/>
      <use xlink:href="#DejaVuSerif-65" transform="translate(117.1875 0)"/>
      <use xlink:href="#DejaVuSerif-71" transform="translate(176.367188 0)"/>
      <use xlink:href="#DejaVuSerif-75" transform="translate(240.380859 0)"/>
      <use xlink:href="#DejaVuSerif-65" transform="translate(304.785156 0)"/>
      <use xlink:href="#DejaVuSerif-6e" transform="translate(363.964844 0)"/>
      <use xlink:href="#DejaVuSerif-63" transform="translate(428.369141 0)"/>
      <use xlink:href="#DejaVuSerif-79" transform="translate(484.375 0)"/>
      <use xlink:href="#DejaVuSerif-20" transform="translate(540.869141 0)"/>
      <use xlink:href="#DejaVuSerif-28" transform="translate(572.65625 0)"/>
      <use xlink:href="#DejaVuSerif-48" transform="translate(611.669922 0)"/>
      <use xlink:href="#DejaVuSerif-7a" transform="translate(698.876953 0)"/>
      <use xlink:href="#DejaVuSerif-29" transform="translate(751.5625 0)"/>
     </g>
    </g>
   </g>
   <g id="matplotlib.axis_2">
    <g id="ytick_1">
     <g id="line2d_17">
      <path d="M 62.309375 395.381704 
L 731.909375 395.381704 
" clip-path="url(#p5501f2a35a)" style="fill: none; stroke-dasharray: 2.96,1.28; stroke-dashoffset: 0; stroke: #dddddd; stroke-width: 0.8"/>
     </g>
     <g id="line2d_18">
      <defs>
       <path id="mf059664b06" d="M 0 0 
L -3.5 0 
" style="stroke: #333333; stroke-width: 0.8"/>
      </defs>
      <g>
       <use xlink:href="#mf059664b06" x="62.309375" y="395.381704" style="fill: #333333; stroke: #333333; stroke-width: 0.8"/>
      </g>
     </g>
     <g id="text_10">
      <!-- −132.5 -->
      <g style="fill: #333333" transform="translate(22.002344 398.801001) scale(0.09 -0.09)">
       <defs>
        <path id="DejaVuSerif-2212" d="M 678 2259 
L 4684 2259 
L 4684 1753 
L 678 1753 
L 678 2259 
z
" transform="scale(0.015625)"/>
        <path id="DejaVuSerif-2e" d="M 603 325 
Q 603 500 722 622 
Q 841 744 1019 744 
Q 1191 744 1312 622 
Q 1434 500 1434 325 
Q 1434 153 1312 31 
Q 1191 -91 1019 -91 
Q 841 -91 722 29 
Q 603 150 603 325 
z
" transform="scale(0.015625)"/>
       </defs>
       <use xlink:href="#DejaVuSerif-2212"/>
       <use xlink:href="#DejaVuSerif-31" transform="translate(83.789062 0)"/>
       <use xlink:href="#DejaVuSerif-33" transform="translate(147.412109 0)"/>
       <use xlink:href="#DejaVuSerif-32" transform="translate(211.035156 0)"/>
       <use xlink:href="#DejaVuSerif-2e" transform="translate(274.658203 0)"/>
       <use xlink:href="#DejaVuSerif-35" transform="translate(306.445312 0)"/>
      </g>
     </g>
    </g>
    <g id="ytick_2">
     <g id="line2d_19">
      <path d="M 62.309375 348.594484 
L 731.909375 348.594484 
" clip-path="url(#p5501f2a35a)" style="fill: none; stroke-dasharray: 2.96,1.28; stroke-dashoffset: 0; stroke: #dddddd; stroke-width: 0.8"/>
     </g>
     <g id="line2d_20">
      <g>
       <use xlink:href="#mf059664b06" x="62.309375" y="348.594484" style="fill: #333333; stroke: #333333; stroke-width: 0.8"/>
      </g>
     </g>
     <g id="text_11">
      <!-- −130.0 -->
      <g style="fill: #333333" transform="translate(22.002344 352.013781) scale(0.09 -0.09)">
       <use xlink:href="#DejaVuSerif-2212"/>
       <use xlink:href="#DejaVuSerif-31" transform="translate(83.789062 0)"/>
       <use xlink:href="#DejaVuSerif-33" transform="translate(147.412109 0)"/>
       <use xlink:href="#DejaVuSerif-30" transform="translate(211.035156 0)"/>
       <use xlink:href="#DejaVuSerif-2e" transform="translate(274.658203 0)"/>
       <use xlink:href="#DejaVuSerif-30" transform="translate(306.445312 0)"/>
      </g>
     </g>
    </g>
    <g id="ytick_3">
     <g id="line2d_21">
      <path d="M 62.309375 301.807264 
L 731.909375 301.807264 
" clip-path="url(#p5501f2a35a)" style="fill: none; stroke-dasharray: 2.96,1.28; stroke-dashoffset: 0; stroke: #dddddd; stroke-width: 0.8"/>
     </g>
     <g id="line2d_22">
      <g>
       <use xlink:href="#mf059664b06" x="62.309375" y="301.807264" style="fill: #333333; stroke: #333333; stroke-width: 0.8"/>
      </g>
     </g>
     <g id="text_12">
      <!-- −127.5 -->
      <g style="fill: #333333" transform="translate(22.002344 305.226561) scale(0.09 -0.09)">
       <defs>
        <path id="DejaVuSerif-37" d="M 3609 4347 
L 1784 0 
L 1319 0 
L 3059 4153 
L 903 4153 
L 903 3578 
L 538 3578 
L 538 4666 
L 3609 4666 
L 3609 4347 
z
" transform="scale(0.015625)"/>
       </defs>
       <use xlink:href="#DejaVuSerif-2212"/>
       <use xlink:href="#DejaVuSerif-31" transform="translate(83.789062 0)"/>
       <use xlink:href="#DejaVuSerif-32" transform="translate(147.412109 0)"/>
       <use xlink:href="#DejaVuSerif-37" transform="translate(211.035156 0)"/>
       <use xlink:href="#DejaVuSerif-2e" transform="translate(274.658203 0)"/>
       <use xlink:href="#DejaVuSerif-35" transform="translate(306.445312 0)"/>
      </g>
     </g>
    </g>
    <g id="ytick_4">
     <g id="line2d_23">
      <path d="M 62.309375 255.020044 
L 731.909375 255.020044 
" clip-path="url(#p5501f2a35a)" style="fill: none; stroke-dasharray: 2.96,1.28; stroke-dashoffset: 0; stroke: #dddddd; stroke-width: 0.8"/>
     </g>
     <g id="line2d_24">
      <g>
       <use xlink:href="#mf059664b06" x="62.309375" y="255.020044" style="fill: #333333; stroke: #333333; stroke-width: 0.8"/>
      </g>
     </g>
     <g id="text_13">
      <!-- −125.0 -->
      <g style="fill: #333333" transform="translate(22.002344 258.439341) scale(0.09 -0.09)">
       <use xlink:href="#DejaVuSerif-2212"/>
       <use xlink:href="#DejaVuSerif-31" transform="translate(83.789062 0)"/>
       <use xlink:href="#DejaVuSerif-32" transform="translate(147.412109 0)"/>
       <use xlink:href="#DejaVuSerif-35" transform="translate(211.035156 0)"/>
       <use xlink:href="#DejaVuSerif-2e" transform="translate(274.658203 0)"/>
       <use xlink:href="#DejaVuSerif-30" transform="translate(306.445312 0)"/>
      </g>
     </g>
    </g>
    <g id="ytick_5">
     <g id="line2d_25">
      <path d="M 62.309375 208.232824 
L 731.909375 208.232824 
" clip-path="url(#p5501f2a35a)" style="fill: none; stroke-dasharray: 2.96,1.28; stroke-dashoffset: 0; stroke: #dddddd; stroke-width: 0.8"/>
     </g>
     <g id="line2d_26">
      <g>
       <use xlink:href="#mf059664b06" x="62.309375" y="208.232824" style="fill: #333333; stroke: #333333; stroke-width: 0.8"/>
      </g>
     </g>
     <g id="text_14">
      <!-- −122.5 -->
      <g style="fill: #333333" transform="translate(22.002344 211.652121) scale(0.09 -0.09)">
       <use xlink:href="#DejaVuSerif-2212"/>
       <use xlink:href="#DejaVuSerif-31" transform="translate(83.789062 0)"/>
       <use xlink:href="#DejaVuSerif-32" transform="translate(147.412109 0)"/>
       <use xlink:href="#DejaVuSerif-32" transform="translate(211.035156 0)"/>
       <use xlink:href="#DejaVuSerif-2e" transform="translate(274.658203 0)"/>
       <use xlink:href="#DejaVuSerif-35" transform="translate(306.445312 0)"/>
      </g>
     </g>
    </g>
    <g id="ytick_6">
     <g id="line2d_27">
      <path d="M 62.309375 161.445604 
L 731.909375 161.445604 
" clip-path="url(#p5501f2a35a)" style="fill: none; stroke-dasharray: 2.96,1.28; stroke-dashoffset: 0; stroke: #dddddd; stroke-width: 0.8"/>
     </g>
     <g id="line2d_28">
      <g>
       <use xlink:href="#mf059664b06" x="62.309375" y="161.445604" style="fill: #333333; stroke: #333333; stroke-width: 0.8"/>
      </g>
     </g>
     <g id="text_15">
      <!-- −120.0 -->
      <g style="fill: #333333" transform="translate(22.002344 164.864901) scale(0.09 -0.09)">
       <use xlink:href="#DejaVuSerif-2212"/>
       <use xlink:href="#DejaVuSerif-31" transform="translate(83.789062 0)"/>
       <use xlink:href="#DejaVuSerif-32" transform="translate(147.412109 0)"/>
       <use xlink:href="#DejaVuSerif-30" transform="translate(211.035156 0)"/>
       <use xlink:href="#DejaVuSerif-2e" transform="translate(274.658203 0)"/>
       <use xlink:href="#DejaVuSerif-30" transform="translate(306.445312 0)"/>
      </g>
     </g>
    </g>
    <g id="ytick_7">
     <g id="line2d_29">
      <path d="M 62.309375 114.658384 
L 731.909375 114.658384 
" clip-path="url(#p5501f2a35a)" style="fill: none; stroke-dasharray: 2.96,1.28; stroke-dashoffset: 0; stroke: #dddddd; stroke-width: 0.8"/>
     </g>
     <g id="line2d_30">
      <g>
       <use xlink:href="#mf059664b06" x="62.309375" y="114.658384" style="fill: #333333; stroke: #333333; stroke-width: 0.8"/>
      </g>
     </g>
     <g id="text_16">
      <!-- −117.5 -->
      <g style="fill: #333333" transform="translate(22.002344 118.07768) scale(0.09 -0.09)">
       <use xlink:href="#DejaVuSerif-2212"/>
       <use xlink:href="#DejaVuSerif-31" transform="translate(83.789062 0)"/>
       <use xlink:href="#DejaVuSerif-31" transform="translate(147.412109 0)"/>
       <use xlink:href="#DejaVuSerif-37" transform="translate(211.035156 0)"/>
       <use xlink:href="#DejaVuSerif-2e" transform="translate(274.658203 0)"/>
       <use xlink:href="#DejaVuSerif-35" transform="translate(306.445312 0)"/>
      </g>
     </g>
    </g>
    <g id="ytick_8">
     <g id="line2d_31">
      <path d="M 62.309375 67.871163 
L 731.909375 67.871163 
" clip-path="url(#p5501f2a35a)" style="fill: none; stroke-dasharray: 2.96,1.28; stroke-dashoffset: 0; stroke: #dddddd; stroke-width: 0.8"/>
     </g>
     <g id="line2d_32">
      <g>
       <use xlink:href="#mf059664b06" x="62.309375" y="67.871163" style="fill: #333333; stroke: #333333; stroke-width: 0.8"/>
      </g>
     </g>
     <g id="text_17">
      <!-- −115.0 -->
      <g style="fill: #333333" transform="translate(22.002344 71.29046) scale(0.09 -0.09)">
       <use xlink:href="#DejaVuSerif-2212"/>
       <use xlink:href="#DejaVuSerif-31" transform="translate(83.789062 0)"/>
       <use xlink:href="#DejaVuSerif-31" transform="translate(147.412109 0)"/>
       <use xlink:href="#DejaVuSerif-35" transform="translate(211.035156 0)"/>
       <use xlink:href="#DejaVuSerif-2e" transform="translate(274.658203 0)"/>
       <use xlink:href="#DejaVuSerif-30" transform="translate(306.445312 0)"/>
      </g>
     </g>
    </g>
    <g id="text_18">
     <!-- Power Spectral Density (dB) -->
     <g transform="translate(15.558281 296.263984) rotate(-90) scale(0.11 -0.11)">
      <defs>
       <path id="DejaVuSerif-50" d="M 1581 2375 
L 2406 2375 
Q 2872 2375 3115 2626 
Q 3359 2878 3359 3353 
Q 3359 3831 3115 4081 
Q 2872 4331 2406 4331 
L 1581 4331 
L 1581 2375 
z
M 353 0 
L 353 331 
L 947 331 
L 947 4331 
L 353 4331 
L 353 4666 
L 2559 4666 
Q 3259 4666 3668 4311 
Q 4078 3956 4078 3353 
Q 4078 2753 3668 2397 
Q 3259 2041 2559 2041 
L 1581 2041 
L 1581 331 
L 2303 331 
L 2303 0 
L 353 0 
z
" transform="scale(0.015625)"/>
       <path id="DejaVuSerif-6f" d="M 1925 219 
Q 2388 219 2623 584 
Q 2859 950 2859 1663 
Q 2859 2375 2623 2739 
Q 2388 3103 1925 3103 
Q 1463 3103 1227 2739 
Q 991 2375 991 1663 
Q 991 950 1228 584 
Q 1466 219 1925 219 
z
M 1925 -91 
Q 1200 -91 759 389 
Q 319 869 319 1663 
Q 319 2456 758 2934 
Q 1197 3413 1925 3413 
Q 2653 3413 3092 2934 
Q 3531 2456 3531 1663 
Q 3531 869 3092 389 
Q 2653 -91 1925 -91 
z
" transform="scale(0.015625)"/>
       <path id="DejaVuSerif-77" d="M 3072 3322 
L 3922 728 
L 4672 2988 
L 4191 2988 
L 4191 3322 
L 5394 3322 
L 5394 2988 
L 5025 2988 
L 4038 0 
L 3559 0 
L 2741 2484 
L 1919 0 
L 1459 0 
L 475 2988 
L 103 2988 
L 103 3322 
L 1606 3322 
L 1606 2988 
L 1069 2988 
L 1813 728 
L 2669 3322 
L 3072 3322 
z
" transform="scale(0.015625)"/>
       <path id="DejaVuSerif-53" d="M 594 225 
L 594 1288 
L 953 1284 
Q 969 753 1261 498 
Q 1553 244 2150 244 
Q 2706 244 2998 464 
Q 3291 684 3291 1106 
Q 3291 1444 3114 1625 
Q 2938 1806 2369 1978 
L 1753 2163 
Q 1084 2366 811 2669 
Q 538 2972 538 3500 
Q 538 4094 959 4422 
Q 1381 4750 2144 4750 
Q 2469 4750 2856 4679 
Q 3244 4609 3681 4475 
L 3681 3481 
L 3328 3481 
Q 3275 3975 2998 4195 
Q 2722 4416 2156 4416 
Q 1663 4416 1405 4214 
Q 1147 4013 1147 3628 
Q 1147 3294 1340 3103 
Q 1534 2913 2163 2725 
L 2741 2553 
Q 3375 2363 3645 2067 
Q 3916 1772 3916 1275 
Q 3916 597 3481 253 
Q 3047 -91 2188 -91 
Q 1803 -91 1404 -12 
Q 1006 66 594 225 
z
" transform="scale(0.015625)"/>
       <path id="DejaVuSerif-70" d="M 1313 1825 
L 1313 1497 
Q 1313 897 1542 583 
Q 1772 269 2209 269 
Q 2650 269 2876 622 
Q 3103 975 3103 1663 
Q 3103 2353 2876 2703 
Q 2650 3053 2209 3053 
Q 1772 3053 1542 2737 
Q 1313 2422 1313 1825 
z
M 738 2988 
L 184 2988 
L 184 3322 
L 1313 3322 
L 1313 2803 
Q 1481 3116 1742 3264 
Q 2003 3413 2388 3413 
Q 3000 3413 3387 2928 
Q 3775 2444 3775 1663 
Q 3775 881 3387 395 
Q 3000 -91 2388 -91 
Q 2003 -91 1742 57 
Q 1481 206 1313 519 
L 1313 -997 
L 1856 -997 
L 1856 -1331 
L 184 -1331 
L 184 -997 
L 738 -997 
L 738 2988 
z
" transform="scale(0.015625)"/>
       <path id="DejaVuSerif-74" d="M 691 2988 
L 184 2988 
L 184 3322 
L 691 3322 
L 691 4353 
L 1269 4353 
L 1269 3322 
L 2350 3322 
L 2350 2988 
L 1269 2988 
L 1269 878 
Q 1269 456 1350 337 
Q 1431 219 1650 219 
Q 1875 219 1978 351 
Q 2081 484 2088 781 
L 2522 781 
Q 2497 328 2275 118 
Q 2053 -91 1600 -91 
Q 1103 -91 897 129 
Q 691 350 691 878 
L 691 2988 
z
" transform="scale(0.015625)"/>
       <path id="DejaVuSerif-61" d="M 2547 1044 
L 2547 1747 
L 1806 1747 
Q 1378 1747 1168 1562 
Q 959 1378 959 997 
Q 959 650 1171 447 
Q 1384 244 1747 244 
Q 2106 244 2326 466 
Q 2547 688 2547 1044 
z
M 3122 2075 
L 3122 331 
L 3634 331 
L 3634 0 
L 2547 0 
L 2547 359 
Q 2356 128 2106 18 
Q 1856 -91 1522 -91 
Q 969 -91 644 203 
Q 319 497 319 997 
Q 319 1513 691 1797 
Q 1063 2081 1741 2081 
L 2547 2081 
L 2547 2309 
Q 2547 2688 2317 2895 
Q 2088 3103 1672 3103 
Q 1328 3103 1125 2947 
Q 922 2791 872 2484 
L 575 2484 
L 575 3156 
Q 875 3284 1158 3348 
Q 1441 3413 1709 3413 
Q 2400 3413 2761 3070 
Q 3122 2728 3122 2075 
z
" transform="scale(0.015625)"/>
       <path id="DejaVuSerif-6c" d="M 1313 331 
L 1856 331 
L 1856 0 
L 184 0 
L 184 331 
L 738 331 
L 738 4531 
L 184 4531 
L 184 4863 
L 1313 4863 
L 1313 331 
z
" transform="scale(0.015625)"/>
       <path id="DejaVuSerif-44" d="M 1581 331 
L 2163 331 
Q 3072 331 3558 850 
Q 4044 1369 4044 2338 
Q 4044 3306 3559 3818 
Q 3075 4331 2163 4331 
L 1581 4331 
L 1581 331 
z
M 353 0 
L 353 331 
L 947 331 
L 947 4331 
L 353 4331 
L 353 4666 
L 2209 4666 
Q 3416 4666 4089 4050 
Q 4763 3434 4763 2338 
Q 4763 1238 4088 619 
Q 3413 0 2209 0 
L 353 0 
z
" transform="scale(0.015625)"/>
       <path id="DejaVuSerif-73" d="M 359 184 
L 359 959 
L 691 959 
Q 703 588 923 403 
Q 1144 219 1575 219 
Q 1963 219 2166 364 
Q 2369 509 2369 788 
Q 2369 1006 2220 1140 
Q 2072 1275 1594 1428 
L 1178 1569 
Q 750 1706 558 1912 
Q 366 2119 366 2438 
Q 366 2894 700 3153 
Q 1034 3413 1625 3413 
Q 1888 3413 2178 3344 
Q 2469 3275 2778 3144 
L 2778 2419 
L 2447 2419 
Q 2434 2741 2221 2922 
Q 2009 3103 1644 3103 
Q 1281 3103 1095 2975 
Q 909 2847 909 2591 
Q 909 2381 1050 2254 
Q 1191 2128 1613 1997 
L 2069 1856 
Q 2541 1709 2748 1489 
Q 2956 1269 2956 922 
Q 2956 450 2595 179 
Q 2234 -91 1600 -91 
Q 1278 -91 972 -22 
Q 666 47 359 184 
z
" transform="scale(0.015625)"/>
       <path id="DejaVuSerif-69" d="M 622 4353 
Q 622 4497 726 4603 
Q 831 4709 978 4709 
Q 1122 4709 1226 4603 
Q 1331 4497 1331 4353 
Q 1331 4206 1228 4103 
Q 1125 4000 978 4000 
Q 831 4000 726 4103 
Q 622 4206 622 4353 
z
M 1356 331 
L 1900 331 
L 1900 0 
L 231 0 
L 231 331 
L 781 331 
L 781 2988 
L 231 2988 
L 231 3322 
L 1356 3322 
L 1356 331 
z
" transform="scale(0.015625)"/>
       <path id="DejaVuSerif-64" d="M 3359 331 
L 3909 331 
L 3909 0 
L 2784 0 
L 2784 519 
Q 2616 206 2355 57 
Q 2094 -91 1709 -91 
Q 1097 -91 708 395 
Q 319 881 319 1663 
Q 319 2444 706 2928 
Q 1094 3413 1709 3413 
Q 2094 3413 2355 3264 
Q 2616 3116 2784 2803 
L 2784 4531 
L 2241 4531 
L 2241 4863 
L 3359 4863 
L 3359 331 
z
M 2784 1497 
L 2784 1825 
Q 2784 2422 2554 2737 
Q 2325 3053 1888 3053 
Q 1444 3053 1217 2703 
Q 991 2353 991 1663 
Q 991 975 1217 622 
Q 1444 269 1888 269 
Q 2325 269 2554 583 
Q 2784 897 2784 1497 
z
" transform="scale(0.015625)"/>
       <path id="DejaVuSerif-42" d="M 1581 331 
L 2516 331 
Q 3078 331 3337 575 
Q 3597 819 3597 1350 
Q 3597 1878 3339 2120 
Q 3081 2363 2516 2363 
L 1581 2363 
L 1581 331 
z
M 1581 2694 
L 2375 2694 
Q 2888 2694 3123 2891 
Q 3359 3088 3359 3513 
Q 3359 3941 3123 4136 
Q 2888 4331 2375 4331 
L 1581 4331 
L 1581 2694 
z
M 353 0 
L 353 331 
L 947 331 
L 947 4331 
L 353 4331 
L 353 4666 
L 2656 4666 
Q 3363 4666 3720 4377 
Q 4078 4088 4078 3513 
Q 4078 3097 3829 2850 
Q 3581 2603 3103 2547 
Q 3697 2472 4005 2167 
Q 4313 1863 4313 1350 
Q 4313 656 3875 328 
Q 3438 0 2509 0 
L 353 0 
z
" transform="scale(0.015625)"/>
      </defs>
      <use xlink:href="#DejaVuSerif-50"/>
      <use xlink:href="#DejaVuSerif-6f" transform="translate(63.285156 0)"/>
      <use xlink:href="#DejaVuSerif-77" transform="translate(123.490234 0)"/>
      <use xlink:href="#DejaVuSerif-65" transform="translate(209.085938 0)"/>
      <use xlink:href="#DejaVuSerif-72" transform="translate(268.265625 0)"/>
      <use xlink:href="#DejaVuSerif-20" transform="translate(316.068359 0)"/>
      <use xlink:href="#DejaVuSerif-53" transform="translate(347.855469 0)"/>
      <use xlink:href="#DejaVuSerif-70" transform="translate(416.361328 0)"/>
      <use xlink:href="#DejaVuSerif-65" transform="translate(480.375 0)"/>
      <use xlink:href="#DejaVuSerif-63" transform="translate(539.554688 0)"/>
      <use xlink:href="#DejaVuSerif-74" transform="translate(595.560547 0)"/>
      <use xlink:href="#DejaVuSerif-72" transform="translate(635.746094 0)"/>
      <use xlink:href="#DejaVuSerif-61" transform="translate(683.548828 0)"/>
      <use xlink:href="#DejaVuSerif-6c" transform="translate(743.167969 0)"/>
      <use xlink:href="#DejaVuSerif-20" transform="translate(775.150391 0)"/>
      <use xlink:href="#DejaVuSerif-44" transform="translate(806.9375 0)"/>
      <use xlink:href="#DejaVuSerif-65" transform="translate(887.113281 0)"/>
      <use xlink:href="#DejaVuSerif-6e" transform="translate(946.292969 0)"/>
      <use xlink:href="#DejaVuSerif-73" transform="translate(1010.697266 0)"/>
      <use xlink:href="#DejaVuSerif-69" transform="translate(1062.015625 0)"/>
      <use xlink:href="#DejaVuSerif-74" transform="translate(1093.998047 0)"/>
      <use xlink:href="#DejaVuSerif-79" transform="translate(1134.183594 0)"/>
      <use xlink:href="#DejaVuSerif-20" transform="translate(1190.677734 0)"/>
      <use xlink:href="#DejaVuSerif-28" transform="translate(1222.464844 0)"/>
      <use xlink:href="#DejaVuSerif-64" transform="translate(1261.478516 0)"/>
      <use xlink:href="#DejaVuSerif-42" transform="translate(1325.492188 0)"/>
      <use xlink:href="#DejaVuSerif-29" transform="translate(1398.978516 0)"/>
     </g>
    </g>
   </g>
   <g id="line2d_33">
    <path d="M 92.745739 183.908761 
L 101.200284 192.894162 
L 109.65483 201.097247 
L 118.109375 209.808629 
L 126.56392 213.039907 
L 135.018466 212.571273 
L 143.473011 212.306313 
L 151.927557 208.151501 
L 160.382102 193.743729 
L 168.836648 166.961627 
L 177.291193 139.431202 
L 185.745739 121.172358 
L 194.200284 114.12306 
L 202.65483 118.161838 
L 211.109375 132.76001 
L 219.56392 153.539046 
L 228.018466 176.416866 
L 236.473011 199.147931 
L 244.927557 215.985432 
L 253.382102 221.768004 
L 261.836648 221.881469 
L 270.291193 217.667803 
L 278.745739 215.648308 
L 287.200284 224.465607 
L 295.65483 236.53911 
L 304.109375 243.701182 
L 312.56392 249.051174 
L 321.018466 251.695037 
L 329.473011 246.079278 
L 337.927557 237.878939 
L 346.382102 233.533379 
L 354.836648 232.552501 
L 363.291193 236.589479 
L 371.745739 241.220949 
L 380.200284 244.204263 
L 388.65483 250.20493 
L 397.109375 254.208717 
L 405.56392 250.577187 
L 414.018466 246.313262 
L 422.473011 250.318338 
L 430.927557 261.79176 
L 439.382102 271.684169 
L 447.836648 273.186231 
L 456.291193 275.21786 
L 464.745739 280.756814 
L 473.200284 281.212499 
L 481.65483 280.234139 
L 490.109375 283.209365 
L 498.56392 289.752368 
L 507.018466 295.517865 
L 515.473011 299.365159 
L 523.927557 303.07286 
L 532.382102 304.870124 
L 540.836648 302.252496 
L 549.291193 297.558587 
L 557.745739 297.211857 
L 566.200284 301.17183 
L 574.65483 301.564516 
L 583.109375 298.460668 
L 591.56392 297.718111 
L 600.018466 298.721758 
L 608.473011 295.678667 
L 616.927557 289.286441 
L 625.382102 288.190932 
L 633.836648 295.798099 
L 642.291193 302.409901 
L 650.745739 302.045727 
L 659.200284 301.195937 
L 667.65483 302.257711 
L 676.109375 305.309533 
L 684.56392 309.56845 
L 693.018466 312.457148 
L 701.473011 311.936209 
" clip-path="url(#p5501f2a35a)" style="fill: none; stroke: #1f77b4; stroke-width: 1.5; stroke-linecap: square"/>
   </g>
   <g id="line2d_34">
    <path d="M 92.745739 188.034489 
L 101.200284 195.109048 
L 109.65483 198.511162 
L 118.109375 199.376488 
L 126.56392 200.421877 
L 135.018466 201.562604 
L 143.473011 199.583732 
L 151.927557 191.533295 
L 160.382102 177.091287 
L 168.836648 159.414954 
L 177.291193 142.237428 
L 185.745739 128.396234 
L 194.200284 120.758902 
L 202.65483 122.73228 
L 211.109375 134.330538 
L 219.56392 154.008943 
L 228.018466 179.701096 
L 236.473011 207.06357 
L 244.927557 228.478784 
L 253.382102 240.845189 
L 261.836648 249.679427 
L 270.291193 256.973332 
L 278.745739 262.951365 
L 287.200284 267.135954 
L 295.65483 269.075047 
L 304.109375 269.227586 
L 312.56392 268.388703 
L 321.018466 268.200342 
L 329.473011 269.596602 
L 337.927557 270.30883 
L 346.382102 269.282011 
L 354.836648 268.634987 
L 363.291193 270.412701 
L 371.745739 273.991294 
L 380.200284 277.742282 
L 388.65483 280.169601 
L 397.109375 280.980502 
L 405.56392 281.358385 
L 414.018466 282.539354 
L 422.473011 285.533163 
L 430.927557 290.506226 
L 439.382102 295.208584 
L 447.836648 298.229414 
L 456.291193 300.29024 
L 464.745739 302.660901 
L 473.200284 306.197426 
L 481.65483 311.078888 
L 490.109375 316.256116 
L 498.56392 320.779528 
L 507.018466 324.267586 
L 515.473011 326.682533 
L 523.927557 328.482102 
L 532.382102 329.338946 
L 540.836648 329.983091 
L 549.291193 331.544331 
L 557.745739 333.744364 
L 566.200284 336.588391 
L 574.65483 339.750427 
L 583.109375 342.081236 
L 591.56392 343.0592 
L 600.018466 343.074092 
L 608.473011 342.633528 
L 616.927557 342.595985 
L 625.382102 343.004837 
L 633.836648 343.943531 
L 642.291193 345.18505 
L 650.745739 346.535397 
L 659.200284 348.582924 
L 667.65483 350.235815 
L 676.109375 350.303284 
L 684.56392 350.194688 
L 693.018466 350.974877 
L 701.473011 352.059084 
" clip-path="url(#p5501f2a35a)" style="fill: none; stroke: #d62728; stroke-width: 1.5; stroke-linecap: square"/>
   </g>
   <g id="line2d_35">
    <path d="M 92.745739 184.326301 
L 101.200284 205.295813 
L 109.65483 224.810417 
L 118.109375 225.188201 
L 126.56392 218.522277 
L 135.018466 220.641852 
L 143.473011 222.951182 
L 151.927557 208.547784 
L 160.382102 186.296077 
L 168.836648 169.743486 
L 177.291193 159.811419 
L 185.745739 154.230199 
L 194.200284 152.774587 
L 202.65483 158.433629 
L 211.109375 171.96441 
L 219.56392 186.931619 
L 228.018466 198.20825 
L 236.473011 214.148578 
L 244.927557 238.08958 
L 253.382102 259.747048 
L 261.836648 273.745271 
L 270.291193 289.43797 
L 278.745739 304.689594 
L 287.200284 305.62662 
L 295.65483 298.173331 
L 304.109375 289.499422 
L 312.56392 278.258128 
L 321.018466 271.721635 
L 329.473011 273.56503 
L 337.927557 276.262346 
L 346.382102 273.871071 
L 354.836648 268.95822 
L 363.291193 262.627055 
L 371.745739 256.754916 
L 380.200284 255.918038 
L 388.65483 259.041019 
L 397.109375 260.513953 
L 405.56392 264.378804 
L 414.018466 274.714543 
L 422.473011 284.860279 
L 430.927557 290.353518 
L 439.382102 295.168349 
L 447.836648 297.50592 
L 456.291193 298.395311 
L 464.745739 302.726431 
L 473.200284 311.258328 
L 481.65483 318.164845 
L 490.109375 321.330879 
L 498.56392 323.287188 
L 507.018466 326.398514 
L 515.473011 332.759399 
L 523.927557 339.94201 
L 532.382102 345.162026 
L 540.836648 345.258121 
L 549.291193 343.819648 
L 557.745739 344.969358 
L 566.200284 347.340857 
L 574.65483 351.907947 
L 583.109375 357.926786 
L 591.56392 360.064536 
L 600.018466 359.191142 
L 608.473011 356.188417 
L 616.927557 351.218031 
L 625.382102 346.93678 
L 633.836648 345.656035 
L 642.291193 347.199288 
L 650.745739 351.943408 
L 659.200284 356.90848 
L 667.65483 358.247495 
L 676.109375 359.335536 
L 684.56392 362.292416 
L 693.018466 366.000895 
L 701.473011 369.041024 
" clip-path="url(#p5501f2a35a)" style="fill: none; stroke: #e377c2; stroke-width: 1.5; stroke-linecap: square"/>
   </g>
   <g id="line2d_36">
    <path d="M 92.745739 162.14665 
L 101.200284 170.467902 
L 109.65483 174.051548 
L 118.109375 172.240167 
L 126.56392 164.12309 
L 135.018466 148.111634 
L 143.473011 135.734704 
L 151.927557 122.724699 
L 160.382102 101.453626 
L 168.836648 75.593116 
L 177.291193 51.461998 
L 185.745739 40.774844 
L 194.200284 53.598183 
L 202.65483 90.006578 
L 211.109375 137.198292 
L 219.56392 172.383576 
L 228.018466 192.23382 
L 236.473011 210.961656 
L 244.927557 228.018737 
L 253.382102 238.026252 
L 261.836648 243.205383 
L 270.291193 249.435221 
L 278.745739 256.684467 
L 287.200284 260.189372 
L 295.65483 259.533339 
L 304.109375 261.787779 
L 312.56392 264.957217 
L 321.018466 256.28356 
L 329.473011 240.033119 
L 337.927557 231.684162 
L 346.382102 235.750935 
L 354.836648 246.114225 
L 363.291193 254.492247 
L 371.745739 258.515563 
L 380.200284 264.639653 
L 388.65483 272.433643 
L 397.109375 277.285474 
L 405.56392 278.107643 
L 414.018466 278.321279 
L 422.473011 280.41006 
L 430.927557 286.650447 
L 439.382102 296.518216 
L 447.836648 308.139313 
L 456.291193 318.335782 
L 464.745739 322.906447 
L 473.200284 321.405309 
L 481.65483 319.089359 
L 490.109375 324.846473 
L 498.56392 334.655272 
L 507.018466 338.128456 
L 515.473011 342.89 
L 523.927557 352.142676 
L 532.382102 355.751052 
L 540.836648 352.503925 
L 549.291193 349.517854 
L 557.745739 348.637438 
L 566.200284 350.81059 
L 574.65483 354.368472 
L 583.109375 355.443664 
L 591.56392 358.62402 
L 600.018466 364.834225 
L 608.473011 368.268566 
L 616.927557 367.96373 
L 625.382102 364.522032 
L 633.836648 358.580804 
L 642.291193 353.911017 
L 650.745739 354.412558 
L 659.200284 355.695606 
L 667.65483 354.303817 
L 676.109375 354.485129 
L 684.56392 357.240231 
L 693.018466 360.399472 
L 701.473011 366.512192 
" clip-path="url(#p5501f2a35a)" style="fill: none; stroke: #17becf; stroke-width: 1.5; stroke-linecap: square"/>
   </g>
   <g id="patch_3">
    <path d="M 62.309375 411.214844 
L 62.309375 23.134844 
" style="fill: none; stroke: #333333; stroke-linejoin: miter; stroke-linecap: square"/>
   </g>
   <g id="patch_4">
    <path d="M 62.309375 411.214844 
L 731.909375 411.214844 
" style="fill: none; stroke: #333333; stroke-linejoin: miter; stroke-linecap: square"/>
   </g>
   <g id="text_19">
    <!-- Dataset: Touryan et al. (2022) | Subject: 19 | Session: 2 | All Task-State PSDs -->
    <g transform="translate(143.655078 17.134844) scale(0.13 -0.13)">
     <defs>
      <path id="DejaVuSerif-3a" d="M 666 325 
Q 666 500 786 622 
Q 906 744 1081 744 
Q 1256 744 1376 622 
Q 1497 500 1497 325 
Q 1497 150 1378 29 
Q 1259 -91 1081 -91 
Q 903 -91 784 29 
Q 666 150 666 325 
z
M 666 2363 
Q 666 2538 786 2658 
Q 906 2778 1081 2778 
Q 1259 2778 1378 2659 
Q 1497 2541 1497 2363 
Q 1497 2184 1378 2065 
Q 1259 1947 1081 1947 
Q 906 1947 786 2067 
Q 666 2188 666 2363 
z
" transform="scale(0.015625)"/>
      <path id="DejaVuSerif-54" d="M 1222 0 
L 1222 331 
L 1819 331 
L 1819 4294 
L 447 4294 
L 447 3566 
L 63 3566 
L 63 4666 
L 4206 4666 
L 4206 3566 
L 3822 3566 
L 3822 4294 
L 2450 4294 
L 2450 331 
L 3047 331 
L 3047 0 
L 1222 0 
z
" transform="scale(0.015625)"/>
      <path id="DejaVuSerif-7c" d="M 1331 4891 
L 1331 -1509 
L 825 -1509 
L 825 4891 
L 1331 4891 
z
" transform="scale(0.015625)"/>
      <path id="DejaVuSerif-62" d="M 738 331 
L 738 4531 
L 184 4531 
L 184 4863 
L 1313 4863 
L 1313 2803 
Q 1481 3116 1742 3264 
Q 2003 3413 2388 3413 
Q 3000 3413 3387 2928 
Q 3775 2444 3775 1663 
Q 3775 881 3387 395 
Q 3000 -91 2388 -91 
Q 2003 -91 1742 57 
Q 1481 206 1313 519 
L 1313 0 
L 184 0 
L 184 331 
L 738 331 
z
M 1313 1497 
Q 1313 897 1542 583 
Q 1772 269 2209 269 
Q 2650 269 2876 622 
Q 3103 975 3103 1663 
Q 3103 2353 2876 2703 
Q 2650 3053 2209 3053 
Q 1772 3053 1542 2737 
Q 1313 2422 1313 1825 
L 1313 1497 
z
" transform="scale(0.015625)"/>
      <path id="DejaVuSerif-6a" d="M 641 4353 
Q 641 4497 745 4603 
Q 850 4709 997 4709 
Q 1141 4709 1245 4603 
Q 1350 4497 1350 4353 
Q 1350 4206 1248 4103 
Q 1147 4000 997 4000 
Q 850 4000 745 4103 
Q 641 4206 641 4353 
z
M 781 2988 
L 238 2988 
L 238 3322 
L 1356 3322 
L 1356 -325 
Q 1356 -838 1051 -1130 
Q 747 -1422 213 -1422 
Q -13 -1422 -217 -1370 
Q -422 -1319 -616 -1216 
L -616 -531 
L -319 -531 
Q -297 -831 -164 -972 
Q -31 -1113 225 -1113 
Q 509 -1113 645 -920 
Q 781 -728 781 -325 
L 781 2988 
z
" transform="scale(0.015625)"/>
      <path id="DejaVuSerif-39" d="M 2994 2091 
Q 2784 1856 2512 1740 
Q 2241 1625 1900 1625 
Q 1206 1625 804 2044 
Q 403 2463 403 3188 
Q 403 3897 839 4323 
Q 1275 4750 2003 4750 
Q 2794 4750 3217 4161 
Q 3641 3572 3641 2478 
Q 3641 1253 3137 581 
Q 2634 -91 1722 -91 
Q 1475 -91 1203 -44 
Q 931 3 647 97 
L 647 872 
L 997 872 
Q 1038 556 1241 387 
Q 1444 219 1784 219 
Q 2391 219 2687 676 
Q 2984 1134 2994 2091 
z
M 1978 4441 
Q 1534 4441 1298 4117 
Q 1063 3794 1063 3188 
Q 1063 2581 1298 2256 
Q 1534 1931 1978 1931 
Q 2422 1931 2658 2245 
Q 2894 2559 2894 3150 
Q 2894 3772 2656 4106 
Q 2419 4441 1978 4441 
z
" transform="scale(0.015625)"/>
      <path id="DejaVuSerif-41" d="M 1281 1691 
L 2994 1691 
L 2138 3909 
L 1281 1691 
z
M -38 0 
L -38 331 
L 372 331 
L 2034 4666 
L 2559 4666 
L 4225 331 
L 4684 331 
L 4684 0 
L 2988 0 
L 2988 331 
L 3506 331 
L 3116 1356 
L 1153 1356 
L 763 331 
L 1275 331 
L 1275 0 
L -38 0 
z
" transform="scale(0.015625)"/>
      <path id="DejaVuSerif-6b" d="M 1831 0 
L 219 0 
L 219 331 
L 738 331 
L 738 4531 
L 184 4531 
L 184 4863 
L 1313 4863 
L 1313 1697 
L 2713 2988 
L 2234 2988 
L 2234 3322 
L 3738 3322 
L 3738 2988 
L 3169 2988 
L 2181 2075 
L 3444 331 
L 3922 331 
L 3922 0 
L 2284 0 
L 2284 331 
L 2759 331 
L 1766 1697 
L 1313 1275 
L 1313 331 
L 1831 331 
L 1831 0 
z
" transform="scale(0.015625)"/>
      <path id="DejaVuSerif-2d" d="M 281 1959 
L 1881 1959 
L 1881 1472 
L 281 1472 
L 281 1959 
z
" transform="scale(0.015625)"/>
     </defs>
     <use xlink:href="#DejaVuSerif-44"/>
     <use xlink:href="#DejaVuSerif-61" transform="translate(80.175781 0)"/>
     <use xlink:href="#DejaVuSerif-74" transform="translate(139.794922 0)"/>
     <use xlink:href="#DejaVuSerif-61" transform="translate(179.980469 0)"/>
     <use xlink:href="#DejaVuSerif-73" transform="translate(239.599609 0)"/>
     <use xlink:href="#DejaVuSerif-65" transform="translate(290.917969 0)"/>
     <use xlink:href="#DejaVuSerif-74" transform="translate(350.097656 0)"/>
     <use xlink:href="#DejaVuSerif-3a" transform="translate(390.283203 0)"/>
     <use xlink:href="#DejaVuSerif-20" transform="translate(423.974609 0)"/>
     <use xlink:href="#DejaVuSerif-54" transform="translate(455.761719 0)"/>
     <use xlink:href="#DejaVuSerif-6f" transform="translate(514.710938 0)"/>
     <use xlink:href="#DejaVuSerif-75" transform="translate(574.916016 0)"/>
     <use xlink:href="#DejaVuSerif-72" transform="translate(639.320312 0)"/>
     <use xlink:href="#DejaVuSerif-79" transform="translate(687.123047 0)"/>
     <use xlink:href="#DejaVuSerif-61" transform="translate(743.617188 0)"/>
     <use xlink:href="#DejaVuSerif-6e" transform="translate(803.236328 0)"/>
     <use xlink:href="#DejaVuSerif-20" transform="translate(867.640625 0)"/>
     <use xlink:href="#DejaVuSerif-65" transform="translate(899.427734 0)"/>
     <use xlink:href="#DejaVuSerif-74" transform="translate(958.607422 0)"/>
     <use xlink:href="#DejaVuSerif-20" transform="translate(998.792969 0)"/>
     <use xlink:href="#DejaVuSerif-61" transform="translate(1030.580078 0)"/>
     <use xlink:href="#DejaVuSerif-6c" transform="translate(1090.199219 0)"/>
     <use xlink:href="#DejaVuSerif-2e" transform="translate(1122.181641 0)"/>
     <use xlink:href="#DejaVuSerif-20" transform="translate(1153.96875 0)"/>
     <use xlink:href="#DejaVuSerif-28" transform="translate(1185.755859 0)"/>
     <use xlink:href="#DejaVuSerif-32" transform="translate(1224.769531 0)"/>
     <use xlink:href="#DejaVuSerif-30" transform="translate(1288.392578 0)"/>
     <use xlink:href="#DejaVuSerif-32" transform="translate(1352.015625 0)"/>
     <use xlink:href="#DejaVuSerif-32" transform="translate(1415.638672 0)"/>
     <use xlink:href="#DejaVuSerif-29" transform="translate(1479.261719 0)"/>
     <use xlink:href="#DejaVuSerif-20" transform="translate(1518.275391 0)"/>
     <use xlink:href="#DejaVuSerif-7c" transform="translate(1550.0625 0)"/>
     <use xlink:href="#DejaVuSerif-20" transform="translate(1583.753906 0)"/>
     <use xlink:href="#DejaVuSerif-53" transform="translate(1615.541016 0)"/>
     <use xlink:href="#DejaVuSerif-75" transform="translate(1684.046875 0)"/>
     <use xlink:href="#DejaVuSerif-62" transform="translate(1748.451172 0)"/>
     <use xlink:href="#DejaVuSerif-6a" transform="translate(1812.464844 0)"/>
     <use xlink:href="#DejaVuSerif-65" transform="translate(1843.470703 0)"/>
     <use xlink:href="#DejaVuSerif-63" transform="translate(1902.650391 0)"/>
     <use xlink:href="#DejaVuSerif-74" transform="translate(1958.65625 0)"/>
     <use xlink:href="#DejaVuSerif-3a" transform="translate(1998.841797 0)"/>
     <use xlink:href="#DejaVuSerif-20" transform="translate(2032.533203 0)"/>
     <use xlink:href="#DejaVuSerif-31" transform="translate(2064.320312 0)"/>
     <use xlink:href="#DejaVuSerif-39" transform="translate(2127.943359 0)"/>
     <use xlink:href="#DejaVuSerif-20" transform="translate(2191.566406 0)"/>
     <use xlink:href="#DejaVuSerif-7c" transform="translate(2223.353516 0)"/>
     <use xlink:href="#DejaVuSerif-20" transform="translate(2257.044922 0)"/>
     <use xlink:href="#DejaVuSerif-53" transform="translate(2288.832031 0)"/>
     <use xlink:href="#DejaVuSerif-65" transform="translate(2357.337891 0)"/>
     <use xlink:href="#DejaVuSerif-73" transform="translate(2416.517578 0)"/>
     <use xlink:href="#DejaVuSerif-73" transform="translate(2467.835938 0)"/>
     <use xlink:href="#DejaVuSerif-69" transform="translate(2519.154297 0)"/>
     <use xlink:href="#DejaVuSerif-6f" transform="translate(2551.136719 0)"/>
     <use xlink:href="#DejaVuSerif-6e" transform="translate(2611.341797 0)"/>
     <use xlink:href="#DejaVuSerif-3a" transform="translate(2675.746094 0)"/>
     <use xlink:href="#DejaVuSerif-20" transform="translate(2709.4375 0)"/>
     <use xlink:href="#DejaVuSerif-32" transform="translate(2741.224609 0)"/>
     <use xlink:href="#DejaVuSerif-20" transform="translate(2804.847656 0)"/>
     <use xlink:href="#DejaVuSerif-7c" transform="translate(2836.634766 0)"/>
     <use xlink:href="#DejaVuSerif-20" transform="translate(2870.326172 0)"/>
     <use xlink:href="#DejaVuSerif-41" transform="translate(2902.113281 0)"/>
     <use xlink:href="#DejaVuSerif-6c" transform="translate(2974.330078 0)"/>
     <use xlink:href="#DejaVuSerif-6c" transform="translate(3006.3125 0)"/>
     <use xlink:href="#DejaVuSerif-20" transform="translate(3038.294922 0)"/>
     <use xlink:href="#DejaVuSerif-54" transform="translate(3070.082031 0)"/>
     <use xlink:href="#DejaVuSerif-61" transform="translate(3129.03125 0)"/>
     <use xlink:href="#DejaVuSerif-73" transform="translate(3188.650391 0)"/>
     <use xlink:href="#DejaVuSerif-6b" transform="translate(3239.96875 0)"/>
     <use xlink:href="#DejaVuSerif-2d" transform="translate(3298.814453 0)"/>
     <use xlink:href="#DejaVuSerif-53" transform="translate(3332.603516 0)"/>
     <use xlink:href="#DejaVuSerif-74" transform="translate(3401.109375 0)"/>
     <use xlink:href="#DejaVuSerif-61" transform="translate(3441.294922 0)"/>
     <use xlink:href="#DejaVuSerif-74" transform="translate(3500.914062 0)"/>
     <use xlink:href="#DejaVuSerif-65" transform="translate(3541.099609 0)"/>
     <use xlink:href="#DejaVuSerif-20" transform="translate(3600.279297 0)"/>
     <use xlink:href="#DejaVuSerif-50" transform="translate(3632.066406 0)"/>
     <use xlink:href="#DejaVuSerif-53" transform="translate(3699.351562 0)"/>
     <use xlink:href="#DejaVuSerif-44" transform="translate(3767.857422 0)"/>
     <use xlink:href="#DejaVuSerif-73" transform="translate(3848.033203 0)"/>
    </g>
   </g>
   <g id="legend_1">
    <g id="line2d_37">
     <path d="M 581.782813 36.233281 
L 591.782813 36.233281 
L 601.782813 36.233281 
" style="fill: none; stroke: #1f77b4; stroke-width: 1.5; stroke-linecap: square"/>
    </g>
    <g id="text_20">
     <!-- police_detection - MW -->
     <g transform="translate(609.782813 39.733281) scale(0.1 -0.1)">
      <defs>
       <path id="DejaVuSerif-5f" d="M 3200 -1259 
L 3200 -1509 
L 0 -1509 
L 0 -1259 
L 3200 -1259 
z
" transform="scale(0.015625)"/>
       <path id="DejaVuSerif-4d" d="M 353 0 
L 353 331 
L 947 331 
L 947 4331 
L 319 4331 
L 319 4666 
L 1678 4666 
L 3316 1344 
L 4953 4666 
L 6228 4666 
L 6228 4331 
L 5606 4331 
L 5606 331 
L 6203 331 
L 6203 0 
L 4378 0 
L 4378 331 
L 4972 331 
L 4972 3938 
L 3372 684 
L 2931 684 
L 1331 3938 
L 1331 331 
L 1925 331 
L 1925 0 
L 353 0 
z
" transform="scale(0.015625)"/>
       <path id="DejaVuSerif-57" d="M 4878 0 
L 4366 0 
L 3297 3794 
L 2228 0 
L 1716 0 
L 494 4331 
L 31 4331 
L 31 4666 
L 1734 4666 
L 1734 4331 
L 1153 4331 
L 2125 884 
L 3188 4666 
L 3694 4666 
L 4775 844 
L 5753 4331 
L 5216 4331 
L 5216 4666 
L 6559 4666 
L 6559 4331 
L 6100 4331 
L 4878 0 
z
" transform="scale(0.015625)"/>
      </defs>
      <use xlink:href="#DejaVuSerif-70"/>
      <use xlink:href="#DejaVuSerif-6f" transform="translate(64.013672 0)"/>
      <use xlink:href="#DejaVuSerif-6c" transform="translate(124.21875 0)"/>
      <use xlink:href="#DejaVuSerif-69" transform="translate(156.201172 0)"/>
      <use xlink:href="#DejaVuSerif-63" transform="translate(188.183594 0)"/>
      <use xlink:href="#DejaVuSerif-65" transform="translate(244.189453 0)"/>
      <use xlink:href="#DejaVuSerif-5f" transform="translate(303.369141 0)"/>
      <use xlink:href="#DejaVuSerif-64" transform="translate(353.369141 0)"/>
      <use xlink:href="#DejaVuSerif-65" transform="translate(417.382812 0)"/>
      <use xlink:href="#DejaVuSerif-74" transform="translate(476.5625 0)"/>
      <use xlink:href="#DejaVuSerif-65" transform="translate(516.748047 0)"/>
      <use xlink:href="#DejaVuSerif-63" transform="translate(575.927734 0)"/>
      <use xlink:href="#DejaVuSerif-74" transform="translate(631.933594 0)"/>
      <use xlink:href="#DejaVuSerif-69" transform="translate(672.119141 0)"/>
      <use xlink:href="#DejaVuSerif-6f" transform="translate(704.101562 0)"/>
      <use xlink:href="#DejaVuSerif-6e" transform="translate(764.306641 0)"/>
      <use xlink:href="#DejaVuSerif-20" transform="translate(828.710938 0)"/>
      <use xlink:href="#DejaVuSerif-2d" transform="translate(860.498047 0)"/>
      <use xlink:href="#DejaVuSerif-20" transform="translate(894.287109 0)"/>
      <use xlink:href="#DejaVuSerif-4d" transform="translate(926.074219 0)"/>
      <use xlink:href="#DejaVuSerif-57" transform="translate(1028.466797 0)"/>
     </g>
    </g>
    <g id="line2d_38">
     <path d="M 581.782813 51.189531 
L 591.782813 51.189531 
L 601.782813 51.189531 
" style="fill: none; stroke: #d62728; stroke-width: 1.5; stroke-linecap: square"/>
    </g>
    <g id="text_21">
     <!-- police_detection - OT -->
     <g transform="translate(609.782813 54.689531) scale(0.1 -0.1)">
      <defs>
       <path id="DejaVuSerif-4f" d="M 2625 244 
Q 3391 244 3781 770 
Q 4172 1297 4172 2328 
Q 4172 3363 3781 3889 
Q 3391 4416 2625 4416 
Q 1856 4416 1465 3889 
Q 1075 3363 1075 2328 
Q 1075 1297 1465 770 
Q 1856 244 2625 244 
z
M 2625 -91 
Q 2150 -91 1751 65 
Q 1353 222 1050 525 
Q 700 875 529 1319 
Q 359 1763 359 2328 
Q 359 2894 529 3339 
Q 700 3784 1050 4134 
Q 1356 4441 1750 4595 
Q 2144 4750 2625 4750 
Q 3641 4750 4266 4084 
Q 4891 3419 4891 2328 
Q 4891 1769 4719 1320 
Q 4547 872 4197 525 
Q 3891 219 3497 64 
Q 3103 -91 2625 -91 
z
" transform="scale(0.015625)"/>
      </defs>
      <use xlink:href="#DejaVuSerif-70"/>
      <use xlink:href="#DejaVuSerif-6f" transform="translate(64.013672 0)"/>
      <use xlink:href="#DejaVuSerif-6c" transform="translate(124.21875 0)"/>
      <use xlink:href="#DejaVuSerif-69" transform="translate(156.201172 0)"/>
      <use xlink:href="#DejaVuSerif-63" transform="translate(188.183594 0)"/>
      <use xlink:href="#DejaVuSerif-65" transform="translate(244.189453 0)"/>
      <use xlink:href="#DejaVuSerif-5f" transform="translate(303.369141 0)"/>
      <use xlink:href="#DejaVuSerif-64" transform="translate(353.369141 0)"/>
      <use xlink:href="#DejaVuSerif-65" transform="translate(417.382812 0)"/>
      <use xlink:href="#DejaVuSerif-74" transform="translate(476.5625 0)"/>
      <use xlink:href="#DejaVuSerif-65" transform="translate(516.748047 0)"/>
      <use xlink:href="#DejaVuSerif-63" transform="translate(575.927734 0)"/>
      <use xlink:href="#DejaVuSerif-74" transform="translate(631.933594 0)"/>
      <use xlink:href="#DejaVuSerif-69" transform="translate(672.119141 0)"/>
      <use xlink:href="#DejaVuSerif-6f" transform="translate(704.101562 0)"/>
      <use xlink:href="#DejaVuSerif-6e" transform="translate(764.306641 0)"/>
      <use xlink:href="#DejaVuSerif-20" transform="translate(828.710938 0)"/>
      <use xlink:href="#DejaVuSerif-2d" transform="translate(860.498047 0)"/>
      <use xlink:href="#DejaVuSerif-20" transform="translate(894.287109 0)"/>
      <use xlink:href="#DejaVuSerif-4f" transform="translate(926.074219 0)"/>
      <use xlink:href="#DejaVuSerif-54" transform="translate(1008.056641 0)"/>
     </g>
    </g>
    <g id="line2d_39">
     <path d="M 581.782813 66.145781 
L 591.782813 66.145781 
L 601.782813 66.145781 
" style="fill: none; stroke: #e377c2; stroke-width: 1.5; stroke-linecap: square"/>
    </g>
    <g id="text_22">
     <!-- collision - MW -->
     <g transform="translate(609.782813 69.645781) scale(0.1 -0.1)">
      <use xlink:href="#DejaVuSerif-63"/>
      <use xlink:href="#DejaVuSerif-6f" transform="translate(56.005859 0)"/>
      <use xlink:href="#DejaVuSerif-6c" transform="translate(116.210938 0)"/>
      <use xlink:href="#DejaVuSerif-6c" transform="translate(148.193359 0)"/>
      <use xlink:href="#DejaVuSerif-69" transform="translate(180.175781 0)"/>
      <use xlink:href="#DejaVuSerif-73" transform="translate(212.158203 0)"/>
      <use xlink:href="#DejaVuSerif-69" transform="translate(263.476562 0)"/>
      <use xlink:href="#DejaVuSerif-6f" transform="translate(295.458984 0)"/>
      <use xlink:href="#DejaVuSerif-6e" transform="translate(355.664062 0)"/>
      <use xlink:href="#DejaVuSerif-20" transform="translate(420.068359 0)"/>
      <use xlink:href="#DejaVuSerif-2d" transform="translate(451.855469 0)"/>
      <use xlink:href="#DejaVuSerif-20" transform="translate(485.644531 0)"/>
      <use xlink:href="#DejaVuSerif-4d" transform="translate(517.431641 0)"/>
      <use xlink:href="#DejaVuSerif-57" transform="translate(619.824219 0)"/>
     </g>
    </g>
    <g id="line2d_40">
     <path d="M 581.782813 80.823906 
L 591.782813 80.823906 
L 601.782813 80.823906 
" style="fill: none; stroke: #17becf; stroke-width: 1.5; stroke-linecap: square"/>
    </g>
    <g id="text_23">
     <!-- collision - OT -->
     <g transform="translate(609.782813 84.323906) scale(0.1 -0.1)">
      <use xlink:href="#DejaVuSerif-63"/>
      <use xlink:href="#DejaVuSerif-6f" transform="translate(56.005859 0)"/>
      <use xlink:href="#DejaVuSerif-6c" transform="translate(116.210938 0)"/>
      <use xlink:href="#DejaVuSerif-6c" transform="translate(148.193359 0)"/>
      <use xlink:href="#DejaVuSerif-69" transform="translate(180.175781 0)"/>
      <use xlink:href="#DejaVuSerif-73" transform="translate(212.158203 0)"/>
      <use xlink:href="#DejaVuSerif-69" transform="translate(263.476562 0)"/>
      <use xlink:href="#DejaVuSerif-6f" transform="translate(295.458984 0)"/>
      <use xlink:href="#DejaVuSerif-6e" transform="translate(355.664062 0)"/>
      <use xlink:href="#DejaVuSerif-20" transform="translate(420.068359 0)"/>
      <use xlink:href="#DejaVuSerif-2d" transform="translate(451.855469 0)"/>
      <use xlink:href="#DejaVuSerif-20" transform="translate(485.644531 0)"/>
      <use xlink:href="#DejaVuSerif-4f" transform="translate(517.431641 0)"/>
      <use xlink:href="#DejaVuSerif-54" transform="translate(599.414062 0)"/>
     </g>
    </g>
   </g>
  </g>
 </g>
 <defs>
  <clipPath id="p5501f2a35a">
   <rect x="62.309375" y="23.134844" width="669.6" height="388.08"/>
  </clipPath>
 </defs>
</svg>
