<?xml version="1.0" encoding="utf-8" standalone="no"?>
<!DOCTYPE svg PUBLIC "-//W3C//DTD SVG 1.1//EN"
  "http://www.w3.org/Graphics/SVG/1.1/DTD/svg11.dtd">
<svg xmlns:xlink="http://www.w3.org/1999/xlink" width="711.14125pt" height="422.162969pt" viewBox="0 0 711.14125 422.162969" xmlns="http://www.w3.org/2000/svg" version="1.1">
 <metadata>
  <rdf:RDF xmlns:dc="http://purl.org/dc/elements/1.1/" xmlns:cc="http://creativecommons.org/ns#" xmlns:rdf="http://www.w3.org/1999/02/22-rdf-syntax-ns#">
   <cc:Work>
    <dc:type rdf:resource="http://purl.org/dc/dcmitype/StillImage"/>
    <dc:date>2025-05-30T20:50:36.439325</dc:date>
    <dc:format>image/svg+xml</dc:format>
    <dc:creator>
     <cc:Agent>
      <dc:title>Matplotlib v3.10.3, https://matplotlib.org/</dc:title>
     </cc:Agent>
    </dc:creator>
   </cc:Work>
  </rdf:RDF>
 </metadata>
 <defs>
  <style type="text/css">*{stroke-linejoin: round; stroke-linecap: butt}</style>
 </defs>
 <g id="figure_1">
  <g id="patch_1">
   <path d="M 0 422.162969 
L 711.14125 422.162969 
L 711.14125 0 
L 0 0 
z
" style="fill: #ffffff"/>
  </g>
  <g id="axes_1">
   <g id="patch_2">
    <path d="M 54.61125 384.606719 
L 703.94125 384.606719 
L 703.94125 23.077969 
L 54.61125 23.077969 
z
" style="fill: #ffffff"/>
   </g>
   <g id="patch_3">
    <path d="M 84.12625 384.606719 
L 149.715139 384.606719 
L 149.715139 353.706826 
L 84.12625 353.706826 
z
" clip-path="url(#p424ca1ed16)" style="fill: #1f77b4; fill-opacity: 0.6; stroke: #000000; stroke-linejoin: miter"/>
   </g>
   <g id="patch_4">
    <path d="M 149.715139 384.606719 
L 215.304028 384.606719 
L 215.304028 331.635473 
L 149.715139 331.635473 
z
" clip-path="url(#p424ca1ed16)" style="fill: #1f77b4; fill-opacity: 0.6; stroke: #000000; stroke-linejoin: miter"/>
   </g>
   <g id="patch_5">
    <path d="M 215.304028 384.606719 
L 280.892917 384.606719 
L 280.892917 331.635473 
L 215.304028 331.635473 
z
" clip-path="url(#p424ca1ed16)" style="fill: #1f77b4; fill-opacity: 0.6; stroke: #000000; stroke-linejoin: miter"/>
   </g>
   <g id="patch_6">
    <path d="M 280.892917 384.606719 
L 346.481806 384.606719 
L 346.481806 331.635473 
L 280.892917 331.635473 
z
" clip-path="url(#p424ca1ed16)" style="fill: #1f77b4; fill-opacity: 0.6; stroke: #000000; stroke-linejoin: miter"/>
   </g>
   <g id="patch_7">
    <path d="M 346.481806 384.606719 
L 412.070694 384.606719 
L 412.070694 322.806932 
L 346.481806 322.806932 
z
" clip-path="url(#p424ca1ed16)" style="fill: #1f77b4; fill-opacity: 0.6; stroke: #000000; stroke-linejoin: miter"/>
   </g>
   <g id="patch_8">
    <path d="M 412.070694 384.606719 
L 477.659583 384.606719 
L 477.659583 340.464014 
L 412.070694 340.464014 
z
" clip-path="url(#p424ca1ed16)" style="fill: #1f77b4; fill-opacity: 0.6; stroke: #000000; stroke-linejoin: miter"/>
   </g>
   <g id="patch_9">
    <path d="M 477.659583 384.606719 
L 543.248472 384.606719 
L 543.248472 256.592876 
L 477.659583 256.592876 
z
" clip-path="url(#p424ca1ed16)" style="fill: #1f77b4; fill-opacity: 0.6; stroke: #000000; stroke-linejoin: miter"/>
   </g>
   <g id="patch_10">
    <path d="M 543.248472 384.606719 
L 608.837361 384.606719 
L 608.837361 40.293624 
L 543.248472 40.293624 
z
" clip-path="url(#p424ca1ed16)" style="fill: #1f77b4; fill-opacity: 0.6; stroke: #000000; stroke-linejoin: miter"/>
   </g>
   <g id="patch_11">
    <path d="M 608.837361 384.606719 
L 674.42625 384.606719 
L 674.42625 252.178605 
L 608.837361 252.178605 
z
" clip-path="url(#p424ca1ed16)" style="fill: #1f77b4; fill-opacity: 0.6; stroke: #000000; stroke-linejoin: miter"/>
   </g>
   <g id="matplotlib.axis_1">
    <g id="xtick_1">
     <g id="line2d_1">
      <path d="M 98.414284 384.606719 
L 98.414284 23.077969 
" clip-path="url(#p424ca1ed16)" style="fill: none; stroke-dasharray: 2.96,1.28; stroke-dashoffset: 0; stroke: #dddddd; stroke-opacity: 0.3; stroke-width: 0.8"/>
     </g>
     <g id="line2d_2">
      <defs>
       <path id="m572065eb30" d="M 0 0 
L 0 3.5 
" style="stroke: #333333; stroke-width: 0.8"/>
      </defs>
      <g>
       <use xlink:href="#m572065eb30" x="98.414284" y="384.606719" style="fill: #333333; stroke: #333333; stroke-width: 0.8"/>
      </g>
     </g>
     <g id="text_1">
      <!-- −127.5 -->
      <g style="fill: #333333" transform="translate(81.760769 398.445312) scale(0.09 -0.09)">
       <defs>
        <path id="DejaVuSerif-2212" d="M 678 2259 
L 4684 2259 
L 4684 1753 
L 678 1753 
L 678 2259 
z
" transform="scale(0.015625)"/>
        <path id="DejaVuSerif-31" d="M 909 0 
L 909 331 
L 1722 331 
L 1722 4213 
L 781 3603 
L 781 4013 
L 1919 4750 
L 2350 4750 
L 2350 331 
L 3163 331 
L 3163 0 
L 909 0 
z
" transform="scale(0.015625)"/>
        <path id="DejaVuSerif-32" d="M 819 3553 
L 469 3553 
L 469 4384 
Q 803 4563 1142 4656 
Q 1481 4750 1806 4750 
Q 2534 4750 2956 4397 
Q 3378 4044 3378 3438 
Q 3378 2753 2422 1800 
Q 2347 1728 2309 1691 
L 1131 513 
L 3078 513 
L 3078 1088 
L 3444 1088 
L 3444 0 
L 434 0 
L 434 341 
L 1850 1753 
Q 2319 2222 2519 2614 
Q 2719 3006 2719 3438 
Q 2719 3909 2473 4175 
Q 2228 4441 1797 4441 
Q 1350 4441 1106 4219 
Q 863 3997 819 3553 
z
" transform="scale(0.015625)"/>
        <path id="DejaVuSerif-37" d="M 3609 4347 
L 1784 0 
L 1319 0 
L 3059 4153 
L 903 4153 
L 903 3578 
L 538 3578 
L 538 4666 
L 3609 4666 
L 3609 4347 
z
" transform="scale(0.015625)"/>
        <path id="DejaVuSerif-2e" d="M 603 325 
Q 603 500 722 622 
Q 841 744 1019 744 
Q 1191 744 1312 622 
Q 1434 500 1434 325 
Q 1434 153 1312 31 
Q 1191 -91 1019 -91 
Q 841 -91 722 29 
Q 603 150 603 325 
z
" transform="scale(0.015625)"/>
        <path id="DejaVuSerif-35" d="M 3219 4666 
L 3219 4153 
L 1081 4153 
L 1081 2816 
Q 1244 2928 1461 2984 
Q 1678 3041 1947 3041 
Q 2703 3041 3140 2622 
Q 3578 2203 3578 1478 
Q 3578 738 3136 323 
Q 2694 -91 1894 -91 
Q 1572 -91 1234 -12 
Q 897 66 544 225 
L 544 1131 
L 897 1131 
Q 925 688 1179 453 
Q 1434 219 1894 219 
Q 2388 219 2653 544 
Q 2919 869 2919 1478 
Q 2919 2084 2655 2407 
Q 2391 2731 1894 2731 
Q 1613 2731 1398 2631 
Q 1184 2531 1019 2322 
L 750 2322 
L 750 4666 
L 3219 4666 
z
" transform="scale(0.015625)"/>
       </defs>
       <use xlink:href="#DejaVuSerif-2212"/>
       <use xlink:href="#DejaVuSerif-31" transform="translate(83.789062 0)"/>
       <use xlink:href="#DejaVuSerif-32" transform="translate(147.412109 0)"/>
       <use xlink:href="#DejaVuSerif-37" transform="translate(211.035156 0)"/>
       <use xlink:href="#DejaVuSerif-2e" transform="translate(274.658203 0)"/>
       <use xlink:href="#DejaVuSerif-35" transform="translate(306.445312 0)"/>
      </g>
     </g>
    </g>
    <g id="xtick_2">
     <g id="line2d_3">
      <path d="M 185.524091 384.606719 
L 185.524091 23.077969 
" clip-path="url(#p424ca1ed16)" style="fill: none; stroke-dasharray: 2.96,1.28; stroke-dashoffset: 0; stroke: #dddddd; stroke-opacity: 0.3; stroke-width: 0.8"/>
     </g>
     <g id="line2d_4">
      <g>
       <use xlink:href="#m572065eb30" x="185.524091" y="384.606719" style="fill: #333333; stroke: #333333; stroke-width: 0.8"/>
      </g>
     </g>
     <g id="text_2">
      <!-- −125.0 -->
      <g style="fill: #333333" transform="translate(168.870575 398.445312) scale(0.09 -0.09)">
       <defs>
        <path id="DejaVuSerif-30" d="M 2034 219 
Q 2513 219 2750 744 
Q 2988 1269 2988 2328 
Q 2988 3391 2750 3916 
Q 2513 4441 2034 4441 
Q 1556 4441 1318 3916 
Q 1081 3391 1081 2328 
Q 1081 1269 1318 744 
Q 1556 219 2034 219 
z
M 2034 -91 
Q 1275 -91 848 546 
Q 422 1184 422 2328 
Q 422 3475 848 4112 
Q 1275 4750 2034 4750 
Q 2797 4750 3222 4112 
Q 3647 3475 3647 2328 
Q 3647 1184 3222 546 
Q 2797 -91 2034 -91 
z
" transform="scale(0.015625)"/>
       </defs>
       <use xlink:href="#DejaVuSerif-2212"/>
       <use xlink:href="#DejaVuSerif-31" transform="translate(83.789062 0)"/>
       <use xlink:href="#DejaVuSerif-32" transform="translate(147.412109 0)"/>
       <use xlink:href="#DejaVuSerif-35" transform="translate(211.035156 0)"/>
       <use xlink:href="#DejaVuSerif-2e" transform="translate(274.658203 0)"/>
       <use xlink:href="#DejaVuSerif-30" transform="translate(306.445312 0)"/>
      </g>
     </g>
    </g>
    <g id="xtick_3">
     <g id="line2d_5">
      <path d="M 272.633897 384.606719 
L 272.633897 23.077969 
" clip-path="url(#p424ca1ed16)" style="fill: none; stroke-dasharray: 2.96,1.28; stroke-dashoffset: 0; stroke: #dddddd; stroke-opacity: 0.3; stroke-width: 0.8"/>
     </g>
     <g id="line2d_6">
      <g>
       <use xlink:href="#m572065eb30" x="272.633897" y="384.606719" style="fill: #333333; stroke: #333333; stroke-width: 0.8"/>
      </g>
     </g>
     <g id="text_3">
      <!-- −122.5 -->
      <g style="fill: #333333" transform="translate(255.980382 398.445312) scale(0.09 -0.09)">
       <use xlink:href="#DejaVuSerif-2212"/>
       <use xlink:href="#DejaVuSerif-31" transform="translate(83.789062 0)"/>
       <use xlink:href="#DejaVuSerif-32" transform="translate(147.412109 0)"/>
       <use xlink:href="#DejaVuSerif-32" transform="translate(211.035156 0)"/>
       <use xlink:href="#DejaVuSerif-2e" transform="translate(274.658203 0)"/>
       <use xlink:href="#DejaVuSerif-35" transform="translate(306.445312 0)"/>
      </g>
     </g>
    </g>
    <g id="xtick_4">
     <g id="line2d_7">
      <path d="M 359.743704 384.606719 
L 359.743704 23.077969 
" clip-path="url(#p424ca1ed16)" style="fill: none; stroke-dasharray: 2.96,1.28; stroke-dashoffset: 0; stroke: #dddddd; stroke-opacity: 0.3; stroke-width: 0.8"/>
     </g>
     <g id="line2d_8">
      <g>
       <use xlink:href="#m572065eb30" x="359.743704" y="384.606719" style="fill: #333333; stroke: #333333; stroke-width: 0.8"/>
      </g>
     </g>
     <g id="text_4">
      <!-- −120.0 -->
      <g style="fill: #333333" transform="translate(343.090188 398.445312) scale(0.09 -0.09)">
       <use xlink:href="#DejaVuSerif-2212"/>
       <use xlink:href="#DejaVuSerif-31" transform="translate(83.789062 0)"/>
       <use xlink:href="#DejaVuSerif-32" transform="translate(147.412109 0)"/>
       <use xlink:href="#DejaVuSerif-30" transform="translate(211.035156 0)"/>
       <use xlink:href="#DejaVuSerif-2e" transform="translate(274.658203 0)"/>
       <use xlink:href="#DejaVuSerif-30" transform="translate(306.445312 0)"/>
      </g>
     </g>
    </g>
    <g id="xtick_5">
     <g id="line2d_9">
      <path d="M 446.85351 384.606719 
L 446.85351 23.077969 
" clip-path="url(#p424ca1ed16)" style="fill: none; stroke-dasharray: 2.96,1.28; stroke-dashoffset: 0; stroke: #dddddd; stroke-opacity: 0.3; stroke-width: 0.8"/>
     </g>
     <g id="line2d_10">
      <g>
       <use xlink:href="#m572065eb30" x="446.85351" y="384.606719" style="fill: #333333; stroke: #333333; stroke-width: 0.8"/>
      </g>
     </g>
     <g id="text_5">
      <!-- −117.5 -->
      <g style="fill: #333333" transform="translate(430.199994 398.445312) scale(0.09 -0.09)">
       <use xlink:href="#DejaVuSerif-2212"/>
       <use xlink:href="#DejaVuSerif-31" transform="translate(83.789062 0)"/>
       <use xlink:href="#DejaVuSerif-31" transform="translate(147.412109 0)"/>
       <use xlink:href="#DejaVuSerif-37" transform="translate(211.035156 0)"/>
       <use xlink:href="#DejaVuSerif-2e" transform="translate(274.658203 0)"/>
       <use xlink:href="#DejaVuSerif-35" transform="translate(306.445312 0)"/>
      </g>
     </g>
    </g>
    <g id="xtick_6">
     <g id="line2d_11">
      <path d="M 533.963316 384.606719 
L 533.963316 23.077969 
" clip-path="url(#p424ca1ed16)" style="fill: none; stroke-dasharray: 2.96,1.28; stroke-dashoffset: 0; stroke: #dddddd; stroke-opacity: 0.3; stroke-width: 0.8"/>
     </g>
     <g id="line2d_12">
      <g>
       <use xlink:href="#m572065eb30" x="533.963316" y="384.606719" style="fill: #333333; stroke: #333333; stroke-width: 0.8"/>
      </g>
     </g>
     <g id="text_6">
      <!-- −115.0 -->
      <g style="fill: #333333" transform="translate(517.309801 398.445312) scale(0.09 -0.09)">
       <use xlink:href="#DejaVuSerif-2212"/>
       <use xlink:href="#DejaVuSerif-31" transform="translate(83.789062 0)"/>
       <use xlink:href="#DejaVuSerif-31" transform="translate(147.412109 0)"/>
       <use xlink:href="#DejaVuSerif-35" transform="translate(211.035156 0)"/>
       <use xlink:href="#DejaVuSerif-2e" transform="translate(274.658203 0)"/>
       <use xlink:href="#DejaVuSerif-30" transform="translate(306.445312 0)"/>
      </g>
     </g>
    </g>
    <g id="xtick_7">
     <g id="line2d_13">
      <path d="M 621.073123 384.606719 
L 621.073123 23.077969 
" clip-path="url(#p424ca1ed16)" style="fill: none; stroke-dasharray: 2.96,1.28; stroke-dashoffset: 0; stroke: #dddddd; stroke-opacity: 0.3; stroke-width: 0.8"/>
     </g>
     <g id="line2d_14">
      <g>
       <use xlink:href="#m572065eb30" x="621.073123" y="384.606719" style="fill: #333333; stroke: #333333; stroke-width: 0.8"/>
      </g>
     </g>
     <g id="text_7">
      <!-- −112.5 -->
      <g style="fill: #333333" transform="translate(604.419607 398.445312) scale(0.09 -0.09)">
       <use xlink:href="#DejaVuSerif-2212"/>
       <use xlink:href="#DejaVuSerif-31" transform="translate(83.789062 0)"/>
       <use xlink:href="#DejaVuSerif-31" transform="translate(147.412109 0)"/>
       <use xlink:href="#DejaVuSerif-32" transform="translate(211.035156 0)"/>
       <use xlink:href="#DejaVuSerif-2e" transform="translate(274.658203 0)"/>
       <use xlink:href="#DejaVuSerif-35" transform="translate(306.445312 0)"/>
      </g>
     </g>
    </g>
    <g id="text_8">
     <!-- Band Power (dB) -->
     <g transform="translate(332.158437 412.675312) scale(0.11 -0.11)">
      <defs>
       <path id="DejaVuSerif-42" d="M 1581 331 
L 2516 331 
Q 3078 331 3337 575 
Q 3597 819 3597 1350 
Q 3597 1878 3339 2120 
Q 3081 2363 2516 2363 
L 1581 2363 
L 1581 331 
z
M 1581 2694 
L 2375 2694 
Q 2888 2694 3123 2891 
Q 3359 3088 3359 3513 
Q 3359 3941 3123 4136 
Q 2888 4331 2375 4331 
L 1581 4331 
L 1581 2694 
z
M 353 0 
L 353 331 
L 947 331 
L 947 4331 
L 353 4331 
L 353 4666 
L 2656 4666 
Q 3363 4666 3720 4377 
Q 4078 4088 4078 3513 
Q 4078 3097 3829 2850 
Q 3581 2603 3103 2547 
Q 3697 2472 4005 2167 
Q 4313 1863 4313 1350 
Q 4313 656 3875 328 
Q 3438 0 2509 0 
L 353 0 
z
" transform="scale(0.015625)"/>
       <path id="DejaVuSerif-61" d="M 2547 1044 
L 2547 1747 
L 1806 1747 
Q 1378 1747 1168 1562 
Q 959 1378 959 997 
Q 959 650 1171 447 
Q 1384 244 1747 244 
Q 2106 244 2326 466 
Q 2547 688 2547 1044 
z
M 3122 2075 
L 3122 331 
L 3634 331 
L 3634 0 
L 2547 0 
L 2547 359 
Q 2356 128 2106 18 
Q 1856 -91 1522 -91 
Q 969 -91 644 203 
Q 319 497 319 997 
Q 319 1513 691 1797 
Q 1063 2081 1741 2081 
L 2547 2081 
L 2547 2309 
Q 2547 2688 2317 2895 
Q 2088 3103 1672 3103 
Q 1328 3103 1125 2947 
Q 922 2791 872 2484 
L 575 2484 
L 575 3156 
Q 875 3284 1158 3348 
Q 1441 3413 1709 3413 
Q 2400 3413 2761 3070 
Q 3122 2728 3122 2075 
z
" transform="scale(0.015625)"/>
       <path id="DejaVuSerif-6e" d="M 263 0 
L 263 331 
L 781 331 
L 781 2988 
L 231 2988 
L 231 3322 
L 1356 3322 
L 1356 2731 
Q 1516 3069 1770 3241 
Q 2025 3413 2363 3413 
Q 2913 3413 3172 3097 
Q 3431 2781 3431 2113 
L 3431 331 
L 3944 331 
L 3944 0 
L 2356 0 
L 2356 331 
L 2853 331 
L 2853 1931 
Q 2853 2541 2703 2767 
Q 2553 2994 2175 2994 
Q 1775 2994 1565 2701 
Q 1356 2409 1356 1850 
L 1356 331 
L 1856 331 
L 1856 0 
L 263 0 
z
" transform="scale(0.015625)"/>
       <path id="DejaVuSerif-64" d="M 3359 331 
L 3909 331 
L 3909 0 
L 2784 0 
L 2784 519 
Q 2616 206 2355 57 
Q 2094 -91 1709 -91 
Q 1097 -91 708 395 
Q 319 881 319 1663 
Q 319 2444 706 2928 
Q 1094 3413 1709 3413 
Q 2094 3413 2355 3264 
Q 2616 3116 2784 2803 
L 2784 4531 
L 2241 4531 
L 2241 4863 
L 3359 4863 
L 3359 331 
z
M 2784 1497 
L 2784 1825 
Q 2784 2422 2554 2737 
Q 2325 3053 1888 3053 
Q 1444 3053 1217 2703 
Q 991 2353 991 1663 
Q 991 975 1217 622 
Q 1444 269 1888 269 
Q 2325 269 2554 583 
Q 2784 897 2784 1497 
z
" transform="scale(0.015625)"/>
       <path id="DejaVuSerif-20" transform="scale(0.015625)"/>
       <path id="DejaVuSerif-50" d="M 1581 2375 
L 2406 2375 
Q 2872 2375 3115 2626 
Q 3359 2878 3359 3353 
Q 3359 3831 3115 4081 
Q 2872 4331 2406 4331 
L 1581 4331 
L 1581 2375 
z
M 353 0 
L 353 331 
L 947 331 
L 947 4331 
L 353 4331 
L 353 4666 
L 2559 4666 
Q 3259 4666 3668 4311 
Q 4078 3956 4078 3353 
Q 4078 2753 3668 2397 
Q 3259 2041 2559 2041 
L 1581 2041 
L 1581 331 
L 2303 331 
L 2303 0 
L 353 0 
z
" transform="scale(0.015625)"/>
       <path id="DejaVuSerif-6f" d="M 1925 219 
Q 2388 219 2623 584 
Q 2859 950 2859 1663 
Q 2859 2375 2623 2739 
Q 2388 3103 1925 3103 
Q 1463 3103 1227 2739 
Q 991 2375 991 1663 
Q 991 950 1228 584 
Q 1466 219 1925 219 
z
M 1925 -91 
Q 1200 -91 759 389 
Q 319 869 319 1663 
Q 319 2456 758 2934 
Q 1197 3413 1925 3413 
Q 2653 3413 3092 2934 
Q 3531 2456 3531 1663 
Q 3531 869 3092 389 
Q 2653 -91 1925 -91 
z
" transform="scale(0.015625)"/>
       <path id="DejaVuSerif-77" d="M 3072 3322 
L 3922 728 
L 4672 2988 
L 4191 2988 
L 4191 3322 
L 5394 3322 
L 5394 2988 
L 5025 2988 
L 4038 0 
L 3559 0 
L 2741 2484 
L 1919 0 
L 1459 0 
L 475 2988 
L 103 2988 
L 103 3322 
L 1606 3322 
L 1606 2988 
L 1069 2988 
L 1813 728 
L 2669 3322 
L 3072 3322 
z
" transform="scale(0.015625)"/>
       <path id="DejaVuSerif-65" d="M 3469 1600 
L 991 1600 
L 991 1575 
Q 991 903 1244 561 
Q 1497 219 1991 219 
Q 2369 219 2611 417 
Q 2853 616 2950 1006 
L 3413 1006 
Q 3275 459 2904 184 
Q 2534 -91 1931 -91 
Q 1203 -91 761 389 
Q 319 869 319 1663 
Q 319 2450 753 2931 
Q 1188 3413 1894 3413 
Q 2647 3413 3050 2948 
Q 3453 2484 3469 1600 
z
M 2791 1931 
Q 2772 2513 2545 2808 
Q 2319 3103 1894 3103 
Q 1497 3103 1269 2806 
Q 1041 2509 991 1931 
L 2791 1931 
z
" transform="scale(0.015625)"/>
       <path id="DejaVuSerif-72" d="M 3059 3328 
L 3059 2497 
L 2728 2497 
Q 2713 2744 2591 2866 
Q 2469 2988 2234 2988 
Q 1809 2988 1582 2694 
Q 1356 2400 1356 1850 
L 1356 331 
L 2022 331 
L 2022 0 
L 263 0 
L 263 331 
L 781 331 
L 781 2994 
L 231 2994 
L 231 3322 
L 1356 3322 
L 1356 2731 
Q 1525 3078 1790 3245 
Q 2056 3413 2438 3413 
Q 2578 3413 2733 3391 
Q 2888 3369 3059 3328 
z
" transform="scale(0.015625)"/>
       <path id="DejaVuSerif-28" d="M 2041 -997 
Q 1281 -656 893 83 
Q 506 822 506 1931 
Q 506 3044 893 3783 
Q 1281 4522 2041 4863 
L 2041 4556 
Q 1559 4225 1350 3623 
Q 1141 3022 1141 1931 
Q 1141 844 1350 242 
Q 1559 -359 2041 -691 
L 2041 -997 
z
" transform="scale(0.015625)"/>
       <path id="DejaVuSerif-29" d="M 453 -997 
L 453 -691 
Q 934 -359 1145 242 
Q 1356 844 1356 1931 
Q 1356 3022 1145 3623 
Q 934 4225 453 4556 
L 453 4863 
Q 1216 4522 1603 3783 
Q 1991 3044 1991 1931 
Q 1991 822 1603 83 
Q 1216 -656 453 -997 
z
" transform="scale(0.015625)"/>
      </defs>
      <use xlink:href="#DejaVuSerif-42"/>
      <use xlink:href="#DejaVuSerif-61" transform="translate(73.486328 0)"/>
      <use xlink:href="#DejaVuSerif-6e" transform="translate(133.105469 0)"/>
      <use xlink:href="#DejaVuSerif-64" transform="translate(197.509766 0)"/>
      <use xlink:href="#DejaVuSerif-20" transform="translate(261.523438 0)"/>
      <use xlink:href="#DejaVuSerif-50" transform="translate(293.310547 0)"/>
      <use xlink:href="#DejaVuSerif-6f" transform="translate(356.595703 0)"/>
      <use xlink:href="#DejaVuSerif-77" transform="translate(416.800781 0)"/>
      <use xlink:href="#DejaVuSerif-65" transform="translate(502.396484 0)"/>
      <use xlink:href="#DejaVuSerif-72" transform="translate(561.576172 0)"/>
      <use xlink:href="#DejaVuSerif-20" transform="translate(609.378906 0)"/>
      <use xlink:href="#DejaVuSerif-28" transform="translate(641.166016 0)"/>
      <use xlink:href="#DejaVuSerif-64" transform="translate(680.179688 0)"/>
      <use xlink:href="#DejaVuSerif-42" transform="translate(744.193359 0)"/>
      <use xlink:href="#DejaVuSerif-29" transform="translate(817.679688 0)"/>
     </g>
    </g>
   </g>
   <g id="matplotlib.axis_2">
    <g id="ytick_1">
     <g id="line2d_15">
      <path d="M 54.61125 384.606719 
L 703.94125 384.606719 
" clip-path="url(#p424ca1ed16)" style="fill: none; stroke-dasharray: 2.96,1.28; stroke-dashoffset: 0; stroke: #dddddd; stroke-opacity: 0.3; stroke-width: 0.8"/>
     </g>
     <g id="line2d_16">
      <defs>
       <path id="meee00646e3" d="M 0 0 
L -3.5 0 
" style="stroke: #333333; stroke-width: 0.8"/>
      </defs>
      <g>
       <use xlink:href="#meee00646e3" x="54.61125" y="384.606719" style="fill: #333333; stroke: #333333; stroke-width: 0.8"/>
      </g>
     </g>
     <g id="text_9">
      <!-- 0.000 -->
      <g style="fill: #333333" transform="translate(21.845938 388.026016) scale(0.09 -0.09)">
       <use xlink:href="#DejaVuSerif-30"/>
       <use xlink:href="#DejaVuSerif-2e" transform="translate(63.623047 0)"/>
       <use xlink:href="#DejaVuSerif-30" transform="translate(95.410156 0)"/>
       <use xlink:href="#DejaVuSerif-30" transform="translate(159.033203 0)"/>
       <use xlink:href="#DejaVuSerif-30" transform="translate(222.65625 0)"/>
      </g>
     </g>
    </g>
    <g id="ytick_2">
     <g id="line2d_17">
      <path d="M 54.61125 342.22951 
L 703.94125 342.22951 
" clip-path="url(#p424ca1ed16)" style="fill: none; stroke-dasharray: 2.96,1.28; stroke-dashoffset: 0; stroke: #dddddd; stroke-opacity: 0.3; stroke-width: 0.8"/>
     </g>
     <g id="line2d_18">
      <g>
       <use xlink:href="#meee00646e3" x="54.61125" y="342.22951" style="fill: #333333; stroke: #333333; stroke-width: 0.8"/>
      </g>
     </g>
     <g id="text_10">
      <!-- 0.025 -->
      <g style="fill: #333333" transform="translate(21.845938 345.648807) scale(0.09 -0.09)">
       <use xlink:href="#DejaVuSerif-30"/>
       <use xlink:href="#DejaVuSerif-2e" transform="translate(63.623047 0)"/>
       <use xlink:href="#DejaVuSerif-30" transform="translate(95.410156 0)"/>
       <use xlink:href="#DejaVuSerif-32" transform="translate(159.033203 0)"/>
       <use xlink:href="#DejaVuSerif-35" transform="translate(222.65625 0)"/>
      </g>
     </g>
    </g>
    <g id="ytick_3">
     <g id="line2d_19">
      <path d="M 54.61125 299.852301 
L 703.94125 299.852301 
" clip-path="url(#p424ca1ed16)" style="fill: none; stroke-dasharray: 2.96,1.28; stroke-dashoffset: 0; stroke: #dddddd; stroke-opacity: 0.3; stroke-width: 0.8"/>
     </g>
     <g id="line2d_20">
      <g>
       <use xlink:href="#meee00646e3" x="54.61125" y="299.852301" style="fill: #333333; stroke: #333333; stroke-width: 0.8"/>
      </g>
     </g>
     <g id="text_11">
      <!-- 0.050 -->
      <g style="fill: #333333" transform="translate(21.845938 303.271598) scale(0.09 -0.09)">
       <use xlink:href="#DejaVuSerif-30"/>
       <use xlink:href="#DejaVuSerif-2e" transform="translate(63.623047 0)"/>
       <use xlink:href="#DejaVuSerif-30" transform="translate(95.410156 0)"/>
       <use xlink:href="#DejaVuSerif-35" transform="translate(159.033203 0)"/>
       <use xlink:href="#DejaVuSerif-30" transform="translate(222.65625 0)"/>
      </g>
     </g>
    </g>
    <g id="ytick_4">
     <g id="line2d_21">
      <path d="M 54.61125 257.475092 
L 703.94125 257.475092 
" clip-path="url(#p424ca1ed16)" style="fill: none; stroke-dasharray: 2.96,1.28; stroke-dashoffset: 0; stroke: #dddddd; stroke-opacity: 0.3; stroke-width: 0.8"/>
     </g>
     <g id="line2d_22">
      <g>
       <use xlink:href="#meee00646e3" x="54.61125" y="257.475092" style="fill: #333333; stroke: #333333; stroke-width: 0.8"/>
      </g>
     </g>
     <g id="text_12">
      <!-- 0.075 -->
      <g style="fill: #333333" transform="translate(21.845938 260.894389) scale(0.09 -0.09)">
       <use xlink:href="#DejaVuSerif-30"/>
       <use xlink:href="#DejaVuSerif-2e" transform="translate(63.623047 0)"/>
       <use xlink:href="#DejaVuSerif-30" transform="translate(95.410156 0)"/>
       <use xlink:href="#DejaVuSerif-37" transform="translate(159.033203 0)"/>
       <use xlink:href="#DejaVuSerif-35" transform="translate(222.65625 0)"/>
      </g>
     </g>
    </g>
    <g id="ytick_5">
     <g id="line2d_23">
      <path d="M 54.61125 215.097884 
L 703.94125 215.097884 
" clip-path="url(#p424ca1ed16)" style="fill: none; stroke-dasharray: 2.96,1.28; stroke-dashoffset: 0; stroke: #dddddd; stroke-opacity: 0.3; stroke-width: 0.8"/>
     </g>
     <g id="line2d_24">
      <g>
       <use xlink:href="#meee00646e3" x="54.61125" y="215.097884" style="fill: #333333; stroke: #333333; stroke-width: 0.8"/>
      </g>
     </g>
     <g id="text_13">
      <!-- 0.100 -->
      <g style="fill: #333333" transform="translate(21.845938 218.517181) scale(0.09 -0.09)">
       <use xlink:href="#DejaVuSerif-30"/>
       <use xlink:href="#DejaVuSerif-2e" transform="translate(63.623047 0)"/>
       <use xlink:href="#DejaVuSerif-31" transform="translate(95.410156 0)"/>
       <use xlink:href="#DejaVuSerif-30" transform="translate(159.033203 0)"/>
       <use xlink:href="#DejaVuSerif-30" transform="translate(222.65625 0)"/>
      </g>
     </g>
    </g>
    <g id="ytick_6">
     <g id="line2d_25">
      <path d="M 54.61125 172.720675 
L 703.94125 172.720675 
" clip-path="url(#p424ca1ed16)" style="fill: none; stroke-dasharray: 2.96,1.28; stroke-dashoffset: 0; stroke: #dddddd; stroke-opacity: 0.3; stroke-width: 0.8"/>
     </g>
     <g id="line2d_26">
      <g>
       <use xlink:href="#meee00646e3" x="54.61125" y="172.720675" style="fill: #333333; stroke: #333333; stroke-width: 0.8"/>
      </g>
     </g>
     <g id="text_14">
      <!-- 0.125 -->
      <g style="fill: #333333" transform="translate(21.845938 176.139972) scale(0.09 -0.09)">
       <use xlink:href="#DejaVuSerif-30"/>
       <use xlink:href="#DejaVuSerif-2e" transform="translate(63.623047 0)"/>
       <use xlink:href="#DejaVuSerif-31" transform="translate(95.410156 0)"/>
       <use xlink:href="#DejaVuSerif-32" transform="translate(159.033203 0)"/>
       <use xlink:href="#DejaVuSerif-35" transform="translate(222.65625 0)"/>
      </g>
     </g>
    </g>
    <g id="ytick_7">
     <g id="line2d_27">
      <path d="M 54.61125 130.343466 
L 703.94125 130.343466 
" clip-path="url(#p424ca1ed16)" style="fill: none; stroke-dasharray: 2.96,1.28; stroke-dashoffset: 0; stroke: #dddddd; stroke-opacity: 0.3; stroke-width: 0.8"/>
     </g>
     <g id="line2d_28">
      <g>
       <use xlink:href="#meee00646e3" x="54.61125" y="130.343466" style="fill: #333333; stroke: #333333; stroke-width: 0.8"/>
      </g>
     </g>
     <g id="text_15">
      <!-- 0.150 -->
      <g style="fill: #333333" transform="translate(21.845938 133.762763) scale(0.09 -0.09)">
       <use xlink:href="#DejaVuSerif-30"/>
       <use xlink:href="#DejaVuSerif-2e" transform="translate(63.623047 0)"/>
       <use xlink:href="#DejaVuSerif-31" transform="translate(95.410156 0)"/>
       <use xlink:href="#DejaVuSerif-35" transform="translate(159.033203 0)"/>
       <use xlink:href="#DejaVuSerif-30" transform="translate(222.65625 0)"/>
      </g>
     </g>
    </g>
    <g id="ytick_8">
     <g id="line2d_29">
      <path d="M 54.61125 87.966257 
L 703.94125 87.966257 
" clip-path="url(#p424ca1ed16)" style="fill: none; stroke-dasharray: 2.96,1.28; stroke-dashoffset: 0; stroke: #dddddd; stroke-opacity: 0.3; stroke-width: 0.8"/>
     </g>
     <g id="line2d_30">
      <g>
       <use xlink:href="#meee00646e3" x="54.61125" y="87.966257" style="fill: #333333; stroke: #333333; stroke-width: 0.8"/>
      </g>
     </g>
     <g id="text_16">
      <!-- 0.175 -->
      <g style="fill: #333333" transform="translate(21.845938 91.385554) scale(0.09 -0.09)">
       <use xlink:href="#DejaVuSerif-30"/>
       <use xlink:href="#DejaVuSerif-2e" transform="translate(63.623047 0)"/>
       <use xlink:href="#DejaVuSerif-31" transform="translate(95.410156 0)"/>
       <use xlink:href="#DejaVuSerif-37" transform="translate(159.033203 0)"/>
       <use xlink:href="#DejaVuSerif-35" transform="translate(222.65625 0)"/>
      </g>
     </g>
    </g>
    <g id="ytick_9">
     <g id="line2d_31">
      <path d="M 54.61125 45.589049 
L 703.94125 45.589049 
" clip-path="url(#p424ca1ed16)" style="fill: none; stroke-dasharray: 2.96,1.28; stroke-dashoffset: 0; stroke: #dddddd; stroke-opacity: 0.3; stroke-width: 0.8"/>
     </g>
     <g id="line2d_32">
      <g>
       <use xlink:href="#meee00646e3" x="54.61125" y="45.589049" style="fill: #333333; stroke: #333333; stroke-width: 0.8"/>
      </g>
     </g>
     <g id="text_17">
      <!-- 0.200 -->
      <g style="fill: #333333" transform="translate(21.845938 49.008345) scale(0.09 -0.09)">
       <use xlink:href="#DejaVuSerif-30"/>
       <use xlink:href="#DejaVuSerif-2e" transform="translate(63.623047 0)"/>
       <use xlink:href="#DejaVuSerif-32" transform="translate(95.410156 0)"/>
       <use xlink:href="#DejaVuSerif-30" transform="translate(159.033203 0)"/>
       <use xlink:href="#DejaVuSerif-30" transform="translate(222.65625 0)"/>
      </g>
     </g>
    </g>
    <g id="text_18">
     <!-- Density -->
     <g transform="translate(15.401875 224.948594) rotate(-90) scale(0.11 -0.11)">
      <defs>
       <path id="DejaVuSerif-44" d="M 1581 331 
L 2163 331 
Q 3072 331 3558 850 
Q 4044 1369 4044 2338 
Q 4044 3306 3559 3818 
Q 3075 4331 2163 4331 
L 1581 4331 
L 1581 331 
z
M 353 0 
L 353 331 
L 947 331 
L 947 4331 
L 353 4331 
L 353 4666 
L 2209 4666 
Q 3416 4666 4089 4050 
Q 4763 3434 4763 2338 
Q 4763 1238 4088 619 
Q 3413 0 2209 0 
L 353 0 
z
" transform="scale(0.015625)"/>
       <path id="DejaVuSerif-73" d="M 359 184 
L 359 959 
L 691 959 
Q 703 588 923 403 
Q 1144 219 1575 219 
Q 1963 219 2166 364 
Q 2369 509 2369 788 
Q 2369 1006 2220 1140 
Q 2072 1275 1594 1428 
L 1178 1569 
Q 750 1706 558 1912 
Q 366 2119 366 2438 
Q 366 2894 700 3153 
Q 1034 3413 1625 3413 
Q 1888 3413 2178 3344 
Q 2469 3275 2778 3144 
L 2778 2419 
L 2447 2419 
Q 2434 2741 2221 2922 
Q 2009 3103 1644 3103 
Q 1281 3103 1095 2975 
Q 909 2847 909 2591 
Q 909 2381 1050 2254 
Q 1191 2128 1613 1997 
L 2069 1856 
Q 2541 1709 2748 1489 
Q 2956 1269 2956 922 
Q 2956 450 2595 179 
Q 2234 -91 1600 -91 
Q 1278 -91 972 -22 
Q 666 47 359 184 
z
" transform="scale(0.015625)"/>
       <path id="DejaVuSerif-69" d="M 622 4353 
Q 622 4497 726 4603 
Q 831 4709 978 4709 
Q 1122 4709 1226 4603 
Q 1331 4497 1331 4353 
Q 1331 4206 1228 4103 
Q 1125 4000 978 4000 
Q 831 4000 726 4103 
Q 622 4206 622 4353 
z
M 1356 331 
L 1900 331 
L 1900 0 
L 231 0 
L 231 331 
L 781 331 
L 781 2988 
L 231 2988 
L 231 3322 
L 1356 3322 
L 1356 331 
z
" transform="scale(0.015625)"/>
       <path id="DejaVuSerif-74" d="M 691 2988 
L 184 2988 
L 184 3322 
L 691 3322 
L 691 4353 
L 1269 4353 
L 1269 3322 
L 2350 3322 
L 2350 2988 
L 1269 2988 
L 1269 878 
Q 1269 456 1350 337 
Q 1431 219 1650 219 
Q 1875 219 1978 351 
Q 2081 484 2088 781 
L 2522 781 
Q 2497 328 2275 118 
Q 2053 -91 1600 -91 
Q 1103 -91 897 129 
Q 691 350 691 878 
L 691 2988 
z
" transform="scale(0.015625)"/>
       <path id="DejaVuSerif-79" d="M 1381 -609 
L 1600 -56 
L 359 2988 
L -19 2988 
L -19 3322 
L 1509 3322 
L 1509 2988 
L 978 2988 
L 1913 703 
L 2847 2988 
L 2350 2988 
L 2350 3322 
L 3597 3322 
L 3597 2988 
L 3225 2988 
L 1703 -750 
Q 1547 -1138 1356 -1280 
Q 1166 -1422 819 -1422 
Q 672 -1422 517 -1397 
Q 363 -1372 206 -1325 
L 206 -691 
L 500 -691 
Q 519 -903 608 -995 
Q 697 -1088 884 -1088 
Q 1056 -1088 1161 -992 
Q 1266 -897 1381 -609 
z
" transform="scale(0.015625)"/>
      </defs>
      <use xlink:href="#DejaVuSerif-44"/>
      <use xlink:href="#DejaVuSerif-65" transform="translate(80.175781 0)"/>
      <use xlink:href="#DejaVuSerif-6e" transform="translate(139.355469 0)"/>
      <use xlink:href="#DejaVuSerif-73" transform="translate(203.759766 0)"/>
      <use xlink:href="#DejaVuSerif-69" transform="translate(255.078125 0)"/>
      <use xlink:href="#DejaVuSerif-74" transform="translate(287.060547 0)"/>
      <use xlink:href="#DejaVuSerif-79" transform="translate(327.246094 0)"/>
     </g>
    </g>
   </g>
   <g id="line2d_33">
    <path d="M 84.12625 369.840025 
L 93.025245 366.996571 
L 104.890572 362.901525 
L 119.72223 357.484049 
L 143.452883 348.768784 
L 155.31821 344.649409 
L 164.217205 341.746717 
L 173.1162 339.045957 
L 182.015195 336.584099 
L 190.91419 334.397697 
L 199.813185 332.520631 
L 205.745848 331.454808 
L 211.678511 330.543724 
L 217.611175 329.789257 
L 223.543838 329.189513 
L 232.442833 328.565726 
L 241.341828 328.238126 
L 250.240823 328.151429 
L 262.106149 328.294207 
L 306.601124 329.176096 
L 330.331778 329.201385 
L 354.062431 329.278857 
L 389.658411 329.549224 
L 398.557406 329.280188 
L 404.490069 328.891389 
L 410.422732 328.26985 
L 416.355396 327.352162 
L 422.288059 326.069499 
L 425.254391 325.26871 
L 428.220722 324.349271 
L 431.187054 323.301865 
L 434.153386 322.117224 
L 437.119717 320.786219 
L 440.086049 319.299949 
L 443.052381 317.64984 
L 446.018712 315.827741 
L 448.985044 313.826034 
L 451.951376 311.637731 
L 454.917707 309.256587 
L 457.884039 306.6772 
L 460.850371 303.895121 
L 463.816702 300.906953 
L 466.783034 297.710456 
L 469.749366 294.304641 
L 472.715697 290.68986 
L 475.682029 286.867895 
L 478.648361 282.842033 
L 484.581024 274.199699 
L 490.513687 264.821649 
L 496.446351 254.79409 
L 502.379014 244.231145 
L 511.278009 227.699701 
L 526.109667 199.82705 
L 532.04233 189.179252 
L 537.974994 179.160084 
L 540.941325 174.458833 
L 543.907657 170.001234 
L 546.873989 165.815027 
L 549.84032 161.926983 
L 552.806652 158.36264 
L 555.772984 155.146059 
L 558.739315 152.299577 
L 561.705647 149.843578 
L 564.671979 147.796282 
L 567.63831 146.173544 
L 570.604642 144.98868 
L 573.570974 144.252324 
L 576.537305 143.972303 
L 579.503637 144.153543 
L 582.469969 144.798013 
L 585.4363 145.904697 
L 588.402632 147.469594 
L 591.368964 149.485762 
L 594.335295 151.943388 
L 597.301627 154.829888 
L 600.267959 158.13004 
L 603.23429 161.826146 
L 606.200622 165.898219 
L 609.166954 170.324187 
L 612.133285 175.080123 
L 615.099617 180.14049 
L 618.065948 185.478394 
L 623.998612 196.874041 
L 629.931275 209.034883 
L 635.863938 221.724049 
L 659.594592 273.291595 
L 665.527255 285.420507 
L 671.459918 296.94258 
L 674.42625 302.442941 
L 674.42625 302.442941 
" clip-path="url(#p424ca1ed16)" style="fill: none; stroke: #1f77b4; stroke-width: 1.5; stroke-linecap: square"/>
   </g>
   <g id="patch_12">
    <path d="M 54.61125 384.606719 
L 54.61125 23.077969 
" style="fill: none; stroke: #333333; stroke-linejoin: miter; stroke-linecap: square"/>
   </g>
   <g id="patch_13">
    <path d="M 54.61125 384.606719 
L 703.94125 384.606719 
" style="fill: none; stroke: #333333; stroke-linejoin: miter; stroke-linecap: square"/>
   </g>
   <g id="text_19">
    <!-- Band Power Distribution for Channel Fz (Subject 032) -->
    <g transform="translate(200.621719 17.077969) scale(0.13 -0.13)">
     <defs>
      <path id="DejaVuSerif-62" d="M 738 331 
L 738 4531 
L 184 4531 
L 184 4863 
L 1313 4863 
L 1313 2803 
Q 1481 3116 1742 3264 
Q 2003 3413 2388 3413 
Q 3000 3413 3387 2928 
Q 3775 2444 3775 1663 
Q 3775 881 3387 395 
Q 3000 -91 2388 -91 
Q 2003 -91 1742 57 
Q 1481 206 1313 519 
L 1313 0 
L 184 0 
L 184 331 
L 738 331 
z
M 1313 1497 
Q 1313 897 1542 583 
Q 1772 269 2209 269 
Q 2650 269 2876 622 
Q 3103 975 3103 1663 
Q 3103 2353 2876 2703 
Q 2650 3053 2209 3053 
Q 1772 3053 1542 2737 
Q 1313 2422 1313 1825 
L 1313 1497 
z
" transform="scale(0.015625)"/>
      <path id="DejaVuSerif-75" d="M 2266 3322 
L 3341 3322 
L 3341 331 
L 3884 331 
L 3884 0 
L 2766 0 
L 2766 588 
Q 2606 256 2353 82 
Q 2100 -91 1766 -91 
Q 1213 -91 952 223 
Q 691 538 691 1209 
L 691 2988 
L 172 2988 
L 172 3322 
L 1269 3322 
L 1269 1388 
Q 1269 781 1417 556 
Q 1566 331 1947 331 
Q 2347 331 2556 625 
Q 2766 919 2766 1478 
L 2766 2988 
L 2266 2988 
L 2266 3322 
z
" transform="scale(0.015625)"/>
      <path id="DejaVuSerif-66" d="M 2753 4078 
L 2450 4078 
Q 2447 4313 2317 4434 
Q 2188 4556 1941 4556 
Q 1619 4556 1487 4379 
Q 1356 4203 1356 3750 
L 1356 3322 
L 2284 3322 
L 2284 2988 
L 1356 2988 
L 1356 331 
L 2094 331 
L 2094 0 
L 231 0 
L 231 331 
L 781 331 
L 781 2988 
L 231 2988 
L 231 3322 
L 781 3322 
L 781 3738 
Q 781 4294 1070 4578 
Q 1359 4863 1919 4863 
Q 2128 4863 2337 4825 
Q 2547 4788 2753 4709 
L 2753 4078 
z
" transform="scale(0.015625)"/>
      <path id="DejaVuSerif-43" d="M 4513 1234 
Q 4306 581 3820 245 
Q 3334 -91 2591 -91 
Q 2134 -91 1743 65 
Q 1353 222 1050 525 
Q 700 875 529 1320 
Q 359 1766 359 2328 
Q 359 3416 987 4083 
Q 1616 4750 2644 4750 
Q 3025 4750 3456 4650 
Q 3888 4550 4384 4347 
L 4384 3272 
L 4031 3272 
Q 3916 3859 3567 4137 
Q 3219 4416 2591 4416 
Q 1844 4416 1459 3886 
Q 1075 3356 1075 2328 
Q 1075 1303 1459 773 
Q 1844 244 2591 244 
Q 3113 244 3450 492 
Q 3788 741 3938 1234 
L 4513 1234 
z
" transform="scale(0.015625)"/>
      <path id="DejaVuSerif-68" d="M 263 0 
L 263 331 
L 781 331 
L 781 4531 
L 231 4531 
L 231 4863 
L 1356 4863 
L 1356 2731 
Q 1516 3069 1770 3241 
Q 2025 3413 2363 3413 
Q 2913 3413 3172 3097 
Q 3431 2781 3431 2113 
L 3431 331 
L 3944 331 
L 3944 0 
L 2356 0 
L 2356 331 
L 2853 331 
L 2853 1931 
Q 2853 2541 2704 2764 
Q 2556 2988 2175 2988 
Q 1775 2988 1565 2697 
Q 1356 2406 1356 1850 
L 1356 331 
L 1856 331 
L 1856 0 
L 263 0 
z
" transform="scale(0.015625)"/>
      <path id="DejaVuSerif-6c" d="M 1313 331 
L 1856 331 
L 1856 0 
L 184 0 
L 184 331 
L 738 331 
L 738 4531 
L 184 4531 
L 184 4863 
L 1313 4863 
L 1313 331 
z
" transform="scale(0.015625)"/>
      <path id="DejaVuSerif-46" d="M 353 0 
L 353 331 
L 947 331 
L 947 4331 
L 353 4331 
L 353 4666 
L 4172 4666 
L 4172 3628 
L 3788 3628 
L 3788 4281 
L 1581 4281 
L 1581 2719 
L 3175 2719 
L 3175 3303 
L 3559 3303 
L 3559 1753 
L 3175 1753 
L 3175 2338 
L 1581 2338 
L 1581 331 
L 2328 331 
L 2328 0 
L 353 0 
z
" transform="scale(0.015625)"/>
      <path id="DejaVuSerif-7a" d="M 256 0 
L 256 269 
L 2338 2988 
L 691 2988 
L 691 2413 
L 359 2413 
L 359 3322 
L 3078 3322 
L 3078 3053 
L 997 331 
L 2803 331 
L 2803 934 
L 3138 934 
L 3138 0 
L 256 0 
z
" transform="scale(0.015625)"/>
      <path id="DejaVuSerif-53" d="M 594 225 
L 594 1288 
L 953 1284 
Q 969 753 1261 498 
Q 1553 244 2150 244 
Q 2706 244 2998 464 
Q 3291 684 3291 1106 
Q 3291 1444 3114 1625 
Q 2938 1806 2369 1978 
L 1753 2163 
Q 1084 2366 811 2669 
Q 538 2972 538 3500 
Q 538 4094 959 4422 
Q 1381 4750 2144 4750 
Q 2469 4750 2856 4679 
Q 3244 4609 3681 4475 
L 3681 3481 
L 3328 3481 
Q 3275 3975 2998 4195 
Q 2722 4416 2156 4416 
Q 1663 4416 1405 4214 
Q 1147 4013 1147 3628 
Q 1147 3294 1340 3103 
Q 1534 2913 2163 2725 
L 2741 2553 
Q 3375 2363 3645 2067 
Q 3916 1772 3916 1275 
Q 3916 597 3481 253 
Q 3047 -91 2188 -91 
Q 1803 -91 1404 -12 
Q 1006 66 594 225 
z
" transform="scale(0.015625)"/>
      <path id="DejaVuSerif-6a" d="M 641 4353 
Q 641 4497 745 4603 
Q 850 4709 997 4709 
Q 1141 4709 1245 4603 
Q 1350 4497 1350 4353 
Q 1350 4206 1248 4103 
Q 1147 4000 997 4000 
Q 850 4000 745 4103 
Q 641 4206 641 4353 
z
M 781 2988 
L 238 2988 
L 238 3322 
L 1356 3322 
L 1356 -325 
Q 1356 -838 1051 -1130 
Q 747 -1422 213 -1422 
Q -13 -1422 -217 -1370 
Q -422 -1319 -616 -1216 
L -616 -531 
L -319 -531 
Q -297 -831 -164 -972 
Q -31 -1113 225 -1113 
Q 509 -1113 645 -920 
Q 781 -728 781 -325 
L 781 2988 
z
" transform="scale(0.015625)"/>
      <path id="DejaVuSerif-63" d="M 3291 997 
Q 3169 466 2822 187 
Q 2475 -91 1925 -91 
Q 1200 -91 759 389 
Q 319 869 319 1663 
Q 319 2459 759 2936 
Q 1200 3413 1925 3413 
Q 2241 3413 2553 3339 
Q 2866 3266 3181 3116 
L 3181 2266 
L 2847 2266 
Q 2781 2703 2561 2903 
Q 2341 3103 1931 3103 
Q 1466 3103 1228 2742 
Q 991 2381 991 1663 
Q 991 944 1227 581 
Q 1463 219 1931 219 
Q 2303 219 2525 412 
Q 2747 606 2828 997 
L 3291 997 
z
" transform="scale(0.015625)"/>
      <path id="DejaVuSerif-33" d="M 622 4469 
Q 988 4606 1323 4678 
Q 1659 4750 1953 4750 
Q 2638 4750 3022 4454 
Q 3406 4159 3406 3634 
Q 3406 3213 3140 2930 
Q 2875 2647 2388 2547 
Q 2963 2466 3280 2130 
Q 3597 1794 3597 1259 
Q 3597 606 3158 257 
Q 2719 -91 1894 -91 
Q 1528 -91 1179 -12 
Q 831 66 488 225 
L 488 1131 
L 838 1131 
Q 869 681 1141 450 
Q 1413 219 1906 219 
Q 2384 219 2661 495 
Q 2938 772 2938 1253 
Q 2938 1803 2653 2086 
Q 2369 2369 1819 2369 
L 1522 2369 
L 1522 2688 
L 1678 2688 
Q 2225 2688 2498 2914 
Q 2772 3141 2772 3597 
Q 2772 4006 2547 4223 
Q 2322 4441 1900 4441 
Q 1478 4441 1245 4241 
Q 1013 4041 972 3647 
L 622 3647 
L 622 4469 
z
" transform="scale(0.015625)"/>
     </defs>
     <use xlink:href="#DejaVuSerif-42"/>
     <use xlink:href="#DejaVuSerif-61" transform="translate(73.486328 0)"/>
     <use xlink:href="#DejaVuSerif-6e" transform="translate(133.105469 0)"/>
     <use xlink:href="#DejaVuSerif-64" transform="translate(197.509766 0)"/>
     <use xlink:href="#DejaVuSerif-20" transform="translate(261.523438 0)"/>
     <use xlink:href="#DejaVuSerif-50" transform="translate(293.310547 0)"/>
     <use xlink:href="#DejaVuSerif-6f" transform="translate(356.595703 0)"/>
     <use xlink:href="#DejaVuSerif-77" transform="translate(416.800781 0)"/>
     <use xlink:href="#DejaVuSerif-65" transform="translate(502.396484 0)"/>
     <use xlink:href="#DejaVuSerif-72" transform="translate(561.576172 0)"/>
     <use xlink:href="#DejaVuSerif-20" transform="translate(609.378906 0)"/>
     <use xlink:href="#DejaVuSerif-44" transform="translate(641.166016 0)"/>
     <use xlink:href="#DejaVuSerif-69" transform="translate(721.341797 0)"/>
     <use xlink:href="#DejaVuSerif-73" transform="translate(753.324219 0)"/>
     <use xlink:href="#DejaVuSerif-74" transform="translate(804.642578 0)"/>
     <use xlink:href="#DejaVuSerif-72" transform="translate(844.828125 0)"/>
     <use xlink:href="#DejaVuSerif-69" transform="translate(892.630859 0)"/>
     <use xlink:href="#DejaVuSerif-62" transform="translate(924.613281 0)"/>
     <use xlink:href="#DejaVuSerif-75" transform="translate(988.626953 0)"/>
     <use xlink:href="#DejaVuSerif-74" transform="translate(1053.03125 0)"/>
     <use xlink:href="#DejaVuSerif-69" transform="translate(1093.216797 0)"/>
     <use xlink:href="#DejaVuSerif-6f" transform="translate(1125.199219 0)"/>
     <use xlink:href="#DejaVuSerif-6e" transform="translate(1185.404297 0)"/>
     <use xlink:href="#DejaVuSerif-20" transform="translate(1249.808594 0)"/>
     <use xlink:href="#DejaVuSerif-66" transform="translate(1281.595703 0)"/>
     <use xlink:href="#DejaVuSerif-6f" transform="translate(1318.607422 0)"/>
     <use xlink:href="#DejaVuSerif-72" transform="translate(1378.8125 0)"/>
     <use xlink:href="#DejaVuSerif-20" transform="translate(1426.615234 0)"/>
     <use xlink:href="#DejaVuSerif-43" transform="translate(1458.402344 0)"/>
     <use xlink:href="#DejaVuSerif-68" transform="translate(1534.916016 0)"/>
     <use xlink:href="#DejaVuSerif-61" transform="translate(1599.320312 0)"/>
     <use xlink:href="#DejaVuSerif-6e" transform="translate(1658.939453 0)"/>
     <use xlink:href="#DejaVuSerif-6e" transform="translate(1723.34375 0)"/>
     <use xlink:href="#DejaVuSerif-65" transform="translate(1787.748047 0)"/>
     <use xlink:href="#DejaVuSerif-6c" transform="translate(1846.927734 0)"/>
     <use xlink:href="#DejaVuSerif-20" transform="translate(1878.910156 0)"/>
     <use xlink:href="#DejaVuSerif-46" transform="translate(1910.697266 0)"/>
     <use xlink:href="#DejaVuSerif-7a" transform="translate(1980.082031 0)"/>
     <use xlink:href="#DejaVuSerif-20" transform="translate(2032.767578 0)"/>
     <use xlink:href="#DejaVuSerif-28" transform="translate(2064.554688 0)"/>
     <use xlink:href="#DejaVuSerif-53" transform="translate(2103.568359 0)"/>
     <use xlink:href="#DejaVuSerif-75" transform="translate(2172.074219 0)"/>
     <use xlink:href="#DejaVuSerif-62" transform="translate(2236.478516 0)"/>
     <use xlink:href="#DejaVuSerif-6a" transform="translate(2300.492188 0)"/>
     <use xlink:href="#DejaVuSerif-65" transform="translate(2331.498047 0)"/>
     <use xlink:href="#DejaVuSerif-63" transform="translate(2390.677734 0)"/>
     <use xlink:href="#DejaVuSerif-74" transform="translate(2446.683594 0)"/>
     <use xlink:href="#DejaVuSerif-20" transform="translate(2486.869141 0)"/>
     <use xlink:href="#DejaVuSerif-30" transform="translate(2518.65625 0)"/>
     <use xlink:href="#DejaVuSerif-33" transform="translate(2582.279297 0)"/>
     <use xlink:href="#DejaVuSerif-32" transform="translate(2645.902344 0)"/>
     <use xlink:href="#DejaVuSerif-29" transform="translate(2709.525391 0)"/>
    </g>
   </g>
  </g>
 </g>
 <defs>
  <clipPath id="p424ca1ed16">
   <rect x="54.61125" y="23.077969" width="649.33" height="361.52875"/>
  </clipPath>
 </defs>
</svg>
