<?xml version="1.0" encoding="utf-8" standalone="no"?>
<!DOCTYPE svg PUBLIC "-//W3C//DTD SVG 1.1//EN"
  "http://www.w3.org/Graphics/SVG/1.1/DTD/svg11.dtd">
<svg xmlns:xlink="http://www.w3.org/1999/xlink" width="709.3206pt" height="422.162969pt" viewBox="0 0 709.3206 422.162969" xmlns="http://www.w3.org/2000/svg" version="1.1">
 <metadata>
  <rdf:RDF xmlns:dc="http://purl.org/dc/elements/1.1/" xmlns:cc="http://creativecommons.org/ns#" xmlns:rdf="http://www.w3.org/1999/02/22-rdf-syntax-ns#">
   <cc:Work>
    <dc:type rdf:resource="http://purl.org/dc/dcmitype/StillImage"/>
    <dc:date>2025-05-30T20:55:22.740567</dc:date>
    <dc:format>image/svg+xml</dc:format>
    <dc:creator>
     <cc:Agent>
      <dc:title>Matplotlib v3.10.3, https://matplotlib.org/</dc:title>
     </cc:Agent>
    </dc:creator>
   </cc:Work>
  </rdf:RDF>
 </metadata>
 <defs>
  <style type="text/css">*{stroke-linejoin: round; stroke-linecap: butt}</style>
 </defs>
 <g id="figure_1">
  <g id="patch_1">
   <path d="M 0 422.162969 
L 709.3206 422.162969 
L 709.3206 0 
L 0 0 
z
" style="fill: #ffffff"/>
  </g>
  <g id="axes_1">
   <g id="patch_2">
    <path d="M 48.885 384.606719 
L 702.075068 384.606719 
L 702.075068 23.077969 
L 48.885 23.077969 
z
" style="fill: #ffffff"/>
   </g>
   <g id="patch_3">
    <path d="M 78.575458 384.606719 
L 111.564855 384.606719 
L 111.564855 363.526325 
L 78.575458 363.526325 
z
" clip-path="url(#p09cfc030b0)" style="fill: #1f77b4; fill-opacity: 0.6; stroke: #000000; stroke-linejoin: miter"/>
   </g>
   <g id="patch_4">
    <path d="M 111.564855 384.606719 
L 144.554252 384.606719 
L 144.554252 370.553123 
L 111.564855 370.553123 
z
" clip-path="url(#p09cfc030b0)" style="fill: #1f77b4; fill-opacity: 0.6; stroke: #000000; stroke-linejoin: miter"/>
   </g>
   <g id="patch_5">
    <path d="M 144.554252 384.606719 
L 177.54365 384.606719 
L 177.54365 314.33874 
L 144.554252 314.33874 
z
" clip-path="url(#p09cfc030b0)" style="fill: #1f77b4; fill-opacity: 0.6; stroke: #000000; stroke-linejoin: miter"/>
   </g>
   <g id="patch_6">
    <path d="M 177.54365 384.606719 
L 210.533047 384.606719 
L 210.533047 335.419134 
L 177.54365 335.419134 
z
" clip-path="url(#p09cfc030b0)" style="fill: #1f77b4; fill-opacity: 0.6; stroke: #000000; stroke-linejoin: miter"/>
   </g>
   <g id="patch_7">
    <path d="M 210.533047 384.606719 
L 243.522445 384.606719 
L 243.522445 286.231549 
L 210.533047 286.231549 
z
" clip-path="url(#p09cfc030b0)" style="fill: #1f77b4; fill-opacity: 0.6; stroke: #000000; stroke-linejoin: miter"/>
   </g>
   <g id="patch_8">
    <path d="M 243.522445 384.606719 
L 276.511842 384.606719 
L 276.511842 201.909974 
L 243.522445 201.909974 
z
" clip-path="url(#p09cfc030b0)" style="fill: #1f77b4; fill-opacity: 0.6; stroke: #000000; stroke-linejoin: miter"/>
   </g>
   <g id="patch_9">
    <path d="M 276.511842 384.606719 
L 309.501239 384.606719 
L 309.501239 180.829581 
L 276.511842 180.829581 
z
" clip-path="url(#p09cfc030b0)" style="fill: #1f77b4; fill-opacity: 0.6; stroke: #000000; stroke-linejoin: miter"/>
   </g>
   <g id="patch_10">
    <path d="M 309.501239 384.606719 
L 342.490637 384.606719 
L 342.490637 40.293624 
L 309.501239 40.293624 
z
" clip-path="url(#p09cfc030b0)" style="fill: #1f77b4; fill-opacity: 0.6; stroke: #000000; stroke-linejoin: miter"/>
   </g>
   <g id="patch_11">
    <path d="M 342.490637 384.606719 
L 375.480034 384.606719 
L 375.480034 75.427613 
L 342.490637 75.427613 
z
" clip-path="url(#p09cfc030b0)" style="fill: #1f77b4; fill-opacity: 0.6; stroke: #000000; stroke-linejoin: miter"/>
   </g>
   <g id="patch_12">
    <path d="M 375.480034 384.606719 
L 408.469431 384.606719 
L 408.469431 215.96357 
L 375.480034 215.96357 
z
" clip-path="url(#p09cfc030b0)" style="fill: #1f77b4; fill-opacity: 0.6; stroke: #000000; stroke-linejoin: miter"/>
   </g>
   <g id="patch_13">
    <path d="M 408.469431 384.606719 
L 441.458829 384.606719 
L 441.458829 279.204751 
L 408.469431 279.204751 
z
" clip-path="url(#p09cfc030b0)" style="fill: #1f77b4; fill-opacity: 0.6; stroke: #000000; stroke-linejoin: miter"/>
   </g>
   <g id="patch_14">
    <path d="M 441.458829 384.606719 
L 474.448226 384.606719 
L 474.448226 314.33874 
L 441.458829 314.33874 
z
" clip-path="url(#p09cfc030b0)" style="fill: #1f77b4; fill-opacity: 0.6; stroke: #000000; stroke-linejoin: miter"/>
   </g>
   <g id="patch_15">
    <path d="M 474.448226 384.606719 
L 507.437624 384.606719 
L 507.437624 377.579921 
L 474.448226 377.579921 
z
" clip-path="url(#p09cfc030b0)" style="fill: #1f77b4; fill-opacity: 0.6; stroke: #000000; stroke-linejoin: miter"/>
   </g>
   <g id="patch_16">
    <path d="M 507.437624 384.606719 
L 540.427021 384.606719 
L 540.427021 377.579921 
L 507.437624 377.579921 
z
" clip-path="url(#p09cfc030b0)" style="fill: #1f77b4; fill-opacity: 0.6; stroke: #000000; stroke-linejoin: miter"/>
   </g>
   <g id="patch_17">
    <path d="M 540.427021 384.606719 
L 573.416418 384.606719 
L 573.416418 384.606719 
L 540.427021 384.606719 
z
" clip-path="url(#p09cfc030b0)" style="fill: #1f77b4; fill-opacity: 0.6; stroke: #000000; stroke-linejoin: miter"/>
   </g>
   <g id="patch_18">
    <path d="M 573.416418 384.606719 
L 606.405816 384.606719 
L 606.405816 384.606719 
L 573.416418 384.606719 
z
" clip-path="url(#p09cfc030b0)" style="fill: #1f77b4; fill-opacity: 0.6; stroke: #000000; stroke-linejoin: miter"/>
   </g>
   <g id="patch_19">
    <path d="M 606.405816 384.606719 
L 639.395213 384.606719 
L 639.395213 384.606719 
L 606.405816 384.606719 
z
" clip-path="url(#p09cfc030b0)" style="fill: #1f77b4; fill-opacity: 0.6; stroke: #000000; stroke-linejoin: miter"/>
   </g>
   <g id="patch_20">
    <path d="M 639.395213 384.606719 
L 672.384611 384.606719 
L 672.384611 377.579921 
L 639.395213 377.579921 
z
" clip-path="url(#p09cfc030b0)" style="fill: #1f77b4; fill-opacity: 0.6; stroke: #000000; stroke-linejoin: miter"/>
   </g>
   <g id="matplotlib.axis_1">
    <g id="xtick_1">
     <g id="line2d_1">
      <path d="M 123.221604 384.606719 
L 123.221604 23.077969 
" clip-path="url(#p09cfc030b0)" style="fill: none; stroke-dasharray: 2.96,1.28; stroke-dashoffset: 0; stroke: #dddddd; stroke-opacity: 0.3; stroke-width: 0.8"/>
     </g>
     <g id="line2d_2">
      <defs>
       <path id="m25ff0e3a5b" d="M 0 0 
L 0 3.5 
" style="stroke: #333333; stroke-width: 0.8"/>
      </defs>
      <g>
       <use xlink:href="#m25ff0e3a5b" x="123.221604" y="384.606719" style="fill: #333333; stroke: #333333; stroke-width: 0.8"/>
      </g>
     </g>
     <g id="text_1">
      <!-- −120 -->
      <g style="fill: #333333" transform="translate(110.86137 398.445312) scale(0.09 -0.09)">
       <defs>
        <path id="DejaVuSerif-2212" d="M 678 2259 
L 4684 2259 
L 4684 1753 
L 678 1753 
L 678 2259 
z
" transform="scale(0.015625)"/>
        <path id="DejaVuSerif-31" d="M 909 0 
L 909 331 
L 1722 331 
L 1722 4213 
L 781 3603 
L 781 4013 
L 1919 4750 
L 2350 4750 
L 2350 331 
L 3163 331 
L 3163 0 
L 909 0 
z
" transform="scale(0.015625)"/>
        <path id="DejaVuSerif-32" d="M 819 3553 
L 469 3553 
L 469 4384 
Q 803 4563 1142 4656 
Q 1481 4750 1806 4750 
Q 2534 4750 2956 4397 
Q 3378 4044 3378 3438 
Q 3378 2753 2422 1800 
Q 2347 1728 2309 1691 
L 1131 513 
L 3078 513 
L 3078 1088 
L 3444 1088 
L 3444 0 
L 434 0 
L 434 341 
L 1850 1753 
Q 2319 2222 2519 2614 
Q 2719 3006 2719 3438 
Q 2719 3909 2473 4175 
Q 2228 4441 1797 4441 
Q 1350 4441 1106 4219 
Q 863 3997 819 3553 
z
" transform="scale(0.015625)"/>
        <path id="DejaVuSerif-30" d="M 2034 219 
Q 2513 219 2750 744 
Q 2988 1269 2988 2328 
Q 2988 3391 2750 3916 
Q 2513 4441 2034 4441 
Q 1556 4441 1318 3916 
Q 1081 3391 1081 2328 
Q 1081 1269 1318 744 
Q 1556 219 2034 219 
z
M 2034 -91 
Q 1275 -91 848 546 
Q 422 1184 422 2328 
Q 422 3475 848 4112 
Q 1275 4750 2034 4750 
Q 2797 4750 3222 4112 
Q 3647 3475 3647 2328 
Q 3647 1184 3222 546 
Q 2797 -91 2034 -91 
z
" transform="scale(0.015625)"/>
       </defs>
       <use xlink:href="#DejaVuSerif-2212"/>
       <use xlink:href="#DejaVuSerif-31" transform="translate(83.789062 0)"/>
       <use xlink:href="#DejaVuSerif-32" transform="translate(147.412109 0)"/>
       <use xlink:href="#DejaVuSerif-30" transform="translate(211.035156 0)"/>
      </g>
     </g>
    </g>
    <g id="xtick_2">
     <g id="line2d_3">
      <path d="M 217.644731 384.606719 
L 217.644731 23.077969 
" clip-path="url(#p09cfc030b0)" style="fill: none; stroke-dasharray: 2.96,1.28; stroke-dashoffset: 0; stroke: #dddddd; stroke-opacity: 0.3; stroke-width: 0.8"/>
     </g>
     <g id="line2d_4">
      <g>
       <use xlink:href="#m25ff0e3a5b" x="217.644731" y="384.606719" style="fill: #333333; stroke: #333333; stroke-width: 0.8"/>
      </g>
     </g>
     <g id="text_2">
      <!-- −118 -->
      <g style="fill: #333333" transform="translate(205.284497 398.445312) scale(0.09 -0.09)">
       <defs>
        <path id="DejaVuSerif-38" d="M 2981 1275 
Q 2981 1775 2732 2051 
Q 2484 2328 2034 2328 
Q 1584 2328 1336 2051 
Q 1088 1775 1088 1275 
Q 1088 772 1336 495 
Q 1584 219 2034 219 
Q 2484 219 2732 495 
Q 2981 772 2981 1275 
z
M 2853 3541 
Q 2853 3966 2637 4203 
Q 2422 4441 2034 4441 
Q 1650 4441 1433 4203 
Q 1216 3966 1216 3541 
Q 1216 3113 1433 2875 
Q 1650 2638 2034 2638 
Q 2422 2638 2637 2875 
Q 2853 3113 2853 3541 
z
M 2516 2484 
Q 3047 2413 3344 2092 
Q 3641 1772 3641 1275 
Q 3641 619 3225 264 
Q 2809 -91 2034 -91 
Q 1263 -91 845 264 
Q 428 619 428 1275 
Q 428 1772 725 2092 
Q 1022 2413 1556 2484 
Q 1084 2569 832 2842 
Q 581 3116 581 3541 
Q 581 4103 968 4426 
Q 1356 4750 2034 4750 
Q 2713 4750 3100 4426 
Q 3488 4103 3488 3541 
Q 3488 3116 3236 2842 
Q 2984 2569 2516 2484 
z
" transform="scale(0.015625)"/>
       </defs>
       <use xlink:href="#DejaVuSerif-2212"/>
       <use xlink:href="#DejaVuSerif-31" transform="translate(83.789062 0)"/>
       <use xlink:href="#DejaVuSerif-31" transform="translate(147.412109 0)"/>
       <use xlink:href="#DejaVuSerif-38" transform="translate(211.035156 0)"/>
      </g>
     </g>
    </g>
    <g id="xtick_3">
     <g id="line2d_5">
      <path d="M 312.067858 384.606719 
L 312.067858 23.077969 
" clip-path="url(#p09cfc030b0)" style="fill: none; stroke-dasharray: 2.96,1.28; stroke-dashoffset: 0; stroke: #dddddd; stroke-opacity: 0.3; stroke-width: 0.8"/>
     </g>
     <g id="line2d_6">
      <g>
       <use xlink:href="#m25ff0e3a5b" x="312.067858" y="384.606719" style="fill: #333333; stroke: #333333; stroke-width: 0.8"/>
      </g>
     </g>
     <g id="text_3">
      <!-- −116 -->
      <g style="fill: #333333" transform="translate(299.707624 398.445312) scale(0.09 -0.09)">
       <defs>
        <path id="DejaVuSerif-36" d="M 2094 219 
Q 2534 219 2771 542 
Q 3009 866 3009 1472 
Q 3009 2078 2771 2401 
Q 2534 2725 2094 2725 
Q 1647 2725 1412 2412 
Q 1178 2100 1178 1509 
Q 1178 888 1415 553 
Q 1653 219 2094 219 
z
M 1075 2569 
Q 1288 2803 1556 2918 
Q 1825 3034 2163 3034 
Q 2859 3034 3264 2615 
Q 3669 2197 3669 1472 
Q 3669 763 3233 336 
Q 2797 -91 2069 -91 
Q 1278 -91 853 498 
Q 428 1088 428 2181 
Q 428 3406 931 4078 
Q 1434 4750 2350 4750 
Q 2597 4750 2869 4703 
Q 3141 4656 3425 4563 
L 3425 3794 
L 3072 3794 
Q 3034 4109 2831 4275 
Q 2628 4441 2284 4441 
Q 1678 4441 1381 3981 
Q 1084 3522 1075 2569 
z
" transform="scale(0.015625)"/>
       </defs>
       <use xlink:href="#DejaVuSerif-2212"/>
       <use xlink:href="#DejaVuSerif-31" transform="translate(83.789062 0)"/>
       <use xlink:href="#DejaVuSerif-31" transform="translate(147.412109 0)"/>
       <use xlink:href="#DejaVuSerif-36" transform="translate(211.035156 0)"/>
      </g>
     </g>
    </g>
    <g id="xtick_4">
     <g id="line2d_7">
      <path d="M 406.490985 384.606719 
L 406.490985 23.077969 
" clip-path="url(#p09cfc030b0)" style="fill: none; stroke-dasharray: 2.96,1.28; stroke-dashoffset: 0; stroke: #dddddd; stroke-opacity: 0.3; stroke-width: 0.8"/>
     </g>
     <g id="line2d_8">
      <g>
       <use xlink:href="#m25ff0e3a5b" x="406.490985" y="384.606719" style="fill: #333333; stroke: #333333; stroke-width: 0.8"/>
      </g>
     </g>
     <g id="text_4">
      <!-- −114 -->
      <g style="fill: #333333" transform="translate(394.130751 398.445312) scale(0.09 -0.09)">
       <defs>
        <path id="DejaVuSerif-34" d="M 2234 1581 
L 2234 4063 
L 641 1581 
L 2234 1581 
z
M 3609 0 
L 1484 0 
L 1484 331 
L 2234 331 
L 2234 1247 
L 197 1247 
L 197 1588 
L 2241 4750 
L 2859 4750 
L 2859 1581 
L 3750 1581 
L 3750 1247 
L 2859 1247 
L 2859 331 
L 3609 331 
L 3609 0 
z
" transform="scale(0.015625)"/>
       </defs>
       <use xlink:href="#DejaVuSerif-2212"/>
       <use xlink:href="#DejaVuSerif-31" transform="translate(83.789062 0)"/>
       <use xlink:href="#DejaVuSerif-31" transform="translate(147.412109 0)"/>
       <use xlink:href="#DejaVuSerif-34" transform="translate(211.035156 0)"/>
      </g>
     </g>
    </g>
    <g id="xtick_5">
     <g id="line2d_9">
      <path d="M 500.914112 384.606719 
L 500.914112 23.077969 
" clip-path="url(#p09cfc030b0)" style="fill: none; stroke-dasharray: 2.96,1.28; stroke-dashoffset: 0; stroke: #dddddd; stroke-opacity: 0.3; stroke-width: 0.8"/>
     </g>
     <g id="line2d_10">
      <g>
       <use xlink:href="#m25ff0e3a5b" x="500.914112" y="384.606719" style="fill: #333333; stroke: #333333; stroke-width: 0.8"/>
      </g>
     </g>
     <g id="text_5">
      <!-- −112 -->
      <g style="fill: #333333" transform="translate(488.553877 398.445312) scale(0.09 -0.09)">
       <use xlink:href="#DejaVuSerif-2212"/>
       <use xlink:href="#DejaVuSerif-31" transform="translate(83.789062 0)"/>
       <use xlink:href="#DejaVuSerif-31" transform="translate(147.412109 0)"/>
       <use xlink:href="#DejaVuSerif-32" transform="translate(211.035156 0)"/>
      </g>
     </g>
    </g>
    <g id="xtick_6">
     <g id="line2d_11">
      <path d="M 595.337239 384.606719 
L 595.337239 23.077969 
" clip-path="url(#p09cfc030b0)" style="fill: none; stroke-dasharray: 2.96,1.28; stroke-dashoffset: 0; stroke: #dddddd; stroke-opacity: 0.3; stroke-width: 0.8"/>
     </g>
     <g id="line2d_12">
      <g>
       <use xlink:href="#m25ff0e3a5b" x="595.337239" y="384.606719" style="fill: #333333; stroke: #333333; stroke-width: 0.8"/>
      </g>
     </g>
     <g id="text_6">
      <!-- −110 -->
      <g style="fill: #333333" transform="translate(582.977004 398.445312) scale(0.09 -0.09)">
       <use xlink:href="#DejaVuSerif-2212"/>
       <use xlink:href="#DejaVuSerif-31" transform="translate(83.789062 0)"/>
       <use xlink:href="#DejaVuSerif-31" transform="translate(147.412109 0)"/>
       <use xlink:href="#DejaVuSerif-30" transform="translate(211.035156 0)"/>
      </g>
     </g>
    </g>
    <g id="xtick_7">
     <g id="line2d_13">
      <path d="M 689.760366 384.606719 
L 689.760366 23.077969 
" clip-path="url(#p09cfc030b0)" style="fill: none; stroke-dasharray: 2.96,1.28; stroke-dashoffset: 0; stroke: #dddddd; stroke-opacity: 0.3; stroke-width: 0.8"/>
     </g>
     <g id="line2d_14">
      <g>
       <use xlink:href="#m25ff0e3a5b" x="689.760366" y="384.606719" style="fill: #333333; stroke: #333333; stroke-width: 0.8"/>
      </g>
     </g>
     <g id="text_7">
      <!-- −108 -->
      <g style="fill: #333333" transform="translate(677.400131 398.445312) scale(0.09 -0.09)">
       <use xlink:href="#DejaVuSerif-2212"/>
       <use xlink:href="#DejaVuSerif-31" transform="translate(83.789062 0)"/>
       <use xlink:href="#DejaVuSerif-30" transform="translate(147.412109 0)"/>
       <use xlink:href="#DejaVuSerif-38" transform="translate(211.035156 0)"/>
      </g>
     </g>
    </g>
    <g id="text_8">
     <!-- Band Power (dB) -->
     <g transform="translate(328.362222 412.675312) scale(0.11 -0.11)">
      <defs>
       <path id="DejaVuSerif-42" d="M 1581 331 
L 2516 331 
Q 3078 331 3337 575 
Q 3597 819 3597 1350 
Q 3597 1878 3339 2120 
Q 3081 2363 2516 2363 
L 1581 2363 
L 1581 331 
z
M 1581 2694 
L 2375 2694 
Q 2888 2694 3123 2891 
Q 3359 3088 3359 3513 
Q 3359 3941 3123 4136 
Q 2888 4331 2375 4331 
L 1581 4331 
L 1581 2694 
z
M 353 0 
L 353 331 
L 947 331 
L 947 4331 
L 353 4331 
L 353 4666 
L 2656 4666 
Q 3363 4666 3720 4377 
Q 4078 4088 4078 3513 
Q 4078 3097 3829 2850 
Q 3581 2603 3103 2547 
Q 3697 2472 4005 2167 
Q 4313 1863 4313 1350 
Q 4313 656 3875 328 
Q 3438 0 2509 0 
L 353 0 
z
" transform="scale(0.015625)"/>
       <path id="DejaVuSerif-61" d="M 2547 1044 
L 2547 1747 
L 1806 1747 
Q 1378 1747 1168 1562 
Q 959 1378 959 997 
Q 959 650 1171 447 
Q 1384 244 1747 244 
Q 2106 244 2326 466 
Q 2547 688 2547 1044 
z
M 3122 2075 
L 3122 331 
L 3634 331 
L 3634 0 
L 2547 0 
L 2547 359 
Q 2356 128 2106 18 
Q 1856 -91 1522 -91 
Q 969 -91 644 203 
Q 319 497 319 997 
Q 319 1513 691 1797 
Q 1063 2081 1741 2081 
L 2547 2081 
L 2547 2309 
Q 2547 2688 2317 2895 
Q 2088 3103 1672 3103 
Q 1328 3103 1125 2947 
Q 922 2791 872 2484 
L 575 2484 
L 575 3156 
Q 875 3284 1158 3348 
Q 1441 3413 1709 3413 
Q 2400 3413 2761 3070 
Q 3122 2728 3122 2075 
z
" transform="scale(0.015625)"/>
       <path id="DejaVuSerif-6e" d="M 263 0 
L 263 331 
L 781 331 
L 781 2988 
L 231 2988 
L 231 3322 
L 1356 3322 
L 1356 2731 
Q 1516 3069 1770 3241 
Q 2025 3413 2363 3413 
Q 2913 3413 3172 3097 
Q 3431 2781 3431 2113 
L 3431 331 
L 3944 331 
L 3944 0 
L 2356 0 
L 2356 331 
L 2853 331 
L 2853 1931 
Q 2853 2541 2703 2767 
Q 2553 2994 2175 2994 
Q 1775 2994 1565 2701 
Q 1356 2409 1356 1850 
L 1356 331 
L 1856 331 
L 1856 0 
L 263 0 
z
" transform="scale(0.015625)"/>
       <path id="DejaVuSerif-64" d="M 3359 331 
L 3909 331 
L 3909 0 
L 2784 0 
L 2784 519 
Q 2616 206 2355 57 
Q 2094 -91 1709 -91 
Q 1097 -91 708 395 
Q 319 881 319 1663 
Q 319 2444 706 2928 
Q 1094 3413 1709 3413 
Q 2094 3413 2355 3264 
Q 2616 3116 2784 2803 
L 2784 4531 
L 2241 4531 
L 2241 4863 
L 3359 4863 
L 3359 331 
z
M 2784 1497 
L 2784 1825 
Q 2784 2422 2554 2737 
Q 2325 3053 1888 3053 
Q 1444 3053 1217 2703 
Q 991 2353 991 1663 
Q 991 975 1217 622 
Q 1444 269 1888 269 
Q 2325 269 2554 583 
Q 2784 897 2784 1497 
z
" transform="scale(0.015625)"/>
       <path id="DejaVuSerif-20" transform="scale(0.015625)"/>
       <path id="DejaVuSerif-50" d="M 1581 2375 
L 2406 2375 
Q 2872 2375 3115 2626 
Q 3359 2878 3359 3353 
Q 3359 3831 3115 4081 
Q 2872 4331 2406 4331 
L 1581 4331 
L 1581 2375 
z
M 353 0 
L 353 331 
L 947 331 
L 947 4331 
L 353 4331 
L 353 4666 
L 2559 4666 
Q 3259 4666 3668 4311 
Q 4078 3956 4078 3353 
Q 4078 2753 3668 2397 
Q 3259 2041 2559 2041 
L 1581 2041 
L 1581 331 
L 2303 331 
L 2303 0 
L 353 0 
z
" transform="scale(0.015625)"/>
       <path id="DejaVuSerif-6f" d="M 1925 219 
Q 2388 219 2623 584 
Q 2859 950 2859 1663 
Q 2859 2375 2623 2739 
Q 2388 3103 1925 3103 
Q 1463 3103 1227 2739 
Q 991 2375 991 1663 
Q 991 950 1228 584 
Q 1466 219 1925 219 
z
M 1925 -91 
Q 1200 -91 759 389 
Q 319 869 319 1663 
Q 319 2456 758 2934 
Q 1197 3413 1925 3413 
Q 2653 3413 3092 2934 
Q 3531 2456 3531 1663 
Q 3531 869 3092 389 
Q 2653 -91 1925 -91 
z
" transform="scale(0.015625)"/>
       <path id="DejaVuSerif-77" d="M 3072 3322 
L 3922 728 
L 4672 2988 
L 4191 2988 
L 4191 3322 
L 5394 3322 
L 5394 2988 
L 5025 2988 
L 4038 0 
L 3559 0 
L 2741 2484 
L 1919 0 
L 1459 0 
L 475 2988 
L 103 2988 
L 103 3322 
L 1606 3322 
L 1606 2988 
L 1069 2988 
L 1813 728 
L 2669 3322 
L 3072 3322 
z
" transform="scale(0.015625)"/>
       <path id="DejaVuSerif-65" d="M 3469 1600 
L 991 1600 
L 991 1575 
Q 991 903 1244 561 
Q 1497 219 1991 219 
Q 2369 219 2611 417 
Q 2853 616 2950 1006 
L 3413 1006 
Q 3275 459 2904 184 
Q 2534 -91 1931 -91 
Q 1203 -91 761 389 
Q 319 869 319 1663 
Q 319 2450 753 2931 
Q 1188 3413 1894 3413 
Q 2647 3413 3050 2948 
Q 3453 2484 3469 1600 
z
M 2791 1931 
Q 2772 2513 2545 2808 
Q 2319 3103 1894 3103 
Q 1497 3103 1269 2806 
Q 1041 2509 991 1931 
L 2791 1931 
z
" transform="scale(0.015625)"/>
       <path id="DejaVuSerif-72" d="M 3059 3328 
L 3059 2497 
L 2728 2497 
Q 2713 2744 2591 2866 
Q 2469 2988 2234 2988 
Q 1809 2988 1582 2694 
Q 1356 2400 1356 1850 
L 1356 331 
L 2022 331 
L 2022 0 
L 263 0 
L 263 331 
L 781 331 
L 781 2994 
L 231 2994 
L 231 3322 
L 1356 3322 
L 1356 2731 
Q 1525 3078 1790 3245 
Q 2056 3413 2438 3413 
Q 2578 3413 2733 3391 
Q 2888 3369 3059 3328 
z
" transform="scale(0.015625)"/>
       <path id="DejaVuSerif-28" d="M 2041 -997 
Q 1281 -656 893 83 
Q 506 822 506 1931 
Q 506 3044 893 3783 
Q 1281 4522 2041 4863 
L 2041 4556 
Q 1559 4225 1350 3623 
Q 1141 3022 1141 1931 
Q 1141 844 1350 242 
Q 1559 -359 2041 -691 
L 2041 -997 
z
" transform="scale(0.015625)"/>
       <path id="DejaVuSerif-29" d="M 453 -997 
L 453 -691 
Q 934 -359 1145 242 
Q 1356 844 1356 1931 
Q 1356 3022 1145 3623 
Q 934 4225 453 4556 
L 453 4863 
Q 1216 4522 1603 3783 
Q 1991 3044 1991 1931 
Q 1991 822 1603 83 
Q 1216 -656 453 -997 
z
" transform="scale(0.015625)"/>
      </defs>
      <use xlink:href="#DejaVuSerif-42"/>
      <use xlink:href="#DejaVuSerif-61" transform="translate(73.486328 0)"/>
      <use xlink:href="#DejaVuSerif-6e" transform="translate(133.105469 0)"/>
      <use xlink:href="#DejaVuSerif-64" transform="translate(197.509766 0)"/>
      <use xlink:href="#DejaVuSerif-20" transform="translate(261.523438 0)"/>
      <use xlink:href="#DejaVuSerif-50" transform="translate(293.310547 0)"/>
      <use xlink:href="#DejaVuSerif-6f" transform="translate(356.595703 0)"/>
      <use xlink:href="#DejaVuSerif-77" transform="translate(416.800781 0)"/>
      <use xlink:href="#DejaVuSerif-65" transform="translate(502.396484 0)"/>
      <use xlink:href="#DejaVuSerif-72" transform="translate(561.576172 0)"/>
      <use xlink:href="#DejaVuSerif-20" transform="translate(609.378906 0)"/>
      <use xlink:href="#DejaVuSerif-28" transform="translate(641.166016 0)"/>
      <use xlink:href="#DejaVuSerif-64" transform="translate(680.179688 0)"/>
      <use xlink:href="#DejaVuSerif-42" transform="translate(744.193359 0)"/>
      <use xlink:href="#DejaVuSerif-29" transform="translate(817.679688 0)"/>
     </g>
    </g>
   </g>
   <g id="matplotlib.axis_2">
    <g id="ytick_1">
     <g id="line2d_15">
      <path d="M 48.885 384.606719 
L 702.075068 384.606719 
" clip-path="url(#p09cfc030b0)" style="fill: none; stroke-dasharray: 2.96,1.28; stroke-dashoffset: 0; stroke: #dddddd; stroke-opacity: 0.3; stroke-width: 0.8"/>
     </g>
     <g id="line2d_16">
      <defs>
       <path id="m59d0827a26" d="M 0 0 
L -3.5 0 
" style="stroke: #333333; stroke-width: 0.8"/>
      </defs>
      <g>
       <use xlink:href="#m59d0827a26" x="48.885" y="384.606719" style="fill: #333333; stroke: #333333; stroke-width: 0.8"/>
      </g>
     </g>
     <g id="text_9">
      <!-- 0.00 -->
      <g style="fill: #333333" transform="translate(21.845938 388.026016) scale(0.09 -0.09)">
       <defs>
        <path id="DejaVuSerif-2e" d="M 603 325 
Q 603 500 722 622 
Q 841 744 1019 744 
Q 1191 744 1312 622 
Q 1434 500 1434 325 
Q 1434 153 1312 31 
Q 1191 -91 1019 -91 
Q 841 -91 722 29 
Q 603 150 603 325 
z
" transform="scale(0.015625)"/>
       </defs>
       <use xlink:href="#DejaVuSerif-30"/>
       <use xlink:href="#DejaVuSerif-2e" transform="translate(63.623047 0)"/>
       <use xlink:href="#DejaVuSerif-30" transform="translate(95.410156 0)"/>
       <use xlink:href="#DejaVuSerif-30" transform="translate(159.033203 0)"/>
      </g>
     </g>
    </g>
    <g id="ytick_2">
     <g id="line2d_17">
      <path d="M 48.885 326.668456 
L 702.075068 326.668456 
" clip-path="url(#p09cfc030b0)" style="fill: none; stroke-dasharray: 2.96,1.28; stroke-dashoffset: 0; stroke: #dddddd; stroke-opacity: 0.3; stroke-width: 0.8"/>
     </g>
     <g id="line2d_18">
      <g>
       <use xlink:href="#m59d0827a26" x="48.885" y="326.668456" style="fill: #333333; stroke: #333333; stroke-width: 0.8"/>
      </g>
     </g>
     <g id="text_10">
      <!-- 0.05 -->
      <g style="fill: #333333" transform="translate(21.845938 330.087753) scale(0.09 -0.09)">
       <defs>
        <path id="DejaVuSerif-35" d="M 3219 4666 
L 3219 4153 
L 1081 4153 
L 1081 2816 
Q 1244 2928 1461 2984 
Q 1678 3041 1947 3041 
Q 2703 3041 3140 2622 
Q 3578 2203 3578 1478 
Q 3578 738 3136 323 
Q 2694 -91 1894 -91 
Q 1572 -91 1234 -12 
Q 897 66 544 225 
L 544 1131 
L 897 1131 
Q 925 688 1179 453 
Q 1434 219 1894 219 
Q 2388 219 2653 544 
Q 2919 869 2919 1478 
Q 2919 2084 2655 2407 
Q 2391 2731 1894 2731 
Q 1613 2731 1398 2631 
Q 1184 2531 1019 2322 
L 750 2322 
L 750 4666 
L 3219 4666 
z
" transform="scale(0.015625)"/>
       </defs>
       <use xlink:href="#DejaVuSerif-30"/>
       <use xlink:href="#DejaVuSerif-2e" transform="translate(63.623047 0)"/>
       <use xlink:href="#DejaVuSerif-30" transform="translate(95.410156 0)"/>
       <use xlink:href="#DejaVuSerif-35" transform="translate(159.033203 0)"/>
      </g>
     </g>
    </g>
    <g id="ytick_3">
     <g id="line2d_19">
      <path d="M 48.885 268.730194 
L 702.075068 268.730194 
" clip-path="url(#p09cfc030b0)" style="fill: none; stroke-dasharray: 2.96,1.28; stroke-dashoffset: 0; stroke: #dddddd; stroke-opacity: 0.3; stroke-width: 0.8"/>
     </g>
     <g id="line2d_20">
      <g>
       <use xlink:href="#m59d0827a26" x="48.885" y="268.730194" style="fill: #333333; stroke: #333333; stroke-width: 0.8"/>
      </g>
     </g>
     <g id="text_11">
      <!-- 0.10 -->
      <g style="fill: #333333" transform="translate(21.845938 272.14949) scale(0.09 -0.09)">
       <use xlink:href="#DejaVuSerif-30"/>
       <use xlink:href="#DejaVuSerif-2e" transform="translate(63.623047 0)"/>
       <use xlink:href="#DejaVuSerif-31" transform="translate(95.410156 0)"/>
       <use xlink:href="#DejaVuSerif-30" transform="translate(159.033203 0)"/>
      </g>
     </g>
    </g>
    <g id="ytick_4">
     <g id="line2d_21">
      <path d="M 48.885 210.791931 
L 702.075068 210.791931 
" clip-path="url(#p09cfc030b0)" style="fill: none; stroke-dasharray: 2.96,1.28; stroke-dashoffset: 0; stroke: #dddddd; stroke-opacity: 0.3; stroke-width: 0.8"/>
     </g>
     <g id="line2d_22">
      <g>
       <use xlink:href="#m59d0827a26" x="48.885" y="210.791931" style="fill: #333333; stroke: #333333; stroke-width: 0.8"/>
      </g>
     </g>
     <g id="text_12">
      <!-- 0.15 -->
      <g style="fill: #333333" transform="translate(21.845938 214.211228) scale(0.09 -0.09)">
       <use xlink:href="#DejaVuSerif-30"/>
       <use xlink:href="#DejaVuSerif-2e" transform="translate(63.623047 0)"/>
       <use xlink:href="#DejaVuSerif-31" transform="translate(95.410156 0)"/>
       <use xlink:href="#DejaVuSerif-35" transform="translate(159.033203 0)"/>
      </g>
     </g>
    </g>
    <g id="ytick_5">
     <g id="line2d_23">
      <path d="M 48.885 152.853668 
L 702.075068 152.853668 
" clip-path="url(#p09cfc030b0)" style="fill: none; stroke-dasharray: 2.96,1.28; stroke-dashoffset: 0; stroke: #dddddd; stroke-opacity: 0.3; stroke-width: 0.8"/>
     </g>
     <g id="line2d_24">
      <g>
       <use xlink:href="#m59d0827a26" x="48.885" y="152.853668" style="fill: #333333; stroke: #333333; stroke-width: 0.8"/>
      </g>
     </g>
     <g id="text_13">
      <!-- 0.20 -->
      <g style="fill: #333333" transform="translate(21.845938 156.272965) scale(0.09 -0.09)">
       <use xlink:href="#DejaVuSerif-30"/>
       <use xlink:href="#DejaVuSerif-2e" transform="translate(63.623047 0)"/>
       <use xlink:href="#DejaVuSerif-32" transform="translate(95.410156 0)"/>
       <use xlink:href="#DejaVuSerif-30" transform="translate(159.033203 0)"/>
      </g>
     </g>
    </g>
    <g id="ytick_6">
     <g id="line2d_25">
      <path d="M 48.885 94.915406 
L 702.075068 94.915406 
" clip-path="url(#p09cfc030b0)" style="fill: none; stroke-dasharray: 2.96,1.28; stroke-dashoffset: 0; stroke: #dddddd; stroke-opacity: 0.3; stroke-width: 0.8"/>
     </g>
     <g id="line2d_26">
      <g>
       <use xlink:href="#m59d0827a26" x="48.885" y="94.915406" style="fill: #333333; stroke: #333333; stroke-width: 0.8"/>
      </g>
     </g>
     <g id="text_14">
      <!-- 0.25 -->
      <g style="fill: #333333" transform="translate(21.845938 98.334703) scale(0.09 -0.09)">
       <use xlink:href="#DejaVuSerif-30"/>
       <use xlink:href="#DejaVuSerif-2e" transform="translate(63.623047 0)"/>
       <use xlink:href="#DejaVuSerif-32" transform="translate(95.410156 0)"/>
       <use xlink:href="#DejaVuSerif-35" transform="translate(159.033203 0)"/>
      </g>
     </g>
    </g>
    <g id="ytick_7">
     <g id="line2d_27">
      <path d="M 48.885 36.977143 
L 702.075068 36.977143 
" clip-path="url(#p09cfc030b0)" style="fill: none; stroke-dasharray: 2.96,1.28; stroke-dashoffset: 0; stroke: #dddddd; stroke-opacity: 0.3; stroke-width: 0.8"/>
     </g>
     <g id="line2d_28">
      <g>
       <use xlink:href="#m59d0827a26" x="48.885" y="36.977143" style="fill: #333333; stroke: #333333; stroke-width: 0.8"/>
      </g>
     </g>
     <g id="text_15">
      <!-- 0.30 -->
      <g style="fill: #333333" transform="translate(21.845938 40.39644) scale(0.09 -0.09)">
       <defs>
        <path id="DejaVuSerif-33" d="M 622 4469 
Q 988 4606 1323 4678 
Q 1659 4750 1953 4750 
Q 2638 4750 3022 4454 
Q 3406 4159 3406 3634 
Q 3406 3213 3140 2930 
Q 2875 2647 2388 2547 
Q 2963 2466 3280 2130 
Q 3597 1794 3597 1259 
Q 3597 606 3158 257 
Q 2719 -91 1894 -91 
Q 1528 -91 1179 -12 
Q 831 66 488 225 
L 488 1131 
L 838 1131 
Q 869 681 1141 450 
Q 1413 219 1906 219 
Q 2384 219 2661 495 
Q 2938 772 2938 1253 
Q 2938 1803 2653 2086 
Q 2369 2369 1819 2369 
L 1522 2369 
L 1522 2688 
L 1678 2688 
Q 2225 2688 2498 2914 
Q 2772 3141 2772 3597 
Q 2772 4006 2547 4223 
Q 2322 4441 1900 4441 
Q 1478 4441 1245 4241 
Q 1013 4041 972 3647 
L 622 3647 
L 622 4469 
z
" transform="scale(0.015625)"/>
       </defs>
       <use xlink:href="#DejaVuSerif-30"/>
       <use xlink:href="#DejaVuSerif-2e" transform="translate(63.623047 0)"/>
       <use xlink:href="#DejaVuSerif-33" transform="translate(95.410156 0)"/>
       <use xlink:href="#DejaVuSerif-30" transform="translate(159.033203 0)"/>
      </g>
     </g>
    </g>
    <g id="text_16">
     <!-- Density -->
     <g transform="translate(15.401875 224.948594) rotate(-90) scale(0.11 -0.11)">
      <defs>
       <path id="DejaVuSerif-44" d="M 1581 331 
L 2163 331 
Q 3072 331 3558 850 
Q 4044 1369 4044 2338 
Q 4044 3306 3559 3818 
Q 3075 4331 2163 4331 
L 1581 4331 
L 1581 331 
z
M 353 0 
L 353 331 
L 947 331 
L 947 4331 
L 353 4331 
L 353 4666 
L 2209 4666 
Q 3416 4666 4089 4050 
Q 4763 3434 4763 2338 
Q 4763 1238 4088 619 
Q 3413 0 2209 0 
L 353 0 
z
" transform="scale(0.015625)"/>
       <path id="DejaVuSerif-73" d="M 359 184 
L 359 959 
L 691 959 
Q 703 588 923 403 
Q 1144 219 1575 219 
Q 1963 219 2166 364 
Q 2369 509 2369 788 
Q 2369 1006 2220 1140 
Q 2072 1275 1594 1428 
L 1178 1569 
Q 750 1706 558 1912 
Q 366 2119 366 2438 
Q 366 2894 700 3153 
Q 1034 3413 1625 3413 
Q 1888 3413 2178 3344 
Q 2469 3275 2778 3144 
L 2778 2419 
L 2447 2419 
Q 2434 2741 2221 2922 
Q 2009 3103 1644 3103 
Q 1281 3103 1095 2975 
Q 909 2847 909 2591 
Q 909 2381 1050 2254 
Q 1191 2128 1613 1997 
L 2069 1856 
Q 2541 1709 2748 1489 
Q 2956 1269 2956 922 
Q 2956 450 2595 179 
Q 2234 -91 1600 -91 
Q 1278 -91 972 -22 
Q 666 47 359 184 
z
" transform="scale(0.015625)"/>
       <path id="DejaVuSerif-69" d="M 622 4353 
Q 622 4497 726 4603 
Q 831 4709 978 4709 
Q 1122 4709 1226 4603 
Q 1331 4497 1331 4353 
Q 1331 4206 1228 4103 
Q 1125 4000 978 4000 
Q 831 4000 726 4103 
Q 622 4206 622 4353 
z
M 1356 331 
L 1900 331 
L 1900 0 
L 231 0 
L 231 331 
L 781 331 
L 781 2988 
L 231 2988 
L 231 3322 
L 1356 3322 
L 1356 331 
z
" transform="scale(0.015625)"/>
       <path id="DejaVuSerif-74" d="M 691 2988 
L 184 2988 
L 184 3322 
L 691 3322 
L 691 4353 
L 1269 4353 
L 1269 3322 
L 2350 3322 
L 2350 2988 
L 1269 2988 
L 1269 878 
Q 1269 456 1350 337 
Q 1431 219 1650 219 
Q 1875 219 1978 351 
Q 2081 484 2088 781 
L 2522 781 
Q 2497 328 2275 118 
Q 2053 -91 1600 -91 
Q 1103 -91 897 129 
Q 691 350 691 878 
L 691 2988 
z
" transform="scale(0.015625)"/>
       <path id="DejaVuSerif-79" d="M 1381 -609 
L 1600 -56 
L 359 2988 
L -19 2988 
L -19 3322 
L 1509 3322 
L 1509 2988 
L 978 2988 
L 1913 703 
L 2847 2988 
L 2350 2988 
L 2350 3322 
L 3597 3322 
L 3597 2988 
L 3225 2988 
L 1703 -750 
Q 1547 -1138 1356 -1280 
Q 1166 -1422 819 -1422 
Q 672 -1422 517 -1397 
Q 363 -1372 206 -1325 
L 206 -691 
L 500 -691 
Q 519 -903 608 -995 
Q 697 -1088 884 -1088 
Q 1056 -1088 1161 -992 
Q 1266 -897 1381 -609 
z
" transform="scale(0.015625)"/>
      </defs>
      <use xlink:href="#DejaVuSerif-44"/>
      <use xlink:href="#DejaVuSerif-65" transform="translate(80.175781 0)"/>
      <use xlink:href="#DejaVuSerif-6e" transform="translate(139.355469 0)"/>
      <use xlink:href="#DejaVuSerif-73" transform="translate(203.759766 0)"/>
      <use xlink:href="#DejaVuSerif-69" transform="translate(255.078125 0)"/>
      <use xlink:href="#DejaVuSerif-74" transform="translate(287.060547 0)"/>
      <use xlink:href="#DejaVuSerif-79" transform="translate(327.246094 0)"/>
     </g>
    </g>
   </g>
   <g id="line2d_29">
    <path d="M 78.575458 373.318843 
L 102.447182 366.665722 
L 108.415114 364.662693 
L 114.383045 362.284346 
L 117.36701 360.919916 
L 120.350976 359.426642 
L 123.334942 357.80117 
L 129.302873 354.1673 
L 135.270804 350.102739 
L 153.174597 337.254648 
L 159.142529 333.495282 
L 162.126494 331.803287 
L 168.094425 328.804277 
L 174.062357 326.234348 
L 185.998219 321.453077 
L 188.982185 320.097959 
L 191.96615 318.590812 
L 194.950116 316.889247 
L 197.934081 314.954141 
L 200.918047 312.750797 
L 203.902013 310.249915 
L 206.885978 307.428326 
L 209.869944 304.269538 
L 212.853909 300.764101 
L 215.837875 296.909791 
L 218.82184 292.711647 
L 221.805806 288.18183 
L 224.789772 283.339315 
L 227.773737 278.209371 
L 233.741668 267.214986 
L 239.7096 255.491907 
L 251.645462 231.11368 
L 260.597359 212.96138 
L 272.533221 189.382151 
L 296.404946 142.77005 
L 302.372877 131.861263 
L 305.356843 126.760318 
L 308.340808 121.970777 
L 311.324774 117.545849 
L 314.308739 113.532523 
L 317.292705 109.969486 
L 320.276671 106.885868 
L 323.260636 104.300932 
L 326.244602 102.224704 
L 329.228567 100.65947 
L 332.212533 99.601931 
L 335.196499 99.045754 
L 338.180464 98.984219 
L 341.16443 99.412617 
L 344.148395 100.330117 
L 347.132361 101.740854 
L 350.116327 103.654093 
L 353.100292 106.083416 
L 356.084258 109.045016 
L 359.068223 112.555246 
L 362.052189 116.627708 
L 365.036155 121.270176 
L 368.02012 126.481686 
L 371.004086 132.250125 
L 373.988051 138.550556 
L 376.972017 145.344489 
L 379.955982 152.580154 
L 385.923914 168.111831 
L 391.891845 184.535407 
L 400.843742 209.395983 
L 406.811673 225.26824 
L 412.779604 240.102648 
L 415.76357 247.063813 
L 418.747535 253.70953 
L 421.731501 260.044643 
L 424.715466 266.082875 
L 427.699432 271.844987 
L 433.667363 282.647222 
L 439.635294 292.683198 
L 445.603225 302.175221 
L 451.571157 311.28908 
L 457.539088 320.105393 
L 463.507019 328.612733 
L 469.47495 336.72225 
L 475.442881 344.299018 
L 478.426847 347.842532 
L 481.410813 351.201309 
L 484.394778 354.362608 
L 487.378744 357.317243 
L 490.362709 360.059978 
L 493.346675 362.589643 
L 496.330641 364.908976 
L 499.314606 367.024241 
L 502.298572 368.94467 
L 505.282537 370.681788 
L 508.266503 372.248686 
L 511.250469 373.659296 
L 514.234434 374.927734 
L 520.202365 377.092203 
L 526.170296 378.840435 
L 532.138228 380.251104 
L 538.106159 381.383014 
L 544.07409 382.279642 
L 550.042021 382.975178 
L 556.009952 383.499562 
L 564.961849 384.027305 
L 573.913746 384.324938 
L 585.849608 384.493422 
L 600.769436 384.47553 
L 612.705299 384.282155 
L 624.641161 383.858832 
L 636.577023 383.164576 
L 660.448748 381.549704 
L 669.400645 381.268322 
L 672.384611 381.248668 
L 672.384611 381.248668 
" clip-path="url(#p09cfc030b0)" style="fill: none; stroke: #1f77b4; stroke-width: 1.5; stroke-linecap: square"/>
   </g>
   <g id="patch_21">
    <path d="M 48.885 384.606719 
L 48.885 23.077969 
" style="fill: none; stroke: #333333; stroke-linejoin: miter; stroke-linecap: square"/>
   </g>
   <g id="patch_22">
    <path d="M 48.885 384.606719 
L 702.075068 384.606719 
" style="fill: none; stroke: #333333; stroke-linejoin: miter; stroke-linecap: square"/>
   </g>
   <g id="text_17">
    <!-- Band Power Distribution for Channel F6 (Subject 062) -->
    <g transform="translate(196.114565 17.077969) scale(0.13 -0.13)">
     <defs>
      <path id="DejaVuSerif-62" d="M 738 331 
L 738 4531 
L 184 4531 
L 184 4863 
L 1313 4863 
L 1313 2803 
Q 1481 3116 1742 3264 
Q 2003 3413 2388 3413 
Q 3000 3413 3387 2928 
Q 3775 2444 3775 1663 
Q 3775 881 3387 395 
Q 3000 -91 2388 -91 
Q 2003 -91 1742 57 
Q 1481 206 1313 519 
L 1313 0 
L 184 0 
L 184 331 
L 738 331 
z
M 1313 1497 
Q 1313 897 1542 583 
Q 1772 269 2209 269 
Q 2650 269 2876 622 
Q 3103 975 3103 1663 
Q 3103 2353 2876 2703 
Q 2650 3053 2209 3053 
Q 1772 3053 1542 2737 
Q 1313 2422 1313 1825 
L 1313 1497 
z
" transform="scale(0.015625)"/>
      <path id="DejaVuSerif-75" d="M 2266 3322 
L 3341 3322 
L 3341 331 
L 3884 331 
L 3884 0 
L 2766 0 
L 2766 588 
Q 2606 256 2353 82 
Q 2100 -91 1766 -91 
Q 1213 -91 952 223 
Q 691 538 691 1209 
L 691 2988 
L 172 2988 
L 172 3322 
L 1269 3322 
L 1269 1388 
Q 1269 781 1417 556 
Q 1566 331 1947 331 
Q 2347 331 2556 625 
Q 2766 919 2766 1478 
L 2766 2988 
L 2266 2988 
L 2266 3322 
z
" transform="scale(0.015625)"/>
      <path id="DejaVuSerif-66" d="M 2753 4078 
L 2450 4078 
Q 2447 4313 2317 4434 
Q 2188 4556 1941 4556 
Q 1619 4556 1487 4379 
Q 1356 4203 1356 3750 
L 1356 3322 
L 2284 3322 
L 2284 2988 
L 1356 2988 
L 1356 331 
L 2094 331 
L 2094 0 
L 231 0 
L 231 331 
L 781 331 
L 781 2988 
L 231 2988 
L 231 3322 
L 781 3322 
L 781 3738 
Q 781 4294 1070 4578 
Q 1359 4863 1919 4863 
Q 2128 4863 2337 4825 
Q 2547 4788 2753 4709 
L 2753 4078 
z
" transform="scale(0.015625)"/>
      <path id="DejaVuSerif-43" d="M 4513 1234 
Q 4306 581 3820 245 
Q 3334 -91 2591 -91 
Q 2134 -91 1743 65 
Q 1353 222 1050 525 
Q 700 875 529 1320 
Q 359 1766 359 2328 
Q 359 3416 987 4083 
Q 1616 4750 2644 4750 
Q 3025 4750 3456 4650 
Q 3888 4550 4384 4347 
L 4384 3272 
L 4031 3272 
Q 3916 3859 3567 4137 
Q 3219 4416 2591 4416 
Q 1844 4416 1459 3886 
Q 1075 3356 1075 2328 
Q 1075 1303 1459 773 
Q 1844 244 2591 244 
Q 3113 244 3450 492 
Q 3788 741 3938 1234 
L 4513 1234 
z
" transform="scale(0.015625)"/>
      <path id="DejaVuSerif-68" d="M 263 0 
L 263 331 
L 781 331 
L 781 4531 
L 231 4531 
L 231 4863 
L 1356 4863 
L 1356 2731 
Q 1516 3069 1770 3241 
Q 2025 3413 2363 3413 
Q 2913 3413 3172 3097 
Q 3431 2781 3431 2113 
L 3431 331 
L 3944 331 
L 3944 0 
L 2356 0 
L 2356 331 
L 2853 331 
L 2853 1931 
Q 2853 2541 2704 2764 
Q 2556 2988 2175 2988 
Q 1775 2988 1565 2697 
Q 1356 2406 1356 1850 
L 1356 331 
L 1856 331 
L 1856 0 
L 263 0 
z
" transform="scale(0.015625)"/>
      <path id="DejaVuSerif-6c" d="M 1313 331 
L 1856 331 
L 1856 0 
L 184 0 
L 184 331 
L 738 331 
L 738 4531 
L 184 4531 
L 184 4863 
L 1313 4863 
L 1313 331 
z
" transform="scale(0.015625)"/>
      <path id="DejaVuSerif-46" d="M 353 0 
L 353 331 
L 947 331 
L 947 4331 
L 353 4331 
L 353 4666 
L 4172 4666 
L 4172 3628 
L 3788 3628 
L 3788 4281 
L 1581 4281 
L 1581 2719 
L 3175 2719 
L 3175 3303 
L 3559 3303 
L 3559 1753 
L 3175 1753 
L 3175 2338 
L 1581 2338 
L 1581 331 
L 2328 331 
L 2328 0 
L 353 0 
z
" transform="scale(0.015625)"/>
      <path id="DejaVuSerif-53" d="M 594 225 
L 594 1288 
L 953 1284 
Q 969 753 1261 498 
Q 1553 244 2150 244 
Q 2706 244 2998 464 
Q 3291 684 3291 1106 
Q 3291 1444 3114 1625 
Q 2938 1806 2369 1978 
L 1753 2163 
Q 1084 2366 811 2669 
Q 538 2972 538 3500 
Q 538 4094 959 4422 
Q 1381 4750 2144 4750 
Q 2469 4750 2856 4679 
Q 3244 4609 3681 4475 
L 3681 3481 
L 3328 3481 
Q 3275 3975 2998 4195 
Q 2722 4416 2156 4416 
Q 1663 4416 1405 4214 
Q 1147 4013 1147 3628 
Q 1147 3294 1340 3103 
Q 1534 2913 2163 2725 
L 2741 2553 
Q 3375 2363 3645 2067 
Q 3916 1772 3916 1275 
Q 3916 597 3481 253 
Q 3047 -91 2188 -91 
Q 1803 -91 1404 -12 
Q 1006 66 594 225 
z
" transform="scale(0.015625)"/>
      <path id="DejaVuSerif-6a" d="M 641 4353 
Q 641 4497 745 4603 
Q 850 4709 997 4709 
Q 1141 4709 1245 4603 
Q 1350 4497 1350 4353 
Q 1350 4206 1248 4103 
Q 1147 4000 997 4000 
Q 850 4000 745 4103 
Q 641 4206 641 4353 
z
M 781 2988 
L 238 2988 
L 238 3322 
L 1356 3322 
L 1356 -325 
Q 1356 -838 1051 -1130 
Q 747 -1422 213 -1422 
Q -13 -1422 -217 -1370 
Q -422 -1319 -616 -1216 
L -616 -531 
L -319 -531 
Q -297 -831 -164 -972 
Q -31 -1113 225 -1113 
Q 509 -1113 645 -920 
Q 781 -728 781 -325 
L 781 2988 
z
" transform="scale(0.015625)"/>
      <path id="DejaVuSerif-63" d="M 3291 997 
Q 3169 466 2822 187 
Q 2475 -91 1925 -91 
Q 1200 -91 759 389 
Q 319 869 319 1663 
Q 319 2459 759 2936 
Q 1200 3413 1925 3413 
Q 2241 3413 2553 3339 
Q 2866 3266 3181 3116 
L 3181 2266 
L 2847 2266 
Q 2781 2703 2561 2903 
Q 2341 3103 1931 3103 
Q 1466 3103 1228 2742 
Q 991 2381 991 1663 
Q 991 944 1227 581 
Q 1463 219 1931 219 
Q 2303 219 2525 412 
Q 2747 606 2828 997 
L 3291 997 
z
" transform="scale(0.015625)"/>
     </defs>
     <use xlink:href="#DejaVuSerif-42"/>
     <use xlink:href="#DejaVuSerif-61" transform="translate(73.486328 0)"/>
     <use xlink:href="#DejaVuSerif-6e" transform="translate(133.105469 0)"/>
     <use xlink:href="#DejaVuSerif-64" transform="translate(197.509766 0)"/>
     <use xlink:href="#DejaVuSerif-20" transform="translate(261.523438 0)"/>
     <use xlink:href="#DejaVuSerif-50" transform="translate(293.310547 0)"/>
     <use xlink:href="#DejaVuSerif-6f" transform="translate(356.595703 0)"/>
     <use xlink:href="#DejaVuSerif-77" transform="translate(416.800781 0)"/>
     <use xlink:href="#DejaVuSerif-65" transform="translate(502.396484 0)"/>
     <use xlink:href="#DejaVuSerif-72" transform="translate(561.576172 0)"/>
     <use xlink:href="#DejaVuSerif-20" transform="translate(609.378906 0)"/>
     <use xlink:href="#DejaVuSerif-44" transform="translate(641.166016 0)"/>
     <use xlink:href="#DejaVuSerif-69" transform="translate(721.341797 0)"/>
     <use xlink:href="#DejaVuSerif-73" transform="translate(753.324219 0)"/>
     <use xlink:href="#DejaVuSerif-74" transform="translate(804.642578 0)"/>
     <use xlink:href="#DejaVuSerif-72" transform="translate(844.828125 0)"/>
     <use xlink:href="#DejaVuSerif-69" transform="translate(892.630859 0)"/>
     <use xlink:href="#DejaVuSerif-62" transform="translate(924.613281 0)"/>
     <use xlink:href="#DejaVuSerif-75" transform="translate(988.626953 0)"/>
     <use xlink:href="#DejaVuSerif-74" transform="translate(1053.03125 0)"/>
     <use xlink:href="#DejaVuSerif-69" transform="translate(1093.216797 0)"/>
     <use xlink:href="#DejaVuSerif-6f" transform="translate(1125.199219 0)"/>
     <use xlink:href="#DejaVuSerif-6e" transform="translate(1185.404297 0)"/>
     <use xlink:href="#DejaVuSerif-20" transform="translate(1249.808594 0)"/>
     <use xlink:href="#DejaVuSerif-66" transform="translate(1281.595703 0)"/>
     <use xlink:href="#DejaVuSerif-6f" transform="translate(1318.607422 0)"/>
     <use xlink:href="#DejaVuSerif-72" transform="translate(1378.8125 0)"/>
     <use xlink:href="#DejaVuSerif-20" transform="translate(1426.615234 0)"/>
     <use xlink:href="#DejaVuSerif-43" transform="translate(1458.402344 0)"/>
     <use xlink:href="#DejaVuSerif-68" transform="translate(1534.916016 0)"/>
     <use xlink:href="#DejaVuSerif-61" transform="translate(1599.320312 0)"/>
     <use xlink:href="#DejaVuSerif-6e" transform="translate(1658.939453 0)"/>
     <use xlink:href="#DejaVuSerif-6e" transform="translate(1723.34375 0)"/>
     <use xlink:href="#DejaVuSerif-65" transform="translate(1787.748047 0)"/>
     <use xlink:href="#DejaVuSerif-6c" transform="translate(1846.927734 0)"/>
     <use xlink:href="#DejaVuSerif-20" transform="translate(1878.910156 0)"/>
     <use xlink:href="#DejaVuSerif-46" transform="translate(1910.697266 0)"/>
     <use xlink:href="#DejaVuSerif-36" transform="translate(1980.082031 0)"/>
     <use xlink:href="#DejaVuSerif-20" transform="translate(2043.705078 0)"/>
     <use xlink:href="#DejaVuSerif-28" transform="translate(2075.492188 0)"/>
     <use xlink:href="#DejaVuSerif-53" transform="translate(2114.505859 0)"/>
     <use xlink:href="#DejaVuSerif-75" transform="translate(2183.011719 0)"/>
     <use xlink:href="#DejaVuSerif-62" transform="translate(2247.416016 0)"/>
     <use xlink:href="#DejaVuSerif-6a" transform="translate(2311.429688 0)"/>
     <use xlink:href="#DejaVuSerif-65" transform="translate(2342.435547 0)"/>
     <use xlink:href="#DejaVuSerif-63" transform="translate(2401.615234 0)"/>
     <use xlink:href="#DejaVuSerif-74" transform="translate(2457.621094 0)"/>
     <use xlink:href="#DejaVuSerif-20" transform="translate(2497.806641 0)"/>
     <use xlink:href="#DejaVuSerif-30" transform="translate(2529.59375 0)"/>
     <use xlink:href="#DejaVuSerif-36" transform="translate(2593.216797 0)"/>
     <use xlink:href="#DejaVuSerif-32" transform="translate(2656.839844 0)"/>
     <use xlink:href="#DejaVuSerif-29" transform="translate(2720.462891 0)"/>
    </g>
   </g>
  </g>
 </g>
 <defs>
  <clipPath id="p09cfc030b0">
   <rect x="48.885" y="23.077969" width="653.190068" height="361.52875"/>
  </clipPath>
 </defs>
</svg>
